<svg width="100" height="100" viewBox="0 0 100 100" fill="none" xmlns="http://www.w3.org/2000/svg">
    <g clip-path="url(#clip0)">
        <path d="M54.1354 0.102481C54.3959 0.157187 54.7828 0.274413 54.9881 0.352563L55.375 0.50105L55.3592 2.78305C55.3592 4.31481 55.3829 5.06505 55.4382 5.06505C55.4934 5.06505 55.5171 4.28355 55.5171 2.69709V0.321303L55.754 0.360378L55.9908 0.391639V3.90061C55.9908 7.30798 55.9987 7.40957 56.1488 7.48772C56.2672 7.55025 56.2909 7.60495 56.2277 7.74562C56.1488 7.94881 55.9751 10.5981 55.9908 11.5906C55.9908 11.9736 55.9593 20.4686 55.9119 30.464C55.7698 61.2007 55.6987 81.77 55.7224 81.8013C55.7461 81.8247 78.1459 81.9497 84.1545 81.9654H87.0206V82.2389V82.5202L86.5232 82.4812C86.2547 82.4577 79.2039 82.4186 70.8504 82.3952L55.675 82.3483V84.2552V86.1621L58.9675 86.2168C66.2315 86.334 74.3402 86.631 82.9938 87.0842C89.0892 87.4125 88.4418 87.3578 88.4418 87.561C88.4418 87.9361 85.4888 90.3666 83.0333 92.0077C75.3193 97.1501 66.1762 99.7837 55.2802 99.9869C44.1238 100.206 31.4197 97.6737 18.4472 92.6486C15.5495 91.531 11.5386 89.7179 11.5386 89.5225C11.5386 89.3506 14.1915 88.6394 16.5523 88.1862C20.1369 87.4984 24.9216 86.967 30.6065 86.6232C36.0702 86.2871 40.0654 86.1777 48.1742 86.1464L55.1618 86.1152L55.1855 84.2474L55.2013 82.3796L50.2507 82.3249C47.5189 82.3014 38.4389 82.2623 30.0538 82.2389C21.6686 82.2155 14.1283 82.1764 13.2914 82.1529L11.7754 82.106V81.8638V81.6293L21.266 81.6762C26.4929 81.7075 36.2597 81.7544 42.971 81.7856L55.1776 81.8325L55.225 70.4694C55.2566 64.2173 55.3197 48.595 55.3671 35.747L55.4539 12.3878L54.7591 11.7469L54.0564 11.1061L53.5274 11.5828C52.6273 12.3878 52.122 12.6926 51.443 12.8489C49.9428 13.1771 47.7636 12.6379 45.5608 11.3874C45.1818 11.1764 44.8107 11.0045 44.7238 11.0045C44.6449 11.0045 44.3843 10.8873 44.1474 10.7466C43.8 10.5434 43.65 10.3715 43.3105 9.83225C42.8683 9.12889 42.7973 8.94914 43.0184 9.14452C43.0973 9.21486 43.5868 9.5509 44.1001 9.90258C45.1265 10.5903 45.2212 10.6216 46.0582 10.4496C47.0846 10.2464 48.2926 9.72284 49.7849 8.83192C50.3376 8.50368 51.0166 8.0426 51.2851 7.80814C52.3826 6.8547 53.7564 6.58118 55.0907 7.05008L55.4145 7.15949L55.4697 6.57336C55.4934 6.24513 55.5171 5.84656 55.5171 5.67463C55.5171 5.36984 55.4145 5.27606 55.3276 5.5027C55.2881 5.59648 55.1065 5.49488 54.4749 5.01035C54.0248 4.66648 53.6143 4.3617 53.559 4.33044C53.48 4.28355 53.259 4.47111 52.8089 4.94783C52.1141 5.69026 51.8457 5.88563 51.135 6.15916C50.456 6.42487 48.8611 6.42487 47.7794 6.16698C46.903 5.94816 45.7976 5.56522 44.9528 5.18228C44.6291 5.03379 44.2817 4.90875 44.1869 4.90875C44.0922 4.90875 43.8237 4.81497 43.5868 4.68993C43.2631 4.53363 43.0578 4.34607 42.742 3.93187C42.292 3.33792 42.1183 3.07221 42.2288 3.12691C42.2604 3.15036 42.592 3.33792 42.9631 3.55674C43.3342 3.77557 43.8395 4.05691 44.0922 4.18976C44.5422 4.4164 44.5501 4.4164 45.087 4.31481C46.4924 4.05691 48.9006 2.65019 50.4718 1.18096C50.8429 0.837098 51.3009 0.469789 51.4746 0.383824C52.2404 0.000885115 53.1958 -0.100711 54.1354 0.102481Z" fill="black"/>
        <path d="M54.554 17.3893C54.5224 18.4599 54.4197 21.8204 54.3329 24.8761C54.246 27.924 54.1039 32.8318 54.0171 35.7781C53.9302 38.7244 53.7881 43.6088 53.7012 46.6411C53.6144 49.6733 53.4723 54.5968 53.3854 57.5822C53.2986 60.5675 53.1564 65.405 53.0696 68.3279C52.9827 71.2507 52.888 74.5409 52.8643 75.6428L52.809 77.6434L47.5111 77.6981C42.7658 77.745 36.0388 77.7997 19.8291 77.9404L14.6574 77.9873L15.6128 77.495C17.034 76.7603 17.9973 76.0335 19.4659 74.5877C25.806 68.3513 35.186 53.3777 46.8321 30.9328C48.4033 27.9005 52.3116 20.1011 53.5828 17.4362C54.1039 16.3499 54.5461 15.4668 54.5698 15.4589C54.5934 15.4589 54.5855 16.3264 54.554 17.3893Z" fill="black"/>
        <path d="M63.2468 37.0287C63.5311 40.4126 63.8627 42.7884 64.447 45.6566C66.034 53.4404 69.1291 61.4274 73.4243 68.8282C75.0824 71.6886 77.1589 74.799 78.5564 76.5261C79.0539 77.1357 79.0539 77.12 78.3354 77.4639C78.0117 77.6124 77.8537 77.628 76.4404 77.6202C73.8743 77.6124 70.9924 77.1122 65.0313 75.6195C63.01 75.1194 57.9015 73.7205 57.8384 73.658C57.7436 73.5564 59.607 59.3173 61.2887 47.3055C61.6756 44.5077 62.2125 40.7096 62.4652 38.8653C62.7257 37.0131 62.9626 35.3641 63.0021 35.1922C63.0495 34.9577 63.1047 35.4032 63.2468 37.0287Z" fill="black"/>
    </g>
    <defs>
        <clipPath id="clip0">
        </clipPath>
    </defs>
</svg>
