<?xml version="1.0" encoding="UTF-8" standalone="no"?><!DOCTYPE svg PUBLIC "-//W3C//DTD SVG 1.1//EN" "http://www.w3.org/Graphics/SVG/1.1/DTD/svg11.dtd"><svg width="100%" height="100%" viewBox="0 0 600 600" version="1.1" xmlns="http://www.w3.org/2000/svg" xmlns:xlink="http://www.w3.org/1999/xlink" xml:space="preserve" xmlns:serif="http://www.serif.com/" style="fill-rule:evenodd;clip-rule:evenodd;stroke-linejoin:round;stroke-miterlimit:2;"><path d="M235.332,135.666l0,426.074" style="fill:none;"/><path d="M241.883,118.592c2.64,1.37 5.316,2.777 7.277,4.965c2.947,3.288 4.099,7.654 4.646,12.109l0,426.074c-1.075,8.751 -6.92,17.007 -16.247,18.127c-8.951,1.074 -18.015,-5.138 -20.164,-13.757c-0.355,-1.425 -0.358,-2.914 -0.537,-4.37l0,-426.074c0.543,-4.419 1.734,-8.859 4.646,-12.109c1.983,-2.213 4.481,-3.916 7.277,-4.965c3.747,-1.404 4.858,-1.053 8.778,-1.053c1.441,0.351 2.883,0.702 4.324,1.053Z"/><path d="M112.172,561.74l246.321,0" style="fill:none;"/><path d="M359.811,543.526c8.004,0.851 15.049,6.679 16.734,14.332c2.142,9.737 -5.251,20.51 -15.423,21.956c-1.162,0.165 -1.459,0.145 -2.629,0.186l-246.321,0c-1.171,-0.041 -1.468,-0.021 -2.63,-0.186c-8.248,-1.172 -15.199,-8.508 -15.797,-16.772c-0.716,-9.884 7.712,-19.184 18.427,-19.563l246.321,0c0.439,0.016 0.878,0.031 1.318,0.047Z"/><ellipse cx="235.332" cy="135.666" rx="61.58" ry="60.868" style="fill:#fff;"/><path d="M235.847,56.539c29.424,0.277 58.085,17.88 71.202,43.954c10.803,21.472 10.977,47.854 0.428,69.482c-15.151,31.062 -52.312,50.257 -87.767,43.308c-24.199,-4.744 -45.78,-21.283 -56.523,-43.308c-10.528,-21.585 -10.386,-47.987 0.428,-69.482c13.104,-26.047 41.281,-43.673 71.202,-43.954c0.343,-0.001 0.687,-0.001 1.03,0Zm-0.796,36.52c-19.462,0.183 -37.689,14.673 -41.838,33.493c-5.372,24.368 14.48,51.549 41.838,51.72c20.406,0.128 39.762,-15.898 42.89,-36.103c3.662,-23.663 -15.82,-48.533 -41.768,-49.103c-0.374,-0.005 -0.748,-0.008 -1.122,-0.007Z"/><path d="M136.446,74.798c-32.286,39.16 -32.286,79.739 0,121.736" style="fill:none;"/><path d="M137.148,56.551c0.844,0.053 1.057,0.051 1.895,0.168c9.387,1.317 16.866,10.693 15.755,20.179c-0.757,6.46 -6.081,11.685 -9.803,17.016c-10.634,15.227 -16.787,33.865 -13.117,52.478c2.85,14.451 10.487,27.617 19.298,39.12c0,0 3.008,4.363 3.581,8.601c1.417,10.474 -8.206,21.174 -19.184,20.66c-11.711,-0.547 -19.203,-13.465 -26.06,-25.38c-13.111,-22.779 -19.089,-49.896 -13.524,-75.229c4.024,-18.32 13.456,-35.276 25.293,-49.87c3.875,-4.777 9.524,-7.82 15.866,-7.743Z"/><path d="M334.218,196.534c32.286,-39.161 32.286,-79.739 0,-121.736" style="fill:none;"/><path d="M335.092,56.558c7.228,0.523 12.552,5.222 17.488,12.112c14.809,20.669 24.924,45.266 24.297,70.41c-0.616,24.725 -11.582,48.34 -27.494,67.958c-7.203,8.879 -22.335,10.199 -29.79,0.652c-5.358,-6.863 -4.42,-16.834 1.287,-23.899c13.242,-16.528 22.158,-37.286 17.906,-58.852c-2.849,-14.451 -10.487,-27.615 -19.298,-39.12l-0.554,-0.764c-0.457,-0.703 -0.586,-0.871 -0.986,-1.608c-5.734,-10.538 1.765,-26.139 15.242,-26.881c0.634,-0.035 1.268,-0.021 1.902,-0.008Z"/><path d="M74.866,38.278c-48.788,64.925 -48.788,129.851 0,194.776" style="fill:none;"/><path d="M76.563,20.095c1.044,0.128 1.31,0.136 2.339,0.363c11.419,2.527 18.175,17.471 11.489,27.717c-2.406,3.687 -3.803,5.2 -5.288,7.326c-23.167,33.161 -35.785,74.088 -22.792,115.456c5.835,18.579 15.809,35.743 27.406,51.237c0,0 1.487,2.065 2.302,4.078c4.079,10.082 -3.005,23.066 -14.281,24.82c-6.936,1.08 -14.024,-2.212 -18.314,-7.966c-28.85,-38.698 -46.51,-87.671 -36.692,-136.863c5.659,-28.353 19.506,-55.005 36.692,-78.058c4.052,-5.435 10.226,-8.521 17.139,-8.11Z"/><path d="M521.591,561.74l39.938,-39.938l-39.938,39.938l-39.938,-39.938l39.938,39.938l0,-486.942l-39.938,39.938l39.938,-39.938l39.938,39.938l-39.938,-39.938l0,486.942Z" style="fill:#ebebeb;"/><path d="M491.21,506.637c4.802,3.719 4.674,3.869 8.987,8.133l2.92,2.885l0,-398.773l-8.401,8.304c-5.911,4.577 -13.703,6.828 -20.645,3.739c-9.574,-4.259 -13.676,-17.19 -8.228,-26.098c0.768,-1.256 1.831,-2.31 2.747,-3.465l39.938,-39.476l1.221,-0.962l2.189,-1.695l1.351,-0.619l2.593,-1.178l4.26,-0.838l1.449,0.056l2.89,0.113l1.396,0.389l2.784,0.776l1.393,0.759l2.396,1.338l0.983,0.899l1.221,0.962c0,0 39.938,39.476 39.938,39.476c3.728,4.703 6.183,10.407 5.108,16.203c-1.621,8.743 -10.251,15.476 -19.287,14.936c-2.985,-0.179 -5.882,-1.071 -8.442,-2.6c-3.626,-2.167 -10.449,-9.578 -11.906,-11.018l0,398.772l8.401,-8.303l3.505,-2.715c3.575,-1.59 4.442,-2.361 8.442,-2.6c10.239,-0.612 20.215,8.56 19.556,19.33c-0.268,4.384 -2.577,8.277 -5.377,11.809l-39.938,39.476l-1.221,0.962l-2.189,1.695l-1.351,0.619l-2.593,1.178l-1.423,0.28l-2.837,0.558l-1.449,-0.057l-2.89,-0.112l-1.396,-0.389l-2.784,-0.776l-1.393,-0.759l-2.396,-1.338l-0.983,-0.899l-1.221,-0.962l-39.938,-39.476l-2.747,-3.465c-1.608,-3.533 -2.388,-4.39 -2.63,-8.344c-0.533,-8.711 6.152,-17.441 15.11,-19.064c3.942,-0.714 4.971,-0.171 8.826,0.528c1.354,0.602 2.708,1.204 4.061,1.806Z"/><path d="M395.798,233.054c48.788,-64.925 48.788,-129.851 0,-194.776" style="fill:none;"/><path d="M396.468,20.029c7.439,0.503 13.001,5.62 17.758,12.263c22.756,31.77 37.913,69.736 36.546,108.574c-1.288,36.567 -17.158,72.016 -38.926,101.444c-0.121,0.163 -1.063,1.432 -1.196,1.604c-4.105,5.29 -7.793,6.492 -11.827,7.154c-11.171,1.833 -22.828,-8.605 -21.357,-20.273c0.941,-7.46 7.72,-14.056 12.776,-21.958c20.351,-31.804 29.872,-70.659 18.216,-108.129c-5.817,-18.697 -15.793,-35.914 -27.511,-51.57l-0.674,-0.963c-0.541,-0.892 -0.7,-1.104 -1.153,-2.044c-4.855,-10.074 1.985,-24.053 13.807,-25.892c2.257,-0.351 2.809,-0.213 3.541,-0.21Z"/></svg>