<?xml version="1.0" encoding="UTF-8" standalone="no"?><!DOCTYPE svg PUBLIC "-//W3C//DTD SVG 1.1//EN" "http://www.w3.org/Graphics/SVG/1.1/DTD/svg11.dtd"><svg width="100%" height="100%" viewBox="0 0 800 600" version="1.1" xmlns="http://www.w3.org/2000/svg" xmlns:xlink="http://www.w3.org/1999/xlink" xml:space="preserve" xmlns:serif="http://www.serif.com/" style="fill-rule:evenodd;clip-rule:evenodd;stroke-linejoin:round;stroke-miterlimit:2;"><rect id="Artboard1" x="0" y="0" width="800" height="600" style="fill:none;"/><g id="Artboard11" serif:id="Artboard1"><path d="M400,150l0,350" style="fill:none;"/><path d="M405.319,135.975c2.143,1.125 4.316,2.281 5.909,4.078c2.392,2.701 3.328,6.288 3.772,9.947l0,350c-0.873,7.189 -5.619,13.971 -13.192,14.891c-7.267,0.882 -14.627,-4.221 -16.372,-11.301c-0.289,-1.171 -0.291,-2.393 -0.436,-3.59l0,-350c0.441,-3.63 1.408,-7.278 3.772,-9.947c1.611,-1.818 3.638,-3.217 5.909,-4.078c3.042,-1.154 3.944,-0.866 7.127,-0.866c1.17,0.289 2.341,0.577 3.511,0.866Z"/><path d="M300,500l200,0" style="fill:none;"/><path d="M501.07,485.038c6.5,0.699 12.22,5.487 13.587,11.774c1.74,7.998 -4.263,16.848 -12.522,18.035c-0.943,0.136 -1.185,0.119 -2.135,0.153l-200,0c-0.95,-0.034 -1.192,-0.017 -2.135,-0.153c-6.697,-0.963 -12.341,-6.989 -12.827,-13.777c-0.58,-8.119 6.262,-15.759 14.962,-16.07l200,0c0.357,0.013 0.713,0.025 1.07,0.038Z"/><circle cx="400" cy="150" r="50" style="fill:#ebebeb;"/><path d="M400.418,85.001c23.891,0.227 47.162,14.688 57.813,36.106c8.771,17.639 8.912,39.31 0.347,57.076c-12.302,25.517 -42.475,41.284 -71.262,35.576c-19.649,-3.897 -37.171,-17.483 -45.894,-35.576c-8.548,-17.731 -8.433,-39.419 0.347,-57.076c10.64,-21.396 33.519,-35.875 57.813,-36.106c0.279,-0.001 0.557,-0.001 0.836,0Zm-0.646,30c-15.802,0.15 -30.602,12.053 -33.971,27.513c-4.361,20.017 11.757,42.344 33.971,42.485c16.568,0.105 32.284,-13.059 34.824,-29.657c2.974,-19.438 -12.845,-39.867 -33.913,-40.335c-0.304,-0.005 -0.607,-0.007 -0.911,-0.006Z"/><path d="M319.71,100c-26.215,32.168 -26.215,65.502 0,100" style="fill:none;"/><path d="M320.28,85.011c0.685,0.044 0.858,0.041 1.538,0.138c7.622,1.082 13.694,8.783 12.792,16.576c-0.614,5.306 -4.937,9.599 -7.959,13.978c-8.634,12.508 -13.63,27.818 -10.65,43.108c2.313,11.871 8.515,22.686 15.668,32.135c0,0 2.443,3.584 2.908,7.066c1.151,8.604 -6.662,17.393 -15.577,16.971c-9.508,-0.45 -15.591,-11.061 -21.159,-20.849c-10.645,-18.711 -15.499,-40.987 -10.981,-61.797c3.268,-15.049 10.926,-28.978 20.537,-40.966c3.146,-3.924 7.734,-6.423 12.883,-6.36Z"/><path d="M480.29,200c26.215,-32.168 26.215,-65.502 0,-100" style="fill:none;"/><path d="M481,85.017c5.869,0.43 10.192,4.289 14.199,9.949c12.024,16.979 20.237,37.184 19.728,57.839c-0.5,20.31 -9.404,39.709 -22.324,55.824c-5.848,7.294 -18.135,8.378 -24.187,0.536c-4.351,-5.638 -3.589,-13.829 1.044,-19.632c10.752,-13.577 17.992,-30.629 14.539,-48.344c-2.313,-11.871 -8.515,-22.685 -15.669,-32.136l-0.45,-0.628c-0.371,-0.577 -0.475,-0.715 -0.8,-1.32c-4.656,-8.657 1.433,-21.472 12.376,-22.082c0.514,-0.028 1.029,-0.017 1.544,-0.006Z"/><path d="M269.71,70c-39.613,53.333 -39.613,106.667 0,160" style="fill:none;"/><path d="M271.088,55.063c0.847,0.106 1.064,0.112 1.898,0.299c9.272,2.076 14.758,14.351 9.329,22.769c-1.954,3.028 -3.087,4.271 -4.293,6.017c-18.811,27.241 -29.056,60.86 -18.506,94.842c4.738,15.262 12.836,29.362 22.252,42.089c0,0 1.207,1.696 1.869,3.35c3.312,8.281 -2.44,18.948 -11.595,20.389c-5.632,0.886 -11.387,-1.818 -14.87,-6.544c-23.425,-31.789 -37.764,-72.018 -29.792,-112.427c4.595,-23.291 15.838,-45.184 29.792,-64.121c3.29,-4.465 8.303,-6.999 13.916,-6.663Z"/><path d="M632.427,500l32.428,-32.427l-32.428,32.427l-32.427,-32.427l32.427,32.427l0,-400l-32.427,32.427l32.427,-32.427l32.428,32.427l-32.428,-32.427l0,400Z" style="fill:#ebebeb;"/><path d="M607.76,454.736c3.899,3.054 3.795,3.178 7.297,6.68l2.37,2.371l0,-327.574l-6.82,6.821c-4.8,3.76 -11.126,5.609 -16.763,3.072c-7.774,-3.499 -11.104,-14.121 -6.681,-21.439c0.624,-1.031 1.487,-1.897 2.23,-2.846l32.428,-32.428l0.991,-0.79l1.778,-1.393l1.097,-0.508l2.105,-0.968l3.459,-0.688l1.176,0.046l2.347,0.093l1.134,0.319l2.26,0.638l1.131,0.623l1.945,1.1l0.799,0.738l0.991,0.79c0,0 32.427,32.428 32.427,32.428c3.027,3.864 5.021,8.549 4.148,13.31c-1.316,7.182 -8.324,12.713 -15.66,12.269c-2.424,-0.147 -4.776,-0.88 -6.854,-2.136c-2.945,-1.78 -8.485,-7.868 -9.668,-9.051l0,327.574l6.821,-6.821l2.847,-2.23c2.902,-1.306 3.606,-1.94 6.854,-2.136c8.313,-0.503 16.414,7.031 15.878,15.878c-0.217,3.602 -2.092,6.8 -4.366,9.701l-32.427,32.428l-0.991,0.79l-1.778,1.393l-1.097,0.508l-2.105,0.968l-1.155,0.23l-2.304,0.458l-1.177,-0.046l-2.346,-0.093l-1.134,-0.319l-2.26,-0.638l-1.131,-0.623l-1.945,-1.1l-0.799,-0.738l-0.991,-0.79l-32.428,-32.428l-2.23,-2.846c-1.306,-2.903 -1.939,-3.607 -2.136,-6.855c-0.432,-7.155 4.995,-14.327 12.269,-15.66c3.201,-0.586 4.036,-0.14 7.167,0.434c1.099,0.494 2.198,0.989 3.297,1.484Z"/><path d="M530.29,230c39.613,-53.333 39.613,-106.667 0,-160" style="fill:none;"/><path d="M530.834,55.01c6.04,0.413 10.556,4.616 14.419,10.073c18.476,26.098 30.783,57.285 29.673,89.189c-1.046,30.038 -13.931,59.157 -31.606,83.331c-0.098,0.134 -0.863,1.177 -0.971,1.318c-3.333,4.345 -6.328,5.333 -9.602,5.877c-9.071,1.505 -18.536,-7.069 -17.341,-16.654c0.764,-6.128 6.267,-11.546 10.373,-18.037c16.524,-26.125 24.254,-58.044 14.79,-88.823c-4.723,-15.359 -12.823,-29.502 -22.337,-42.363l-0.547,-0.791c-0.44,-0.732 -0.568,-0.906 -0.936,-1.679c-3.943,-8.275 1.611,-19.758 11.21,-21.269c1.833,-0.288 2.28,-0.175 2.875,-0.172Z"/></g></svg>