<?xml version="1.0" encoding="UTF-8" standalone="no"?><!DOCTYPE svg PUBLIC "-//W3C//DTD SVG 1.1//EN" "http://www.w3.org/Graphics/SVG/1.1/DTD/svg11.dtd"><svg width="100%" height="100%" viewBox="0 0 600 600" version="1.1" xmlns="http://www.w3.org/2000/svg" xmlns:xlink="http://www.w3.org/1999/xlink" xml:space="preserve" xmlns:serif="http://www.serif.com/" style="fill-rule:evenodd;clip-rule:evenodd;stroke-linejoin:round;stroke-miterlimit:2;"><g><path d="M445.754,110.787c10.196,-10.181 10.209,-26.724 0.028,-36.92l-36.891,-36.948c-10.181,-10.196 -26.724,-10.209 -36.92,-0.028l-243.857,243.484c-10.196,10.18 -10.209,26.724 -0.028,36.92l36.891,36.948c10.181,10.196 26.724,10.208 36.92,0.028l243.857,-243.484Z"/><path d="M201.939,243.362c-10.188,-10.188 -26.731,-10.188 -36.92,0l-36.919,36.92c-10.189,10.188 -10.189,26.731 0,36.92l243.67,243.67c10.189,10.189 26.732,10.189 36.92,0l36.92,-36.92c10.188,-10.188 10.188,-26.731 0,-36.919l-243.671,-243.671Z"/></g></svg>