<?xml version="1.0" encoding="UTF-8" standalone="no"?><!DOCTYPE svg PUBLIC "-//W3C//DTD SVG 1.1//EN" "http://www.w3.org/Graphics/SVG/1.1/DTD/svg11.dtd"><svg width="100%" height="100%" viewBox="0 0 800 600" version="1.1" xmlns="http://www.w3.org/2000/svg" xmlns:xlink="http://www.w3.org/1999/xlink" xml:space="preserve" xmlns:serif="http://www.serif.com/" style="fill-rule:evenodd;clip-rule:evenodd;stroke-linejoin:round;stroke-miterlimit:2;"><rect id="Artboard1" x="0" y="0" width="800" height="600" style="fill:none;"/><g id="Artboard11" serif:id="Artboard1"><g><path d="M641.481,363.082c5.655,-21.104 8.519,-42.857 8.519,-64.705c0,-137.979 -112.021,-250 -250,-250c-137.979,0 -250,112.021 -250,250c0,21.848 2.864,43.601 8.519,64.705l37.212,-9.971c-4.784,-17.852 -7.206,-36.253 -7.206,-54.734c0,-116.716 94.759,-211.475 211.475,-211.475c116.716,0 211.475,94.759 211.475,211.475c0,18.481 -2.422,36.882 -7.206,54.734l37.212,9.971Z"/><path d="M400.808,48.378l0.808,0.004l0.807,0.006l0.806,0.009l0.806,0.012l0.805,0.014l0.805,0.016l0.803,0.02l0.804,0.021l0.802,0.024l0.802,0.027l0.802,0.029l0.8,0.032l0.801,0.034l0.799,0.037l0.799,0.039l0.798,0.042l0.797,0.044l0.797,0.047l0.796,0.049l0.796,0.052l0.795,0.054l0.794,0.057l0.793,0.059l0.793,0.062l0.792,0.064l0.791,0.067l0.791,0.069l0.79,0.071l0.789,0.074l0.789,0.077l0.788,0.079l0.787,0.081l0.786,0.084l0.786,0.086l0.785,0.088l0.784,0.091l0.784,0.094l0.782,0.096l0.782,0.098l0.782,0.101l0.78,0.103l0.78,0.105l0.779,0.108l0.778,0.11l0.778,0.113l0.776,0.115l0.776,0.118l0.775,0.119l0.775,0.123l0.773,0.124l0.773,0.127l0.772,0.129l0.771,0.132l0.771,0.134l0.769,0.137l0.769,0.138l0.768,0.141l0.767,0.144l0.766,0.145l0.766,0.149l0.764,0.15l0.764,0.153l0.763,0.155l0.762,0.157l0.762,0.16l0.76,0.162l0.76,0.164l0.758,0.167l0.758,0.169l0.757,0.171l0.756,0.173l0.756,0.176l0.754,0.178l0.754,0.18l0.752,0.183l0.752,0.185l0.751,0.187l0.75,0.19l0.749,0.191l0.748,0.194l0.747,0.196l0.747,0.199l0.745,0.2l0.745,0.203l0.743,0.205l0.743,0.208l0.742,0.21l0.741,0.211l0.74,0.214l0.739,0.217l0.738,0.218l0.737,0.221l0.736,0.223l0.735,0.225l0.734,0.227l0.733,0.23l0.733,0.231l0.731,0.234l0.73,0.236l0.729,0.239l0.729,0.24l0.727,0.243l0.727,0.244l0.725,0.247l0.724,0.249l0.724,0.252l0.722,0.253l0.721,0.256l0.721,0.257l0.719,0.26l0.718,0.262l0.718,0.264l0.716,0.266l0.715,0.269l0.714,0.27l0.713,0.273l0.713,0.275l0.711,0.276l0.71,0.279l0.709,0.281l0.707,0.283l0.707,0.286l0.706,0.287l0.705,0.289l0.703,0.292l0.703,0.293l0.701,0.296l0.701,0.298l0.699,0.3l0.698,0.301l0.697,0.304l0.696,0.306l0.695,0.308l0.694,0.31l0.692,0.312l0.692,0.315l0.69,0.316l0.69,0.318l0.688,0.32l0.687,0.322l0.686,0.325l0.684,0.326l0.684,0.328l0.683,0.331l0.681,0.332l0.68,0.334l0.679,0.337l0.678,0.338l0.676,0.34l0.676,0.343l0.674,0.344l0.673,0.346l0.672,0.348l0.671,0.351l0.67,0.352l0.668,0.354l0.667,0.356l0.666,0.358l0.665,0.36l0.663,0.362l0.663,0.364l0.661,0.366l0.66,0.368l0.659,0.369l0.657,0.372l0.656,0.374l0.655,0.375l0.654,0.377l0.652,0.38l0.652,0.381l0.65,0.383l0.648,0.385l0.648,0.387l0.646,0.389l0.645,0.391l0.644,0.392l0.642,0.395l0.641,0.396l0.64,0.398l0.639,0.401l0.637,0.402l0.636,0.403l0.635,0.406l0.633,0.408l0.632,0.409l0.631,0.411l0.629,0.413l0.628,0.415l0.627,0.417l0.626,0.419l0.624,0.42l0.623,0.423l0.621,0.424l0.62,0.426l0.619,0.427l0.617,0.43l0.617,0.431l0.614,0.433l0.614,0.435l0.612,0.437l0.61,0.439l0.61,0.44l0.607,0.442l0.607,0.444l0.605,0.446l0.604,0.447l0.602,0.449l0.601,0.451l0.6,0.453l0.598,0.454l0.597,0.457l0.595,0.457l0.594,0.46l0.593,0.462l0.591,0.463l0.589,0.465l0.589,0.466l0.586,0.469l0.586,0.47l0.584,0.472l0.582,0.473l0.581,0.476l0.58,0.477l0.578,0.478l0.577,0.481l0.575,0.482l0.574,0.483l0.572,0.486l0.571,0.487l0.569,0.489l0.568,0.49l0.566,0.492l0.565,0.494l0.563,0.496l0.562,0.497l0.561,0.498l0.558,0.501l0.558,0.502l0.556,0.504l0.554,0.505l0.553,0.507l0.551,0.509l0.55,0.51l0.548,0.512l0.547,0.513l0.545,0.515l0.543,0.517l0.542,0.519l0.541,0.52l0.539,0.521l0.537,0.523l0.536,0.525l0.534,0.526l0.533,0.528l0.531,0.53l0.53,0.531l0.527,0.533l0.527,0.534l0.525,0.536l0.523,0.537l0.521,0.539l0.52,0.54l0.519,0.542l0.516,0.544l0.515,0.545l0.514,0.547l0.512,0.548l0.51,0.55l0.509,0.551l0.507,0.553l0.505,0.554l0.504,0.556l0.502,0.557l0.5,0.559l0.499,0.561l0.497,0.561l0.496,0.564l0.494,0.565l0.492,0.566l0.49,0.568l0.489,0.569l0.487,0.571l0.486,0.572l0.483,0.574l0.482,0.575l0.481,0.577l0.478,0.578l0.477,0.58l0.475,0.581l0.474,0.582l0.472,0.584l0.47,0.585l0.468,0.587l0.467,0.588l0.465,0.59l0.463,0.591l0.462,0.593l0.459,0.594l0.458,0.595l0.457,0.597l0.454,0.598l0.453,0.6l0.451,0.601l0.449,0.602l0.447,0.604l0.446,0.605l0.444,0.606l0.442,0.608l0.44,0.61l0.439,0.61l0.437,0.612l0.434,0.614l0.434,0.614l0.431,0.616l0.43,0.618l0.427,0.619l0.426,0.62l0.424,0.621l0.423,0.623l0.42,0.624l0.419,0.626l0.416,0.626l0.415,0.629l0.413,0.629l0.412,0.631l0.409,0.632l0.408,0.633l0.405,0.635l0.404,0.636l0.402,0.637l0.4,0.639l0.399,0.64l0.396,0.641l0.395,0.642l0.392,0.644l0.391,0.645l0.389,0.646l0.387,0.647l0.385,0.649l0.383,0.65l0.381,0.651l0.379,0.653l0.378,0.654l0.375,0.655l0.374,0.656l0.372,0.657l0.369,0.659l0.368,0.66l0.366,0.661l0.364,0.662l0.362,0.664l0.36,0.665l0.358,0.666l0.356,0.667l0.354,0.668l0.352,0.67l0.35,0.671l0.349,0.671l0.346,0.674l0.344,0.674l0.343,0.675l0.34,0.677l0.338,0.678l0.337,0.679l0.334,0.68l0.332,0.681l0.331,0.683l0.328,0.683l0.326,0.685l0.324,0.686l0.323,0.687l0.32,0.688l0.318,0.689l0.316,0.691l0.314,0.691l0.313,0.693l0.31,0.694l0.308,0.695l0.306,0.696l0.303,0.697l0.302,0.698l0.3,0.699l0.298,0.701l0.295,0.701l0.294,0.703l0.291,0.703l0.29,0.705l0.287,0.706l0.285,0.706l0.283,0.708l0.282,0.709l0.278,0.71l0.277,0.711l0.275,0.712l0.273,0.714l0.27,0.714l0.268,0.715l0.267,0.716l0.264,0.717l0.262,0.719l0.259,0.719l0.258,0.72l0.256,0.722l0.253,0.722l0.251,0.724l0.249,0.724l0.247,0.725l0.245,0.727l0.243,0.727l0.24,0.728l0.238,0.73l0.236,0.73l0.234,0.731l0.232,0.733l0.23,0.733l0.227,0.734l0.225,0.735l0.223,0.736l0.221,0.737l0.218,0.738l0.216,0.739l0.214,0.74l0.212,0.741l0.21,0.742l0.207,0.742l0.205,0.744l0.203,0.745l0.201,0.745l0.199,0.746l0.196,0.748l0.194,0.748l0.191,0.749l0.19,0.75l0.187,0.751l0.185,0.751l0.182,0.753l0.181,0.754l0.178,0.754l0.176,0.755l0.173,0.756l0.171,0.758l0.169,0.757l0.167,0.759l0.164,0.76l0.162,0.76l0.16,0.761l0.157,0.763l0.155,0.763l0.153,0.763l0.15,0.765l0.148,0.766l0.146,0.766l0.144,0.767l0.141,0.768l0.138,0.769l0.137,0.769l0.134,0.771l0.131,0.771l0.13,0.772l0.127,0.773l0.124,0.773l0.122,0.775l0.12,0.775l0.118,0.776l0.115,0.776l0.112,0.778l0.111,0.778l0.108,0.779l0.105,0.78l0.103,0.78l0.101,0.781l0.098,0.782l0.096,0.783l0.093,0.784l0.091,0.784l0.089,0.785l0.086,0.785l0.084,0.787l0.081,0.787l0.079,0.788l0.077,0.788l0.073,0.79l0.072,0.79l0.069,0.79l0.067,0.792l0.064,0.792l0.061,0.793l0.06,0.793l0.056,0.794l0.055,0.795l0.051,0.795l0.05,0.797l0.046,0.796l0.045,0.798l0.041,0.798l0.04,0.799l0.036,0.799l0.035,0.8l0.032,0.801l0.029,0.801l0.026,0.802l0.025,0.803l0.021,0.803l0.019,0.804l0.017,0.805l0.014,0.805l0.012,0.806l0.008,0.806l0.007,0.807l0.004,0.808l0.001,0.808l-0.001,0.512l-0.001,0.512l-0.003,0.512l-0.003,0.512l-0.005,0.512l-0.006,0.511l-0.007,0.512l-0.008,0.512l-0.008,0.512l-0.01,0.511l-0.011,0.512l-0.012,0.512l-0.014,0.511l-0.014,0.512l-0.015,0.511l-0.016,0.511l-0.017,0.512l-0.019,0.511l-0.019,0.511l-0.02,0.511l-0.022,0.511l-0.022,0.511l-0.024,0.511l-0.025,0.511l-0.025,0.51l-0.027,0.511l-0.028,0.511l-0.028,0.51l-0.03,0.511l-0.031,0.51l-0.032,0.51l-0.033,0.51l-0.034,0.51l-0.035,0.51l-0.036,0.51l-0.037,0.51l-0.038,0.51l-0.039,0.51l-0.041,0.509l-0.041,0.51l-0.042,0.509l-0.043,0.509l-0.045,0.509l-0.045,0.509l-0.047,0.509l-0.047,0.509l-0.049,0.509l-0.049,0.509l-0.051,0.508l-0.052,0.508l-0.052,0.509l-0.054,0.508l-0.055,0.508l-0.056,0.508l-0.056,0.508l-0.058,0.507l-0.059,0.508l-0.06,0.507l-0.061,0.508l-0.062,0.507l-0.063,0.507l-0.064,0.507l-0.066,0.507l-0.066,0.506l-0.067,0.507l-0.068,0.506l-0.07,0.507l-0.07,0.506l-0.071,0.506l-0.073,0.505l-0.073,0.506l-0.074,0.506l-0.076,0.505l-0.076,0.505l-0.078,0.505l-0.079,0.505l-0.079,0.505l-0.081,0.505l-0.082,0.504l-0.082,0.504l-0.084,0.504l-0.085,0.504l-0.086,0.504l-0.086,0.504l-0.088,0.503l-0.089,0.504l-0.09,0.503l-0.091,0.503l-0.092,0.502l-0.093,0.503l-0.094,0.502l-0.095,0.503l-0.096,0.502l-0.098,0.502l-0.098,0.501l-0.099,0.502l-0.1,0.501l-0.101,0.501l-0.103,0.501l-0.103,0.501l-0.104,0.501l-0.106,0.5l-0.106,0.5l-0.108,0.5l-0.108,0.5l-0.11,0.499l-0.11,0.5l-0.112,0.499l-0.112,0.499l-0.114,0.499l-0.114,0.498l-0.116,0.498l-0.117,0.499l-0.117,0.497l-0.119,0.498l-0.12,0.498l-0.121,0.497l-0.121,0.497l-0.123,0.497l-0.124,0.496l-0.125,0.497l-0.126,0.496l-0.127,0.496l-0.128,0.495l-0.129,0.496l-0.13,0.495l-0.131,0.495l-0.132,0.495l-37.212,-9.971l0.112,-0.419l0.111,-0.419l0.11,-0.418l0.109,-0.42l0.108,-0.419l0.107,-0.419l0.107,-0.42l0.105,-0.42l0.105,-0.42l0.104,-0.42l0.103,-0.421l0.102,-0.42l0.102,-0.421l0.1,-0.421l0.1,-0.421l0.098,-0.422l0.098,-0.421l0.097,-0.422l0.096,-0.422l0.095,-0.422l0.095,-0.422l0.093,-0.422l0.093,-0.423l0.091,-0.423l0.091,-0.423l0.09,-0.423l0.089,-0.423l0.089,-0.423l0.087,-0.424l0.087,-0.424l0.085,-0.424l0.085,-0.424l0.084,-0.424l0.083,-0.424l0.082,-0.425l0.082,-0.425l0.08,-0.424l0.08,-0.425l0.078,-0.426l0.078,-0.425l0.077,-0.425l0.076,-0.426l0.075,-0.426l0.075,-0.425l0.073,-0.426l0.073,-0.427l0.071,-0.426l0.071,-0.426l0.07,-0.427l0.069,-0.427l0.069,-0.427l0.067,-0.427l0.066,-0.427l0.066,-0.427l0.065,-0.427l0.064,-0.428l0.063,-0.427l0.062,-0.428l0.061,-0.428l0.06,-0.428l0.06,-0.428l0.058,-0.428l0.058,-0.429l0.057,-0.428l0.056,-0.429l0.055,-0.428l0.054,-0.429l0.054,-0.429l0.052,-0.429l0.052,-0.429l0.05,-0.43l0.05,-0.429l0.049,-0.429l0.048,-0.43l0.047,-0.43l0.047,-0.429l0.045,-0.43l0.045,-0.43l0.044,-0.43l0.042,-0.43l0.042,-0.431l0.041,-0.43l0.041,-0.43l0.039,-0.431l0.038,-0.431l0.038,-0.43l0.036,-0.431l0.036,-0.431l0.035,-0.431l0.034,-0.431l0.033,-0.431l0.033,-0.431l0.031,-0.431l0.03,-0.432l0.03,-0.431l0.029,-0.432l0.028,-0.431l0.027,-0.432l0.026,-0.432l0.025,-0.431l0.024,-0.432l0.024,-0.432l0.022,-0.432l0.022,-0.432l0.021,-0.432l0.02,-0.432l0.019,-0.433l0.018,-0.432l0.017,-0.432l0.017,-0.433l0.015,-0.432l0.015,-0.432l0.013,-0.433l0.013,-0.433l0.012,-0.432l0.011,-0.433l0.01,-0.433l0.01,-0.432l0.008,-0.433l0.008,-0.433l0.006,-0.433l0.006,-0.433l0.005,-0.433l0.004,-0.433l0.003,-0.433l0.002,-0.433l0.002,-0.433l0,-0.433l-0.001,-0.684l-0.003,-0.683l-0.006,-0.683l-0.007,-0.682l-0.01,-0.681l-0.012,-0.681l-0.014,-0.681l-0.016,-0.68l-0.018,-0.679l-0.021,-0.679l-0.022,-0.679l-0.025,-0.678l-0.027,-0.677l-0.029,-0.677l-0.031,-0.676l-0.033,-0.676l-0.036,-0.675l-0.037,-0.675l-0.04,-0.674l-0.041,-0.673l-0.044,-0.673l-0.046,-0.672l-0.048,-0.672l-0.05,-0.671l-0.052,-0.671l-0.054,-0.67l-0.057,-0.669l-0.058,-0.669l-0.061,-0.668l-0.062,-0.668l-0.065,-0.667l-0.067,-0.666l-0.068,-0.666l-0.071,-0.665l-0.073,-0.665l-0.075,-0.664l-0.077,-0.663l-0.079,-0.663l-0.081,-0.662l-0.083,-0.662l-0.085,-0.661l-0.088,-0.66l-0.089,-0.659l-0.091,-0.659l-0.093,-0.659l-0.096,-0.657l-0.097,-0.657l-0.099,-0.657l-0.102,-0.655l-0.103,-0.655l-0.106,-0.655l-0.107,-0.653l-0.109,-0.653l-0.112,-0.653l-0.113,-0.651l-0.115,-0.651l-0.118,-0.651l-0.119,-0.649l-0.121,-0.649l-0.124,-0.648l-0.125,-0.648l-0.127,-0.647l-0.129,-0.646l-0.132,-0.645l-0.133,-0.645l-0.135,-0.644l-0.137,-0.643l-0.139,-0.643l-0.141,-0.642l-0.143,-0.641l-0.144,-0.64l-0.147,-0.64l-0.149,-0.639l-0.15,-0.638l-0.153,-0.637l-0.154,-0.637l-0.157,-0.636l-0.158,-0.635l-0.16,-0.634l-0.163,-0.634l-0.164,-0.633l-0.166,-0.632l-0.167,-0.631l-0.17,-0.631l-0.172,-0.63l-0.173,-0.629l-0.176,-0.628l-0.177,-0.627l-0.179,-0.627l-0.181,-0.626l-0.183,-0.625l-0.185,-0.624l-0.187,-0.624l-0.188,-0.622l-0.191,-0.622l-0.192,-0.621l-0.194,-0.621l-0.196,-0.619l-0.198,-0.619l-0.2,-0.617l-0.201,-0.617l-0.204,-0.616l-0.205,-0.616l-0.207,-0.614l-0.209,-0.614l-0.211,-0.612l-0.212,-0.612l-0.214,-0.611l-0.217,-0.611l-0.218,-0.609l-0.219,-0.608l-0.222,-0.608l-0.223,-0.607l-0.226,-0.606l-0.227,-0.605l-0.228,-0.604l-0.231,-0.603l-0.232,-0.602l-0.234,-0.602l-0.236,-0.601l-0.238,-0.599l-0.24,-0.599l-0.241,-0.598l-0.243,-0.597l-0.245,-0.596l-0.246,-0.595l-0.249,-0.594l-0.25,-0.594l-0.251,-0.592l-0.254,-0.592l-0.255,-0.59l-0.257,-0.59l-0.259,-0.589l-0.261,-0.588l-0.262,-0.586l-0.264,-0.586l-0.266,-0.585l-0.267,-0.584l-0.269,-0.583l-0.271,-0.582l-0.273,-0.582l-0.274,-0.58l-0.276,-0.579l-0.278,-0.578l-0.279,-0.578l-0.282,-0.576l-0.282,-0.575l-0.285,-0.575l-0.286,-0.573l-0.288,-0.572l-0.289,-0.572l-0.292,-0.57l-0.293,-0.57l-0.294,-0.568l-0.296,-0.567l-0.298,-0.567l-0.3,-0.565l-0.301,-0.564l-0.303,-0.564l-0.305,-0.562l-0.306,-0.561l-0.308,-0.561l-0.309,-0.559l-0.311,-0.558l-0.313,-0.557l-0.314,-0.556l-0.316,-0.556l-0.318,-0.554l-0.319,-0.553l-0.321,-0.552l-0.323,-0.55l-0.324,-0.55l-0.325,-0.549l-0.328,-0.548l-0.329,-0.546l-0.33,-0.546l-0.332,-0.544l-0.334,-0.544l-0.335,-0.542l-0.337,-0.541l-0.339,-0.541l-0.34,-0.539l-0.341,-0.538l-0.343,-0.537l-0.345,-0.535l-0.346,-0.535l-0.348,-0.534l-0.35,-0.532l-0.351,-0.531l-0.352,-0.53l-0.354,-0.53l-0.356,-0.528l-0.357,-0.526l-0.359,-0.526l-0.36,-0.525l-0.362,-0.523l-0.364,-0.522l-0.364,-0.522l-0.367,-0.52l-0.368,-0.518l-0.369,-0.518l-0.371,-0.517l-0.373,-0.515l-0.374,-0.514l-0.375,-0.513l-0.377,-0.512l-0.379,-0.511l-0.38,-0.51l-0.381,-0.508l-0.383,-0.507l-0.384,-0.506l-0.386,-0.505l-0.388,-0.503l-0.389,-0.503l-0.39,-0.501l-0.392,-0.5l-0.393,-0.499l-0.395,-0.497l-0.396,-0.497l-0.398,-0.495l-0.399,-0.494l-0.4,-0.493l-0.402,-0.491l-0.404,-0.491l-0.405,-0.489l-0.406,-0.487l-0.408,-0.487l-0.409,-0.485l-0.411,-0.484l-0.412,-0.483l-0.413,-0.482l-0.415,-0.48l-0.416,-0.479l-0.418,-0.478l-0.419,-0.477l-0.421,-0.475l-0.422,-0.474l-0.423,-0.473l-0.425,-0.471l-0.426,-0.47l-0.427,-0.469l-0.429,-0.468l-0.43,-0.466l-0.432,-0.465l-0.433,-0.464l-0.434,-0.462l-0.436,-0.461l-0.437,-0.46l-0.439,-0.459l-0.44,-0.457l-0.441,-0.456l-0.442,-0.454l-0.444,-0.454l-0.445,-0.451l-0.447,-0.451l-0.448,-0.449l-0.449,-0.448l-0.451,-0.447l-0.452,-0.445l-0.453,-0.444l-0.454,-0.442l-0.456,-0.442l-0.457,-0.44l-0.459,-0.438l-0.46,-0.437l-0.461,-0.436l-0.462,-0.434l-0.464,-0.433l-0.465,-0.432l-0.466,-0.43l-0.468,-0.429l-0.469,-0.427l-0.47,-0.427l-0.472,-0.424l-0.472,-0.424l-0.474,-0.422l-0.476,-0.42l-0.476,-0.419l-0.478,-0.418l-0.479,-0.416l-0.48,-0.415l-0.482,-0.414l-0.483,-0.412l-0.484,-0.41l-0.485,-0.409l-0.487,-0.408l-0.488,-0.406l-0.489,-0.405l-0.49,-0.404l-0.491,-0.402l-0.493,-0.4l-0.494,-0.4l-0.495,-0.397l-0.497,-0.396l-0.497,-0.395l-0.499,-0.393l-0.5,-0.392l-0.501,-0.391l-0.503,-0.388l-0.503,-0.388l-0.505,-0.386l-0.506,-0.384l-0.507,-0.383l-0.509,-0.382l-0.509,-0.38l-0.511,-0.378l-0.512,-0.377l-0.513,-0.376l-0.514,-0.374l-0.515,-0.372l-0.517,-0.371l-0.518,-0.369l-0.519,-0.368l-0.52,-0.367l-0.521,-0.365l-0.522,-0.363l-0.523,-0.362l-0.525,-0.36l-0.526,-0.359l-0.527,-0.357l-0.528,-0.356l-0.529,-0.354l-0.53,-0.352l-0.531,-0.351l-0.533,-0.35l-0.533,-0.348l-0.535,-0.346l-0.536,-0.345l-0.537,-0.343l-0.538,-0.342l-0.539,-0.34l-0.54,-0.338l-0.541,-0.337l-0.542,-0.335l-0.544,-0.334l-0.544,-0.332l-0.546,-0.331l-0.546,-0.329l-0.548,-0.327l-0.549,-0.326l-0.55,-0.324l-0.551,-0.322l-0.552,-0.321l-0.553,-0.319l-0.554,-0.318l-0.555,-0.316l-0.556,-0.314l-0.557,-0.313l-0.558,-0.311l-0.559,-0.31l-0.561,-0.307l-0.561,-0.307l-0.562,-0.304l-0.564,-0.303l-0.564,-0.301l-0.565,-0.3l-0.567,-0.298l-0.567,-0.296l-0.569,-0.295l-0.569,-0.292l-0.57,-0.292l-0.572,-0.289l-0.572,-0.288l-0.574,-0.286l-0.574,-0.285l-0.575,-0.283l-0.577,-0.281l-0.577,-0.279l-0.578,-0.278l-0.579,-0.276l-0.581,-0.274l-0.581,-0.273l-0.582,-0.271l-0.583,-0.269l-0.584,-0.267l-0.585,-0.266l-0.586,-0.264l-0.587,-0.262l-0.587,-0.261l-0.589,-0.259l-0.59,-0.257l-0.59,-0.255l-0.592,-0.254l-0.592,-0.252l-0.594,-0.25l-0.594,-0.248l-0.595,-0.246l-0.596,-0.245l-0.597,-0.243l-0.598,-0.242l-0.599,-0.239l-0.6,-0.238l-0.6,-0.236l-0.602,-0.234l-0.602,-0.232l-0.603,-0.231l-0.604,-0.229l-0.605,-0.227l-0.606,-0.225l-0.607,-0.223l-0.608,-0.222l-0.608,-0.22l-0.61,-0.218l-0.61,-0.216l-0.611,-0.214l-0.612,-0.213l-0.612,-0.21l-0.614,-0.209l-0.614,-0.207l-0.616,-0.205l-0.616,-0.204l-0.617,-0.201l-0.618,-0.2l-0.618,-0.198l-0.62,-0.196l-0.62,-0.194l-0.621,-0.192l-0.622,-0.191l-0.622,-0.188l-0.624,-0.187l-0.624,-0.185l-0.625,-0.183l-0.626,-0.181l-0.627,-0.179l-0.627,-0.177l-0.628,-0.176l-0.629,-0.173l-0.63,-0.172l-0.631,-0.17l-0.631,-0.168l-0.632,-0.166l-0.633,-0.164l-0.634,-0.162l-0.634,-0.16l-0.635,-0.158l-0.636,-0.157l-0.637,-0.154l-0.637,-0.153l-0.639,-0.15l-0.638,-0.149l-0.64,-0.147l-0.64,-0.145l-0.642,-0.142l-0.641,-0.141l-0.643,-0.139l-0.643,-0.137l-0.644,-0.136l-0.645,-0.133l-0.645,-0.131l-0.646,-0.129l-0.647,-0.127l-0.648,-0.125l-0.648,-0.124l-0.649,-0.121l-0.649,-0.119l-0.651,-0.118l-0.651,-0.115l-0.651,-0.113l-0.653,-0.112l-0.653,-0.109l-0.653,-0.108l-0.655,-0.105l-0.655,-0.103l-0.655,-0.102l-0.657,-0.099l-0.657,-0.097l-0.657,-0.096l-0.659,-0.093l-0.659,-0.091l-0.659,-0.09l-0.661,-0.087l-0.66,-0.085l-0.662,-0.083l-0.662,-0.081l-0.663,-0.079l-0.663,-0.077l-0.664,-0.075l-0.665,-0.073l-0.665,-0.071l-0.666,-0.069l-0.666,-0.066l-0.667,-0.065l-0.668,-0.062l-0.668,-0.061l-0.669,-0.058l-0.669,-0.057l-0.67,-0.054l-0.671,-0.052l-0.671,-0.05l-0.672,-0.048l-0.672,-0.046l-0.673,-0.044l-0.674,-0.042l-0.674,-0.039l-0.674,-0.038l-0.675,-0.035l-0.676,-0.033l-0.676,-0.031l-0.677,-0.029l-0.678,-0.027l-0.677,-0.025l-0.679,-0.022l-0.679,-0.021l-0.679,-0.018l-0.68,-0.016l-0.681,-0.014l-0.681,-0.012l-0.682,-0.01l-0.682,-0.008l-0.682,-0.005l-0.683,-0.003l-0.684,-0.001l-0.684,0.001l-0.683,0.003l-0.682,0.005l-0.682,0.008l-0.682,0.01l-0.681,0.012l-0.681,0.014l-0.68,0.016l-0.679,0.018l-0.679,0.021l-0.679,0.022l-0.677,0.025l-0.678,0.027l-0.677,0.029l-0.676,0.031l-0.676,0.033l-0.675,0.035l-0.674,0.038l-0.674,0.039l-0.674,0.042l-0.673,0.044l-0.672,0.046l-0.672,0.048l-0.671,0.05l-0.671,0.052l-0.67,0.054l-0.669,0.057l-0.669,0.058l-0.668,0.061l-0.668,0.062l-0.667,0.065l-0.666,0.066l-0.666,0.069l-0.665,0.071l-0.665,0.073l-0.664,0.075l-0.663,0.077l-0.663,0.079l-0.662,0.081l-0.662,0.083l-0.66,0.085l-0.661,0.087l-0.659,0.09l-0.659,0.091l-0.659,0.093l-0.657,0.096l-0.657,0.097l-0.657,0.099l-0.655,0.102l-0.655,0.103l-0.655,0.105l-0.653,0.108l-0.653,0.109l-0.653,0.112l-0.651,0.113l-0.651,0.115l-0.651,0.118l-0.649,0.119l-0.649,0.121l-0.648,0.124l-0.648,0.125l-0.647,0.127l-0.646,0.129l-0.645,0.131l-0.645,0.133l-0.644,0.136l-0.643,0.137l-0.643,0.139l-0.641,0.141l-0.642,0.142l-0.64,0.145l-0.64,0.147l-0.638,0.149l-0.639,0.15l-0.637,0.153l-0.637,0.154l-0.636,0.157l-0.635,0.158l-0.634,0.16l-0.634,0.162l-0.633,0.164l-0.632,0.166l-0.631,0.168l-0.631,0.17l-0.63,0.172l-0.629,0.173l-0.628,0.176l-0.627,0.177l-0.627,0.179l-0.626,0.181l-0.625,0.183l-0.624,0.185l-0.624,0.187l-0.622,0.188l-0.622,0.191l-0.621,0.192l-0.62,0.194l-0.62,0.196l-0.618,0.198l-0.618,0.2l-0.617,0.201l-0.616,0.204l-0.616,0.205l-0.614,0.207l-0.614,0.209l-0.612,0.21l-0.612,0.213l-0.611,0.214l-0.61,0.216l-0.61,0.218l-0.608,0.22l-0.608,0.222l-0.607,0.223l-0.606,0.225l-0.605,0.227l-0.604,0.229l-0.603,0.231l-0.602,0.232l-0.602,0.234l-0.6,0.236l-0.6,0.238l-0.599,0.239l-0.598,0.242l-0.597,0.243l-0.596,0.245l-0.595,0.246l-0.594,0.248l-0.594,0.25l-0.592,0.252l-0.592,0.254l-0.59,0.255l-0.59,0.257l-0.589,0.259l-0.587,0.261l-0.587,0.262l-0.586,0.264l-0.585,0.266l-0.584,0.267l-0.583,0.269l-0.582,0.271l-0.581,0.273l-0.581,0.274l-0.579,0.276l-0.578,0.278l-0.577,0.279l-0.577,0.281l-0.575,0.283l-0.574,0.285l-0.574,0.286l-0.572,0.288l-0.572,0.289l-0.57,0.292l-0.569,0.292l-0.569,0.295l-0.567,0.296l-0.567,0.298l-0.565,0.3l-0.564,0.301l-0.564,0.303l-0.562,0.304l-0.561,0.307l-0.561,0.307l-0.559,0.31l-0.558,0.311l-0.557,0.313l-0.556,0.314l-0.555,0.316l-0.554,0.318l-0.553,0.319l-0.552,0.321l-0.551,0.322l-0.55,0.324l-0.549,0.326l-0.548,0.327l-0.546,0.329l-0.546,0.331l-0.544,0.332l-0.544,0.334l-0.542,0.335l-0.541,0.337l-0.54,0.338l-0.539,0.34l-0.538,0.342l-0.537,0.343l-0.536,0.345l-0.535,0.346l-0.533,0.348l-0.533,0.35l-0.531,0.351l-0.53,0.352l-0.529,0.354l-0.528,0.356l-0.527,0.357l-0.526,0.359l-0.525,0.36l-0.523,0.362l-0.522,0.363l-0.521,0.365l-0.52,0.367l-0.519,0.368l-0.518,0.369l-0.517,0.371l-0.515,0.372l-0.514,0.374l-0.513,0.376l-0.512,0.377l-0.511,0.378l-0.509,0.38l-0.509,0.382l-0.507,0.383l-0.506,0.384l-0.505,0.386l-0.503,0.388l-0.503,0.388l-0.501,0.391l-0.5,0.392l-0.499,0.393l-0.497,0.395l-0.497,0.396l-0.495,0.397l-0.494,0.4l-0.493,0.4l-0.491,0.402l-0.49,0.404l-0.489,0.405l-0.488,0.406l-0.487,0.408l-0.485,0.409l-0.484,0.41l-0.483,0.412l-0.482,0.414l-0.48,0.415l-0.479,0.416l-0.478,0.418l-0.476,0.419l-0.476,0.42l-0.474,0.422l-0.472,0.424l-0.472,0.424l-0.47,0.427l-0.469,0.427l-0.468,0.429l-0.466,0.43l-0.465,0.432l-0.464,0.433l-0.462,0.434l-0.461,0.436l-0.46,0.437l-0.459,0.438l-0.457,0.44l-0.456,0.442l-0.454,0.442l-0.453,0.444l-0.452,0.445l-0.451,0.447l-0.449,0.448l-0.448,0.449l-0.447,0.451l-0.445,0.451l-0.444,0.454l-0.442,0.454l-0.441,0.456l-0.44,0.457l-0.439,0.459l-0.437,0.46l-0.436,0.461l-0.434,0.462l-0.433,0.464l-0.432,0.465l-0.43,0.466l-0.429,0.468l-0.427,0.469l-0.426,0.47l-0.425,0.471l-0.423,0.473l-0.422,0.474l-0.421,0.475l-0.419,0.477l-0.418,0.478l-0.416,0.479l-0.415,0.48l-0.413,0.482l-0.412,0.483l-0.411,0.484l-0.409,0.485l-0.408,0.487l-0.406,0.487l-0.405,0.489l-0.404,0.491l-0.402,0.491l-0.4,0.493l-0.399,0.494l-0.398,0.495l-0.396,0.497l-0.395,0.497l-0.393,0.499l-0.392,0.5l-0.39,0.501l-0.389,0.503l-0.388,0.503l-0.386,0.505l-0.384,0.506l-0.383,0.507l-0.381,0.508l-0.38,0.51l-0.379,0.511l-0.377,0.512l-0.375,0.513l-0.374,0.514l-0.373,0.515l-0.371,0.517l-0.369,0.518l-0.368,0.518l-0.367,0.52l-0.364,0.522l-0.364,0.522l-0.362,0.523l-0.36,0.525l-0.359,0.526l-0.357,0.526l-0.356,0.528l-0.354,0.53l-0.352,0.53l-0.351,0.531l-0.35,0.532l-0.348,0.534l-0.346,0.535l-0.345,0.535l-0.343,0.537l-0.341,0.538l-0.34,0.539l-0.339,0.541l-0.337,0.541l-0.335,0.542l-0.334,0.544l-0.332,0.544l-0.33,0.546l-0.329,0.546l-0.328,0.548l-0.325,0.549l-0.324,0.55l-0.323,0.55l-0.321,0.552l-0.319,0.553l-0.318,0.554l-0.316,0.556l-0.314,0.556l-0.313,0.557l-0.311,0.558l-0.309,0.559l-0.308,0.561l-0.306,0.561l-0.305,0.562l-0.303,0.564l-0.301,0.564l-0.3,0.565l-0.298,0.567l-0.296,0.567l-0.294,0.568l-0.293,0.57l-0.292,0.57l-0.289,0.572l-0.288,0.572l-0.286,0.573l-0.285,0.575l-0.282,0.575l-0.282,0.576l-0.279,0.578l-0.278,0.578l-0.276,0.579l-0.274,0.58l-0.273,0.582l-0.271,0.582l-0.269,0.583l-0.267,0.584l-0.266,0.585l-0.264,0.586l-0.262,0.586l-0.261,0.588l-0.259,0.589l-0.257,0.59l-0.255,0.59l-0.254,0.592l-0.251,0.592l-0.25,0.594l-0.249,0.594l-0.246,0.595l-0.245,0.596l-0.243,0.597l-0.241,0.598l-0.24,0.599l-0.238,0.599l-0.236,0.601l-0.234,0.602l-0.232,0.602l-0.231,0.603l-0.228,0.604l-0.227,0.605l-0.226,0.606l-0.223,0.607l-0.222,0.608l-0.219,0.608l-0.218,0.609l-0.217,0.611l-0.214,0.611l-0.212,0.612l-0.211,0.612l-0.209,0.614l-0.207,0.614l-0.205,0.616l-0.204,0.616l-0.201,0.617l-0.2,0.617l-0.198,0.619l-0.196,0.619l-0.194,0.621l-0.192,0.621l-0.191,0.622l-0.188,0.622l-0.187,0.624l-0.185,0.624l-0.183,0.625l-0.181,0.626l-0.179,0.627l-0.177,0.627l-0.176,0.628l-0.173,0.629l-0.172,0.63l-0.17,0.631l-0.167,0.631l-0.166,0.632l-0.164,0.633l-0.163,0.634l-0.16,0.634l-0.158,0.635l-0.157,0.636l-0.154,0.637l-0.153,0.637l-0.15,0.638l-0.149,0.639l-0.147,0.64l-0.144,0.64l-0.143,0.641l-0.141,0.642l-0.139,0.643l-0.137,0.643l-0.135,0.644l-0.133,0.645l-0.132,0.645l-0.129,0.646l-0.127,0.647l-0.125,0.648l-0.124,0.648l-0.121,0.649l-0.119,0.649l-0.118,0.651l-0.115,0.651l-0.113,0.651l-0.112,0.653l-0.109,0.653l-0.107,0.653l-0.106,0.655l-0.103,0.655l-0.102,0.655l-0.099,0.657l-0.097,0.657l-0.096,0.657l-0.093,0.659l-0.091,0.659l-0.089,0.659l-0.088,0.66l-0.085,0.661l-0.083,0.662l-0.081,0.662l-0.079,0.663l-0.077,0.663l-0.075,0.664l-0.073,0.665l-0.071,0.665l-0.068,0.666l-0.067,0.666l-0.065,0.667l-0.062,0.668l-0.061,0.668l-0.058,0.669l-0.057,0.669l-0.054,0.67l-0.052,0.671l-0.05,0.671l-0.048,0.672l-0.046,0.672l-0.044,0.673l-0.041,0.673l-0.04,0.674l-0.037,0.675l-0.036,0.675l-0.033,0.676l-0.031,0.676l-0.029,0.677l-0.027,0.677l-0.025,0.678l-0.022,0.679l-0.021,0.679l-0.018,0.679l-0.016,0.68l-0.014,0.681l-0.012,0.681l-0.01,0.681l-0.007,0.682l-0.006,0.683l-0.003,0.683l-0.001,0.684l0,0.433l0.002,0.433l0.002,0.433l0.003,0.433l0.004,0.433l0.005,0.433l0.006,0.433l0.006,0.433l0.008,0.433l0.008,0.433l0.01,0.432l0.01,0.433l0.011,0.433l0.012,0.432l0.013,0.433l0.013,0.433l0.015,0.432l0.015,0.432l0.017,0.433l0.017,0.432l0.018,0.432l0.019,0.433l0.02,0.432l0.021,0.432l0.022,0.432l0.022,0.432l0.024,0.432l0.024,0.432l0.025,0.431l0.026,0.432l0.027,0.432l0.028,0.431l0.029,0.432l0.03,0.431l0.03,0.432l0.031,0.431l0.033,0.431l0.033,0.431l0.034,0.431l0.035,0.431l0.036,0.431l0.036,0.431l0.038,0.43l0.038,0.431l0.039,0.431l0.041,0.43l0.041,0.43l0.042,0.431l0.042,0.43l0.044,0.43l0.045,0.43l0.045,0.43l0.047,0.429l0.047,0.43l0.048,0.43l0.049,0.429l0.05,0.429l0.05,0.43l0.052,0.429l0.052,0.429l0.054,0.429l0.054,0.429l0.055,0.428l0.056,0.429l0.057,0.428l0.058,0.429l0.058,0.428l0.06,0.428l0.06,0.428l0.061,0.428l0.062,0.428l0.063,0.427l0.064,0.428l0.065,0.427l0.066,0.427l0.066,0.427l0.067,0.427l0.069,0.427l0.069,0.427l0.07,0.427l0.071,0.426l0.071,0.426l0.073,0.427l0.073,0.426l0.075,0.425l0.075,0.426l0.076,0.426l0.077,0.425l0.078,0.425l0.078,0.426l0.08,0.425l0.08,0.424l0.082,0.425l0.082,0.425l0.083,0.424l0.084,0.424l0.085,0.424l0.085,0.424l0.087,0.424l0.087,0.424l0.089,0.423l0.089,0.423l0.09,0.423l0.091,0.423l0.091,0.423l0.093,0.423l0.093,0.422l0.095,0.422l0.095,0.422l0.096,0.422l0.097,0.422l0.098,0.421l0.098,0.422l0.1,0.421l0.1,0.421l0.102,0.421l0.102,0.42l0.103,0.421l0.104,0.42l0.105,0.42l0.105,0.42l0.107,0.42l0.107,0.419l0.108,0.419l0.109,0.42l0.11,0.418l0.111,0.419l0.112,0.419l-37.212,9.971l-0.132,-0.495l-0.131,-0.495l-0.13,-0.495l-0.129,-0.496l-0.128,-0.495l-0.127,-0.496l-0.126,-0.496l-0.125,-0.497l-0.124,-0.496l-0.123,-0.497l-0.121,-0.497l-0.121,-0.497l-0.12,-0.498l-0.119,-0.498l-0.117,-0.497l-0.117,-0.499l-0.116,-0.498l-0.114,-0.498l-0.114,-0.499l-0.112,-0.499l-0.112,-0.499l-0.11,-0.5l-0.11,-0.499l-0.108,-0.5l-0.108,-0.5l-0.106,-0.5l-0.106,-0.5l-0.104,-0.501l-0.103,-0.501l-0.103,-0.501l-0.101,-0.501l-0.1,-0.501l-0.099,-0.502l-0.098,-0.501l-0.098,-0.502l-0.096,-0.502l-0.095,-0.503l-0.094,-0.502l-0.093,-0.503l-0.092,-0.502l-0.091,-0.503l-0.09,-0.503l-0.089,-0.504l-0.088,-0.503l-0.086,-0.504l-0.086,-0.504l-0.085,-0.504l-0.084,-0.504l-0.082,-0.504l-0.082,-0.504l-0.081,-0.505l-0.079,-0.505l-0.079,-0.505l-0.078,-0.505l-0.076,-0.505l-0.076,-0.505l-0.074,-0.506l-0.073,-0.506l-0.073,-0.505l-0.071,-0.506l-0.07,-0.506l-0.07,-0.507l-0.068,-0.506l-0.067,-0.507l-0.066,-0.506l-0.066,-0.507l-0.064,-0.507l-0.063,-0.507l-0.062,-0.507l-0.061,-0.508l-0.06,-0.507l-0.059,-0.508l-0.058,-0.507l-0.056,-0.508l-0.056,-0.508l-0.055,-0.508l-0.054,-0.508l-0.052,-0.509l-0.052,-0.508l-0.051,-0.508l-0.049,-0.509l-0.049,-0.509l-0.047,-0.509l-0.047,-0.509l-0.045,-0.509l-0.045,-0.509l-0.043,-0.509l-0.042,-0.509l-0.041,-0.51l-0.041,-0.509l-0.039,-0.51l-0.038,-0.51l-0.037,-0.51l-0.036,-0.51l-0.035,-0.51l-0.034,-0.51l-0.033,-0.51l-0.032,-0.51l-0.031,-0.51l-0.03,-0.511l-0.028,-0.51l-0.028,-0.511l-0.027,-0.511l-0.025,-0.51l-0.025,-0.511l-0.024,-0.511l-0.022,-0.511l-0.022,-0.511l-0.02,-0.511l-0.019,-0.511l-0.019,-0.511l-0.017,-0.512l-0.016,-0.511l-0.015,-0.511l-0.014,-0.512l-0.014,-0.511l-0.012,-0.512l-0.011,-0.512l-0.01,-0.511l-0.008,-0.512l-0.008,-0.512l-0.007,-0.512l-0.006,-0.511l-0.005,-0.512l-0.003,-0.512l-0.003,-0.512l-0.001,-0.512l-0.001,-0.512l0.001,-0.808l0.004,-0.808l0.007,-0.807l0.008,-0.806l0.012,-0.806l0.014,-0.805l0.017,-0.805l0.019,-0.804l0.021,-0.803l0.025,-0.803l0.026,-0.802l0.029,-0.801l0.032,-0.801l0.035,-0.8l0.036,-0.799l0.04,-0.799l0.041,-0.798l0.045,-0.798l0.046,-0.796l0.05,-0.797l0.051,-0.795l0.055,-0.795l0.056,-0.794l0.06,-0.793l0.061,-0.793l0.064,-0.792l0.067,-0.792l0.069,-0.79l0.072,-0.79l0.073,-0.79l0.077,-0.788l0.079,-0.788l0.081,-0.787l0.084,-0.787l0.086,-0.785l0.089,-0.785l0.091,-0.784l0.093,-0.784l0.096,-0.783l0.098,-0.782l0.101,-0.781l0.103,-0.78l0.105,-0.78l0.108,-0.779l0.111,-0.778l0.112,-0.778l0.115,-0.776l0.118,-0.776l0.12,-0.775l0.122,-0.775l0.124,-0.773l0.127,-0.773l0.13,-0.772l0.131,-0.771l0.134,-0.771l0.137,-0.769l0.138,-0.769l0.141,-0.768l0.144,-0.767l0.146,-0.766l0.148,-0.766l0.15,-0.765l0.153,-0.763l0.155,-0.763l0.157,-0.763l0.16,-0.761l0.162,-0.76l0.164,-0.76l0.167,-0.759l0.169,-0.757l0.171,-0.758l0.173,-0.756l0.176,-0.755l0.178,-0.754l0.181,-0.754l0.182,-0.753l0.185,-0.751l0.187,-0.751l0.19,-0.75l0.191,-0.749l0.194,-0.748l0.196,-0.748l0.199,-0.746l0.201,-0.745l0.203,-0.745l0.205,-0.744l0.207,-0.742l0.21,-0.742l0.212,-0.741l0.214,-0.74l0.216,-0.739l0.218,-0.738l0.221,-0.737l0.223,-0.736l0.225,-0.735l0.227,-0.734l0.23,-0.733l0.232,-0.733l0.234,-0.731l0.236,-0.73l0.238,-0.73l0.24,-0.728l0.243,-0.727l0.245,-0.727l0.247,-0.725l0.249,-0.724l0.251,-0.724l0.253,-0.722l0.256,-0.722l0.258,-0.72l0.259,-0.719l0.262,-0.719l0.264,-0.717l0.267,-0.716l0.268,-0.715l0.27,-0.714l0.273,-0.714l0.275,-0.712l0.277,-0.711l0.278,-0.71l0.282,-0.709l0.283,-0.708l0.285,-0.706l0.287,-0.706l0.29,-0.705l0.291,-0.703l0.294,-0.703l0.295,-0.701l0.298,-0.701l0.3,-0.699l0.302,-0.698l0.303,-0.697l0.306,-0.696l0.308,-0.695l0.31,-0.694l0.313,-0.693l0.314,-0.691l0.316,-0.691l0.318,-0.689l0.32,-0.688l0.323,-0.687l0.324,-0.686l0.326,-0.685l0.328,-0.683l0.331,-0.683l0.332,-0.681l0.334,-0.68l0.337,-0.679l0.338,-0.678l0.34,-0.677l0.343,-0.675l0.344,-0.674l0.346,-0.674l0.349,-0.671l0.35,-0.671l0.352,-0.67l0.354,-0.668l0.356,-0.667l0.358,-0.666l0.36,-0.665l0.362,-0.664l0.364,-0.662l0.366,-0.661l0.368,-0.66l0.369,-0.659l0.372,-0.657l0.374,-0.656l0.375,-0.655l0.378,-0.654l0.379,-0.653l0.381,-0.651l0.383,-0.65l0.385,-0.649l0.387,-0.647l0.389,-0.646l0.391,-0.645l0.392,-0.644l0.395,-0.642l0.396,-0.641l0.399,-0.64l0.4,-0.639l0.402,-0.637l0.404,-0.636l0.405,-0.635l0.408,-0.633l0.409,-0.632l0.412,-0.631l0.413,-0.629l0.415,-0.629l0.416,-0.626l0.419,-0.626l0.42,-0.624l0.423,-0.623l0.424,-0.621l0.426,-0.62l0.427,-0.619l0.43,-0.618l0.431,-0.616l0.434,-0.614l0.434,-0.614l0.437,-0.612l0.439,-0.61l0.44,-0.61l0.442,-0.608l0.444,-0.606l0.446,-0.605l0.447,-0.604l0.449,-0.602l0.451,-0.601l0.453,-0.6l0.454,-0.598l0.457,-0.597l0.458,-0.595l0.459,-0.594l0.462,-0.593l0.463,-0.591l0.465,-0.59l0.467,-0.588l0.468,-0.587l0.47,-0.585l0.472,-0.584l0.474,-0.582l0.475,-0.581l0.477,-0.58l0.478,-0.578l0.481,-0.577l0.482,-0.575l0.483,-0.574l0.486,-0.572l0.487,-0.571l0.489,-0.569l0.49,-0.568l0.492,-0.566l0.494,-0.565l0.496,-0.564l0.497,-0.561l0.499,-0.561l0.5,-0.559l0.502,-0.557l0.504,-0.556l0.505,-0.554l0.507,-0.553l0.509,-0.551l0.51,-0.55l0.512,-0.548l0.514,-0.547l0.515,-0.545l0.516,-0.544l0.519,-0.542l0.52,-0.54l0.521,-0.539l0.523,-0.537l0.525,-0.536l0.527,-0.534l0.527,-0.533l0.53,-0.531l0.531,-0.53l0.533,-0.528l0.534,-0.526l0.536,-0.525l0.537,-0.523l0.539,-0.521l0.541,-0.52l0.542,-0.519l0.543,-0.517l0.545,-0.515l0.547,-0.513l0.548,-0.512l0.55,-0.51l0.551,-0.509l0.553,-0.507l0.554,-0.505l0.556,-0.504l0.558,-0.502l0.558,-0.501l0.561,-0.498l0.562,-0.497l0.563,-0.496l0.565,-0.494l0.566,-0.492l0.568,-0.49l0.569,-0.489l0.571,-0.487l0.572,-0.486l0.574,-0.483l0.575,-0.482l0.577,-0.481l0.578,-0.478l0.58,-0.477l0.581,-0.476l0.582,-0.473l0.584,-0.472l0.586,-0.47l0.586,-0.469l0.589,-0.466l0.589,-0.465l0.591,-0.463l0.593,-0.462l0.594,-0.46l0.595,-0.457l0.597,-0.457l0.598,-0.454l0.6,-0.453l0.601,-0.451l0.602,-0.449l0.604,-0.447l0.605,-0.446l0.607,-0.444l0.607,-0.442l0.61,-0.44l0.61,-0.439l0.612,-0.437l0.614,-0.435l0.614,-0.433l0.617,-0.431l0.617,-0.43l0.619,-0.427l0.62,-0.426l0.621,-0.424l0.623,-0.423l0.624,-0.42l0.626,-0.419l0.627,-0.417l0.628,-0.415l0.629,-0.413l0.631,-0.411l0.632,-0.409l0.633,-0.408l0.635,-0.406l0.636,-0.403l0.637,-0.402l0.639,-0.401l0.64,-0.398l0.641,-0.396l0.642,-0.395l0.644,-0.392l0.645,-0.391l0.646,-0.389l0.648,-0.387l0.648,-0.385l0.65,-0.383l0.652,-0.381l0.652,-0.38l0.654,-0.377l0.655,-0.375l0.656,-0.374l0.657,-0.372l0.659,-0.369l0.66,-0.368l0.661,-0.366l0.663,-0.364l0.663,-0.362l0.665,-0.36l0.666,-0.358l0.667,-0.356l0.668,-0.354l0.67,-0.352l0.671,-0.351l0.672,-0.348l0.673,-0.346l0.674,-0.344l0.676,-0.343l0.676,-0.34l0.678,-0.338l0.679,-0.337l0.68,-0.334l0.681,-0.332l0.683,-0.331l0.684,-0.328l0.684,-0.326l0.686,-0.325l0.687,-0.322l0.688,-0.32l0.69,-0.318l0.69,-0.316l0.692,-0.315l0.692,-0.312l0.694,-0.31l0.695,-0.308l0.696,-0.306l0.697,-0.304l0.698,-0.301l0.699,-0.3l0.701,-0.298l0.701,-0.296l0.703,-0.293l0.703,-0.292l0.705,-0.289l0.706,-0.287l0.707,-0.286l0.707,-0.283l0.709,-0.281l0.71,-0.279l0.711,-0.276l0.713,-0.275l0.713,-0.273l0.714,-0.27l0.715,-0.269l0.716,-0.266l0.718,-0.264l0.718,-0.262l0.719,-0.26l0.721,-0.257l0.721,-0.256l0.722,-0.253l0.724,-0.252l0.724,-0.249l0.725,-0.247l0.727,-0.244l0.727,-0.243l0.729,-0.24l0.729,-0.239l0.73,-0.236l0.731,-0.234l0.733,-0.231l0.733,-0.23l0.734,-0.227l0.735,-0.225l0.736,-0.223l0.737,-0.221l0.738,-0.218l0.739,-0.217l0.74,-0.214l0.741,-0.211l0.742,-0.21l0.743,-0.208l0.743,-0.205l0.745,-0.203l0.745,-0.2l0.747,-0.199l0.747,-0.196l0.748,-0.194l0.749,-0.191l0.75,-0.19l0.751,-0.187l0.752,-0.185l0.752,-0.183l0.754,-0.18l0.754,-0.178l0.756,-0.176l0.756,-0.173l0.757,-0.171l0.758,-0.169l0.758,-0.167l0.76,-0.164l0.76,-0.162l0.762,-0.16l0.762,-0.157l0.763,-0.155l0.764,-0.153l0.764,-0.15l0.766,-0.149l0.766,-0.145l0.767,-0.144l0.768,-0.141l0.769,-0.138l0.769,-0.137l0.771,-0.134l0.771,-0.132l0.772,-0.129l0.773,-0.127l0.773,-0.124l0.775,-0.123l0.775,-0.119l0.776,-0.118l0.776,-0.115l0.778,-0.113l0.778,-0.11l0.779,-0.108l0.78,-0.105l0.78,-0.103l0.782,-0.101l0.782,-0.098l0.782,-0.096l0.784,-0.094l0.784,-0.091l0.785,-0.088l0.786,-0.086l0.786,-0.084l0.787,-0.081l0.788,-0.079l0.789,-0.077l0.789,-0.074l0.79,-0.071l0.791,-0.069l0.791,-0.067l0.792,-0.064l0.793,-0.062l0.793,-0.059l0.794,-0.057l0.795,-0.054l0.796,-0.052l0.796,-0.049l0.797,-0.047l0.797,-0.044l0.798,-0.042l0.799,-0.039l0.799,-0.037l0.801,-0.034l0.8,-0.032l0.802,-0.029l0.802,-0.027l0.802,-0.024l0.804,-0.021l0.803,-0.02l0.805,-0.016l0.805,-0.014l0.806,-0.012l0.806,-0.009l0.807,-0.006l0.808,-0.004l0.808,-0.001l0.808,0.001Zm-1.597,5.964l-0.789,0.004l-0.788,0.006l-0.787,0.009l-0.787,0.011l-0.787,0.013l-0.785,0.017l-0.785,0.018l-0.785,0.021l-0.783,0.024l-0.783,0.026l-0.783,0.029l-0.782,0.031l-0.781,0.033l-0.781,0.036l-0.779,0.038l-0.78,0.041l-0.778,0.043l-0.778,0.046l-0.778,0.048l-0.776,0.051l-0.776,0.053l-0.776,0.055l-0.774,0.058l-0.774,0.06l-0.773,0.063l-0.773,0.065l-0.772,0.067l-0.771,0.07l-0.771,0.072l-0.769,0.075l-0.769,0.077l-0.769,0.079l-0.768,0.082l-0.767,0.084l-0.766,0.086l-0.765,0.089l-0.765,0.091l-0.764,0.094l-0.764,0.096l-0.762,0.098l-0.762,0.101l-0.761,0.103l-0.76,0.105l-0.76,0.108l-0.759,0.11l-0.758,0.112l-0.757,0.115l-0.757,0.117l-0.756,0.119l-0.755,0.122l-0.754,0.123l-0.754,0.127l-0.752,0.128l-0.752,0.131l-0.751,0.133l-0.751,0.135l-0.749,0.138l-0.749,0.14l-0.748,0.142l-0.747,0.145l-0.746,0.147l-0.746,0.149l-0.744,0.151l-0.744,0.154l-0.743,0.156l-0.742,0.158l-0.742,0.16l-0.74,0.163l-0.74,0.164l-0.739,0.168l-0.738,0.169l-0.737,0.171l-0.736,0.174l-0.736,0.176l-0.734,0.178l-0.734,0.181l-0.733,0.183l-0.732,0.184l-0.731,0.187l-0.73,0.19l-0.729,0.191l-0.729,0.194l-0.727,0.196l-0.727,0.198l-0.725,0.2l-0.725,0.202l-0.724,0.205l-0.723,0.207l-0.722,0.209l-0.721,0.211l-0.721,0.213l-0.719,0.215l-0.718,0.218l-0.718,0.22l-0.716,0.221l-0.716,0.224l-0.715,0.227l-0.713,0.228l-0.713,0.23l-0.712,0.233l-0.711,0.234l-0.71,0.237l-0.708,0.239l-0.708,0.241l-0.707,0.243l-0.706,0.245l-0.705,0.248l-0.704,0.249l-0.703,0.251l-0.702,0.254l-0.701,0.256l-0.7,0.257l-0.699,0.26l-0.699,0.262l-0.697,0.264l-0.696,0.266l-0.695,0.268l-0.694,0.271l-0.692,0.272l-0.692,0.274l-0.691,0.276l-0.69,0.279l-0.689,0.28l-0.688,0.283l-0.686,0.284l-0.686,0.287l-0.685,0.288l-0.683,0.291l-0.683,0.292l-0.681,0.295l-0.681,0.296l-0.679,0.299l-0.678,0.301l-0.677,0.302l-0.676,0.305l-0.675,0.306l-0.674,0.309l-0.673,0.311l-0.671,0.312l-0.671,0.315l-0.669,0.316l-0.669,0.319l-0.667,0.32l-0.666,0.323l-0.665,0.324l-0.664,0.326l-0.663,0.329l-0.661,0.33l-0.661,0.332l-0.659,0.334l-0.658,0.336l-0.657,0.338l-0.656,0.34l-0.655,0.342l-0.653,0.344l-0.653,0.345l-0.651,0.348l-0.65,0.349l-0.649,0.352l-0.648,0.353l-0.646,0.355l-0.645,0.357l-0.645,0.36l-0.643,0.36l-0.641,0.363l-0.641,0.365l-0.639,0.366l-0.638,0.369l-0.637,0.37l-0.636,0.372l-0.635,0.374l-0.633,0.376l-0.632,0.378l-0.631,0.379l-0.629,0.382l-0.629,0.383l-0.627,0.385l-0.626,0.387l-0.624,0.389l-0.623,0.39l-0.623,0.393l-0.62,0.394l-0.62,0.396l-0.618,0.398l-0.617,0.4l-0.616,0.401l-0.614,0.403l-0.614,0.405l-0.612,0.407l-0.61,0.409l-0.609,0.41l-0.608,0.413l-0.607,0.414l-0.606,0.415l-0.604,0.418l-0.602,0.419l-0.602,0.421l-0.6,0.423l-0.599,0.425l-0.597,0.426l-0.596,0.428l-0.595,0.43l-0.594,0.432l-0.592,0.433l-0.591,0.435l-0.589,0.437l-0.588,0.439l-0.587,0.44l-0.585,0.442l-0.584,0.443l-0.583,0.446l-0.581,0.447l-0.58,0.449l-0.578,0.45l-0.577,0.453l-0.576,0.453l-0.574,0.456l-0.573,0.457l-0.572,0.459l-0.57,0.461l-0.568,0.462l-0.568,0.464l-0.565,0.466l-0.565,0.467l-0.563,0.469l-0.561,0.471l-0.561,0.472l-0.558,0.474l-0.558,0.476l-0.555,0.477l-0.555,0.479l-0.553,0.48l-0.551,0.482l-0.55,0.484l-0.549,0.485l-0.547,0.487l-0.545,0.489l-0.545,0.49l-0.542,0.492l-0.542,0.493l-0.539,0.495l-0.538,0.497l-0.537,0.498l-0.535,0.5l-0.534,0.501l-0.532,0.503l-0.531,0.504l-0.529,0.507l-0.528,0.507l-0.526,0.509l-0.525,0.511l-0.523,0.512l-0.521,0.514l-0.521,0.516l-0.518,0.517l-0.517,0.518l-0.515,0.52l-0.514,0.522l-0.513,0.523l-0.51,0.525l-0.51,0.526l-0.507,0.528l-0.506,0.529l-0.505,0.53l-0.503,0.533l-0.501,0.533l-0.5,0.536l-0.498,0.536l-0.497,0.539l-0.495,0.539l-0.493,0.541l-0.492,0.543l-0.49,0.544l-0.489,0.546l-0.487,0.547l-0.485,0.549l-0.484,0.55l-0.482,0.551l-0.48,0.553l-0.479,0.554l-0.477,0.556l-0.476,0.557l-0.474,0.559l-0.472,0.56l-0.471,0.562l-0.469,0.563l-0.467,0.564l-0.466,0.566l-0.464,0.567l-0.462,0.569l-0.461,0.57l-0.459,0.572l-0.457,0.573l-0.455,0.574l-0.454,0.576l-0.452,0.577l-0.451,0.578l-0.449,0.58l-0.447,0.581l-0.445,0.583l-0.444,0.584l-0.442,0.585l-0.44,0.587l-0.439,0.588l-0.437,0.589l-0.435,0.591l-0.433,0.592l-0.432,0.594l-0.429,0.594l-0.429,0.597l-0.426,0.597l-0.425,0.599l-0.422,0.6l-0.421,0.601l-0.42,0.603l-0.417,0.604l-0.416,0.606l-0.414,0.606l-0.412,0.608l-0.411,0.61l-0.409,0.61l-0.406,0.612l-0.405,0.613l-0.404,0.615l-0.401,0.616l-0.4,0.617l-0.398,0.618l-0.396,0.619l-0.394,0.621l-0.392,0.622l-0.391,0.624l-0.389,0.624l-0.387,0.626l-0.385,0.627l-0.383,0.629l-0.382,0.629l-0.379,0.631l-0.378,0.632l-0.376,0.633l-0.374,0.635l-0.372,0.635l-0.37,0.637l-0.368,0.639l-0.367,0.639l-0.365,0.64l-0.362,0.642l-0.361,0.643l-0.359,0.644l-0.357,0.646l-0.356,0.646l-0.353,0.648l-0.351,0.649l-0.35,0.65l-0.347,0.651l-0.346,0.652l-0.344,0.654l-0.342,0.655l-0.34,0.656l-0.338,0.657l-0.336,0.658l-0.334,0.659l-0.332,0.661l-0.33,0.661l-0.328,0.663l-0.327,0.664l-0.324,0.665l-0.323,0.666l-0.32,0.667l-0.319,0.668l-0.316,0.67l-0.315,0.67l-0.312,0.672l-0.311,0.673l-0.308,0.674l-0.307,0.675l-0.305,0.676l-0.302,0.677l-0.301,0.678l-0.298,0.679l-0.297,0.681l-0.295,0.681l-0.292,0.683l-0.291,0.683l-0.288,0.685l-0.287,0.685l-0.284,0.687l-0.283,0.688l-0.28,0.689l-0.279,0.69l-0.276,0.69l-0.274,0.692l-0.272,0.693l-0.27,0.694l-0.269,0.695l-0.266,0.696l-0.264,0.697l-0.262,0.698l-0.259,0.699l-0.258,0.7l-0.256,0.701l-0.253,0.702l-0.252,0.704l-0.249,0.704l-0.248,0.705l-0.245,0.706l-0.243,0.706l-0.241,0.708l-0.239,0.709l-0.236,0.71l-0.235,0.711l-0.233,0.712l-0.23,0.713l-0.228,0.713l-0.226,0.715l-0.224,0.715l-0.222,0.717l-0.22,0.717l-0.217,0.719l-0.216,0.719l-0.213,0.72l-0.211,0.722l-0.209,0.722l-0.207,0.723l-0.204,0.724l-0.203,0.724l-0.2,0.726l-0.198,0.727l-0.196,0.727l-0.194,0.729l-0.191,0.729l-0.189,0.73l-0.187,0.731l-0.185,0.732l-0.183,0.733l-0.18,0.734l-0.179,0.734l-0.176,0.736l-0.173,0.736l-0.172,0.737l-0.169,0.738l-0.167,0.739l-0.165,0.74l-0.163,0.74l-0.16,0.741l-0.158,0.743l-0.156,0.743l-0.154,0.744l-0.151,0.744l-0.149,0.746l-0.147,0.746l-0.144,0.747l-0.143,0.748l-0.14,0.749l-0.137,0.749l-0.136,0.751l-0.133,0.751l-0.131,0.752l-0.128,0.752l-0.126,0.754l-0.124,0.754l-0.122,0.755l-0.119,0.756l-0.117,0.756l-0.115,0.758l-0.112,0.758l-0.11,0.759l-0.108,0.759l-0.105,0.761l-0.103,0.761l-0.101,0.762l-0.098,0.762l-0.096,0.764l-0.093,0.764l-0.092,0.765l-0.088,0.765l-0.087,0.766l-0.084,0.767l-0.082,0.768l-0.079,0.768l-0.077,0.769l-0.075,0.77l-0.072,0.771l-0.07,0.771l-0.067,0.772l-0.065,0.772l-0.063,0.774l-0.06,0.774l-0.058,0.774l-0.055,0.775l-0.053,0.777l-0.051,0.776l-0.048,0.777l-0.045,0.778l-0.044,0.779l-0.04,0.779l-0.039,0.78l-0.036,0.781l-0.033,0.781l-0.031,0.782l-0.029,0.782l-0.026,0.784l-0.023,0.783l-0.021,0.785l-0.019,0.785l-0.016,0.785l-0.014,0.786l-0.011,0.787l-0.009,0.788l-0.006,0.788l-0.004,0.789l-0.001,0.791l0,0.498l0.002,0.499l0.002,0.5l0.004,0.5l0.005,0.5l0.005,0.499l0.007,0.5l0.007,0.499l0.009,0.5l0.01,0.499l0.011,0.5l0.011,0.499l0.013,0.499l0.014,0.5l0.015,0.499l0.016,0.499l0.016,0.499l0.018,0.499l0.019,0.499l0.02,0.499l0.021,0.499l0.022,0.499l0.023,0.498l0.024,0.499l0.025,0.498l0.026,0.499l0.027,0.498l0.028,0.498l0.029,0.499l0.031,0.498l0.031,0.498l0.032,0.498l0.033,0.498l0.034,0.498l0.035,0.498l0.037,0.497l0.037,0.498l0.038,0.497l0.039,0.498l0.041,0.497l0.041,0.497l0.042,0.497l0.044,0.497l0.044,0.497l0.045,0.497l0.047,0.497l0.047,0.496l0.048,0.497l0.05,0.496l0.05,0.497l0.052,0.496l0.052,0.496l0.054,0.496l0.054,0.495l0.056,0.496l0.056,0.496l0.058,0.495l0.058,0.496l0.06,0.495l0.06,0.495l0.062,0.495l0.062,0.495l0.064,0.494l0.064,0.495l0.066,0.494l0.067,0.495l0.067,0.494l0.069,0.494l0.07,0.494l0.07,0.494l0.072,0.493l0.073,0.494l0.073,0.493l0.075,0.493l0.076,0.493l0.076,0.493l0.078,0.493l0.079,0.492l0.08,0.493l0.08,0.492l0.082,0.492l0.083,0.492l0.084,0.492l0.084,0.491l0.086,0.492l0.087,0.491l0.088,0.491l0.089,0.491l0.089,0.491l0.091,0.491l0.092,0.49l0.093,0.49l0.094,0.49l0.094,0.49l0.096,0.49l0.097,0.49l0.098,0.489l0.099,0.489l0.1,0.489l0.101,0.489l0.101,0.488l0.103,0.489l0.104,0.488l0.105,0.488l0.106,0.488l0.107,0.488l0.108,0.487l0.108,0.487l0.11,0.488l0.111,0.486l0.112,0.487l0.113,0.486l0.114,0.487l0.115,0.486l0.116,0.485l0.117,0.486l0.007,0.031l25.7,-6.887l-0.062,-0.26l-0.103,-0.433l-0.101,-0.433l-0.101,-0.434l-0.099,-0.433l-0.099,-0.434l-0.098,-0.434l-0.097,-0.434l-0.096,-0.435l-0.095,-0.434l-0.095,-0.435l-0.093,-0.435l-0.093,-0.435l-0.091,-0.435l-0.091,-0.435l-0.09,-0.436l-0.089,-0.436l-0.088,-0.435l-0.087,-0.436l-0.087,-0.437l-0.085,-0.436l-0.084,-0.436l-0.084,-0.437l-0.083,-0.437l-0.082,-0.437l-0.08,-0.437l-0.08,-0.437l-0.08,-0.438l-0.078,-0.437l-0.077,-0.438l-0.077,-0.438l-0.075,-0.438l-0.075,-0.438l-0.074,-0.439l-0.072,-0.438l-0.072,-0.439l-0.071,-0.438l-0.07,-0.439l-0.07,-0.439l-0.068,-0.439l-0.068,-0.44l-0.066,-0.439l-0.066,-0.44l-0.064,-0.439l-0.064,-0.44l-0.063,-0.44l-0.062,-0.44l-0.062,-0.44l-0.06,-0.441l-0.059,-0.44l-0.059,-0.441l-0.057,-0.44l-0.057,-0.441l-0.056,-0.441l-0.054,-0.441l-0.054,-0.441l-0.053,-0.441l-0.053,-0.442l-0.051,-0.441l-0.05,-0.442l-0.05,-0.441l-0.048,-0.442l-0.048,-0.442l-0.047,-0.442l-0.045,-0.442l-0.045,-0.442l-0.044,-0.443l-0.043,-0.442l-0.043,-0.443l-0.041,-0.442l-0.04,-0.443l-0.04,-0.443l-0.039,-0.442l-0.037,-0.443l-0.037,-0.443l-0.036,-0.443l-0.035,-0.444l-0.034,-0.443l-0.033,-0.443l-0.032,-0.444l-0.032,-0.443l-0.03,-0.444l-0.03,-0.443l-0.028,-0.444l-0.028,-0.444l-0.027,-0.444l-0.026,-0.444l-0.025,-0.444l-0.024,-0.444l-0.023,-0.444l-0.023,-0.444l-0.021,-0.444l-0.02,-0.445l-0.02,-0.444l-0.019,-0.445l-0.017,-0.444l-0.017,-0.445l-0.016,-0.444l-0.015,-0.445l-0.014,-0.445l-0.014,-0.445l-0.012,-0.444l-0.011,-0.445l-0.011,-0.445l-0.009,-0.445l-0.009,-0.445l-0.008,-0.445l-0.006,-0.445l-0.006,-0.446l-0.005,-0.445l-0.005,-0.445l-0.003,-0.445l-0.002,-0.446l-0.001,-0.445l-0.001,-0.447l0.001,-0.701l0.004,-0.702l0.005,-0.701l0.008,-0.701l0.01,-0.701l0.012,-0.7l0.015,-0.699l0.016,-0.699l0.019,-0.699l0.021,-0.697l0.023,-0.698l0.026,-0.696l0.027,-0.697l0.03,-0.695l0.032,-0.696l0.034,-0.694l0.037,-0.694l0.038,-0.694l0.041,-0.692l0.043,-0.693l0.045,-0.691l0.047,-0.692l0.049,-0.69l0.052,-0.69l0.053,-0.69l0.056,-0.688l0.058,-0.689l0.06,-0.687l0.062,-0.687l0.064,-0.687l0.067,-0.685l0.068,-0.686l0.071,-0.684l0.073,-0.684l0.075,-0.684l0.077,-0.682l0.079,-0.682l0.081,-0.682l0.084,-0.681l0.085,-0.68l0.088,-0.679l0.09,-0.679l0.091,-0.678l0.094,-0.678l0.096,-0.677l0.098,-0.676l0.1,-0.676l0.102,-0.674l0.105,-0.675l0.106,-0.673l0.108,-0.673l0.111,-0.672l0.112,-0.672l0.115,-0.671l0.116,-0.67l0.119,-0.669l0.12,-0.669l0.123,-0.668l0.125,-0.667l0.127,-0.667l0.129,-0.666l0.13,-0.665l0.133,-0.664l0.135,-0.664l0.137,-0.663l0.139,-0.662l0.141,-0.662l0.143,-0.661l0.145,-0.66l0.147,-0.659l0.149,-0.659l0.151,-0.657l0.152,-0.657l0.155,-0.657l0.157,-0.655l0.159,-0.655l0.161,-0.654l0.163,-0.653l0.165,-0.653l0.166,-0.651l0.169,-0.651l0.171,-0.65l0.172,-0.65l0.175,-0.648l0.176,-0.648l0.179,-0.647l0.18,-0.646l0.183,-0.645l0.184,-0.645l0.186,-0.643l0.188,-0.643l0.19,-0.642l0.192,-0.641l0.194,-0.641l0.196,-0.639l0.198,-0.639l0.2,-0.638l0.201,-0.637l0.204,-0.636l0.205,-0.635l0.207,-0.635l0.209,-0.634l0.211,-0.632l0.213,-0.632l0.215,-0.631l0.217,-0.63l0.218,-0.63l0.221,-0.628l0.222,-0.628l0.224,-0.626l0.226,-0.626l0.228,-0.625l0.23,-0.624l0.232,-0.623l0.233,-0.622l0.235,-0.622l0.238,-0.62l0.239,-0.619l0.24,-0.619l0.243,-0.618l0.244,-0.616l0.247,-0.616l0.248,-0.615l0.25,-0.614l0.252,-0.613l0.253,-0.612l0.255,-0.611l0.258,-0.61l0.259,-0.61l0.26,-0.608l0.263,-0.607l0.264,-0.607l0.266,-0.605l0.268,-0.605l0.27,-0.603l0.272,-0.603l0.273,-0.601l0.275,-0.601l0.277,-0.599l0.278,-0.599l0.281,-0.597l0.282,-0.597l0.283,-0.596l0.286,-0.594l0.287,-0.594l0.289,-0.593l0.291,-0.591l0.293,-0.591l0.294,-0.589l0.296,-0.589l0.298,-0.588l0.299,-0.586l0.302,-0.586l0.302,-0.584l0.305,-0.583l0.306,-0.583l0.308,-0.581l0.31,-0.581l0.312,-0.579l0.313,-0.578l0.315,-0.577l0.316,-0.576l0.318,-0.575l0.32,-0.574l0.322,-0.573l0.323,-0.572l0.325,-0.571l0.327,-0.569l0.328,-0.569l0.33,-0.568l0.331,-0.566l0.334,-0.565l0.334,-0.565l0.337,-0.563l0.338,-0.562l0.34,-0.561l0.341,-0.56l0.344,-0.558l0.344,-0.558l0.347,-0.556l0.348,-0.556l0.349,-0.554l0.352,-0.553l0.352,-0.552l0.355,-0.551l0.356,-0.55l0.358,-0.548l0.359,-0.548l0.361,-0.546l0.362,-0.545l0.364,-0.544l0.366,-0.543l0.367,-0.542l0.369,-0.54l0.371,-0.539l0.371,-0.539l0.374,-0.536l0.375,-0.536l0.377,-0.535l0.378,-0.533l0.38,-0.533l0.381,-0.531l0.383,-0.53l0.385,-0.528l0.386,-0.528l0.387,-0.526l0.389,-0.525l0.391,-0.524l0.392,-0.522l0.394,-0.522l0.395,-0.52l0.397,-0.519l0.398,-0.518l0.4,-0.516l0.401,-0.516l0.403,-0.514l0.404,-0.512l0.406,-0.512l0.408,-0.51l0.408,-0.509l0.411,-0.508l0.411,-0.507l0.414,-0.505l0.415,-0.504l0.416,-0.503l0.417,-0.501l0.42,-0.5l0.42,-0.499l0.422,-0.498l0.424,-0.496l0.425,-0.495l0.427,-0.494l0.428,-0.493l0.429,-0.491l0.431,-0.49l0.432,-0.488l0.434,-0.488l0.435,-0.486l0.437,-0.484l0.438,-0.484l0.439,-0.482l0.441,-0.48l0.442,-0.48l0.444,-0.478l0.445,-0.476l0.447,-0.476l0.448,-0.474l0.449,-0.473l0.451,-0.471l0.452,-0.47l0.453,-0.469l0.455,-0.467l0.457,-0.466l0.457,-0.464l0.459,-0.464l0.461,-0.461l0.462,-0.461l0.463,-0.459l0.464,-0.458l0.466,-0.456l0.468,-0.455l0.468,-0.453l0.47,-0.452l0.472,-0.451l0.472,-0.45l0.474,-0.448l0.476,-0.446l0.476,-0.445l0.478,-0.444l0.48,-0.442l0.481,-0.441l0.482,-0.44l0.483,-0.438l0.485,-0.436l0.486,-0.435l0.487,-0.434l0.488,-0.432l0.49,-0.431l0.492,-0.43l0.492,-0.428l0.494,-0.426l0.495,-0.425l0.496,-0.424l0.498,-0.422l0.499,-0.421l0.5,-0.419l0.502,-0.417l0.502,-0.417l0.504,-0.414l0.506,-0.414l0.506,-0.412l0.508,-0.41l0.509,-0.409l0.51,-0.407l0.512,-0.406l0.513,-0.404l0.514,-0.403l0.515,-0.401l0.516,-0.4l0.518,-0.398l0.519,-0.397l0.52,-0.395l0.522,-0.394l0.522,-0.392l0.524,-0.391l0.525,-0.389l0.526,-0.387l0.528,-0.386l0.529,-0.385l0.53,-0.383l0.531,-0.381l0.532,-0.38l0.533,-0.378l0.535,-0.377l0.536,-0.375l0.537,-0.374l0.538,-0.372l0.539,-0.37l0.541,-0.369l0.541,-0.367l0.543,-0.366l0.544,-0.364l0.545,-0.362l0.546,-0.361l0.548,-0.36l0.549,-0.357l0.549,-0.356l0.551,-0.355l0.552,-0.353l0.553,-0.351l0.554,-0.349l0.556,-0.349l0.556,-0.346l0.558,-0.345l0.559,-0.343l0.559,-0.341l0.561,-0.34l0.562,-0.338l0.564,-0.337l0.564,-0.335l0.565,-0.333l0.566,-0.331l0.568,-0.33l0.569,-0.329l0.569,-0.326l0.571,-0.325l0.572,-0.323l0.573,-0.322l0.574,-0.32l0.575,-0.318l0.576,-0.317l0.577,-0.314l0.578,-0.314l0.58,-0.311l0.58,-0.31l0.581,-0.308l0.583,-0.306l0.583,-0.305l0.585,-0.303l0.585,-0.301l0.587,-0.299l0.587,-0.298l0.589,-0.296l0.589,-0.294l0.591,-0.293l0.592,-0.291l0.592,-0.289l0.594,-0.287l0.594,-0.286l0.596,-0.284l0.597,-0.282l0.597,-0.28l0.599,-0.278l0.599,-0.277l0.601,-0.275l0.602,-0.274l0.602,-0.271l0.604,-0.27l0.604,-0.268l0.606,-0.266l0.606,-0.264l0.607,-0.263l0.609,-0.261l0.609,-0.259l0.61,-0.257l0.611,-0.255l0.612,-0.254l0.613,-0.251l0.614,-0.25l0.615,-0.248l0.616,-0.247l0.616,-0.244l0.618,-0.243l0.619,-0.241l0.619,-0.239l0.621,-0.237l0.621,-0.235l0.622,-0.234l0.623,-0.231l0.624,-0.23l0.625,-0.228l0.626,-0.226l0.626,-0.224l0.628,-0.222l0.628,-0.221l0.63,-0.218l0.63,-0.217l0.631,-0.215l0.632,-0.213l0.633,-0.211l0.633,-0.209l0.635,-0.207l0.635,-0.206l0.636,-0.203l0.637,-0.202l0.638,-0.199l0.639,-0.198l0.639,-0.196l0.641,-0.194l0.641,-0.192l0.642,-0.19l0.643,-0.188l0.644,-0.186l0.644,-0.185l0.645,-0.182l0.646,-0.18l0.647,-0.179l0.648,-0.176l0.649,-0.175l0.649,-0.173l0.65,-0.17l0.651,-0.169l0.651,-0.167l0.653,-0.164l0.653,-0.163l0.654,-0.161l0.655,-0.159l0.655,-0.157l0.657,-0.155l0.657,-0.153l0.657,-0.151l0.659,-0.149l0.659,-0.146l0.66,-0.145l0.661,-0.143l0.662,-0.141l0.662,-0.139l0.663,-0.137l0.664,-0.135l0.664,-0.133l0.665,-0.131l0.666,-0.128l0.667,-0.127l0.667,-0.125l0.668,-0.123l0.669,-0.12l0.669,-0.119l0.67,-0.117l0.671,-0.114l0.672,-0.113l0.672,-0.11l0.673,-0.108l0.673,-0.107l0.675,-0.104l0.675,-0.102l0.675,-0.1l0.676,-0.098l0.677,-0.096l0.678,-0.094l0.678,-0.092l0.679,-0.089l0.679,-0.088l0.681,-0.085l0.68,-0.084l0.682,-0.081l0.682,-0.079l0.683,-0.077l0.683,-0.075l0.684,-0.073l0.684,-0.071l0.686,-0.068l0.685,-0.067l0.687,-0.064l0.687,-0.062l0.688,-0.06l0.688,-0.058l0.689,-0.056l0.689,-0.054l0.69,-0.051l0.691,-0.049l0.691,-0.048l0.691,-0.045l0.693,-0.042l0.693,-0.041l0.693,-0.039l0.694,-0.036l0.695,-0.034l0.695,-0.032l0.695,-0.03l0.697,-0.027l0.696,-0.026l0.698,-0.023l0.698,-0.021l0.698,-0.019l0.699,-0.017l0.699,-0.014l0.7,-0.012l0.701,-0.01l0.701,-0.008l0.701,-0.006l0.702,-0.003l0.703,-0.001l0.703,0.001l0.702,0.003l0.701,0.006l0.701,0.008l0.701,0.01l0.7,0.012l0.699,0.014l0.699,0.017l0.698,0.019l0.698,0.021l0.698,0.023l0.696,0.026l0.697,0.027l0.695,0.03l0.695,0.032l0.695,0.034l0.694,0.036l0.693,0.039l0.693,0.041l0.693,0.042l0.691,0.045l0.691,0.048l0.691,0.049l0.69,0.051l0.689,0.054l0.689,0.056l0.688,0.058l0.688,0.06l0.687,0.062l0.687,0.064l0.685,0.067l0.686,0.068l0.684,0.071l0.684,0.073l0.683,0.075l0.683,0.077l0.682,0.079l0.682,0.081l0.68,0.084l0.681,0.085l0.679,0.088l0.679,0.089l0.678,0.092l0.678,0.094l0.677,0.096l0.676,0.098l0.675,0.1l0.675,0.102l0.675,0.104l0.673,0.107l0.673,0.108l0.672,0.11l0.672,0.113l0.671,0.114l0.67,0.117l0.669,0.119l0.669,0.12l0.668,0.123l0.667,0.125l0.667,0.127l0.666,0.128l0.665,0.131l0.664,0.133l0.664,0.135l0.663,0.137l0.662,0.139l0.662,0.141l0.661,0.143l0.66,0.145l0.659,0.146l0.659,0.149l0.657,0.151l0.657,0.153l0.657,0.155l0.655,0.157l0.655,0.159l0.654,0.161l0.653,0.163l0.653,0.164l0.651,0.167l0.651,0.169l0.65,0.17l0.649,0.173l0.649,0.175l0.648,0.176l0.647,0.179l0.646,0.18l0.645,0.182l0.644,0.185l0.644,0.186l0.643,0.188l0.642,0.19l0.641,0.192l0.641,0.194l0.639,0.196l0.639,0.198l0.638,0.199l0.637,0.202l0.636,0.203l0.635,0.206l0.635,0.207l0.633,0.209l0.633,0.211l0.632,0.213l0.631,0.215l0.63,0.217l0.63,0.218l0.628,0.221l0.628,0.222l0.626,0.224l0.626,0.226l0.625,0.228l0.624,0.23l0.623,0.231l0.622,0.234l0.621,0.235l0.621,0.237l0.619,0.239l0.619,0.241l0.618,0.243l0.616,0.244l0.616,0.247l0.615,0.248l0.614,0.25l0.613,0.251l0.612,0.254l0.611,0.255l0.61,0.257l0.609,0.259l0.609,0.261l0.607,0.263l0.606,0.264l0.606,0.266l0.604,0.268l0.604,0.27l0.602,0.271l0.602,0.274l0.601,0.275l0.599,0.277l0.599,0.278l0.597,0.28l0.597,0.282l0.596,0.284l0.594,0.286l0.594,0.287l0.592,0.289l0.592,0.291l0.591,0.293l0.589,0.294l0.589,0.296l0.587,0.298l0.587,0.299l0.585,0.301l0.585,0.303l0.583,0.305l0.583,0.306l0.581,0.308l0.58,0.31l0.58,0.311l0.578,0.314l0.577,0.314l0.576,0.317l0.575,0.318l0.574,0.32l0.573,0.322l0.572,0.323l0.571,0.325l0.569,0.326l0.569,0.329l0.568,0.33l0.566,0.331l0.565,0.333l0.564,0.335l0.564,0.337l0.562,0.338l0.561,0.34l0.559,0.341l0.559,0.343l0.558,0.345l0.556,0.347l0.556,0.348l0.554,0.349l0.553,0.351l0.552,0.353l0.551,0.355l0.55,0.356l0.548,0.357l0.548,0.36l0.546,0.361l0.545,0.362l0.544,0.364l0.543,0.366l0.541,0.367l0.541,0.369l0.539,0.37l0.538,0.372l0.537,0.374l0.536,0.375l0.535,0.377l0.533,0.378l0.532,0.38l0.532,0.381l0.529,0.383l0.529,0.385l0.527,0.386l0.527,0.387l0.525,0.389l0.524,0.391l0.522,0.392l0.522,0.394l0.52,0.395l0.519,0.397l0.518,0.398l0.516,0.4l0.515,0.401l0.514,0.403l0.513,0.404l0.512,0.406l0.51,0.407l0.509,0.409l0.508,0.41l0.506,0.412l0.506,0.414l0.504,0.414l0.503,0.417l0.501,0.417l0.5,0.419l0.499,0.421l0.498,0.422l0.496,0.424l0.495,0.425l0.494,0.426l0.492,0.428l0.492,0.43l0.49,0.431l0.488,0.432l0.487,0.434l0.486,0.435l0.485,0.436l0.483,0.438l0.482,0.44l0.481,0.441l0.48,0.442l0.478,0.444l0.476,0.445l0.476,0.447l0.474,0.447l0.472,0.45l0.472,0.451l0.47,0.452l0.468,0.453l0.468,0.455l0.466,0.456l0.464,0.458l0.463,0.459l0.462,0.461l0.461,0.462l0.459,0.463l0.457,0.464l0.457,0.466l0.455,0.467l0.453,0.469l0.452,0.47l0.451,0.472l0.449,0.472l0.448,0.474l0.447,0.476l0.445,0.476l0.444,0.478l0.442,0.48l0.441,0.48l0.439,0.482l0.438,0.484l0.437,0.484l0.435,0.486l0.434,0.488l0.432,0.488l0.431,0.49l0.429,0.491l0.428,0.493l0.427,0.494l0.425,0.495l0.424,0.496l0.422,0.498l0.42,0.499l0.419,0.5l0.418,0.501l0.417,0.503l0.414,0.504l0.414,0.506l0.411,0.506l0.411,0.508l0.408,0.509l0.408,0.51l0.406,0.512l0.404,0.513l0.403,0.514l0.401,0.515l0.4,0.516l0.398,0.518l0.397,0.519l0.395,0.52l0.394,0.521l0.392,0.523l0.391,0.524l0.389,0.525l0.387,0.526l0.386,0.528l0.385,0.529l0.383,0.529l0.381,0.531l0.38,0.533l0.378,0.533l0.377,0.535l0.375,0.536l0.373,0.536l0.372,0.539l0.371,0.539l0.369,0.54l0.367,0.542l0.366,0.543l0.364,0.544l0.362,0.545l0.361,0.546l0.359,0.548l0.358,0.548l0.356,0.55l0.355,0.551l0.352,0.552l0.352,0.553l0.349,0.554l0.348,0.556l0.347,0.556l0.344,0.558l0.343,0.558l0.342,0.56l0.34,0.561l0.338,0.562l0.337,0.563l0.334,0.565l0.334,0.565l0.331,0.566l0.33,0.568l0.328,0.568l0.327,0.57l0.325,0.571l0.323,0.572l0.322,0.573l0.32,0.574l0.318,0.575l0.316,0.576l0.315,0.577l0.313,0.578l0.312,0.579l0.31,0.581l0.308,0.581l0.306,0.583l0.305,0.583l0.302,0.584l0.302,0.586l0.299,0.587l0.298,0.587l0.296,0.588l0.294,0.59l0.293,0.591l0.29,0.591l0.29,0.593l0.287,0.594l0.286,0.594l0.283,0.596l0.282,0.596l0.281,0.598l0.278,0.599l0.277,0.599l0.275,0.601l0.273,0.601l0.272,0.603l0.27,0.603l0.268,0.605l0.266,0.605l0.264,0.607l0.263,0.607l0.26,0.608l0.259,0.61l0.257,0.61l0.256,0.611l0.253,0.612l0.252,0.613l0.25,0.614l0.248,0.615l0.247,0.616l0.244,0.616l0.243,0.618l0.24,0.618l0.239,0.62l0.238,0.62l0.235,0.622l0.233,0.622l0.232,0.623l0.23,0.624l0.228,0.625l0.226,0.625l0.224,0.627l0.222,0.628l0.221,0.628l0.218,0.63l0.217,0.63l0.215,0.631l0.213,0.632l0.211,0.633l0.209,0.633l0.207,0.634l0.205,0.636l0.204,0.636l0.201,0.637l0.2,0.638l0.198,0.638l0.196,0.64l0.194,0.641l0.192,0.641l0.19,0.642l0.188,0.643l0.186,0.643l0.184,0.645l0.183,0.645l0.18,0.646l0.179,0.647l0.176,0.648l0.175,0.648l0.172,0.649l0.171,0.651l0.169,0.651l0.166,0.651l0.165,0.653l0.163,0.653l0.161,0.654l0.159,0.655l0.157,0.655l0.155,0.656l0.152,0.657l0.151,0.658l0.149,0.659l0.147,0.659l0.145,0.66l0.143,0.661l0.141,0.661l0.139,0.663l0.137,0.663l0.135,0.664l0.133,0.664l0.13,0.665l0.129,0.666l0.127,0.667l0.125,0.667l0.123,0.668l0.12,0.669l0.119,0.669l0.116,0.67l0.115,0.671l0.112,0.672l0.111,0.672l0.108,0.673l0.106,0.673l0.105,0.674l0.102,0.676l0.1,0.675l0.098,0.676l0.096,0.677l0.094,0.677l0.091,0.679l0.09,0.679l0.088,0.679l0.085,0.68l0.084,0.681l0.081,0.682l0.079,0.682l0.077,0.682l0.075,0.684l0.073,0.684l0.071,0.684l0.068,0.685l0.067,0.686l0.064,0.687l0.062,0.687l0.06,0.687l0.058,0.688l0.056,0.689l0.053,0.69l0.052,0.69l0.049,0.69l0.047,0.691l0.045,0.692l0.043,0.693l0.041,0.692l0.038,0.694l0.037,0.694l0.034,0.694l0.032,0.695l0.03,0.696l0.027,0.697l0.026,0.696l0.023,0.698l0.021,0.698l0.019,0.698l0.016,0.699l0.015,0.699l0.012,0.7l0.01,0.701l0.008,0.701l0.005,0.701l0.004,0.702l0.001,0.701l-0.001,0.447l-0.001,0.446l-0.002,0.445l-0.003,0.445l-0.005,0.446l-0.005,0.444l-0.006,0.445l-0.006,0.446l-0.008,0.445l-0.009,0.445l-0.009,0.445l-0.011,0.444l-0.011,0.445l-0.012,0.446l-0.014,0.444l-0.014,0.445l-0.015,0.444l-0.016,0.445l-0.017,0.445l-0.017,0.445l-0.019,0.444l-0.02,0.444l-0.02,0.444l-0.021,0.445l-0.023,0.444l-0.023,0.444l-0.024,0.444l-0.025,0.444l-0.026,0.444l-0.027,0.444l-0.028,0.444l-0.028,0.443l-0.03,0.445l-0.03,0.443l-0.032,0.443l-0.032,0.444l-0.033,0.443l-0.034,0.444l-0.035,0.443l-0.036,0.443l-0.037,0.443l-0.038,0.443l-0.038,0.442l-0.04,0.443l-0.04,0.443l-0.041,0.442l-0.043,0.443l-0.043,0.442l-0.044,0.442l-0.045,0.443l-0.045,0.442l-0.047,0.442l-0.048,0.442l-0.048,0.442l-0.05,0.441l-0.05,0.442l-0.051,0.441l-0.053,0.441l-0.053,0.442l-0.054,0.441l-0.054,0.441l-0.056,0.441l-0.057,0.441l-0.057,0.44l-0.059,0.441l-0.059,0.44l-0.061,0.441l-0.061,0.44l-0.062,0.44l-0.063,0.44l-0.064,0.44l-0.064,0.439l-0.066,0.439l-0.066,0.44l-0.068,0.44l-0.068,0.439l-0.07,0.439l-0.07,0.439l-0.071,0.438l-0.072,0.439l-0.073,0.439l-0.073,0.438l-0.075,0.438l-0.075,0.438l-0.077,0.438l-0.077,0.437l-0.078,0.438l-0.08,0.438l-0.08,0.437l-0.08,0.437l-0.082,0.437l-0.083,0.437l-0.084,0.436l-0.084,0.437l-0.085,0.437l-0.087,0.436l-0.087,0.435l-0.088,0.436l-0.089,0.436l-0.09,0.436l-0.091,0.435l-0.091,0.435l-0.093,0.435l-0.093,0.435l-0.095,0.435l-0.095,0.434l-0.096,0.434l-0.097,0.435l-0.098,0.434l-0.099,0.434l-0.099,0.433l-0.101,0.433l-0.101,0.434l-0.103,0.433l-0.062,0.26l25.7,6.887l0.008,-0.031l0.116,-0.486l0.116,-0.485l0.115,-0.486l0.114,-0.487l0.113,-0.486l0.112,-0.487l0.111,-0.486l0.11,-0.488l0.108,-0.487l0.108,-0.487l0.107,-0.488l0.106,-0.488l0.105,-0.488l0.104,-0.488l0.103,-0.488l0.101,-0.489l0.101,-0.489l0.1,-0.489l0.099,-0.489l0.098,-0.49l0.097,-0.489l0.095,-0.49l0.095,-0.49l0.094,-0.49l0.093,-0.49l0.092,-0.49l0.091,-0.491l0.089,-0.491l0.089,-0.491l0.088,-0.491l0.087,-0.491l0.086,-0.491l0.084,-0.492l0.084,-0.492l0.083,-0.492l0.082,-0.492l0.08,-0.492l0.08,-0.493l0.079,-0.492l0.078,-0.493l0.076,-0.493l0.076,-0.493l0.075,-0.493l0.073,-0.494l0.073,-0.493l0.072,-0.494l0.07,-0.493l0.07,-0.494l0.069,-0.494l0.067,-0.494l0.067,-0.494l0.065,-0.495l0.065,-0.495l0.064,-0.494l0.062,-0.495l0.062,-0.495l0.06,-0.495l0.06,-0.495l0.058,-0.496l0.058,-0.495l0.056,-0.496l0.056,-0.496l0.054,-0.495l0.054,-0.496l0.052,-0.496l0.052,-0.497l0.05,-0.496l0.05,-0.496l0.048,-0.497l0.047,-0.496l0.047,-0.497l0.045,-0.497l0.044,-0.497l0.044,-0.497l0.042,-0.497l0.041,-0.497l0.041,-0.497l0.039,-0.498l0.038,-0.497l0.037,-0.498l0.037,-0.497l0.035,-0.498l0.034,-0.498l0.033,-0.498l0.032,-0.498l0.032,-0.498l0.03,-0.498l0.029,-0.499l0.028,-0.498l0.027,-0.498l0.026,-0.499l0.025,-0.498l0.024,-0.499l0.023,-0.498l0.022,-0.499l0.021,-0.499l0.02,-0.499l0.019,-0.499l0.018,-0.499l0.016,-0.499l0.016,-0.499l0.015,-0.499l0.014,-0.5l0.013,-0.499l0.011,-0.499l0.011,-0.5l0.01,-0.499l0.009,-0.5l0.007,-0.499l0.007,-0.5l0.005,-0.5l0.005,-0.499l0.004,-0.5l0.002,-0.499l0.002,-0.5l0,-0.499l-0.001,-0.79l-0.004,-0.789l-0.006,-0.788l-0.009,-0.788l-0.011,-0.786l-0.014,-0.787l-0.016,-0.785l-0.019,-0.785l-0.021,-0.785l-0.023,-0.784l-0.026,-0.783l-0.029,-0.782l-0.031,-0.782l-0.033,-0.781l-0.036,-0.781l-0.039,-0.779l-0.04,-0.78l-0.044,-0.779l-0.045,-0.777l-0.048,-0.778l-0.051,-0.777l-0.053,-0.775l-0.055,-0.776l-0.058,-0.774l-0.06,-0.774l-0.063,-0.774l-0.065,-0.772l-0.067,-0.772l-0.07,-0.771l-0.072,-0.771l-0.075,-0.77l-0.077,-0.769l-0.079,-0.768l-0.082,-0.768l-0.084,-0.767l-0.087,-0.766l-0.088,-0.766l-0.092,-0.764l-0.093,-0.764l-0.096,-0.764l-0.098,-0.762l-0.101,-0.762l-0.103,-0.761l-0.105,-0.761l-0.108,-0.759l-0.11,-0.759l-0.112,-0.758l-0.115,-0.757l-0.117,-0.757l-0.119,-0.756l-0.122,-0.755l-0.124,-0.754l-0.126,-0.754l-0.128,-0.752l-0.131,-0.752l-0.133,-0.751l-0.136,-0.751l-0.137,-0.749l-0.14,-0.749l-0.143,-0.748l-0.144,-0.747l-0.147,-0.746l-0.149,-0.746l-0.151,-0.744l-0.154,-0.744l-0.156,-0.744l-0.158,-0.742l-0.16,-0.741l-0.163,-0.74l-0.165,-0.74l-0.167,-0.739l-0.169,-0.738l-0.172,-0.737l-0.173,-0.736l-0.176,-0.736l-0.179,-0.734l-0.18,-0.734l-0.183,-0.733l-0.185,-0.732l-0.187,-0.731l-0.189,-0.73l-0.191,-0.729l-0.194,-0.729l-0.196,-0.727l-0.198,-0.727l-0.2,-0.726l-0.203,-0.724l-0.204,-0.724l-0.207,-0.723l-0.209,-0.722l-0.211,-0.722l-0.213,-0.72l-0.216,-0.719l-0.217,-0.718l-0.22,-0.718l-0.222,-0.717l-0.224,-0.715l-0.226,-0.715l-0.228,-0.713l-0.23,-0.713l-0.233,-0.712l-0.235,-0.711l-0.236,-0.71l-0.239,-0.709l-0.241,-0.707l-0.243,-0.707l-0.245,-0.706l-0.248,-0.706l-0.249,-0.703l-0.252,-0.704l-0.253,-0.702l-0.256,-0.701l-0.258,-0.7l-0.259,-0.699l-0.262,-0.698l-0.264,-0.697l-0.266,-0.696l-0.269,-0.695l-0.27,-0.694l-0.272,-0.692l-0.274,-0.693l-0.277,-0.691l-0.278,-0.689l-0.28,-0.689l-0.283,-0.688l-0.284,-0.687l-0.287,-0.685l-0.288,-0.685l-0.291,-0.683l-0.292,-0.683l-0.295,-0.681l-0.297,-0.681l-0.298,-0.679l-0.301,-0.678l-0.302,-0.677l-0.305,-0.676l-0.307,-0.675l-0.308,-0.674l-0.311,-0.673l-0.312,-0.672l-0.315,-0.67l-0.316,-0.67l-0.319,-0.668l-0.32,-0.667l-0.323,-0.666l-0.324,-0.665l-0.326,-0.664l-0.329,-0.663l-0.33,-0.662l-0.332,-0.66l-0.334,-0.659l-0.336,-0.658l-0.338,-0.658l-0.34,-0.655l-0.342,-0.655l-0.344,-0.653l-0.346,-0.653l-0.347,-0.651l-0.35,-0.65l-0.351,-0.649l-0.353,-0.648l-0.356,-0.646l-0.357,-0.646l-0.359,-0.644l-0.361,-0.643l-0.362,-0.641l-0.365,-0.641l-0.367,-0.64l-0.368,-0.638l-0.37,-0.637l-0.372,-0.635l-0.374,-0.635l-0.376,-0.633l-0.378,-0.632l-0.379,-0.631l-0.382,-0.629l-0.383,-0.629l-0.385,-0.627l-0.387,-0.626l-0.389,-0.624l-0.391,-0.624l-0.392,-0.622l-0.394,-0.621l-0.396,-0.619l-0.398,-0.619l-0.4,-0.616l-0.401,-0.616l-0.404,-0.615l-0.405,-0.613l-0.407,-0.612l-0.408,-0.61l-0.411,-0.61l-0.412,-0.608l-0.414,-0.606l-0.416,-0.606l-0.417,-0.604l-0.42,-0.602l-0.421,-0.602l-0.422,-0.6l-0.425,-0.599l-0.426,-0.597l-0.429,-0.597l-0.429,-0.594l-0.432,-0.594l-0.433,-0.592l-0.435,-0.591l-0.437,-0.589l-0.439,-0.588l-0.44,-0.587l-0.442,-0.585l-0.444,-0.584l-0.445,-0.583l-0.447,-0.581l-0.449,-0.58l-0.451,-0.578l-0.452,-0.577l-0.454,-0.576l-0.455,-0.574l-0.457,-0.573l-0.46,-0.572l-0.46,-0.57l-0.462,-0.569l-0.464,-0.567l-0.466,-0.566l-0.467,-0.564l-0.469,-0.563l-0.471,-0.562l-0.472,-0.56l-0.474,-0.559l-0.476,-0.557l-0.477,-0.556l-0.479,-0.554l-0.48,-0.553l-0.482,-0.551l-0.484,-0.55l-0.485,-0.549l-0.487,-0.547l-0.489,-0.546l-0.49,-0.544l-0.492,-0.543l-0.493,-0.541l-0.495,-0.539l-0.497,-0.539l-0.498,-0.536l-0.5,-0.536l-0.501,-0.533l-0.503,-0.532l-0.505,-0.531l-0.506,-0.53l-0.507,-0.527l-0.51,-0.526l-0.51,-0.525l-0.513,-0.523l-0.514,-0.522l-0.515,-0.52l-0.517,-0.518l-0.519,-0.517l-0.52,-0.516l-0.521,-0.513l-0.523,-0.513l-0.525,-0.511l-0.526,-0.509l-0.528,-0.507l-0.529,-0.507l-0.531,-0.504l-0.532,-0.503l-0.534,-0.501l-0.535,-0.5l-0.537,-0.498l-0.538,-0.497l-0.539,-0.495l-0.542,-0.493l-0.542,-0.492l-0.545,-0.49l-0.545,-0.489l-0.547,-0.487l-0.549,-0.485l-0.55,-0.484l-0.551,-0.482l-0.553,-0.48l-0.554,-0.479l-0.557,-0.478l-0.557,-0.475l-0.558,-0.474l-0.561,-0.472l-0.561,-0.471l-0.563,-0.469l-0.564,-0.467l-0.567,-0.466l-0.567,-0.464l-0.568,-0.462l-0.57,-0.461l-0.572,-0.459l-0.573,-0.457l-0.574,-0.456l-0.576,-0.453l-0.577,-0.453l-0.578,-0.45l-0.58,-0.449l-0.581,-0.447l-0.583,-0.445l-0.584,-0.444l-0.585,-0.442l-0.587,-0.44l-0.588,-0.439l-0.59,-0.437l-0.59,-0.435l-0.592,-0.433l-0.594,-0.432l-0.595,-0.43l-0.596,-0.428l-0.597,-0.426l-0.599,-0.425l-0.6,-0.423l-0.602,-0.421l-0.602,-0.419l-0.605,-0.418l-0.605,-0.415l-0.607,-0.414l-0.608,-0.413l-0.609,-0.41l-0.611,-0.409l-0.611,-0.407l-0.614,-0.405l-0.614,-0.403l-0.616,-0.401l-0.617,-0.4l-0.618,-0.398l-0.62,-0.396l-0.62,-0.394l-0.623,-0.393l-0.623,-0.39l-0.625,-0.389l-0.625,-0.387l-0.627,-0.385l-0.629,-0.383l-0.629,-0.382l-0.631,-0.379l-0.632,-0.378l-0.633,-0.376l-0.635,-0.374l-0.636,-0.372l-0.637,-0.37l-0.638,-0.369l-0.639,-0.366l-0.641,-0.365l-0.641,-0.363l-0.643,-0.36l-0.645,-0.359l-0.645,-0.358l-0.646,-0.355l-0.648,-0.353l-0.649,-0.352l-0.65,-0.349l-0.651,-0.348l-0.653,-0.345l-0.653,-0.344l-0.655,-0.342l-0.656,-0.34l-0.657,-0.338l-0.658,-0.336l-0.659,-0.334l-0.661,-0.332l-0.661,-0.33l-0.663,-0.329l-0.664,-0.326l-0.665,-0.324l-0.666,-0.323l-0.667,-0.32l-0.669,-0.319l-0.669,-0.316l-0.671,-0.315l-0.671,-0.312l-0.673,-0.311l-0.674,-0.309l-0.675,-0.306l-0.676,-0.305l-0.677,-0.302l-0.678,-0.301l-0.679,-0.299l-0.681,-0.296l-0.681,-0.295l-0.683,-0.292l-0.683,-0.291l-0.685,-0.288l-0.686,-0.287l-0.686,-0.284l-0.688,-0.283l-0.689,-0.28l-0.69,-0.279l-0.691,-0.276l-0.692,-0.274l-0.692,-0.272l-0.694,-0.271l-0.695,-0.268l-0.696,-0.266l-0.697,-0.264l-0.699,-0.262l-0.699,-0.26l-0.7,-0.257l-0.701,-0.256l-0.702,-0.254l-0.703,-0.251l-0.704,-0.249l-0.705,-0.248l-0.706,-0.245l-0.707,-0.243l-0.708,-0.241l-0.708,-0.239l-0.71,-0.237l-0.711,-0.234l-0.712,-0.233l-0.713,-0.23l-0.713,-0.228l-0.715,-0.227l-0.716,-0.224l-0.716,-0.221l-0.718,-0.22l-0.718,-0.218l-0.719,-0.215l-0.721,-0.213l-0.721,-0.211l-0.722,-0.209l-0.723,-0.207l-0.724,-0.205l-0.725,-0.202l-0.725,-0.2l-0.727,-0.198l-0.727,-0.196l-0.729,-0.194l-0.729,-0.191l-0.73,-0.19l-0.731,-0.187l-0.732,-0.184l-0.733,-0.183l-0.734,-0.181l-0.734,-0.178l-0.736,-0.176l-0.736,-0.174l-0.737,-0.171l-0.738,-0.169l-0.739,-0.168l-0.74,-0.164l-0.74,-0.163l-0.742,-0.16l-0.742,-0.158l-0.743,-0.156l-0.744,-0.154l-0.744,-0.151l-0.746,-0.149l-0.746,-0.147l-0.747,-0.145l-0.748,-0.142l-0.749,-0.14l-0.749,-0.138l-0.751,-0.135l-0.751,-0.133l-0.752,-0.131l-0.752,-0.128l-0.754,-0.127l-0.754,-0.123l-0.755,-0.122l-0.756,-0.119l-0.757,-0.117l-0.757,-0.115l-0.758,-0.112l-0.759,-0.11l-0.76,-0.108l-0.76,-0.105l-0.761,-0.103l-0.762,-0.101l-0.762,-0.098l-0.764,-0.096l-0.764,-0.094l-0.765,-0.091l-0.765,-0.089l-0.766,-0.086l-0.767,-0.084l-0.768,-0.082l-0.769,-0.079l-0.769,-0.077l-0.769,-0.075l-0.771,-0.072l-0.771,-0.07l-0.772,-0.067l-0.773,-0.065l-0.773,-0.063l-0.774,-0.06l-0.774,-0.058l-0.776,-0.055l-0.776,-0.053l-0.776,-0.051l-0.778,-0.048l-0.778,-0.046l-0.778,-0.043l-0.78,-0.041l-0.779,-0.038l-0.781,-0.036l-0.781,-0.033l-0.782,-0.031l-0.783,-0.029l-0.783,-0.026l-0.783,-0.024l-0.785,-0.021l-0.785,-0.018l-0.785,-0.017l-0.787,-0.013l-0.787,-0.011l-0.787,-0.009l-0.788,-0.006l-0.789,-0.004l-0.789,-0.001l-0.789,0.001Z"/><path d="M186.164,387.699c-4.35,0 -8.398,2.221 -10.736,5.888c-2.338,3.668 -2.642,8.276 -0.806,12.219c41.264,86.387 128.778,142.28 225.669,142.28c95.491,0 181.872,-54.288 223.801,-138.574c2.339,-4.667 2.094,-10.213 -0.648,-14.655c-2.743,-4.442 -7.591,-7.146 -12.811,-7.146c-80.74,-0.012 -349.957,-0.012 -424.469,-0.012Z" style="fill:none;"/><path d="M272.568,387.699c99.9,0.001 199.801,0.002 299.701,0.008c12.869,0.001 25.74,-0.15 38.608,0.006c10.182,0.206 18.007,12.222 12.969,22.293c-0.164,0.328 -0.329,0.657 -0.495,0.985c-29.668,58.662 -82.954,104.335 -145.438,124.753c-71.659,23.415 -153.432,12.271 -216.324,-29.656c-36.131,-24.086 -65.826,-57.679 -85.248,-96.756c-1.953,-3.929 -3.568,-8.214 -2.455,-12.271c1.449,-5.28 6.554,-9.294 12.176,-9.361c28.835,-0.115 57.671,-0.001 86.506,-0.001Zm-56.751,30.352c38.479,58.973 106.344,97.842 177.991,99.94c72.561,2.125 145.016,-33.863 187.004,-94.134c1.275,-1.831 2.52,-3.682 3.741,-5.55l0.39,-0.599c-104.125,-0.01 -208.25,-0.008 -312.375,-0.009l-56.98,0c0.076,0.118 0.152,0.235 0.229,0.352Z"/><g><path d="M400.291,199.699l25.143,94l-50.286,0l25.143,-94Z"/><path d="M400.291,387.699l-25.143,-94l50.286,0l-25.143,94Zm-18.629,-89l18.629,69.65l18.63,-69.65l-37.259,0Z"/></g></g></g></svg>