<?xml version="1.0" encoding="UTF-8" standalone="no"?><!DOCTYPE svg PUBLIC "-//W3C//DTD SVG 1.1//EN" "http://www.w3.org/Graphics/SVG/1.1/DTD/svg11.dtd"><svg width="100%" height="100%" viewBox="0 0 600 600" version="1.1" xmlns="http://www.w3.org/2000/svg" xmlns:xlink="http://www.w3.org/1999/xlink" xml:space="preserve" xmlns:serif="http://www.serif.com/" style="fill-rule:evenodd;clip-rule:evenodd;stroke-linejoin:round;stroke-miterlimit:2;"><rect id="Artboard1" x="0" y="0" width="600" height="600" style="fill:none;"/><g><path d="M550,300c0,-138.071 -111.929,-250 -250,-250c-138.071,0 -250,111.929 -250,250l49.826,0c0,-110.553 89.621,-200.174 200.174,-200.174c110.553,0 200.174,89.621 200.174,200.174l49.826,0Z"/><path d="M300.809,50.001l0.808,0.004l0.807,0.007l0.807,0.008l0.806,0.012l0.806,0.014l0.805,0.017l0.805,0.019l0.803,0.021l0.804,0.024l0.802,0.027l0.802,0.029l0.801,0.032l0.801,0.034l0.8,0.037l0.799,0.039l0.799,0.042l0.798,0.044l0.797,0.047l0.796,0.049l0.796,0.052l0.796,0.054l0.794,0.057l0.794,0.059l0.793,0.062l0.793,0.064l0.792,0.066l0.791,0.069l0.79,0.072l0.79,0.074l0.789,0.076l0.788,0.079l0.788,0.081l0.786,0.084l0.786,0.086l0.786,0.088l0.784,0.091l0.784,0.094l0.783,0.095l0.783,0.099l0.781,0.1l0.781,0.103l0.78,0.106l0.78,0.107l0.778,0.111l0.778,0.112l0.777,0.115l0.777,0.118l0.775,0.119l0.775,0.122l0.774,0.125l0.773,0.127l0.772,0.129l0.772,0.132l0.77,0.133l0.77,0.137l0.769,0.138l0.768,0.141l0.768,0.144l0.767,0.145l0.765,0.148l0.765,0.151l0.764,0.152l0.764,0.155l0.762,0.157l0.762,0.16l0.76,0.162l0.76,0.164l0.759,0.167l0.759,0.168l0.757,0.171l0.756,0.174l0.756,0.175l0.755,0.178l0.753,0.181l0.753,0.182l0.752,0.185l0.751,0.187l0.751,0.189l0.749,0.192l0.748,0.193l0.748,0.197l0.746,0.198l0.746,0.2l0.745,0.203l0.744,0.205l0.743,0.207l0.742,0.21l0.741,0.212l0.74,0.214l0.739,0.216l0.738,0.218l0.737,0.221l0.737,0.222l0.735,0.225l0.734,0.228l0.734,0.229l0.732,0.231l0.732,0.234l0.73,0.236l0.73,0.238l0.728,0.24l0.728,0.243l0.726,0.245l0.726,0.246l0.724,0.249l0.724,0.251l0.722,0.254l0.722,0.255l0.72,0.257l0.72,0.26l0.718,0.262l0.718,0.264l0.716,0.266l0.716,0.268l0.714,0.27l0.713,0.273l0.712,0.274l0.712,0.277l0.71,0.279l0.709,0.281l0.708,0.283l0.707,0.285l0.706,0.287l0.704,0.289l0.704,0.291l0.703,0.294l0.701,0.295l0.701,0.298l0.699,0.299l0.698,0.302l0.698,0.304l0.696,0.306l0.695,0.307l0.693,0.31l0.693,0.312l0.692,0.314l0.69,0.316l0.69,0.318l0.688,0.32l0.687,0.322l0.686,0.324l0.685,0.327l0.683,0.328l0.683,0.33l0.681,0.332l0.68,0.334l0.679,0.336l0.678,0.338l0.677,0.341l0.676,0.342l0.674,0.344l0.673,0.346l0.672,0.348l0.671,0.35l0.669,0.352l0.669,0.354l0.667,0.356l0.666,0.358l0.665,0.36l0.663,0.361l0.663,0.364l0.661,0.366l0.66,0.367l0.659,0.37l0.657,0.371l0.656,0.374l0.655,0.375l0.654,0.377l0.652,0.379l0.652,0.382l0.65,0.383l0.648,0.384l0.648,0.387l0.646,0.389l0.645,0.39l0.644,0.393l0.642,0.394l0.641,0.396l0.64,0.398l0.639,0.4l0.637,0.402l0.636,0.404l0.634,0.405l0.634,0.408l0.632,0.409l0.631,0.411l0.629,0.413l0.628,0.415l0.627,0.416l0.625,0.419l0.624,0.42l0.623,0.422l0.622,0.424l0.62,0.426l0.618,0.427l0.618,0.43l0.616,0.431l0.615,0.433l0.613,0.435l0.612,0.436l0.61,0.439l0.61,0.44l0.607,0.442l0.607,0.443l0.605,0.446l0.604,0.447l0.602,0.449l0.601,0.451l0.599,0.452l0.598,0.455l0.597,0.456l0.595,0.458l0.594,0.459l0.593,0.461l0.591,0.464l0.589,0.464l0.588,0.467l0.587,0.468l0.586,0.47l0.583,0.472l0.583,0.473l0.581,0.475l0.579,0.477l0.578,0.478l0.577,0.481l0.575,0.481l0.574,0.484l0.572,0.485l0.57,0.487l0.57,0.489l0.567,0.49l0.567,0.492l0.564,0.494l0.564,0.495l0.561,0.497l0.561,0.499l0.558,0.5l0.558,0.502l0.555,0.503l0.555,0.506l0.552,0.507l0.551,0.508l0.55,0.51l0.548,0.512l0.547,0.513l0.545,0.515l0.543,0.517l0.542,0.518l0.54,0.52l0.539,0.521l0.537,0.523l0.536,0.525l0.534,0.526l0.533,0.528l0.531,0.529l0.529,0.531l0.528,0.533l0.526,0.534l0.525,0.536l0.523,0.537l0.521,0.539l0.52,0.54l0.518,0.542l0.517,0.543l0.515,0.545l0.513,0.547l0.512,0.548l0.51,0.55l0.508,0.551l0.507,0.552l0.506,0.555l0.503,0.555l0.502,0.558l0.5,0.558l0.499,0.561l0.497,0.561l0.495,0.564l0.494,0.564l0.492,0.567l0.49,0.567l0.489,0.57l0.487,0.57l0.485,0.572l0.484,0.574l0.481,0.575l0.481,0.577l0.478,0.578l0.477,0.579l0.475,0.581l0.473,0.583l0.472,0.583l0.47,0.586l0.468,0.586l0.467,0.589l0.464,0.589l0.463,0.591l0.462,0.593l0.459,0.594l0.458,0.595l0.456,0.597l0.455,0.598l0.452,0.599l0.451,0.601l0.449,0.602l0.447,0.604l0.446,0.605l0.443,0.607l0.442,0.607l0.44,0.61l0.439,0.61l0.436,0.612l0.435,0.613l0.433,0.615l0.431,0.616l0.43,0.618l0.427,0.618l0.426,0.62l0.424,0.622l0.422,0.623l0.42,0.624l0.419,0.625l0.416,0.627l0.415,0.628l0.413,0.629l0.411,0.631l0.409,0.632l0.408,0.634l0.405,0.634l0.404,0.636l0.402,0.637l0.4,0.639l0.398,0.64l0.396,0.641l0.394,0.642l0.393,0.644l0.39,0.645l0.389,0.646l0.387,0.648l0.384,0.648l0.383,0.65l0.381,0.651l0.38,0.653l0.377,0.654l0.375,0.655l0.374,0.656l0.371,0.657l0.37,0.659l0.367,0.66l0.366,0.661l0.364,0.663l0.361,0.663l0.36,0.665l0.358,0.666l0.356,0.667l0.354,0.669l0.352,0.669l0.35,0.671l0.348,0.672l0.346,0.673l0.344,0.674l0.342,0.676l0.341,0.677l0.338,0.678l0.336,0.679l0.334,0.68l0.332,0.681l0.33,0.683l0.328,0.683l0.327,0.685l0.324,0.686l0.322,0.687l0.32,0.688l0.318,0.69l0.316,0.69l0.314,0.692l0.312,0.693l0.31,0.693l0.307,0.695l0.306,0.696l0.304,0.698l0.302,0.698l0.299,0.699l0.298,0.701l0.295,0.701l0.294,0.703l0.291,0.704l0.289,0.704l0.287,0.706l0.285,0.707l0.283,0.708l0.281,0.709l0.279,0.71l0.277,0.712l0.274,0.712l0.273,0.713l0.27,0.714l0.268,0.716l0.266,0.716l0.264,0.718l0.262,0.718l0.26,0.72l0.257,0.72l0.255,0.722l0.254,0.722l0.251,0.724l0.249,0.724l0.246,0.726l0.245,0.726l0.243,0.728l0.24,0.728l0.238,0.73l0.236,0.73l0.234,0.732l0.231,0.732l0.229,0.734l0.228,0.734l0.225,0.735l0.222,0.737l0.221,0.737l0.218,0.738l0.216,0.739l0.214,0.74l0.212,0.741l0.21,0.742l0.207,0.743l0.205,0.744l0.203,0.745l0.2,0.746l0.198,0.746l0.197,0.748l0.193,0.748l0.192,0.749l0.189,0.751l0.187,0.751l0.185,0.752l0.182,0.753l0.181,0.753l0.178,0.755l0.175,0.756l0.174,0.756l0.171,0.757l0.168,0.759l0.167,0.759l0.164,0.759l0.162,0.761l0.16,0.762l0.157,0.762l0.155,0.764l0.152,0.764l0.151,0.765l0.148,0.765l0.145,0.767l0.144,0.767l0.141,0.769l0.138,0.769l0.137,0.77l0.133,0.77l0.132,0.772l0.129,0.772l0.127,0.773l0.125,0.774l0.122,0.775l0.119,0.775l0.118,0.777l0.115,0.777l0.112,0.778l0.111,0.778l0.107,0.779l0.106,0.781l0.103,0.78l0.1,0.782l0.099,0.783l0.095,0.783l0.094,0.784l0.091,0.784l0.088,0.785l0.086,0.787l0.084,0.786l0.081,0.788l0.079,0.788l0.076,0.789l0.074,0.79l0.072,0.79l0.069,0.791l0.066,0.792l0.064,0.793l0.062,0.793l0.059,0.794l0.057,0.794l0.054,0.796l0.052,0.796l0.049,0.796l0.047,0.797l0.044,0.798l0.042,0.799l0.039,0.799l0.037,0.8l0.034,0.801l0.032,0.801l0.029,0.802l0.027,0.802l0.024,0.804l0.021,0.803l0.019,0.805l0.017,0.805l0.014,0.805l0.012,0.807l0.008,0.807l0.007,0.807l0.004,0.808l0.001,0.809l-49.826,0l-0.001,-0.648l-0.003,-0.647l-0.005,-0.646l-0.007,-0.646l-0.009,-0.646l-0.012,-0.645l-0.013,-0.645l-0.015,-0.644l-0.017,-0.643l-0.02,-0.643l-0.021,-0.643l-0.024,-0.642l-0.025,-0.641l-0.027,-0.641l-0.03,-0.641l-0.031,-0.64l-0.034,-0.639l-0.035,-0.639l-0.038,-0.639l-0.039,-0.638l-0.041,-0.637l-0.044,-0.637l-0.045,-0.636l-0.047,-0.636l-0.05,-0.635l-0.051,-0.634l-0.053,-0.634l-0.056,-0.634l-0.057,-0.632l-0.059,-0.633l-0.061,-0.632l-0.063,-0.631l-0.065,-0.63l-0.067,-0.63l-0.069,-0.63l-0.071,-0.629l-0.073,-0.628l-0.075,-0.627l-0.076,-0.627l-0.079,-0.627l-0.081,-0.626l-0.082,-0.625l-0.084,-0.625l-0.087,-0.624l-0.088,-0.623l-0.09,-0.623l-0.092,-0.622l-0.094,-0.622l-0.096,-0.621l-0.098,-0.62l-0.1,-0.619l-0.101,-0.619l-0.104,-0.619l-0.105,-0.618l-0.107,-0.617l-0.109,-0.616l-0.111,-0.616l-0.113,-0.615l-0.115,-0.615l-0.117,-0.613l-0.118,-0.614l-0.12,-0.612l-0.123,-0.612l-0.124,-0.611l-0.126,-0.611l-0.127,-0.609l-0.13,-0.61l-0.131,-0.608l-0.134,-0.608l-0.135,-0.607l-0.137,-0.606l-0.139,-0.606l-0.14,-0.605l-0.143,-0.604l-0.144,-0.604l-0.146,-0.602l-0.148,-0.603l-0.15,-0.601l-0.151,-0.601l-0.154,-0.6l-0.155,-0.599l-0.157,-0.598l-0.159,-0.598l-0.16,-0.597l-0.163,-0.597l-0.164,-0.595l-0.166,-0.595l-0.168,-0.594l-0.169,-0.594l-0.171,-0.592l-0.173,-0.592l-0.175,-0.591l-0.177,-0.59l-0.178,-0.59l-0.18,-0.589l-0.182,-0.588l-0.184,-0.587l-0.185,-0.586l-0.187,-0.586l-0.189,-0.585l-0.191,-0.584l-0.192,-0.583l-0.194,-0.583l-0.196,-0.582l-0.198,-0.581l-0.199,-0.58l-0.201,-0.579l-0.203,-0.579l-0.205,-0.577l-0.206,-0.577l-0.208,-0.576l-0.209,-0.576l-0.212,-0.574l-0.213,-0.574l-0.214,-0.572l-0.217,-0.572l-0.218,-0.572l-0.22,-0.57l-0.221,-0.569l-0.224,-0.569l-0.224,-0.568l-0.227,-0.567l-0.228,-0.566l-0.23,-0.565l-0.232,-0.564l-0.233,-0.564l-0.235,-0.562l-0.236,-0.562l-0.239,-0.561l-0.24,-0.56l-0.241,-0.559l-0.243,-0.558l-0.245,-0.557l-0.247,-0.557l-0.248,-0.555l-0.25,-0.555l-0.251,-0.554l-0.253,-0.553l-0.255,-0.552l-0.256,-0.551l-0.258,-0.55l-0.259,-0.549l-0.261,-0.548l-0.263,-0.548l-0.264,-0.546l-0.266,-0.546l-0.268,-0.544l-0.269,-0.544l-0.271,-0.543l-0.272,-0.542l-0.274,-0.541l-0.276,-0.54l-0.277,-0.539l-0.279,-0.538l-0.28,-0.537l-0.282,-0.536l-0.283,-0.535l-0.285,-0.534l-0.287,-0.534l-0.288,-0.532l-0.289,-0.531l-0.292,-0.531l-0.292,-0.529l-0.295,-0.528l-0.296,-0.528l-0.297,-0.526l-0.299,-0.526l-0.301,-0.524l-0.302,-0.524l-0.303,-0.522l-0.305,-0.521l-0.307,-0.521l-0.308,-0.519l-0.31,-0.519l-0.311,-0.517l-0.313,-0.517l-0.314,-0.515l-0.316,-0.514l-0.317,-0.514l-0.319,-0.512l-0.32,-0.511l-0.322,-0.511l-0.323,-0.509l-0.324,-0.508l-0.327,-0.507l-0.327,-0.506l-0.33,-0.505l-0.33,-0.504l-0.332,-0.503l-0.334,-0.502l-0.335,-0.501l-0.336,-0.499l-0.338,-0.499l-0.34,-0.498l-0.341,-0.496l-0.342,-0.495l-0.344,-0.495l-0.345,-0.493l-0.347,-0.492l-0.348,-0.491l-0.349,-0.49l-0.351,-0.489l-0.353,-0.488l-0.354,-0.487l-0.355,-0.485l-0.357,-0.485l-0.358,-0.483l-0.359,-0.482l-0.361,-0.482l-0.363,-0.48l-0.363,-0.478l-0.366,-0.478l-0.366,-0.477l-0.368,-0.475l-0.369,-0.475l-0.371,-0.473l-0.372,-0.472l-0.374,-0.471l-0.375,-0.47l-0.376,-0.468l-0.378,-0.468l-0.379,-0.466l-0.38,-0.465l-0.382,-0.464l-0.383,-0.463l-0.384,-0.462l-0.386,-0.46l-0.388,-0.46l-0.388,-0.458l-0.39,-0.457l-0.391,-0.456l-0.393,-0.454l-0.394,-0.454l-0.395,-0.452l-0.397,-0.451l-0.398,-0.45l-0.399,-0.448l-0.4,-0.447l-0.402,-0.447l-0.403,-0.445l-0.405,-0.443l-0.406,-0.443l-0.407,-0.441l-0.408,-0.44l-0.41,-0.439l-0.411,-0.438l-0.413,-0.436l-0.413,-0.435l-0.415,-0.434l-0.416,-0.433l-0.418,-0.431l-0.419,-0.43l-0.42,-0.429l-0.421,-0.428l-0.423,-0.426l-0.423,-0.426l-0.426,-0.423l-0.426,-0.423l-0.428,-0.421l-0.429,-0.42l-0.43,-0.419l-0.431,-0.418l-0.433,-0.416l-0.434,-0.415l-0.435,-0.413l-0.436,-0.413l-0.438,-0.411l-0.439,-0.41l-0.44,-0.408l-0.441,-0.407l-0.443,-0.406l-0.443,-0.405l-0.445,-0.403l-0.447,-0.402l-0.447,-0.4l-0.449,-0.4l-0.449,-0.397l-0.451,-0.397l-0.452,-0.395l-0.454,-0.394l-0.454,-0.393l-0.456,-0.391l-0.457,-0.39l-0.458,-0.389l-0.46,-0.387l-0.46,-0.386l-0.462,-0.384l-0.463,-0.383l-0.464,-0.382l-0.465,-0.38l-0.466,-0.379l-0.468,-0.378l-0.468,-0.376l-0.47,-0.375l-0.471,-0.374l-0.472,-0.372l-0.473,-0.371l-0.475,-0.369l-0.475,-0.368l-0.477,-0.366l-0.478,-0.366l-0.478,-0.363l-0.48,-0.363l-0.482,-0.361l-0.482,-0.359l-0.483,-0.358l-0.485,-0.357l-0.485,-0.355l-0.487,-0.354l-0.488,-0.353l-0.489,-0.351l-0.49,-0.349l-0.491,-0.348l-0.492,-0.347l-0.493,-0.345l-0.495,-0.344l-0.495,-0.342l-0.496,-0.341l-0.498,-0.34l-0.499,-0.338l-0.499,-0.336l-0.501,-0.335l-0.502,-0.334l-0.503,-0.332l-0.504,-0.33l-0.505,-0.33l-0.506,-0.327l-0.507,-0.327l-0.508,-0.324l-0.51,-0.323l-0.51,-0.322l-0.511,-0.32l-0.512,-0.319l-0.514,-0.317l-0.514,-0.316l-0.515,-0.314l-0.517,-0.313l-0.517,-0.311l-0.519,-0.31l-0.519,-0.308l-0.521,-0.307l-0.521,-0.305l-0.522,-0.303l-0.524,-0.302l-0.524,-0.301l-0.526,-0.299l-0.526,-0.297l-0.528,-0.296l-0.528,-0.295l-0.529,-0.292l-0.531,-0.292l-0.531,-0.289l-0.532,-0.288l-0.534,-0.287l-0.534,-0.285l-0.535,-0.283l-0.536,-0.282l-0.537,-0.28l-0.538,-0.279l-0.539,-0.277l-0.54,-0.276l-0.541,-0.274l-0.542,-0.272l-0.543,-0.271l-0.544,-0.269l-0.544,-0.268l-0.546,-0.266l-0.546,-0.264l-0.548,-0.263l-0.548,-0.261l-0.549,-0.259l-0.55,-0.258l-0.551,-0.256l-0.552,-0.255l-0.553,-0.253l-0.554,-0.251l-0.555,-0.25l-0.555,-0.248l-0.557,-0.247l-0.557,-0.245l-0.558,-0.243l-0.559,-0.241l-0.56,-0.24l-0.561,-0.239l-0.562,-0.236l-0.562,-0.235l-0.564,-0.233l-0.564,-0.232l-0.565,-0.23l-0.567,-0.228l-0.566,-0.227l-0.568,-0.224l-0.569,-0.224l-0.569,-0.221l-0.57,-0.22l-0.572,-0.218l-0.572,-0.217l-0.572,-0.214l-0.574,-0.213l-0.574,-0.212l-0.576,-0.209l-0.576,-0.208l-0.577,-0.206l-0.577,-0.205l-0.579,-0.203l-0.579,-0.201l-0.58,-0.199l-0.581,-0.198l-0.582,-0.196l-0.583,-0.194l-0.583,-0.192l-0.584,-0.191l-0.585,-0.189l-0.586,-0.187l-0.586,-0.185l-0.587,-0.184l-0.588,-0.182l-0.589,-0.18l-0.59,-0.178l-0.59,-0.177l-0.591,-0.175l-0.592,-0.173l-0.593,-0.171l-0.593,-0.169l-0.594,-0.168l-0.595,-0.166l-0.595,-0.164l-0.597,-0.163l-0.597,-0.16l-0.598,-0.159l-0.598,-0.157l-0.599,-0.155l-0.6,-0.154l-0.601,-0.151l-0.601,-0.15l-0.603,-0.148l-0.602,-0.146l-0.604,-0.144l-0.604,-0.143l-0.605,-0.14l-0.606,-0.139l-0.606,-0.137l-0.607,-0.135l-0.608,-0.134l-0.609,-0.131l-0.609,-0.13l-0.609,-0.127l-0.611,-0.126l-0.611,-0.124l-0.612,-0.123l-0.612,-0.12l-0.614,-0.118l-0.613,-0.117l-0.615,-0.115l-0.615,-0.113l-0.616,-0.111l-0.616,-0.109l-0.617,-0.107l-0.618,-0.105l-0.619,-0.104l-0.619,-0.101l-0.619,-0.1l-0.621,-0.098l-0.62,-0.096l-0.622,-0.094l-0.622,-0.092l-0.623,-0.09l-0.623,-0.088l-0.624,-0.087l-0.625,-0.084l-0.625,-0.082l-0.626,-0.081l-0.627,-0.079l-0.627,-0.076l-0.627,-0.075l-0.629,-0.073l-0.628,-0.071l-0.63,-0.069l-0.63,-0.067l-0.63,-0.065l-0.632,-0.063l-0.631,-0.061l-0.633,-0.059l-0.632,-0.057l-0.634,-0.056l-0.634,-0.053l-0.634,-0.051l-0.636,-0.05l-0.635,-0.047l-0.636,-0.045l-0.637,-0.044l-0.637,-0.041l-0.638,-0.039l-0.639,-0.038l-0.639,-0.035l-0.639,-0.034l-0.64,-0.031l-0.641,-0.03l-0.641,-0.027l-0.641,-0.025l-0.642,-0.024l-0.643,-0.021l-0.643,-0.02l-0.643,-0.017l-0.645,-0.015l-0.644,-0.013l-0.645,-0.012l-0.646,-0.009l-0.646,-0.007l-0.646,-0.005l-0.647,-0.003l-0.648,-0.001l-0.648,0.001l-0.647,0.003l-0.646,0.005l-0.646,0.007l-0.646,0.009l-0.645,0.012l-0.644,0.013l-0.645,0.015l-0.643,0.017l-0.643,0.02l-0.643,0.021l-0.642,0.024l-0.641,0.025l-0.641,0.027l-0.641,0.03l-0.64,0.031l-0.639,0.034l-0.639,0.035l-0.639,0.038l-0.638,0.039l-0.637,0.041l-0.637,0.044l-0.636,0.045l-0.635,0.047l-0.636,0.05l-0.634,0.051l-0.634,0.053l-0.634,0.056l-0.632,0.057l-0.633,0.059l-0.631,0.061l-0.632,0.063l-0.63,0.065l-0.63,0.067l-0.63,0.069l-0.628,0.071l-0.629,0.073l-0.627,0.075l-0.627,0.076l-0.627,0.079l-0.626,0.081l-0.625,0.082l-0.625,0.084l-0.624,0.087l-0.623,0.088l-0.623,0.09l-0.622,0.092l-0.622,0.094l-0.62,0.096l-0.621,0.098l-0.619,0.1l-0.619,0.101l-0.619,0.104l-0.618,0.105l-0.617,0.107l-0.616,0.109l-0.616,0.111l-0.615,0.113l-0.615,0.115l-0.613,0.117l-0.614,0.118l-0.612,0.12l-0.612,0.123l-0.611,0.124l-0.611,0.126l-0.609,0.127l-0.609,0.13l-0.609,0.131l-0.608,0.134l-0.607,0.135l-0.606,0.137l-0.606,0.139l-0.605,0.14l-0.604,0.143l-0.604,0.144l-0.602,0.146l-0.603,0.148l-0.601,0.15l-0.601,0.151l-0.6,0.154l-0.599,0.155l-0.598,0.157l-0.598,0.159l-0.597,0.16l-0.597,0.163l-0.595,0.164l-0.595,0.166l-0.594,0.168l-0.593,0.169l-0.593,0.171l-0.592,0.173l-0.591,0.175l-0.59,0.177l-0.59,0.178l-0.589,0.18l-0.588,0.182l-0.587,0.184l-0.586,0.185l-0.586,0.187l-0.585,0.189l-0.584,0.191l-0.583,0.192l-0.583,0.194l-0.582,0.196l-0.581,0.198l-0.58,0.199l-0.579,0.201l-0.579,0.203l-0.577,0.205l-0.577,0.206l-0.576,0.208l-0.576,0.209l-0.574,0.212l-0.574,0.213l-0.572,0.214l-0.572,0.217l-0.572,0.218l-0.57,0.22l-0.569,0.221l-0.569,0.224l-0.568,0.224l-0.566,0.227l-0.567,0.228l-0.565,0.23l-0.564,0.232l-0.564,0.233l-0.562,0.235l-0.562,0.236l-0.561,0.239l-0.56,0.24l-0.559,0.241l-0.558,0.243l-0.557,0.245l-0.557,0.247l-0.555,0.248l-0.555,0.25l-0.554,0.251l-0.553,0.253l-0.552,0.255l-0.551,0.256l-0.55,0.258l-0.549,0.259l-0.548,0.261l-0.548,0.263l-0.546,0.264l-0.546,0.266l-0.544,0.268l-0.544,0.269l-0.543,0.271l-0.542,0.272l-0.541,0.274l-0.54,0.276l-0.539,0.277l-0.538,0.279l-0.537,0.28l-0.536,0.282l-0.535,0.283l-0.534,0.285l-0.534,0.287l-0.532,0.288l-0.531,0.289l-0.531,0.292l-0.529,0.292l-0.528,0.295l-0.528,0.296l-0.526,0.297l-0.526,0.299l-0.524,0.301l-0.524,0.302l-0.522,0.303l-0.521,0.305l-0.521,0.307l-0.519,0.308l-0.519,0.31l-0.517,0.311l-0.517,0.313l-0.515,0.314l-0.514,0.316l-0.514,0.317l-0.512,0.319l-0.511,0.32l-0.511,0.322l-0.509,0.323l-0.508,0.324l-0.507,0.327l-0.506,0.327l-0.505,0.33l-0.504,0.33l-0.503,0.332l-0.502,0.334l-0.501,0.335l-0.499,0.336l-0.499,0.338l-0.498,0.34l-0.496,0.341l-0.495,0.342l-0.495,0.344l-0.493,0.345l-0.492,0.347l-0.491,0.348l-0.49,0.349l-0.489,0.351l-0.488,0.353l-0.487,0.354l-0.485,0.355l-0.485,0.357l-0.483,0.358l-0.482,0.359l-0.482,0.361l-0.48,0.363l-0.478,0.363l-0.478,0.366l-0.477,0.366l-0.475,0.368l-0.475,0.369l-0.473,0.371l-0.472,0.372l-0.471,0.374l-0.47,0.375l-0.468,0.376l-0.468,0.378l-0.466,0.379l-0.465,0.38l-0.464,0.382l-0.463,0.383l-0.462,0.384l-0.46,0.386l-0.46,0.388l-0.458,0.388l-0.457,0.39l-0.456,0.391l-0.454,0.393l-0.454,0.394l-0.452,0.395l-0.451,0.397l-0.45,0.397l-0.448,0.4l-0.447,0.4l-0.447,0.402l-0.445,0.403l-0.443,0.405l-0.443,0.406l-0.441,0.407l-0.44,0.408l-0.439,0.41l-0.438,0.411l-0.436,0.413l-0.435,0.413l-0.434,0.415l-0.433,0.416l-0.431,0.418l-0.43,0.419l-0.429,0.42l-0.428,0.421l-0.426,0.423l-0.426,0.423l-0.423,0.426l-0.423,0.426l-0.421,0.428l-0.42,0.429l-0.419,0.43l-0.418,0.431l-0.416,0.433l-0.415,0.434l-0.413,0.435l-0.413,0.436l-0.411,0.438l-0.41,0.439l-0.408,0.44l-0.407,0.441l-0.406,0.443l-0.405,0.443l-0.403,0.445l-0.402,0.447l-0.4,0.447l-0.4,0.448l-0.397,0.45l-0.397,0.451l-0.395,0.452l-0.394,0.454l-0.393,0.454l-0.391,0.456l-0.39,0.457l-0.388,0.458l-0.388,0.46l-0.386,0.46l-0.384,0.462l-0.383,0.463l-0.382,0.464l-0.38,0.465l-0.379,0.466l-0.378,0.468l-0.376,0.468l-0.375,0.47l-0.374,0.471l-0.372,0.472l-0.371,0.473l-0.369,0.475l-0.368,0.475l-0.366,0.477l-0.366,0.478l-0.363,0.478l-0.363,0.48l-0.361,0.482l-0.359,0.482l-0.358,0.483l-0.357,0.485l-0.355,0.485l-0.354,0.487l-0.353,0.488l-0.351,0.489l-0.349,0.49l-0.348,0.491l-0.347,0.492l-0.345,0.493l-0.344,0.495l-0.342,0.495l-0.341,0.496l-0.34,0.498l-0.338,0.499l-0.336,0.499l-0.335,0.501l-0.334,0.502l-0.332,0.503l-0.33,0.504l-0.33,0.505l-0.327,0.506l-0.327,0.507l-0.324,0.508l-0.323,0.509l-0.322,0.511l-0.32,0.511l-0.319,0.512l-0.317,0.514l-0.316,0.514l-0.314,0.515l-0.313,0.517l-0.311,0.517l-0.31,0.519l-0.308,0.519l-0.307,0.521l-0.305,0.521l-0.303,0.522l-0.302,0.524l-0.301,0.524l-0.299,0.526l-0.297,0.526l-0.296,0.528l-0.295,0.528l-0.292,0.529l-0.292,0.531l-0.289,0.531l-0.288,0.532l-0.287,0.534l-0.285,0.534l-0.283,0.535l-0.282,0.536l-0.28,0.537l-0.279,0.538l-0.277,0.539l-0.276,0.54l-0.274,0.541l-0.272,0.542l-0.271,0.543l-0.269,0.544l-0.268,0.544l-0.266,0.546l-0.264,0.546l-0.263,0.548l-0.261,0.548l-0.259,0.549l-0.258,0.55l-0.256,0.551l-0.255,0.552l-0.253,0.553l-0.251,0.554l-0.25,0.555l-0.248,0.555l-0.247,0.557l-0.245,0.557l-0.243,0.558l-0.241,0.559l-0.24,0.56l-0.239,0.561l-0.236,0.562l-0.235,0.562l-0.233,0.564l-0.232,0.564l-0.23,0.565l-0.228,0.567l-0.227,0.566l-0.224,0.568l-0.224,0.569l-0.221,0.569l-0.22,0.57l-0.218,0.572l-0.217,0.572l-0.214,0.572l-0.213,0.574l-0.212,0.574l-0.209,0.576l-0.208,0.576l-0.206,0.577l-0.205,0.577l-0.203,0.579l-0.201,0.579l-0.199,0.58l-0.198,0.581l-0.196,0.582l-0.194,0.583l-0.192,0.583l-0.191,0.584l-0.189,0.585l-0.187,0.586l-0.185,0.586l-0.184,0.587l-0.182,0.588l-0.18,0.589l-0.178,0.59l-0.177,0.59l-0.175,0.591l-0.173,0.592l-0.171,0.593l-0.169,0.593l-0.168,0.594l-0.166,0.595l-0.164,0.595l-0.163,0.597l-0.16,0.597l-0.159,0.598l-0.157,0.598l-0.155,0.599l-0.154,0.6l-0.151,0.601l-0.15,0.601l-0.148,0.603l-0.146,0.602l-0.144,0.604l-0.143,0.604l-0.14,0.605l-0.139,0.606l-0.137,0.606l-0.135,0.607l-0.134,0.608l-0.131,0.609l-0.13,0.609l-0.127,0.609l-0.126,0.611l-0.124,0.611l-0.123,0.612l-0.12,0.612l-0.118,0.614l-0.117,0.613l-0.115,0.615l-0.113,0.615l-0.111,0.616l-0.109,0.616l-0.107,0.617l-0.105,0.618l-0.104,0.619l-0.101,0.619l-0.1,0.619l-0.098,0.621l-0.096,0.62l-0.094,0.622l-0.092,0.622l-0.09,0.623l-0.088,0.623l-0.087,0.624l-0.084,0.625l-0.082,0.625l-0.081,0.626l-0.079,0.627l-0.076,0.627l-0.075,0.627l-0.073,0.629l-0.071,0.628l-0.069,0.63l-0.067,0.63l-0.065,0.63l-0.063,0.632l-0.061,0.631l-0.059,0.633l-0.057,0.632l-0.056,0.634l-0.053,0.634l-0.051,0.634l-0.05,0.636l-0.047,0.635l-0.045,0.636l-0.044,0.637l-0.041,0.637l-0.039,0.638l-0.038,0.639l-0.035,0.639l-0.034,0.639l-0.031,0.64l-0.03,0.641l-0.027,0.641l-0.025,0.641l-0.024,0.642l-0.021,0.643l-0.02,0.643l-0.017,0.643l-0.015,0.645l-0.013,0.644l-0.012,0.645l-0.009,0.646l-0.007,0.646l-0.005,0.646l-0.003,0.647l-0.001,0.648l-49.826,0l0.001,-0.809l0.004,-0.808l0.007,-0.807l0.008,-0.807l0.012,-0.806l0.014,-0.806l0.017,-0.805l0.019,-0.805l0.021,-0.803l0.024,-0.804l0.027,-0.802l0.029,-0.802l0.032,-0.801l0.034,-0.801l0.037,-0.8l0.039,-0.799l0.042,-0.799l0.044,-0.798l0.047,-0.797l0.049,-0.796l0.052,-0.796l0.054,-0.796l0.057,-0.794l0.059,-0.794l0.062,-0.793l0.064,-0.793l0.066,-0.792l0.069,-0.791l0.072,-0.79l0.074,-0.79l0.076,-0.789l0.079,-0.788l0.081,-0.788l0.084,-0.786l0.086,-0.786l0.088,-0.786l0.091,-0.784l0.094,-0.784l0.095,-0.783l0.099,-0.783l0.1,-0.781l0.103,-0.781l0.106,-0.78l0.107,-0.78l0.111,-0.778l0.112,-0.778l0.115,-0.777l0.118,-0.777l0.119,-0.775l0.122,-0.775l0.125,-0.774l0.127,-0.773l0.129,-0.772l0.132,-0.772l0.133,-0.77l0.137,-0.77l0.138,-0.769l0.141,-0.768l0.144,-0.768l0.145,-0.767l0.148,-0.765l0.151,-0.765l0.152,-0.764l0.155,-0.764l0.157,-0.762l0.16,-0.762l0.162,-0.76l0.164,-0.76l0.167,-0.759l0.168,-0.759l0.171,-0.757l0.174,-0.756l0.175,-0.756l0.178,-0.755l0.181,-0.753l0.182,-0.753l0.185,-0.752l0.187,-0.751l0.189,-0.751l0.192,-0.749l0.193,-0.748l0.197,-0.748l0.198,-0.746l0.2,-0.746l0.203,-0.745l0.205,-0.744l0.207,-0.743l0.21,-0.742l0.212,-0.741l0.214,-0.74l0.216,-0.739l0.218,-0.738l0.221,-0.737l0.222,-0.737l0.225,-0.735l0.228,-0.734l0.229,-0.734l0.231,-0.732l0.234,-0.732l0.236,-0.73l0.238,-0.73l0.24,-0.728l0.243,-0.728l0.245,-0.726l0.246,-0.726l0.249,-0.724l0.251,-0.724l0.254,-0.722l0.255,-0.722l0.257,-0.72l0.26,-0.72l0.262,-0.718l0.264,-0.718l0.266,-0.716l0.268,-0.716l0.27,-0.714l0.273,-0.713l0.274,-0.712l0.277,-0.712l0.279,-0.71l0.281,-0.709l0.283,-0.708l0.285,-0.707l0.287,-0.706l0.289,-0.704l0.291,-0.704l0.294,-0.703l0.295,-0.701l0.298,-0.701l0.299,-0.699l0.302,-0.698l0.304,-0.698l0.306,-0.696l0.307,-0.695l0.31,-0.693l0.312,-0.693l0.314,-0.692l0.316,-0.69l0.318,-0.69l0.32,-0.688l0.322,-0.687l0.324,-0.686l0.327,-0.685l0.328,-0.683l0.33,-0.683l0.332,-0.681l0.334,-0.68l0.336,-0.679l0.338,-0.678l0.341,-0.677l0.342,-0.676l0.344,-0.674l0.346,-0.673l0.348,-0.672l0.35,-0.671l0.352,-0.669l0.354,-0.669l0.356,-0.667l0.358,-0.666l0.36,-0.665l0.361,-0.663l0.364,-0.663l0.366,-0.661l0.367,-0.66l0.37,-0.659l0.371,-0.657l0.374,-0.656l0.375,-0.655l0.377,-0.654l0.38,-0.652l0.381,-0.652l0.383,-0.65l0.384,-0.648l0.387,-0.648l0.389,-0.646l0.39,-0.645l0.393,-0.644l0.394,-0.642l0.396,-0.641l0.398,-0.64l0.4,-0.639l0.402,-0.637l0.404,-0.636l0.405,-0.634l0.408,-0.634l0.409,-0.632l0.411,-0.631l0.413,-0.629l0.415,-0.628l0.416,-0.627l0.419,-0.625l0.42,-0.624l0.422,-0.623l0.424,-0.622l0.426,-0.62l0.427,-0.618l0.43,-0.618l0.431,-0.616l0.433,-0.615l0.435,-0.613l0.436,-0.612l0.439,-0.61l0.44,-0.61l0.442,-0.607l0.443,-0.607l0.446,-0.605l0.447,-0.604l0.449,-0.602l0.451,-0.601l0.452,-0.599l0.455,-0.598l0.456,-0.597l0.458,-0.595l0.459,-0.594l0.461,-0.593l0.464,-0.591l0.464,-0.589l0.467,-0.589l0.468,-0.586l0.47,-0.586l0.472,-0.583l0.473,-0.583l0.475,-0.581l0.477,-0.579l0.478,-0.578l0.481,-0.577l0.481,-0.575l0.484,-0.574l0.485,-0.572l0.487,-0.57l0.489,-0.57l0.49,-0.567l0.492,-0.567l0.494,-0.564l0.495,-0.564l0.497,-0.561l0.499,-0.561l0.5,-0.558l0.502,-0.558l0.503,-0.555l0.506,-0.555l0.507,-0.552l0.508,-0.551l0.51,-0.55l0.512,-0.548l0.513,-0.547l0.515,-0.545l0.517,-0.543l0.518,-0.542l0.52,-0.54l0.521,-0.539l0.523,-0.537l0.525,-0.536l0.526,-0.534l0.528,-0.533l0.529,-0.531l0.531,-0.529l0.533,-0.528l0.534,-0.526l0.536,-0.525l0.537,-0.523l0.539,-0.521l0.54,-0.52l0.542,-0.518l0.543,-0.517l0.545,-0.515l0.547,-0.513l0.548,-0.512l0.55,-0.51l0.551,-0.508l0.552,-0.507l0.555,-0.506l0.555,-0.503l0.558,-0.502l0.558,-0.5l0.561,-0.499l0.561,-0.497l0.564,-0.495l0.564,-0.494l0.567,-0.492l0.567,-0.49l0.57,-0.489l0.57,-0.487l0.572,-0.485l0.574,-0.484l0.575,-0.481l0.577,-0.481l0.578,-0.478l0.579,-0.477l0.581,-0.475l0.583,-0.473l0.583,-0.472l0.586,-0.47l0.586,-0.468l0.589,-0.467l0.589,-0.464l0.591,-0.464l0.593,-0.461l0.594,-0.459l0.595,-0.458l0.597,-0.456l0.598,-0.455l0.599,-0.452l0.601,-0.451l0.602,-0.449l0.604,-0.447l0.605,-0.446l0.607,-0.443l0.607,-0.442l0.61,-0.44l0.61,-0.439l0.612,-0.436l0.613,-0.435l0.615,-0.433l0.616,-0.431l0.618,-0.43l0.618,-0.427l0.62,-0.426l0.622,-0.424l0.623,-0.422l0.624,-0.42l0.625,-0.419l0.627,-0.416l0.628,-0.415l0.629,-0.413l0.631,-0.411l0.632,-0.409l0.634,-0.408l0.634,-0.405l0.636,-0.404l0.637,-0.402l0.639,-0.4l0.64,-0.398l0.641,-0.396l0.642,-0.394l0.644,-0.393l0.645,-0.39l0.646,-0.389l0.648,-0.387l0.648,-0.384l0.65,-0.383l0.652,-0.381l0.652,-0.38l0.654,-0.377l0.655,-0.375l0.656,-0.374l0.657,-0.371l0.659,-0.37l0.66,-0.367l0.661,-0.366l0.663,-0.364l0.663,-0.361l0.665,-0.36l0.666,-0.358l0.667,-0.356l0.669,-0.354l0.669,-0.352l0.671,-0.35l0.672,-0.348l0.673,-0.346l0.674,-0.344l0.676,-0.342l0.677,-0.341l0.678,-0.338l0.679,-0.336l0.68,-0.334l0.681,-0.332l0.683,-0.33l0.683,-0.328l0.685,-0.327l0.686,-0.324l0.687,-0.322l0.688,-0.32l0.69,-0.318l0.69,-0.316l0.692,-0.314l0.693,-0.312l0.693,-0.31l0.695,-0.307l0.696,-0.306l0.698,-0.304l0.698,-0.302l0.699,-0.299l0.701,-0.298l0.701,-0.295l0.703,-0.294l0.704,-0.291l0.704,-0.289l0.706,-0.287l0.707,-0.285l0.708,-0.283l0.709,-0.281l0.71,-0.279l0.712,-0.277l0.712,-0.274l0.713,-0.273l0.714,-0.27l0.716,-0.268l0.716,-0.266l0.718,-0.264l0.718,-0.262l0.72,-0.26l0.72,-0.257l0.722,-0.255l0.722,-0.254l0.724,-0.251l0.724,-0.249l0.726,-0.246l0.726,-0.245l0.728,-0.243l0.728,-0.24l0.73,-0.238l0.73,-0.236l0.732,-0.234l0.732,-0.231l0.734,-0.229l0.734,-0.228l0.735,-0.225l0.737,-0.222l0.737,-0.221l0.738,-0.218l0.739,-0.216l0.74,-0.214l0.741,-0.212l0.742,-0.21l0.743,-0.207l0.744,-0.205l0.745,-0.203l0.746,-0.2l0.746,-0.198l0.748,-0.197l0.748,-0.193l0.749,-0.192l0.751,-0.189l0.751,-0.187l0.752,-0.185l0.753,-0.182l0.753,-0.181l0.755,-0.178l0.756,-0.175l0.756,-0.174l0.757,-0.171l0.759,-0.168l0.759,-0.167l0.76,-0.164l0.76,-0.162l0.762,-0.16l0.762,-0.157l0.764,-0.155l0.764,-0.152l0.765,-0.151l0.765,-0.148l0.767,-0.145l0.768,-0.144l0.768,-0.141l0.769,-0.138l0.77,-0.137l0.77,-0.133l0.772,-0.132l0.772,-0.129l0.773,-0.127l0.774,-0.125l0.775,-0.122l0.775,-0.119l0.777,-0.118l0.777,-0.115l0.778,-0.112l0.778,-0.111l0.78,-0.107l0.78,-0.106l0.781,-0.103l0.781,-0.1l0.783,-0.099l0.783,-0.095l0.784,-0.094l0.784,-0.091l0.786,-0.088l0.786,-0.086l0.786,-0.084l0.788,-0.081l0.788,-0.079l0.789,-0.076l0.79,-0.074l0.79,-0.072l0.791,-0.069l0.792,-0.066l0.793,-0.064l0.793,-0.062l0.794,-0.059l0.794,-0.057l0.796,-0.054l0.796,-0.052l0.796,-0.049l0.797,-0.047l0.798,-0.044l0.799,-0.042l0.799,-0.039l0.8,-0.037l0.801,-0.034l0.801,-0.032l0.802,-0.029l0.802,-0.027l0.804,-0.024l0.803,-0.021l0.805,-0.019l0.805,-0.017l0.806,-0.014l0.806,-0.012l0.807,-0.008l0.807,-0.007l0.808,-0.004l0.809,-0.001l0.809,0.001Zm-1.599,5.964l-0.789,0.004l-0.789,0.006l-0.788,0.009l-0.787,0.011l-0.787,0.014l-0.786,0.016l-0.786,0.018l-0.785,0.022l-0.784,0.023l-0.783,0.026l-0.783,0.029l-0.783,0.031l-0.782,0.033l-0.781,0.036l-0.78,0.038l-0.78,0.041l-0.779,0.043l-0.778,0.046l-0.778,0.048l-0.777,0.051l-0.777,0.052l-0.776,0.056l-0.775,0.058l-0.774,0.06l-0.774,0.062l-0.773,0.065l-0.772,0.068l-0.772,0.069l-0.771,0.072l-0.77,0.075l-0.769,0.077l-0.769,0.079l-0.768,0.082l-0.768,0.084l-0.766,0.086l-0.766,0.089l-0.766,0.091l-0.764,0.094l-0.764,0.096l-0.763,0.098l-0.762,0.1l-0.762,0.103l-0.76,0.106l-0.76,0.107l-0.76,0.11l-0.758,0.112l-0.758,0.115l-0.757,0.117l-0.756,0.119l-0.755,0.121l-0.755,0.124l-0.754,0.126l-0.753,0.129l-0.752,0.131l-0.751,0.133l-0.751,0.135l-0.75,0.137l-0.749,0.14l-0.748,0.142l-0.748,0.145l-0.746,0.147l-0.746,0.149l-0.745,0.151l-0.744,0.153l-0.744,0.156l-0.742,0.158l-0.742,0.16l-0.741,0.163l-0.74,0.164l-0.739,0.167l-0.738,0.17l-0.737,0.171l-0.737,0.174l-0.736,0.176l-0.734,0.178l-0.734,0.18l-0.733,0.183l-0.733,0.184l-0.731,0.187l-0.73,0.189l-0.73,0.192l-0.729,0.193l-0.727,0.196l-0.727,0.198l-0.726,0.2l-0.725,0.202l-0.724,0.205l-0.723,0.206l-0.723,0.209l-0.721,0.211l-0.721,0.213l-0.719,0.215l-0.719,0.218l-0.717,0.219l-0.717,0.222l-0.716,0.224l-0.715,0.226l-0.714,0.228l-0.713,0.23l-0.712,0.233l-0.711,0.234l-0.71,0.237l-0.709,0.239l-0.708,0.24l-0.707,0.243l-0.706,0.245l-0.705,0.248l-0.704,0.249l-0.704,0.251l-0.702,0.254l-0.701,0.255l-0.7,0.258l-0.699,0.259l-0.698,0.262l-0.698,0.264l-0.696,0.266l-0.695,0.268l-0.694,0.27l-0.693,0.272l-0.692,0.274l-0.691,0.276l-0.69,0.278l-0.689,0.281l-0.688,0.282l-0.687,0.284l-0.685,0.286l-0.685,0.289l-0.684,0.29l-0.682,0.293l-0.682,0.294l-0.68,0.297l-0.68,0.298l-0.678,0.3l-0.677,0.303l-0.676,0.304l-0.675,0.307l-0.674,0.308l-0.673,0.311l-0.672,0.312l-0.67,0.314l-0.67,0.317l-0.668,0.318l-0.668,0.32l-0.666,0.323l-0.665,0.324l-0.664,0.326l-0.662,0.328l-0.662,0.33l-0.661,0.332l-0.659,0.334l-0.658,0.336l-0.657,0.338l-0.656,0.339l-0.655,0.342l-0.653,0.344l-0.653,0.345l-0.651,0.348l-0.65,0.349l-0.649,0.351l-0.648,0.353l-0.646,0.355l-0.646,0.357l-0.644,0.359l-0.643,0.361l-0.642,0.362l-0.64,0.365l-0.639,0.366l-0.639,0.368l-0.636,0.37l-0.636,0.372l-0.635,0.374l-0.633,0.376l-0.632,0.377l-0.631,0.38l-0.629,0.381l-0.629,0.383l-0.627,0.385l-0.625,0.387l-0.625,0.388l-0.623,0.391l-0.622,0.392l-0.621,0.394l-0.62,0.396l-0.618,0.398l-0.617,0.399l-0.616,0.401l-0.614,0.403l-0.613,0.405l-0.612,0.407l-0.611,0.408l-0.609,0.411l-0.608,0.412l-0.606,0.414l-0.606,0.415l-0.604,0.418l-0.603,0.419l-0.601,0.421l-0.6,0.422l-0.599,0.425l-0.597,0.426l-0.596,0.428l-0.595,0.43l-0.593,0.431l-0.592,0.433l-0.591,0.435l-0.589,0.437l-0.588,0.438l-0.587,0.44l-0.585,0.442l-0.584,0.443l-0.583,0.446l-0.581,0.447l-0.579,0.448l-0.579,0.451l-0.577,0.452l-0.575,0.453l-0.575,0.456l-0.572,0.457l-0.572,0.459l-0.57,0.46l-0.568,0.462l-0.568,0.464l-0.565,0.465l-0.565,0.468l-0.562,0.468l-0.562,0.471l-0.56,0.472l-0.559,0.474l-0.557,0.475l-0.555,0.477l-0.555,0.479l-0.552,0.48l-0.552,0.482l-0.55,0.484l-0.548,0.485l-0.547,0.487l-0.546,0.488l-0.544,0.49l-0.542,0.492l-0.541,0.493l-0.54,0.495l-0.538,0.496l-0.536,0.498l-0.536,0.5l-0.533,0.501l-0.532,0.503l-0.531,0.504l-0.529,0.506l-0.527,0.508l-0.526,0.509l-0.525,0.51l-0.523,0.512l-0.521,0.514l-0.52,0.515l-0.519,0.517l-0.517,0.519l-0.515,0.52l-0.514,0.521l-0.512,0.523l-0.51,0.525l-0.509,0.526l-0.508,0.527l-0.506,0.529l-0.504,0.531l-0.503,0.532l-0.501,0.533l-0.5,0.536l-0.498,0.536l-0.496,0.538l-0.495,0.54l-0.493,0.541l-0.492,0.542l-0.49,0.544l-0.488,0.546l-0.487,0.547l-0.485,0.548l-0.484,0.55l-0.482,0.552l-0.48,0.552l-0.479,0.555l-0.477,0.555l-0.475,0.557l-0.474,0.559l-0.472,0.56l-0.471,0.562l-0.468,0.562l-0.468,0.565l-0.465,0.565l-0.464,0.568l-0.462,0.568l-0.46,0.57l-0.459,0.572l-0.457,0.572l-0.456,0.575l-0.453,0.575l-0.452,0.577l-0.451,0.579l-0.448,0.579l-0.447,0.581l-0.446,0.583l-0.443,0.584l-0.442,0.585l-0.44,0.587l-0.438,0.588l-0.437,0.589l-0.435,0.591l-0.433,0.592l-0.431,0.593l-0.43,0.595l-0.428,0.596l-0.426,0.597l-0.425,0.599l-0.422,0.6l-0.421,0.601l-0.419,0.603l-0.418,0.604l-0.415,0.606l-0.414,0.606l-0.412,0.608l-0.411,0.609l-0.408,0.611l-0.407,0.612l-0.405,0.613l-0.403,0.614l-0.401,0.616l-0.399,0.617l-0.398,0.618l-0.396,0.62l-0.394,0.621l-0.392,0.622l-0.391,0.623l-0.388,0.625l-0.387,0.625l-0.385,0.627l-0.383,0.629l-0.381,0.629l-0.38,0.631l-0.377,0.632l-0.376,0.633l-0.374,0.635l-0.372,0.636l-0.37,0.636l-0.368,0.639l-0.366,0.639l-0.365,0.64l-0.362,0.642l-0.361,0.643l-0.359,0.644l-0.357,0.646l-0.355,0.646l-0.353,0.648l-0.351,0.649l-0.349,0.65l-0.348,0.651l-0.345,0.653l-0.344,0.653l-0.342,0.655l-0.339,0.656l-0.338,0.657l-0.336,0.658l-0.334,0.659l-0.332,0.661l-0.33,0.662l-0.328,0.662l-0.326,0.664l-0.324,0.665l-0.323,0.666l-0.32,0.668l-0.318,0.668l-0.317,0.67l-0.314,0.67l-0.312,0.672l-0.311,0.673l-0.308,0.674l-0.307,0.675l-0.304,0.676l-0.303,0.677l-0.3,0.678l-0.298,0.68l-0.297,0.68l-0.294,0.682l-0.293,0.682l-0.29,0.684l-0.289,0.685l-0.286,0.685l-0.284,0.687l-0.282,0.688l-0.281,0.689l-0.278,0.69l-0.276,0.691l-0.274,0.692l-0.272,0.693l-0.27,0.694l-0.268,0.695l-0.266,0.696l-0.264,0.698l-0.262,0.698l-0.259,0.699l-0.258,0.7l-0.255,0.701l-0.254,0.702l-0.251,0.704l-0.249,0.704l-0.248,0.705l-0.245,0.706l-0.243,0.707l-0.24,0.708l-0.239,0.709l-0.237,0.71l-0.234,0.711l-0.233,0.712l-0.23,0.713l-0.228,0.714l-0.226,0.715l-0.224,0.716l-0.222,0.717l-0.219,0.717l-0.218,0.719l-0.215,0.719l-0.213,0.721l-0.211,0.721l-0.209,0.723l-0.206,0.723l-0.205,0.724l-0.202,0.725l-0.2,0.726l-0.198,0.727l-0.196,0.727l-0.193,0.729l-0.192,0.73l-0.189,0.73l-0.187,0.731l-0.184,0.733l-0.183,0.733l-0.18,0.734l-0.178,0.734l-0.176,0.736l-0.174,0.737l-0.171,0.737l-0.17,0.738l-0.167,0.739l-0.164,0.74l-0.163,0.741l-0.16,0.742l-0.158,0.742l-0.156,0.744l-0.153,0.744l-0.151,0.745l-0.149,0.746l-0.147,0.746l-0.145,0.748l-0.142,0.748l-0.14,0.749l-0.137,0.75l-0.135,0.751l-0.133,0.751l-0.131,0.752l-0.129,0.753l-0.126,0.754l-0.124,0.755l-0.121,0.755l-0.119,0.756l-0.117,0.757l-0.115,0.758l-0.112,0.758l-0.11,0.76l-0.107,0.76l-0.106,0.76l-0.103,0.762l-0.1,0.762l-0.098,0.763l-0.096,0.764l-0.094,0.764l-0.091,0.766l-0.089,0.766l-0.086,0.766l-0.084,0.768l-0.082,0.768l-0.079,0.769l-0.077,0.769l-0.075,0.77l-0.072,0.771l-0.069,0.772l-0.068,0.772l-0.065,0.773l-0.062,0.774l-0.06,0.774l-0.058,0.775l-0.056,0.776l-0.052,0.777l-0.051,0.777l-0.048,0.778l-0.046,0.778l-0.043,0.779l-0.041,0.78l-0.038,0.78l-0.036,0.781l-0.033,0.782l-0.031,0.783l-0.029,0.783l-0.026,0.783l-0.023,0.784l-0.022,0.785l-0.008,0.338l37.912,0l0,-0.016l0.02,-0.662l0.022,-0.661l0.024,-0.661l0.026,-0.661l0.029,-0.66l0.03,-0.659l0.032,-0.659l0.035,-0.658l0.036,-0.658l0.039,-0.657l0.04,-0.657l0.043,-0.656l0.044,-0.655l0.047,-0.655l0.049,-0.655l0.051,-0.654l0.053,-0.653l0.054,-0.653l0.057,-0.652l0.059,-0.652l0.061,-0.651l0.063,-0.65l0.065,-0.65l0.067,-0.649l0.069,-0.649l0.071,-0.648l0.073,-0.648l0.075,-0.647l0.077,-0.646l0.079,-0.646l0.081,-0.645l0.083,-0.644l0.085,-0.644l0.087,-0.644l0.089,-0.642l0.091,-0.642l0.092,-0.642l0.095,-0.64l0.097,-0.64l0.099,-0.64l0.1,-0.639l0.103,-0.638l0.105,-0.637l0.106,-0.637l0.109,-0.636l0.11,-0.636l0.112,-0.635l0.115,-0.634l0.116,-0.634l0.118,-0.632l0.12,-0.633l0.122,-0.631l0.124,-0.631l0.126,-0.63l0.128,-0.63l0.13,-0.628l0.131,-0.629l0.134,-0.627l0.135,-0.627l0.137,-0.626l0.14,-0.625l0.141,-0.624l0.143,-0.624l0.145,-0.623l0.146,-0.623l0.149,-0.621l0.15,-0.621l0.153,-0.62l0.154,-0.62l0.156,-0.619l0.158,-0.618l0.16,-0.617l0.162,-0.616l0.163,-0.616l0.166,-0.615l0.167,-0.614l0.169,-0.614l0.171,-0.612l0.173,-0.612l0.174,-0.612l0.177,-0.61l0.178,-0.61l0.18,-0.608l0.182,-0.608l0.184,-0.608l0.185,-0.606l0.188,-0.606l0.189,-0.605l0.191,-0.604l0.193,-0.603l0.194,-0.603l0.196,-0.601l0.199,-0.601l0.2,-0.6l0.201,-0.599l0.204,-0.599l0.205,-0.597l0.207,-0.597l0.209,-0.596l0.211,-0.595l0.212,-0.594l0.214,-0.594l0.216,-0.592l0.218,-0.592l0.219,-0.591l0.221,-0.59l0.223,-0.589l0.225,-0.588l0.226,-0.587l0.229,-0.587l0.23,-0.586l0.231,-0.584l0.234,-0.584l0.235,-0.583l0.236,-0.582l0.239,-0.582l0.24,-0.58l0.242,-0.579l0.244,-0.579l0.245,-0.578l0.247,-0.576l0.249,-0.576l0.251,-0.575l0.252,-0.574l0.254,-0.573l0.255,-0.573l0.257,-0.571l0.259,-0.57l0.261,-0.57l0.262,-0.568l0.264,-0.568l0.266,-0.566l0.267,-0.566l0.269,-0.565l0.271,-0.564l0.272,-0.562l0.274,-0.562l0.275,-0.561l0.278,-0.56l0.278,-0.559l0.281,-0.558l0.282,-0.557l0.284,-0.556l0.285,-0.555l0.287,-0.555l0.289,-0.553l0.29,-0.552l0.292,-0.551l0.293,-0.55l0.296,-0.549l0.296,-0.549l0.299,-0.547l0.3,-0.546l0.301,-0.545l0.303,-0.544l0.305,-0.544l0.306,-0.542l0.308,-0.541l0.31,-0.54l0.311,-0.539l0.312,-0.538l0.314,-0.537l0.316,-0.536l0.318,-0.535l0.319,-0.534l0.32,-0.533l0.322,-0.531l0.324,-0.531l0.325,-0.53l0.326,-0.528l0.329,-0.528l0.329,-0.526l0.332,-0.526l0.333,-0.524l0.334,-0.524l0.336,-0.522l0.337,-0.521l0.339,-0.52l0.341,-0.519l0.342,-0.518l0.343,-0.517l0.345,-0.515l0.347,-0.515l0.348,-0.513l0.349,-0.513l0.351,-0.511l0.353,-0.51l0.354,-0.509l0.355,-0.508l0.357,-0.507l0.359,-0.506l0.36,-0.504l0.361,-0.504l0.363,-0.502l0.364,-0.501l0.366,-0.5l0.367,-0.499l0.369,-0.497l0.37,-0.497l0.372,-0.496l0.373,-0.494l0.375,-0.493l0.376,-0.492l0.377,-0.491l0.379,-0.489l0.38,-0.489l0.382,-0.487l0.383,-0.486l0.385,-0.485l0.386,-0.484l0.387,-0.482l0.389,-0.481l0.39,-0.481l0.392,-0.479l0.393,-0.477l0.395,-0.477l0.396,-0.475l0.397,-0.474l0.398,-0.473l0.401,-0.472l0.401,-0.471l0.403,-0.469l0.404,-0.468l0.406,-0.467l0.407,-0.465l0.408,-0.465l0.41,-0.463l0.411,-0.462l0.412,-0.46l0.414,-0.46l0.415,-0.458l0.417,-0.457l0.418,-0.455l0.419,-0.455l0.42,-0.453l0.422,-0.452l0.423,-0.45l0.425,-0.45l0.426,-0.448l0.427,-0.446l0.429,-0.446l0.429,-0.444l0.432,-0.443l0.432,-0.441l0.434,-0.441l0.435,-0.439l0.436,-0.438l0.438,-0.436l0.439,-0.435l0.441,-0.434l0.441,-0.432l0.443,-0.432l0.444,-0.429l0.446,-0.429l0.446,-0.427l0.448,-0.426l0.45,-0.425l0.45,-0.423l0.452,-0.422l0.453,-0.42l0.455,-0.419l0.455,-0.418l0.457,-0.417l0.458,-0.415l0.46,-0.414l0.46,-0.412l0.462,-0.411l0.463,-0.41l0.465,-0.408l0.465,-0.407l0.467,-0.406l0.468,-0.404l0.469,-0.403l0.471,-0.401l0.472,-0.401l0.473,-0.398l0.474,-0.397l0.475,-0.396l0.477,-0.395l0.477,-0.393l0.479,-0.392l0.481,-0.39l0.481,-0.389l0.482,-0.387l0.484,-0.386l0.485,-0.385l0.486,-0.383l0.487,-0.382l0.489,-0.38l0.489,-0.379l0.491,-0.377l0.492,-0.376l0.493,-0.375l0.494,-0.373l0.496,-0.372l0.497,-0.37l0.497,-0.369l0.499,-0.367l0.5,-0.366l0.501,-0.364l0.502,-0.363l0.504,-0.361l0.504,-0.36l0.506,-0.359l0.507,-0.357l0.508,-0.355l0.509,-0.354l0.51,-0.353l0.511,-0.351l0.513,-0.349l0.513,-0.348l0.515,-0.347l0.515,-0.345l0.517,-0.343l0.518,-0.342l0.519,-0.341l0.52,-0.339l0.521,-0.337l0.522,-0.336l0.524,-0.334l0.524,-0.333l0.526,-0.332l0.526,-0.329l0.528,-0.329l0.528,-0.326l0.53,-0.325l0.531,-0.324l0.531,-0.322l0.533,-0.32l0.534,-0.319l0.535,-0.318l0.536,-0.316l0.537,-0.314l0.538,-0.312l0.539,-0.311l0.54,-0.31l0.541,-0.308l0.542,-0.306l0.544,-0.305l0.544,-0.303l0.545,-0.301l0.546,-0.3l0.547,-0.299l0.549,-0.296l0.549,-0.296l0.55,-0.293l0.551,-0.292l0.552,-0.29l0.553,-0.289l0.555,-0.287l0.555,-0.285l0.556,-0.284l0.557,-0.282l0.558,-0.281l0.559,-0.278l0.56,-0.278l0.561,-0.275l0.562,-0.274l0.562,-0.272l0.564,-0.271l0.565,-0.269l0.566,-0.267l0.566,-0.266l0.568,-0.264l0.568,-0.262l0.57,-0.261l0.57,-0.259l0.571,-0.257l0.573,-0.255l0.573,-0.254l0.574,-0.252l0.575,-0.251l0.576,-0.249l0.576,-0.247l0.578,-0.245l0.579,-0.244l0.579,-0.242l0.58,-0.24l0.582,-0.239l0.582,-0.236l0.583,-0.235l0.584,-0.234l0.584,-0.231l0.586,-0.23l0.587,-0.229l0.587,-0.226l0.588,-0.225l0.589,-0.223l0.59,-0.221l0.591,-0.219l0.592,-0.218l0.592,-0.216l0.594,-0.214l0.594,-0.212l0.595,-0.211l0.596,-0.209l0.597,-0.207l0.597,-0.205l0.599,-0.204l0.599,-0.201l0.6,-0.2l0.601,-0.199l0.601,-0.196l0.603,-0.194l0.603,-0.193l0.604,-0.191l0.605,-0.189l0.606,-0.188l0.606,-0.185l0.608,-0.184l0.608,-0.182l0.608,-0.18l0.61,-0.178l0.61,-0.177l0.612,-0.174l0.612,-0.173l0.612,-0.171l0.614,-0.169l0.614,-0.167l0.615,-0.166l0.616,-0.163l0.616,-0.162l0.617,-0.16l0.618,-0.158l0.619,-0.156l0.62,-0.154l0.62,-0.153l0.621,-0.15l0.621,-0.149l0.623,-0.146l0.623,-0.145l0.624,-0.143l0.624,-0.141l0.625,-0.14l0.626,-0.137l0.627,-0.135l0.627,-0.134l0.629,-0.131l0.628,-0.13l0.63,-0.128l0.63,-0.126l0.631,-0.124l0.631,-0.122l0.633,-0.12l0.632,-0.118l0.634,-0.116l0.634,-0.115l0.635,-0.112l0.636,-0.11l0.636,-0.109l0.637,-0.106l0.637,-0.105l0.638,-0.103l0.639,-0.1l0.64,-0.099l0.64,-0.097l0.64,-0.095l0.642,-0.092l0.642,-0.091l0.642,-0.089l0.644,-0.087l0.644,-0.085l0.644,-0.083l0.645,-0.081l0.646,-0.079l0.646,-0.077l0.647,-0.075l0.648,-0.073l0.648,-0.071l0.649,-0.069l0.649,-0.067l0.65,-0.065l0.65,-0.063l0.651,-0.061l0.652,-0.059l0.652,-0.057l0.653,-0.054l0.653,-0.053l0.654,-0.051l0.655,-0.049l0.655,-0.047l0.655,-0.044l0.656,-0.043l0.657,-0.04l0.657,-0.039l0.658,-0.036l0.658,-0.035l0.659,-0.032l0.659,-0.03l0.66,-0.029l0.661,-0.026l0.661,-0.024l0.661,-0.022l0.662,-0.02l0.662,-0.018l0.663,-0.015l0.664,-0.014l0.664,-0.012l0.664,-0.009l0.665,-0.007l0.666,-0.006l0.666,-0.003l0.666,-0.001l0.666,0.001l0.666,0.003l0.666,0.006l0.665,0.007l0.664,0.009l0.664,0.012l0.664,0.014l0.663,0.015l0.662,0.018l0.662,0.02l0.661,0.022l0.661,0.024l0.661,0.026l0.66,0.029l0.659,0.03l0.659,0.032l0.658,0.035l0.658,0.036l0.657,0.039l0.657,0.04l0.656,0.043l0.655,0.044l0.655,0.047l0.655,0.049l0.654,0.051l0.653,0.053l0.653,0.054l0.652,0.057l0.652,0.059l0.651,0.061l0.65,0.063l0.65,0.065l0.65,0.067l0.648,0.069l0.648,0.071l0.648,0.073l0.647,0.075l0.646,0.077l0.646,0.079l0.645,0.081l0.644,0.083l0.644,0.085l0.644,0.087l0.642,0.089l0.642,0.091l0.642,0.092l0.64,0.095l0.64,0.097l0.64,0.099l0.639,0.1l0.638,0.103l0.637,0.105l0.637,0.106l0.636,0.109l0.636,0.11l0.635,0.112l0.634,0.115l0.634,0.116l0.632,0.118l0.633,0.12l0.631,0.122l0.631,0.124l0.63,0.126l0.63,0.128l0.628,0.13l0.629,0.131l0.627,0.134l0.627,0.135l0.626,0.137l0.625,0.14l0.624,0.141l0.624,0.143l0.623,0.145l0.623,0.146l0.621,0.149l0.621,0.15l0.62,0.153l0.62,0.154l0.619,0.156l0.618,0.158l0.617,0.16l0.616,0.162l0.616,0.163l0.615,0.166l0.614,0.167l0.614,0.169l0.613,0.171l0.611,0.173l0.612,0.174l0.61,0.177l0.61,0.178l0.608,0.18l0.608,0.182l0.608,0.184l0.606,0.185l0.606,0.188l0.605,0.189l0.604,0.191l0.603,0.193l0.603,0.194l0.601,0.196l0.601,0.199l0.6,0.2l0.599,0.201l0.599,0.204l0.597,0.205l0.597,0.207l0.596,0.209l0.595,0.211l0.594,0.212l0.594,0.214l0.592,0.216l0.592,0.218l0.591,0.219l0.59,0.221l0.589,0.223l0.588,0.225l0.587,0.227l0.587,0.228l0.585,0.23l0.585,0.231l0.584,0.234l0.583,0.235l0.582,0.236l0.582,0.239l0.58,0.24l0.579,0.242l0.579,0.244l0.578,0.245l0.576,0.247l0.576,0.249l0.575,0.251l0.574,0.252l0.573,0.254l0.573,0.255l0.571,0.257l0.57,0.259l0.57,0.261l0.568,0.262l0.568,0.264l0.566,0.266l0.566,0.267l0.565,0.269l0.564,0.271l0.562,0.272l0.562,0.274l0.561,0.275l0.56,0.278l0.559,0.278l0.558,0.281l0.557,0.282l0.556,0.284l0.555,0.285l0.555,0.287l0.553,0.289l0.552,0.29l0.551,0.292l0.55,0.293l0.549,0.296l0.549,0.296l0.547,0.299l0.546,0.3l0.545,0.301l0.544,0.303l0.544,0.305l0.542,0.306l0.541,0.308l0.54,0.31l0.539,0.311l0.538,0.312l0.537,0.314l0.536,0.316l0.535,0.318l0.534,0.319l0.533,0.32l0.531,0.322l0.531,0.324l0.53,0.325l0.528,0.326l0.528,0.329l0.527,0.329l0.525,0.332l0.524,0.333l0.524,0.334l0.522,0.336l0.521,0.337l0.52,0.339l0.519,0.341l0.518,0.342l0.517,0.343l0.515,0.345l0.515,0.347l0.513,0.348l0.513,0.349l0.511,0.351l0.51,0.353l0.509,0.354l0.508,0.355l0.507,0.357l0.506,0.359l0.504,0.36l0.503,0.361l0.503,0.363l0.501,0.364l0.5,0.366l0.499,0.367l0.497,0.369l0.497,0.37l0.495,0.372l0.495,0.373l0.493,0.375l0.492,0.376l0.491,0.377l0.489,0.379l0.489,0.38l0.487,0.382l0.486,0.383l0.485,0.385l0.484,0.386l0.482,0.387l0.481,0.389l0.481,0.39l0.479,0.392l0.477,0.393l0.477,0.395l0.475,0.396l0.474,0.397l0.473,0.399l0.472,0.4l0.47,0.401l0.47,0.403l0.468,0.404l0.467,0.406l0.465,0.407l0.465,0.408l0.463,0.41l0.462,0.411l0.46,0.412l0.46,0.414l0.458,0.415l0.457,0.417l0.455,0.417l0.455,0.42l0.453,0.42l0.452,0.422l0.45,0.423l0.449,0.425l0.449,0.426l0.446,0.427l0.446,0.429l0.444,0.429l0.443,0.432l0.442,0.432l0.44,0.434l0.439,0.435l0.437,0.436l0.437,0.438l0.435,0.439l0.434,0.441l0.432,0.441l0.432,0.443l0.429,0.444l0.429,0.446l0.427,0.446l0.426,0.448l0.425,0.45l0.423,0.45l0.422,0.452l0.42,0.453l0.419,0.455l0.418,0.455l0.417,0.457l0.415,0.458l0.414,0.46l0.412,0.46l0.411,0.462l0.41,0.463l0.408,0.465l0.407,0.465l0.406,0.467l0.404,0.468l0.403,0.469l0.401,0.471l0.401,0.472l0.398,0.473l0.397,0.474l0.396,0.475l0.395,0.477l0.393,0.477l0.392,0.479l0.39,0.48l0.389,0.482l0.387,0.482l0.386,0.484l0.385,0.485l0.383,0.486l0.382,0.487l0.38,0.489l0.379,0.489l0.377,0.491l0.376,0.492l0.375,0.493l0.373,0.494l0.372,0.496l0.37,0.496l0.369,0.498l0.367,0.499l0.366,0.5l0.364,0.501l0.363,0.503l0.361,0.503l0.36,0.504l0.359,0.506l0.357,0.507l0.355,0.508l0.354,0.509l0.353,0.51l0.351,0.511l0.349,0.513l0.348,0.513l0.347,0.515l0.345,0.515l0.343,0.517l0.342,0.518l0.341,0.519l0.339,0.52l0.337,0.521l0.336,0.522l0.334,0.524l0.333,0.524l0.332,0.525l0.329,0.527l0.329,0.528l0.326,0.528l0.325,0.53l0.324,0.531l0.322,0.531l0.32,0.533l0.319,0.534l0.318,0.535l0.315,0.536l0.315,0.537l0.312,0.538l0.311,0.539l0.31,0.54l0.308,0.541l0.306,0.542l0.305,0.543l0.303,0.545l0.301,0.545l0.3,0.546l0.299,0.547l0.296,0.548l0.296,0.55l0.293,0.55l0.292,0.551l0.29,0.552l0.289,0.553l0.287,0.554l0.285,0.556l0.284,0.556l0.282,0.557l0.281,0.558l0.278,0.559l0.278,0.56l0.275,0.561l0.274,0.562l0.272,0.562l0.271,0.564l0.269,0.565l0.267,0.566l0.266,0.566l0.264,0.568l0.262,0.568l0.261,0.57l0.259,0.57l0.257,0.571l0.255,0.573l0.254,0.573l0.252,0.574l0.251,0.575l0.249,0.576l0.247,0.576l0.245,0.578l0.244,0.579l0.242,0.579l0.24,0.58l0.239,0.582l0.236,0.582l0.235,0.583l0.234,0.584l0.231,0.584l0.23,0.586l0.228,0.587l0.227,0.587l0.225,0.588l0.223,0.589l0.221,0.59l0.219,0.591l0.218,0.592l0.216,0.592l0.214,0.594l0.212,0.594l0.211,0.595l0.209,0.596l0.207,0.597l0.205,0.597l0.204,0.599l0.201,0.599l0.2,0.6l0.199,0.601l0.196,0.601l0.194,0.603l0.193,0.603l0.191,0.604l0.189,0.605l0.188,0.606l0.185,0.606l0.184,0.607l0.182,0.609l0.18,0.608l0.178,0.61l0.177,0.61l0.174,0.612l0.173,0.611l0.171,0.613l0.169,0.614l0.167,0.614l0.166,0.615l0.163,0.616l0.162,0.616l0.16,0.617l0.158,0.618l0.156,0.619l0.154,0.619l0.153,0.621l0.15,0.621l0.149,0.621l0.146,0.623l0.145,0.623l0.143,0.624l0.141,0.624l0.14,0.626l0.137,0.625l0.135,0.627l0.134,0.627l0.131,0.629l0.13,0.628l0.128,0.63l0.126,0.63l0.124,0.631l0.122,0.631l0.12,0.633l0.118,0.632l0.116,0.634l0.114,0.634l0.113,0.635l0.11,0.636l0.109,0.636l0.106,0.637l0.105,0.637l0.103,0.638l0.1,0.639l0.099,0.64l0.097,0.64l0.095,0.64l0.092,0.642l0.091,0.642l0.089,0.642l0.087,0.644l0.085,0.644l0.083,0.644l0.081,0.645l0.079,0.646l0.077,0.646l0.075,0.647l0.073,0.648l0.071,0.648l0.069,0.648l0.067,0.65l0.065,0.65l0.063,0.65l0.061,0.651l0.059,0.652l0.057,0.652l0.054,0.653l0.053,0.653l0.051,0.654l0.049,0.654l0.047,0.655l0.044,0.656l0.043,0.656l0.04,0.657l0.039,0.657l0.036,0.658l0.035,0.658l0.032,0.659l0.03,0.659l0.029,0.66l0.026,0.661l0.024,0.66l0.022,0.662l0.02,0.662l0,0.016l37.912,0l-0.008,-0.338l-0.022,-0.785l-0.023,-0.784l-0.026,-0.783l-0.029,-0.783l-0.031,-0.783l-0.033,-0.782l-0.036,-0.781l-0.038,-0.78l-0.041,-0.78l-0.043,-0.779l-0.046,-0.779l-0.048,-0.777l-0.051,-0.777l-0.052,-0.777l-0.056,-0.775l-0.058,-0.776l-0.06,-0.774l-0.062,-0.774l-0.065,-0.773l-0.068,-0.772l-0.069,-0.772l-0.072,-0.771l-0.075,-0.77l-0.077,-0.77l-0.079,-0.768l-0.082,-0.768l-0.084,-0.768l-0.086,-0.767l-0.089,-0.765l-0.091,-0.765l-0.094,-0.765l-0.096,-0.764l-0.098,-0.763l-0.1,-0.762l-0.103,-0.762l-0.106,-0.76l-0.107,-0.76l-0.11,-0.76l-0.112,-0.758l-0.115,-0.758l-0.117,-0.757l-0.119,-0.756l-0.121,-0.755l-0.124,-0.755l-0.126,-0.754l-0.129,-0.753l-0.13,-0.752l-0.134,-0.752l-0.135,-0.75l-0.137,-0.75l-0.14,-0.749l-0.142,-0.748l-0.145,-0.748l-0.147,-0.746l-0.149,-0.746l-0.151,-0.745l-0.153,-0.744l-0.156,-0.744l-0.158,-0.742l-0.16,-0.742l-0.163,-0.741l-0.164,-0.739l-0.167,-0.74l-0.17,-0.738l-0.171,-0.737l-0.174,-0.737l-0.176,-0.736l-0.178,-0.734l-0.18,-0.734l-0.183,-0.733l-0.184,-0.733l-0.187,-0.731l-0.189,-0.73l-0.192,-0.73l-0.193,-0.728l-0.196,-0.728l-0.198,-0.727l-0.2,-0.726l-0.202,-0.725l-0.205,-0.724l-0.206,-0.723l-0.209,-0.723l-0.211,-0.721l-0.213,-0.721l-0.215,-0.719l-0.218,-0.719l-0.219,-0.717l-0.222,-0.717l-0.224,-0.716l-0.226,-0.715l-0.228,-0.714l-0.23,-0.712l-0.233,-0.713l-0.234,-0.711l-0.237,-0.71l-0.239,-0.709l-0.24,-0.708l-0.243,-0.707l-0.245,-0.706l-0.248,-0.705l-0.249,-0.705l-0.251,-0.703l-0.254,-0.702l-0.255,-0.701l-0.258,-0.7l-0.259,-0.699l-0.262,-0.698l-0.264,-0.698l-0.266,-0.696l-0.268,-0.695l-0.27,-0.694l-0.272,-0.693l-0.274,-0.692l-0.276,-0.691l-0.278,-0.69l-0.281,-0.689l-0.282,-0.688l-0.284,-0.687l-0.286,-0.685l-0.289,-0.685l-0.29,-0.684l-0.293,-0.682l-0.294,-0.682l-0.297,-0.68l-0.298,-0.68l-0.3,-0.678l-0.303,-0.677l-0.304,-0.676l-0.307,-0.675l-0.308,-0.674l-0.311,-0.673l-0.312,-0.672l-0.314,-0.67l-0.317,-0.67l-0.318,-0.668l-0.32,-0.668l-0.323,-0.666l-0.324,-0.665l-0.326,-0.664l-0.328,-0.662l-0.33,-0.662l-0.332,-0.661l-0.334,-0.659l-0.336,-0.658l-0.338,-0.657l-0.339,-0.656l-0.342,-0.655l-0.344,-0.653l-0.345,-0.653l-0.348,-0.651l-0.349,-0.65l-0.351,-0.649l-0.353,-0.648l-0.355,-0.646l-0.357,-0.646l-0.359,-0.644l-0.361,-0.643l-0.362,-0.642l-0.365,-0.64l-0.366,-0.639l-0.368,-0.638l-0.37,-0.638l-0.372,-0.635l-0.374,-0.635l-0.376,-0.633l-0.377,-0.632l-0.38,-0.631l-0.381,-0.629l-0.383,-0.629l-0.385,-0.627l-0.387,-0.626l-0.388,-0.624l-0.391,-0.623l-0.392,-0.622l-0.394,-0.621l-0.396,-0.62l-0.398,-0.618l-0.399,-0.617l-0.401,-0.616l-0.403,-0.614l-0.405,-0.613l-0.407,-0.612l-0.409,-0.611l-0.41,-0.609l-0.412,-0.608l-0.414,-0.606l-0.415,-0.606l-0.418,-0.604l-0.419,-0.603l-0.421,-0.601l-0.422,-0.6l-0.425,-0.599l-0.426,-0.597l-0.428,-0.596l-0.43,-0.595l-0.431,-0.593l-0.433,-0.592l-0.435,-0.591l-0.437,-0.589l-0.438,-0.588l-0.44,-0.587l-0.442,-0.585l-0.443,-0.584l-0.446,-0.583l-0.447,-0.581l-0.448,-0.579l-0.451,-0.579l-0.452,-0.577l-0.453,-0.575l-0.456,-0.575l-0.457,-0.572l-0.459,-0.572l-0.46,-0.57l-0.462,-0.568l-0.464,-0.568l-0.466,-0.565l-0.467,-0.565l-0.468,-0.562l-0.471,-0.562l-0.472,-0.56l-0.474,-0.559l-0.475,-0.557l-0.477,-0.555l-0.479,-0.555l-0.48,-0.553l-0.482,-0.551l-0.484,-0.55l-0.485,-0.548l-0.487,-0.547l-0.488,-0.546l-0.49,-0.544l-0.492,-0.542l-0.493,-0.541l-0.495,-0.54l-0.496,-0.538l-0.498,-0.536l-0.5,-0.536l-0.501,-0.533l-0.503,-0.532l-0.504,-0.531l-0.506,-0.529l-0.508,-0.527l-0.509,-0.527l-0.51,-0.524l-0.512,-0.523l-0.514,-0.521l-0.515,-0.52l-0.517,-0.519l-0.519,-0.517l-0.52,-0.515l-0.521,-0.514l-0.523,-0.512l-0.525,-0.51l-0.526,-0.509l-0.527,-0.508l-0.529,-0.506l-0.531,-0.504l-0.532,-0.503l-0.533,-0.501l-0.536,-0.5l-0.536,-0.498l-0.538,-0.496l-0.54,-0.495l-0.541,-0.493l-0.542,-0.492l-0.544,-0.49l-0.546,-0.488l-0.547,-0.487l-0.548,-0.485l-0.55,-0.484l-0.551,-0.482l-0.553,-0.48l-0.555,-0.479l-0.555,-0.477l-0.557,-0.475l-0.559,-0.474l-0.56,-0.472l-0.562,-0.471l-0.562,-0.468l-0.565,-0.468l-0.566,-0.465l-0.567,-0.464l-0.568,-0.462l-0.57,-0.46l-0.572,-0.459l-0.572,-0.457l-0.575,-0.456l-0.575,-0.453l-0.577,-0.452l-0.579,-0.451l-0.579,-0.448l-0.581,-0.447l-0.583,-0.446l-0.584,-0.443l-0.585,-0.442l-0.587,-0.44l-0.588,-0.438l-0.589,-0.437l-0.591,-0.435l-0.592,-0.433l-0.593,-0.431l-0.595,-0.43l-0.596,-0.428l-0.597,-0.426l-0.599,-0.425l-0.6,-0.422l-0.601,-0.421l-0.603,-0.419l-0.604,-0.418l-0.606,-0.415l-0.606,-0.414l-0.608,-0.412l-0.609,-0.411l-0.611,-0.408l-0.612,-0.407l-0.613,-0.405l-0.614,-0.403l-0.616,-0.401l-0.617,-0.399l-0.618,-0.398l-0.62,-0.396l-0.621,-0.394l-0.622,-0.392l-0.623,-0.391l-0.625,-0.388l-0.625,-0.387l-0.627,-0.385l-0.629,-0.383l-0.629,-0.381l-0.631,-0.38l-0.632,-0.377l-0.633,-0.376l-0.635,-0.374l-0.635,-0.372l-0.637,-0.37l-0.639,-0.368l-0.639,-0.366l-0.64,-0.365l-0.642,-0.362l-0.643,-0.361l-0.644,-0.359l-0.646,-0.357l-0.646,-0.355l-0.648,-0.353l-0.649,-0.351l-0.65,-0.349l-0.651,-0.348l-0.653,-0.345l-0.653,-0.344l-0.655,-0.342l-0.656,-0.339l-0.657,-0.338l-0.658,-0.336l-0.659,-0.334l-0.661,-0.332l-0.662,-0.33l-0.662,-0.328l-0.664,-0.326l-0.665,-0.324l-0.666,-0.323l-0.668,-0.32l-0.668,-0.318l-0.67,-0.317l-0.67,-0.314l-0.672,-0.312l-0.673,-0.311l-0.674,-0.308l-0.675,-0.307l-0.676,-0.304l-0.677,-0.303l-0.678,-0.3l-0.68,-0.298l-0.68,-0.297l-0.682,-0.294l-0.682,-0.293l-0.684,-0.29l-0.685,-0.289l-0.685,-0.286l-0.687,-0.284l-0.688,-0.282l-0.689,-0.281l-0.69,-0.278l-0.691,-0.276l-0.692,-0.274l-0.693,-0.272l-0.694,-0.27l-0.695,-0.268l-0.696,-0.266l-0.698,-0.264l-0.698,-0.262l-0.699,-0.259l-0.7,-0.258l-0.701,-0.255l-0.702,-0.254l-0.704,-0.251l-0.704,-0.249l-0.705,-0.248l-0.706,-0.245l-0.707,-0.243l-0.708,-0.24l-0.709,-0.239l-0.71,-0.237l-0.711,-0.234l-0.712,-0.233l-0.713,-0.23l-0.714,-0.228l-0.715,-0.226l-0.716,-0.224l-0.717,-0.222l-0.717,-0.219l-0.719,-0.218l-0.719,-0.215l-0.721,-0.213l-0.721,-0.211l-0.723,-0.209l-0.723,-0.206l-0.724,-0.205l-0.725,-0.202l-0.726,-0.2l-0.727,-0.198l-0.727,-0.196l-0.729,-0.193l-0.73,-0.192l-0.73,-0.189l-0.731,-0.187l-0.733,-0.184l-0.733,-0.183l-0.734,-0.18l-0.734,-0.178l-0.736,-0.176l-0.737,-0.174l-0.737,-0.171l-0.738,-0.17l-0.74,-0.167l-0.739,-0.164l-0.741,-0.163l-0.742,-0.16l-0.742,-0.158l-0.744,-0.156l-0.744,-0.153l-0.745,-0.151l-0.746,-0.149l-0.746,-0.147l-0.748,-0.145l-0.748,-0.142l-0.749,-0.14l-0.75,-0.137l-0.751,-0.135l-0.751,-0.133l-0.752,-0.131l-0.753,-0.129l-0.754,-0.126l-0.755,-0.124l-0.755,-0.121l-0.756,-0.119l-0.757,-0.117l-0.758,-0.115l-0.758,-0.112l-0.76,-0.11l-0.76,-0.107l-0.76,-0.106l-0.762,-0.103l-0.762,-0.1l-0.763,-0.098l-0.764,-0.096l-0.764,-0.094l-0.766,-0.091l-0.766,-0.089l-0.766,-0.086l-0.768,-0.084l-0.768,-0.082l-0.769,-0.079l-0.769,-0.077l-0.77,-0.075l-0.771,-0.072l-0.772,-0.069l-0.772,-0.068l-0.773,-0.065l-0.774,-0.062l-0.774,-0.06l-0.775,-0.058l-0.776,-0.056l-0.777,-0.052l-0.777,-0.051l-0.778,-0.048l-0.778,-0.046l-0.779,-0.043l-0.78,-0.041l-0.78,-0.038l-0.781,-0.036l-0.782,-0.033l-0.783,-0.031l-0.783,-0.029l-0.783,-0.026l-0.784,-0.023l-0.785,-0.022l-0.786,-0.018l-0.786,-0.016l-0.787,-0.014l-0.787,-0.011l-0.788,-0.009l-0.789,-0.006l-0.789,-0.004l-0.79,-0.001l-0.79,0.001Z"/><path d="M545.374,341.527l-0.118,0.708l-0.12,0.707l-0.121,0.706l-0.124,0.706l-0.125,0.705l-0.128,0.705l-0.129,0.703l-0.131,0.703l-0.133,0.702l-0.135,0.701l-0.137,0.701l-0.139,0.699l-0.141,0.699l-0.142,0.699l-0.145,0.697l-0.146,0.697l-0.148,0.696l-0.15,0.695l-0.152,0.694l-0.154,0.694l-0.156,0.692l-0.158,0.692l-0.159,0.691l-0.162,0.691l-0.163,0.689l-0.165,0.689l-0.167,0.688l-0.169,0.687l-0.171,0.687l-0.172,0.685l-0.174,0.685l-0.177,0.684l-0.178,0.683l-0.18,0.682l-0.181,0.682l-0.184,0.68l-0.185,0.68l-0.187,0.679l-0.189,0.678l-0.191,0.677l-0.193,0.677l-0.194,0.675l-0.197,0.675l-0.198,0.674l-0.2,0.673l-0.201,0.672l-0.204,0.672l-0.205,0.67l-0.207,0.67l-0.209,0.669l-0.211,0.668l-0.212,0.667l-0.214,0.666l-0.216,0.665l-0.218,0.665l-0.22,0.663l-0.221,0.663l-0.223,0.662l-0.225,0.66l-0.226,0.66l-0.229,0.66l-0.23,0.658l-0.232,0.657l-0.233,0.657l-0.236,0.655l-0.237,0.655l-0.239,0.654l-0.24,0.652l-0.242,0.652l-0.244,0.651l-0.246,0.65l-0.248,0.65l-0.249,0.648l-0.251,0.647l-0.252,0.647l-0.255,0.645l-0.256,0.645l-0.257,0.643l-0.26,0.643l-0.261,0.642l-0.263,0.64l-0.264,0.64l-0.266,0.639l-0.268,0.638l-0.27,0.637l-0.271,0.636l-0.273,0.635l-0.275,0.635l-0.276,0.633l-0.278,0.632l-0.28,0.631l-0.281,0.631l-0.283,0.629l-0.285,0.628l-0.286,0.628l-0.288,0.626l-0.289,0.625l-0.292,0.625l-0.292,0.623l-0.295,0.623l-0.296,0.621l-0.298,0.621l-0.299,0.619l-0.301,0.619l-0.303,0.617l-0.304,0.616l-0.306,0.616l-0.308,0.614l-0.309,0.614l-0.31,0.612l-0.313,0.612l-0.314,0.61l-0.315,0.609l-0.317,0.609l-0.319,0.607l-0.32,0.606l-0.322,0.606l-0.324,0.604l-0.325,0.603l-0.327,0.602l-0.328,0.601l-0.33,0.6l-0.331,0.599l-0.333,0.598l-0.335,0.597l-0.336,0.596l-0.337,0.595l-0.339,0.593l-0.341,0.593l-0.343,0.592l-0.343,0.59l-0.346,0.59l-0.347,0.588l-0.348,0.587l-0.35,0.587l-0.352,0.585l-0.353,0.584l-0.354,0.583l-0.357,0.582l-0.357,0.581l-0.359,0.579l-0.361,0.579l-0.362,0.577l-0.364,0.577l-0.365,0.575l-0.367,0.574l-0.368,0.574l-0.37,0.572l-0.371,0.57l-0.373,0.57l-0.374,0.569l-0.375,0.567l-0.378,0.567l-0.378,0.565l-0.38,0.564l-0.382,0.563l-0.383,0.562l-0.384,0.561l-0.386,0.559l-0.388,0.559l-0.389,0.557l-0.39,0.556l-0.392,0.556l-0.393,0.553l-0.395,0.553l-0.396,0.552l-0.398,0.55l-0.399,0.549l-0.4,0.548l-0.402,0.547l-0.403,0.546l-0.405,0.545l-0.406,0.543l-0.408,0.542l-0.409,0.541l-0.41,0.54l-0.412,0.539l-0.413,0.537l-0.415,0.537l-0.416,0.535l-0.417,0.534l-0.419,0.532l-0.42,0.532l-0.422,0.53l-0.423,0.529l-0.424,0.528l-0.426,0.527l-0.427,0.526l-0.429,0.524l-0.43,0.523l-0.431,0.522l-0.432,0.52l-0.434,0.52l-0.436,0.518l-0.436,0.517l-0.438,0.515l-0.44,0.515l-0.441,0.513l-0.442,0.512l-0.443,0.511l-0.445,0.509l-0.446,0.509l-0.447,0.507l-0.449,0.505l-0.45,0.505l-0.452,0.503l-0.453,0.502l-0.454,0.501l-0.455,0.499l-0.457,0.498l-0.458,0.497l-0.459,0.496l-0.461,0.494l-0.462,0.493l-0.463,0.492l-0.464,0.491l-0.466,0.489l-0.467,0.488l-0.468,0.486l-0.47,0.486l-0.471,0.484l-0.472,0.483l-0.474,0.481l-0.474,0.48l-0.477,0.479l-0.477,0.478l-0.478,0.476l-0.48,0.475l-0.481,0.473l-0.483,0.473l-0.483,0.47l-0.485,0.47l-0.486,0.468l-0.487,0.467l-0.489,0.466l-0.49,0.464l-0.491,0.463l-0.492,0.462l-0.493,0.46l-0.495,0.459l-0.496,0.458l-0.497,0.456l-0.498,0.455l-0.5,0.453l-0.501,0.453l-0.501,0.45l-0.504,0.45l-0.504,0.448l-0.506,0.447l-0.506,0.445l-0.508,0.444l-0.509,0.443l-0.511,0.441l-0.511,0.44l-0.513,0.438l-0.514,0.437l-0.515,0.436l-0.516,0.434l-0.517,0.433l-0.519,0.432l-0.519,0.43l-0.521,0.429l-0.522,0.427l-0.523,0.426l-0.525,0.424l-0.525,0.424l-0.527,0.421l-0.527,0.421l-0.529,0.418l-0.53,0.418l-0.531,0.416l-0.532,0.414l-0.534,0.414l-0.534,0.411l-0.536,0.411l-0.537,0.408l-0.537,0.408l-0.539,0.406l-0.54,0.404l-0.542,0.403l-0.542,0.402l-0.543,0.4l-0.545,0.399l-0.545,0.397l-0.547,0.396l-0.547,0.394l-0.549,0.393l-0.55,0.392l-0.551,0.39l-0.552,0.388l-0.553,0.387l-0.554,0.386l-0.556,0.384l-0.556,0.382l-0.557,0.381l-0.559,0.38l-0.559,0.378l-0.561,0.377l-0.561,0.375l-0.563,0.374l-0.563,0.372l-0.565,0.37l-0.566,0.369l-0.567,0.368l-0.567,0.366l-0.569,0.365l-0.57,0.363l-0.571,0.361l-0.572,0.361l-0.573,0.358l-0.574,0.357l-0.574,0.356l-0.576,0.353l-0.577,0.353l-0.578,0.351l-0.579,0.349l-0.58,0.348l-0.581,0.346l-0.582,0.345l-0.583,0.343l-0.583,0.342l-0.585,0.34l-0.586,0.338l-0.587,0.337l-0.588,0.336l-0.588,0.333l-0.59,0.333l-0.591,0.33l-0.591,0.329l-0.593,0.328l-0.593,0.326l-0.595,0.324l-0.595,0.323l-0.596,0.321l-0.598,0.32l-0.598,0.318l-0.599,0.317l-0.6,0.315l-0.601,0.313l-0.602,0.311l-0.603,0.311l-0.604,0.308l-0.604,0.307l-0.606,0.305l-0.606,0.304l-0.608,0.302l-0.608,0.3l-0.609,0.299l-0.611,0.297l-0.611,0.296l-0.612,0.294l-0.612,0.292l-0.614,0.291l-0.615,0.289l-0.615,0.287l-0.616,0.286l-0.618,0.284l-0.618,0.283l-0.619,0.28l-0.619,0.28l-0.621,0.277l-0.622,0.276l-0.622,0.274l-0.623,0.273l-0.624,0.271l-0.625,0.269l-0.626,0.267l-0.627,0.266l-0.627,0.265l-0.628,0.262l-0.63,0.261l-0.63,0.259l-0.63,0.258l-0.632,0.255l-0.632,0.255l-0.634,0.252l-0.634,0.251l-0.635,0.249l-0.635,0.247l-0.637,0.246l-0.637,0.244l-0.638,0.242l-0.639,0.241l-0.64,0.239l-0.64,0.237l-0.642,0.235l-0.642,0.234l-0.642,0.232l-0.644,0.23l-0.645,0.229l-0.645,0.226l-0.646,0.225l-0.646,0.224l-0.648,0.221l-0.648,0.22l-0.649,0.218l-0.65,0.217l-0.65,0.214l-0.652,0.213l-0.652,0.211l-0.652,0.21l-0.654,0.207l-0.654,0.206l-0.655,0.204l-0.656,0.203l-0.656,0.2l-0.657,0.199l-0.658,0.197l-0.659,0.195l-0.659,0.194l-0.66,0.192l-0.661,0.189l-0.661,0.189l-0.662,0.186l-0.663,0.185l-0.664,0.182l-0.664,0.181l-0.665,0.179l-0.665,0.178l-0.667,0.175l-0.667,0.174l-0.667,0.172l-0.669,0.17l-0.669,0.169l-0.669,0.166l-0.671,0.165l-0.671,0.163l-0.671,0.161l-0.673,0.159l-0.673,0.158l-0.673,0.155l-0.675,0.154l-0.675,0.152l-0.675,0.15l-0.677,0.148l-0.676,0.147l-0.678,0.144l-0.678,0.143l-0.679,0.141l-0.679,0.139l-0.68,0.137l-0.681,0.135l-0.681,0.134l-0.682,0.131l-0.683,0.13l-0.683,0.128l-0.684,0.126l-0.684,0.124l-0.685,0.122l-0.685,0.121l-0.686,0.118l-0.687,0.117l-0.687,0.114l-0.688,0.113l-0.689,0.111l-0.689,0.109l-0.689,0.107l-0.691,0.106l-0.69,0.103l-0.692,0.101l-0.692,0.1l-0.692,0.098l-0.693,0.095l-0.694,0.094l-0.694,0.092l-0.695,0.09l-0.695,0.088l-0.696,0.086l-0.696,0.084l-0.697,0.083l-0.697,0.08l-0.698,0.078l-0.699,0.077l-0.699,0.074l-0.699,0.073l-0.7,0.071l-0.701,0.068l-0.701,0.067l-0.701,0.065l-0.702,0.063l-0.703,0.061l-0.703,0.059l-0.704,0.057l-0.704,0.055l-0.704,0.053l-0.705,0.051l-0.706,0.049l-0.706,0.047l-0.706,0.045l-0.707,0.043l-0.708,0.041l-0.708,0.04l-0.708,0.037l-0.709,0.035l-0.709,0.033l-0.71,0.031l-0.71,0.03l-0.711,0.027l-0.711,0.025l-0.712,0.023l-0.712,0.022l-0.712,0.019l-0.713,0.017l-0.714,0.015l-0.714,0.013l-0.714,0.012l-0.715,0.009l-0.715,0.007l-0.715,0.005l-0.716,0.003l-0.716,0.001l-0.717,-0.001l-0.716,-0.003l-0.715,-0.005l-0.715,-0.007l-0.715,-0.009l-0.714,-0.012l-0.714,-0.013l-0.713,-0.015l-0.713,-0.017l-0.713,-0.019l-0.712,-0.022l-0.712,-0.023l-0.711,-0.025l-0.71,-0.027l-0.711,-0.03l-0.709,-0.031l-0.71,-0.033l-0.709,-0.035l-0.708,-0.037l-0.708,-0.04l-0.708,-0.041l-0.707,-0.043l-0.706,-0.045l-0.706,-0.047l-0.706,-0.049l-0.705,-0.051l-0.704,-0.053l-0.704,-0.055l-0.704,-0.057l-0.703,-0.059l-0.703,-0.061l-0.702,-0.063l-0.701,-0.065l-0.701,-0.067l-0.701,-0.068l-0.7,-0.071l-0.699,-0.073l-0.699,-0.074l-0.699,-0.077l-0.698,-0.078l-0.697,-0.08l-0.697,-0.083l-0.696,-0.084l-0.696,-0.086l-0.695,-0.088l-0.695,-0.09l-0.694,-0.092l-0.694,-0.094l-0.693,-0.095l-0.692,-0.098l-0.692,-0.1l-0.691,-0.101l-0.691,-0.103l-0.69,-0.106l-0.69,-0.107l-0.689,-0.109l-0.688,-0.111l-0.688,-0.113l-0.688,-0.114l-0.686,-0.117l-0.687,-0.118l-0.685,-0.121l-0.685,-0.122l-0.684,-0.124l-0.684,-0.126l-0.683,-0.128l-0.683,-0.13l-0.682,-0.131l-0.681,-0.134l-0.68,-0.135l-0.681,-0.137l-0.679,-0.139l-0.679,-0.141l-0.678,-0.143l-0.677,-0.144l-0.677,-0.147l-0.677,-0.148l-0.675,-0.15l-0.675,-0.152l-0.674,-0.154l-0.674,-0.155l-0.673,-0.158l-0.672,-0.159l-0.672,-0.161l-0.671,-0.163l-0.671,-0.165l-0.669,-0.166l-0.669,-0.169l-0.669,-0.17l-0.667,-0.172l-0.667,-0.174l-0.667,-0.175l-0.665,-0.178l-0.665,-0.179l-0.664,-0.181l-0.664,-0.182l-0.663,-0.185l-0.662,-0.186l-0.661,-0.189l-0.661,-0.189l-0.66,-0.192l-0.659,-0.194l-0.659,-0.195l-0.658,-0.197l-0.657,-0.199l-0.656,-0.2l-0.656,-0.203l-0.655,-0.204l-0.654,-0.206l-0.654,-0.207l-0.652,-0.21l-0.652,-0.211l-0.652,-0.213l-0.65,-0.214l-0.65,-0.217l-0.649,-0.218l-0.648,-0.22l-0.648,-0.221l-0.646,-0.224l-0.646,-0.225l-0.645,-0.226l-0.645,-0.229l-0.643,-0.23l-0.643,-0.232l-0.642,-0.234l-0.642,-0.235l-0.64,-0.237l-0.64,-0.239l-0.639,-0.241l-0.638,-0.242l-0.637,-0.244l-0.636,-0.246l-0.636,-0.247l-0.635,-0.249l-0.634,-0.251l-0.633,-0.252l-0.633,-0.255l-0.631,-0.255l-0.631,-0.258l-0.63,-0.259l-0.629,-0.261l-0.629,-0.262l-0.627,-0.265l-0.627,-0.266l-0.626,-0.267l-0.624,-0.269l-0.625,-0.271l-0.623,-0.273l-0.622,-0.274l-0.622,-0.276l-0.62,-0.277l-0.62,-0.28l-0.619,-0.28l-0.618,-0.283l-0.617,-0.284l-0.617,-0.286l-0.615,-0.287l-0.615,-0.289l-0.614,-0.291l-0.612,-0.292l-0.612,-0.294l-0.611,-0.296l-0.61,-0.297l-0.61,-0.299l-0.608,-0.3l-0.607,-0.302l-0.607,-0.304l-0.605,-0.305l-0.605,-0.307l-0.604,-0.308l-0.603,-0.311l-0.602,-0.311l-0.601,-0.313l-0.6,-0.315l-0.599,-0.317l-0.598,-0.318l-0.597,-0.32l-0.597,-0.321l-0.595,-0.323l-0.595,-0.324l-0.593,-0.326l-0.593,-0.328l-0.591,-0.329l-0.591,-0.33l-0.59,-0.333l-0.588,-0.333l-0.588,-0.336l-0.587,-0.337l-0.586,-0.338l-0.584,-0.34l-0.584,-0.342l-0.583,-0.343l-0.582,-0.345l-0.581,-0.346l-0.58,-0.348l-0.579,-0.349l-0.578,-0.351l-0.577,-0.353l-0.575,-0.353l-0.575,-0.356l-0.574,-0.357l-0.573,-0.358l-0.572,-0.361l-0.571,-0.361l-0.57,-0.363l-0.568,-0.365l-0.568,-0.366l-0.567,-0.368l-0.566,-0.369l-0.564,-0.37l-0.564,-0.372l-0.563,-0.374l-0.561,-0.375l-0.561,-0.377l-0.559,-0.378l-0.559,-0.38l-0.557,-0.381l-0.556,-0.382l-0.555,-0.384l-0.555,-0.386l-0.553,-0.387l-0.552,-0.388l-0.551,-0.39l-0.55,-0.392l-0.548,-0.393l-0.548,-0.394l-0.547,-0.396l-0.545,-0.397l-0.545,-0.399l-0.543,-0.4l-0.542,-0.402l-0.541,-0.403l-0.54,-0.404l-0.539,-0.406l-0.538,-0.408l-0.537,-0.408l-0.536,-0.411l-0.534,-0.411l-0.533,-0.414l-0.533,-0.414l-0.531,-0.416l-0.53,-0.418l-0.529,-0.418l-0.527,-0.421l-0.527,-0.421l-0.525,-0.424l-0.525,-0.424l-0.523,-0.426l-0.522,-0.427l-0.521,-0.429l-0.519,-0.43l-0.519,-0.432l-0.517,-0.433l-0.516,-0.434l-0.515,-0.436l-0.514,-0.437l-0.513,-0.438l-0.511,-0.44l-0.511,-0.441l-0.509,-0.443l-0.508,-0.444l-0.506,-0.445l-0.506,-0.447l-0.504,-0.448l-0.503,-0.45l-0.502,-0.45l-0.501,-0.453l-0.5,-0.453l-0.498,-0.455l-0.497,-0.456l-0.496,-0.458l-0.495,-0.459l-0.493,-0.46l-0.492,-0.462l-0.491,-0.463l-0.49,-0.464l-0.489,-0.466l-0.487,-0.467l-0.486,-0.468l-0.485,-0.47l-0.483,-0.47l-0.483,-0.473l-0.481,-0.473l-0.479,-0.475l-0.479,-0.476l-0.477,-0.478l-0.476,-0.479l-0.475,-0.48l-0.474,-0.481l-0.472,-0.483l-0.471,-0.484l-0.469,-0.486l-0.469,-0.486l-0.467,-0.488l-0.466,-0.489l-0.464,-0.491l-0.463,-0.492l-0.462,-0.493l-0.461,-0.494l-0.459,-0.496l-0.458,-0.497l-0.457,-0.498l-0.455,-0.499l-0.454,-0.501l-0.453,-0.502l-0.451,-0.503l-0.451,-0.505l-0.448,-0.505l-0.448,-0.507l-0.446,-0.509l-0.445,-0.509l-0.443,-0.511l-0.442,-0.512l-0.441,-0.513l-0.439,-0.515l-0.438,-0.515l-0.437,-0.517l-0.435,-0.518l-0.434,-0.52l-0.433,-0.52l-0.431,-0.522l-0.43,-0.523l-0.429,-0.524l-0.427,-0.526l-0.426,-0.527l-0.424,-0.528l-0.423,-0.529l-0.422,-0.53l-0.42,-0.532l-0.419,-0.532l-0.417,-0.534l-0.416,-0.535l-0.415,-0.537l-0.413,-0.537l-0.412,-0.539l-0.41,-0.54l-0.409,-0.541l-0.408,-0.542l-0.406,-0.543l-0.405,-0.545l-0.403,-0.546l-0.402,-0.547l-0.4,-0.548l-0.399,-0.549l-0.398,-0.55l-0.396,-0.552l-0.395,-0.553l-0.393,-0.553l-0.392,-0.556l-0.39,-0.556l-0.389,-0.557l-0.387,-0.558l-0.386,-0.56l-0.385,-0.561l-0.383,-0.562l-0.381,-0.563l-0.381,-0.564l-0.378,-0.565l-0.377,-0.567l-0.376,-0.567l-0.374,-0.569l-0.373,-0.57l-0.371,-0.57l-0.37,-0.572l-0.368,-0.574l-0.367,-0.574l-0.365,-0.575l-0.364,-0.577l-0.362,-0.577l-0.36,-0.579l-0.36,-0.579l-0.357,-0.581l-0.356,-0.582l-0.355,-0.583l-0.353,-0.584l-0.352,-0.585l-0.35,-0.587l-0.348,-0.587l-0.347,-0.588l-0.345,-0.59l-0.344,-0.59l-0.343,-0.592l-0.34,-0.593l-0.34,-0.593l-0.337,-0.595l-0.336,-0.596l-0.335,-0.597l-0.333,-0.598l-0.331,-0.599l-0.33,-0.6l-0.328,-0.601l-0.327,-0.602l-0.325,-0.603l-0.323,-0.604l-0.322,-0.606l-0.321,-0.606l-0.318,-0.607l-0.318,-0.609l-0.315,-0.609l-0.314,-0.61l-0.312,-0.612l-0.311,-0.612l-0.309,-0.614l-0.308,-0.614l-0.306,-0.616l-0.304,-0.616l-0.303,-0.617l-0.301,-0.619l-0.299,-0.619l-0.298,-0.621l-0.296,-0.621l-0.294,-0.623l-0.293,-0.623l-0.292,-0.625l-0.289,-0.625l-0.288,-0.626l-0.286,-0.628l-0.285,-0.628l-0.283,-0.629l-0.281,-0.631l-0.28,-0.631l-0.278,-0.632l-0.276,-0.633l-0.275,-0.635l-0.273,-0.635l-0.271,-0.636l-0.269,-0.637l-0.268,-0.638l-0.267,-0.639l-0.264,-0.64l-0.263,-0.64l-0.261,-0.642l-0.26,-0.643l-0.257,-0.643l-0.256,-0.645l-0.255,-0.645l-0.252,-0.647l-0.251,-0.647l-0.249,-0.648l-0.248,-0.65l-0.245,-0.65l-0.244,-0.651l-0.243,-0.652l-0.24,-0.652l-0.239,-0.654l-0.237,-0.655l-0.236,-0.655l-0.233,-0.657l-0.232,-0.657l-0.23,-0.658l-0.228,-0.66l-0.227,-0.66l-0.225,-0.66l-0.223,-0.662l-0.221,-0.663l-0.22,-0.663l-0.217,-0.665l-0.216,-0.665l-0.215,-0.666l-0.212,-0.667l-0.211,-0.668l-0.209,-0.669l-0.207,-0.67l-0.205,-0.67l-0.203,-0.672l-0.202,-0.672l-0.2,-0.673l-0.198,-0.674l-0.196,-0.675l-0.195,-0.675l-0.193,-0.677l-0.19,-0.677l-0.189,-0.678l-0.188,-0.679l-0.185,-0.68l-0.184,-0.68l-0.181,-0.682l-0.18,-0.682l-0.178,-0.683l-0.176,-0.684l-0.175,-0.685l-0.172,-0.685l-0.171,-0.687l-0.169,-0.687l-0.167,-0.688l-0.165,-0.689l-0.163,-0.689l-0.161,-0.691l-0.16,-0.691l-0.158,-0.692l-0.155,-0.692l-0.154,-0.694l-0.152,-0.694l-0.151,-0.695l-0.148,-0.696l-0.146,-0.697l-0.145,-0.697l-0.142,-0.699l-0.141,-0.699l-0.139,-0.699l-0.137,-0.701l-0.135,-0.701l-0.133,-0.702l-0.131,-0.703l-0.129,-0.703l-0.128,-0.705l-0.125,-0.705l-0.123,-0.706l-0.122,-0.706l-0.12,-0.707l-0.117,-0.708l-0.116,-0.709l492.267,0l-0.115,0.709Zm-439.598,39.291l0.088,0.214l0.222,0.537l0.223,0.536l0.225,0.536l0.226,0.534l0.228,0.534l0.229,0.534l0.231,0.532l0.232,0.531l0.233,0.531l0.235,0.53l0.236,0.529l0.237,0.528l0.239,0.527l0.241,0.527l0.241,0.526l0.243,0.525l0.245,0.524l0.245,0.523l0.248,0.523l0.248,0.521l0.25,0.521l0.252,0.52l0.252,0.519l0.254,0.519l0.256,0.517l0.256,0.516l0.259,0.516l0.259,0.515l0.261,0.514l0.262,0.513l0.263,0.513l0.265,0.511l0.267,0.511l0.267,0.509l0.269,0.509l0.27,0.509l0.272,0.507l0.273,0.506l0.274,0.506l0.275,0.504l0.277,0.504l0.278,0.503l0.28,0.501l0.281,0.502l0.282,0.5l0.283,0.499l0.285,0.499l0.286,0.497l0.287,0.497l0.289,0.495l0.29,0.496l0.291,0.493l0.293,0.493l0.294,0.492l0.295,0.491l0.296,0.491l0.298,0.489l0.299,0.489l0.3,0.488l0.302,0.487l0.303,0.485l0.304,0.485l0.305,0.484l0.307,0.483l0.308,0.482l0.309,0.482l0.31,0.48l0.312,0.479l0.313,0.478l0.314,0.478l0.315,0.477l0.317,0.475l0.318,0.475l0.319,0.474l0.321,0.472l0.321,0.472l0.323,0.471l0.324,0.47l0.326,0.469l0.326,0.468l0.328,0.467l0.329,0.466l0.33,0.465l0.332,0.464l0.333,0.464l0.334,0.462l0.335,0.462l0.336,0.46l0.337,0.459l0.339,0.459l0.34,0.457l0.341,0.456l0.343,0.456l0.343,0.454l0.345,0.454l0.346,0.452l0.347,0.452l0.348,0.45l0.35,0.45l0.35,0.448l0.352,0.448l0.353,0.446l0.354,0.446l0.355,0.444l0.357,0.443l0.358,0.443l0.359,0.442l0.36,0.44l0.36,0.439l0.363,0.439l0.364,0.437l0.364,0.436l0.366,0.436l0.367,0.434l0.368,0.433l0.369,0.432l0.37,0.432l0.372,0.43l0.372,0.429l0.374,0.428l0.375,0.427l0.375,0.426l0.378,0.425l0.378,0.424l0.379,0.423l0.381,0.422l0.381,0.42l0.383,0.42l0.383,0.418l0.385,0.418l0.387,0.417l0.386,0.415l0.388,0.414l0.39,0.413l0.39,0.413l0.392,0.411l0.392,0.41l0.393,0.408l0.395,0.408l0.396,0.407l0.396,0.406l0.399,0.404l0.399,0.404l0.4,0.402l0.401,0.402l0.401,0.399l0.404,0.4l0.405,0.398l0.405,0.397l0.406,0.396l0.407,0.394l0.409,0.394l0.409,0.392l0.411,0.391l0.411,0.391l0.413,0.389l0.413,0.387l0.415,0.387l0.416,0.386l0.417,0.385l0.417,0.383l0.419,0.382l0.42,0.381l0.421,0.38l0.422,0.38l0.423,0.377l0.423,0.376l0.425,0.376l0.426,0.375l0.427,0.372l0.428,0.372l0.429,0.371l0.429,0.37l0.431,0.368l0.432,0.367l0.433,0.367l0.434,0.365l0.434,0.363l0.436,0.363l0.437,0.362l0.437,0.36l0.439,0.359l0.439,0.358l0.441,0.356l0.442,0.356l0.442,0.355l0.444,0.353l0.444,0.351l0.445,0.351l0.446,0.35l0.447,0.348l0.449,0.347l0.449,0.346l0.449,0.344l0.452,0.345l0.452,0.342l0.452,0.34l0.454,0.341l0.455,0.339l0.455,0.337l0.457,0.336l0.458,0.335l0.458,0.334l0.459,0.332l0.46,0.332l0.461,0.33l0.463,0.329l0.462,0.327l0.464,0.327l0.465,0.325l0.465,0.323l0.466,0.323l0.468,0.322l0.468,0.32l0.469,0.319l0.47,0.317l0.47,0.316l0.472,0.315l0.473,0.315l0.474,0.312l0.474,0.311l0.475,0.311l0.476,0.308l0.477,0.308l0.478,0.306l0.479,0.305l0.479,0.304l0.48,0.302l0.481,0.301l0.482,0.3l0.483,0.298l0.484,0.298l0.484,0.296l0.486,0.295l0.485,0.293l0.487,0.291l0.488,0.292l0.489,0.289l0.489,0.288l0.491,0.287l0.491,0.286l0.492,0.284l0.493,0.283l0.492,0.281l0.494,0.28l0.496,0.28l0.495,0.277l0.497,0.276l0.499,0.276l0.498,0.273l0.498,0.272l0.5,0.271l0.5,0.27l0.502,0.268l0.502,0.267l0.503,0.266l0.504,0.264l0.504,0.263l0.504,0.261l0.508,0.261l0.506,0.259l0.508,0.257l0.509,0.257l0.507,0.254l0.51,0.254l0.512,0.252l0.511,0.251l0.512,0.25l0.512,0.247l0.513,0.246l0.516,0.247l0.514,0.243l0.515,0.243l0.518,0.241l0.517,0.24l0.517,0.238l0.519,0.237l0.519,0.236l0.52,0.234l0.521,0.233l0.522,0.231l0.523,0.231l0.522,0.228l0.522,0.227l0.526,0.226l0.526,0.225l0.525,0.223l0.524,0.221l0.527,0.22l0.53,0.22l0.528,0.217l0.528,0.216l0.53,0.214l0.531,0.214l0.532,0.212l0.531,0.21l0.532,0.208l0.534,0.208l0.534,0.206l0.534,0.205l0.536,0.203l0.536,0.202l0.535,0.2l0.538,0.199l0.538,0.197l0.537,0.196l0.54,0.195l0.541,0.193l0.539,0.192l0.541,0.19l0.541,0.188l0.544,0.188l0.542,0.186l0.544,0.184l0.544,0.183l0.545,0.181l0.546,0.181l0.545,0.178l0.546,0.176l0.548,0.176l0.549,0.175l0.548,0.172l0.549,0.171l0.549,0.17l0.552,0.168l0.551,0.167l0.55,0.165l0.553,0.164l0.553,0.162l0.553,0.161l0.554,0.159l0.555,0.158l0.556,0.156l0.554,0.154l0.555,0.153l0.559,0.153l0.557,0.15l0.558,0.148l0.559,0.148l0.559,0.145l0.561,0.145l0.559,0.142l0.561,0.141l0.563,0.14l0.561,0.138l0.562,0.137l0.563,0.135l0.565,0.133l0.564,0.132l0.563,0.131l0.567,0.129l0.566,0.127l0.566,0.126l0.567,0.124l0.567,0.123l0.569,0.121l0.569,0.12l0.569,0.118l0.569,0.117l0.57,0.115l0.571,0.113l0.571,0.112l0.574,0.111l0.571,0.108l0.571,0.107l0.576,0.106l0.574,0.104l0.574,0.103l0.574,0.101l0.575,0.099l0.577,0.098l0.576,0.096l0.577,0.095l0.577,0.093l0.577,0.091l0.58,0.09l0.58,0.088l0.578,0.087l0.581,0.085l0.579,0.083l0.582,0.082l0.583,0.081l0.579,0.078l0.583,0.077l0.584,0.076l0.583,0.074l0.583,0.072l0.584,0.071l0.587,0.069l0.584,0.067l0.585,0.066l0.587,0.064l0.588,0.063l0.586,0.061l0.587,0.059l0.588,0.058l0.588,0.056l0.591,0.054l0.588,0.053l0.59,0.051l0.591,0.05l0.591,0.047l0.592,0.047l0.589,0.044l0.593,0.043l0.594,0.041l0.593,0.04l0.593,0.038l0.594,0.036l0.594,0.035l0.595,0.033l0.595,0.031l0.595,0.029l0.596,0.028l0.598,0.027l0.597,0.024l0.597,0.023l0.597,0.021l0.6,0.02l0.598,0.018l0.597,0.016l0.6,0.014l0.601,0.013l0.601,0.011l0.601,0.01l0.6,0.007l0.6,0.006l0.603,0.005l0.603,0.002l0.603,0.001l0.602,-0.001l0.603,-0.002l0.603,-0.005l0.6,-0.006l0.6,-0.007l0.601,-0.01l0.601,-0.011l0.602,-0.013l0.599,-0.014l0.597,-0.016l0.599,-0.018l0.599,-0.02l0.597,-0.021l0.597,-0.023l0.598,-0.024l0.597,-0.027l0.596,-0.028l0.595,-0.029l0.595,-0.031l0.595,-0.033l0.595,-0.035l0.593,-0.036l0.593,-0.038l0.593,-0.04l0.594,-0.041l0.593,-0.043l0.589,-0.044l0.592,-0.047l0.591,-0.047l0.591,-0.05l0.59,-0.051l0.588,-0.053l0.591,-0.054l0.588,-0.056l0.588,-0.058l0.587,-0.059l0.587,-0.061l0.587,-0.063l0.587,-0.064l0.585,-0.066l0.584,-0.067l0.587,-0.069l0.585,-0.071l0.582,-0.072l0.583,-0.074l0.585,-0.076l0.582,-0.077l0.579,-0.078l0.583,-0.081l0.582,-0.082l0.579,-0.083l0.581,-0.085l0.578,-0.087l0.58,-0.088l0.58,-0.09l0.577,-0.091l0.577,-0.093l0.577,-0.095l0.576,-0.096l0.577,-0.098l0.575,-0.099l0.574,-0.101l0.574,-0.103l0.574,-0.104l0.576,-0.106l0.572,-0.107l0.571,-0.108l0.573,-0.111l0.571,-0.112l0.571,-0.113l0.57,-0.115l0.569,-0.117l0.569,-0.118l0.569,-0.12l0.57,-0.121l0.566,-0.123l0.567,-0.124l0.566,-0.126l0.566,-0.127l0.567,-0.13l0.563,-0.13l0.564,-0.132l0.565,-0.133l0.563,-0.135l0.562,-0.137l0.561,-0.138l0.563,-0.14l0.562,-0.141l0.559,-0.142l0.56,-0.145l0.559,-0.145l0.559,-0.148l0.558,-0.148l0.558,-0.15l0.558,-0.153l0.556,-0.153l0.553,-0.154l0.556,-0.156l0.556,-0.158l0.553,-0.159l0.554,-0.161l0.553,-0.162l0.552,-0.164l0.55,-0.165l0.551,-0.167l0.552,-0.168l0.55,-0.17l0.548,-0.171l0.548,-0.172l0.549,-0.175l0.548,-0.176l0.546,-0.176l0.545,-0.178l0.546,-0.181l0.545,-0.181l0.544,-0.183l0.544,-0.184l0.543,-0.186l0.543,-0.188l0.541,-0.188l0.541,-0.191l0.54,-0.191l0.54,-0.193l0.54,-0.195l0.537,-0.196l0.539,-0.197l0.537,-0.199l0.535,-0.2l0.536,-0.202l0.536,-0.203l0.535,-0.205l0.533,-0.206l0.534,-0.208l0.532,-0.208l0.531,-0.21l0.532,-0.212l0.531,-0.214l0.53,-0.214l0.528,-0.216l0.528,-0.217l0.53,-0.22l0.527,-0.22l0.524,-0.221l0.526,-0.223l0.526,-0.225l0.525,-0.226l0.523,-0.227l0.522,-0.228l0.522,-0.231l0.522,-0.231l0.521,-0.233l0.52,-0.234l0.52,-0.236l0.518,-0.237l0.518,-0.238l0.516,-0.24l0.518,-0.242l0.515,-0.242l0.514,-0.243l0.517,-0.247l0.512,-0.246l0.512,-0.247l0.512,-0.25l0.511,-0.251l0.512,-0.252l0.51,-0.254l0.507,-0.254l0.51,-0.257l0.507,-0.257l0.506,-0.259l0.508,-0.261l0.504,-0.261l0.504,-0.262l0.504,-0.265l0.504,-0.266l0.502,-0.267l0.501,-0.268l0.5,-0.27l0.5,-0.271l0.498,-0.272l0.498,-0.273l0.499,-0.276l0.497,-0.276l0.495,-0.278l0.496,-0.279l0.494,-0.28l0.493,-0.281l0.492,-0.283l0.492,-0.284l0.491,-0.286l0.492,-0.287l0.489,-0.288l0.488,-0.289l0.488,-0.291l0.487,-0.292l0.485,-0.293l0.486,-0.295l0.484,-0.296l0.485,-0.298l0.483,-0.298l0.481,-0.3l0.481,-0.301l0.481,-0.303l0.479,-0.303l0.478,-0.305l0.478,-0.306l0.477,-0.308l0.476,-0.309l0.476,-0.31l0.474,-0.311l0.473,-0.312l0.473,-0.314l0.472,-0.316l0.47,-0.316l0.47,-0.317l0.469,-0.319l0.468,-0.32l0.468,-0.322l0.466,-0.323l0.466,-0.323l0.464,-0.325l0.464,-0.327l0.463,-0.327l0.462,-0.329l0.462,-0.331l0.46,-0.331l0.458,-0.332l0.458,-0.334l0.458,-0.335l0.457,-0.336l0.455,-0.337l0.455,-0.339l0.454,-0.34l0.452,-0.341l0.452,-0.342l0.451,-0.344l0.45,-0.345l0.45,-0.346l0.448,-0.347l0.446,-0.348l0.447,-0.35l0.446,-0.351l0.443,-0.351l0.444,-0.354l0.443,-0.354l0.441,-0.355l0.44,-0.357l0.441,-0.358l0.438,-0.359l0.437,-0.36l0.438,-0.362l0.435,-0.363l0.435,-0.363l0.433,-0.365l0.433,-0.367l0.432,-0.367l0.431,-0.368l0.43,-0.37l0.429,-0.371l0.428,-0.372l0.426,-0.372l0.426,-0.375l0.425,-0.376l0.424,-0.376l0.422,-0.377l0.423,-0.38l0.42,-0.38l0.42,-0.381l0.419,-0.382l0.417,-0.383l0.417,-0.385l0.416,-0.386l0.415,-0.387l0.413,-0.387l0.413,-0.39l0.412,-0.39l0.41,-0.39l0.409,-0.393l0.409,-0.394l0.408,-0.395l0.406,-0.395l0.405,-0.397l0.404,-0.398l0.404,-0.399l0.402,-0.4l0.401,-0.402l0.399,-0.402l0.4,-0.404l0.397,-0.404l0.397,-0.406l0.396,-0.407l0.395,-0.408l0.393,-0.408l0.393,-0.41l0.391,-0.411l0.39,-0.413l0.39,-0.413l0.388,-0.415l0.387,-0.414l0.386,-0.417l0.385,-0.418l0.383,-0.418l0.383,-0.42l0.382,-0.421l0.38,-0.421l0.379,-0.423l0.378,-0.423l0.378,-0.426l0.376,-0.426l0.375,-0.427l0.373,-0.428l0.372,-0.429l0.372,-0.43l0.37,-0.432l0.37,-0.432l0.367,-0.433l0.367,-0.434l0.366,-0.436l0.364,-0.435l0.364,-0.439l0.363,-0.438l0.36,-0.439l0.36,-0.44l0.36,-0.442l0.357,-0.442l0.357,-0.444l0.355,-0.444l0.354,-0.446l0.353,-0.447l0.352,-0.447l0.351,-0.449l0.349,-0.449l0.348,-0.45l0.348,-0.452l0.345,-0.452l0.345,-0.454l0.344,-0.455l0.342,-0.455l0.341,-0.456l0.34,-0.457l0.339,-0.459l0.337,-0.459l0.337,-0.46l0.335,-0.462l0.334,-0.462l0.333,-0.464l0.331,-0.464l0.33,-0.465l0.329,-0.466l0.328,-0.467l0.327,-0.468l0.325,-0.469l0.324,-0.47l0.323,-0.471l0.322,-0.472l0.32,-0.472l0.319,-0.474l0.318,-0.475l0.317,-0.475l0.315,-0.477l0.315,-0.478l0.312,-0.477l0.312,-0.48l0.31,-0.481l0.31,-0.481l0.308,-0.482l0.306,-0.483l0.305,-0.483l0.305,-0.486l0.302,-0.486l0.302,-0.486l0.301,-0.488l0.298,-0.489l0.298,-0.489l0.296,-0.49l0.295,-0.491l0.294,-0.492l0.293,-0.494l0.292,-0.495l0.289,-0.493l0.289,-0.496l0.288,-0.498l0.285,-0.496l0.284,-0.498l0.284,-0.5l0.282,-0.5l0.281,-0.502l0.28,-0.502l0.279,-0.504l0.276,-0.502l0.275,-0.504l0.274,-0.505l0.273,-0.507l0.272,-0.508l0.271,-0.508l0.268,-0.508l0.267,-0.51l0.267,-0.511l0.264,-0.511l0.264,-0.513l0.263,-0.514l0.26,-0.512l0.26,-0.516l0.258,-0.516l0.256,-0.516l0.256,-0.518l0.254,-0.517l0.253,-0.521l0.251,-0.519l0.25,-0.52l0.249,-0.523l0.247,-0.522l0.246,-0.524l0.244,-0.524l0.243,-0.523l0.241,-0.526l0.241,-0.529l0.239,-0.526l0.237,-0.527l0.237,-0.531l0.234,-0.529l0.233,-0.531l0.232,-0.531l0.231,-0.532l0.229,-0.534l0.228,-0.534l0.226,-0.534l0.225,-0.536l0.224,-0.537l0.221,-0.536l0.088,-0.214l-387.159,0Z"/><g><path d="M298.63,131.121c0.166,-0.62 0.728,-1.051 1.37,-1.051c0.642,0 1.204,0.431 1.37,1.051c5.247,19.617 23.773,88.879 23.773,88.879l-50.286,0c0,0 18.526,-69.262 23.773,-88.879Z"/><path d="M301.476,308.482l-0.018,0.062l-0.02,0.06l-0.023,0.06l-0.025,0.058l-0.028,0.057l-0.029,0.055l-0.032,0.054l-0.034,0.053l-0.035,0.05l-0.038,0.05l-0.04,0.047l-0.041,0.046l-0.043,0.044l-0.045,0.042l-0.047,0.04l-0.048,0.039l-0.049,0.036l-0.051,0.035l-0.052,0.032l-0.054,0.03l-0.055,0.029l-0.056,0.026l-0.057,0.023l-0.059,0.022l-0.059,0.019l-0.06,0.016l-0.061,0.015l-0.062,0.011l-0.063,0.01l-0.063,0.006l-0.064,0.004l-0.065,0.002l-0.065,-0.002l-0.064,-0.004l-0.063,-0.006l-0.063,-0.01l-0.062,-0.011l-0.061,-0.015l-0.06,-0.016l-0.059,-0.019l-0.059,-0.022l-0.057,-0.023l-0.056,-0.026l-0.055,-0.029l-0.054,-0.03l-0.052,-0.032l-0.051,-0.035l-0.049,-0.036l-0.048,-0.039l-0.047,-0.04l-0.045,-0.042l-0.043,-0.044l-0.041,-0.046l-0.04,-0.047l-0.038,-0.05l-0.035,-0.05l-0.034,-0.053l-0.032,-0.054l-0.029,-0.055l-0.028,-0.057l-0.025,-0.058l-0.023,-0.06l-0.02,-0.06l-0.018,-0.062l-23.667,-88.482l50.286,0l-23.667,88.482Zm-20.106,-83.482l18.63,69.65l18.63,-69.65l-37.26,0Z"/></g><text x="175.117px" y="479.011px" style="font-family:'Muli-Regular', 'Muli';font-size:123.678px;">0.00</text></g></svg>