<?xml version="1.0" encoding="UTF-8" standalone="no"?><!DOCTYPE svg PUBLIC "-//W3C//DTD SVG 1.1//EN" "http://www.w3.org/Graphics/SVG/1.1/DTD/svg11.dtd"><svg width="100%" height="100%" viewBox="0 0 600 600" version="1.1" xmlns="http://www.w3.org/2000/svg" xmlns:xlink="http://www.w3.org/1999/xlink" xml:space="preserve" xmlns:serif="http://www.serif.com/" style="fill-rule:evenodd;clip-rule:evenodd;stroke-linecap:round;stroke-linejoin:round;stroke-miterlimit:1.5;"><rect id="Artboard1" x="0" y="0" width="600" height="600" style="fill:none;"/><path d="M573.868,300.107c0,-151.253 -122.615,-273.868 -273.868,-273.868c-151.253,0 -273.868,122.615 -273.868,273.868c0,-151.253 122.615,-273.868 273.868,-273.868c151.253,0 273.868,122.615 273.868,273.868Z" style="fill:#fff;stroke:#000;stroke-width:30px;"/><path d="M32.039,356.574c26.741,126.657 138.512,217.294 267.961,217.294c129.449,0 241.22,-90.637 267.961,-217.294l-535.922,0Z" style="fill:#fff;stroke:#000;stroke-width:30px;"/><text x="164.588px" y="498.296px" style="font-family:'ArialMT', 'Arial', sans-serif;font-size:139.605px;">0.00</text><path d="M304.5,70l35.5,130l-71,0l35.5,-130Z"/><path d="M304.5,330l-35.5,-130l71,0l-35.5,130Z" style="fill:#fff;"/><path d="M304.5,330l-35.5,-130l71,0l-35.5,130Zm-22.403,-120l22.403,82.039l22.403,-82.039l-44.806,0Z"/></svg>