<?xml version="1.0" encoding="UTF-8" standalone="no"?><!DOCTYPE svg PUBLIC "-//W3C//DTD SVG 1.1//EN" "http://www.w3.org/Graphics/SVG/1.1/DTD/svg11.dtd"><svg width="100%" height="100%" viewBox="0 0 600 600" version="1.1" xmlns="http://www.w3.org/2000/svg" xmlns:xlink="http://www.w3.org/1999/xlink" xml:space="preserve" xmlns:serif="http://www.serif.com/" style="fill-rule:evenodd;clip-rule:evenodd;stroke-linecap:round;stroke-linejoin:round;stroke-miterlimit:1.5;"><path d="M32.039,356.574c26.741,126.657 138.512,217.294 267.961,217.294c129.449,0 241.22,-90.637 267.961,-217.294c0,0 -79.043,17.613 -167.961,13.353c-83.918,-4.02 -176.632,-29.927 -220,-29.927c-49.32,0 -147.961,16.574 -147.961,16.574Z" style="fill:#fff;stroke:#000;stroke-width:30px;"/><text x="164.588px" y="498.296px" style="font-family:'ArialMT', 'Arial', sans-serif;font-size:139.605px;">0.00</text><g><path d="M300.319,173.902l39.681,86.098l-79.362,0l39.681,-86.098Z"/><path d="M300.319,346.098l-39.681,-86.098l79.362,0l-39.681,86.098Z" style="fill:#fff;"/><path d="M300.319,346.098l-39.681,-86.098l79.362,0l-39.681,86.098Zm-24.062,-76.098l24.062,52.207l24.061,-52.207l-48.123,0Z"/></g><path d="M573.868,300.107c0,-151.253 -122.615,-273.868 -273.868,-273.868c-151.253,0 -273.868,122.615 -273.868,273.868c0,-151.253 122.615,-273.868 273.868,-273.868c151.253,0 273.868,122.615 273.868,273.868Z" style="fill:#fff;stroke:#000;stroke-width:30px;"/><text x="164.588px" y="169.318px" style="font-family:'ArialMT', 'Arial', sans-serif;font-size:139.605px;">0.00</text></svg>