<?xml version="1.0" encoding="UTF-8" standalone="no"?><!DOCTYPE svg PUBLIC "-//W3C//DTD SVG 1.1//EN" "http://www.w3.org/Graphics/SVG/1.1/DTD/svg11.dtd"><svg width="100%" height="100%" viewBox="0 0 600 600" version="1.1" xmlns="http://www.w3.org/2000/svg" xmlns:xlink="http://www.w3.org/1999/xlink" xml:space="preserve" xmlns:serif="http://www.serif.com/" style="fill-rule:evenodd;clip-rule:evenodd;stroke-linejoin:round;stroke-miterlimit:2;"><rect id="Artboard1" x="0" y="0" width="600" height="600" style="fill:none;"/><g><path d="M585.946,297.144c-0.082,-157.658 -127.954,-285.398 -285.612,-285.317c-157.657,0.082 -285.397,127.954 -285.316,285.612l42.82,-0.022c-0.069,-134.009 108.51,-242.701 242.519,-242.77c134.008,-0.069 242.7,108.51 242.769,242.519l42.82,-0.022Z"/><path d="M301.258,11.828l0.923,0.004l0.922,0.007l0.921,0.01l0.921,0.013l0.92,0.015l0.919,0.019l0.918,0.021l0.918,0.024l0.917,0.027l0.917,0.03l0.915,0.033l0.915,0.036l0.914,0.038l0.914,0.042l0.913,0.044l0.912,0.047l0.911,0.051l0.91,0.052l0.91,0.056l0.909,0.059l0.908,0.061l0.907,0.064l0.907,0.067l0.905,0.07l0.905,0.073l0.904,0.076l0.904,0.078l0.902,0.081l0.902,0.084l0.901,0.087l0.9,0.089l0.9,0.092l0.898,0.096l0.898,0.097l0.896,0.101l0.896,0.103l0.896,0.107l0.894,0.108l0.893,0.112l0.893,0.115l0.892,0.117l0.89,0.12l0.89,0.122l0.889,0.126l0.889,0.128l0.887,0.131l0.886,0.133l0.886,0.136l0.885,0.139l0.883,0.142l0.883,0.144l0.882,0.148l0.881,0.149l0.88,0.153l0.88,0.155l0.878,0.158l0.877,0.16l0.877,0.163l0.875,0.166l0.875,0.169l0.873,0.171l0.873,0.174l0.871,0.176l0.871,0.179l0.87,0.182l0.869,0.185l0.867,0.187l0.867,0.189l0.866,0.193l0.865,0.194l0.864,0.198l0.862,0.2l0.862,0.203l0.861,0.205l0.86,0.208l0.859,0.211l0.857,0.213l0.857,0.215l0.856,0.219l0.855,0.221l0.853,0.223l0.853,0.226l0.852,0.229l0.85,0.231l0.85,0.233l0.848,0.237l0.847,0.238l0.847,0.242l0.845,0.243l0.844,0.247l0.843,0.249l0.842,0.251l0.841,0.254l0.84,0.256l0.838,0.259l0.838,0.262l0.836,0.264l0.836,0.266l0.834,0.269l0.833,0.272l0.832,0.274l0.831,0.276l0.83,0.279l0.828,0.281l0.828,0.284l0.826,0.286l0.825,0.289l0.824,0.291l0.823,0.294l0.822,0.296l0.82,0.299l0.82,0.301l0.818,0.303l0.817,0.306l0.816,0.308l0.814,0.311l0.814,0.313l0.812,0.315l0.811,0.318l0.81,0.32l0.808,0.323l0.808,0.325l0.806,0.328l0.805,0.329l0.804,0.333l0.802,0.334l0.801,0.337l0.8,0.339l0.799,0.342l0.798,0.344l0.796,0.347l0.795,0.348l0.794,0.351l0.792,0.354l0.791,0.356l0.79,0.358l0.789,0.36l0.787,0.363l0.786,0.365l0.785,0.367l0.783,0.37l0.783,0.372l0.78,0.374l0.78,0.377l0.778,0.379l0.777,0.381l0.776,0.383l0.774,0.386l0.773,0.388l0.771,0.39l0.77,0.393l0.769,0.395l0.768,0.397l0.766,0.399l0.765,0.401l0.763,0.404l0.762,0.406l0.761,0.409l0.759,0.41l0.758,0.413l0.757,0.415l0.755,0.417l0.754,0.419l0.752,0.422l0.751,0.423l0.749,0.426l0.749,0.429l0.746,0.43l0.746,0.433l0.743,0.434l0.743,0.437l0.741,0.439l0.739,0.441l0.738,0.444l0.737,0.445l0.735,0.448l0.734,0.45l0.732,0.452l0.731,0.454l0.73,0.457l0.727,0.458l0.727,0.46l0.725,0.463l0.723,0.465l0.722,0.467l0.721,0.469l0.719,0.471l0.717,0.473l0.716,0.476l0.714,0.477l0.713,0.48l0.712,0.481l0.709,0.484l0.709,0.486l0.706,0.488l0.706,0.489l0.703,0.492l0.702,0.494l0.701,0.497l0.699,0.498l0.698,0.5l0.695,0.502l0.695,0.504l0.693,0.507l0.691,0.508l0.689,0.51l0.688,0.513l0.687,0.514l0.684,0.516l0.684,0.519l0.681,0.52l0.68,0.523l0.679,0.524l0.676,0.526l0.676,0.529l0.673,0.53l0.672,0.532l0.67,0.535l0.669,0.536l0.667,0.538l0.665,0.54l0.664,0.542l0.662,0.545l0.66,0.546l0.659,0.548l0.657,0.549l0.655,0.552l0.653,0.554l0.652,0.556l0.651,0.557l0.648,0.56l0.647,0.561l0.645,0.564l0.644,0.565l0.641,0.567l0.64,0.569l0.639,0.571l0.636,0.573l0.635,0.574l0.633,0.577l0.632,0.578l0.629,0.581l0.628,0.582l0.626,0.584l0.625,0.586l0.622,0.588l0.621,0.589l0.619,0.591l0.618,0.594l0.615,0.595l0.614,0.597l0.612,0.598l0.61,0.601l0.608,0.602l0.607,0.604l0.605,0.606l0.603,0.608l0.601,0.61l0.599,0.611l0.598,0.613l0.596,0.615l0.593,0.617l0.592,0.618l0.591,0.621l0.588,0.622l0.587,0.623l0.584,0.626l0.583,0.627l0.581,0.629l0.579,0.631l0.577,0.633l0.576,0.634l0.573,0.636l0.572,0.637l0.569,0.64l0.568,0.641l0.566,0.643l0.564,0.644l0.562,0.647l0.56,0.648l0.559,0.649l0.556,0.652l0.554,0.653l0.553,0.655l0.55,0.656l0.549,0.658l0.547,0.66l0.545,0.661l0.542,0.663l0.541,0.665l0.539,0.666l0.537,0.668l0.535,0.67l0.533,0.671l0.531,0.673l0.529,0.675l0.527,0.676l0.525,0.678l0.524,0.679l0.521,0.682l0.519,0.682l0.517,0.684l0.515,0.686l0.513,0.688l0.511,0.689l0.509,0.691l0.507,0.692l0.505,0.694l0.503,0.695l0.501,0.697l0.499,0.698l0.497,0.7l0.494,0.702l0.493,0.703l0.491,0.705l0.488,0.706l0.487,0.708l0.484,0.709l0.483,0.711l0.48,0.713l0.478,0.714l0.476,0.715l0.474,0.717l0.472,0.718l0.47,0.72l0.467,0.722l0.466,0.723l0.463,0.724l0.462,0.726l0.459,0.728l0.457,0.728l0.455,0.731l0.453,0.732l0.45,0.733l0.449,0.735l0.446,0.736l0.444,0.737l0.442,0.74l0.44,0.74l0.438,0.742l0.435,0.743l0.434,0.745l0.431,0.747l0.429,0.747l0.426,0.749l0.425,0.751l0.422,0.752l0.42,0.753l0.418,0.755l0.416,0.756l0.413,0.757l0.412,0.759l0.409,0.761l0.407,0.761l0.404,0.763l0.403,0.765l0.4,0.765l0.397,0.767l0.396,0.769l0.393,0.77l0.391,0.771l0.389,0.772l0.387,0.774l0.384,0.775l0.382,0.777l0.38,0.778l0.377,0.779l0.375,0.78l0.373,0.782l0.37,0.783l0.369,0.784l0.365,0.786l0.364,0.787l0.361,0.788l0.359,0.79l0.357,0.791l0.354,0.792l0.352,0.793l0.349,0.795l0.348,0.796l0.345,0.797l0.342,0.798l0.34,0.8l0.338,0.801l0.335,0.802l0.333,0.803l0.331,0.805l0.328,0.806l0.326,0.807l0.324,0.808l0.321,0.809l0.319,0.811l0.316,0.812l0.314,0.813l0.311,0.814l0.309,0.816l0.307,0.817l0.304,0.817l0.302,0.819l0.3,0.821l0.296,0.821l0.295,0.823l0.292,0.823l0.29,0.825l0.287,0.826l0.284,0.827l0.283,0.829l0.279,0.829l0.278,0.831l0.274,0.832l0.273,0.832l0.27,0.834l0.267,0.835l0.265,0.837l0.262,0.837l0.26,0.838l0.257,0.84l0.255,0.841l0.252,0.841l0.25,0.843l0.247,0.844l0.245,0.845l0.242,0.846l0.24,0.847l0.237,0.848l0.234,0.849l0.232,0.851l0.23,0.851l0.227,0.852l0.224,0.854l0.222,0.854l0.219,0.856l0.216,0.856l0.214,0.858l0.212,0.859l0.209,0.859l0.206,0.861l0.204,0.861l0.201,0.863l0.198,0.864l0.196,0.864l0.193,0.866l0.191,0.866l0.187,0.868l0.186,0.869l0.182,0.869l0.18,0.871l0.178,0.871l0.175,0.873l0.172,0.873l0.169,0.874l0.167,0.876l0.164,0.876l0.161,0.877l0.159,0.878l0.156,0.879l0.153,0.88l0.151,0.881l0.148,0.882l0.145,0.882l0.143,0.884l0.14,0.884l0.137,0.886l0.135,0.886l0.131,0.887l0.129,0.889l0.127,0.888l0.123,0.89l0.121,0.891l0.118,0.892l0.115,0.892l0.113,0.893l0.11,0.895l0.107,0.895l0.104,0.895l0.102,0.897l0.099,0.898l0.096,0.898l0.093,0.899l0.09,0.9l0.088,0.901l0.085,0.902l0.082,0.902l0.079,0.904l0.077,0.904l0.073,0.905l0.071,0.905l0.068,0.907l0.065,0.907l0.063,0.908l0.059,0.909l0.057,0.909l0.054,0.911l0.051,0.911l0.048,0.912l0.045,0.912l0.042,0.914l0.04,0.914l0.037,0.915l0.034,0.915l0.031,0.917l0.028,0.917l0.025,0.918l0.022,0.918l0.019,0.919l0.017,0.92l0.014,0.921l0.01,0.921l0.008,0.922l0.005,0.923l0.002,0.924l-42.82,0.022l-0.001,-0.785l-0.005,-0.785l-0.006,-0.783l-0.009,-0.783l-0.012,-0.783l-0.014,-0.782l-0.016,-0.781l-0.019,-0.781l-0.022,-0.78l-0.024,-0.78l-0.026,-0.779l-0.029,-0.778l-0.031,-0.777l-0.033,-0.777l-0.036,-0.777l-0.039,-0.776l-0.041,-0.775l-0.043,-0.774l-0.046,-0.774l-0.048,-0.773l-0.051,-0.773l-0.053,-0.771l-0.055,-0.772l-0.058,-0.77l-0.06,-0.77l-0.063,-0.769l-0.065,-0.769l-0.067,-0.767l-0.07,-0.767l-0.072,-0.767l-0.074,-0.766l-0.077,-0.765l-0.08,-0.764l-0.081,-0.764l-0.084,-0.763l-0.086,-0.762l-0.089,-0.761l-0.091,-0.761l-0.094,-0.76l-0.095,-0.759l-0.098,-0.759l-0.101,-0.758l-0.102,-0.757l-0.105,-0.756l-0.108,-0.756l-0.109,-0.755l-0.112,-0.754l-0.115,-0.753l-0.116,-0.753l-0.119,-0.752l-0.121,-0.751l-0.124,-0.75l-0.126,-0.75l-0.128,-0.748l-0.13,-0.748l-0.133,-0.747l-0.135,-0.747l-0.137,-0.745l-0.139,-0.745l-0.142,-0.744l-0.144,-0.743l-0.146,-0.743l-0.149,-0.741l-0.151,-0.741l-0.153,-0.74l-0.155,-0.739l-0.157,-0.738l-0.16,-0.738l-0.162,-0.736l-0.164,-0.736l-0.167,-0.735l-0.168,-0.734l-0.171,-0.733l-0.173,-0.733l-0.176,-0.731l-0.177,-0.731l-0.18,-0.73l-0.182,-0.729l-0.184,-0.728l-0.186,-0.727l-0.189,-0.726l-0.19,-0.726l-0.193,-0.724l-0.195,-0.724l-0.197,-0.723l-0.2,-0.721l-0.201,-0.721l-0.204,-0.72l-0.206,-0.72l-0.208,-0.718l-0.21,-0.717l-0.212,-0.716l-0.215,-0.716l-0.216,-0.714l-0.219,-0.714l-0.221,-0.713l-0.223,-0.711l-0.225,-0.711l-0.227,-0.71l-0.23,-0.709l-0.231,-0.708l-0.234,-0.707l-0.235,-0.706l-0.238,-0.705l-0.24,-0.704l-0.242,-0.703l-0.244,-0.702l-0.246,-0.701l-0.248,-0.7l-0.251,-0.7l-0.252,-0.698l-0.254,-0.697l-0.257,-0.696l-0.259,-0.695l-0.26,-0.694l-0.263,-0.694l-0.265,-0.692l-0.267,-0.691l-0.268,-0.69l-0.271,-0.689l-0.273,-0.688l-0.275,-0.687l-0.277,-0.686l-0.279,-0.685l-0.281,-0.684l-0.284,-0.683l-0.285,-0.682l-0.287,-0.681l-0.289,-0.679l-0.291,-0.679l-0.293,-0.677l-0.295,-0.677l-0.297,-0.675l-0.3,-0.675l-0.301,-0.673l-0.303,-0.672l-0.305,-0.671l-0.307,-0.67l-0.309,-0.669l-0.311,-0.668l-0.313,-0.667l-0.315,-0.665l-0.317,-0.665l-0.319,-0.663l-0.32,-0.662l-0.323,-0.662l-0.325,-0.66l-0.326,-0.659l-0.329,-0.657l-0.33,-0.657l-0.333,-0.655l-0.334,-0.655l-0.336,-0.653l-0.338,-0.652l-0.34,-0.651l-0.342,-0.65l-0.344,-0.648l-0.346,-0.648l-0.348,-0.646l-0.349,-0.645l-0.352,-0.644l-0.353,-0.642l-0.355,-0.642l-0.358,-0.64l-0.359,-0.639l-0.36,-0.638l-0.363,-0.637l-0.365,-0.636l-0.366,-0.634l-0.369,-0.633l-0.37,-0.632l-0.372,-0.631l-0.374,-0.629l-0.375,-0.628l-0.378,-0.627l-0.379,-0.626l-0.381,-0.625l-0.383,-0.623l-0.385,-0.622l-0.387,-0.621l-0.389,-0.619l-0.39,-0.618l-0.392,-0.618l-0.394,-0.615l-0.396,-0.615l-0.397,-0.613l-0.399,-0.612l-0.401,-0.611l-0.403,-0.609l-0.405,-0.608l-0.407,-0.607l-0.408,-0.606l-0.41,-0.604l-0.411,-0.603l-0.414,-0.601l-0.415,-0.601l-0.417,-0.599l-0.419,-0.597l-0.421,-0.597l-0.422,-0.595l-0.424,-0.594l-0.426,-0.592l-0.427,-0.591l-0.429,-0.59l-0.431,-0.588l-0.433,-0.587l-0.435,-0.586l-0.436,-0.584l-0.437,-0.583l-0.44,-0.582l-0.441,-0.58l-0.443,-0.579l-0.445,-0.578l-0.446,-0.576l-0.448,-0.575l-0.45,-0.573l-0.451,-0.572l-0.453,-0.571l-0.455,-0.569l-0.456,-0.568l-0.459,-0.566l-0.459,-0.565l-0.462,-0.564l-0.463,-0.562l-0.464,-0.561l-0.467,-0.559l-0.468,-0.558l-0.469,-0.557l-0.472,-0.555l-0.473,-0.553l-0.474,-0.553l-0.476,-0.55l-0.478,-0.55l-0.479,-0.548l-0.481,-0.546l-0.483,-0.545l-0.484,-0.543l-0.486,-0.542l-0.488,-0.541l-0.489,-0.539l-0.49,-0.538l-0.493,-0.536l-0.493,-0.535l-0.496,-0.533l-0.497,-0.532l-0.498,-0.53l-0.5,-0.528l-0.502,-0.528l-0.503,-0.525l-0.505,-0.525l-0.506,-0.522l-0.508,-0.521l-0.51,-0.52l-0.511,-0.518l-0.512,-0.517l-0.514,-0.515l-0.516,-0.513l-0.517,-0.512l-0.519,-0.511l-0.52,-0.509l-0.522,-0.507l-0.523,-0.506l-0.525,-0.504l-0.526,-0.503l-0.527,-0.501l-0.53,-0.5l-0.53,-0.498l-0.533,-0.496l-0.533,-0.495l-0.536,-0.493l-0.536,-0.492l-0.538,-0.49l-0.54,-0.488l-0.541,-0.487l-0.543,-0.485l-0.544,-0.484l-0.545,-0.482l-0.547,-0.481l-0.548,-0.478l-0.55,-0.478l-0.552,-0.475l-0.552,-0.474l-0.554,-0.473l-0.556,-0.47l-0.557,-0.469l-0.558,-0.468l-0.56,-0.466l-0.562,-0.464l-0.562,-0.462l-0.564,-0.461l-0.566,-0.459l-0.567,-0.458l-0.568,-0.455l-0.57,-0.455l-0.571,-0.452l-0.572,-0.451l-0.574,-0.449l-0.575,-0.447l-0.577,-0.446l-0.578,-0.444l-0.579,-0.442l-0.581,-0.441l-0.582,-0.439l-0.584,-0.437l-0.584,-0.436l-0.587,-0.434l-0.587,-0.432l-0.589,-0.43l-0.59,-0.429l-0.592,-0.427l-0.592,-0.425l-0.595,-0.423l-0.595,-0.422l-0.597,-0.42l-0.598,-0.418l-0.599,-0.416l-0.601,-0.415l-0.602,-0.413l-0.604,-0.411l-0.604,-0.409l-0.606,-0.408l-0.608,-0.406l-0.608,-0.404l-0.61,-0.402l-0.611,-0.401l-0.612,-0.398l-0.614,-0.397l-0.615,-0.395l-0.616,-0.393l-0.617,-0.392l-0.619,-0.39l-0.62,-0.387l-0.621,-0.386l-0.623,-0.385l-0.623,-0.382l-0.625,-0.381l-0.627,-0.378l-0.627,-0.377l-0.629,-0.375l-0.629,-0.374l-0.631,-0.371l-0.633,-0.369l-0.633,-0.368l-0.635,-0.366l-0.636,-0.364l-0.637,-0.362l-0.638,-0.36l-0.64,-0.358l-0.64,-0.357l-0.642,-0.354l-0.643,-0.353l-0.645,-0.351l-0.645,-0.349l-0.647,-0.347l-0.647,-0.345l-0.649,-0.343l-0.65,-0.342l-0.652,-0.339l-0.652,-0.337l-0.654,-0.336l-0.654,-0.334l-0.656,-0.331l-0.657,-0.33l-0.658,-0.328l-0.659,-0.326l-0.661,-0.324l-0.661,-0.322l-0.663,-0.32l-0.663,-0.318l-0.665,-0.316l-0.666,-0.315l-0.667,-0.312l-0.668,-0.31l-0.67,-0.309l-0.67,-0.306l-0.671,-0.304l-0.673,-0.303l-0.673,-0.3l-0.675,-0.298l-0.676,-0.297l-0.677,-0.294l-0.678,-0.293l-0.678,-0.29l-0.68,-0.289l-0.682,-0.286l-0.682,-0.284l-0.683,-0.283l-0.684,-0.28l-0.685,-0.279l-0.687,-0.276l-0.687,-0.274l-0.688,-0.272l-0.69,-0.271l-0.69,-0.268l-0.691,-0.266l-0.693,-0.264l-0.693,-0.262l-0.695,-0.26l-0.695,-0.258l-0.697,-0.256l-0.697,-0.253l-0.698,-0.252l-0.7,-0.25l-0.7,-0.247l-0.702,-0.246l-0.702,-0.243l-0.703,-0.241l-0.705,-0.239l-0.705,-0.237l-0.706,-0.235l-0.707,-0.233l-0.709,-0.231l-0.709,-0.228l-0.71,-0.227l-0.711,-0.224l-0.712,-0.223l-0.713,-0.22l-0.713,-0.218l-0.715,-0.215l-0.716,-0.214l-0.717,-0.212l-0.717,-0.209l-0.718,-0.207l-0.72,-0.206l-0.72,-0.202l-0.721,-0.201l-0.722,-0.199l-0.723,-0.196l-0.724,-0.195l-0.725,-0.192l-0.725,-0.19l-0.727,-0.187l-0.727,-0.186l-0.728,-0.183l-0.73,-0.181l-0.73,-0.179l-0.73,-0.177l-0.732,-0.175l-0.733,-0.172l-0.733,-0.17l-0.734,-0.168l-0.735,-0.166l-0.736,-0.163l-0.737,-0.161l-0.738,-0.159l-0.738,-0.157l-0.739,-0.154l-0.741,-0.153l-0.74,-0.15l-0.742,-0.147l-0.743,-0.146l-0.743,-0.143l-0.744,-0.141l-0.745,-0.139l-0.746,-0.136l-0.746,-0.134l-0.748,-0.132l-0.748,-0.13l-0.749,-0.127l-0.749,-0.125l-0.751,-0.123l-0.751,-0.12l-0.752,-0.118l-0.753,-0.116l-0.753,-0.114l-0.754,-0.111l-0.755,-0.109l-0.756,-0.106l-0.757,-0.105l-0.757,-0.102l-0.758,-0.099l-0.758,-0.098l-0.76,-0.094l-0.76,-0.093l-0.761,-0.09l-0.761,-0.088l-0.763,-0.086l-0.763,-0.083l-0.763,-0.081l-0.765,-0.078l-0.765,-0.076l-0.766,-0.074l-0.766,-0.071l-0.767,-0.069l-0.768,-0.067l-0.769,-0.064l-0.769,-0.062l-0.77,-0.059l-0.77,-0.057l-0.772,-0.055l-0.772,-0.052l-0.772,-0.05l-0.773,-0.047l-0.774,-0.045l-0.775,-0.043l-0.775,-0.04l-0.776,-0.037l-0.776,-0.036l-0.777,-0.033l-0.778,-0.03l-0.778,-0.028l-0.779,-0.025l-0.779,-0.023l-0.781,-0.021l-0.78,-0.018l-0.782,-0.016l-0.782,-0.013l-0.782,-0.011l-0.783,-0.008l-0.784,-0.006l-0.784,-0.003l-0.785,-0.001l-0.785,0.002l-0.785,0.004l-0.783,0.006l-0.784,0.009l-0.782,0.012l-0.782,0.014l-0.781,0.017l-0.781,0.018l-0.78,0.022l-0.78,0.024l-0.779,0.026l-0.778,0.029l-0.778,0.031l-0.777,0.034l-0.776,0.036l-0.776,0.038l-0.775,0.041l-0.774,0.043l-0.774,0.046l-0.773,0.048l-0.773,0.051l-0.771,0.053l-0.772,0.055l-0.77,0.058l-0.77,0.06l-0.769,0.063l-0.769,0.065l-0.767,0.067l-0.768,0.07l-0.766,0.072l-0.766,0.075l-0.765,0.077l-0.764,0.079l-0.764,0.081l-0.763,0.084l-0.762,0.087l-0.761,0.088l-0.761,0.091l-0.76,0.094l-0.759,0.095l-0.759,0.098l-0.758,0.101l-0.757,0.103l-0.756,0.105l-0.756,0.107l-0.755,0.11l-0.754,0.112l-0.753,0.114l-0.753,0.117l-0.752,0.118l-0.751,0.122l-0.75,0.123l-0.75,0.126l-0.748,0.128l-0.748,0.13l-0.747,0.133l-0.747,0.135l-0.745,0.137l-0.745,0.14l-0.744,0.141l-0.743,0.144l-0.743,0.147l-0.741,0.148l-0.741,0.151l-0.74,0.153l-0.739,0.155l-0.738,0.158l-0.738,0.159l-0.736,0.162l-0.736,0.165l-0.735,0.166l-0.734,0.169l-0.733,0.171l-0.733,0.173l-0.731,0.175l-0.731,0.177l-0.73,0.18l-0.729,0.182l-0.728,0.184l-0.727,0.186l-0.726,0.189l-0.726,0.191l-0.724,0.192l-0.724,0.195l-0.723,0.198l-0.721,0.199l-0.721,0.202l-0.72,0.203l-0.72,0.206l-0.718,0.208l-0.717,0.21l-0.716,0.212l-0.716,0.215l-0.714,0.217l-0.714,0.218l-0.713,0.221l-0.711,0.223l-0.711,0.225l-0.71,0.227l-0.709,0.23l-0.708,0.231l-0.707,0.234l-0.706,0.235l-0.705,0.238l-0.704,0.24l-0.703,0.242l-0.702,0.244l-0.701,0.246l-0.7,0.249l-0.7,0.25l-0.698,0.252l-0.697,0.255l-0.696,0.256l-0.695,0.259l-0.695,0.261l-0.693,0.262l-0.692,0.265l-0.691,0.267l-0.69,0.269l-0.689,0.271l-0.688,0.273l-0.687,0.275l-0.686,0.277l-0.685,0.279l-0.684,0.281l-0.683,0.283l-0.682,0.285l-0.681,0.287l-0.679,0.289l-0.679,0.291l-0.677,0.293l-0.677,0.296l-0.675,0.297l-0.675,0.299l-0.673,0.301l-0.672,0.303l-0.671,0.305l-0.67,0.307l-0.669,0.309l-0.668,0.311l-0.667,0.313l-0.665,0.315l-0.665,0.317l-0.663,0.319l-0.663,0.321l-0.661,0.322l-0.66,0.325l-0.659,0.327l-0.657,0.328l-0.657,0.331l-0.655,0.332l-0.655,0.334l-0.653,0.336l-0.652,0.339l-0.651,0.34l-0.65,0.342l-0.648,0.344l-0.648,0.345l-0.646,0.348l-0.645,0.35l-0.644,0.351l-0.642,0.353l-0.642,0.356l-0.64,0.357l-0.639,0.359l-0.638,0.361l-0.637,0.362l-0.636,0.365l-0.634,0.366l-0.633,0.369l-0.632,0.37l-0.631,0.372l-0.629,0.374l-0.628,0.376l-0.627,0.377l-0.626,0.379l-0.625,0.382l-0.623,0.383l-0.622,0.385l-0.621,0.386l-0.619,0.389l-0.619,0.39l-0.617,0.392l-0.615,0.394l-0.615,0.396l-0.613,0.397l-0.612,0.4l-0.611,0.401l-0.609,0.403l-0.608,0.404l-0.607,0.407l-0.606,0.408l-0.604,0.41l-0.603,0.412l-0.601,0.413l-0.601,0.416l-0.599,0.417l-0.597,0.418l-0.597,0.421l-0.595,0.422l-0.594,0.424l-0.592,0.426l-0.591,0.427l-0.59,0.43l-0.588,0.431l-0.587,0.432l-0.586,0.435l-0.584,0.436l-0.583,0.438l-0.582,0.439l-0.58,0.441l-0.579,0.443l-0.578,0.445l-0.576,0.446l-0.575,0.448l-0.573,0.45l-0.572,0.451l-0.571,0.454l-0.569,0.454l-0.568,0.457l-0.566,0.458l-0.565,0.459l-0.564,0.462l-0.562,0.463l-0.561,0.465l-0.559,0.466l-0.558,0.468l-0.557,0.47l-0.555,0.471l-0.553,0.473l-0.553,0.474l-0.55,0.477l-0.55,0.477l-0.548,0.48l-0.546,0.481l-0.545,0.482l-0.543,0.485l-0.543,0.485l-0.54,0.488l-0.539,0.489l-0.538,0.491l-0.536,0.492l-0.535,0.494l-0.533,0.495l-0.532,0.497l-0.53,0.498l-0.529,0.501l-0.527,0.501l-0.525,0.503l-0.525,0.505l-0.522,0.507l-0.522,0.507l-0.519,0.51l-0.518,0.511l-0.517,0.512l-0.515,0.515l-0.513,0.515l-0.512,0.517l-0.511,0.519l-0.509,0.52l-0.507,0.522l-0.506,0.523l-0.504,0.525l-0.503,0.526l-0.501,0.528l-0.5,0.529l-0.498,0.531l-0.496,0.532l-0.495,0.534l-0.493,0.535l-0.492,0.536l-0.49,0.539l-0.488,0.539l-0.487,0.541l-0.486,0.543l-0.483,0.544l-0.482,0.545l-0.481,0.547l-0.479,0.549l-0.477,0.549l-0.475,0.552l-0.474,0.552l-0.473,0.555l-0.47,0.555l-0.469,0.557l-0.468,0.559l-0.466,0.559l-0.464,0.562l-0.462,0.562l-0.461,0.565l-0.459,0.565l-0.458,0.567l-0.455,0.568l-0.455,0.57l-0.452,0.571l-0.451,0.572l-0.449,0.574l-0.447,0.576l-0.446,0.576l-0.444,0.578l-0.443,0.58l-0.44,0.58l-0.439,0.582l-0.437,0.584l-0.436,0.585l-0.434,0.586l-0.432,0.587l-0.43,0.589l-0.429,0.59l-0.427,0.592l-0.425,0.593l-0.423,0.594l-0.422,0.595l-0.42,0.597l-0.418,0.598l-0.416,0.6l-0.415,0.6l-0.413,0.602l-0.411,0.604l-0.409,0.605l-0.408,0.605l-0.406,0.608l-0.404,0.608l-0.402,0.61l-0.401,0.611l-0.398,0.613l-0.397,0.613l-0.395,0.615l-0.394,0.616l-0.391,0.618l-0.39,0.618l-0.388,0.62l-0.386,0.622l-0.384,0.622l-0.382,0.624l-0.381,0.625l-0.378,0.626l-0.377,0.627l-0.375,0.629l-0.374,0.63l-0.371,0.631l-0.369,0.632l-0.368,0.633l-0.366,0.635l-0.364,0.636l-0.362,0.637l-0.36,0.638l-0.359,0.64l-0.356,0.641l-0.355,0.642l-0.352,0.643l-0.351,0.644l-0.349,0.645l-0.347,0.647l-0.345,0.648l-0.343,0.649l-0.342,0.65l-0.339,0.651l-0.337,0.652l-0.336,0.654l-0.334,0.654l-0.331,0.656l-0.33,0.657l-0.328,0.658l-0.326,0.66l-0.324,0.66l-0.322,0.661l-0.32,0.663l-0.318,0.664l-0.316,0.664l-0.315,0.666l-0.312,0.667l-0.31,0.669l-0.309,0.669l-0.306,0.67l-0.304,0.672l-0.303,0.672l-0.3,0.674l-0.299,0.674l-0.296,0.676l-0.294,0.677l-0.293,0.678l-0.29,0.679l-0.289,0.68l-0.286,0.681l-0.285,0.682l-0.282,0.683l-0.28,0.684l-0.279,0.685l-0.276,0.687l-0.274,0.687l-0.272,0.688l-0.271,0.69l-0.268,0.69l-0.266,0.692l-0.264,0.692l-0.262,0.693l-0.26,0.695l-0.258,0.695l-0.256,0.697l-0.253,0.697l-0.252,0.699l-0.25,0.699l-0.247,0.701l-0.246,0.701l-0.243,0.702l-0.241,0.704l-0.239,0.704l-0.237,0.705l-0.235,0.707l-0.233,0.707l-0.231,0.708l-0.228,0.709l-0.227,0.71l-0.224,0.711l-0.223,0.712l-0.22,0.713l-0.218,0.714l-0.216,0.714l-0.213,0.716l-0.212,0.717l-0.209,0.717l-0.207,0.719l-0.206,0.719l-0.203,0.72l-0.2,0.721l-0.199,0.722l-0.196,0.723l-0.195,0.724l-0.192,0.725l-0.19,0.726l-0.187,0.726l-0.186,0.727l-0.183,0.729l-0.181,0.729l-0.179,0.73l-0.177,0.731l-0.175,0.731l-0.172,0.733l-0.17,0.733l-0.168,0.735l-0.166,0.735l-0.163,0.736l-0.161,0.736l-0.159,0.738l-0.157,0.738l-0.154,0.74l-0.153,0.74l-0.15,0.741l-0.147,0.741l-0.146,0.743l-0.143,0.743l-0.141,0.744l-0.139,0.745l-0.136,0.746l-0.134,0.747l-0.132,0.747l-0.13,0.748l-0.127,0.749l-0.125,0.75l-0.123,0.75l-0.12,0.751l-0.119,0.752l-0.115,0.753l-0.114,0.753l-0.111,0.755l-0.109,0.755l-0.107,0.755l-0.104,0.757l-0.102,0.757l-0.099,0.758l-0.098,0.759l-0.095,0.759l-0.092,0.76l-0.09,0.761l-0.088,0.762l-0.086,0.762l-0.083,0.763l-0.081,0.764l-0.078,0.764l-0.076,0.765l-0.074,0.766l-0.071,0.766l-0.069,0.768l-0.067,0.767l-0.064,0.769l-0.062,0.769l-0.059,0.77l-0.057,0.771l-0.055,0.771l-0.052,0.772l-0.05,0.772l-0.047,0.774l-0.045,0.773l-0.043,0.775l-0.04,0.775l-0.038,0.776l-0.035,0.776l-0.033,0.777l-0.03,0.778l-0.028,0.778l-0.025,0.779l-0.023,0.78l-0.021,0.78l-0.018,0.781l-0.016,0.781l-0.013,0.782l-0.011,0.782l-0.008,0.784l-0.006,0.783l-0.003,0.785l-0.001,0.785l-42.82,0.022l0.001,-0.924l0.004,-0.922l0.007,-0.922l0.01,-0.922l0.012,-0.921l0.016,-0.919l0.018,-0.92l0.022,-0.918l0.024,-0.918l0.027,-0.917l0.03,-0.917l0.033,-0.915l0.036,-0.915l0.038,-0.914l0.042,-0.914l0.044,-0.912l0.047,-0.912l0.05,-0.911l0.053,-0.911l0.056,-0.91l0.059,-0.908l0.061,-0.909l0.064,-0.907l0.067,-0.906l0.07,-0.906l0.073,-0.905l0.076,-0.904l0.078,-0.904l0.081,-0.902l0.084,-0.902l0.087,-0.901l0.089,-0.9l0.092,-0.899l0.095,-0.899l0.098,-0.897l0.101,-0.897l0.103,-0.896l0.106,-0.895l0.109,-0.895l0.112,-0.893l0.114,-0.893l0.118,-0.891l0.12,-0.891l0.122,-0.89l0.126,-0.889l0.128,-0.888l0.131,-0.888l0.133,-0.886l0.136,-0.886l0.139,-0.884l0.142,-0.884l0.144,-0.883l0.147,-0.882l0.15,-0.881l0.153,-0.88l0.155,-0.879l0.158,-0.879l0.16,-0.877l0.163,-0.876l0.166,-0.876l0.169,-0.874l0.171,-0.874l0.174,-0.872l0.176,-0.872l0.179,-0.871l0.182,-0.87l0.185,-0.868l0.187,-0.868l0.189,-0.867l0.192,-0.866l0.195,-0.865l0.198,-0.863l0.2,-0.863l0.203,-0.862l0.205,-0.861l0.208,-0.86l0.211,-0.858l0.213,-0.858l0.215,-0.857l0.219,-0.856l0.22,-0.854l0.224,-0.854l0.226,-0.853l0.228,-0.851l0.232,-0.851l0.233,-0.849l0.236,-0.849l0.239,-0.847l0.242,-0.846l0.243,-0.846l0.247,-0.844l0.249,-0.843l0.251,-0.842l0.254,-0.841l0.256,-0.839l0.259,-0.839l0.262,-0.838l0.264,-0.836l0.266,-0.836l0.269,-0.834l0.272,-0.833l0.274,-0.832l0.276,-0.831l0.279,-0.83l0.281,-0.828l0.284,-0.828l0.286,-0.826l0.289,-0.825l0.291,-0.824l0.294,-0.823l0.296,-0.822l0.298,-0.82l0.301,-0.82l0.304,-0.818l0.306,-0.817l0.308,-0.816l0.311,-0.814l0.313,-0.814l0.315,-0.812l0.318,-0.811l0.32,-0.81l0.323,-0.808l0.325,-0.808l0.327,-0.806l0.33,-0.805l0.333,-0.803l0.334,-0.803l0.337,-0.801l0.339,-0.8l0.342,-0.799l0.344,-0.797l0.347,-0.797l0.348,-0.795l0.351,-0.793l0.354,-0.793l0.356,-0.791l0.358,-0.79l0.36,-0.789l0.363,-0.787l0.365,-0.786l0.367,-0.785l0.37,-0.783l0.372,-0.782l0.374,-0.781l0.377,-0.78l0.379,-0.778l0.381,-0.777l0.383,-0.775l0.386,-0.775l0.388,-0.772l0.39,-0.772l0.393,-0.77l0.395,-0.769l0.397,-0.768l0.399,-0.766l0.401,-0.765l0.404,-0.763l0.406,-0.762l0.408,-0.761l0.411,-0.759l0.413,-0.758l0.415,-0.756l0.417,-0.756l0.419,-0.753l0.422,-0.753l0.423,-0.751l0.426,-0.749l0.429,-0.748l0.43,-0.747l0.432,-0.745l0.435,-0.744l0.437,-0.743l0.439,-0.741l0.441,-0.739l0.444,-0.738l0.445,-0.737l0.448,-0.735l0.45,-0.734l0.452,-0.732l0.454,-0.731l0.456,-0.729l0.459,-0.728l0.46,-0.727l0.463,-0.725l0.465,-0.723l0.467,-0.722l0.469,-0.72l0.471,-0.719l0.473,-0.718l0.476,-0.716l0.477,-0.714l0.48,-0.713l0.481,-0.711l0.484,-0.71l0.486,-0.708l0.487,-0.707l0.49,-0.705l0.492,-0.704l0.494,-0.702l0.496,-0.701l0.499,-0.699l0.5,-0.697l0.502,-0.696l0.504,-0.695l0.507,-0.692l0.508,-0.691l0.51,-0.69l0.513,-0.688l0.514,-0.686l0.516,-0.685l0.519,-0.683l0.52,-0.682l0.523,-0.68l0.524,-0.678l0.526,-0.677l0.529,-0.675l0.53,-0.674l0.532,-0.672l0.535,-0.67l0.536,-0.669l0.538,-0.666l0.54,-0.666l0.542,-0.663l0.545,-0.662l0.546,-0.661l0.548,-0.658l0.549,-0.657l0.552,-0.656l0.554,-0.653l0.556,-0.652l0.557,-0.65l0.56,-0.649l0.561,-0.647l0.564,-0.645l0.565,-0.643l0.567,-0.642l0.569,-0.64l0.571,-0.639l0.573,-0.636l0.574,-0.635l0.577,-0.633l0.578,-0.631l0.581,-0.63l0.582,-0.628l0.584,-0.626l0.586,-0.624l0.587,-0.623l0.59,-0.621l0.591,-0.619l0.594,-0.617l0.595,-0.616l0.597,-0.614l0.598,-0.612l0.601,-0.61l0.602,-0.608l0.604,-0.607l0.606,-0.605l0.608,-0.603l0.61,-0.601l0.611,-0.599l0.613,-0.598l0.615,-0.595l0.617,-0.594l0.618,-0.592l0.621,-0.59l0.622,-0.589l0.623,-0.586l0.626,-0.585l0.627,-0.583l0.629,-0.581l0.631,-0.579l0.632,-0.577l0.635,-0.575l0.636,-0.574l0.637,-0.571l0.64,-0.57l0.641,-0.568l0.643,-0.566l0.644,-0.564l0.647,-0.562l0.648,-0.56l0.649,-0.558l0.652,-0.557l0.653,-0.554l0.655,-0.553l0.656,-0.55l0.658,-0.549l0.66,-0.547l0.661,-0.544l0.663,-0.543l0.665,-0.541l0.666,-0.539l0.668,-0.537l0.67,-0.535l0.671,-0.533l0.673,-0.531l0.675,-0.529l0.676,-0.527l0.678,-0.525l0.679,-0.523l0.682,-0.521l0.682,-0.52l0.684,-0.517l0.686,-0.515l0.688,-0.513l0.689,-0.511l0.69,-0.509l0.693,-0.507l0.694,-0.505l0.695,-0.503l0.697,-0.501l0.698,-0.499l0.7,-0.496l0.702,-0.495l0.703,-0.493l0.705,-0.49l0.706,-0.489l0.708,-0.487l0.709,-0.484l0.711,-0.482l0.713,-0.481l0.714,-0.478l0.715,-0.476l0.717,-0.474l0.718,-0.472l0.72,-0.469l0.722,-0.468l0.723,-0.466l0.724,-0.463l0.726,-0.461l0.727,-0.46l0.729,-0.457l0.731,-0.455l0.732,-0.452l0.733,-0.451l0.735,-0.448l0.736,-0.447l0.737,-0.444l0.739,-0.442l0.741,-0.44l0.742,-0.437l0.743,-0.436l0.745,-0.433l0.746,-0.431l0.748,-0.429l0.749,-0.427l0.751,-0.425l0.752,-0.422l0.753,-0.42l0.755,-0.418l0.756,-0.416l0.757,-0.413l0.759,-0.412l0.76,-0.409l0.762,-0.406l0.763,-0.405l0.765,-0.402l0.765,-0.4l0.767,-0.398l0.769,-0.396l0.77,-0.393l0.771,-0.391l0.772,-0.389l0.774,-0.386l0.775,-0.385l0.777,-0.382l0.778,-0.379l0.779,-0.378l0.78,-0.375l0.782,-0.373l0.783,-0.37l0.784,-0.368l0.786,-0.366l0.787,-0.364l0.788,-0.361l0.79,-0.359l0.791,-0.356l0.792,-0.355l0.793,-0.352l0.795,-0.349l0.796,-0.347l0.797,-0.345l0.798,-0.343l0.8,-0.34l0.801,-0.338l0.802,-0.335l0.803,-0.333l0.805,-0.331l0.806,-0.328l0.807,-0.326l0.808,-0.324l0.809,-0.321l0.811,-0.318l0.812,-0.317l0.813,-0.314l0.814,-0.311l0.816,-0.309l0.817,-0.307l0.817,-0.304l0.819,-0.302l0.821,-0.299l0.821,-0.297l0.823,-0.295l0.823,-0.292l0.825,-0.289l0.826,-0.288l0.827,-0.284l0.829,-0.282l0.829,-0.28l0.831,-0.277l0.831,-0.275l0.833,-0.272l0.834,-0.27l0.835,-0.268l0.837,-0.264l0.837,-0.263l0.838,-0.26l0.84,-0.257l0.841,-0.255l0.841,-0.252l0.843,-0.25l0.844,-0.247l0.845,-0.245l0.846,-0.242l0.847,-0.24l0.848,-0.237l0.849,-0.234l0.851,-0.232l0.851,-0.23l0.852,-0.226l0.854,-0.225l0.854,-0.222l0.856,-0.219l0.856,-0.216l0.858,-0.214l0.858,-0.212l0.86,-0.208l0.861,-0.207l0.861,-0.203l0.863,-0.201l0.864,-0.199l0.864,-0.196l0.866,-0.193l0.866,-0.19l0.868,-0.188l0.869,-0.186l0.869,-0.182l0.871,-0.18l0.871,-0.178l0.872,-0.174l0.874,-0.172l0.874,-0.17l0.875,-0.167l0.877,-0.164l0.877,-0.161l0.878,-0.159l0.879,-0.156l0.88,-0.153l0.881,-0.151l0.882,-0.148l0.882,-0.145l0.884,-0.143l0.884,-0.14l0.886,-0.137l0.886,-0.134l0.887,-0.132l0.888,-0.129l0.889,-0.126l0.89,-0.124l0.891,-0.121l0.892,-0.118l0.892,-0.115l0.893,-0.113l0.895,-0.11l0.895,-0.107l0.895,-0.104l0.897,-0.102l0.898,-0.098l0.898,-0.096l0.899,-0.094l0.9,-0.09l0.901,-0.088l0.902,-0.085l0.902,-0.082l0.904,-0.079l0.904,-0.076l0.905,-0.074l0.905,-0.071l0.907,-0.068l0.907,-0.065l0.908,-0.062l0.909,-0.06l0.909,-0.057l0.911,-0.053l0.911,-0.051l0.912,-0.049l0.912,-0.045l0.914,-0.042l0.914,-0.04l0.915,-0.036l0.915,-0.034l0.917,-0.031l0.917,-0.028l0.918,-0.026l0.918,-0.022l0.919,-0.019l0.92,-0.017l0.921,-0.013l0.921,-0.011l0.922,-0.008l0.923,-0.005l0.923,-0.002l0.924,0.001Zm-1.822,6.811l-0.901,0.005l-0.901,0.007l-0.899,0.011l-0.899,0.013l-0.899,0.016l-0.897,0.019l-0.897,0.022l-0.897,0.025l-0.895,0.027l-0.895,0.03l-0.894,0.033l-0.893,0.036l-0.893,0.039l-0.892,0.041l-0.891,0.044l-0.89,0.047l-0.89,0.05l-0.889,0.053l-0.888,0.055l-0.887,0.058l-0.887,0.061l-0.886,0.064l-0.885,0.066l-0.884,0.069l-0.883,0.072l-0.883,0.075l-0.882,0.077l-0.881,0.08l-0.88,0.083l-0.88,0.086l-0.878,0.088l-0.878,0.091l-0.877,0.094l-0.876,0.096l-0.876,0.099l-0.874,0.102l-0.874,0.105l-0.873,0.107l-0.872,0.11l-0.871,0.112l-0.87,0.116l-0.87,0.117l-0.868,0.121l-0.868,0.123l-0.867,0.126l-0.866,0.129l-0.865,0.131l-0.864,0.134l-0.864,0.137l-0.862,0.139l-0.862,0.142l-0.86,0.144l-0.86,0.147l-0.859,0.15l-0.858,0.152l-0.857,0.155l-0.856,0.158l-0.856,0.16l-0.854,0.163l-0.853,0.165l-0.853,0.168l-0.851,0.17l-0.851,0.174l-0.849,0.175l-0.849,0.179l-0.848,0.18l-0.847,0.184l-0.845,0.186l-0.845,0.188l-0.844,0.191l-0.843,0.194l-0.842,0.196l-0.841,0.199l-0.84,0.201l-0.839,0.204l-0.838,0.206l-0.837,0.209l-0.836,0.212l-0.835,0.214l-0.833,0.216l-0.833,0.219l-0.832,0.221l-0.831,0.224l-0.83,0.227l-0.829,0.229l-0.828,0.231l-0.826,0.234l-0.826,0.236l-0.825,0.239l-0.823,0.241l-0.823,0.244l-0.821,0.246l-0.821,0.249l-0.819,0.251l-0.818,0.254l-0.817,0.256l-0.817,0.258l-0.815,0.261l-0.813,0.263l-0.813,0.266l-0.812,0.268l-0.811,0.271l-0.809,0.273l-0.809,0.275l-0.807,0.278l-0.806,0.28l-0.805,0.283l-0.804,0.285l-0.803,0.287l-0.801,0.29l-0.801,0.292l-0.799,0.295l-0.798,0.297l-0.798,0.299l-0.795,0.302l-0.795,0.304l-0.794,0.306l-0.792,0.309l-0.791,0.311l-0.79,0.313l-0.789,0.316l-0.788,0.318l-0.786,0.321l-0.786,0.322l-0.784,0.325l-0.783,0.328l-0.781,0.329l-0.781,0.332l-0.779,0.335l-0.778,0.336l-0.777,0.339l-0.775,0.341l-0.775,0.344l-0.773,0.346l-0.772,0.348l-0.77,0.35l-0.77,0.353l-0.768,0.354l-0.766,0.357l-0.766,0.36l-0.764,0.361l-0.763,0.364l-0.762,0.366l-0.761,0.369l-0.759,0.37l-0.758,0.373l-0.756,0.375l-0.756,0.377l-0.754,0.38l-0.752,0.382l-0.752,0.384l-0.75,0.386l-0.748,0.388l-0.748,0.39l-0.746,0.393l-0.745,0.395l-0.743,0.397l-0.742,0.399l-0.741,0.402l-0.739,0.403l-0.738,0.406l-0.737,0.408l-0.735,0.41l-0.734,0.413l-0.733,0.414l-0.731,0.416l-0.73,0.419l-0.728,0.421l-0.727,0.423l-0.726,0.425l-0.724,0.427l-0.723,0.43l-0.722,0.431l-0.72,0.434l-0.718,0.435l-0.718,0.438l-0.715,0.44l-0.715,0.442l-0.713,0.444l-0.711,0.446l-0.71,0.448l-0.709,0.451l-0.707,0.452l-0.706,0.455l-0.704,0.456l-0.703,0.459l-0.701,0.46l-0.7,0.463l-0.698,0.465l-0.697,0.467l-0.696,0.468l-0.694,0.471l-0.692,0.473l-0.691,0.475l-0.69,0.477l-0.688,0.479l-0.686,0.481l-0.685,0.483l-0.683,0.485l-0.682,0.487l-0.681,0.489l-0.678,0.491l-0.678,0.493l-0.676,0.495l-0.674,0.497l-0.672,0.499l-0.672,0.501l-0.669,0.502l-0.668,0.505l-0.667,0.507l-0.664,0.509l-0.664,0.51l-0.661,0.513l-0.661,0.515l-0.658,0.516l-0.657,0.518l-0.656,0.521l-0.653,0.522l-0.652,0.524l-0.651,0.526l-0.649,0.528l-0.647,0.53l-0.646,0.532l-0.644,0.534l-0.643,0.536l-0.64,0.537l-0.64,0.54l-0.637,0.541l-0.636,0.543l-0.634,0.545l-0.633,0.547l-0.631,0.549l-0.629,0.55l-0.628,0.553l-0.626,0.554l-0.624,0.556l-0.623,0.558l-0.621,0.56l-0.619,0.562l-0.617,0.563l-0.616,0.566l-0.614,0.567l-0.613,0.569l-0.61,0.571l-0.609,0.572l-0.608,0.575l-0.605,0.576l-0.604,0.578l-0.602,0.58l-0.6,0.581l-0.599,0.584l-0.597,0.585l-0.595,0.587l-0.593,0.588l-0.592,0.591l-0.59,0.592l-0.588,0.594l-0.586,0.596l-0.585,0.597l-0.582,0.599l-0.581,0.601l-0.58,0.603l-0.577,0.605l-0.576,0.606l-0.573,0.608l-0.572,0.609l-0.57,0.611l-0.569,0.613l-0.566,0.615l-0.565,0.617l-0.563,0.618l-0.561,0.619l-0.559,0.622l-0.558,0.623l-0.555,0.625l-0.554,0.626l-0.552,0.629l-0.55,0.629l-0.548,0.632l-0.546,0.633l-0.544,0.635l-0.543,0.636l-0.54,0.639l-0.539,0.639l-0.537,0.642l-0.535,0.643l-0.533,0.644l-0.531,0.647l-0.53,0.647l-0.527,0.65l-0.525,0.651l-0.524,0.653l-0.521,0.654l-0.52,0.656l-0.518,0.658l-0.516,0.659l-0.514,0.66l-0.512,0.663l-0.51,0.663l-0.508,0.666l-0.506,0.667l-0.504,0.668l-0.502,0.67l-0.5,0.672l-0.498,0.673l-0.497,0.675l-0.494,0.676l-0.492,0.678l-0.49,0.679l-0.489,0.681l-0.486,0.683l-0.484,0.684l-0.482,0.685l-0.481,0.687l-0.478,0.689l-0.476,0.689l-0.474,0.692l-0.473,0.693l-0.47,0.694l-0.468,0.696l-0.466,0.698l-0.464,0.698l-0.462,0.701l-0.46,0.702l-0.458,0.703l-0.456,0.705l-0.453,0.706l-0.452,0.707l-0.449,0.71l-0.448,0.71l-0.445,0.712l-0.444,0.713l-0.441,0.715l-0.439,0.717l-0.437,0.717l-0.435,0.719l-0.433,0.721l-0.431,0.722l-0.428,0.723l-0.427,0.725l-0.424,0.726l-0.422,0.727l-0.42,0.729l-0.418,0.73l-0.416,0.732l-0.414,0.733l-0.411,0.734l-0.41,0.736l-0.407,0.737l-0.405,0.739l-0.403,0.739l-0.4,0.742l-0.399,0.742l-0.396,0.744l-0.394,0.745l-0.392,0.747l-0.39,0.747l-0.387,0.75l-0.386,0.75l-0.383,0.752l-0.381,0.753l-0.378,0.754l-0.377,0.756l-0.374,0.757l-0.372,0.758l-0.37,0.76l-0.368,0.761l-0.365,0.762l-0.363,0.763l-0.361,0.765l-0.358,0.766l-0.357,0.767l-0.354,0.768l-0.351,0.77l-0.35,0.771l-0.347,0.772l-0.345,0.774l-0.343,0.774l-0.34,0.776l-0.338,0.778l-0.336,0.778l-0.334,0.78l-0.331,0.78l-0.329,0.782l-0.326,0.784l-0.324,0.784l-0.322,0.786l-0.32,0.786l-0.317,0.788l-0.315,0.79l-0.313,0.79l-0.31,0.791l-0.308,0.793l-0.305,0.794l-0.304,0.795l-0.3,0.796l-0.299,0.798l-0.296,0.798l-0.294,0.8l-0.291,0.801l-0.289,0.802l-0.287,0.803l-0.284,0.804l-0.282,0.805l-0.279,0.807l-0.277,0.807l-0.275,0.809l-0.272,0.81l-0.27,0.811l-0.267,0.812l-0.265,0.813l-0.262,0.814l-0.26,0.815l-0.258,0.817l-0.255,0.817l-0.253,0.819l-0.25,0.819l-0.248,0.821l-0.245,0.822l-0.243,0.822l-0.241,0.824l-0.238,0.825l-0.235,0.826l-0.233,0.827l-0.231,0.828l-0.228,0.829l-0.225,0.83l-0.223,0.831l-0.221,0.832l-0.218,0.834l-0.216,0.834l-0.213,0.835l-0.21,0.836l-0.208,0.837l-0.206,0.838l-0.203,0.84l-0.2,0.84l-0.198,0.841l-0.195,0.842l-0.193,0.843l-0.19,0.844l-0.188,0.845l-0.185,0.846l-0.182,0.847l-0.18,0.848l-0.178,0.849l-0.175,0.85l-0.172,0.85l-0.169,0.852l-0.168,0.853l-0.164,0.853l-0.162,0.855l-0.159,0.855l-0.157,0.856l-0.154,0.858l-0.151,0.858l-0.149,0.859l-0.146,0.86l-0.144,0.861l-0.141,0.861l-0.138,0.863l-0.136,0.863l-0.133,0.865l-0.13,0.865l-0.128,0.866l-0.125,0.867l-0.122,0.868l-0.12,0.869l-0.117,0.869l-0.114,0.871l-0.112,0.871l-0.109,0.872l-0.106,0.873l-0.104,0.874l-0.101,0.875l-0.098,0.875l-0.096,0.876l-0.093,0.878l-0.09,0.878l-0.087,0.878l-0.085,0.88l-0.082,0.88l-0.079,0.881l-0.076,0.882l-0.074,0.883l-0.071,0.883l-0.068,0.885l-0.066,0.885l-0.062,0.886l-0.06,0.886l-0.058,0.888l-0.054,0.888l-0.052,0.889l-0.049,0.889l-0.046,0.891l-0.043,0.891l-0.04,0.892l-0.038,0.893l-0.035,0.893l-0.032,0.894l-0.029,0.895l-0.027,0.895l-0.024,0.897l-0.009,0.385l29.21,-0.015l0.011,-0.427l0.024,-0.801l0.026,-0.8l0.029,-0.8l0.031,-0.799l0.034,-0.799l0.036,-0.798l0.039,-0.797l0.041,-0.797l0.044,-0.796l0.046,-0.795l0.049,-0.795l0.051,-0.794l0.054,-0.793l0.056,-0.793l0.058,-0.792l0.062,-0.791l0.063,-0.791l0.066,-0.79l0.068,-0.789l0.071,-0.789l0.074,-0.788l0.075,-0.787l0.079,-0.787l0.08,-0.785l0.083,-0.785l0.086,-0.785l0.088,-0.783l0.09,-0.783l0.093,-0.782l0.095,-0.782l0.098,-0.781l0.1,-0.78l0.102,-0.779l0.105,-0.778l0.107,-0.778l0.11,-0.777l0.111,-0.776l0.115,-0.776l0.116,-0.774l0.12,-0.774l0.121,-0.773l0.124,-0.773l0.126,-0.771l0.129,-0.771l0.13,-0.77l0.134,-0.769l0.135,-0.768l0.138,-0.768l0.141,-0.767l0.142,-0.766l0.145,-0.765l0.147,-0.764l0.15,-0.763l0.152,-0.763l0.154,-0.762l0.157,-0.761l0.159,-0.76l0.161,-0.759l0.163,-0.759l0.166,-0.757l0.168,-0.757l0.17,-0.756l0.173,-0.755l0.175,-0.754l0.177,-0.753l0.18,-0.753l0.181,-0.751l0.184,-0.751l0.187,-0.75l0.188,-0.748l0.191,-0.748l0.193,-0.747l0.195,-0.746l0.198,-0.746l0.199,-0.744l0.202,-0.743l0.205,-0.743l0.206,-0.741l0.209,-0.741l0.211,-0.74l0.213,-0.738l0.215,-0.738l0.218,-0.737l0.219,-0.736l0.222,-0.735l0.225,-0.734l0.226,-0.733l0.228,-0.732l0.231,-0.731l0.233,-0.73l0.235,-0.73l0.237,-0.728l0.24,-0.727l0.241,-0.726l0.244,-0.725l0.246,-0.725l0.248,-0.723l0.25,-0.722l0.253,-0.721l0.254,-0.721l0.257,-0.719l0.259,-0.718l0.261,-0.717l0.263,-0.716l0.265,-0.716l0.267,-0.714l0.27,-0.713l0.271,-0.712l0.274,-0.711l0.275,-0.71l0.278,-0.708l0.28,-0.708l0.282,-0.707l0.284,-0.706l0.287,-0.704l0.288,-0.704l0.29,-0.702l0.293,-0.702l0.294,-0.7l0.297,-0.699l0.298,-0.698l0.301,-0.697l0.303,-0.696l0.305,-0.695l0.306,-0.694l0.309,-0.692l0.311,-0.692l0.313,-0.69l0.315,-0.689l0.317,-0.688l0.319,-0.687l0.321,-0.686l0.323,-0.685l0.326,-0.683l0.327,-0.683l0.329,-0.681l0.331,-0.68l0.333,-0.679l0.335,-0.678l0.337,-0.677l0.339,-0.675l0.341,-0.674l0.343,-0.674l0.345,-0.671l0.347,-0.671l0.349,-0.67l0.351,-0.668l0.353,-0.667l0.355,-0.666l0.357,-0.665l0.358,-0.664l0.361,-0.662l0.363,-0.661l0.364,-0.66l0.367,-0.659l0.368,-0.657l0.371,-0.656l0.372,-0.656l0.374,-0.653l0.376,-0.653l0.378,-0.651l0.38,-0.65l0.382,-0.649l0.383,-0.647l0.386,-0.647l0.387,-0.645l0.39,-0.643l0.391,-0.643l0.393,-0.641l0.395,-0.64l0.397,-0.639l0.399,-0.637l0.4,-0.636l0.403,-0.635l0.404,-0.633l0.406,-0.632l0.408,-0.631l0.41,-0.63l0.412,-0.628l0.413,-0.627l0.416,-0.626l0.417,-0.624l0.419,-0.623l0.421,-0.621l0.422,-0.621l0.425,-0.618l0.426,-0.618l0.428,-0.616l0.43,-0.615l0.432,-0.614l0.433,-0.612l0.436,-0.611l0.437,-0.609l0.438,-0.608l0.441,-0.607l0.442,-0.605l0.445,-0.604l0.445,-0.603l0.448,-0.601l0.45,-0.599l0.451,-0.599l0.453,-0.597l0.454,-0.595l0.457,-0.594l0.458,-0.593l0.46,-0.591l0.462,-0.59l0.463,-0.589l0.465,-0.587l0.467,-0.586l0.469,-0.584l0.47,-0.582l0.472,-0.582l0.474,-0.58l0.475,-0.578l0.477,-0.577l0.479,-0.575l0.48,-0.574l0.482,-0.573l0.484,-0.571l0.486,-0.57l0.487,-0.568l0.489,-0.567l0.49,-0.565l0.493,-0.563l0.493,-0.563l0.496,-0.56l0.497,-0.559l0.499,-0.558l0.5,-0.556l0.502,-0.555l0.504,-0.553l0.506,-0.552l0.507,-0.55l0.508,-0.549l0.51,-0.547l0.512,-0.545l0.514,-0.544l0.515,-0.543l0.517,-0.54l0.518,-0.54l0.52,-0.538l0.521,-0.536l0.524,-0.535l0.524,-0.533l0.526,-0.531l0.528,-0.53l0.53,-0.529l0.531,-0.526l0.532,-0.526l0.535,-0.523l0.535,-0.522l0.538,-0.521l0.538,-0.519l0.541,-0.517l0.542,-0.516l0.543,-0.514l0.545,-0.512l0.547,-0.511l0.548,-0.509l0.549,-0.508l0.551,-0.506l0.553,-0.504l0.554,-0.503l0.556,-0.501l0.557,-0.499l0.559,-0.498l0.56,-0.496l0.562,-0.494l0.563,-0.493l0.564,-0.491l0.567,-0.49l0.567,-0.488l0.569,-0.486l0.571,-0.484l0.572,-0.483l0.573,-0.481l0.575,-0.479l0.577,-0.478l0.578,-0.476l0.579,-0.474l0.581,-0.473l0.582,-0.471l0.584,-0.469l0.585,-0.467l0.587,-0.466l0.588,-0.464l0.589,-0.462l0.591,-0.461l0.592,-0.459l0.594,-0.457l0.595,-0.455l0.596,-0.454l0.598,-0.451l0.6,-0.45l0.6,-0.449l0.602,-0.446l0.604,-0.445l0.605,-0.443l0.606,-0.441l0.607,-0.44l0.609,-0.437l0.611,-0.436l0.611,-0.434l0.614,-0.433l0.614,-0.43l0.616,-0.429l0.617,-0.427l0.618,-0.425l0.62,-0.423l0.621,-0.422l0.623,-0.419l0.624,-0.418l0.625,-0.416l0.626,-0.414l0.628,-0.413l0.629,-0.41l0.631,-0.409l0.631,-0.407l0.633,-0.405l0.635,-0.403l0.635,-0.401l0.637,-0.399l0.639,-0.398l0.639,-0.396l0.641,-0.393l0.642,-0.392l0.643,-0.39l0.645,-0.389l0.646,-0.386l0.647,-0.384l0.648,-0.383l0.65,-0.38l0.651,-0.379l0.652,-0.377l0.653,-0.374l0.655,-0.373l0.656,-0.371l0.657,-0.369l0.658,-0.368l0.66,-0.365l0.66,-0.363l0.662,-0.361l0.664,-0.36l0.664,-0.357l0.666,-0.356l0.666,-0.353l0.668,-0.352l0.67,-0.35l0.67,-0.347l0.672,-0.346l0.672,-0.344l0.674,-0.342l0.675,-0.339l0.677,-0.338l0.677,-0.336l0.679,-0.334l0.68,-0.332l0.681,-0.329l0.682,-0.328l0.683,-0.326l0.684,-0.324l0.686,-0.322l0.686,-0.319l0.688,-0.318l0.689,-0.316l0.69,-0.314l0.691,-0.311l0.693,-0.31l0.693,-0.307l0.694,-0.306l0.696,-0.303l0.697,-0.302l0.698,-0.299l0.698,-0.297l0.7,-0.296l0.702,-0.293l0.702,-0.291l0.703,-0.289l0.704,-0.287l0.706,-0.285l0.706,-0.282l0.707,-0.281l0.709,-0.279l0.71,-0.276l0.71,-0.275l0.712,-0.272l0.713,-0.27l0.714,-0.268l0.715,-0.266l0.715,-0.264l0.717,-0.261l0.718,-0.26l0.719,-0.257l0.72,-0.255l0.721,-0.254l0.722,-0.251l0.723,-0.248l0.724,-0.247l0.725,-0.245l0.726,-0.242l0.727,-0.24l0.728,-0.238l0.729,-0.236l0.73,-0.234l0.731,-0.231l0.731,-0.229l0.733,-0.227l0.734,-0.225l0.735,-0.223l0.735,-0.221l0.737,-0.218l0.738,-0.216l0.738,-0.214l0.74,-0.211l0.74,-0.21l0.741,-0.207l0.743,-0.205l0.743,-0.203l0.744,-0.2l0.745,-0.199l0.746,-0.196l0.747,-0.194l0.748,-0.191l0.748,-0.189l0.75,-0.188l0.75,-0.184l0.751,-0.183l0.753,-0.18l0.753,-0.178l0.754,-0.176l0.754,-0.173l0.756,-0.171l0.757,-0.169l0.757,-0.167l0.758,-0.164l0.76,-0.162l0.759,-0.159l0.761,-0.158l0.762,-0.155l0.762,-0.153l0.764,-0.15l0.764,-0.148l0.765,-0.146l0.766,-0.143l0.766,-0.141l0.768,-0.139l0.768,-0.136l0.769,-0.134l0.77,-0.132l0.77,-0.129l0.772,-0.127l0.772,-0.125l0.773,-0.122l0.774,-0.12l0.774,-0.118l0.776,-0.115l0.776,-0.113l0.777,-0.11l0.777,-0.108l0.778,-0.105l0.78,-0.104l0.779,-0.1l0.781,-0.099l0.781,-0.096l0.782,-0.093l0.783,-0.092l0.784,-0.088l0.784,-0.087l0.785,-0.083l0.786,-0.082l0.786,-0.079l0.787,-0.077l0.788,-0.074l0.789,-0.071l0.789,-0.07l0.79,-0.066l0.79,-0.065l0.792,-0.062l0.792,-0.059l0.792,-0.057l0.794,-0.054l0.794,-0.052l0.794,-0.05l0.796,-0.047l0.795,-0.045l0.797,-0.042l0.797,-0.039l0.798,-0.037l0.799,-0.035l0.799,-0.032l0.8,-0.029l0.8,-0.027l0.801,-0.025l0.802,-0.022l0.802,-0.019l0.803,-0.017l0.804,-0.015l0.804,-0.012l0.804,-0.009l0.806,-0.007l0.806,-0.004l0.806,-0.002l0.807,0.001l0.805,0.004l0.806,0.006l0.805,0.008l0.804,0.011l0.803,0.014l0.803,0.016l0.802,0.018l0.802,0.022l0.801,0.023l0.801,0.026l0.799,0.029l0.8,0.031l0.798,0.034l0.798,0.036l0.797,0.039l0.797,0.041l0.796,0.044l0.795,0.046l0.795,0.049l0.794,0.051l0.794,0.054l0.792,0.056l0.792,0.059l0.792,0.061l0.79,0.063l0.79,0.066l0.79,0.068l0.788,0.071l0.788,0.074l0.787,0.075l0.787,0.079l0.786,0.08l0.785,0.083l0.784,0.086l0.784,0.088l0.782,0.09l0.783,0.093l0.781,0.095l0.781,0.098l0.78,0.1l0.779,0.102l0.778,0.105l0.778,0.107l0.777,0.11l0.776,0.112l0.776,0.114l0.774,0.117l0.774,0.119l0.773,0.121l0.773,0.124l0.771,0.126l0.771,0.129l0.77,0.131l0.769,0.133l0.769,0.135l0.767,0.138l0.767,0.141l0.766,0.142l0.765,0.145l0.764,0.147l0.764,0.15l0.762,0.152l0.762,0.154l0.761,0.157l0.76,0.159l0.76,0.161l0.758,0.163l0.758,0.166l0.756,0.168l0.756,0.17l0.755,0.173l0.754,0.175l0.754,0.177l0.752,0.18l0.751,0.181l0.751,0.184l0.75,0.187l0.749,0.188l0.747,0.191l0.748,0.193l0.746,0.195l0.745,0.198l0.744,0.199l0.744,0.203l0.742,0.204l0.742,0.206l0.74,0.209l0.74,0.211l0.739,0.213l0.738,0.215l0.736,0.218l0.736,0.22l0.735,0.221l0.734,0.225l0.733,0.226l0.732,0.229l0.731,0.23l0.731,0.233l0.729,0.235l0.728,0.237l0.727,0.24l0.726,0.241l0.726,0.244l0.724,0.246l0.723,0.248l0.722,0.25l0.722,0.253l0.72,0.254l0.719,0.257l0.718,0.259l0.717,0.261l0.717,0.263l0.715,0.265l0.714,0.267l0.713,0.27l0.712,0.271l0.711,0.274l0.71,0.275l0.709,0.278l0.707,0.28l0.707,0.282l0.706,0.284l0.704,0.287l0.704,0.288l0.702,0.29l0.702,0.293l0.7,0.294l0.699,0.297l0.698,0.298l0.697,0.301l0.696,0.303l0.695,0.305l0.694,0.306l0.692,0.309l0.692,0.311l0.69,0.313l0.689,0.315l0.689,0.317l0.687,0.319l0.685,0.321l0.685,0.324l0.684,0.325l0.682,0.327l0.681,0.329l0.681,0.331l0.678,0.333l0.678,0.335l0.677,0.337l0.675,0.339l0.675,0.341l0.673,0.343l0.672,0.345l0.67,0.347l0.67,0.349l0.668,0.351l0.668,0.353l0.666,0.355l0.664,0.357l0.664,0.359l0.662,0.36l0.661,0.363l0.66,0.364l0.659,0.367l0.657,0.368l0.657,0.371l0.655,0.372l0.654,0.374l0.652,0.376l0.651,0.378l0.65,0.38l0.649,0.382l0.648,0.383l0.646,0.386l0.645,0.388l0.644,0.389l0.642,0.391l0.641,0.393l0.64,0.395l0.639,0.397l0.637,0.399l0.636,0.4l0.635,0.403l0.633,0.404l0.633,0.406l0.63,0.408l0.63,0.41l0.628,0.412l0.627,0.413l0.626,0.416l0.624,0.417l0.623,0.419l0.621,0.421l0.621,0.423l0.619,0.424l0.617,0.426l0.616,0.428l0.615,0.43l0.614,0.432l0.612,0.433l0.611,0.436l0.609,0.437l0.608,0.439l0.607,0.44l0.605,0.442l0.604,0.445l0.603,0.446l0.601,0.447l0.6,0.45l0.598,0.451l0.597,0.453l0.596,0.455l0.594,0.456l0.592,0.458l0.592,0.46l0.59,0.462l0.588,0.463l0.587,0.465l0.586,0.467l0.584,0.469l0.583,0.47l0.581,0.472l0.58,0.474l0.578,0.475l0.577,0.477l0.576,0.479l0.574,0.48l0.572,0.482l0.571,0.484l0.57,0.486l0.568,0.487l0.567,0.489l0.565,0.49l0.564,0.493l0.562,0.493l0.56,0.496l0.56,0.497l0.557,0.499l0.557,0.5l0.554,0.503l0.553,0.503l0.552,0.506l0.55,0.507l0.549,0.508l0.547,0.511l0.545,0.511l0.544,0.514l0.543,0.515l0.541,0.517l0.539,0.518l0.538,0.52l0.536,0.521l0.535,0.524l0.533,0.524l0.531,0.527l0.53,0.527l0.529,0.53l0.527,0.531l0.525,0.532l0.524,0.535l0.522,0.535l0.52,0.538l0.519,0.538l0.517,0.541l0.516,0.542l0.514,0.543l0.512,0.545l0.511,0.547l0.509,0.548l0.508,0.549l0.506,0.551l0.504,0.553l0.503,0.554l0.501,0.556l0.499,0.557l0.498,0.559l0.496,0.56l0.495,0.562l0.492,0.563l0.492,0.564l0.489,0.567l0.488,0.567l0.486,0.569l0.484,0.571l0.483,0.572l0.481,0.574l0.479,0.574l0.478,0.577l0.476,0.578l0.474,0.579l0.473,0.581l0.471,0.582l0.469,0.584l0.467,0.585l0.466,0.587l0.464,0.588l0.462,0.589l0.461,0.591l0.459,0.592l0.457,0.594l0.455,0.595l0.454,0.596l0.452,0.598l0.45,0.6l0.448,0.6l0.446,0.602l0.445,0.604l0.443,0.605l0.441,0.606l0.44,0.607l0.438,0.609l0.436,0.611l0.434,0.611l0.432,0.614l0.431,0.614l0.428,0.616l0.427,0.617l0.425,0.618l0.424,0.62l0.421,0.621l0.42,0.623l0.418,0.624l0.415,0.625l0.415,0.626l0.412,0.628l0.41,0.629l0.409,0.631l0.407,0.631l0.405,0.633l0.403,0.635l0.401,0.635l0.4,0.637l0.397,0.639l0.396,0.639l0.394,0.641l0.392,0.642l0.39,0.643l0.388,0.645l0.386,0.646l0.384,0.647l0.383,0.648l0.38,0.65l0.379,0.651l0.377,0.652l0.375,0.653l0.373,0.655l0.371,0.656l0.369,0.657l0.367,0.658l0.365,0.66l0.363,0.661l0.362,0.662l0.359,0.663l0.358,0.664l0.355,0.666l0.354,0.667l0.351,0.667l0.35,0.67l0.348,0.67l0.345,0.672l0.344,0.672l0.342,0.675l0.34,0.675l0.337,0.676l0.336,0.677l0.334,0.679l0.332,0.68l0.33,0.681l0.327,0.682l0.326,0.683l0.324,0.684l0.322,0.686l0.32,0.686l0.317,0.688l0.316,0.689l0.314,0.69l0.311,0.691l0.31,0.693l0.307,0.693l0.306,0.694l0.304,0.696l0.301,0.697l0.299,0.698l0.298,0.699l0.295,0.7l0.293,0.7l0.291,0.703l0.289,0.703l0.287,0.704l0.285,0.706l0.283,0.706l0.28,0.708l0.279,0.708l0.276,0.71l0.275,0.711l0.272,0.711l0.27,0.713l0.268,0.714l0.266,0.715l0.264,0.715l0.261,0.717l0.26,0.718l0.257,0.719l0.256,0.72l0.253,0.721l0.251,0.722l0.249,0.723l0.246,0.724l0.245,0.725l0.242,0.726l0.24,0.727l0.238,0.728l0.236,0.729l0.234,0.73l0.231,0.731l0.229,0.731l0.228,0.733l0.225,0.734l0.222,0.735l0.221,0.736l0.218,0.736l0.216,0.738l0.214,0.738l0.212,0.74l0.209,0.74l0.207,0.741l0.205,0.743l0.203,0.743l0.201,0.744l0.198,0.745l0.196,0.746l0.194,0.747l0.191,0.748l0.19,0.748l0.187,0.75l0.185,0.75l0.182,0.752l0.18,0.752l0.178,0.753l0.176,0.754l0.173,0.754l0.172,0.756l0.168,0.757l0.167,0.757l0.164,0.758l0.162,0.76l0.16,0.76l0.157,0.76l0.155,0.762l0.153,0.763l0.15,0.763l0.148,0.764l0.146,0.765l0.143,0.766l0.141,0.766l0.139,0.768l0.137,0.768l0.134,0.769l0.131,0.77l0.13,0.771l0.127,0.771l0.124,0.772l0.122,0.773l0.12,0.774l0.118,0.774l0.115,0.776l0.113,0.776l0.11,0.776l0.108,0.778l0.106,0.779l0.103,0.779l0.101,0.78l0.098,0.78l0.096,0.781l0.094,0.783l0.091,0.782l0.089,0.784l0.086,0.784l0.084,0.785l0.081,0.786l0.079,0.786l0.077,0.787l0.074,0.788l0.072,0.789l0.069,0.789l0.067,0.79l0.064,0.79l0.062,0.792l0.059,0.792l0.057,0.792l0.055,0.794l0.052,0.794l0.049,0.794l0.047,0.796l0.045,0.795l0.042,0.797l0.039,0.798l0.037,0.797l0.035,0.799l0.032,0.799l0.03,0.8l0.027,0.8l0.024,0.801l0.012,0.427l29.21,-0.015l-0.01,-0.385l-0.024,-0.897l-0.028,-0.895l-0.03,-0.895l-0.033,-0.894l-0.036,-0.893l-0.038,-0.893l-0.042,-0.892l-0.044,-0.891l-0.047,-0.89l-0.05,-0.89l-0.052,-0.889l-0.056,-0.888l-0.058,-0.887l-0.061,-0.887l-0.063,-0.886l-0.067,-0.885l-0.069,-0.884l-0.072,-0.883l-0.074,-0.883l-0.078,-0.882l-0.08,-0.881l-0.083,-0.88l-0.085,-0.88l-0.089,-0.878l-0.091,-0.878l-0.093,-0.877l-0.097,-0.876l-0.099,-0.876l-0.102,-0.874l-0.104,-0.874l-0.108,-0.873l-0.109,-0.872l-0.113,-0.871l-0.115,-0.87l-0.118,-0.87l-0.121,-0.868l-0.123,-0.868l-0.126,-0.867l-0.129,-0.866l-0.131,-0.865l-0.134,-0.864l-0.136,-0.864l-0.14,-0.862l-0.141,-0.862l-0.145,-0.86l-0.147,-0.86l-0.15,-0.859l-0.152,-0.858l-0.155,-0.857l-0.157,-0.856l-0.161,-0.855l-0.162,-0.855l-0.166,-0.853l-0.168,-0.853l-0.17,-0.851l-0.173,-0.851l-0.176,-0.849l-0.178,-0.849l-0.181,-0.848l-0.184,-0.847l-0.185,-0.845l-0.189,-0.845l-0.191,-0.844l-0.194,-0.843l-0.196,-0.842l-0.199,-0.841l-0.201,-0.84l-0.204,-0.839l-0.206,-0.838l-0.209,-0.837l-0.211,-0.836l-0.214,-0.834l-0.217,-0.834l-0.219,-0.833l-0.221,-0.832l-0.224,-0.831l-0.226,-0.83l-0.229,-0.829l-0.232,-0.827l-0.234,-0.827l-0.236,-0.826l-0.239,-0.825l-0.241,-0.823l-0.244,-0.823l-0.246,-0.821l-0.249,-0.821l-0.251,-0.819l-0.253,-0.818l-0.256,-0.817l-0.259,-0.816l-0.261,-0.816l-0.263,-0.813l-0.266,-0.813l-0.268,-0.812l-0.271,-0.811l-0.273,-0.809l-0.275,-0.808l-0.278,-0.808l-0.28,-0.806l-0.283,-0.805l-0.285,-0.804l-0.287,-0.803l-0.29,-0.801l-0.292,-0.801l-0.295,-0.799l-0.297,-0.798l-0.299,-0.797l-0.302,-0.796l-0.304,-0.795l-0.306,-0.794l-0.309,-0.792l-0.311,-0.791l-0.313,-0.79l-0.316,-0.789l-0.318,-0.788l-0.32,-0.786l-0.323,-0.786l-0.325,-0.784l-0.328,-0.783l-0.329,-0.781l-0.332,-0.781l-0.335,-0.779l-0.336,-0.778l-0.339,-0.777l-0.341,-0.775l-0.344,-0.775l-0.345,-0.773l-0.348,-0.772l-0.351,-0.77l-0.352,-0.77l-0.355,-0.768l-0.357,-0.766l-0.36,-0.766l-0.361,-0.764l-0.364,-0.763l-0.366,-0.762l-0.368,-0.76l-0.371,-0.76l-0.373,-0.758l-0.375,-0.756l-0.377,-0.756l-0.38,-0.754l-0.381,-0.752l-0.384,-0.751l-0.386,-0.751l-0.389,-0.748l-0.39,-0.748l-0.393,-0.746l-0.395,-0.745l-0.397,-0.743l-0.399,-0.742l-0.402,-0.741l-0.403,-0.739l-0.406,-0.738l-0.408,-0.737l-0.41,-0.735l-0.412,-0.734l-0.415,-0.733l-0.416,-0.731l-0.419,-0.73l-0.421,-0.728l-0.423,-0.727l-0.425,-0.726l-0.427,-0.724l-0.429,-0.723l-0.432,-0.722l-0.433,-0.72l-0.436,-0.718l-0.438,-0.718l-0.44,-0.715l-0.442,-0.715l-0.444,-0.713l-0.446,-0.711l-0.448,-0.71l-0.451,-0.709l-0.452,-0.707l-0.454,-0.706l-0.457,-0.704l-0.459,-0.703l-0.46,-0.701l-0.463,-0.7l-0.465,-0.698l-0.466,-0.697l-0.469,-0.696l-0.471,-0.694l-0.473,-0.692l-0.475,-0.691l-0.477,-0.689l-0.479,-0.688l-0.481,-0.687l-0.483,-0.685l-0.485,-0.683l-0.487,-0.682l-0.489,-0.681l-0.491,-0.678l-0.493,-0.678l-0.495,-0.675l-0.496,-0.675l-0.5,-0.672l-0.5,-0.672l-0.503,-0.669l-0.505,-0.668l-0.507,-0.666l-0.509,-0.665l-0.51,-0.664l-0.513,-0.661l-0.514,-0.661l-0.517,-0.658l-0.518,-0.657l-0.521,-0.656l-0.522,-0.653l-0.524,-0.652l-0.526,-0.651l-0.528,-0.649l-0.53,-0.647l-0.532,-0.646l-0.534,-0.644l-0.535,-0.643l-0.538,-0.64l-0.539,-0.64l-0.542,-0.637l-0.543,-0.636l-0.545,-0.634l-0.547,-0.633l-0.548,-0.631l-0.551,-0.629l-0.553,-0.628l-0.554,-0.626l-0.556,-0.624l-0.558,-0.623l-0.56,-0.62l-0.562,-0.62l-0.563,-0.617l-0.566,-0.616l-0.567,-0.614l-0.569,-0.613l-0.571,-0.61l-0.572,-0.609l-0.575,-0.608l-0.576,-0.605l-0.578,-0.604l-0.58,-0.602l-0.581,-0.6l-0.583,-0.599l-0.586,-0.597l-0.587,-0.595l-0.588,-0.593l-0.591,-0.592l-0.592,-0.59l-0.594,-0.588l-0.596,-0.586l-0.597,-0.585l-0.599,-0.582l-0.601,-0.581l-0.603,-0.58l-0.604,-0.577l-0.606,-0.575l-0.608,-0.574l-0.61,-0.572l-0.611,-0.57l-0.613,-0.569l-0.615,-0.566l-0.616,-0.565l-0.618,-0.563l-0.62,-0.561l-0.622,-0.559l-0.623,-0.558l-0.625,-0.555l-0.626,-0.554l-0.628,-0.552l-0.63,-0.55l-0.632,-0.548l-0.633,-0.546l-0.635,-0.544l-0.636,-0.543l-0.638,-0.54l-0.64,-0.539l-0.641,-0.537l-0.643,-0.535l-0.645,-0.533l-0.646,-0.531l-0.648,-0.529l-0.65,-0.528l-0.651,-0.525l-0.653,-0.524l-0.654,-0.521l-0.656,-0.52l-0.657,-0.518l-0.659,-0.516l-0.661,-0.514l-0.662,-0.512l-0.664,-0.509l-0.666,-0.508l-0.667,-0.507l-0.668,-0.504l-0.67,-0.502l-0.672,-0.5l-0.673,-0.498l-0.675,-0.497l-0.676,-0.494l-0.678,-0.492l-0.679,-0.49l-0.681,-0.489l-0.683,-0.486l-0.683,-0.484l-0.686,-0.482l-0.687,-0.481l-0.688,-0.478l-0.69,-0.476l-0.692,-0.474l-0.693,-0.473l-0.694,-0.47l-0.696,-0.468l-0.697,-0.466l-0.699,-0.464l-0.701,-0.462l-0.701,-0.46l-0.704,-0.458l-0.704,-0.455l-0.707,-0.454l-0.707,-0.452l-0.709,-0.449l-0.711,-0.448l-0.712,-0.445l-0.713,-0.444l-0.715,-0.441l-0.716,-0.439l-0.718,-0.437l-0.719,-0.435l-0.721,-0.433l-0.721,-0.431l-0.724,-0.428l-0.724,-0.427l-0.727,-0.424l-0.727,-0.422l-0.729,-0.42l-0.73,-0.418l-0.732,-0.416l-0.733,-0.414l-0.734,-0.411l-0.736,-0.409l-0.737,-0.408l-0.738,-0.405l-0.74,-0.403l-0.741,-0.4l-0.743,-0.399l-0.744,-0.396l-0.745,-0.394l-0.746,-0.392l-0.748,-0.39l-0.749,-0.387l-0.751,-0.386l-0.752,-0.383l-0.753,-0.381l-0.754,-0.378l-0.756,-0.377l-0.757,-0.374l-0.758,-0.372l-0.76,-0.37l-0.76,-0.368l-0.763,-0.365l-0.763,-0.363l-0.765,-0.361l-0.766,-0.358l-0.767,-0.357l-0.768,-0.354l-0.77,-0.351l-0.771,-0.35l-0.772,-0.347l-0.774,-0.345l-0.774,-0.343l-0.776,-0.34l-0.777,-0.338l-0.779,-0.336l-0.779,-0.334l-0.781,-0.331l-0.782,-0.329l-0.783,-0.326l-0.785,-0.324l-0.785,-0.322l-0.787,-0.32l-0.788,-0.317l-0.789,-0.315l-0.791,-0.313l-0.791,-0.31l-0.793,-0.308l-0.794,-0.305l-0.795,-0.304l-0.796,-0.3l-0.797,-0.299l-0.799,-0.296l-0.8,-0.294l-0.8,-0.291l-0.802,-0.289l-0.803,-0.287l-0.805,-0.284l-0.805,-0.282l-0.806,-0.279l-0.808,-0.277l-0.809,-0.275l-0.81,-0.272l-0.81,-0.269l-0.812,-0.268l-0.814,-0.265l-0.814,-0.262l-0.815,-0.26l-0.816,-0.258l-0.818,-0.255l-0.818,-0.253l-0.82,-0.25l-0.821,-0.248l-0.821,-0.245l-0.823,-0.243l-0.824,-0.241l-0.825,-0.238l-0.826,-0.235l-0.827,-0.233l-0.828,-0.231l-0.829,-0.228l-0.83,-0.225l-0.831,-0.223l-0.832,-0.221l-0.833,-0.218l-0.834,-0.215l-0.836,-0.214l-0.836,-0.21l-0.837,-0.208l-0.838,-0.205l-0.839,-0.203l-0.84,-0.201l-0.842,-0.198l-0.842,-0.195l-0.843,-0.193l-0.844,-0.19l-0.845,-0.188l-0.846,-0.185l-0.847,-0.182l-0.848,-0.18l-0.849,-0.178l-0.849,-0.175l-0.851,-0.172l-0.852,-0.169l-0.852,-0.167l-0.854,-0.165l-0.854,-0.162l-0.856,-0.159l-0.856,-0.157l-0.857,-0.154l-0.858,-0.151l-0.86,-0.149l-0.859,-0.146l-0.861,-0.144l-0.862,-0.141l-0.863,-0.138l-0.863,-0.136l-0.865,-0.133l-0.865,-0.13l-0.866,-0.128l-0.867,-0.125l-0.868,-0.122l-0.869,-0.12l-0.869,-0.117l-0.871,-0.114l-0.871,-0.112l-0.872,-0.109l-0.873,-0.106l-0.874,-0.104l-0.874,-0.101l-0.876,-0.098l-0.876,-0.096l-0.877,-0.093l-0.878,-0.09l-0.879,-0.087l-0.88,-0.085l-0.88,-0.082l-0.881,-0.079l-0.882,-0.076l-0.883,-0.074l-0.883,-0.071l-0.885,-0.068l-0.885,-0.066l-0.885,-0.062l-0.887,-0.06l-0.887,-0.058l-0.889,-0.054l-0.889,-0.052l-0.889,-0.048l-0.891,-0.047l-0.891,-0.043l-0.892,-0.04l-0.892,-0.038l-0.894,-0.035l-0.894,-0.032l-0.895,-0.029l-0.895,-0.027l-0.896,-0.024l-0.897,-0.02l-0.898,-0.018l-0.899,-0.016l-0.899,-0.012l-0.899,-0.009l-0.901,-0.007l-0.901,-0.004l-0.902,-0.001l-0.902,0.002Z"/><path d="M444.204,324.228l0.65,0.002l0.653,0.003l0.657,0.005l0.66,0.006l0.664,0.007l0.667,0.009l0.671,0.01l0.674,0.012l0.677,0.013l0.68,0.015l0.684,0.015l0.686,0.018l0.69,0.018l0.692,0.02l0.696,0.021l0.698,0.022l0.701,0.024l0.704,0.025l0.707,0.026l0.709,0.027l0.712,0.029l0.714,0.03l0.717,0.031l0.719,0.032l0.722,0.033l0.724,0.035l0.726,0.036l0.729,0.036l0.731,0.038l0.733,0.04l0.734,0.04l0.737,0.041l0.739,0.042l0.741,0.044l0.743,0.044l0.744,0.046l0.746,0.047l0.748,0.047l0.75,0.049l0.751,0.049l0.753,0.051l0.754,0.051l0.756,0.053l0.757,0.053l0.758,0.055l0.76,0.055l0.761,0.056l0.762,0.057l0.763,0.058l0.764,0.059l0.765,0.06l0.766,0.061l0.767,0.061l0.768,0.062l1.538,0.127l1.541,0.13l1.544,0.133l1.545,0.136l1.547,0.139l1.547,0.141l1.549,0.145l1.548,0.146l1.549,0.15l1.548,0.151l1.546,0.154l1.546,0.156l1.543,0.158l1.541,0.16l1.539,0.162l1.535,0.163l1.531,0.165l1.528,0.167l1.523,0.168l1.518,0.17l1.513,0.171l1.508,0.172l1.501,0.173l1.495,0.174l1.487,0.175l1.48,0.176l1.473,0.176l1.464,0.177l1.455,0.178l1.447,0.178l1.436,0.178l1.427,0.178l1.417,0.178l1.405,0.179l1.395,0.178l1.383,0.178l1.37,0.178l1.359,0.177l1.345,0.177l1.332,0.176l1.318,0.175l1.304,0.175l1.29,0.174l1.274,0.173l1.259,0.171l1.243,0.171l1.227,0.169l1.21,0.168l1.193,0.166l1.175,0.165l1.157,0.163l1.139,0.161l1.12,0.159l2.181,0.313l2.101,0.304l2.018,0.294l1.93,0.284l1.839,0.273l1.745,0.261l1.648,0.248l1.547,0.235l1.442,0.221l1.335,0.205l1.224,0.19l1.109,0.173l0.992,0.156l0.87,0.137l1.364,0.217l0.838,0.135l0.286,0.047l-0.12,0.822l-0.123,0.822l-0.124,0.82l-0.127,0.82l-0.129,0.819l-0.132,0.819l-0.133,0.817l-0.136,0.817l-0.138,0.815l-0.141,0.815l-0.143,0.814l-0.145,0.813l-0.147,0.813l-0.149,0.811l-0.152,0.811l-0.154,0.809l-0.156,0.809l-0.158,0.808l-0.161,0.807l-0.163,0.806l-0.165,0.805l-0.167,0.805l-0.17,0.803l-0.172,0.803l-0.173,0.801l-0.177,0.801l-0.178,0.8l-0.18,0.799l-0.183,0.798l-0.185,0.797l-0.187,0.796l-0.189,0.795l-0.192,0.794l-0.193,0.794l-0.196,0.792l-0.198,0.792l-0.2,0.79l-0.203,0.79l-0.204,0.789l-0.207,0.787l-0.208,0.787l-0.211,0.786l-0.213,0.785l-0.215,0.784l-0.218,0.783l-0.219,0.782l-0.222,0.781l-0.223,0.78l-0.226,0.779l-0.228,0.778l-0.23,0.777l-0.232,0.776l-0.235,0.776l-0.236,0.774l-0.238,0.773l-0.241,0.772l-0.243,0.771l-0.244,0.77l-0.247,0.77l-0.249,0.768l-0.251,0.767l-0.253,0.766l-0.255,0.765l-0.258,0.764l-0.259,0.763l-0.261,0.762l-0.264,0.761l-0.265,0.76l-0.268,0.759l-0.269,0.758l-0.272,0.757l-0.274,0.756l-0.275,0.755l-0.278,0.753l-0.28,0.753l-0.281,0.752l-0.284,0.75l-0.286,0.75l-0.288,0.748l-0.29,0.747l-0.292,0.747l-0.293,0.745l-0.296,0.744l-0.298,0.743l-0.3,0.742l-0.302,0.741l-0.304,0.74l-0.306,0.738l-0.307,0.738l-0.31,0.737l-0.312,0.735l-0.314,0.734l-0.315,0.733l-0.318,0.732l-0.32,0.731l-0.321,0.73l-0.324,0.729l-0.325,0.728l-0.328,0.726l-0.329,0.725l-0.331,0.725l-0.334,0.723l-0.335,0.722l-0.337,0.72l-0.339,0.72l-0.341,0.718l-0.343,0.718l-0.345,0.716l-0.346,0.715l-0.349,0.714l-0.35,0.713l-0.353,0.711l-0.354,0.711l-0.356,0.709l-0.358,0.708l-0.36,0.707l-0.362,0.705l-0.364,0.705l-0.366,0.703l-0.367,0.702l-0.37,0.701l-0.371,0.7l-0.373,0.698l-0.375,0.698l-0.377,0.696l-0.378,0.695l-0.381,0.693l-0.382,0.693l-0.384,0.691l-0.386,0.69l-0.388,0.689l-0.39,0.687l-0.391,0.687l-0.394,0.685l-0.395,0.684l-0.397,0.682l-0.399,0.682l-0.4,0.68l-0.403,0.679l-0.404,0.677l-0.406,0.677l-0.408,0.675l-0.409,0.674l-0.412,0.672l-0.413,0.672l-0.415,0.67l-0.417,0.669l-0.418,0.667l-0.42,0.666l-0.422,0.665l-0.424,0.664l-0.426,0.662l-0.427,0.661l-0.429,0.66l-0.431,0.659l-0.433,0.657l-0.434,0.656l-0.436,0.655l-0.438,0.653l-0.439,0.652l-0.441,0.65l-0.443,0.65l-0.445,0.648l-0.447,0.647l-0.448,0.645l-0.45,0.644l-0.451,0.643l-0.453,0.641l-0.455,0.64l-0.457,0.639l-0.458,0.637l-0.46,0.636l-0.462,0.635l-0.463,0.633l-0.465,0.632l-0.467,0.63l-0.469,0.63l-0.47,0.628l-0.472,0.626l-0.473,0.625l-0.475,0.624l-0.477,0.622l-0.478,0.621l-0.48,0.62l-0.482,0.618l-0.483,0.617l-0.485,0.615l-0.487,0.614l-0.488,0.613l-0.49,0.611l-0.491,0.61l-0.493,0.608l-0.495,0.607l-0.497,0.606l-0.497,0.604l-0.5,0.602l-0.501,0.602l-0.503,0.6l-0.504,0.598l-0.506,0.597l-0.508,0.596l-0.509,0.594l-0.51,0.592l-0.513,0.592l-0.514,0.589l-0.515,0.589l-0.517,0.587l-0.518,0.585l-0.521,0.584l-0.521,0.582l-0.523,0.581l-0.525,0.58l-0.527,0.578l-0.527,0.577l-0.53,0.575l-0.531,0.573l-0.532,0.573l-0.534,0.57l-0.536,0.569l-0.537,0.568l-0.538,0.566l-0.54,0.565l-0.542,0.563l-0.543,0.562l-0.544,0.56l-0.547,0.559l-0.547,0.557l-0.549,0.555l-0.551,0.554l-0.552,0.553l-0.553,0.551l-0.555,0.549l-0.557,0.548l-0.558,0.547l-0.559,0.545l-0.561,0.543l-0.563,0.542l-0.563,0.54l-0.566,0.539l-0.566,0.537l-0.569,0.536l-0.569,0.534l-0.571,0.532l-0.573,0.531l-0.574,0.529l-0.575,0.528l-0.577,0.526l-0.578,0.525l-0.58,0.523l-0.581,0.521l-0.582,0.52l-0.584,0.518l-0.585,0.517l-0.587,0.515l-0.588,0.514l-0.589,0.511l-0.591,0.511l-0.593,0.508l-0.593,0.507l-0.595,0.506l-0.597,0.503l-0.597,0.503l-0.599,0.5l-0.601,0.499l-0.602,0.497l-0.603,0.496l-0.605,0.494l-0.606,0.492l-0.607,0.491l-0.609,0.489l-0.609,0.487l-0.612,0.486l-0.612,0.484l-0.614,0.483l-0.616,0.481l-0.616,0.479l-0.618,0.477l-0.62,0.476l-0.62,0.474l-0.622,0.473l-0.623,0.47l-0.625,0.469l-0.626,0.468l-0.627,0.465l-0.628,0.464l-0.63,0.463l-0.631,0.46l-0.632,0.459l-0.634,0.457l-0.634,0.456l-0.636,0.454l-0.638,0.452l-0.638,0.45l-0.64,0.449l-0.642,0.447l-0.642,0.445l-0.644,0.443l-0.644,0.442l-0.647,0.44l-0.647,0.438l-0.649,0.437l-0.649,0.435l-0.652,0.433l-0.652,0.431l-0.653,0.429l-0.655,0.428l-0.656,0.426l-0.657,0.424l-0.659,0.423l-0.659,0.421l-0.661,0.419l-0.662,0.417l-0.663,0.415l-0.665,0.414l-0.665,0.412l-0.667,0.41l-0.668,0.408l-0.669,0.406l-0.67,0.405l-0.672,0.403l-0.672,0.401l-0.674,0.399l-0.675,0.398l-0.676,0.395l-0.677,0.394l-0.679,0.392l-0.679,0.39l-0.681,0.389l-0.682,0.386l-0.683,0.385l-0.684,0.383l-0.685,0.381l-0.687,0.379l-0.687,0.377l-0.689,0.376l-0.689,0.373l-0.691,0.372l-0.692,0.37l-0.693,0.368l-0.694,0.367l-0.696,0.364l-0.696,0.363l-0.697,0.36l-0.699,0.359l-0.699,0.357l-0.701,0.355l-0.702,0.353l-0.703,0.351l-0.703,0.35l-0.705,0.347l-0.706,0.346l-0.707,0.343l-0.709,0.342l-0.709,0.34l-0.71,0.338l-0.711,0.336l-0.712,0.334l-0.714,0.333l-0.714,0.33l-0.716,0.328l-0.716,0.327l-0.717,0.324l-0.719,0.323l-0.719,0.321l-0.721,0.319l-0.721,0.316l-0.723,0.315l-0.723,0.313l-0.725,0.311l-0.725,0.309l-0.727,0.307l-0.727,0.306l-0.729,0.303l-0.729,0.301l-0.731,0.299l-0.731,0.297l-0.733,0.296l-0.733,0.293l-0.734,0.292l-0.736,0.289l-0.736,0.287l-0.737,0.286l-0.738,0.283l-0.739,0.282l-0.74,0.279l-0.741,0.277l-0.742,0.276l-0.743,0.273l-0.744,0.272l-0.744,0.269l-0.746,0.267l-0.746,0.266l-0.748,0.263l-0.748,0.261l-0.749,0.26l-0.75,0.257l-0.751,0.255l-0.752,0.253l-0.753,0.252l-0.754,0.249l-0.755,0.247l-0.755,0.245l-0.756,0.243l-0.758,0.241l-0.758,0.239l-0.759,0.236l-0.76,0.235l-0.76,0.233l-0.762,0.23l-0.762,0.229l-0.764,0.226l-0.764,0.225l-0.765,0.222l-0.766,0.22l-0.766,0.218l-0.768,0.216l-0.768,0.214l-0.769,0.212l-0.77,0.21l-0.771,0.208l-0.772,0.205l-0.772,0.204l-0.773,0.201l-0.774,0.199l-0.775,0.197l-0.776,0.195l-0.776,0.193l-0.777,0.191l-0.778,0.188l-0.779,0.187l-0.78,0.184l-0.78,0.182l-0.781,0.18l-0.782,0.178l-0.783,0.176l-0.783,0.173l-0.784,0.172l-0.785,0.169l-0.786,0.167l-0.786,0.165l-0.787,0.163l-0.788,0.161l-0.789,0.158l-0.789,0.156l-0.791,0.154l-0.79,0.152l-0.792,0.15l-0.792,0.148l-0.793,0.145l-0.794,0.143l-0.794,0.141l-0.796,0.139l-0.795,0.136l-0.797,0.135l-0.797,0.132l-0.798,0.13l-0.799,0.127l-0.799,0.126l-0.8,0.123l-0.801,0.121l-0.801,0.119l-0.802,0.117l-0.803,0.114l-0.803,0.112l-0.804,0.11l-0.805,0.108l-0.805,0.105l-0.806,0.103l-0.807,0.101l-0.807,0.099l-0.808,0.096l-0.809,0.094l-0.809,0.092l-0.81,0.089l-0.81,0.088l-0.811,0.085l-0.812,0.083l-0.812,0.08l-0.813,0.078l-0.814,0.076l-0.814,0.074l-0.815,0.071l-0.815,0.069l-0.816,0.067l-0.816,0.064l-0.817,0.063l-0.818,0.059l-0.818,0.058l-0.819,0.055l-0.82,0.053l-0.82,0.051l-0.82,0.048l-0.821,0.046l-0.822,0.043l-0.822,0.042l-0.823,0.039l-0.823,0.036l-0.824,0.035l-0.825,0.031l-0.825,0.03l-0.825,0.027l-0.826,0.025l-0.827,0.023l-0.827,0.02l-0.827,0.018l-0.829,0.015l-0.828,0.013l-0.829,0.011l-0.83,0.008l-0.83,0.006l-0.831,0.004l-0.831,0.001l-0.831,-0.001l-0.831,-0.004l-0.83,-0.006l-0.83,-0.008l-0.829,-0.011l-0.828,-0.013l-0.828,-0.015l-0.828,-0.018l-0.827,-0.02l-0.827,-0.023l-0.826,-0.025l-0.825,-0.027l-0.825,-0.03l-0.825,-0.031l-0.824,-0.035l-0.823,-0.036l-0.823,-0.039l-0.822,-0.042l-0.822,-0.043l-0.821,-0.046l-0.82,-0.048l-0.82,-0.051l-0.82,-0.053l-0.818,-0.055l-0.819,-0.058l-0.817,-0.059l-0.818,-0.063l-0.816,-0.064l-0.816,-0.067l-0.815,-0.069l-0.815,-0.071l-0.814,-0.074l-0.814,-0.076l-0.813,-0.078l-0.812,-0.08l-0.812,-0.083l-0.811,-0.085l-0.81,-0.088l-0.81,-0.089l-0.809,-0.092l-0.809,-0.094l-0.808,-0.096l-0.807,-0.099l-0.807,-0.101l-0.806,-0.103l-0.805,-0.105l-0.805,-0.108l-0.804,-0.11l-0.803,-0.112l-0.803,-0.114l-0.802,-0.117l-0.801,-0.119l-0.801,-0.121l-0.8,-0.123l-0.799,-0.126l-0.799,-0.127l-0.798,-0.13l-0.797,-0.132l-0.796,-0.135l-0.796,-0.136l-0.795,-0.139l-0.795,-0.141l-0.794,-0.143l-0.793,-0.145l-0.792,-0.148l-0.791,-0.15l-0.791,-0.152l-0.79,-0.154l-0.79,-0.156l-0.789,-0.158l-0.787,-0.161l-0.788,-0.163l-0.786,-0.165l-0.786,-0.167l-0.785,-0.169l-0.784,-0.172l-0.783,-0.173l-0.783,-0.176l-0.782,-0.178l-0.781,-0.18l-0.78,-0.182l-0.78,-0.184l-0.779,-0.187l-0.778,-0.188l-0.777,-0.191l-0.776,-0.193l-0.776,-0.195l-0.775,-0.197l-0.774,-0.199l-0.773,-0.201l-0.772,-0.204l-0.772,-0.205l-0.771,-0.208l-0.77,-0.21l-0.769,-0.212l-0.768,-0.214l-0.768,-0.216l-0.766,-0.218l-0.766,-0.22l-0.765,-0.222l-0.764,-0.225l-0.763,-0.226l-0.763,-0.229l-0.761,-0.23l-0.761,-0.233l-0.76,-0.235l-0.759,-0.236l-0.758,-0.239l-0.757,-0.241l-0.757,-0.243l-0.755,-0.245l-0.755,-0.247l-0.754,-0.249l-0.752,-0.252l-0.752,-0.253l-0.751,-0.255l-0.751,-0.257l-0.749,-0.26l-0.748,-0.261l-0.748,-0.263l-0.746,-0.266l-0.746,-0.267l-0.744,-0.269l-0.744,-0.272l-0.743,-0.273l-0.742,-0.276l-0.741,-0.277l-0.74,-0.279l-0.739,-0.282l-0.738,-0.283l-0.737,-0.286l-0.736,-0.287l-0.736,-0.289l-0.734,-0.292l-0.733,-0.293l-0.733,-0.296l-0.731,-0.297l-0.73,-0.299l-0.73,-0.301l-0.728,-0.303l-0.728,-0.306l-0.726,-0.307l-0.726,-0.309l-0.724,-0.311l-0.724,-0.313l-0.722,-0.315l-0.722,-0.316l-0.72,-0.319l-0.72,-0.321l-0.718,-0.323l-0.718,-0.324l-0.716,-0.327l-0.716,-0.328l-0.714,-0.33l-0.713,-0.333l-0.713,-0.334l-0.711,-0.336l-0.71,-0.338l-0.709,-0.34l-0.708,-0.342l-0.707,-0.343l-0.706,-0.346l-0.705,-0.347l-0.704,-0.35l-0.703,-0.351l-0.702,-0.353l-0.701,-0.355l-0.699,-0.357l-0.699,-0.359l-0.697,-0.36l-0.696,-0.363l-0.696,-0.364l-0.694,-0.367l-0.693,-0.368l-0.692,-0.37l-0.69,-0.372l-0.69,-0.373l-0.689,-0.376l-0.687,-0.377l-0.687,-0.379l-0.685,-0.381l-0.684,-0.383l-0.683,-0.385l-0.682,-0.386l-0.68,-0.389l-0.68,-0.39l-0.678,-0.392l-0.678,-0.394l-0.676,-0.395l-0.675,-0.398l-0.673,-0.399l-0.673,-0.401l-0.672,-0.403l-0.67,-0.405l-0.669,-0.406l-0.668,-0.408l-0.667,-0.41l-0.665,-0.412l-0.665,-0.414l-0.663,-0.415l-0.662,-0.417l-0.661,-0.419l-0.659,-0.421l-0.659,-0.423l-0.657,-0.424l-0.656,-0.426l-0.654,-0.428l-0.654,-0.429l-0.652,-0.431l-0.651,-0.433l-0.65,-0.435l-0.649,-0.437l-0.647,-0.438l-0.646,-0.44l-0.645,-0.442l-0.644,-0.443l-0.642,-0.445l-0.641,-0.447l-0.64,-0.449l-0.639,-0.45l-0.637,-0.452l-0.636,-0.454l-0.635,-0.456l-0.634,-0.457l-0.632,-0.459l-0.631,-0.46l-0.63,-0.463l-0.628,-0.464l-0.627,-0.465l-0.626,-0.468l-0.625,-0.469l-0.623,-0.47l-0.622,-0.473l-0.62,-0.474l-0.62,-0.476l-0.617,-0.477l-0.617,-0.479l-0.615,-0.481l-0.614,-0.483l-0.613,-0.484l-0.611,-0.486l-0.61,-0.487l-0.609,-0.489l-0.607,-0.491l-0.606,-0.492l-0.605,-0.494l-0.603,-0.496l-0.602,-0.497l-0.6,-0.499l-0.599,-0.5l-0.598,-0.503l-0.597,-0.503l-0.595,-0.506l-0.593,-0.507l-0.593,-0.508l-0.59,-0.511l-0.59,-0.511l-0.588,-0.514l-0.587,-0.515l-0.585,-0.517l-0.584,-0.518l-0.582,-0.52l-0.581,-0.521l-0.58,-0.523l-0.578,-0.525l-0.577,-0.526l-0.575,-0.528l-0.574,-0.529l-0.573,-0.531l-0.571,-0.532l-0.569,-0.534l-0.568,-0.536l-0.567,-0.537l-0.565,-0.539l-0.564,-0.54l-0.563,-0.542l-0.561,-0.543l-0.559,-0.545l-0.558,-0.547l-0.556,-0.548l-0.555,-0.549l-0.554,-0.551l-0.552,-0.553l-0.551,-0.554l-0.549,-0.555l-0.547,-0.557l-0.546,-0.559l-0.545,-0.56l-0.543,-0.562l-0.542,-0.563l-0.54,-0.565l-0.538,-0.566l-0.537,-0.568l-0.536,-0.569l-0.534,-0.57l-0.532,-0.573l-0.531,-0.573l-0.529,-0.575l-0.528,-0.577l-0.527,-0.578l-0.524,-0.58l-0.524,-0.581l-0.521,-0.582l-0.52,-0.584l-0.519,-0.585l-0.517,-0.587l-0.515,-0.589l-0.514,-0.589l-0.512,-0.592l-0.511,-0.592l-0.509,-0.594l-0.508,-0.596l-0.506,-0.597l-0.504,-0.598l-0.503,-0.6l-0.501,-0.602l-0.499,-0.602l-0.498,-0.604l-0.497,-0.606l-0.494,-0.607l-0.493,-0.608l-0.492,-0.61l-0.49,-0.611l-0.488,-0.613l-0.487,-0.614l-0.485,-0.615l-0.483,-0.617l-0.482,-0.618l-0.48,-0.62l-0.478,-0.621l-0.477,-0.622l-0.475,-0.624l-0.473,-0.625l-0.472,-0.626l-0.47,-0.628l-0.469,-0.63l-0.466,-0.63l-0.465,-0.632l-0.464,-0.633l-0.462,-0.635l-0.46,-0.636l-0.458,-0.637l-0.457,-0.639l-0.455,-0.64l-0.453,-0.641l-0.451,-0.643l-0.45,-0.644l-0.448,-0.645l-0.447,-0.647l-0.444,-0.648l-0.443,-0.65l-0.442,-0.65l-0.439,-0.652l-0.438,-0.653l-0.436,-0.655l-0.434,-0.656l-0.433,-0.657l-0.431,-0.659l-0.429,-0.66l-0.427,-0.661l-0.426,-0.662l-0.423,-0.664l-0.423,-0.665l-0.42,-0.666l-0.418,-0.667l-0.417,-0.669l-0.415,-0.67l-0.413,-0.672l-0.412,-0.672l-0.409,-0.674l-0.408,-0.675l-0.406,-0.677l-0.404,-0.677l-0.403,-0.679l-0.4,-0.68l-0.399,-0.682l-0.397,-0.682l-0.395,-0.684l-0.393,-0.685l-0.392,-0.687l-0.39,-0.687l-0.387,-0.689l-0.387,-0.69l-0.384,-0.691l-0.382,-0.693l-0.381,-0.693l-0.378,-0.695l-0.377,-0.696l-0.375,-0.698l-0.373,-0.698l-0.371,-0.7l-0.37,-0.701l-0.367,-0.702l-0.366,-0.703l-0.364,-0.705l-0.361,-0.705l-0.36,-0.707l-0.358,-0.708l-0.357,-0.709l-0.354,-0.711l-0.352,-0.711l-0.351,-0.713l-0.349,-0.714l-0.346,-0.715l-0.345,-0.716l-0.343,-0.718l-0.341,-0.718l-0.339,-0.72l-0.337,-0.72l-0.335,-0.722l-0.333,-0.723l-0.332,-0.725l-0.329,-0.725l-0.328,-0.726l-0.325,-0.728l-0.324,-0.729l-0.321,-0.73l-0.32,-0.731l-0.317,-0.732l-0.316,-0.733l-0.314,-0.734l-0.312,-0.735l-0.309,-0.737l-0.308,-0.738l-0.306,-0.738l-0.304,-0.74l-0.302,-0.741l-0.3,-0.742l-0.297,-0.743l-0.296,-0.744l-0.294,-0.745l-0.292,-0.747l-0.29,-0.747l-0.288,-0.748l-0.286,-0.75l-0.283,-0.75l-0.282,-0.752l-0.28,-0.753l-0.278,-0.753l-0.275,-0.755l-0.274,-0.756l-0.272,-0.757l-0.269,-0.758l-0.268,-0.759l-0.265,-0.76l-0.264,-0.761l-0.261,-0.762l-0.259,-0.763l-0.257,-0.764l-0.256,-0.765l-0.253,-0.766l-0.251,-0.767l-0.249,-0.768l-0.246,-0.77l-0.245,-0.77l-0.243,-0.771l-0.24,-0.772l-0.239,-0.773l-0.236,-0.774l-0.234,-0.776l-0.233,-0.776l-0.23,-0.777l-0.228,-0.778l-0.225,-0.779l-0.224,-0.78l-0.222,-0.781l-0.219,-0.782l-0.217,-0.783l-0.216,-0.784l-0.213,-0.785l-0.21,-0.786l-0.209,-0.787l-0.207,-0.787l-0.204,-0.789l-0.203,-0.79l-0.2,-0.79l-0.198,-0.792l-0.195,-0.792l-0.194,-0.794l-0.191,-0.794l-0.19,-0.795l-0.187,-0.796l-0.185,-0.797l-0.182,-0.798l-0.181,-0.799l-0.178,-0.8l-0.176,-0.801l-0.174,-0.801l-0.172,-0.803l-0.17,-0.803l-0.167,-0.805l-0.165,-0.805l-0.163,-0.806l-0.16,-0.807l-0.159,-0.808l-0.156,-0.809l-0.154,-0.809l-0.152,-0.811l-0.149,-0.811l-0.147,-0.813l-0.145,-0.813l-0.143,-0.814l-0.14,-0.815l-0.139,-0.815l-0.136,-0.817l-0.133,-0.817l-0.132,-0.819l-0.129,-0.819l-0.127,-0.82l-0.124,-0.82l-0.122,-0.822l-0.12,-0.822l0.344,0.051l1.013,0.151l1.648,0.242l1.052,0.153l1.198,0.174l1.341,0.193l1.479,0.211l1.613,0.23l1.743,0.246l1.87,0.262l1.991,0.277l2.109,0.291l2.222,0.305l2.332,0.317l2.438,0.329l1.257,0.169l1.282,0.171l1.306,0.173l1.33,0.176l1.354,0.178l1.376,0.18l1.398,0.183l1.421,0.184l1.441,0.186l1.462,0.187l1.482,0.19l1.502,0.19l1.522,0.192l1.54,0.194l1.558,0.194l1.576,0.196l1.593,0.196l1.609,0.198l1.626,0.198l1.641,0.199l1.656,0.199l1.671,0.199l1.685,0.2l1.699,0.2l1.712,0.2l1.724,0.2l1.736,0.2l1.748,0.2l1.759,0.199l1.769,0.199l1.779,0.198l1.789,0.197l1.797,0.197l1.806,0.196l1.814,0.194l1.821,0.194l1.829,0.192l1.834,0.191l1.841,0.19l1.846,0.188l1.85,0.186l1.855,0.184l1.859,0.183l1.862,0.181l1.865,0.178l1.868,0.176l1.869,0.174l1.87,0.171l1.871,0.169l1.871,0.167l1.871,0.163l1.87,0.161l1.869,0.157l1.867,0.155l0.933,0.076l0.932,0.075l0.931,0.074l0.931,0.074l0.93,0.073l0.929,0.071l0.927,0.071l0.927,0.07l0.926,0.069l0.925,0.069l0.923,0.067l0.922,0.066l0.921,0.066l0.919,0.064l0.918,0.063l0.916,0.063l0.915,0.061l0.913,0.06l0.911,0.06l0.91,0.058l0.907,0.057l0.906,0.056l0.904,0.055l0.901,0.054l0.9,0.053l0.897,0.051l0.895,0.05l0.893,0.05l0.89,0.048l0.888,0.047l0.886,0.045l0.883,0.045l0.88,0.043l0.877,0.042l0.875,0.04l0.872,0.04l0.869,0.038l0.866,0.037l0.864,0.035l0.86,0.034l0.857,0.033l0.853,0.031l0.851,0.03l0.847,0.029l0.843,0.027l0.841,0.026l0.836,0.025l0.833,0.023l0.83,0.021l0.826,0.02l0.822,0.019l0.818,0.017l0.814,0.015l0.81,0.014l0.806,0.013l0.802,0.011l0.798,0.009l0.794,0.008l0.789,0.006l0.785,0.005l0.781,0.003l0.776,0.001l0.771,0l0.767,-0.002l0.762,-0.004l0.758,-0.005l0.753,-0.007l0.747,-0.009l0.743,-0.011l0.738,-0.012l0.733,-0.014l0.727,-0.015l0.723,-0.018l0.717,-0.019l0.712,-0.021l0.707,-0.023l0.814,-0.029l0.818,-0.031l0.821,-0.033l0.824,-0.034l0.827,-0.037l0.83,-0.039l0.833,-0.041l0.835,-0.042l0.839,-0.045l0.841,-0.047l0.844,-0.048l0.847,-0.051l0.85,-0.052l0.853,-0.054l0.855,-0.057l0.858,-0.058l0.861,-0.059l0.863,-0.062l0.866,-0.063l0.869,-0.065l0.871,-0.067l0.873,-0.069l0.876,-0.07l0.879,-0.072l0.881,-0.074l0.884,-0.076l0.886,-0.077l0.888,-0.078l0.891,-0.081l0.893,-0.082l0.895,-0.083l0.898,-0.086l0.899,-0.086l0.903,-0.089l0.904,-0.09l0.906,-0.091l0.909,-0.093l0.911,-0.094l0.913,-0.096l0.914,-0.097l0.917,-0.099l0.919,-0.1l0.921,-0.102l0.923,-0.102l0.925,-0.105l0.927,-0.105l0.929,-0.107l0.931,-0.109l0.932,-0.109l0.934,-0.111l0.936,-0.112l0.938,-0.114l0.94,-0.114l0.941,-0.116l0.943,-0.117l0.944,-0.119l0.947,-0.119l0.947,-0.121l0.95,-0.122l0.951,-0.123l0.952,-0.124l0.954,-0.125l0.956,-0.126l0.957,-0.127l0.958,-0.129l0.96,-0.129l0.961,-0.13l0.962,-0.132l0.964,-0.132l0.965,-0.133l0.967,-0.135l0.967,-0.135l1.939,-0.273l1.943,-0.277l1.948,-0.28l1.953,-0.283l1.956,-0.287l1.96,-0.29l1.964,-0.292l1.967,-0.295l1.97,-0.298l1.973,-0.301l1.976,-0.303l1.979,-0.305l1.981,-0.307l1.983,-0.309l1.986,-0.311l1.987,-0.313l1.988,-0.314l1.99,-0.316l1.991,-0.318l1.992,-0.318l1.992,-0.32l1.993,-0.32l3.987,-0.644l3.987,-0.645l3.984,-0.647l7.956,-1.294l3.968,-0.645l3.959,-0.641l3.949,-0.638l1.97,-0.317l1.967,-0.316l1.963,-0.314l1.96,-0.313l1.956,-0.311l1.951,-0.309l1.948,-0.307l1.943,-0.305l1.938,-0.302l1.934,-0.3l1.928,-0.298l1.923,-0.295l1.918,-0.292l1.911,-0.289l1.906,-0.287l1.9,-0.283l1.893,-0.279l1.887,-0.277l1.88,-0.272l1.873,-0.269l1.866,-0.266l1.859,-0.261l0.926,-0.129l0.925,-0.128l0.923,-0.127l0.92,-0.126l0.919,-0.125l0.916,-0.124l0.915,-0.123l0.912,-0.121l0.911,-0.12l0.908,-0.12l0.906,-0.118l0.904,-0.117l0.901,-0.115l0.9,-0.115l0.897,-0.113l0.895,-0.112l0.892,-0.11l0.89,-0.109l0.888,-0.108l0.886,-0.107l0.883,-0.105l0.88,-0.104l0.878,-0.103l0.876,-0.101l0.873,-0.1l0.871,-0.098l0.868,-0.097l0.865,-0.096l0.863,-0.094l0.86,-0.092l0.857,-0.091l0.855,-0.09l0.852,-0.088l0.849,-0.086l0.847,-0.085l0.844,-0.083l0.84,-0.082l0.838,-0.08l0.836,-0.078l0.832,-0.077l0.829,-0.075l0.826,-0.073l0.824,-0.072l0.82,-0.07l0.817,-0.068l0.814,-0.067l0.811,-0.065l0.808,-0.062l0.805,-0.062l0.802,-0.059l0.798,-0.057l0.795,-0.056l0.792,-0.054l0.789,-0.052l0.786,-0.05l0.782,-0.048l0.778,-0.046l0.776,-0.044l0.772,-0.043l0.768,-0.04l0.765,-0.038l0.762,-0.037l0.758,-0.034l0.755,-0.032l0.584,-0.024l0.59,-0.021l0.593,-0.02l0.598,-0.019l0.603,-0.017l0.606,-0.015l0.611,-0.013l0.615,-0.012l0.619,-0.011l0.623,-0.009l0.627,-0.007l0.631,-0.006l0.635,-0.004l0.638,-0.003l0.643,-0.001l0.646,0Zm-1.164,40.001l-0.544,0.002l-0.537,0.004l-0.532,0.005l-0.525,0.006l-0.52,0.007l-0.514,0.009l-0.506,0.01l-0.5,0.011l-0.494,0.012l-0.488,0.014l-0.48,0.015l-0.473,0.016l-0.467,0.017l-0.466,0.018l-0.648,0.028l-0.66,0.03l-0.665,0.032l-0.67,0.033l-0.675,0.036l-0.681,0.037l-0.684,0.039l-0.69,0.041l-0.695,0.043l-0.7,0.045l-0.705,0.046l-0.709,0.048l-0.715,0.05l-0.718,0.052l-0.723,0.053l-0.728,0.056l-0.732,0.057l-0.737,0.058l-0.741,0.061l-0.745,0.062l-0.75,0.064l-0.754,0.066l-0.758,0.067l-0.762,0.069l-0.766,0.071l-0.77,0.072l-0.775,0.074l-0.778,0.076l-0.782,0.077l-0.786,0.079l-0.79,0.08l-0.794,0.082l-0.797,0.083l-0.802,0.085l-0.804,0.087l-0.808,0.088l-0.812,0.09l-0.816,0.091l-0.819,0.092l-0.823,0.094l-0.825,0.096l-0.829,0.096l-0.834,0.099l-0.836,0.1l-0.839,0.101l-0.842,0.102l-0.846,0.104l-0.849,0.105l-0.851,0.107l-0.855,0.107l-0.859,0.11l-0.861,0.11l-0.864,0.112l-0.867,0.113l-0.87,0.114l-0.872,0.115l-0.876,0.117l-0.878,0.118l-0.882,0.119l-0.884,0.12l-0.886,0.121l-0.889,0.123l-0.892,0.123l-0.887,0.124l-1.805,0.253l-1.806,0.257l-1.817,0.261l-1.825,0.265l-1.835,0.269l-1.844,0.272l-1.853,0.276l-1.861,0.28l-1.87,0.283l-1.877,0.286l-1.885,0.289l-1.892,0.292l-1.9,0.295l-1.906,0.297l-1.914,0.301l-1.92,0.302l-1.927,0.305l-1.932,0.308l-1.938,0.309l-1.944,0.311l-1.949,0.313l-1.952,0.314l-3.927,0.634l-3.941,0.639l-3.958,0.643l-7.957,1.294l-3.997,0.649l-4.005,0.649l-4.01,0.647l-2.012,0.323l-2.01,0.323l-2.012,0.321l-2.013,0.321l-2.013,0.32l-2.014,0.318l-2.015,0.317l-2.014,0.316l-2.015,0.314l-2.014,0.312l-2.014,0.311l-2.014,0.309l-2.012,0.306l-2.012,0.304l-2.01,0.302l-2.01,0.299l-2.008,0.297l-2.006,0.294l-2.004,0.291l-2.002,0.288l-2,0.285l-1.99,0.28l-1.006,0.14l-0.997,0.139l-0.997,0.138l-0.996,0.137l-0.995,0.135l-0.994,0.135l-0.994,0.134l-0.993,0.133l-0.992,0.132l-0.992,0.131l-0.99,0.13l-0.989,0.129l-0.989,0.128l-0.989,0.127l-0.987,0.125l-0.986,0.125l-0.984,0.123l-0.984,0.122l-0.984,0.121l-0.983,0.12l-0.98,0.119l-0.98,0.117l-0.979,0.117l-0.978,0.114l-0.978,0.114l-0.975,0.113l-0.975,0.111l-0.974,0.11l-0.972,0.108l-0.971,0.107l-0.97,0.106l-0.969,0.104l-0.967,0.103l-0.967,0.101l-0.965,0.1l-0.964,0.099l-0.963,0.097l-0.96,0.095l-0.96,0.094l-0.96,0.093l-0.957,0.09l-0.956,0.09l-0.955,0.087l-0.953,0.086l-0.952,0.085l-0.95,0.083l-0.949,0.081l-0.948,0.079l-0.946,0.078l-0.945,0.075l-0.943,0.075l-0.942,0.072l-0.941,0.071l-0.938,0.068l-0.938,0.067l-0.936,0.065l-0.934,0.063l-0.934,0.061l-0.931,0.06l-0.93,0.057l-0.928,0.055l-0.926,0.054l-0.926,0.051l-0.924,0.049l-0.922,0.047l-0.921,0.045l-0.919,0.043l-0.917,0.041l-0.916,0.039l-0.914,0.036l-0.913,0.035l-0.915,0.032l-0.815,0.026l-0.823,0.025l-0.827,0.022l-0.828,0.02l-0.831,0.018l-0.834,0.016l-0.837,0.014l-0.841,0.012l-0.843,0.01l-0.846,0.007l-0.848,0.006l-0.852,0.004l-0.854,0.003l-0.858,0l-0.86,-0.001l-0.862,-0.004l-0.867,-0.005l-0.869,-0.007l-0.871,-0.008l-0.874,-0.01l-0.877,-0.012l-0.88,-0.014l-0.882,-0.015l-0.885,-0.017l-0.888,-0.019l-0.89,-0.02l-0.893,-0.021l-0.895,-0.024l-0.898,-0.024l-0.901,-0.027l-0.902,-0.027l-0.905,-0.03l-0.907,-0.03l-0.91,-0.033l-0.913,-0.033l-0.914,-0.035l-0.916,-0.036l-0.919,-0.038l-0.921,-0.039l-0.923,-0.041l-0.925,-0.042l-0.926,-0.043l-0.93,-0.044l-0.93,-0.046l-0.932,-0.047l-0.935,-0.048l-0.936,-0.049l-0.938,-0.051l-0.94,-0.052l-0.941,-0.053l-0.942,-0.054l-0.945,-0.055l-0.945,-0.056l-0.947,-0.058l-0.949,-0.059l-0.949,-0.059l-0.951,-0.061l-0.953,-0.062l-0.953,-0.063l-0.955,-0.064l-0.956,-0.065l-0.956,-0.066l-0.957,-0.067l-0.958,-0.068l-0.96,-0.069l-0.961,-0.07l-0.96,-0.071l-0.961,-0.072l-0.963,-0.073l-0.962,-0.073l-0.963,-0.075l-0.964,-0.075l-0.964,-0.076l-0.965,-0.077l-0.964,-0.078l-0.973,-0.08l-1.922,-0.159l-1.931,-0.162l-1.93,-0.166l-1.93,-0.169l-1.928,-0.171l-1.928,-0.174l-1.925,-0.176l-1.922,-0.179l-1.92,-0.181l-1.916,-0.184l-1.912,-0.185l-1.908,-0.187l-1.903,-0.19l-1.897,-0.191l-1.892,-0.192l-1.885,-0.194l-1.878,-0.196l-1.872,-0.197l-1.863,-0.198l-1.855,-0.199l-1.847,-0.2l-1.837,-0.201l-1.828,-0.202l-1.817,-0.202l-1.806,-0.203l-1.796,-0.204l-1.784,-0.203l-1.771,-0.204l-1.759,-0.204l-1.746,-0.204l-1.732,-0.204l-0.554,-0.066l0.129,0.336l0.249,0.642l0.251,0.641l0.252,0.64l0.254,0.64l0.256,0.638l0.258,0.638l0.259,0.636l0.261,0.636l0.263,0.634l0.264,0.634l0.267,0.633l0.268,0.632l0.269,0.631l0.271,0.629l0.273,0.629l0.275,0.628l0.276,0.627l0.278,0.626l0.28,0.626l0.281,0.624l0.283,0.623l0.284,0.622l0.287,0.621l0.288,0.62l0.289,0.619l0.292,0.619l0.293,0.617l0.294,0.616l0.296,0.616l0.298,0.614l0.3,0.613l0.301,0.613l0.303,0.611l0.304,0.61l0.306,0.609l0.308,0.609l0.309,0.607l0.311,0.607l0.313,0.605l0.313,0.604l0.316,0.603l0.318,0.603l0.319,0.6l0.32,0.601l0.322,0.599l0.324,0.598l0.326,0.597l0.327,0.596l0.328,0.595l0.33,0.594l0.332,0.593l0.333,0.592l0.335,0.591l0.337,0.59l0.338,0.588l0.339,0.588l0.341,0.587l0.343,0.585l0.344,0.585l0.346,0.583l0.348,0.583l0.348,0.581l0.351,0.58l0.352,0.579l0.354,0.579l0.355,0.577l0.356,0.575l0.358,0.575l0.36,0.574l0.361,0.572l0.363,0.572l0.364,0.571l0.366,0.569l0.367,0.568l0.369,0.567l0.371,0.567l0.371,0.564l0.374,0.564l0.375,0.563l0.376,0.561l0.378,0.561l0.379,0.559l0.381,0.558l0.382,0.558l0.384,0.555l0.385,0.555l0.387,0.554l0.388,0.553l0.39,0.551l0.391,0.55l0.393,0.549l0.394,0.549l0.396,0.547l0.396,0.545l0.399,0.544l0.4,0.544l0.401,0.542l0.403,0.541l0.404,0.54l0.406,0.539l0.407,0.538l0.408,0.535l0.41,0.535l0.412,0.535l0.413,0.533l0.414,0.531l0.415,0.53l0.417,0.53l0.419,0.528l0.42,0.527l0.421,0.526l0.423,0.524l0.424,0.523l0.425,0.522l0.427,0.521l0.429,0.519l0.429,0.519l0.431,0.517l0.433,0.516l0.433,0.515l0.436,0.513l0.436,0.513l0.438,0.51l0.439,0.51l0.441,0.509l0.442,0.507l0.443,0.506l0.445,0.505l0.446,0.503l0.448,0.503l0.448,0.501l0.451,0.5l0.451,0.499l0.453,0.497l0.454,0.496l0.455,0.494l0.457,0.494l0.458,0.492l0.46,0.492l0.46,0.489l0.462,0.488l0.463,0.487l0.465,0.487l0.466,0.484l0.467,0.483l0.469,0.482l0.469,0.48l0.472,0.48l0.472,0.478l0.474,0.477l0.475,0.475l0.476,0.474l0.478,0.473l0.479,0.472l0.48,0.47l0.481,0.468l0.482,0.468l0.484,0.466l0.485,0.465l0.487,0.464l0.488,0.462l0.489,0.461l0.489,0.459l0.492,0.458l0.493,0.457l0.493,0.456l0.495,0.453l0.496,0.453l0.498,0.452l0.499,0.45l0.5,0.449l0.501,0.447l0.503,0.446l0.503,0.444l0.505,0.443l0.506,0.442l0.507,0.441l0.509,0.44l0.509,0.436l0.511,0.436l0.513,0.436l0.512,0.433l0.514,0.432l0.516,0.431l0.516,0.429l0.519,0.428l0.518,0.426l0.52,0.425l0.523,0.425l0.522,0.422l0.524,0.421l0.525,0.419l0.525,0.417l0.527,0.417l0.529,0.416l0.529,0.413l0.531,0.413l0.532,0.41l0.532,0.409l0.534,0.408l0.535,0.407l0.537,0.405l0.537,0.404l0.539,0.402l0.539,0.4l0.541,0.4l0.541,0.397l0.543,0.396l0.545,0.396l0.545,0.393l0.546,0.392l0.546,0.39l0.549,0.389l0.55,0.388l0.55,0.386l0.551,0.384l0.553,0.383l0.554,0.382l0.556,0.38l0.554,0.378l0.557,0.377l0.558,0.375l0.56,0.375l0.56,0.372l0.561,0.371l0.561,0.369l0.564,0.368l0.565,0.367l0.565,0.365l0.566,0.364l0.568,0.361l0.567,0.36l0.57,0.359l0.572,0.358l0.571,0.356l0.571,0.353l0.574,0.353l0.575,0.351l0.575,0.35l0.576,0.348l0.578,0.346l0.579,0.346l0.579,0.343l0.58,0.341l0.583,0.341l0.582,0.339l0.582,0.336l0.586,0.337l0.585,0.333l0.586,0.333l0.587,0.331l0.589,0.329l0.589,0.328l0.59,0.325l0.591,0.325l0.593,0.323l0.593,0.321l0.593,0.32l0.595,0.318l0.597,0.317l0.597,0.315l0.597,0.313l0.599,0.312l0.599,0.309l0.6,0.308l0.602,0.308l0.603,0.305l0.603,0.304l0.604,0.302l0.606,0.3l0.606,0.299l0.606,0.297l0.608,0.295l0.609,0.294l0.609,0.292l0.611,0.291l0.612,0.289l0.612,0.287l0.613,0.286l0.614,0.284l0.615,0.282l0.616,0.281l0.617,0.279l0.616,0.276l0.619,0.276l0.62,0.275l0.619,0.272l0.622,0.271l0.622,0.269l0.622,0.267l0.624,0.265l0.624,0.264l0.626,0.263l0.625,0.26l0.627,0.259l0.628,0.257l0.628,0.256l0.629,0.253l0.632,0.253l0.63,0.25l0.631,0.248l0.634,0.248l0.634,0.245l0.633,0.243l0.636,0.242l0.635,0.24l0.637,0.239l0.637,0.236l0.638,0.235l0.64,0.233l0.64,0.232l0.641,0.23l0.64,0.227l0.643,0.227l0.643,0.224l0.643,0.223l0.645,0.221l0.645,0.219l0.646,0.218l0.648,0.216l0.647,0.214l0.647,0.212l0.65,0.21l0.65,0.209l0.651,0.207l0.652,0.206l0.651,0.203l0.653,0.202l0.653,0.199l0.654,0.198l0.656,0.197l0.656,0.195l0.655,0.192l0.658,0.191l0.658,0.19l0.658,0.187l0.659,0.185l0.661,0.184l0.662,0.183l0.661,0.18l0.661,0.178l0.663,0.176l0.664,0.175l0.664,0.173l0.666,0.171l0.665,0.17l0.667,0.167l0.666,0.166l0.668,0.164l0.669,0.162l0.669,0.16l0.669,0.158l0.67,0.157l0.672,0.154l0.672,0.153l0.673,0.151l0.671,0.149l0.675,0.148l0.675,0.145l0.674,0.144l0.675,0.141l0.678,0.14l0.677,0.138l0.677,0.136l0.679,0.135l0.678,0.132l0.679,0.13l0.682,0.129l0.681,0.127l0.68,0.125l0.683,0.123l0.683,0.121l0.682,0.119l0.684,0.118l0.685,0.115l0.686,0.114l0.686,0.111l0.685,0.11l0.688,0.108l0.688,0.106l0.687,0.104l0.688,0.102l0.692,0.1l0.69,0.099l0.69,0.096l0.692,0.095l0.691,0.092l0.691,0.091l0.695,0.088l0.693,0.087l0.694,0.085l0.695,0.083l0.695,0.081l0.696,0.079l0.696,0.077l0.696,0.075l0.698,0.073l0.699,0.071l0.699,0.069l0.699,0.068l0.701,0.065l0.699,0.063l0.701,0.062l0.702,0.059l0.701,0.057l0.703,0.056l0.704,0.053l0.703,0.052l0.703,0.049l0.706,0.048l0.705,0.046l0.705,0.043l0.706,0.042l0.707,0.039l0.708,0.038l0.709,0.035l0.707,0.034l0.709,0.031l0.709,0.03l0.711,0.027l0.71,0.026l0.71,0.023l0.711,0.022l0.714,0.019l0.713,0.017l0.712,0.016l0.713,0.013l0.713,0.011l0.716,0.009l0.714,0.008l0.716,0.005l0.716,0.003l0.716,0.001l0.717,-0.001l0.716,-0.003l0.715,-0.005l0.715,-0.008l0.715,-0.009l0.713,-0.011l0.713,-0.013l0.712,-0.016l0.713,-0.017l0.714,-0.019l0.712,-0.022l0.709,-0.023l0.71,-0.026l0.711,-0.027l0.709,-0.03l0.709,-0.031l0.707,-0.034l0.709,-0.035l0.708,-0.038l0.707,-0.039l0.706,-0.042l0.705,-0.043l0.705,-0.046l0.706,-0.048l0.703,-0.049l0.704,-0.052l0.703,-0.053l0.704,-0.056l0.701,-0.057l0.701,-0.059l0.701,-0.062l0.699,-0.063l0.702,-0.065l0.699,-0.068l0.698,-0.069l0.699,-0.071l0.698,-0.073l0.696,-0.075l0.696,-0.077l0.696,-0.079l0.695,-0.081l0.695,-0.083l0.694,-0.085l0.694,-0.087l0.694,-0.088l0.692,-0.091l0.691,-0.092l0.692,-0.095l0.689,-0.096l0.69,-0.099l0.692,-0.1l0.689,-0.102l0.686,-0.104l0.688,-0.106l0.688,-0.108l0.686,-0.11l0.685,-0.111l0.686,-0.114l0.685,-0.115l0.684,-0.118l0.682,-0.119l0.683,-0.121l0.684,-0.123l0.679,-0.125l0.681,-0.127l0.682,-0.129l0.679,-0.13l0.678,-0.132l0.679,-0.135l0.677,-0.136l0.677,-0.138l0.678,-0.14l0.676,-0.141l0.673,-0.144l0.676,-0.145l0.674,-0.148l0.671,-0.149l0.673,-0.151l0.672,-0.153l0.672,-0.154l0.671,-0.157l0.668,-0.158l0.669,-0.16l0.67,-0.162l0.667,-0.164l0.667,-0.166l0.667,-0.167l0.665,-0.17l0.665,-0.171l0.665,-0.173l0.663,-0.175l0.663,-0.176l0.661,-0.178l0.662,-0.18l0.661,-0.183l0.661,-0.184l0.659,-0.185l0.658,-0.187l0.658,-0.19l0.658,-0.191l0.655,-0.192l0.656,-0.195l0.656,-0.197l0.654,-0.198l0.653,-0.199l0.653,-0.202l0.651,-0.203l0.652,-0.206l0.651,-0.207l0.651,-0.209l0.649,-0.21l0.647,-0.212l0.647,-0.214l0.648,-0.216l0.646,-0.218l0.645,-0.219l0.645,-0.221l0.643,-0.223l0.644,-0.224l0.642,-0.227l0.64,-0.227l0.641,-0.23l0.64,-0.231l0.64,-0.234l0.638,-0.235l0.637,-0.236l0.637,-0.239l0.636,-0.24l0.635,-0.242l0.634,-0.243l0.633,-0.245l0.634,-0.248l0.631,-0.248l0.631,-0.25l0.631,-0.253l0.629,-0.253l0.628,-0.256l0.628,-0.257l0.627,-0.259l0.625,-0.26l0.626,-0.263l0.624,-0.264l0.624,-0.265l0.622,-0.267l0.622,-0.269l0.622,-0.271l0.619,-0.272l0.62,-0.275l0.619,-0.276l0.617,-0.276l0.617,-0.279l0.616,-0.281l0.614,-0.282l0.614,-0.284l0.613,-0.286l0.612,-0.287l0.612,-0.289l0.611,-0.291l0.609,-0.292l0.609,-0.294l0.608,-0.295l0.606,-0.297l0.606,-0.299l0.607,-0.301l0.603,-0.301l0.603,-0.304l0.603,-0.305l0.603,-0.308l0.599,-0.308l0.599,-0.309l0.599,-0.312l0.598,-0.313l0.596,-0.315l0.597,-0.317l0.595,-0.318l0.594,-0.32l0.592,-0.321l0.593,-0.323l0.592,-0.325l0.589,-0.325l0.589,-0.328l0.589,-0.329l0.587,-0.331l0.586,-0.333l0.586,-0.334l0.585,-0.336l0.582,-0.336l0.582,-0.339l0.584,-0.341l0.579,-0.341l0.579,-0.343l0.579,-0.346l0.578,-0.346l0.576,-0.348l0.576,-0.35l0.574,-0.35l0.574,-0.353l0.572,-0.354l0.571,-0.356l0.572,-0.358l0.569,-0.359l0.567,-0.359l0.568,-0.362l0.566,-0.364l0.565,-0.365l0.565,-0.366l0.564,-0.369l0.562,-0.369l0.56,-0.371l0.561,-0.372l0.559,-0.374l0.558,-0.376l0.557,-0.377l0.554,-0.378l0.556,-0.38l0.555,-0.382l0.552,-0.383l0.551,-0.384l0.55,-0.386l0.55,-0.388l0.549,-0.39l0.546,-0.389l0.546,-0.392l0.546,-0.393l0.544,-0.396l0.543,-0.396l0.541,-0.397l0.541,-0.4l0.54,-0.4l0.538,-0.403l0.538,-0.403l0.536,-0.405l0.535,-0.407l0.534,-0.408l0.532,-0.409l0.532,-0.41l0.531,-0.413l0.529,-0.414l0.529,-0.415l0.527,-0.416l0.525,-0.418l0.526,-0.42l0.523,-0.42l0.522,-0.422l0.523,-0.425l0.52,-0.425l0.519,-0.426l0.518,-0.428l0.516,-0.429l0.516,-0.431l0.514,-0.432l0.513,-0.433l0.512,-0.435l0.511,-0.437l0.509,-0.436l0.509,-0.44l0.508,-0.441l0.506,-0.442l0.504,-0.442l0.503,-0.445l0.503,-0.446l0.501,-0.448l0.5,-0.448l0.499,-0.45l0.498,-0.452l0.496,-0.452l0.495,-0.454l0.493,-0.456l0.493,-0.457l0.492,-0.458l0.489,-0.459l0.489,-0.461l0.488,-0.462l0.487,-0.464l0.485,-0.464l0.484,-0.467l0.483,-0.468l0.481,-0.468l0.48,-0.47l0.478,-0.472l0.478,-0.473l0.476,-0.474l0.475,-0.475l0.474,-0.477l0.472,-0.478l0.472,-0.48l0.469,-0.48l0.469,-0.482l0.467,-0.483l0.466,-0.484l0.465,-0.487l0.463,-0.487l0.462,-0.488l0.46,-0.489l0.46,-0.492l0.458,-0.492l0.457,-0.493l0.456,-0.495l0.454,-0.496l0.452,-0.497l0.451,-0.499l0.451,-0.5l0.448,-0.501l0.448,-0.503l0.446,-0.503l0.445,-0.505l0.443,-0.506l0.441,-0.506l0.442,-0.51l0.439,-0.51l0.438,-0.511l0.437,-0.512l0.435,-0.513l0.434,-0.515l0.432,-0.516l0.431,-0.517l0.429,-0.518l0.429,-0.52l0.427,-0.522l0.425,-0.521l0.424,-0.523l0.423,-0.525l0.421,-0.526l0.42,-0.526l0.419,-0.528l0.417,-0.53l0.416,-0.53l0.414,-0.531l0.412,-0.532l0.411,-0.535l0.411,-0.536l0.408,-0.536l0.407,-0.537l0.406,-0.539l0.405,-0.54l0.403,-0.542l0.4,-0.541l0.4,-0.543l0.4,-0.546l0.396,-0.544l0.395,-0.547l0.394,-0.548l0.393,-0.55l0.391,-0.55l0.39,-0.551l0.389,-0.554l0.387,-0.554l0.384,-0.553l0.384,-0.556l0.382,-0.557l0.381,-0.559l0.38,-0.56l0.377,-0.56l0.377,-0.561l0.374,-0.563l0.374,-0.564l0.372,-0.565l0.37,-0.566l0.369,-0.567l0.367,-0.567l0.366,-0.57l0.365,-0.572l0.362,-0.57l0.361,-0.573l0.36,-0.574l0.358,-0.575l0.357,-0.576l0.355,-0.577l0.353,-0.578l0.352,-0.579l0.351,-0.58l0.349,-0.582l0.347,-0.582l0.346,-0.583l0.344,-0.584l0.343,-0.587l0.341,-0.586l0.34,-0.588l0.338,-0.589l0.336,-0.589l0.335,-0.59l0.334,-0.593l0.331,-0.593l0.33,-0.594l0.329,-0.595l0.326,-0.596l0.326,-0.597l0.323,-0.597l0.323,-0.6l0.321,-0.601l0.318,-0.601l0.318,-0.602l0.315,-0.603l0.315,-0.604l0.312,-0.606l0.311,-0.606l0.309,-0.607l0.308,-0.609l0.306,-0.609l0.305,-0.61l0.302,-0.612l0.301,-0.611l0.3,-0.614l0.298,-0.615l0.296,-0.614l0.295,-0.617l0.292,-0.617l0.292,-0.619l0.29,-0.619l0.287,-0.619l0.287,-0.623l0.285,-0.622l0.282,-0.622l0.281,-0.624l0.28,-0.625l0.278,-0.627l0.277,-0.627l0.274,-0.627l0.273,-0.629l0.271,-0.631l0.27,-0.63l0.267,-0.632l0.267,-0.633l0.264,-0.634l0.262,-0.633l0.262,-0.637l0.259,-0.637l0.258,-0.636l0.256,-0.64l0.254,-0.64l0.252,-0.638l0.251,-0.641l0.249,-0.643l0.248,-0.643l0.245,-0.644l0.244,-0.646l0.242,-0.645l0.24,-0.645l0.239,-0.649l0.237,-0.648l0.235,-0.649l0.234,-0.652l0.231,-0.651l0.23,-0.651l0.228,-0.654l0.227,-0.654l0.224,-0.654l0.223,-0.656l0.221,-0.657l0.219,-0.658l0.217,-0.657l0.216,-0.66l0.214,-0.661l0.212,-0.66l0.211,-0.662l0.004,-0.012l-1.052,-0.138l-1.335,-0.173l-1.348,-0.173l-1.358,-0.174l-1.368,-0.173l-1.379,-0.174l-1.389,-0.174l-1.397,-0.173l-1.407,-0.173l-1.415,-0.172l-1.422,-0.172l-1.43,-0.172l-1.438,-0.17l-1.443,-0.17l-1.45,-0.169l-1.455,-0.168l-1.461,-0.166l-1.465,-0.166l-1.47,-0.164l-1.474,-0.163l-1.476,-0.161l-1.48,-0.16l-1.482,-0.158l-1.485,-0.156l-1.485,-0.154l-1.487,-0.152l-1.487,-0.15l-1.488,-0.148l-1.487,-0.146l-1.487,-0.143l-1.485,-0.141l-1.483,-0.138l-1.481,-0.135l-1.478,-0.133l-1.475,-0.13l-1.471,-0.127l-1.467,-0.123l-1.473,-0.122l-0.72,-0.058l-0.727,-0.058l-0.727,-0.058l-0.725,-0.056l-0.724,-0.056l-0.722,-0.055l-0.72,-0.054l-0.718,-0.053l-0.717,-0.052l-0.715,-0.051l-0.712,-0.051l-0.711,-0.049l-0.709,-0.049l-0.707,-0.047l-0.704,-0.047l-0.702,-0.045l-0.7,-0.045l-0.697,-0.043l-0.695,-0.043l-0.692,-0.041l-0.69,-0.041l-0.687,-0.039l-0.684,-0.038l-0.683,-0.038l-0.678,-0.036l-0.675,-0.035l-0.672,-0.034l-0.67,-0.033l-0.666,-0.032l-0.663,-0.03l-0.66,-0.03l-0.656,-0.028l-0.653,-0.028l-0.649,-0.026l-0.646,-0.025l-0.642,-0.024l-0.637,-0.022l-0.634,-0.021l-0.63,-0.021l-0.627,-0.019l-0.621,-0.017l-0.618,-0.017l-0.613,-0.015l-0.61,-0.014l-0.604,-0.013l-0.6,-0.012l-0.595,-0.01l-0.59,-0.009l-0.586,-0.008l-0.581,-0.006l-0.575,-0.006l-0.571,-0.004l-0.565,-0.002l-0.56,-0.002l-0.555,0l-0.549,0.001Z"/><g><g><path d="M406.199,316.504l-110.717,9.305l10.139,-56.516l100.578,47.211Z"/><path d="M295.482,325.809l-100.578,-47.211l110.717,-9.305l-10.139,56.516Zm-78.83,-43.31l74.523,34.982l7.513,-41.876l-82.036,6.894Z"/></g></g><text x="155.505px" y="504.364px" style="font-family:'Muli-Regular', 'Muli';font-size:142.289px;">0.00</text><text x="141.247px" y="222.687px" style="font-family:'Muli-Regular', 'Muli';font-size:156.804px;">0.00</text></g></svg>