<?xml version="1.0" encoding="UTF-8" standalone="no"?><!DOCTYPE svg PUBLIC "-//W3C//DTD SVG 1.1//EN" "http://www.w3.org/Graphics/SVG/1.1/DTD/svg11.dtd"><svg width="100%" height="100%" viewBox="0 0 600 600" version="1.1" xmlns="http://www.w3.org/2000/svg" xmlns:xlink="http://www.w3.org/1999/xlink" xml:space="preserve" xmlns:serif="http://www.serif.com/" style="fill-rule:evenodd;clip-rule:evenodd;stroke-linecap:round;stroke-linejoin:round;stroke-miterlimit:1.5;"><path d="M298.77,455.902c0,0 135.299,-219.695 135.299,-313.849c0,-67.363 -60.625,-122.053 -135.299,-122.053c-74.674,0 -135.299,54.69 -135.299,122.053c0,94.154 135.299,313.849 135.299,313.849Zm0,-357.44c26.669,0 48.321,19.532 48.321,43.591c0,24.058 -21.652,43.59 -48.321,43.59c-26.669,0 -48.321,-19.532 -48.321,-43.59c0,-24.059 21.652,-43.591 48.321,-43.591Z" style="fill:#fff;stroke:#000;stroke-width:30px;"/><path d="M170.667,336.168c-25.333,6.087 -48.5,13.926 -68.696,23.245c-109.295,50.435 -109.295,132.327 0,182.761c109.295,50.435 286.763,50.435 396.058,0c109.295,-50.434 109.295,-132.326 0,-182.761c-20.196,-9.319 -43.363,-17.158 -68.696,-23.245c25.333,6.087 48.5,13.926 68.696,23.245c109.295,50.435 109.295,132.327 0,182.761c-109.295,50.435 -286.763,50.435 -396.058,0c-109.295,-50.434 -109.295,-132.326 0,-182.761c20.196,-9.319 43.363,-17.158 68.696,-23.245Z" style="fill:#ebebeb;stroke:#000;stroke-width:30px;"/></svg>