<?xml version="1.0" encoding="UTF-8" standalone="no"?><!DOCTYPE svg PUBLIC "-//W3C//DTD SVG 1.1//EN" "http://www.w3.org/Graphics/SVG/1.1/DTD/svg11.dtd"><svg width="100%" height="100%" viewBox="0 0 800 636" version="1.1" xmlns="http://www.w3.org/2000/svg" xmlns:xlink="http://www.w3.org/1999/xlink" xml:space="preserve" xmlns:serif="http://www.serif.com/" style="fill-rule:evenodd;clip-rule:evenodd;stroke-linejoin:round;stroke-miterlimit:2;"><rect id="Artboard1" x="0" y="0" width="800" height="636" style="fill:none;"/><g><path d="M384,420c0,0 110,-193.536 110,-276.48c0,-59.342 -49.289,-107.52 -110,-107.52c-60.711,0 -110,48.178 -110,107.52c0,82.944 110,276.48 110,276.48Zm0,-314.88c21.682,0 39.286,17.206 39.286,38.4c0,21.194 -17.604,38.4 -39.286,38.4c-21.682,0 -39.286,-17.206 -39.286,-38.4c0,-21.194 17.604,-38.4 39.286,-38.4Z" style="fill:#ebebeb;"/><path d="M384.402,21.001c40.849,0.19 81.133,21.208 103.977,55.117c15.891,23.59 22.861,52.817 19.835,81.346c-2.529,23.841 -9.556,47.075 -17.474,69.869c-22.14,63.735 -52.52,124.662 -84.933,184.229c-2.647,4.865 -5.319,9.717 -8.03,14.546l-0.722,1.279l-2.075,2.833c-2.357,2.001 -2.845,2.772 -5.809,3.86c-5.49,2.017 -12.126,0.464 -16.151,-3.86c-2.958,-3.179 -4.688,-7.477 -6.882,-11.454c-29.445,-53.394 -56.692,-108.028 -78.908,-164.574c-12.389,-31.534 -24.073,-63.762 -27.506,-97.326c-2.889,-28.241 4.113,-57.316 19.897,-80.748c22.742,-33.757 62.781,-54.925 103.977,-55.117c0.268,-0.001 0.536,-0.001 0.804,0Zm-0.711,29.999c-30.81,0.144 -61.131,15.75 -78.556,40.952c-12.306,17.8 -17.813,39.905 -15.567,61.862c2.055,20.09 7.908,39.664 14.406,58.927c12.705,37.668 28.96,74.009 46.246,109.822c10.69,22.147 21.876,44.02 33.511,65.749l0.269,0.501c30.466,-56.746 59.286,-114.583 80.026,-176.072c9.326,-27.647 18.721,-56.484 13.551,-85.26c-5.404,-30.081 -27.032,-56.458 -55.184,-68.604c-12.173,-5.253 -25.505,-7.897 -38.702,-7.877Zm0.656,39.121c21.369,0.199 42.147,13.956 50.121,33.71c8.531,21.131 1.621,47.42 -17.081,61.789c-14.311,10.996 -34.231,14.198 -51.323,8.309c-16.648,-5.736 -30.143,-20.015 -34.617,-36.995c-4.51,-17.118 0.374,-36.41 12.494,-49.442c10.11,-10.873 24.785,-17.232 39.712,-17.371c0.231,-0.001 0.463,-0.001 0.694,0Zm-0.508,30c-11.978,0.111 -23.297,9.909 -24.076,21.907c-0.642,9.879 5.973,19.723 15.375,23.285c12.785,4.843 29.074,-2.689 32.476,-16.299c3.374,-13.501 -7.866,-28.558 -23.132,-28.889c-0.215,-0.004 -0.429,-0.005 -0.643,-0.004Z"/><path d="M279.851,314.523c-20.597,5.362 -39.431,12.267 -55.851,20.477c-88.858,44.429 -88.858,116.571 0,161c88.858,44.429 233.142,44.429 322,0c88.858,-44.429 88.858,-116.571 0,-161c-16.42,-8.21 -35.254,-15.115 -55.851,-20.477c20.597,5.362 39.431,12.267 55.851,20.477c88.858,44.429 88.858,116.571 0,161c-88.858,44.429 -233.142,44.429 -322,0c-88.858,-44.429 -88.858,-116.571 0,-161c16.42,-8.21 35.254,-15.115 55.851,-20.477Z" style="fill:#ebebeb;"/><path d="M493.949,300.012c32.318,8.463 64.284,21.064 90.694,41.209c21.448,16.36 39.458,38.912 42.538,66.105c1.803,15.91 -2.029,32.234 -9.863,46.256c-14.698,26.309 -40.734,44.291 -67.398,57.207c-41.08,19.898 -86.71,29.26 -132.549,32.421c-62.375,4.303 -126.169,-2.246 -184.102,-26.482c-30.864,-12.911 -60.926,-31.159 -78.504,-59.604c-13.972,-22.609 -16.354,-51.719 -3.782,-76.516c14.784,-29.164 43.509,-48.519 72.559,-62.039c16.871,-7.852 34.57,-13.86 52.509,-18.557l3.583,-0.488c3.165,0.338 4.092,0.147 6.995,1.618c7.43,3.763 10.617,14.356 5.688,21.723c-4.298,6.422 -13.222,7.27 -21.355,9.745c-27.574,8.395 -54.791,20.197 -75.782,39.449c-14.929,13.693 -26.503,32.63 -21.67,53.324c4.05,17.341 17.315,31.039 31.098,41.341c26.864,20.078 59.554,31.328 92.759,38.535c58.271,12.648 119.539,12.516 177.706,-0.539c34.807,-7.812 69.685,-20.207 96.377,-42.811c16.428,-13.912 29.926,-33.639 25.212,-55.526c-4.308,-20 -20.513,-34.953 -36.453,-45.802c-22.22,-15.123 -47.907,-24.752 -73.859,-31.547l-3.363,-1.331c-2.593,-1.846 -3.495,-2.134 -5.304,-4.838c-4.614,-6.896 -2.219,-17.718 5.688,-21.723c2.903,-1.471 3.83,-1.28 6.995,-1.618c1.194,0.163 2.389,0.325 3.583,0.488Z"/></g></svg>