<?xml version="1.0" encoding="UTF-8" standalone="no"?><!DOCTYPE svg PUBLIC "-//W3C//DTD SVG 1.1//EN"
        "http://www.w3.org/Graphics/SVG/1.1/DTD/svg11.dtd">
<svg width="100%" height="100%" viewBox="0 0 800 600" version="1.1" xmlns="http://www.w3.org/2000/svg"
     xmlns:xlink="http://www.w3.org/1999/xlink" xml:space="preserve" xmlns:serif="http://www.serif.com/"
     style="fill-rule:evenodd;clip-rule:evenodd;stroke-linejoin:round;stroke-miterlimit:2;"><rect id="Artboard1" x="0" y="0" width="800" height="600" style="fill:none;"/>
    <g id="Artboard11" serif:id="Artboard1"><g><path d="M400,95.455c112.892,0 204.545,91.653 204.545,204.545c0,112.892 -91.653,204.545 -204.545,204.545c-112.892,0 -204.545,-91.653 -204.545,-204.545c0,-112.892 91.653,-204.545 204.545,-204.545Zm0,30.681c95.958,0 173.864,77.906 173.864,173.864c0,95.958 -77.906,173.864 -173.864,173.864c-95.958,0 -173.864,-77.906 -173.864,-173.864c0,-95.958 77.906,-173.864 173.864,-173.864Z"/><rect
            x="150" y="277.273" width="68.182" height="45.455"/><rect x="581.818" y="277.273" width="68.182"
                                                                      height="45.455"/><path
            d="M377.273,481.818l0,68.182l45.454,0l0,-68.182l-45.454,0Z"/><path
            d="M377.273,50l0,68.182l45.454,0l0,-68.182l-45.454,0Z"/></g></g></svg>
