<?xml version="1.0" encoding="UTF-8" standalone="no"?><!DOCTYPE svg PUBLIC "-//W3C//DTD SVG 1.1//EN" "http://www.w3.org/Graphics/SVG/1.1/DTD/svg11.dtd"><svg width="100%" height="100%" viewBox="0 0 600 600" version="1.1" xmlns="http://www.w3.org/2000/svg" xmlns:xlink="http://www.w3.org/1999/xlink" xml:space="preserve" xmlns:serif="http://www.serif.com/" style="fill-rule:evenodd;clip-rule:evenodd;stroke-linejoin:round;stroke-miterlimit:2;"><rect id="Artboard1" x="0" y="0" width="600" height="600" style="fill:none;"/><g><path d="M300,70.909c126.439,0 229.091,102.652 229.091,229.091c0,126.439 -102.652,229.091 -229.091,229.091c-126.439,0 -229.091,-102.652 -229.091,-229.091c0,-126.439 102.652,-229.091 229.091,-229.091Zm0,57.273c94.829,0 171.818,76.989 171.818,171.818c0,94.829 -76.989,171.818 -171.818,171.818c-94.829,0 -171.818,-76.989 -171.818,-171.818c0,-94.829 76.989,-171.818 171.818,-171.818Z"/><rect x="20" y="274.545" width="76.364" height="50.909"/><rect x="503.636" y="274.545" width="76.364" height="50.909"/><path d="M274.545,503.636l0,76.364l50.91,0l0,-76.364l-50.91,0Z"/><path d="M274.545,20l0,76.364l50.91,0l0,-76.364l-50.91,0Z"/></g><text x="159.333px" y="289.313px" style="font-family:'Muli-Regular', 'Muli';font-size:138.52px;">0.00</text><text x="159.333px" y="409.313px" style="font-family:'Muli-Regular', 'Muli';font-size:138.52px;">0.00</text></svg>