<?xml version="1.0" encoding="UTF-8" standalone="no"?><!DOCTYPE svg PUBLIC "-//W3C//DTD SVG 1.1//EN" "http://www.w3.org/Graphics/SVG/1.1/DTD/svg11.dtd"><svg width="100%" height="100%" viewBox="0 0 800 600" version="1.1" xmlns="http://www.w3.org/2000/svg" xmlns:xlink="http://www.w3.org/1999/xlink" xml:space="preserve" xmlns:serif="http://www.serif.com/" style="fill-rule:evenodd;clip-rule:evenodd;stroke-linejoin:round;stroke-miterlimit:2;"><rect id="Artboard1" x="0" y="0" width="800" height="600" style="fill:none;"/><g id="Artboard11" serif:id="Artboard1"><g><circle cx="400" cy="310" r="250" style="fill:#ebebeb;"/><path d="M400.848,47.501c66.236,0.315 131.557,26.389 179.657,71.976c39.693,37.62 67.285,87.772 77.448,141.673c13.275,70.407 -3.675,146.011 -46.228,203.975c-38.466,52.398 -96.88,89.75 -160.463,102.361c-66.221,13.134 -137.338,-0.375 -194.046,-37.23c-62.687,-40.742 -106.716,-108.985 -117.168,-183.579c-9.5,-67.802 8.665,-138.933 49.636,-193.704c47.333,-63.275 123.265,-103.606 204.394,-105.407c2.255,-0.05 4.509,-0.068 6.77,-0.065Zm-1.617,25c-73.56,0.35 -145.421,36.483 -189.528,95.447c-44.167,59.043 -58.618,139.299 -37.162,210.55c20.132,66.854 71.326,123.82 136.392,150.891c57.539,23.939 124.582,23.944 182.134,0c64.76,-26.944 116.088,-83.465 136.392,-150.891c17.561,-58.318 11.623,-123.571 -16.61,-177.847c-37.662,-72.403 -113.814,-123.003 -197.109,-127.76c-4.829,-0.275 -9.675,-0.397 -14.509,-0.39Z"/><path d="M160,300l480,0" style="fill:none;"/><path d="M643.59,285.436c5.701,2.162 10.556,6.62 11.301,12.756c0.735,6.059 -2.584,12.289 -7.92,15.09c-2.881,1.512 -3.812,1.334 -6.971,1.718c0,0 -101.536,-10.879 -131.668,-14.107c-5.532,-0.593 -11.117,-0.475 -16.619,0.35c-32.459,4.869 -150.759,22.614 -183.35,27.503c-5.553,0.832 -11.189,0.951 -16.771,0.353c-30.226,-3.238 -131.592,-14.099 -131.592,-14.099c-8.263,-1.003 -16.008,-7.604 -14.891,-16.808c0.735,-6.051 5.407,-11.303 11.301,-12.756c1.171,-0.289 2.393,-0.291 3.59,-0.436c0,0 104.775,11.226 133.044,14.255c4.618,0.495 9.281,0.396 13.874,-0.293c30.126,-4.519 149.878,-22.481 183.978,-27.596c6.044,-0.907 12.18,-1.036 18.257,-0.385c31.11,3.333 130.847,14.019 130.847,14.019c1.197,0.145 2.393,0.291 3.59,0.436Z"/><path d="M205,160l390,0" style="fill:none;"/><path d="M598.59,145.436c2.975,1.128 3.921,1.179 6.357,3.336c6.157,5.455 6.634,16.578 0,22.456c-2.701,2.392 -6.288,3.328 -9.947,3.772c0,0 -63.004,-9.948 -86.395,-13.641c-5.703,-0.901 -11.511,-0.923 -17.221,-0.067c-32.709,4.907 -149.034,22.356 -182.386,27.358c-5.964,0.895 -12.029,0.871 -17.985,-0.069c-23.687,-3.74 -86.013,-13.581 -86.013,-13.581c-6.053,-0.735 -11.833,-3.901 -14.025,-9.681c-3.023,-7.971 2.133,-17.837 10.435,-19.883c1.171,-0.289 2.393,-0.291 3.59,-0.436c0,0 63.292,9.994 86.555,13.667c5.597,0.883 11.296,0.905 16.9,0.065c31.97,-4.796 145.441,-21.816 180.886,-27.133c7.064,-1.06 14.249,-1.032 21.306,0.082c24.805,3.917 84.353,13.319 84.353,13.319c1.197,0.145 2.393,0.291 3.59,0.436Z"/><path d="M190,440l420,0" style="fill:none;"/><path d="M613.59,425.436c5.701,2.162 10.556,6.62 11.301,12.756c0.735,6.059 -2.584,12.289 -7.92,15.09c-2.881,1.512 -3.812,1.334 -6.971,1.718c0,0 -76.076,-10.374 -101.694,-13.867c-5.509,-0.752 -11.097,-0.714 -16.596,0.11c-31.547,4.733 -144.159,21.624 -180.392,27.059c-7.507,1.126 -15.136,1.177 -22.658,0.152c-28.092,-3.831 -98.66,-13.454 -98.66,-13.454c-7.189,-0.873 -13.971,-5.619 -14.891,-13.192c-0.882,-7.267 4.221,-14.627 11.301,-16.372c1.171,-0.289 2.393,-0.291 3.59,-0.436c0,0 78.5,10.705 102.871,14.028c4.729,0.645 9.525,0.613 14.244,-0.095c29.962,-4.495 145.979,-21.897 182.092,-27.314c7.159,-1.074 14.434,-1.122 21.607,-0.144c27.726,3.78 99.186,13.525 99.186,13.525c1.197,0.145 2.393,0.291 3.59,0.436Z"/></g></g></svg>