<?xml version="1.0" encoding="UTF-8" standalone="no"?><!DOCTYPE svg PUBLIC "-//W3C//DTD SVG 1.1//EN" "http://www.w3.org/Graphics/SVG/1.1/DTD/svg11.dtd"><svg width="100%" height="100%" viewBox="0 0 600 600" version="1.1" xmlns="http://www.w3.org/2000/svg" xmlns:xlink="http://www.w3.org/1999/xlink" xml:space="preserve" xmlns:serif="http://www.serif.com/" style="fill-rule:evenodd;clip-rule:evenodd;stroke-linecap:round;stroke-linejoin:round;stroke-miterlimit:1.5;"><circle cx="300" cy="300" r="280" style="fill:#ebebeb;"/><path d="M300.905,20.001l0.905,0.005l0.903,0.007l0.904,0.01l0.902,0.013l0.902,0.016l0.901,0.018l0.9,0.022l0.9,0.024l0.899,0.027l0.898,0.03l0.898,0.033l0.897,0.035l0.896,0.038l0.895,0.042l0.895,0.044l0.894,0.046l0.893,0.05l0.892,0.052l0.892,0.056l0.891,0.058l0.89,0.06l0.889,0.064l0.889,0.066l0.888,0.069l0.887,0.072l0.886,0.075l0.886,0.077l0.885,0.08l0.884,0.083l0.883,0.085l0.882,0.089l0.882,0.091l0.881,0.094l0.88,0.096l0.879,0.099l0.878,0.102l0.878,0.105l0.876,0.107l0.876,0.11l0.875,0.113l0.874,0.116l0.874,0.118l0.872,0.121l0.872,0.123l0.87,0.126l0.87,0.129l0.869,0.132l0.868,0.134l0.868,0.137l0.866,0.139l0.866,0.142l0.864,0.145l0.864,0.148l0.863,0.15l0.862,0.153l0.861,0.155l0.86,0.158l0.859,0.161l0.858,0.163l0.858,0.166l0.856,0.168l0.855,0.171l0.855,0.174l0.854,0.176l0.852,0.179l0.852,0.181l0.851,0.184l0.85,0.187l0.848,0.189l0.848,0.192l0.847,0.194l0.846,0.197l0.845,0.2l0.844,0.202l0.843,0.204l0.842,0.207l0.841,0.21l0.84,0.212l0.839,0.215l0.838,0.217l0.837,0.219l0.836,0.223l0.835,0.224l0.833,0.228l0.833,0.23l0.832,0.232l0.831,0.235l0.83,0.237l0.828,0.24l0.828,0.242l0.826,0.245l0.826,0.247l0.824,0.249l0.824,0.253l0.822,0.254l0.821,0.257l0.82,0.26l0.819,0.262l0.818,0.264l0.817,0.267l0.816,0.269l0.815,0.272l0.813,0.274l0.813,0.277l0.811,0.279l0.81,0.281l0.809,0.284l0.808,0.286l0.807,0.289l0.805,0.291l0.805,0.293l0.803,0.296l0.802,0.298l0.802,0.3l0.799,0.303l0.799,0.306l0.798,0.307l0.796,0.31l0.795,0.313l0.794,0.315l0.793,0.317l0.792,0.319l0.79,0.322l0.789,0.324l0.789,0.326l0.786,0.329l0.786,0.331l0.784,0.334l0.784,0.336l0.782,0.338l0.78,0.34l0.78,0.343l0.778,0.345l0.777,0.347l0.776,0.349l0.774,0.352l0.774,0.354l0.772,0.357l0.77,0.358l0.77,0.361l0.768,0.364l0.767,0.365l0.765,0.368l0.765,0.37l0.763,0.372l0.762,0.374l0.76,0.377l0.759,0.379l0.758,0.381l0.757,0.383l0.755,0.386l0.754,0.388l0.752,0.39l0.752,0.392l0.75,0.395l0.748,0.396l0.747,0.399l0.746,0.401l0.745,0.403l0.743,0.406l0.742,0.407l0.74,0.41l0.739,0.412l0.738,0.414l0.736,0.416l0.735,0.419l0.734,0.42l0.732,0.423l0.731,0.425l0.729,0.427l0.728,0.429l0.727,0.431l0.725,0.434l0.724,0.435l0.722,0.438l0.721,0.439l0.72,0.442l0.718,0.444l0.716,0.446l0.715,0.448l0.714,0.451l0.713,0.452l0.71,0.454l0.71,0.457l0.708,0.458l0.706,0.461l0.705,0.463l0.704,0.464l0.702,0.467l0.7,0.469l0.699,0.471l0.698,0.473l0.696,0.475l0.694,0.477l0.693,0.479l0.692,0.481l0.69,0.483l0.688,0.485l0.687,0.487l0.686,0.49l0.684,0.491l0.682,0.493l0.681,0.495l0.679,0.497l0.678,0.499l0.676,0.501l0.675,0.504l0.673,0.505l0.672,0.507l0.67,0.509l0.668,0.511l0.667,0.513l0.665,0.514l0.664,0.517l0.662,0.519l0.66,0.521l0.659,0.522l0.657,0.525l0.656,0.527l0.654,0.528l0.652,0.53l0.651,0.533l0.649,0.534l0.648,0.536l0.645,0.538l0.645,0.54l0.642,0.542l0.641,0.543l0.639,0.546l0.638,0.547l0.636,0.55l0.634,0.551l0.633,0.553l0.631,0.555l0.629,0.557l0.628,0.558l0.626,0.561l0.624,0.562l0.623,0.564l0.62,0.566l0.62,0.568l0.617,0.57l0.616,0.571l0.614,0.574l0.612,0.575l0.611,0.577l0.608,0.578l0.607,0.581l0.606,0.582l0.603,0.584l0.602,0.586l0.6,0.588l0.599,0.59l0.596,0.591l0.595,0.593l0.593,0.595l0.591,0.596l0.59,0.599l0.588,0.6l0.586,0.602l0.584,0.603l0.582,0.606l0.581,0.607l0.578,0.608l0.577,0.611l0.575,0.612l0.574,0.614l0.571,0.616l0.57,0.617l0.568,0.62l0.566,0.62l0.564,0.623l0.562,0.624l0.561,0.626l0.558,0.628l0.557,0.629l0.555,0.631l0.553,0.633l0.551,0.634l0.55,0.636l0.547,0.638l0.546,0.639l0.543,0.641l0.542,0.642l0.54,0.645l0.538,0.645l0.536,0.648l0.534,0.649l0.533,0.651l0.53,0.652l0.528,0.654l0.527,0.656l0.525,0.657l0.522,0.659l0.521,0.66l0.519,0.662l0.517,0.664l0.514,0.665l0.513,0.667l0.511,0.668l0.509,0.67l0.507,0.672l0.505,0.673l0.504,0.675l0.501,0.676l0.499,0.678l0.497,0.679l0.495,0.681l0.493,0.682l0.491,0.684l0.49,0.686l0.487,0.687l0.485,0.688l0.483,0.69l0.481,0.692l0.479,0.693l0.477,0.694l0.475,0.696l0.473,0.698l0.471,0.699l0.469,0.7l0.467,0.702l0.464,0.704l0.463,0.705l0.461,0.706l0.458,0.708l0.457,0.71l0.454,0.71l0.452,0.713l0.451,0.714l0.448,0.715l0.446,0.716l0.444,0.718l0.442,0.72l0.439,0.721l0.438,0.722l0.435,0.724l0.434,0.725l0.431,0.727l0.429,0.728l0.427,0.729l0.425,0.731l0.423,0.732l0.42,0.734l0.419,0.735l0.416,0.736l0.414,0.738l0.412,0.739l0.41,0.74l0.407,0.742l0.406,0.743l0.403,0.745l0.401,0.746l0.399,0.747l0.396,0.748l0.395,0.75l0.392,0.752l0.39,0.752l0.388,0.754l0.386,0.755l0.383,0.757l0.381,0.758l0.379,0.759l0.377,0.76l0.374,0.762l0.372,0.763l0.37,0.765l0.368,0.765l0.365,0.767l0.364,0.768l0.361,0.77l0.358,0.77l0.357,0.772l0.354,0.774l0.352,0.774l0.349,0.776l0.347,0.777l0.345,0.778l0.343,0.78l0.34,0.78l0.338,0.782l0.336,0.784l0.334,0.784l0.331,0.786l0.329,0.786l0.326,0.789l0.324,0.789l0.322,0.79l0.319,0.792l0.317,0.793l0.315,0.794l0.313,0.795l0.31,0.796l0.307,0.798l0.306,0.799l0.303,0.799l0.3,0.802l0.298,0.802l0.296,0.803l0.293,0.805l0.291,0.805l0.289,0.807l0.286,0.808l0.284,0.809l0.281,0.81l0.279,0.811l0.277,0.813l0.274,0.813l0.272,0.815l0.269,0.816l0.267,0.817l0.264,0.818l0.262,0.819l0.26,0.82l0.257,0.821l0.254,0.822l0.253,0.824l0.249,0.824l0.247,0.826l0.245,0.826l0.242,0.828l0.24,0.828l0.237,0.83l0.235,0.831l0.232,0.832l0.23,0.833l0.228,0.833l0.224,0.835l0.223,0.836l0.219,0.837l0.217,0.838l0.215,0.839l0.212,0.84l0.21,0.841l0.207,0.842l0.204,0.843l0.202,0.844l0.2,0.845l0.197,0.846l0.194,0.847l0.192,0.848l0.189,0.848l0.187,0.85l0.184,0.851l0.181,0.852l0.179,0.852l0.176,0.854l0.174,0.855l0.171,0.855l0.168,0.856l0.166,0.858l0.163,0.858l0.161,0.859l0.158,0.86l0.155,0.861l0.153,0.862l0.15,0.863l0.148,0.864l0.145,0.864l0.142,0.866l0.139,0.866l0.137,0.868l0.134,0.868l0.132,0.869l0.129,0.87l0.126,0.87l0.123,0.872l0.121,0.872l0.118,0.874l0.116,0.874l0.113,0.875l0.11,0.876l0.107,0.876l0.105,0.878l0.102,0.878l0.099,0.879l0.096,0.88l0.094,0.881l0.091,0.882l0.089,0.882l0.085,0.883l0.083,0.884l0.08,0.885l0.077,0.886l0.075,0.886l0.072,0.887l0.069,0.888l0.066,0.889l0.064,0.889l0.06,0.89l0.058,0.891l0.056,0.892l0.052,0.892l0.05,0.893l0.046,0.894l0.044,0.895l0.042,0.895l0.038,0.896l0.035,0.897l0.033,0.898l0.03,0.898l0.027,0.899l0.024,0.9l0.022,0.9l0.018,0.901l0.016,0.902l0.013,0.902l0.01,0.904l0.007,0.903l0.005,0.905l0.001,0.905l-0.001,0.905l-0.005,0.905l-0.007,0.903l-0.01,0.904l-0.013,0.902l-0.016,0.902l-0.018,0.901l-0.022,0.9l-0.024,0.9l-0.027,0.899l-0.03,0.898l-0.033,0.898l-0.035,0.897l-0.038,0.896l-0.042,0.895l-0.044,0.895l-0.046,0.894l-0.05,0.893l-0.052,0.892l-0.056,0.892l-0.058,0.891l-0.06,0.89l-0.064,0.889l-0.066,0.889l-0.069,0.888l-0.072,0.887l-0.075,0.886l-0.077,0.886l-0.08,0.885l-0.083,0.884l-0.085,0.883l-0.089,0.882l-0.091,0.882l-0.094,0.881l-0.096,0.88l-0.099,0.879l-0.102,0.878l-0.105,0.878l-0.107,0.876l-0.11,0.876l-0.113,0.875l-0.116,0.874l-0.118,0.874l-0.121,0.872l-0.123,0.872l-0.126,0.87l-0.129,0.87l-0.132,0.869l-0.134,0.868l-0.137,0.868l-0.139,0.866l-0.142,0.866l-0.145,0.864l-0.148,0.864l-0.15,0.863l-0.153,0.862l-0.155,0.861l-0.158,0.86l-0.161,0.859l-0.163,0.858l-0.166,0.858l-0.168,0.856l-0.171,0.855l-0.174,0.855l-0.176,0.854l-0.179,0.852l-0.181,0.852l-0.184,0.851l-0.187,0.85l-0.189,0.848l-0.192,0.848l-0.194,0.847l-0.197,0.846l-0.2,0.845l-0.202,0.844l-0.204,0.843l-0.207,0.842l-0.21,0.841l-0.212,0.84l-0.215,0.839l-0.217,0.838l-0.219,0.837l-0.223,0.836l-0.224,0.835l-0.228,0.833l-0.23,0.833l-0.232,0.832l-0.235,0.831l-0.237,0.83l-0.24,0.828l-0.242,0.828l-0.245,0.826l-0.247,0.826l-0.249,0.824l-0.253,0.824l-0.254,0.822l-0.257,0.821l-0.26,0.82l-0.262,0.819l-0.264,0.818l-0.267,0.817l-0.269,0.816l-0.272,0.815l-0.274,0.813l-0.277,0.813l-0.279,0.811l-0.281,0.81l-0.284,0.809l-0.286,0.808l-0.289,0.807l-0.291,0.805l-0.293,0.805l-0.296,0.803l-0.298,0.802l-0.3,0.802l-0.303,0.799l-0.306,0.799l-0.307,0.798l-0.31,0.796l-0.313,0.795l-0.315,0.794l-0.317,0.793l-0.319,0.792l-0.322,0.79l-0.324,0.789l-0.326,0.789l-0.329,0.786l-0.331,0.786l-0.334,0.784l-0.336,0.784l-0.338,0.782l-0.34,0.78l-0.343,0.78l-0.345,0.778l-0.347,0.777l-0.349,0.776l-0.352,0.774l-0.354,0.774l-0.357,0.772l-0.358,0.77l-0.361,0.77l-0.364,0.768l-0.365,0.767l-0.368,0.765l-0.37,0.765l-0.372,0.763l-0.374,0.762l-0.377,0.76l-0.379,0.759l-0.381,0.758l-0.383,0.757l-0.386,0.755l-0.388,0.754l-0.39,0.752l-0.392,0.752l-0.395,0.75l-0.396,0.748l-0.399,0.747l-0.401,0.746l-0.403,0.745l-0.406,0.743l-0.407,0.742l-0.41,0.74l-0.412,0.739l-0.414,0.738l-0.416,0.736l-0.419,0.735l-0.42,0.734l-0.423,0.732l-0.425,0.731l-0.427,0.729l-0.429,0.728l-0.431,0.727l-0.434,0.725l-0.435,0.724l-0.438,0.722l-0.439,0.721l-0.442,0.72l-0.444,0.718l-0.446,0.716l-0.448,0.715l-0.451,0.714l-0.452,0.713l-0.454,0.71l-0.457,0.71l-0.458,0.708l-0.461,0.706l-0.463,0.705l-0.464,0.704l-0.467,0.702l-0.469,0.7l-0.471,0.699l-0.473,0.698l-0.475,0.696l-0.477,0.694l-0.479,0.693l-0.481,0.692l-0.483,0.69l-0.485,0.688l-0.487,0.687l-0.49,0.686l-0.491,0.684l-0.493,0.682l-0.495,0.681l-0.497,0.679l-0.499,0.678l-0.501,0.676l-0.504,0.675l-0.505,0.673l-0.507,0.672l-0.509,0.67l-0.511,0.668l-0.513,0.667l-0.514,0.665l-0.517,0.664l-0.519,0.662l-0.521,0.66l-0.522,0.659l-0.525,0.657l-0.527,0.656l-0.528,0.654l-0.53,0.652l-0.533,0.651l-0.534,0.649l-0.536,0.648l-0.538,0.645l-0.54,0.645l-0.542,0.642l-0.543,0.641l-0.546,0.639l-0.547,0.638l-0.55,0.636l-0.551,0.634l-0.553,0.633l-0.555,0.631l-0.557,0.629l-0.558,0.628l-0.561,0.626l-0.562,0.624l-0.564,0.623l-0.566,0.62l-0.568,0.62l-0.57,0.617l-0.571,0.616l-0.574,0.614l-0.575,0.612l-0.577,0.611l-0.578,0.608l-0.581,0.607l-0.582,0.606l-0.584,0.603l-0.586,0.602l-0.588,0.6l-0.59,0.599l-0.591,0.596l-0.593,0.595l-0.595,0.593l-0.596,0.591l-0.599,0.59l-0.6,0.588l-0.602,0.586l-0.603,0.584l-0.606,0.582l-0.607,0.581l-0.608,0.578l-0.611,0.577l-0.612,0.575l-0.614,0.574l-0.616,0.571l-0.617,0.57l-0.62,0.568l-0.62,0.566l-0.623,0.564l-0.624,0.562l-0.626,0.561l-0.628,0.558l-0.629,0.557l-0.631,0.555l-0.633,0.553l-0.634,0.551l-0.636,0.55l-0.638,0.547l-0.639,0.546l-0.641,0.543l-0.642,0.542l-0.645,0.54l-0.645,0.538l-0.648,0.536l-0.649,0.534l-0.651,0.533l-0.652,0.53l-0.654,0.528l-0.656,0.527l-0.657,0.525l-0.659,0.522l-0.66,0.521l-0.662,0.519l-0.664,0.517l-0.665,0.514l-0.667,0.513l-0.668,0.511l-0.67,0.509l-0.672,0.507l-0.673,0.505l-0.675,0.504l-0.676,0.501l-0.678,0.499l-0.679,0.497l-0.681,0.495l-0.682,0.493l-0.684,0.491l-0.686,0.49l-0.687,0.487l-0.688,0.485l-0.69,0.483l-0.692,0.481l-0.693,0.479l-0.694,0.477l-0.696,0.475l-0.698,0.473l-0.699,0.471l-0.7,0.469l-0.702,0.467l-0.704,0.464l-0.705,0.463l-0.706,0.461l-0.708,0.458l-0.71,0.457l-0.71,0.454l-0.713,0.452l-0.714,0.451l-0.715,0.448l-0.716,0.446l-0.718,0.444l-0.72,0.442l-0.721,0.439l-0.722,0.438l-0.724,0.435l-0.725,0.434l-0.727,0.431l-0.728,0.429l-0.729,0.427l-0.731,0.425l-0.732,0.423l-0.734,0.42l-0.735,0.419l-0.736,0.416l-0.738,0.414l-0.739,0.412l-0.74,0.41l-0.742,0.407l-0.743,0.406l-0.745,0.403l-0.746,0.401l-0.747,0.399l-0.748,0.396l-0.75,0.395l-0.752,0.392l-0.752,0.39l-0.754,0.388l-0.755,0.386l-0.757,0.383l-0.758,0.381l-0.759,0.379l-0.76,0.377l-0.762,0.374l-0.763,0.372l-0.765,0.37l-0.765,0.368l-0.767,0.365l-0.768,0.364l-0.77,0.361l-0.77,0.358l-0.772,0.357l-0.774,0.354l-0.774,0.352l-0.776,0.349l-0.777,0.347l-0.778,0.345l-0.78,0.343l-0.78,0.34l-0.782,0.338l-0.784,0.336l-0.784,0.334l-0.786,0.331l-0.786,0.329l-0.789,0.326l-0.789,0.324l-0.79,0.322l-0.792,0.319l-0.793,0.317l-0.794,0.315l-0.795,0.313l-0.796,0.31l-0.798,0.307l-0.799,0.306l-0.799,0.303l-0.802,0.3l-0.802,0.298l-0.803,0.296l-0.805,0.293l-0.805,0.291l-0.807,0.289l-0.808,0.286l-0.809,0.284l-0.81,0.281l-0.811,0.279l-0.813,0.277l-0.813,0.274l-0.815,0.272l-0.816,0.269l-0.817,0.267l-0.818,0.264l-0.819,0.262l-0.82,0.26l-0.821,0.257l-0.822,0.254l-0.824,0.253l-0.824,0.249l-0.826,0.247l-0.826,0.245l-0.828,0.242l-0.828,0.24l-0.83,0.237l-0.831,0.235l-0.832,0.232l-0.833,0.23l-0.833,0.228l-0.835,0.224l-0.836,0.223l-0.837,0.219l-0.838,0.217l-0.839,0.215l-0.84,0.212l-0.841,0.21l-0.842,0.207l-0.843,0.204l-0.844,0.202l-0.845,0.2l-0.846,0.197l-0.847,0.194l-0.848,0.192l-0.848,0.189l-0.85,0.187l-0.851,0.184l-0.852,0.181l-0.852,0.179l-0.854,0.176l-0.855,0.174l-0.855,0.171l-0.856,0.168l-0.858,0.166l-0.858,0.163l-0.859,0.161l-0.86,0.158l-0.861,0.155l-0.862,0.153l-0.863,0.15l-0.864,0.148l-0.864,0.145l-0.866,0.142l-0.866,0.139l-0.868,0.137l-0.868,0.134l-0.869,0.132l-0.87,0.129l-0.87,0.126l-0.872,0.123l-0.872,0.121l-0.874,0.118l-0.874,0.116l-0.875,0.113l-0.876,0.11l-0.876,0.107l-0.878,0.105l-0.878,0.102l-0.879,0.099l-0.88,0.096l-0.881,0.094l-0.882,0.091l-0.882,0.089l-0.883,0.085l-0.884,0.083l-0.885,0.08l-0.886,0.077l-0.886,0.075l-0.887,0.072l-0.888,0.069l-0.889,0.066l-0.889,0.064l-0.89,0.06l-0.891,0.058l-0.892,0.056l-0.892,0.052l-0.893,0.05l-0.894,0.046l-0.895,0.044l-0.895,0.042l-0.896,0.038l-0.897,0.035l-0.898,0.033l-0.898,0.03l-0.899,0.027l-0.9,0.024l-0.9,0.022l-0.901,0.018l-0.902,0.016l-0.902,0.013l-0.904,0.01l-0.903,0.007l-0.905,0.005l-0.905,0.001l-0.905,-0.001l-0.905,-0.005l-0.903,-0.007l-0.904,-0.01l-0.902,-0.013l-0.902,-0.016l-0.901,-0.018l-0.9,-0.022l-0.9,-0.024l-0.899,-0.027l-0.898,-0.03l-0.898,-0.033l-0.897,-0.035l-0.896,-0.038l-0.895,-0.042l-0.895,-0.044l-0.894,-0.046l-0.893,-0.05l-0.892,-0.052l-0.892,-0.056l-0.891,-0.058l-0.89,-0.06l-0.889,-0.064l-0.889,-0.066l-0.888,-0.069l-0.887,-0.072l-0.886,-0.075l-0.886,-0.077l-0.885,-0.08l-0.884,-0.083l-0.883,-0.085l-0.882,-0.089l-0.882,-0.091l-0.881,-0.094l-0.88,-0.096l-0.879,-0.099l-0.878,-0.102l-0.878,-0.105l-0.876,-0.107l-0.876,-0.11l-0.875,-0.113l-0.874,-0.116l-0.874,-0.118l-0.872,-0.121l-0.872,-0.123l-0.87,-0.126l-0.87,-0.129l-0.869,-0.132l-0.868,-0.134l-0.868,-0.137l-0.866,-0.139l-0.866,-0.142l-0.864,-0.145l-0.864,-0.148l-0.863,-0.15l-0.862,-0.153l-0.861,-0.155l-0.86,-0.158l-0.859,-0.161l-0.858,-0.163l-0.858,-0.166l-0.856,-0.168l-0.855,-0.171l-0.855,-0.174l-0.854,-0.176l-0.852,-0.179l-0.852,-0.181l-0.851,-0.184l-0.85,-0.187l-0.848,-0.189l-0.848,-0.192l-0.847,-0.194l-0.846,-0.197l-0.845,-0.2l-0.844,-0.202l-0.843,-0.204l-0.842,-0.207l-0.841,-0.21l-0.84,-0.212l-0.839,-0.215l-0.838,-0.217l-0.837,-0.219l-0.836,-0.223l-0.835,-0.224l-0.833,-0.228l-0.833,-0.23l-0.832,-0.232l-0.831,-0.235l-0.83,-0.237l-0.828,-0.24l-0.828,-0.242l-0.826,-0.245l-0.826,-0.247l-0.824,-0.249l-0.824,-0.253l-0.822,-0.254l-0.821,-0.257l-0.82,-0.26l-0.819,-0.262l-0.818,-0.264l-0.817,-0.267l-0.816,-0.269l-0.815,-0.272l-0.813,-0.274l-0.813,-0.277l-0.811,-0.279l-0.81,-0.281l-0.809,-0.284l-0.808,-0.286l-0.807,-0.289l-0.805,-0.291l-0.805,-0.293l-0.803,-0.296l-0.802,-0.298l-0.802,-0.3l-0.799,-0.303l-0.799,-0.306l-0.798,-0.307l-0.796,-0.31l-0.795,-0.313l-0.794,-0.315l-0.793,-0.317l-0.792,-0.319l-0.79,-0.322l-0.789,-0.324l-0.789,-0.326l-0.786,-0.329l-0.786,-0.331l-0.784,-0.334l-0.784,-0.336l-0.782,-0.338l-0.78,-0.34l-0.78,-0.343l-0.778,-0.345l-0.777,-0.347l-0.776,-0.349l-0.774,-0.352l-0.774,-0.354l-0.772,-0.357l-0.77,-0.358l-0.77,-0.361l-0.768,-0.364l-0.767,-0.365l-0.765,-0.368l-0.765,-0.37l-0.763,-0.372l-0.762,-0.374l-0.76,-0.377l-0.759,-0.379l-0.758,-0.381l-0.757,-0.383l-0.755,-0.386l-0.754,-0.388l-0.752,-0.39l-0.752,-0.392l-0.75,-0.395l-0.748,-0.396l-0.747,-0.399l-0.746,-0.401l-0.745,-0.403l-0.743,-0.406l-0.742,-0.407l-0.74,-0.41l-0.739,-0.412l-0.738,-0.414l-0.736,-0.416l-0.735,-0.419l-0.734,-0.42l-0.732,-0.423l-0.731,-0.425l-0.729,-0.427l-0.728,-0.429l-0.727,-0.431l-0.725,-0.434l-0.724,-0.435l-0.722,-0.438l-0.721,-0.439l-0.72,-0.442l-0.718,-0.444l-0.716,-0.446l-0.715,-0.448l-0.714,-0.451l-0.713,-0.452l-0.71,-0.454l-0.71,-0.457l-0.708,-0.458l-0.706,-0.461l-0.705,-0.463l-0.704,-0.464l-0.702,-0.467l-0.7,-0.469l-0.699,-0.471l-0.698,-0.473l-0.696,-0.475l-0.694,-0.477l-0.693,-0.479l-0.692,-0.481l-0.69,-0.483l-0.688,-0.485l-0.687,-0.487l-0.686,-0.49l-0.684,-0.491l-0.682,-0.493l-0.681,-0.495l-0.679,-0.497l-0.678,-0.499l-0.676,-0.501l-0.675,-0.504l-0.673,-0.505l-0.672,-0.507l-0.67,-0.509l-0.668,-0.511l-0.667,-0.513l-0.665,-0.514l-0.664,-0.517l-0.662,-0.519l-0.66,-0.521l-0.659,-0.522l-0.657,-0.525l-0.656,-0.527l-0.654,-0.528l-0.652,-0.53l-0.651,-0.533l-0.649,-0.534l-0.648,-0.536l-0.645,-0.538l-0.645,-0.54l-0.642,-0.542l-0.641,-0.543l-0.639,-0.546l-0.638,-0.547l-0.636,-0.55l-0.634,-0.551l-0.633,-0.553l-0.631,-0.555l-0.629,-0.557l-0.628,-0.558l-0.626,-0.561l-0.624,-0.562l-0.623,-0.564l-0.62,-0.566l-0.62,-0.568l-0.617,-0.57l-0.616,-0.571l-0.614,-0.574l-0.612,-0.575l-0.611,-0.577l-0.608,-0.578l-0.607,-0.581l-0.606,-0.582l-0.603,-0.584l-0.602,-0.586l-0.6,-0.588l-0.599,-0.59l-0.596,-0.591l-0.595,-0.593l-0.593,-0.595l-0.591,-0.596l-0.59,-0.599l-0.588,-0.6l-0.586,-0.602l-0.584,-0.603l-0.582,-0.606l-0.581,-0.607l-0.578,-0.608l-0.577,-0.611l-0.575,-0.612l-0.574,-0.614l-0.571,-0.616l-0.57,-0.617l-0.568,-0.62l-0.566,-0.62l-0.564,-0.623l-0.562,-0.624l-0.561,-0.626l-0.558,-0.628l-0.557,-0.629l-0.555,-0.631l-0.553,-0.633l-0.551,-0.634l-0.55,-0.636l-0.547,-0.638l-0.546,-0.639l-0.543,-0.641l-0.542,-0.642l-0.54,-0.645l-0.538,-0.645l-0.536,-0.648l-0.534,-0.649l-0.533,-0.651l-0.53,-0.652l-0.528,-0.654l-0.527,-0.656l-0.525,-0.657l-0.522,-0.659l-0.521,-0.66l-0.519,-0.662l-0.517,-0.664l-0.514,-0.665l-0.513,-0.667l-0.511,-0.668l-0.509,-0.67l-0.507,-0.672l-0.505,-0.673l-0.504,-0.675l-0.501,-0.676l-0.499,-0.678l-0.497,-0.679l-0.495,-0.681l-0.493,-0.682l-0.491,-0.684l-0.49,-0.686l-0.487,-0.687l-0.485,-0.688l-0.483,-0.69l-0.481,-0.692l-0.479,-0.693l-0.477,-0.694l-0.475,-0.696l-0.473,-0.698l-0.471,-0.699l-0.469,-0.7l-0.467,-0.702l-0.464,-0.704l-0.463,-0.705l-0.461,-0.706l-0.458,-0.708l-0.457,-0.71l-0.454,-0.71l-0.452,-0.713l-0.451,-0.714l-0.448,-0.715l-0.446,-0.716l-0.444,-0.718l-0.442,-0.72l-0.439,-0.721l-0.438,-0.722l-0.435,-0.724l-0.434,-0.725l-0.431,-0.727l-0.429,-0.728l-0.427,-0.729l-0.425,-0.731l-0.423,-0.732l-0.42,-0.734l-0.419,-0.735l-0.416,-0.736l-0.414,-0.738l-0.412,-0.739l-0.41,-0.74l-0.407,-0.742l-0.406,-0.743l-0.403,-0.745l-0.401,-0.746l-0.399,-0.747l-0.396,-0.748l-0.395,-0.75l-0.392,-0.752l-0.39,-0.752l-0.388,-0.754l-0.386,-0.755l-0.383,-0.757l-0.381,-0.758l-0.379,-0.759l-0.377,-0.76l-0.374,-0.762l-0.372,-0.763l-0.37,-0.765l-0.368,-0.765l-0.365,-0.767l-0.364,-0.768l-0.361,-0.77l-0.358,-0.77l-0.357,-0.772l-0.354,-0.774l-0.352,-0.774l-0.349,-0.776l-0.347,-0.777l-0.345,-0.778l-0.343,-0.78l-0.34,-0.78l-0.338,-0.782l-0.336,-0.784l-0.334,-0.784l-0.331,-0.786l-0.329,-0.786l-0.326,-0.789l-0.324,-0.789l-0.322,-0.79l-0.319,-0.792l-0.317,-0.793l-0.315,-0.794l-0.313,-0.795l-0.31,-0.796l-0.307,-0.798l-0.306,-0.799l-0.303,-0.799l-0.3,-0.802l-0.298,-0.802l-0.296,-0.803l-0.293,-0.805l-0.291,-0.805l-0.289,-0.807l-0.286,-0.808l-0.284,-0.809l-0.281,-0.81l-0.279,-0.811l-0.277,-0.813l-0.274,-0.813l-0.272,-0.815l-0.269,-0.816l-0.267,-0.817l-0.264,-0.818l-0.262,-0.819l-0.26,-0.82l-0.257,-0.821l-0.254,-0.822l-0.253,-0.824l-0.249,-0.824l-0.247,-0.826l-0.245,-0.826l-0.242,-0.828l-0.24,-0.828l-0.237,-0.83l-0.235,-0.831l-0.232,-0.832l-0.23,-0.833l-0.228,-0.833l-0.224,-0.835l-0.223,-0.836l-0.219,-0.837l-0.217,-0.838l-0.215,-0.839l-0.212,-0.84l-0.21,-0.841l-0.207,-0.842l-0.204,-0.843l-0.202,-0.844l-0.2,-0.845l-0.197,-0.846l-0.194,-0.847l-0.192,-0.848l-0.189,-0.848l-0.187,-0.85l-0.184,-0.851l-0.181,-0.852l-0.179,-0.852l-0.176,-0.854l-0.174,-0.855l-0.171,-0.855l-0.168,-0.856l-0.166,-0.858l-0.163,-0.858l-0.161,-0.859l-0.158,-0.86l-0.155,-0.861l-0.153,-0.862l-0.15,-0.863l-0.148,-0.864l-0.145,-0.864l-0.142,-0.866l-0.139,-0.866l-0.137,-0.868l-0.134,-0.868l-0.132,-0.869l-0.129,-0.87l-0.126,-0.87l-0.123,-0.872l-0.121,-0.872l-0.118,-0.874l-0.116,-0.874l-0.113,-0.875l-0.11,-0.876l-0.107,-0.876l-0.105,-0.878l-0.102,-0.878l-0.099,-0.879l-0.096,-0.88l-0.094,-0.881l-0.091,-0.882l-0.089,-0.882l-0.085,-0.883l-0.083,-0.884l-0.08,-0.885l-0.077,-0.886l-0.075,-0.886l-0.072,-0.887l-0.069,-0.888l-0.066,-0.889l-0.064,-0.889l-0.06,-0.89l-0.058,-0.891l-0.056,-0.892l-0.052,-0.892l-0.05,-0.893l-0.046,-0.894l-0.044,-0.895l-0.042,-0.895l-0.038,-0.896l-0.035,-0.897l-0.033,-0.898l-0.03,-0.898l-0.027,-0.899l-0.024,-0.9l-0.022,-0.9l-0.018,-0.901l-0.016,-0.902l-0.013,-0.902l-0.01,-0.904l-0.007,-0.903l-0.005,-0.905l-0.001,-0.905l0.001,-0.905l0.005,-0.905l0.007,-0.903l0.01,-0.904l0.013,-0.902l0.016,-0.902l0.018,-0.901l0.022,-0.9l0.024,-0.9l0.027,-0.899l0.03,-0.898l0.033,-0.898l0.035,-0.897l0.038,-0.896l0.042,-0.895l0.044,-0.895l0.046,-0.894l0.05,-0.893l0.052,-0.892l0.056,-0.892l0.058,-0.891l0.06,-0.89l0.064,-0.889l0.066,-0.889l0.069,-0.888l0.072,-0.887l0.075,-0.886l0.077,-0.886l0.08,-0.885l0.083,-0.884l0.085,-0.883l0.089,-0.882l0.091,-0.882l0.094,-0.881l0.096,-0.88l0.099,-0.879l0.102,-0.878l0.105,-0.878l0.107,-0.876l0.11,-0.876l0.113,-0.875l0.116,-0.874l0.118,-0.874l0.121,-0.872l0.123,-0.872l0.126,-0.87l0.129,-0.87l0.132,-0.869l0.134,-0.868l0.137,-0.868l0.139,-0.866l0.142,-0.866l0.145,-0.864l0.148,-0.864l0.15,-0.863l0.153,-0.862l0.155,-0.861l0.158,-0.86l0.161,-0.859l0.163,-0.858l0.166,-0.858l0.168,-0.856l0.171,-0.855l0.174,-0.855l0.176,-0.854l0.179,-0.852l0.181,-0.852l0.184,-0.851l0.187,-0.85l0.189,-0.848l0.192,-0.848l0.194,-0.847l0.197,-0.846l0.2,-0.845l0.202,-0.844l0.204,-0.843l0.207,-0.842l0.21,-0.841l0.212,-0.84l0.215,-0.839l0.217,-0.838l0.219,-0.837l0.223,-0.836l0.224,-0.835l0.228,-0.833l0.23,-0.833l0.232,-0.832l0.235,-0.831l0.237,-0.83l0.24,-0.828l0.242,-0.828l0.245,-0.826l0.247,-0.826l0.249,-0.824l0.253,-0.824l0.254,-0.822l0.257,-0.821l0.26,-0.82l0.262,-0.819l0.264,-0.818l0.267,-0.817l0.269,-0.816l0.272,-0.815l0.274,-0.813l0.277,-0.813l0.279,-0.811l0.281,-0.81l0.284,-0.809l0.286,-0.808l0.289,-0.807l0.291,-0.805l0.293,-0.805l0.296,-0.803l0.298,-0.802l0.3,-0.802l0.303,-0.799l0.306,-0.799l0.307,-0.798l0.31,-0.796l0.313,-0.795l0.315,-0.794l0.317,-0.793l0.319,-0.792l0.322,-0.79l0.324,-0.789l0.326,-0.789l0.329,-0.786l0.331,-0.786l0.334,-0.784l0.336,-0.784l0.338,-0.782l0.34,-0.78l0.343,-0.78l0.345,-0.778l0.347,-0.777l0.349,-0.776l0.352,-0.774l0.354,-0.774l0.357,-0.772l0.358,-0.77l0.361,-0.77l0.364,-0.768l0.365,-0.767l0.368,-0.765l0.37,-0.765l0.372,-0.763l0.374,-0.762l0.377,-0.76l0.379,-0.759l0.381,-0.758l0.383,-0.757l0.386,-0.755l0.388,-0.754l0.39,-0.752l0.392,-0.752l0.395,-0.75l0.396,-0.748l0.399,-0.747l0.401,-0.746l0.403,-0.745l0.406,-0.743l0.407,-0.742l0.41,-0.74l0.412,-0.739l0.414,-0.738l0.416,-0.736l0.419,-0.735l0.42,-0.734l0.423,-0.732l0.425,-0.731l0.427,-0.729l0.429,-0.728l0.431,-0.727l0.434,-0.725l0.435,-0.724l0.438,-0.722l0.439,-0.721l0.442,-0.72l0.444,-0.718l0.446,-0.716l0.448,-0.715l0.451,-0.714l0.452,-0.713l0.454,-0.71l0.457,-0.71l0.458,-0.708l0.461,-0.706l0.463,-0.705l0.464,-0.704l0.467,-0.702l0.469,-0.7l0.471,-0.699l0.473,-0.698l0.475,-0.696l0.477,-0.694l0.479,-0.693l0.481,-0.692l0.483,-0.69l0.485,-0.688l0.487,-0.687l0.49,-0.686l0.491,-0.684l0.493,-0.682l0.495,-0.681l0.497,-0.679l0.499,-0.678l0.501,-0.676l0.504,-0.675l0.505,-0.673l0.507,-0.672l0.509,-0.67l0.511,-0.668l0.513,-0.667l0.514,-0.665l0.517,-0.664l0.519,-0.662l0.521,-0.66l0.522,-0.659l0.525,-0.657l0.527,-0.656l0.528,-0.654l0.53,-0.652l0.533,-0.651l0.534,-0.649l0.536,-0.648l0.538,-0.645l0.54,-0.645l0.542,-0.642l0.543,-0.641l0.546,-0.639l0.547,-0.638l0.55,-0.636l0.551,-0.634l0.553,-0.633l0.555,-0.631l0.557,-0.629l0.558,-0.628l0.561,-0.626l0.562,-0.624l0.564,-0.623l0.566,-0.62l0.568,-0.62l0.57,-0.617l0.571,-0.616l0.574,-0.614l0.575,-0.612l0.577,-0.611l0.578,-0.608l0.581,-0.607l0.582,-0.606l0.584,-0.603l0.586,-0.602l0.588,-0.6l0.59,-0.599l0.591,-0.596l0.593,-0.595l0.595,-0.593l0.596,-0.591l0.599,-0.59l0.6,-0.588l0.602,-0.586l0.603,-0.584l0.606,-0.582l0.607,-0.581l0.608,-0.578l0.611,-0.577l0.612,-0.575l0.614,-0.574l0.616,-0.571l0.617,-0.57l0.62,-0.568l0.62,-0.566l0.623,-0.564l0.624,-0.562l0.626,-0.561l0.628,-0.558l0.629,-0.557l0.631,-0.555l0.633,-0.553l0.634,-0.551l0.636,-0.55l0.638,-0.547l0.639,-0.546l0.641,-0.543l0.642,-0.542l0.645,-0.54l0.645,-0.538l0.648,-0.536l0.649,-0.534l0.651,-0.533l0.652,-0.53l0.654,-0.528l0.656,-0.527l0.657,-0.525l0.659,-0.522l0.66,-0.521l0.662,-0.519l0.664,-0.517l0.665,-0.514l0.667,-0.513l0.668,-0.511l0.67,-0.509l0.672,-0.507l0.673,-0.505l0.675,-0.504l0.676,-0.501l0.678,-0.499l0.679,-0.497l0.681,-0.495l0.682,-0.493l0.684,-0.491l0.686,-0.49l0.687,-0.487l0.688,-0.485l0.69,-0.483l0.692,-0.481l0.693,-0.479l0.694,-0.477l0.696,-0.475l0.698,-0.473l0.699,-0.471l0.7,-0.469l0.702,-0.467l0.704,-0.464l0.705,-0.463l0.706,-0.461l0.708,-0.458l0.71,-0.457l0.71,-0.454l0.713,-0.452l0.714,-0.451l0.715,-0.448l0.716,-0.446l0.718,-0.444l0.72,-0.442l0.721,-0.439l0.722,-0.438l0.724,-0.435l0.725,-0.434l0.727,-0.431l0.728,-0.429l0.729,-0.427l0.731,-0.425l0.732,-0.423l0.734,-0.42l0.735,-0.419l0.736,-0.416l0.738,-0.414l0.739,-0.412l0.74,-0.41l0.742,-0.407l0.743,-0.406l0.745,-0.403l0.746,-0.401l0.747,-0.399l0.748,-0.396l0.75,-0.395l0.752,-0.392l0.752,-0.39l0.754,-0.388l0.755,-0.386l0.757,-0.383l0.758,-0.381l0.759,-0.379l0.76,-0.377l0.762,-0.374l0.763,-0.372l0.765,-0.37l0.765,-0.368l0.767,-0.365l0.768,-0.364l0.77,-0.361l0.77,-0.358l0.772,-0.357l0.774,-0.354l0.774,-0.352l0.776,-0.349l0.777,-0.347l0.778,-0.345l0.78,-0.343l0.78,-0.34l0.782,-0.338l0.784,-0.336l0.784,-0.334l0.786,-0.331l0.786,-0.329l0.789,-0.326l0.789,-0.324l0.79,-0.322l0.792,-0.319l0.793,-0.317l0.794,-0.315l0.795,-0.313l0.796,-0.31l0.798,-0.307l0.799,-0.306l0.799,-0.303l0.802,-0.3l0.802,-0.298l0.803,-0.296l0.805,-0.293l0.805,-0.291l0.807,-0.289l0.808,-0.286l0.809,-0.284l0.81,-0.281l0.811,-0.279l0.813,-0.277l0.813,-0.274l0.815,-0.272l0.816,-0.269l0.817,-0.267l0.818,-0.264l0.819,-0.262l0.82,-0.26l0.821,-0.257l0.822,-0.254l0.824,-0.253l0.824,-0.249l0.826,-0.247l0.826,-0.245l0.828,-0.242l0.828,-0.24l0.83,-0.237l0.831,-0.235l0.832,-0.232l0.833,-0.23l0.833,-0.228l0.835,-0.224l0.836,-0.223l0.837,-0.219l0.838,-0.217l0.839,-0.215l0.84,-0.212l0.841,-0.21l0.842,-0.207l0.843,-0.204l0.844,-0.202l0.845,-0.2l0.846,-0.197l0.847,-0.194l0.848,-0.192l0.848,-0.189l0.85,-0.187l0.851,-0.184l0.852,-0.181l0.852,-0.179l0.854,-0.176l0.855,-0.174l0.855,-0.171l0.856,-0.168l0.858,-0.166l0.858,-0.163l0.859,-0.161l0.86,-0.158l0.861,-0.155l0.862,-0.153l0.863,-0.15l0.864,-0.148l0.864,-0.145l0.866,-0.142l0.866,-0.139l0.868,-0.137l0.868,-0.134l0.869,-0.132l0.87,-0.129l0.87,-0.126l0.872,-0.123l0.872,-0.121l0.874,-0.118l0.874,-0.116l0.875,-0.113l0.876,-0.11l0.876,-0.107l0.878,-0.105l0.878,-0.102l0.879,-0.099l0.88,-0.096l0.881,-0.094l0.882,-0.091l0.882,-0.089l0.883,-0.085l0.884,-0.083l0.885,-0.08l0.886,-0.077l0.886,-0.075l0.887,-0.072l0.888,-0.069l0.889,-0.066l0.889,-0.064l0.89,-0.06l0.891,-0.058l0.892,-0.056l0.892,-0.052l0.893,-0.05l0.894,-0.046l0.895,-0.044l0.895,-0.042l0.896,-0.038l0.897,-0.035l0.898,-0.033l0.898,-0.03l0.899,-0.027l0.9,-0.024l0.9,-0.022l0.901,-0.018l0.902,-0.016l0.902,-0.013l0.904,-0.01l0.903,-0.007l0.905,-0.005l0.905,-0.001l0.905,0.001Zm-1.715,30l-0.809,0.004l-0.809,0.007l-0.808,0.009l-0.807,0.011l-0.807,0.014l-0.806,0.017l-0.805,0.019l-0.805,0.022l-0.804,0.024l-0.803,0.027l-0.803,0.029l-0.801,0.032l-0.802,0.034l-0.8,0.037l-0.8,0.039l-0.799,0.042l-0.798,0.044l-0.798,0.047l-0.797,0.049l-0.796,0.052l-0.795,0.054l-0.795,0.057l-0.794,0.059l-0.793,0.062l-0.793,0.064l-0.792,0.067l-0.791,0.069l-0.79,0.072l-0.789,0.074l-0.789,0.076l-0.788,0.079l-0.788,0.081l-0.786,0.084l-0.786,0.086l-0.785,0.089l-0.784,0.091l-0.784,0.093l-0.783,0.096l-0.782,0.098l-0.781,0.101l-0.78,0.103l-0.78,0.106l-0.778,0.107l-0.778,0.111l-0.778,0.112l-0.776,0.115l-0.776,0.118l-0.775,0.12l-0.774,0.122l-0.773,0.124l-0.772,0.127l-0.772,0.129l-0.771,0.132l-0.77,0.134l-0.769,0.136l-0.768,0.139l-0.767,0.141l-0.767,0.143l-0.766,0.146l-0.765,0.148l-0.764,0.15l-0.763,0.153l-0.762,0.155l-0.762,0.157l-0.761,0.159l-0.76,0.162l-0.758,0.164l-0.759,0.167l-0.757,0.169l-0.756,0.171l-0.756,0.173l-0.754,0.176l-0.754,0.178l-0.753,0.18l-0.752,0.182l-0.751,0.185l-0.75,0.187l-0.749,0.189l-0.749,0.192l-0.747,0.193l-0.747,0.196l-0.745,0.199l-0.745,0.2l-0.744,0.203l-0.743,0.205l-0.742,0.207l-0.74,0.209l-0.741,0.212l-0.739,0.214l-0.738,0.216l-0.737,0.218l-0.737,0.221l-0.735,0.222l-0.734,0.225l-0.734,0.227l-0.732,0.23l-0.732,0.231l-0.73,0.234l-0.73,0.235l-0.728,0.238l-0.728,0.241l-0.727,0.242l-0.725,0.245l-0.725,0.246l-0.724,0.249l-0.722,0.251l-0.722,0.253l-0.721,0.256l-0.719,0.257l-0.719,0.26l-0.718,0.261l-0.717,0.264l-0.715,0.266l-0.715,0.268l-0.713,0.27l-0.713,0.273l-0.711,0.274l-0.711,0.277l-0.709,0.279l-0.708,0.28l-0.708,0.283l-0.706,0.285l-0.705,0.287l-0.704,0.289l-0.703,0.292l-0.702,0.293l-0.701,0.296l-0.7,0.297l-0.699,0.3l-0.698,0.301l-0.696,0.304l-0.696,0.306l-0.694,0.307l-0.694,0.31l-0.692,0.312l-0.691,0.314l-0.69,0.316l-0.689,0.318l-0.687,0.32l-0.687,0.322l-0.686,0.324l-0.684,0.327l-0.683,0.328l-0.682,0.33l-0.681,0.332l-0.68,0.334l-0.679,0.336l-0.677,0.339l-0.677,0.34l-0.675,0.342l-0.674,0.344l-0.673,0.346l-0.672,0.348l-0.67,0.351l-0.67,0.352l-0.668,0.354l-0.667,0.356l-0.666,0.358l-0.664,0.36l-0.664,0.362l-0.662,0.363l-0.661,0.366l-0.66,0.368l-0.659,0.37l-0.657,0.371l-0.656,0.374l-0.655,0.375l-0.654,0.378l-0.652,0.379l-0.651,0.381l-0.65,0.383l-0.649,0.385l-0.648,0.387l-0.646,0.389l-0.645,0.391l-0.644,0.392l-0.642,0.395l-0.641,0.396l-0.64,0.399l-0.639,0.4l-0.637,0.402l-0.636,0.404l-0.635,0.406l-0.634,0.407l-0.632,0.41l-0.631,0.411l-0.63,0.414l-0.628,0.415l-0.627,0.416l-0.626,0.419l-0.624,0.421l-0.623,0.422l-0.622,0.424l-0.62,0.427l-0.619,0.428l-0.618,0.429l-0.616,0.432l-0.615,0.433l-0.614,0.435l-0.612,0.437l-0.611,0.439l-0.61,0.441l-0.608,0.442l-0.607,0.444l-0.605,0.446l-0.604,0.448l-0.603,0.449l-0.601,0.451l-0.6,0.453l-0.599,0.455l-0.597,0.456l-0.595,0.459l-0.595,0.46l-0.593,0.462l-0.591,0.463l-0.59,0.465l-0.589,0.467l-0.587,0.469l-0.586,0.47l-0.584,0.473l-0.583,0.473l-0.582,0.476l-0.58,0.477l-0.578,0.479l-0.577,0.481l-0.576,0.482l-0.574,0.484l-0.573,0.486l-0.571,0.488l-0.57,0.489l-0.568,0.491l-0.567,0.492l-0.565,0.495l-0.564,0.496l-0.563,0.497l-0.56,0.499l-0.56,0.501l-0.558,0.503l-0.556,0.504l-0.555,0.506l-0.553,0.507l-0.552,0.509l-0.55,0.511l-0.549,0.512l-0.547,0.514l-0.545,0.516l-0.544,0.517l-0.543,0.519l-0.541,0.52l-0.539,0.522l-0.538,0.524l-0.536,0.525l-0.535,0.527l-0.533,0.528l-0.532,0.53l-0.53,0.532l-0.528,0.533l-0.527,0.535l-0.525,0.536l-0.524,0.538l-0.522,0.539l-0.52,0.541l-0.519,0.543l-0.517,0.544l-0.516,0.545l-0.514,0.547l-0.512,0.549l-0.511,0.55l-0.509,0.552l-0.507,0.553l-0.506,0.555l-0.504,0.556l-0.503,0.558l-0.501,0.56l-0.499,0.56l-0.497,0.563l-0.496,0.564l-0.495,0.565l-0.492,0.567l-0.491,0.568l-0.489,0.57l-0.488,0.571l-0.486,0.573l-0.484,0.574l-0.482,0.576l-0.481,0.577l-0.479,0.578l-0.477,0.58l-0.476,0.582l-0.473,0.583l-0.473,0.584l-0.47,0.586l-0.469,0.587l-0.467,0.589l-0.465,0.59l-0.463,0.591l-0.462,0.593l-0.46,0.595l-0.459,0.595l-0.456,0.597l-0.455,0.599l-0.453,0.6l-0.451,0.601l-0.449,0.603l-0.448,0.604l-0.446,0.605l-0.444,0.607l-0.442,0.608l-0.441,0.61l-0.439,0.611l-0.437,0.612l-0.435,0.614l-0.433,0.615l-0.432,0.616l-0.429,0.618l-0.428,0.619l-0.427,0.62l-0.424,0.622l-0.422,0.623l-0.421,0.624l-0.419,0.626l-0.416,0.627l-0.415,0.628l-0.414,0.63l-0.411,0.631l-0.41,0.632l-0.407,0.634l-0.406,0.635l-0.404,0.636l-0.402,0.637l-0.4,0.639l-0.399,0.64l-0.396,0.641l-0.395,0.642l-0.392,0.644l-0.391,0.645l-0.389,0.646l-0.387,0.648l-0.385,0.649l-0.383,0.65l-0.381,0.651l-0.379,0.652l-0.378,0.654l-0.375,0.655l-0.374,0.656l-0.371,0.657l-0.37,0.659l-0.368,0.66l-0.366,0.661l-0.363,0.662l-0.362,0.664l-0.36,0.664l-0.358,0.666l-0.356,0.667l-0.354,0.668l-0.352,0.67l-0.351,0.67l-0.348,0.672l-0.346,0.673l-0.344,0.674l-0.342,0.675l-0.34,0.677l-0.339,0.677l-0.336,0.679l-0.334,0.68l-0.332,0.681l-0.33,0.682l-0.328,0.683l-0.327,0.684l-0.324,0.686l-0.322,0.687l-0.32,0.687l-0.318,0.689l-0.316,0.69l-0.314,0.691l-0.312,0.692l-0.31,0.694l-0.307,0.694l-0.306,0.696l-0.304,0.696l-0.301,0.698l-0.3,0.699l-0.297,0.7l-0.296,0.701l-0.293,0.702l-0.292,0.703l-0.289,0.704l-0.287,0.705l-0.285,0.706l-0.283,0.708l-0.28,0.708l-0.279,0.709l-0.277,0.711l-0.274,0.711l-0.273,0.713l-0.27,0.713l-0.268,0.715l-0.266,0.715l-0.264,0.717l-0.261,0.718l-0.26,0.719l-0.257,0.719l-0.256,0.721l-0.253,0.722l-0.251,0.722l-0.249,0.724l-0.246,0.725l-0.245,0.725l-0.242,0.727l-0.241,0.728l-0.238,0.728l-0.235,0.73l-0.234,0.73l-0.231,0.732l-0.23,0.732l-0.227,0.734l-0.225,0.734l-0.222,0.735l-0.221,0.737l-0.218,0.737l-0.216,0.738l-0.214,0.739l-0.212,0.741l-0.209,0.74l-0.207,0.742l-0.205,0.743l-0.203,0.744l-0.2,0.745l-0.199,0.745l-0.196,0.747l-0.193,0.747l-0.192,0.749l-0.189,0.749l-0.187,0.75l-0.185,0.751l-0.182,0.752l-0.18,0.753l-0.178,0.754l-0.176,0.754l-0.173,0.756l-0.171,0.756l-0.169,0.757l-0.167,0.759l-0.164,0.758l-0.162,0.76l-0.159,0.761l-0.157,0.762l-0.155,0.762l-0.153,0.763l-0.15,0.764l-0.148,0.765l-0.146,0.766l-0.143,0.767l-0.141,0.767l-0.139,0.768l-0.136,0.769l-0.134,0.77l-0.132,0.771l-0.129,0.772l-0.127,0.772l-0.124,0.773l-0.122,0.774l-0.12,0.775l-0.118,0.776l-0.115,0.776l-0.112,0.778l-0.111,0.778l-0.107,0.778l-0.106,0.78l-0.103,0.78l-0.101,0.781l-0.098,0.782l-0.096,0.783l-0.093,0.784l-0.091,0.784l-0.089,0.785l-0.086,0.786l-0.084,0.786l-0.081,0.788l-0.079,0.788l-0.076,0.789l-0.074,0.789l-0.072,0.79l-0.069,0.791l-0.067,0.792l-0.064,0.793l-0.062,0.793l-0.059,0.794l-0.057,0.795l-0.054,0.795l-0.052,0.796l-0.049,0.797l-0.047,0.798l-0.044,0.798l-0.042,0.799l-0.039,0.8l-0.037,0.8l-0.034,0.802l-0.032,0.801l-0.029,0.803l-0.027,0.803l-0.024,0.804l-0.022,0.805l-0.019,0.805l-0.017,0.806l-0.014,0.807l-0.011,0.807l-0.009,0.808l-0.007,0.809l-0.004,0.809l-0.001,0.81l0.001,0.81l0.004,0.809l0.007,0.809l0.009,0.808l0.011,0.807l0.014,0.807l0.017,0.806l0.019,0.805l0.022,0.805l0.024,0.804l0.027,0.803l0.029,0.803l0.032,0.801l0.034,0.802l0.037,0.8l0.039,0.8l0.042,0.799l0.044,0.798l0.047,0.798l0.049,0.797l0.052,0.796l0.054,0.795l0.057,0.795l0.059,0.794l0.062,0.793l0.064,0.793l0.067,0.792l0.069,0.791l0.072,0.79l0.074,0.789l0.076,0.789l0.079,0.788l0.081,0.788l0.084,0.786l0.086,0.786l0.089,0.785l0.091,0.784l0.093,0.784l0.096,0.783l0.098,0.782l0.101,0.781l0.103,0.78l0.106,0.78l0.107,0.778l0.111,0.778l0.112,0.778l0.115,0.776l0.118,0.776l0.12,0.775l0.122,0.774l0.124,0.773l0.127,0.772l0.129,0.772l0.132,0.771l0.134,0.769l0.136,0.77l0.139,0.768l0.141,0.767l0.143,0.767l0.146,0.766l0.148,0.765l0.15,0.764l0.153,0.763l0.155,0.762l0.157,0.762l0.159,0.761l0.162,0.76l0.164,0.759l0.167,0.758l0.169,0.757l0.171,0.756l0.173,0.756l0.176,0.754l0.178,0.754l0.18,0.753l0.182,0.752l0.185,0.751l0.187,0.75l0.189,0.749l0.192,0.749l0.193,0.747l0.196,0.747l0.198,0.745l0.201,0.745l0.203,0.744l0.205,0.743l0.207,0.742l0.209,0.741l0.212,0.74l0.214,0.739l0.216,0.738l0.218,0.737l0.221,0.737l0.222,0.735l0.225,0.734l0.227,0.734l0.229,0.732l0.232,0.732l0.234,0.73l0.235,0.73l0.238,0.728l0.241,0.728l0.242,0.727l0.245,0.725l0.246,0.725l0.249,0.724l0.251,0.722l0.253,0.722l0.256,0.721l0.257,0.72l0.26,0.718l0.261,0.718l0.264,0.716l0.266,0.716l0.268,0.715l0.27,0.713l0.273,0.713l0.274,0.711l0.277,0.711l0.279,0.709l0.28,0.708l0.283,0.708l0.285,0.706l0.287,0.705l0.289,0.704l0.292,0.703l0.293,0.703l0.296,0.7l0.297,0.7l0.3,0.699l0.301,0.698l0.304,0.696l0.306,0.696l0.307,0.694l0.31,0.694l0.312,0.692l0.314,0.691l0.316,0.69l0.318,0.689l0.32,0.687l0.322,0.687l0.324,0.686l0.327,0.684l0.328,0.683l0.33,0.682l0.332,0.681l0.334,0.68l0.336,0.679l0.339,0.677l0.34,0.677l0.342,0.675l0.344,0.674l0.346,0.673l0.348,0.672l0.351,0.67l0.352,0.67l0.354,0.668l0.356,0.667l0.358,0.666l0.36,0.664l0.362,0.664l0.363,0.662l0.366,0.661l0.368,0.66l0.37,0.658l0.371,0.658l0.374,0.656l0.375,0.655l0.378,0.654l0.379,0.652l0.381,0.651l0.383,0.65l0.385,0.649l0.387,0.648l0.389,0.646l0.391,0.645l0.393,0.644l0.394,0.642l0.396,0.641l0.399,0.64l0.4,0.639l0.402,0.637l0.404,0.637l0.406,0.634l0.407,0.634l0.41,0.632l0.411,0.631l0.414,0.63l0.415,0.628l0.416,0.627l0.419,0.625l0.421,0.625l0.422,0.623l0.424,0.621l0.427,0.621l0.428,0.619l0.429,0.618l0.432,0.616l0.433,0.615l0.435,0.614l0.437,0.612l0.439,0.611l0.44,0.609l0.443,0.609l0.444,0.607l0.446,0.605l0.447,0.604l0.45,0.603l0.451,0.601l0.453,0.6l0.455,0.599l0.456,0.597l0.459,0.596l0.46,0.594l0.461,0.593l0.464,0.591l0.465,0.59l0.467,0.589l0.469,0.587l0.47,0.586l0.473,0.584l0.473,0.583l0.476,0.582l0.477,0.58l0.479,0.578l0.481,0.578l0.482,0.575l0.484,0.574l0.486,0.573l0.488,0.571l0.489,0.57l0.491,0.568l0.493,0.567l0.494,0.565l0.495,0.564l0.498,0.563l0.499,0.56l0.501,0.56l0.503,0.558l0.504,0.556l0.506,0.555l0.507,0.553l0.509,0.552l0.511,0.55l0.512,0.548l0.514,0.548l0.516,0.545l0.517,0.544l0.519,0.543l0.52,0.541l0.522,0.539l0.524,0.538l0.525,0.536l0.527,0.535l0.528,0.533l0.53,0.532l0.532,0.53l0.533,0.528l0.535,0.527l0.536,0.525l0.538,0.524l0.539,0.522l0.541,0.521l0.543,0.518l0.543,0.517l0.546,0.516l0.548,0.514l0.548,0.512l0.55,0.511l0.552,0.509l0.553,0.507l0.555,0.506l0.556,0.504l0.558,0.503l0.56,0.501l0.56,0.499l0.563,0.497l0.564,0.497l0.565,0.494l0.567,0.492l0.568,0.491l0.57,0.489l0.571,0.488l0.573,0.485l0.574,0.485l0.575,0.482l0.578,0.481l0.579,0.479l0.579,0.477l0.582,0.476l0.582,0.473l0.585,0.473l0.585,0.47l0.588,0.469l0.589,0.467l0.59,0.465l0.591,0.464l0.593,0.461l0.595,0.46l0.595,0.458l0.597,0.457l0.599,0.455l0.6,0.453l0.601,0.451l0.603,0.449l0.604,0.449l0.605,0.445l0.607,0.444l0.608,0.442l0.611,0.442l0.61,0.438l0.612,0.436l0.613,0.436l0.616,0.433l0.617,0.432l0.617,0.429l0.619,0.428l0.62,0.427l0.622,0.424l0.623,0.422l0.625,0.421l0.625,0.419l0.627,0.416l0.628,0.415l0.631,0.414l0.63,0.411l0.632,0.409l0.633,0.408l0.636,0.406l0.636,0.404l0.637,0.402l0.639,0.4l0.639,0.398l0.641,0.397l0.644,0.395l0.644,0.392l0.644,0.391l0.646,0.389l0.648,0.387l0.648,0.385l0.65,0.383l0.652,0.382l0.652,0.378l0.653,0.377l0.656,0.377l0.656,0.373l0.657,0.371l0.659,0.37l0.66,0.368l0.661,0.366l0.661,0.363l0.665,0.363l0.665,0.36l0.665,0.357l0.667,0.356l0.668,0.354l0.67,0.352l0.67,0.351l0.672,0.348l0.672,0.346l0.675,0.344l0.676,0.343l0.675,0.339l0.678,0.339l0.679,0.336l0.679,0.334l0.681,0.332l0.683,0.33l0.684,0.329l0.683,0.325l0.686,0.325l0.687,0.322l0.687,0.32l0.689,0.318l0.691,0.316l0.691,0.314l0.691,0.312l0.693,0.309l0.695,0.308l0.696,0.306l0.697,0.304l0.697,0.302l0.698,0.299l0.7,0.297l0.702,0.296l0.702,0.293l0.703,0.291l0.703,0.289l0.706,0.288l0.706,0.285l0.707,0.283l0.71,0.281l0.708,0.278l0.71,0.277l0.712,0.274l0.712,0.272l0.715,0.271l0.714,0.268l0.715,0.266l0.717,0.264l0.718,0.261l0.719,0.26l0.719,0.258l0.721,0.255l0.721,0.253l0.723,0.251l0.724,0.249l0.725,0.247l0.725,0.244l0.726,0.242l0.729,0.241l0.728,0.238l0.73,0.235l0.73,0.234l0.732,0.231l0.733,0.23l0.733,0.227l0.734,0.225l0.735,0.222l0.737,0.221l0.738,0.218l0.737,0.216l0.739,0.214l0.741,0.212l0.74,0.209l0.742,0.207l0.743,0.205l0.744,0.203l0.745,0.201l0.745,0.198l0.747,0.196l0.747,0.193l0.749,0.192l0.749,0.189l0.75,0.187l0.752,0.185l0.751,0.182l0.753,0.181l0.754,0.177l0.754,0.176l0.756,0.173l0.755,0.171l0.759,0.169l0.758,0.167l0.758,0.164l0.76,0.162l0.761,0.159l0.761,0.157l0.763,0.155l0.763,0.153l0.765,0.15l0.765,0.148l0.765,0.146l0.766,0.143l0.768,0.141l0.768,0.139l0.769,0.136l0.771,0.134l0.77,0.132l0.772,0.129l0.773,0.127l0.772,0.124l0.774,0.122l0.775,0.12l0.776,0.118l0.776,0.115l0.777,0.112l0.779,0.111l0.779,0.108l0.778,0.105l0.781,0.103l0.782,0.101l0.781,0.098l0.783,0.096l0.784,0.093l0.784,0.091l0.785,0.089l0.786,0.086l0.787,0.084l0.787,0.081l0.788,0.079l0.788,0.076l0.79,0.074l0.79,0.072l0.791,0.069l0.792,0.067l0.794,0.064l0.792,0.062l0.793,0.059l0.796,0.057l0.795,0.054l0.796,0.052l0.798,0.049l0.797,0.047l0.798,0.044l0.8,0.042l0.798,0.039l0.801,0.037l0.802,0.034l0.801,0.032l0.802,0.029l0.804,0.027l0.804,0.024l0.804,0.022l0.807,0.019l0.805,0.017l0.806,0.014l0.809,0.011l0.807,0.009l0.808,0.007l0.81,0.004l0.81,0.001l0.81,-0.001l0.81,-0.004l0.808,-0.007l0.807,-0.009l0.809,-0.011l0.806,-0.014l0.805,-0.017l0.807,-0.019l0.804,-0.022l0.804,-0.024l0.804,-0.027l0.802,-0.029l0.801,-0.032l0.802,-0.034l0.801,-0.037l0.798,-0.039l0.8,-0.042l0.798,-0.044l0.797,-0.047l0.798,-0.049l0.796,-0.052l0.795,-0.054l0.796,-0.057l0.793,-0.059l0.792,-0.062l0.794,-0.064l0.792,-0.067l0.791,-0.069l0.79,-0.072l0.79,-0.074l0.788,-0.076l0.788,-0.079l0.787,-0.081l0.787,-0.084l0.786,-0.086l0.785,-0.089l0.784,-0.091l0.784,-0.093l0.783,-0.096l0.781,-0.098l0.782,-0.101l0.781,-0.103l0.778,-0.105l0.779,-0.108l0.779,-0.111l0.777,-0.112l0.776,-0.115l0.776,-0.118l0.775,-0.12l0.774,-0.122l0.772,-0.124l0.773,-0.127l0.772,-0.129l0.77,-0.132l0.771,-0.134l0.769,-0.136l0.768,-0.139l0.768,-0.141l0.766,-0.143l0.765,-0.146l0.765,-0.148l0.765,-0.15l0.763,-0.153l0.762,-0.155l0.762,-0.157l0.761,-0.159l0.76,-0.162l0.758,-0.164l0.758,-0.167l0.759,-0.169l0.755,-0.171l0.756,-0.173l0.754,-0.176l0.754,-0.177l0.753,-0.181l0.751,-0.182l0.752,-0.185l0.75,-0.187l0.749,-0.189l0.749,-0.192l0.747,-0.193l0.747,-0.196l0.745,-0.198l0.745,-0.201l0.744,-0.203l0.743,-0.205l0.742,-0.207l0.74,-0.209l0.741,-0.212l0.739,-0.214l0.737,-0.216l0.738,-0.218l0.737,-0.221l0.735,-0.222l0.734,-0.225l0.733,-0.227l0.733,-0.23l0.732,-0.231l0.73,-0.234l0.73,-0.235l0.728,-0.238l0.729,-0.241l0.726,-0.242l0.725,-0.244l0.725,-0.247l0.724,-0.249l0.723,-0.251l0.721,-0.253l0.721,-0.255l0.719,-0.258l0.719,-0.26l0.718,-0.261l0.717,-0.264l0.715,-0.266l0.714,-0.268l0.714,-0.271l0.713,-0.272l0.712,-0.274l0.71,-0.277l0.708,-0.278l0.71,-0.281l0.707,-0.283l0.706,-0.285l0.706,-0.288l0.703,-0.288l0.703,-0.292l0.702,-0.293l0.702,-0.296l0.7,-0.297l0.697,-0.299l0.698,-0.302l0.697,-0.304l0.696,-0.306l0.695,-0.308l0.693,-0.31l0.691,-0.311l0.691,-0.314l0.691,-0.316l0.689,-0.318l0.687,-0.32l0.687,-0.322l0.686,-0.325l0.684,-0.325l0.684,-0.329l0.682,-0.33l0.681,-0.332l0.679,-0.334l0.679,-0.336l0.678,-0.339l0.675,-0.339l0.676,-0.343l0.675,-0.344l0.671,-0.346l0.672,-0.348l0.671,-0.351l0.67,-0.352l0.668,-0.354l0.667,-0.356l0.666,-0.358l0.664,-0.359l0.665,-0.363l0.661,-0.363l0.661,-0.366l0.66,-0.368l0.659,-0.37l0.657,-0.371l0.655,-0.373l0.657,-0.377l0.653,-0.377l0.652,-0.379l0.652,-0.381l0.65,-0.383l0.648,-0.385l0.648,-0.387l0.646,-0.389l0.644,-0.391l0.644,-0.392l0.643,-0.395l0.642,-0.397l0.64,-0.398l0.638,-0.4l0.637,-0.402l0.636,-0.404l0.636,-0.406l0.633,-0.408l0.632,-0.409l0.631,-0.411l0.63,-0.414l0.628,-0.415l0.627,-0.416l0.625,-0.419l0.625,-0.421l0.623,-0.422l0.621,-0.424l0.621,-0.427l0.619,-0.428l0.617,-0.429l0.617,-0.432l0.616,-0.433l0.613,-0.436l0.612,-0.436l0.61,-0.438l0.611,-0.442l0.609,-0.442l0.606,-0.444l0.604,-0.445l0.605,-0.448l0.603,-0.45l0.601,-0.451l0.6,-0.453l0.599,-0.455l0.597,-0.457l0.596,-0.458l0.594,-0.46l0.592,-0.461l0.593,-0.464l0.589,-0.465l0.589,-0.467l0.587,-0.469l0.586,-0.47l0.585,-0.473l0.582,-0.474l0.582,-0.475l0.579,-0.477l0.579,-0.479l0.578,-0.481l0.575,-0.482l0.574,-0.485l0.573,-0.485l0.571,-0.488l0.57,-0.489l0.568,-0.491l0.567,-0.493l0.565,-0.493l0.564,-0.497l0.563,-0.497l0.56,-0.499l0.56,-0.501l0.558,-0.503l0.556,-0.504l0.555,-0.506l0.553,-0.507l0.552,-0.509l0.55,-0.511l0.548,-0.512l0.548,-0.514l0.546,-0.516l0.543,-0.517l0.543,-0.518l0.541,-0.521l0.54,-0.522l0.537,-0.524l0.536,-0.525l0.535,-0.527l0.533,-0.528l0.532,-0.53l0.53,-0.532l0.528,-0.533l0.527,-0.535l0.525,-0.536l0.524,-0.537l0.522,-0.54l0.521,-0.541l0.518,-0.543l0.517,-0.543l0.516,-0.546l0.514,-0.548l0.512,-0.548l0.511,-0.55l0.509,-0.552l0.507,-0.553l0.506,-0.555l0.504,-0.556l0.503,-0.558l0.501,-0.56l0.499,-0.56l0.497,-0.563l0.497,-0.564l0.493,-0.565l0.493,-0.567l0.491,-0.568l0.489,-0.57l0.488,-0.571l0.485,-0.573l0.485,-0.574l0.482,-0.575l0.481,-0.578l0.479,-0.579l0.477,-0.579l0.475,-0.582l0.474,-0.582l0.473,-0.585l0.47,-0.586l0.469,-0.587l0.467,-0.589l0.465,-0.589l0.464,-0.593l0.461,-0.592l0.46,-0.594l0.458,-0.596l0.457,-0.597l0.455,-0.599l0.453,-0.6l0.451,-0.601l0.45,-0.603l0.448,-0.605l0.445,-0.604l0.444,-0.606l0.442,-0.609l0.442,-0.611l0.438,-0.61l0.436,-0.612l0.436,-0.613l0.433,-0.616l0.432,-0.617l0.429,-0.617l0.428,-0.619l0.427,-0.621l0.424,-0.621l0.422,-0.623l0.421,-0.625l0.419,-0.625l0.416,-0.627l0.415,-0.628l0.414,-0.63l0.411,-0.631l0.409,-0.632l0.408,-0.633l0.406,-0.636l0.404,-0.636l0.402,-0.637l0.4,-0.638l0.398,-0.64l0.397,-0.642l0.395,-0.643l0.392,-0.644l0.391,-0.644l0.389,-0.646l0.387,-0.648l0.385,-0.648l0.383,-0.65l0.381,-0.652l0.379,-0.652l0.377,-0.653l0.377,-0.657l0.373,-0.655l0.371,-0.657l0.37,-0.659l0.368,-0.66l0.366,-0.661l0.363,-0.661l0.363,-0.665l0.359,-0.664l0.358,-0.666l0.356,-0.667l0.354,-0.668l0.352,-0.67l0.351,-0.671l0.348,-0.672l0.346,-0.671l0.344,-0.675l0.343,-0.676l0.339,-0.675l0.339,-0.678l0.336,-0.679l0.334,-0.679l0.332,-0.681l0.33,-0.682l0.329,-0.684l0.325,-0.684l0.325,-0.686l0.322,-0.687l0.32,-0.687l0.318,-0.689l0.316,-0.691l0.314,-0.691l0.311,-0.691l0.31,-0.693l0.308,-0.695l0.306,-0.696l0.304,-0.697l0.302,-0.698l0.299,-0.697l0.297,-0.7l0.296,-0.702l0.293,-0.702l0.292,-0.703l0.288,-0.703l0.288,-0.706l0.285,-0.706l0.283,-0.707l0.281,-0.71l0.278,-0.708l0.277,-0.71l0.274,-0.712l0.272,-0.713l0.271,-0.714l0.268,-0.714l0.266,-0.715l0.264,-0.717l0.261,-0.718l0.26,-0.719l0.258,-0.719l0.255,-0.721l0.253,-0.721l0.251,-0.723l0.249,-0.724l0.247,-0.725l0.244,-0.725l0.242,-0.726l0.241,-0.729l0.238,-0.728l0.235,-0.73l0.234,-0.73l0.231,-0.732l0.23,-0.733l0.227,-0.733l0.225,-0.734l0.222,-0.735l0.221,-0.737l0.218,-0.738l0.216,-0.737l0.214,-0.739l0.212,-0.741l0.209,-0.74l0.207,-0.742l0.205,-0.743l0.203,-0.744l0.201,-0.745l0.198,-0.745l0.196,-0.747l0.193,-0.747l0.192,-0.749l0.189,-0.749l0.187,-0.75l0.185,-0.752l0.182,-0.751l0.181,-0.753l0.177,-0.754l0.176,-0.754l0.173,-0.756l0.171,-0.755l0.169,-0.759l0.167,-0.758l0.164,-0.758l0.162,-0.76l0.159,-0.761l0.157,-0.762l0.155,-0.762l0.153,-0.763l0.15,-0.765l0.148,-0.765l0.146,-0.765l0.143,-0.766l0.141,-0.768l0.139,-0.768l0.136,-0.769l0.134,-0.771l0.132,-0.77l0.129,-0.772l0.127,-0.773l0.124,-0.772l0.122,-0.774l0.12,-0.775l0.118,-0.776l0.115,-0.776l0.112,-0.777l0.111,-0.779l0.108,-0.779l0.105,-0.778l0.103,-0.781l0.101,-0.782l0.098,-0.781l0.096,-0.783l0.093,-0.784l0.091,-0.784l0.089,-0.785l0.086,-0.786l0.084,-0.787l0.081,-0.787l0.079,-0.788l0.076,-0.788l0.074,-0.79l0.072,-0.79l0.069,-0.791l0.067,-0.792l0.064,-0.794l0.062,-0.792l0.059,-0.793l0.057,-0.796l0.054,-0.795l0.052,-0.796l0.049,-0.798l0.047,-0.797l0.044,-0.798l0.042,-0.8l0.039,-0.798l0.037,-0.801l0.034,-0.802l0.032,-0.801l0.029,-0.802l0.027,-0.804l0.024,-0.804l0.022,-0.804l0.019,-0.807l0.017,-0.805l0.014,-0.806l0.011,-0.809l0.009,-0.807l0.007,-0.808l0.004,-0.81l0.001,-0.81l-0.001,-0.81l-0.004,-0.81l-0.007,-0.808l-0.009,-0.807l-0.011,-0.809l-0.014,-0.806l-0.017,-0.805l-0.019,-0.807l-0.022,-0.804l-0.024,-0.804l-0.027,-0.804l-0.029,-0.802l-0.032,-0.801l-0.034,-0.802l-0.037,-0.801l-0.039,-0.798l-0.042,-0.8l-0.044,-0.798l-0.047,-0.797l-0.049,-0.798l-0.052,-0.796l-0.054,-0.795l-0.057,-0.796l-0.059,-0.793l-0.062,-0.792l-0.064,-0.794l-0.067,-0.792l-0.069,-0.791l-0.072,-0.79l-0.074,-0.79l-0.076,-0.788l-0.079,-0.788l-0.081,-0.787l-0.084,-0.787l-0.086,-0.786l-0.089,-0.785l-0.091,-0.784l-0.093,-0.784l-0.096,-0.783l-0.098,-0.781l-0.101,-0.782l-0.103,-0.781l-0.105,-0.778l-0.108,-0.779l-0.111,-0.779l-0.112,-0.777l-0.115,-0.776l-0.118,-0.776l-0.12,-0.775l-0.122,-0.774l-0.124,-0.772l-0.127,-0.773l-0.129,-0.772l-0.132,-0.77l-0.134,-0.771l-0.136,-0.769l-0.139,-0.768l-0.141,-0.768l-0.143,-0.766l-0.146,-0.765l-0.148,-0.765l-0.15,-0.765l-0.153,-0.763l-0.155,-0.763l-0.157,-0.761l-0.159,-0.761l-0.162,-0.76l-0.164,-0.758l-0.167,-0.758l-0.169,-0.759l-0.171,-0.755l-0.173,-0.756l-0.176,-0.754l-0.177,-0.754l-0.181,-0.753l-0.182,-0.751l-0.185,-0.752l-0.187,-0.75l-0.189,-0.749l-0.192,-0.749l-0.193,-0.747l-0.196,-0.747l-0.198,-0.745l-0.201,-0.745l-0.203,-0.744l-0.205,-0.743l-0.207,-0.742l-0.209,-0.74l-0.212,-0.741l-0.214,-0.739l-0.216,-0.737l-0.218,-0.738l-0.221,-0.737l-0.222,-0.735l-0.225,-0.734l-0.227,-0.733l-0.23,-0.733l-0.231,-0.732l-0.234,-0.73l-0.235,-0.73l-0.238,-0.728l-0.241,-0.729l-0.242,-0.726l-0.244,-0.725l-0.247,-0.725l-0.249,-0.724l-0.251,-0.723l-0.253,-0.721l-0.255,-0.721l-0.258,-0.719l-0.26,-0.719l-0.261,-0.718l-0.264,-0.717l-0.266,-0.715l-0.268,-0.714l-0.271,-0.715l-0.272,-0.712l-0.274,-0.712l-0.277,-0.71l-0.278,-0.708l-0.281,-0.71l-0.283,-0.707l-0.285,-0.706l-0.288,-0.706l-0.289,-0.703l-0.291,-0.703l-0.293,-0.702l-0.296,-0.702l-0.297,-0.7l-0.299,-0.698l-0.302,-0.697l-0.304,-0.697l-0.306,-0.696l-0.308,-0.695l-0.309,-0.693l-0.312,-0.691l-0.314,-0.691l-0.316,-0.691l-0.318,-0.689l-0.32,-0.687l-0.322,-0.687l-0.325,-0.686l-0.325,-0.683l-0.329,-0.684l-0.33,-0.683l-0.332,-0.681l-0.334,-0.679l-0.336,-0.679l-0.339,-0.678l-0.339,-0.675l-0.343,-0.676l-0.344,-0.675l-0.346,-0.672l-0.348,-0.672l-0.351,-0.67l-0.352,-0.67l-0.354,-0.668l-0.356,-0.667l-0.357,-0.665l-0.36,-0.665l-0.363,-0.665l-0.363,-0.661l-0.366,-0.661l-0.368,-0.66l-0.37,-0.659l-0.371,-0.657l-0.373,-0.656l-0.377,-0.656l-0.377,-0.653l-0.378,-0.652l-0.382,-0.652l-0.383,-0.65l-0.385,-0.648l-0.387,-0.648l-0.389,-0.646l-0.391,-0.644l-0.392,-0.644l-0.395,-0.644l-0.397,-0.641l-0.398,-0.639l-0.4,-0.639l-0.402,-0.637l-0.404,-0.636l-0.406,-0.636l-0.408,-0.633l-0.409,-0.632l-0.411,-0.63l-0.414,-0.631l-0.415,-0.628l-0.416,-0.627l-0.419,-0.625l-0.421,-0.625l-0.422,-0.623l-0.424,-0.622l-0.427,-0.62l-0.428,-0.619l-0.429,-0.617l-0.432,-0.617l-0.433,-0.616l-0.436,-0.613l-0.436,-0.612l-0.438,-0.61l-0.442,-0.611l-0.442,-0.608l-0.444,-0.607l-0.445,-0.605l-0.449,-0.604l-0.449,-0.603l-0.451,-0.601l-0.453,-0.6l-0.455,-0.599l-0.457,-0.597l-0.458,-0.595l-0.46,-0.595l-0.461,-0.593l-0.464,-0.591l-0.465,-0.59l-0.467,-0.589l-0.469,-0.588l-0.47,-0.585l-0.473,-0.585l-0.473,-0.582l-0.476,-0.582l-0.477,-0.579l-0.479,-0.579l-0.481,-0.578l-0.482,-0.575l-0.485,-0.574l-0.485,-0.573l-0.488,-0.571l-0.489,-0.57l-0.491,-0.568l-0.492,-0.567l-0.494,-0.565l-0.497,-0.564l-0.497,-0.563l-0.499,-0.56l-0.501,-0.56l-0.503,-0.558l-0.504,-0.556l-0.506,-0.555l-0.507,-0.553l-0.509,-0.552l-0.511,-0.55l-0.512,-0.548l-0.514,-0.548l-0.516,-0.546l-0.517,-0.543l-0.518,-0.543l-0.521,-0.541l-0.522,-0.539l-0.524,-0.538l-0.525,-0.536l-0.527,-0.535l-0.528,-0.533l-0.53,-0.532l-0.532,-0.53l-0.533,-0.528l-0.535,-0.527l-0.536,-0.525l-0.538,-0.524l-0.539,-0.522l-0.541,-0.52l-0.543,-0.519l-0.544,-0.517l-0.545,-0.516l-0.548,-0.514l-0.548,-0.512l-0.55,-0.511l-0.552,-0.509l-0.553,-0.507l-0.555,-0.506l-0.556,-0.504l-0.558,-0.503l-0.56,-0.501l-0.56,-0.499l-0.563,-0.498l-0.564,-0.495l-0.565,-0.494l-0.567,-0.493l-0.568,-0.491l-0.57,-0.489l-0.571,-0.488l-0.573,-0.486l-0.574,-0.484l-0.575,-0.482l-0.578,-0.481l-0.578,-0.479l-0.58,-0.477l-0.582,-0.476l-0.583,-0.473l-0.584,-0.473l-0.586,-0.47l-0.587,-0.469l-0.589,-0.467l-0.59,-0.465l-0.591,-0.464l-0.593,-0.461l-0.594,-0.46l-0.596,-0.459l-0.597,-0.456l-0.599,-0.455l-0.6,-0.453l-0.601,-0.451l-0.603,-0.45l-0.604,-0.447l-0.605,-0.446l-0.607,-0.444l-0.609,-0.443l-0.609,-0.44l-0.611,-0.439l-0.612,-0.437l-0.614,-0.435l-0.615,-0.433l-0.616,-0.432l-0.618,-0.429l-0.619,-0.428l-0.621,-0.427l-0.621,-0.424l-0.623,-0.422l-0.625,-0.421l-0.625,-0.419l-0.627,-0.416l-0.628,-0.415l-0.63,-0.414l-0.631,-0.411l-0.632,-0.41l-0.634,-0.407l-0.634,-0.406l-0.637,-0.404l-0.637,-0.402l-0.639,-0.4l-0.64,-0.399l-0.641,-0.396l-0.642,-0.394l-0.644,-0.393l-0.645,-0.391l-0.646,-0.389l-0.648,-0.387l-0.649,-0.385l-0.65,-0.383l-0.651,-0.381l-0.652,-0.379l-0.654,-0.378l-0.655,-0.375l-0.656,-0.374l-0.658,-0.371l-0.658,-0.37l-0.66,-0.368l-0.661,-0.366l-0.662,-0.363l-0.664,-0.362l-0.664,-0.36l-0.666,-0.358l-0.667,-0.356l-0.668,-0.354l-0.67,-0.352l-0.67,-0.351l-0.672,-0.348l-0.673,-0.346l-0.674,-0.344l-0.675,-0.342l-0.677,-0.34l-0.677,-0.339l-0.679,-0.336l-0.68,-0.334l-0.681,-0.332l-0.682,-0.33l-0.683,-0.328l-0.684,-0.327l-0.686,-0.324l-0.687,-0.322l-0.687,-0.32l-0.689,-0.318l-0.69,-0.316l-0.691,-0.314l-0.692,-0.312l-0.694,-0.31l-0.694,-0.307l-0.696,-0.306l-0.696,-0.304l-0.698,-0.301l-0.699,-0.3l-0.7,-0.297l-0.7,-0.296l-0.703,-0.293l-0.703,-0.292l-0.704,-0.289l-0.705,-0.287l-0.706,-0.285l-0.708,-0.283l-0.708,-0.28l-0.709,-0.279l-0.711,-0.277l-0.711,-0.274l-0.713,-0.273l-0.713,-0.27l-0.715,-0.268l-0.716,-0.266l-0.716,-0.264l-0.718,-0.261l-0.718,-0.26l-0.72,-0.257l-0.721,-0.256l-0.722,-0.253l-0.722,-0.251l-0.724,-0.249l-0.725,-0.246l-0.725,-0.245l-0.727,-0.242l-0.728,-0.241l-0.728,-0.238l-0.73,-0.235l-0.73,-0.234l-0.732,-0.232l-0.732,-0.229l-0.734,-0.227l-0.734,-0.225l-0.735,-0.222l-0.737,-0.221l-0.737,-0.218l-0.738,-0.216l-0.739,-0.214l-0.74,-0.212l-0.741,-0.209l-0.742,-0.207l-0.743,-0.205l-0.744,-0.203l-0.745,-0.201l-0.745,-0.198l-0.747,-0.196l-0.747,-0.193l-0.749,-0.192l-0.749,-0.189l-0.75,-0.187l-0.751,-0.185l-0.752,-0.182l-0.753,-0.18l-0.754,-0.178l-0.754,-0.176l-0.756,-0.173l-0.756,-0.171l-0.757,-0.169l-0.758,-0.167l-0.759,-0.164l-0.76,-0.162l-0.761,-0.159l-0.762,-0.157l-0.762,-0.155l-0.763,-0.153l-0.764,-0.15l-0.765,-0.148l-0.766,-0.146l-0.767,-0.143l-0.767,-0.141l-0.768,-0.139l-0.77,-0.136l-0.769,-0.134l-0.771,-0.132l-0.772,-0.129l-0.772,-0.127l-0.773,-0.124l-0.774,-0.122l-0.775,-0.12l-0.776,-0.118l-0.776,-0.115l-0.778,-0.112l-0.778,-0.111l-0.778,-0.107l-0.78,-0.106l-0.78,-0.103l-0.781,-0.101l-0.782,-0.098l-0.783,-0.096l-0.784,-0.093l-0.784,-0.091l-0.785,-0.089l-0.786,-0.086l-0.786,-0.084l-0.788,-0.081l-0.788,-0.079l-0.789,-0.076l-0.789,-0.074l-0.79,-0.072l-0.791,-0.069l-0.792,-0.067l-0.793,-0.064l-0.793,-0.062l-0.794,-0.059l-0.795,-0.057l-0.795,-0.054l-0.796,-0.052l-0.797,-0.049l-0.798,-0.047l-0.798,-0.044l-0.799,-0.042l-0.8,-0.039l-0.8,-0.037l-0.802,-0.034l-0.801,-0.032l-0.803,-0.029l-0.803,-0.027l-0.804,-0.024l-0.805,-0.022l-0.805,-0.019l-0.806,-0.017l-0.807,-0.014l-0.807,-0.011l-0.808,-0.009l-0.809,-0.007l-0.809,-0.004l-0.81,-0.001l-0.81,0.001Z"/><path d="M40,300c0,0 106.252,-20 160,-20c41.067,0 124.048,26.491 200,31.216c84.333,5.247 160,-11.216 160,-11.216" style="fill:none;stroke:#000;stroke-width:30px;"/><path d="M90,450c0,0 86.023,-20 129.538,-20c33.249,0 100.432,26.491 161.924,31.216c68.277,5.247 129.538,-11.216 129.538,-11.216" style="fill:none;stroke:#000;stroke-width:30px;"/><path d="M80,153.876c0,0 89.905,-20 135.385,-20c34.749,0 104.964,26.49 169.23,31.216c71.359,5.247 135.385,-11.216 135.385,-11.216" style="fill:none;stroke:#000;stroke-width:30px;"/></svg>