<?xml version="1.0" encoding="UTF-8" standalone="no"?><!DOCTYPE svg PUBLIC "-//W3C//DTD SVG 1.1//EN" "http://www.w3.org/Graphics/SVG/1.1/DTD/svg11.dtd"><svg width="100%" height="100%" viewBox="0 0 800 600" version="1.1" xmlns="http://www.w3.org/2000/svg" xmlns:xlink="http://www.w3.org/1999/xlink" xml:space="preserve" xmlns:serif="http://www.serif.com/" style="fill-rule:evenodd;clip-rule:evenodd;stroke-linejoin:round;stroke-miterlimit:2;"><rect id="Artboard1" x="0" y="0" width="800" height="600" style="fill:none;"/><g id="Artboard11" serif:id="Artboard1"><g><circle cx="400.024" cy="300" r="250" style="fill:#ebebeb;"/><path d="M400.872,37.501c66.236,0.315 131.557,26.389 179.656,71.976c39.694,37.62 67.286,87.772 77.449,141.673c13.275,70.407 -3.675,146.011 -46.228,203.975c-38.467,52.398 -96.88,89.75 -160.463,102.361c-66.221,13.134 -137.338,-0.375 -194.046,-37.23c-62.687,-40.742 -106.716,-108.985 -117.168,-183.579c-9.5,-67.802 8.665,-138.933 49.636,-193.704c47.332,-63.275 123.265,-103.606 204.394,-105.407c2.255,-0.05 4.509,-0.068 6.77,-0.065Zm-1.617,25c-73.56,0.35 -145.421,36.483 -189.528,95.447c-44.167,59.043 -58.618,139.299 -37.162,210.55c20.132,66.854 71.326,123.82 136.392,150.891c57.539,23.939 124.582,23.944 182.134,0c64.759,-26.944 116.088,-83.465 136.392,-150.891c17.561,-58.318 11.622,-123.571 -16.61,-177.847c-37.662,-72.404 -113.814,-123.003 -197.109,-127.76c-4.829,-0.276 -9.675,-0.397 -14.509,-0.39Z"/><path d="M400.52,37.501c13.489,0.124 26.82,3.654 38.861,9.849c26.72,13.746 46.276,38.522 60.694,64.644c24.875,45.068 36.652,96.522 40.847,148.168c5.354,65.927 -1.543,133.754 -25.333,194.534c-11.1,28.359 -25.763,55.449 -48.013,77.216c-18.034,17.643 -41.937,30.588 -67.552,30.588c-35.909,0 -68.181,-26.512 -88.024,-55.059c-27.792,-39.981 -42.171,-88.264 -49.407,-137.205c-10.549,-71.357 -5.875,-145.728 17.4,-212.82c11.103,-32.007 26.495,-62.985 50.568,-87.424c18.116,-18.392 41.88,-32.243 68.966,-32.491c0.331,-0.001 0.662,-0.001 0.993,0Zm-0.84,25c-22.848,0.209 -43.668,15.616 -57.546,31.839c-25.406,29.7 -39.615,67.81 -48.608,106.349c-15.712,67.331 -15.159,138.884 1.616,205.276c10.488,41.507 26.769,83.476 58.964,111.942c17.289,15.286 41.299,24.612 65.187,16.249c20.79,-7.279 36.711,-24.203 48.81,-41.828c25.18,-36.678 38.007,-81.003 44.62,-125.748c9.608,-65.009 5.911,-132.402 -14.043,-194.263c-11.007,-34.125 -26.441,-67.928 -54.349,-91.619c-12.142,-10.308 -27.303,-17.945 -43.619,-18.194c-0.344,-0.003 -0.688,-0.004 -1.032,-0.003Z"/><path d="M643.614,275.436c5.701,2.162 10.555,6.62 11.301,12.756c0.735,6.059 -2.584,12.289 -7.92,15.09c-2.881,1.512 -3.812,1.334 -6.971,1.718l-480,0c-8.263,-1.003 -16.008,-7.604 -14.891,-16.808c0.735,-6.051 5.407,-11.303 11.301,-12.756c1.171,-0.289 2.393,-0.291 3.59,-0.436l480,0c1.197,0.145 2.393,0.291 3.59,0.436Z"/><path d="M403.259,37.926c4.105,1.7 7.708,4.619 8.839,8.839c0.282,1.05 0.284,2.157 0.426,3.235l0,500c-0.374,2.842 -0.203,3.702 -1.675,6.25c-3.714,6.432 -13.924,8.329 -19.664,2.589c-2.302,-2.302 -3.226,-5.531 -3.661,-8.839l0,-500c0.431,-3.276 1.392,-6.57 3.661,-8.839c2.302,-2.302 5.531,-3.226 8.839,-3.661c1.078,0.142 2.157,0.284 3.235,0.426Z"/></g><path d="M220,134.278c52.66,61.53 306,60.393 360,0" style="fill:none;"/><path d="M222.028,119.416c1.166,0.305 2.377,0.473 3.498,0.917c3.27,1.296 3.817,1.903 6.429,4.829c12.358,13.725 31.245,20.257 49.305,25.526c48.358,14.108 99.838,16.277 149.579,13.374c35.195,-2.055 70.697,-6.631 103.559,-19.121c12.68,-4.819 25.442,-10.755 34.306,-20.535c0,0 1.558,-1.645 2.859,-2.53c8.826,-6.005 23.519,0.329 23.437,12.504c-0.038,5.573 -3.839,10.302 -8.328,14.497c-14.209,13.281 -32.648,21.407 -51.428,27.574c-42.035,13.802 -86.948,18.097 -131.11,18.522c-46.165,0.443 -92.942,-3.377 -136.428,-17.046c-21.898,-6.883 -43.892,-16.528 -58.7,-33.431l-0.38,-0.438l-2.01,-3.006c-1.084,-2.993 -1.663,-3.742 -1.614,-6.996c0.07,-4.776 2.636,-9.557 6.661,-12.247c2.705,-1.809 3.648,-1.731 6.749,-2.447c1.206,0.018 2.411,0.036 3.616,0.054Z"/><path d="M580,465.722c-52.66,-61.53 -306,-60.393 -360,0" style="fill:none;"/><path d="M402.318,405c48.873,0.1 98.794,4.375 144.025,21.99c3.317,1.291 6.6,2.672 9.834,4.159c13.173,6.053 25.77,13.83 35.197,24.793l2.01,3.006c1.084,2.993 1.663,3.742 1.614,6.996c-0.121,8.225 -8.245,15.839 -17.026,14.64c-3.861,-0.527 -7.282,-2.782 -9.926,-5.746c-11.494,-12.761 -28.773,-19.178 -45.39,-24.346c-46.915,-14.592 -97.213,-17.087 -145.699,-14.952c-36.991,1.628 -74.405,6.035 -108.989,18.639c-13.505,4.921 -27.173,10.839 -36.809,21.567l-2.723,2.379c-5.418,2.796 -11.978,3.429 -17.041,-0.117c-5,-3.501 -7.417,-10.134 -5.934,-15.975c0.865,-3.41 1.325,-4.094 3.972,-6.988c15.444,-16.737 37.514,-26.043 59.679,-32.882c42.182,-13.016 86.996,-17.046 131.363,-17.162c0.614,-0.001 1.229,-0.001 1.843,-0.001Z"/></g></svg>