<?xml version="1.0" encoding="UTF-8" standalone="no"?><!DOCTYPE svg PUBLIC "-//W3C//DTD SVG 1.1//EN" "http://www.w3.org/Graphics/SVG/1.1/DTD/svg11.dtd"><svg width="100%" height="100%" viewBox="0 0 600 600" version="1.1" xmlns="http://www.w3.org/2000/svg" xmlns:xlink="http://www.w3.org/1999/xlink" xml:space="preserve" xmlns:serif="http://www.serif.com/" style="fill-rule:evenodd;clip-rule:evenodd;stroke-linejoin:round;stroke-miterlimit:2;"><g><circle cx="299.919" cy="300" r="266.667" style="fill:#fff;"/><path d="M300.823,20.001c70.652,0.336 140.328,28.148 191.634,76.774c42.339,40.129 71.771,93.624 82.611,151.118c14.16,75.101 -3.919,155.746 -49.309,217.574c-41.031,55.891 -103.339,95.733 -171.161,109.185c-70.636,14.01 -146.494,-0.4 -206.982,-39.713c-66.867,-43.458 -113.831,-116.25 -124.979,-195.816c-10.134,-72.323 9.243,-148.197 52.944,-206.618c50.489,-67.494 131.483,-110.514 218.021,-112.435c2.405,-0.053 4.809,-0.072 7.221,-0.069Zm-1.724,26.667c-78.464,0.373 -155.116,38.915 -202.164,101.81c-47.111,62.979 -62.526,148.586 -39.639,224.587c21.474,71.31 76.081,132.074 145.485,160.95c61.375,25.535 132.887,25.54 194.275,0c69.078,-28.74 123.828,-89.029 145.485,-160.95c18.732,-62.206 12.398,-131.81 -17.717,-189.704c-40.173,-77.23 -121.401,-131.203 -210.25,-136.277c-5.15,-0.294 -10.319,-0.424 -15.475,-0.416Z"/><path d="M300.448,20.002c14.388,0.131 28.608,3.897 41.452,10.504c28.5,14.663 49.361,41.091 64.74,68.954c26.533,48.073 39.095,102.957 43.569,158.046c5.712,70.323 -1.645,142.671 -27.021,207.503c-11.84,30.25 -27.48,59.146 -51.214,82.364c-19.236,18.819 -44.733,32.627 -72.055,32.627c-38.303,0 -72.727,-28.28 -93.893,-58.729c-29.645,-42.647 -44.982,-94.149 -52.7,-146.353c-11.252,-76.114 -6.267,-155.442 18.559,-227.007c11.844,-34.142 28.262,-67.185 53.939,-93.253c19.324,-19.618 44.672,-34.392 73.565,-34.656c0.353,-0.002 0.706,-0.002 1.059,0Zm-0.896,26.666c-24.372,0.223 -46.58,16.657 -61.382,33.962c-27.1,31.68 -42.257,72.33 -51.849,113.438c-16.76,71.82 -16.17,148.143 1.724,218.962c11.187,44.274 28.553,89.04 62.895,119.404c18.441,16.305 44.052,26.253 69.532,17.332c22.176,-7.764 39.159,-25.817 52.065,-44.616c26.858,-39.123 40.54,-86.403 47.594,-134.131c10.248,-69.343 6.305,-141.229 -14.979,-207.214c-11.741,-36.401 -28.204,-72.457 -57.972,-97.727c-12.952,-10.995 -29.124,-19.141 -46.528,-19.407c-0.367,-0.003 -0.734,-0.004 -1.1,-0.003Z"/><path d="M559.748,273.798c6.081,2.307 11.259,7.061 12.054,13.607c0.785,6.463 -2.756,13.108 -8.448,16.096c-3.073,1.613 -4.066,1.423 -7.435,1.832l-512,0c-8.814,-1.07 -17.076,-8.11 -15.884,-17.928c0.784,-6.455 5.767,-12.057 12.055,-13.607c1.248,-0.307 2.552,-0.31 3.829,-0.465l512,0c1.276,0.155 2.552,0.31 3.829,0.465Z"/><path d="M303.369,20.454c4.379,1.814 8.223,4.928 9.429,9.428c0.3,1.121 0.302,2.301 0.454,3.451l0,533.334c-0.399,3.031 -0.217,3.948 -1.786,6.666c-3.962,6.862 -14.853,8.884 -20.976,2.762c-2.455,-2.456 -3.44,-5.9 -3.905,-9.428l0,-533.334c0.46,-3.494 1.485,-7.008 3.905,-9.428c2.456,-2.455 5.9,-3.44 9.429,-3.905c1.15,0.151 2.3,0.303 3.45,0.454Z"/><path d="M302.366,412c52.131,0.107 105.38,4.666 153.626,23.456c3.538,1.377 7.04,2.85 10.49,4.436c14.051,6.457 27.488,14.753 37.543,26.447l2.144,3.206c1.156,3.192 1.774,3.991 1.722,7.462c-0.13,8.774 -8.794,16.894 -18.161,15.616c-4.119,-0.562 -7.767,-2.968 -10.588,-6.129c-12.261,-13.612 -30.691,-20.457 -48.416,-25.97c-50.042,-15.564 -103.694,-18.226 -155.412,-15.949c-39.457,1.738 -79.365,6.439 -116.256,19.882c-14.404,5.249 -28.983,11.562 -39.262,23.005l-2.904,2.538c-5.78,2.983 -12.777,3.658 -18.178,-0.125c-5.333,-3.735 -7.911,-10.809 -6.329,-17.04c0.922,-3.637 1.413,-4.367 4.237,-7.454c16.474,-17.853 40.014,-27.779 63.658,-35.074c44.994,-13.883 92.795,-18.182 140.119,-18.306c0.656,-0.001 1.311,-0.001 1.967,-0.001Z"/><path d="M110.056,107.377c1.244,0.326 2.536,0.505 3.731,0.978c3.489,1.383 4.072,2.03 6.858,5.151c13.182,14.64 33.328,21.608 52.592,27.228c51.582,15.049 106.494,17.362 159.551,14.265c37.541,-2.191 75.41,-7.073 110.462,-20.395c13.527,-5.141 27.139,-11.472 36.594,-21.904c0,0 1.662,-1.755 3.05,-2.699c9.414,-6.405 25.087,0.351 24.999,13.338c-0.041,5.944 -4.095,10.989 -8.883,15.463c-15.156,14.167 -34.825,22.834 -54.857,29.412c-44.837,14.723 -92.744,19.304 -139.85,19.757c-49.243,0.473 -99.139,-3.602 -145.524,-18.182c-23.358,-7.343 -46.818,-17.63 -62.613,-35.659l-0.405,-0.469l-2.144,-3.206c-1.156,-3.192 -1.774,-3.991 -1.722,-7.462c0.075,-5.095 2.812,-10.194 7.105,-13.064c2.885,-1.929 3.892,-1.846 7.2,-2.609c1.285,0.019 2.571,0.038 3.856,0.057Z"/></g></svg>