<?xml version="1.0" encoding="UTF-8" standalone="no"?><!DOCTYPE svg PUBLIC "-//W3C//DTD SVG 1.1//EN" "http://www.w3.org/Graphics/SVG/1.1/DTD/svg11.dtd"><svg width="100%" height="100%" viewBox="0 0 600 600" version="1.1" xmlns="http://www.w3.org/2000/svg" xmlns:xlink="http://www.w3.org/1999/xlink" xml:space="preserve" xmlns:serif="http://www.serif.com/" style="fill-rule:evenodd;clip-rule:evenodd;stroke-linejoin:round;stroke-miterlimit:2;"><g><circle cx="299.976" cy="300.057" r="266.722" style="fill:#fff;"/><path d="M300.881,20c70.666,0.337 140.357,28.154 191.673,76.79c42.349,40.137 71.786,93.643 82.629,151.149c14.162,75.116 -3.921,155.778 -49.32,217.619c-41.04,55.902 -103.36,95.753 -171.196,109.207c-70.65,14.013 -146.524,-0.399 -207.025,-39.72c-66.88,-43.468 -113.854,-116.275 -125.005,-195.858c-10.135,-72.337 9.245,-148.226 52.956,-206.66c50.498,-67.508 131.51,-110.536 218.065,-112.458c2.406,-0.053 4.811,-0.072 7.223,-0.069Zm-1.725,26.673c-78.48,0.373 -155.148,38.923 -202.205,101.831c-47.121,62.992 -62.539,148.616 -39.647,224.633c21.478,71.325 76.096,132.101 145.514,160.983c61.388,25.54 132.915,25.546 194.316,0c69.092,-28.746 123.853,-89.048 145.515,-160.983c18.736,-62.219 12.4,-131.837 -17.721,-189.743c-40.181,-77.246 -121.426,-131.23 -210.293,-136.305c-5.152,-0.295 -10.322,-0.425 -15.479,-0.416Z"/><path d="M43.924,289.388l512.105,0" style="fill:none;"/><path d="M559.859,273.85c6.082,2.306 11.262,7.062 12.057,13.609c0.785,6.464 -2.756,13.111 -8.45,16.099c-3.074,1.613 -4.066,1.424 -7.437,1.833l-512.105,0c-8.816,-1.07 -17.079,-8.112 -15.887,-17.932c0.784,-6.456 5.768,-12.059 12.057,-13.609c1.248,-0.308 2.553,-0.31 3.83,-0.465l512.105,0c1.277,0.155 2.553,0.31 3.83,0.465Z"/><path d="M91.933,140.024l416.086,0" style="fill:none;"/><path d="M511.849,124.486c3.175,1.204 4.184,1.257 6.782,3.559c6.57,5.82 7.078,17.687 0,23.957c-2.881,2.553 -6.708,3.551 -10.612,4.025l-416.086,0c-6.457,-0.784 -12.624,-4.162 -14.963,-10.328c-3.225,-8.504 2.276,-19.03 11.134,-21.213c1.248,-0.308 2.553,-0.31 3.829,-0.466l416.086,0c1.277,0.156 2.553,0.311 3.83,0.466Z"/><path d="M75.93,438.752l448.092,0" style="fill:none;"/><path d="M527.852,423.214c6.083,2.306 11.262,7.062 12.057,13.609c0.785,6.464 -2.756,13.111 -8.449,16.099c-3.074,1.614 -4.067,1.424 -7.438,1.833l-448.092,0c-7.669,-0.931 -14.905,-5.994 -15.887,-14.074c-0.941,-7.753 4.503,-15.605 12.057,-17.467c1.249,-0.308 2.553,-0.31 3.83,-0.465l448.092,0c1.277,0.155 2.554,0.31 3.83,0.465Z"/></g></svg>