<?xml version="1.0" encoding="UTF-8" standalone="no"?><!DOCTYPE svg PUBLIC "-//W3C//DTD SVG 1.1//EN" "http://www.w3.org/Graphics/SVG/1.1/DTD/svg11.dtd"><svg width="100%" height="100%" viewBox="0 0 800 600" version="1.1" xmlns="http://www.w3.org/2000/svg" xmlns:xlink="http://www.w3.org/1999/xlink" xml:space="preserve" xmlns:serif="http://www.serif.com/" style="fill-rule:evenodd;clip-rule:evenodd;stroke-linejoin:round;stroke-miterlimit:2;"><rect id="Artboard1" x="0" y="0" width="800" height="600" style="fill:none;"/><g id="Artboard11" serif:id="Artboard1"><g><circle cx="400" cy="310" r="250" style="fill:#ebebeb;"/><path d="M400.848,47.501c66.236,0.315 131.557,26.389 179.657,71.976c39.693,37.62 67.285,87.772 77.448,141.673c13.275,70.407 -3.675,146.011 -46.228,203.975c-38.466,52.398 -96.88,89.75 -160.463,102.361c-66.221,13.134 -137.338,-0.375 -194.046,-37.23c-62.687,-40.742 -106.716,-108.985 -117.168,-183.579c-9.5,-67.802 8.665,-138.933 49.636,-193.704c47.333,-63.275 123.265,-103.606 204.394,-105.407c2.255,-0.05 4.509,-0.068 6.77,-0.065Zm-1.617,25c-73.56,0.35 -145.421,36.483 -189.528,95.447c-44.167,59.043 -58.618,139.299 -37.162,210.55c20.132,66.854 71.326,123.82 136.392,150.891c57.539,23.939 124.582,23.944 182.134,0c64.76,-26.944 116.088,-83.465 136.392,-150.891c17.561,-58.318 11.623,-123.571 -16.61,-177.847c-37.662,-72.403 -113.814,-123.003 -197.109,-127.76c-4.829,-0.275 -9.675,-0.397 -14.509,-0.39Z"/><path d="M160,300l480,0" style="fill:none;"/><path d="M643.59,285.436c5.701,2.162 10.556,6.62 11.301,12.756c0.735,6.059 -2.584,12.289 -7.92,15.09c-2.881,1.512 -3.812,1.334 -6.971,1.718l-480,0c-8.263,-1.003 -16.008,-7.604 -14.891,-16.808c0.735,-6.051 5.407,-11.303 11.301,-12.756c1.171,-0.289 2.393,-0.291 3.59,-0.436l480,0c1.197,0.145 2.393,0.291 3.59,0.436Z"/><path d="M205,160l390,0" style="fill:none;"/><path d="M598.59,145.436c2.975,1.128 3.921,1.179 6.357,3.336c6.157,5.455 6.634,16.578 0,22.456c-2.701,2.392 -6.288,3.328 -9.947,3.772l-390,0c-6.053,-0.735 -11.833,-3.901 -14.025,-9.681c-3.023,-7.971 2.133,-17.837 10.435,-19.883c1.171,-0.289 2.393,-0.291 3.59,-0.436l390,0c1.197,0.145 2.393,0.291 3.59,0.436Z"/><path d="M190,440l420,0" style="fill:none;"/><path d="M613.59,425.436c5.701,2.162 10.556,6.62 11.301,12.756c0.735,6.059 -2.584,12.289 -7.92,15.09c-2.881,1.512 -3.812,1.334 -6.971,1.718l-420,0c-7.189,-0.873 -13.971,-5.619 -14.891,-13.192c-0.882,-7.267 4.221,-14.627 11.301,-16.372c1.171,-0.289 2.393,-0.291 3.59,-0.436l420,0c1.197,0.145 2.393,0.291 3.59,0.436Z"/></g></g></svg>