<?xml version="1.0" encoding="UTF-8" standalone="no"?><!DOCTYPE svg PUBLIC "-//W3C//DTD SVG 1.1//EN" "http://www.w3.org/Graphics/SVG/1.1/DTD/svg11.dtd"><svg width="100%" height="100%" viewBox="0 0 600 600" version="1.1" xmlns="http://www.w3.org/2000/svg" xmlns:xlink="http://www.w3.org/1999/xlink" xml:space="preserve" xmlns:serif="http://www.serif.com/" style="fill-rule:evenodd;clip-rule:evenodd;stroke-linecap:round;stroke-linejoin:round;stroke-miterlimit:1.5;"><rect id="Artboard1" x="0" y="0" width="600" height="600" style="fill:none;"/><g id="Artboard11" serif:id="Artboard1"><g><path d="M500,128c-68.762,-25.147 -135.421,-25.049 -200,0c-67.366,-24.484 -134.028,-24.317 -200,0l0,352c66.667,-22.462 133.333,-22.157 200,0c65.275,-21.57 131.936,-21.654 200,0l0,-352Z" style="fill:#fff;stroke:#000;stroke-width:30px;"/><path d="M300,128l0,352" style="fill:none;stroke:#000;stroke-width:30px;"/><path d="M340,215c41.741,-14.992 84.952,-14.456 120,0" style="fill:#fff;stroke:#000;stroke-width:30px;"/><path d="M340,286.044c41.741,-14.992 84.952,-14.456 120,0" style="fill:#fff;stroke:#000;stroke-width:30px;"/><path d="M340,356.044c41.741,-14.992 84.952,-14.456 120,0" style="fill:#fff;stroke:#000;stroke-width:30px;"/></g></g></svg>