<?xml version="1.0" encoding="UTF-8" standalone="no"?><!DOCTYPE svg PUBLIC "-//W3C//DTD SVG 1.1//EN" "http://www.w3.org/Graphics/SVG/1.1/DTD/svg11.dtd"><svg width="100%" height="100%" viewBox="0 0 600 600" version="1.1" xmlns="http://www.w3.org/2000/svg" xmlns:xlink="http://www.w3.org/1999/xlink" xml:space="preserve" xmlns:serif="http://www.serif.com/" style="fill-rule:evenodd;clip-rule:evenodd;stroke-linejoin:round;stroke-miterlimit:2;"><g><circle cx="299.919" cy="300" r="266.667" style="fill:#fff;"/><path d="M300.823,20.001c70.652,0.336 140.328,28.148 191.634,76.774c42.339,40.129 71.771,93.624 82.611,151.118c14.16,75.101 -3.919,155.746 -49.309,217.574c-41.031,55.891 -103.339,95.733 -171.161,109.185c-70.636,14.01 -146.494,-0.4 -206.982,-39.713c-66.867,-43.458 -113.831,-116.25 -124.979,-195.816c-10.134,-72.323 9.243,-148.197 52.944,-206.618c50.489,-67.494 131.483,-110.514 218.021,-112.435c2.405,-0.053 4.809,-0.072 7.221,-0.069Zm-1.724,26.667c-78.464,0.373 -155.116,38.915 -202.164,101.81c-47.111,62.979 -62.526,148.586 -39.639,224.587c21.474,71.31 76.081,132.074 145.485,160.95c61.375,25.535 132.887,25.54 194.275,0c69.078,-28.74 123.828,-89.029 145.485,-160.95c18.732,-62.206 12.398,-131.81 -17.717,-189.704c-40.173,-77.23 -121.401,-131.203 -210.25,-136.277c-5.15,-0.294 -10.319,-0.424 -15.475,-0.416Z"/><path d="M300.448,20.002c14.388,0.131 28.608,3.897 41.452,10.504c28.5,14.663 49.361,41.091 64.74,68.954c26.533,48.073 39.095,102.957 43.569,158.046c5.712,70.323 -1.645,142.671 -27.021,207.503c-11.84,30.25 -27.48,59.146 -51.214,82.364c-19.236,18.819 -44.733,32.627 -72.055,32.627c-38.303,0 -72.727,-28.28 -93.893,-58.729c-29.645,-42.647 -44.982,-94.149 -52.7,-146.353c-11.252,-76.114 -6.267,-155.442 18.559,-227.007c11.844,-34.142 28.262,-67.185 53.939,-93.253c19.324,-19.618 44.672,-34.392 73.565,-34.656c0.353,-0.002 0.706,-0.002 1.059,0Zm-0.896,26.666c-24.372,0.223 -46.58,16.657 -61.382,33.962c-27.1,31.68 -42.257,72.33 -51.849,113.438c-16.76,71.82 -16.17,148.143 1.724,218.962c11.187,44.274 28.553,89.04 62.895,119.404c18.441,16.305 44.052,26.253 69.532,17.332c22.176,-7.764 39.159,-25.817 52.065,-44.616c26.858,-39.123 40.54,-86.403 47.594,-134.131c10.248,-69.343 6.305,-141.229 -14.979,-207.214c-11.741,-36.401 -28.204,-72.457 -57.972,-97.727c-12.952,-10.995 -29.124,-19.141 -46.528,-19.407c-0.367,-0.003 -0.734,-0.004 -1.1,-0.003Z"/><path d="M303.369,20.454c4.379,1.814 8.223,4.928 9.429,9.428c0.3,1.121 0.302,2.301 0.454,3.451l0,533.334c-0.399,3.031 -0.217,3.948 -1.786,6.666c-3.962,6.862 -14.853,8.884 -20.976,2.762c-2.455,-2.456 -3.44,-5.9 -3.905,-9.428l0,-533.334c0.46,-3.494 1.485,-7.008 3.905,-9.428c2.456,-2.455 5.9,-3.44 9.429,-3.905c1.15,0.151 2.3,0.303 3.45,0.454Z"/></g></svg>