<?xml version="1.0" encoding="UTF-8" standalone="no"?><!DOCTYPE svg PUBLIC "-//W3C//DTD SVG 1.1//EN" "http://www.w3.org/Graphics/SVG/1.1/DTD/svg11.dtd"><svg width="100%" height="100%" viewBox="0 0 800 600" version="1.1" xmlns="http://www.w3.org/2000/svg" xmlns:xlink="http://www.w3.org/1999/xlink" xml:space="preserve" xmlns:serif="http://www.serif.com/" style="fill-rule:evenodd;clip-rule:evenodd;stroke-linejoin:round;stroke-miterlimit:2;"><rect id="Artboard1" x="0" y="0" width="800" height="600" style="fill:none;"/><g id="Artboard11" serif:id="Artboard1"><g><circle cx="400" cy="310" r="250" style="fill:#ebebeb;"/><path d="M400.848,47.501c66.236,0.315 131.557,26.389 179.657,71.976c39.693,37.62 67.285,87.772 77.448,141.673c13.275,70.407 -3.675,146.011 -46.228,203.975c-38.466,52.398 -96.88,89.75 -160.463,102.361c-66.221,13.134 -137.338,-0.375 -194.046,-37.23c-62.687,-40.742 -106.716,-108.985 -117.168,-183.579c-9.5,-67.802 8.665,-138.933 49.636,-193.704c47.333,-63.275 123.265,-103.606 204.394,-105.407c2.255,-0.05 4.509,-0.068 6.77,-0.065Zm-1.617,25c-73.56,0.35 -145.421,36.483 -189.528,95.447c-44.167,59.043 -58.618,139.299 -37.162,210.55c20.132,66.854 71.326,123.82 136.392,150.891c57.539,23.939 124.582,23.944 182.134,0c64.76,-26.944 116.088,-83.465 136.392,-150.891c17.561,-58.318 11.623,-123.571 -16.61,-177.847c-37.662,-72.403 -113.814,-123.003 -197.109,-127.76c-4.829,-0.275 -9.675,-0.397 -14.509,-0.39Z"/><path d="M400.496,47.501c13.489,0.124 26.82,3.654 38.861,9.849c26.72,13.746 46.276,38.522 60.694,64.644c24.875,45.068 36.652,96.522 40.847,148.168c5.355,65.928 -1.542,133.754 -25.333,194.534c-11.1,28.359 -25.763,55.449 -48.013,77.217c-18.034,17.642 -41.937,30.587 -67.552,30.587c-35.909,0 -68.181,-26.512 -88.024,-55.059c-27.792,-39.981 -42.171,-88.264 -49.406,-137.205c-10.55,-71.357 -5.876,-145.728 17.399,-212.82c11.103,-32.007 26.495,-62.985 50.568,-87.424c18.116,-18.392 41.88,-32.243 68.967,-32.491c0.331,-0.001 0.661,-0.001 0.992,0Zm-0.84,25c-22.848,0.209 -43.668,15.616 -57.546,31.839c-25.405,29.7 -39.615,67.81 -48.608,106.349c-15.712,67.331 -15.159,138.884 1.617,205.276c10.487,41.507 26.768,83.476 58.963,111.942c17.289,15.286 41.299,24.612 65.187,16.249c20.79,-7.279 36.711,-24.203 48.81,-41.828c25.18,-36.678 38.007,-81.003 44.62,-125.748c9.608,-65.009 5.911,-132.402 -14.043,-194.263c-11.007,-34.125 -26.441,-67.928 -54.349,-91.619c-12.142,-10.308 -27.303,-17.945 -43.619,-18.194c-0.344,-0.003 -0.688,-0.004 -1.032,-0.003Z"/><path d="M403.235,47.926c4.105,1.7 7.708,4.619 8.839,8.839c0.282,1.05 0.284,2.157 0.426,3.235l0,500c-0.374,2.842 -0.203,3.702 -1.675,6.25c-3.713,6.432 -13.924,8.329 -19.664,2.589c-2.302,-2.302 -3.225,-5.531 -3.661,-8.839l0,-500c0.431,-3.276 1.392,-6.57 3.661,-8.839c2.302,-2.302 5.531,-3.225 8.839,-3.661c1.078,0.142 2.157,0.284 3.235,0.426Z"/></g></g></svg>