<?xml version="1.0" encoding="UTF-8" standalone="no"?><!DOCTYPE svg PUBLIC "-//W3C//DTD SVG 1.1//EN" "http://www.w3.org/Graphics/SVG/1.1/DTD/svg11.dtd"><svg width="100%" height="100%" viewBox="0 0 800 600" version="1.1" xmlns="http://www.w3.org/2000/svg" xmlns:xlink="http://www.w3.org/1999/xlink" xml:space="preserve" xmlns:serif="http://www.serif.com/" style="fill-rule:evenodd;clip-rule:evenodd;stroke-linejoin:round;stroke-miterlimit:2;"><rect id="Artboard1" x="0" y="0" width="800" height="600" style="fill:none;"/><g id="Artboard11" serif:id="Artboard1"><path d="M300,100c-110.457,0 -200,89.543 -200,200c0,110.457 89.543,200 200,200l150,0l0,-100l-150,0c-55.228,0 -100,-44.772 -100,-100c0,-55.228 44.772,-100 100,-100l150,0l0,-100l-150,0Z" style="fill:#ebebeb;"/><path d="M453.338,85.376c3.201,1.12 6.318,2.674 8.389,5.272c2.091,2.621 2.891,5.96 3.273,9.352l0,100c-0.633,5.618 -3.345,11.036 -8.492,13.515c-2.718,1.309 -3.566,1.154 -6.508,1.485c-50.184,0 -100.368,-0.235 -150.552,0.002c-40.097,0.318 -78.04,31.271 -83.695,73.622c-3.617,27.09 6.721,55.665 26.91,74.126c15.478,14.153 36.297,22.216 57.349,22.25l149.988,0c5.618,0.633 11.036,3.345 13.515,8.492c1.309,2.718 1.154,3.566 1.485,6.508l0,100c-0.252,2.234 -0.518,4.499 -1.485,6.508c-1.471,3.053 -3.996,5.556 -7.007,7.007c-2.718,1.309 -3.566,1.154 -6.508,1.485c-50.231,0 -100.463,0.079 -150.694,-0.001c-54.827,-0.259 -109.468,-22.302 -149.038,-60.709c-41.055,-39.848 -65.268,-96.474 -65.268,-154.29c0,-70.506 36.954,-139.971 96.394,-179.352c34.916,-23.133 76.695,-35.582 118.594,-35.648l150.012,0c1.113,0.125 2.225,0.251 3.338,0.376Zm-153.326,29.624c-58.486,0.092 -115.889,29.311 -150.241,77.011c-34.523,47.936 -44.206,112.995 -24.315,169.468c24.992,70.95 95.934,123.395 174.556,123.521l134.988,0l0,-70c-45.124,0 -90.247,0.072 -135.371,-0.001c-49.198,-0.232 -96.003,-34.461 -110.069,-82.843c-11.641,-40.041 0.325,-86.238 31.345,-115.637c20.981,-19.884 49.687,-31.381 78.724,-31.518l0.359,-0.001l135.012,0l0,-70l-134.988,0Z"/><rect x="496.5" y="100" width="69" height="100" style="fill:#ebebeb;"/><path d="M566.26,85.019c2.466,0.188 3.142,0.431 4.45,0.915c5.227,1.936 9.146,6.971 9.713,12.548c0.068,0.673 0.06,0.843 0.077,1.518l0,100c-0.063,2.473 -0.271,3.16 -0.688,4.49c-1.743,5.556 -6.959,9.84 -12.794,10.433c-0.673,0.068 -0.843,0.06 -1.518,0.077l-69,0c-0.675,-0.017 -0.845,-0.009 -1.518,-0.077c-6.78,-0.689 -12.698,-6.452 -13.405,-13.405c-0.068,-0.673 -0.06,-0.843 -0.077,-1.518l0,-100c0.017,-0.675 0.009,-0.845 0.077,-1.518c0.689,-6.78 6.452,-12.698 13.405,-13.405c0.673,-0.068 0.843,-0.06 1.518,-0.077l69,0c0.253,0.006 0.506,0.013 0.76,0.019Zm-54.76,29.981l0,70l39,0l0,-70l-39,0Z"/><rect x="496.5" y="400" width="69" height="100" style="fill:#ebebeb;"/><path d="M566.26,385.019c0.673,0.052 0.843,0.052 1.511,0.154c6.487,0.994 11.973,6.632 12.652,13.309c0.068,0.673 0.06,0.843 0.077,1.518l0,100c-0.017,0.675 -0.009,0.845 -0.077,1.518c-0.689,6.78 -6.452,12.698 -13.405,13.405c-0.673,0.068 -0.843,0.06 -1.518,0.077l-69,0c-2.473,-0.063 -3.16,-0.271 -4.49,-0.688c-5.556,-1.743 -9.84,-6.959 -10.433,-12.794c-0.068,-0.673 -0.06,-0.843 -0.077,-1.518l0,-100c0.063,-2.473 0.271,-3.16 0.688,-4.49c1.743,-5.556 6.959,-9.84 12.794,-10.433c0.673,-0.068 0.843,-0.06 1.518,-0.077l69,0c0.253,0.006 0.506,0.013 0.76,0.019Zm-54.76,29.981l0,70l39,0l0,-70l-39,0Z"/></g></svg>