<svg width="24" height="24" viewBox="0 0 24 24" fill="none" xmlns="http://www.w3.org/2000/svg">
<path fill-rule="evenodd" clip-rule="evenodd" d="M0.314876 2.29259C-0.413784 1.38472 0.203202 0 1.33638 0H17.6275C18.7607 0 19.3777 1.38472 18.649 2.29259L16.1194 5.625V6.45274L2.86567 8.89928V5.625L0.314876 2.29259ZM2.86567 10.3162L2.61797 10.3619C2.23953 10.4318 1.88104 10.1808 1.81726 9.80128C1.75347 9.42178 2.00854 9.0575 2.38697 8.98765L2.86567 8.89928V10.3162ZM16.1194 7.86969L2.86567 10.3162V10.3993L2.38697 10.4877C2.00854 10.5575 1.75347 10.9218 1.81726 11.3013C1.88104 11.6808 2.23953 11.9318 2.61797 11.862L2.86567 11.8162V11.8993L2.38697 11.9877C2.00854 12.0575 1.75347 12.4218 1.81726 12.8013C1.88104 13.1808 2.23953 13.4318 2.61797 13.362L2.86567 13.3162V13.3993L2.38697 13.4877C2.00854 13.5575 1.75347 13.9218 1.81726 14.3013C1.88104 14.6808 2.23953 14.9318 2.61797 14.862L2.86567 14.8162V14.8993L2.38697 14.9877C2.00854 15.0575 1.75347 15.4218 1.81726 15.8013C1.88104 16.1808 2.23953 16.4318 2.61797 16.362L2.86567 16.3162V18.375L0.327918 21.7074C-0.400742 22.6153 0.216244 24 1.34942 24H17.6406C18.7738 24 19.3907 22.6153 18.6621 21.7074L16.1194 18.4186V13.8697L16.4841 13.8024C16.8625 13.7325 17.1176 13.3682 17.0538 12.9887C16.99 12.6092 16.6315 12.3582 16.2531 12.4281L16.1194 12.4528V12.3697L16.4841 12.3024C16.8625 12.2325 17.1176 11.8682 17.0538 11.4887C16.99 11.1092 16.6315 10.8582 16.2531 10.9281L16.1194 10.9528V10.8697L16.4841 10.8024C16.8625 10.7325 17.1176 10.3682 17.0538 9.98875C16.99 9.60924 16.6315 9.35822 16.2531 9.42808L16.1194 9.45276V9.3697L16.4841 9.30239C16.8625 9.23253 17.1176 8.86825 17.0538 8.48875C16.99 8.10925 16.6315 7.85823 16.2531 7.92808L16.1194 7.95276V7.86969ZM16.1194 7.86969L16.4841 7.80237C16.8625 7.73251 17.1176 7.36824 17.0538 6.98873C16.99 6.60923 16.6315 6.35821 16.2531 6.42807L16.1194 6.45274V7.86969ZM16.1194 7.95276V9.3697L2.86567 11.8162V10.3993L16.1194 7.95276ZM16.1194 9.45276V10.8697L2.86567 13.3162V12V11.8993L16.1194 9.45276ZM16.1194 10.9528L2.86567 13.3993V14.8162L16.1194 12.3697V12V10.9528ZM16.1194 12.4528V13.8697L2.86567 16.3162V14.8993L16.1194 12.4528ZM24 18.375L16.1194 15L16.1194 16.5L24 19.875V18.375Z" fill="black"/>
</svg>
