<?xml version="1.0" encoding="UTF-8" standalone="no"?><!DOCTYPE svg PUBLIC "-//W3C//DTD SVG 1.1//EN" "http://www.w3.org/Graphics/SVG/1.1/DTD/svg11.dtd"><svg width="100%" height="100%" viewBox="0 0 600 600" version="1.1" xmlns="http://www.w3.org/2000/svg" xmlns:xlink="http://www.w3.org/1999/xlink" xml:space="preserve" xmlns:serif="http://www.serif.com/" style="fill-rule:evenodd;clip-rule:evenodd;stroke-linejoin:round;stroke-miterlimit:2;"><path d="M412.715,298.171l10.169,-3.406c2.935,-0.984 6.063,-0.469 8.695,1.431c2.632,1.899 4.553,5.028 5.339,8.697c0.012,0.057 0.024,0.113 0.036,0.17c0.752,3.504 0.358,7.238 -1.093,10.38c-1.451,3.142 -3.841,5.435 -6.645,6.374l-16.501,5.526l0,112.487c0,0 70.909,88.637 100.243,125.304c2.304,2.88 2.753,6.826 1.155,10.151c-1.597,3.324 -4.959,5.438 -8.648,5.438c-74.311,0 -334.489,0 -410.125,0c-3.838,0 -7.335,-2.199 -8.997,-5.658c-1.663,-3.458 -1.195,-7.563 1.202,-10.56c29.632,-37.04 99.74,-124.675 99.74,-124.675l0,-36.982l225.43,-75.505l0,-29.172Zm0,-31.955l9.855,-3.3c2.935,-0.984 6.063,-0.469 8.695,1.431c2.632,1.899 4.552,5.027 5.339,8.697c0.012,0.056 0.024,0.113 0.036,0.169c0.751,3.505 0.358,7.239 -1.093,10.381c-1.451,3.142 -3.842,5.434 -6.645,6.373l-16.187,5.422l0,2.782l-225.43,75.504l0,29.173l-7.252,2.429c-5.944,1.991 -12.053,-2.418 -13.645,-9.847c0,-0.001 0,-0.002 -0.001,-0.003c-0.782,-3.65 -0.372,-7.54 1.139,-10.813c1.512,-3.273 4.002,-5.661 6.922,-6.639l12.837,-4.3l0,-2.781l225.43,-75.505l0,-29.173Zm0,-31.954l9.541,-3.195c2.935,-0.984 6.063,-0.469 8.695,1.43c2.632,1.9 4.552,5.028 5.339,8.698c0.012,0.056 0.024,0.113 0.036,0.169c0.751,3.505 0.358,7.239 -1.093,10.381c-1.451,3.142 -3.842,5.434 -6.645,6.373l-15.873,5.317l0,2.781l-225.43,75.505l0,29.173l-7.567,2.534c-5.943,1.991 -12.052,-2.418 -13.644,-9.847c0,-0.001 -0.001,-0.002 -0.001,-0.003c-0.782,-3.65 -0.373,-7.54 1.139,-10.813c1.512,-3.273 4.002,-5.661 6.922,-6.639l13.151,-4.405l0,-2.782l225.43,-75.504l0,-29.173Zm0,-31.954l9.226,-3.091c2.936,-0.983 6.064,-0.468 8.696,1.431c2.632,1.9 4.552,5.028 5.339,8.698c0.012,0.056 0.024,0.113 0.036,0.169c0.751,3.505 0.358,7.239 -1.093,10.381c-1.452,3.142 -3.842,5.434 -6.645,6.373l-15.559,5.211l0,2.782l-225.43,75.505l0,29.172l-7.881,2.64c-5.943,1.991 -12.052,-2.418 -13.644,-9.847c-0.001,-0.001 -0.001,-0.002 -0.001,-0.003c-0.782,-3.65 -0.373,-7.54 1.139,-10.813c1.512,-3.273 4.002,-5.661 6.922,-6.639l13.465,-4.51l0,-2.782l225.43,-75.505l0,-29.172Zm0,-31.955l8.912,-2.985c2.936,-0.983 6.064,-0.468 8.695,1.431c2.632,1.9 4.553,5.028 5.339,8.698c0.013,0.056 0.025,0.113 0.037,0.169c0.751,3.505 0.358,7.239 -1.094,10.381c-1.451,3.142 -3.841,5.434 -6.645,6.373l-15.244,5.106l0,2.782l-225.43,75.504l0,29.173l-8.195,2.745c-5.943,1.991 -12.052,-2.418 -13.644,-9.847c-0.001,-0.001 -0.001,-0.002 -0.001,-0.003c-0.783,-3.65 -0.373,-7.54 1.139,-10.813c1.512,-3.273 4.001,-5.661 6.922,-6.639l13.779,-4.616l0,-2.781l225.43,-75.505l0,-29.173Zm28.565,-151.905c16.323,-0.046 31.994,6.407 43.552,17.933c11.558,11.527 18.055,27.179 18.055,43.502c0,5.333 0,10.732 0,16.068c0,16.468 -6.542,32.261 -18.187,43.906c-11.644,11.644 -27.437,18.186 -43.905,18.186l-19.344,0c-2.317,0 -4.539,0.92 -6.178,2.559c-1.638,1.638 -2.558,3.86 -2.558,6.177l0,3.574l-225.43,75.505l0,29.173l-8.509,2.85c-5.943,1.99 -12.052,-2.418 -13.645,-9.847c0,-0.001 0,-0.002 0,-0.003c-0.783,-3.651 -0.373,-7.54 1.139,-10.813c1.511,-3.273 4.001,-5.661 6.922,-6.64l14.093,-4.72l0,-74.807c0,-6.562 -5.319,-11.881 -11.88,-11.881c-4.502,0 -9.994,0 -15.961,0c-34.424,0 -62.331,-27.906 -62.331,-62.331l0,-15.64c0,-34.156 27.639,-61.872 61.795,-61.967c76.489,-0.212 205.97,-0.572 282.372,-0.784Z"/></svg>