<?xml version="1.0" encoding="UTF-8" standalone="no"?><!DOCTYPE svg PUBLIC "-//W3C//DTD SVG 1.1//EN" "http://www.w3.org/Graphics/SVG/1.1/DTD/svg11.dtd"><svg width="100%" height="100%" viewBox="0 0 600 600" version="1.1" xmlns="http://www.w3.org/2000/svg" xmlns:xlink="http://www.w3.org/1999/xlink" xml:space="preserve" xmlns:serif="http://www.serif.com/" style="fill-rule:evenodd;clip-rule:evenodd;stroke-linecap:round;stroke-linejoin:round;stroke-miterlimit:1.5;"><path d="M580,41.747c0,-12.003 -9.744,-21.747 -21.747,-21.747l-516.506,0c-12.003,0 -21.747,9.744 -21.747,21.747l0,516.506c0,12.003 9.744,21.747 21.747,21.747l516.506,0c12.003,0 21.747,-9.744 21.747,-21.747l0,-516.506Z" style="fill:#fff;"/><path d="M558.394,20l0.14,0.002l0.14,0.002l0.14,0.003l0.14,0.004l0.14,0.005l0.139,0.006l0.139,0.006l0.139,0.008l0.138,0.008l0.138,0.009l0.139,0.01l0.137,0.011l0.138,0.012l0.137,0.013l0.138,0.013l0.136,0.015l0.137,0.015l0.136,0.016l0.137,0.017l0.135,0.018l0.136,0.018l0.135,0.02l0.135,0.02l0.135,0.021l0.135,0.022l0.134,0.022l0.134,0.024l0.134,0.024l0.133,0.025l0.133,0.026l0.133,0.027l0.132,0.028l0.133,0.028l0.131,0.029l0.132,0.03l0.131,0.031l0.131,0.032l0.131,0.032l0.131,0.033l0.13,0.034l0.129,0.035l0.13,0.035l0.129,0.037l0.129,0.037l0.128,0.037l0.128,0.039l0.128,0.039l0.128,0.04l0.127,0.041l0.127,0.042l0.126,0.042l0.126,0.044l0.126,0.043l0.125,0.045l0.125,0.045l0.125,0.047l0.124,0.046l0.124,0.048l0.124,0.048l0.123,0.05l0.123,0.049l0.123,0.051l0.122,0.051l0.122,0.052l0.121,0.053l0.121,0.053l0.12,0.054l0.121,0.055l0.12,0.056l0.119,0.056l0.119,0.057l0.119,0.057l0.118,0.059l0.118,0.059l0.117,0.06l0.117,0.06l0.117,0.061l0.116,0.062l0.116,0.062l0.115,0.063l0.115,0.064l0.114,0.065l0.114,0.065l0.114,0.066l0.113,0.066l0.113,0.067l0.112,0.068l0.112,0.069l0.112,0.069l0.111,0.07l0.11,0.07l0.11,0.071l0.11,0.072l0.109,0.072l0.109,0.073l0.108,0.074l0.108,0.074l0.107,0.075l0.107,0.075l0.106,0.077l0.106,0.076l0.105,0.078l0.105,0.078l0.105,0.078l0.104,0.079l0.103,0.08l0.103,0.081l0.103,0.081l0.102,0.081l0.101,0.083l0.101,0.082l0.1,0.084l0.1,0.084l0.1,0.084l0.099,0.086l0.098,0.085l0.098,0.087l0.097,0.087l0.097,0.087l0.096,0.088l0.096,0.089l0.095,0.089l0.095,0.09l0.094,0.09l0.094,0.091l0.093,0.091l0.093,0.092l0.092,0.093l0.091,0.093l0.091,0.094l0.09,0.094l0.09,0.095l0.089,0.095l0.089,0.096l0.088,0.096l0.087,0.097l0.087,0.097l0.087,0.098l0.085,0.098l0.086,0.099l0.084,0.1l0.084,0.1l0.084,0.1l0.082,0.101l0.083,0.101l0.081,0.102l0.081,0.103l0.081,0.103l0.08,0.103l0.079,0.104l0.078,0.105l0.078,0.105l0.078,0.105l0.076,0.106l0.077,0.106l0.075,0.107l0.075,0.107l0.074,0.108l0.074,0.108l0.073,0.109l0.072,0.109l0.072,0.11l0.071,0.11l0.07,0.11l0.07,0.111l0.069,0.112l0.069,0.112l0.068,0.112l0.067,0.113l0.066,0.113l0.066,0.114l0.065,0.114l0.065,0.114l0.064,0.115l0.063,0.115l0.062,0.116l0.062,0.116l0.061,0.117l0.06,0.117l0.06,0.117l0.059,0.118l0.059,0.118l0.057,0.119l0.057,0.119l0.056,0.119l0.056,0.12l0.055,0.121l0.054,0.12l0.053,0.121l0.053,0.121l0.052,0.122l0.051,0.122l0.051,0.123l0.049,0.123l0.05,0.123l0.048,0.124l0.048,0.124l0.046,0.124l0.047,0.125l0.045,0.125l0.045,0.125l0.043,0.126l0.044,0.126l0.042,0.126l0.042,0.127l0.041,0.127l0.04,0.128l0.039,0.128l0.039,0.128l0.037,0.128l0.037,0.129l0.037,0.129l0.035,0.13l0.035,0.129l0.034,0.13l0.033,0.131l0.032,0.131l0.032,0.131l0.031,0.131l0.03,0.132l0.029,0.131l0.028,0.133l0.028,0.132l0.027,0.133l0.026,0.133l0.025,0.133l0.024,0.134l0.024,0.134l0.022,0.134l0.022,0.135l0.021,0.135l0.02,0.135l0.02,0.135l0.018,0.136l0.018,0.135l0.017,0.137l0.016,0.136l0.015,0.137l0.015,0.136l0.013,0.138l0.013,0.137l0.012,0.138l0.011,0.137l0.01,0.139l0.009,0.138l0.008,0.138l0.008,0.139l0.006,0.139l0.006,0.139l0.005,0.14l0.004,0.14l0.003,0.14l0.002,0.14l0.002,0.14l0,0.141l0,516.506l0,0.141l-0.002,0.14l-0.002,0.14l-0.003,0.14l-0.004,0.14l-0.005,0.14l-0.006,0.139l-0.006,0.139l-0.008,0.139l-0.008,0.138l-0.009,0.138l-0.01,0.139l-0.011,0.137l-0.012,0.138l-0.013,0.137l-0.013,0.138l-0.015,0.136l-0.015,0.137l-0.016,0.136l-0.017,0.137l-0.018,0.135l-0.018,0.136l-0.02,0.135l-0.02,0.135l-0.021,0.135l-0.022,0.135l-0.022,0.134l-0.024,0.134l-0.024,0.134l-0.025,0.133l-0.026,0.133l-0.027,0.133l-0.028,0.132l-0.028,0.133l-0.029,0.131l-0.03,0.132l-0.031,0.131l-0.032,0.131l-0.032,0.131l-0.033,0.131l-0.034,0.13l-0.035,0.129l-0.035,0.13l-0.037,0.129l-0.037,0.129l-0.037,0.128l-0.039,0.128l-0.039,0.128l-0.04,0.128l-0.041,0.127l-0.042,0.127l-0.042,0.126l-0.044,0.126l-0.043,0.126l-0.045,0.125l-0.045,0.125l-0.047,0.125l-0.046,0.124l-0.048,0.124l-0.048,0.124l-0.05,0.123l-0.049,0.123l-0.051,0.123l-0.051,0.122l-0.052,0.122l-0.053,0.121l-0.053,0.121l-0.054,0.12l-0.055,0.121l-0.056,0.12l-0.056,0.119l-0.057,0.119l-0.057,0.119l-0.059,0.118l-0.059,0.118l-0.06,0.117l-0.06,0.117l-0.061,0.117l-0.062,0.116l-0.062,0.116l-0.063,0.115l-0.064,0.115l-0.065,0.114l-0.065,0.114l-0.066,0.114l-0.066,0.113l-0.067,0.113l-0.068,0.112l-0.069,0.112l-0.069,0.112l-0.07,0.111l-0.07,0.11l-0.071,0.11l-0.072,0.11l-0.072,0.109l-0.073,0.109l-0.074,0.108l-0.074,0.108l-0.075,0.107l-0.075,0.107l-0.077,0.106l-0.076,0.106l-0.078,0.105l-0.078,0.105l-0.078,0.105l-0.079,0.104l-0.08,0.103l-0.081,0.103l-0.081,0.103l-0.081,0.102l-0.083,0.101l-0.082,0.101l-0.084,0.1l-0.084,0.1l-0.084,0.1l-0.086,0.099l-0.085,0.098l-0.087,0.098l-0.087,0.097l-0.087,0.097l-0.088,0.096l-0.089,0.096l-0.089,0.095l-0.09,0.095l-0.09,0.094l-0.091,0.094l-0.091,0.093l-0.092,0.093l-0.093,0.092l-0.093,0.091l-0.094,0.091l-0.094,0.09l-0.095,0.09l-0.095,0.089l-0.096,0.089l-0.096,0.088l-0.097,0.087l-0.097,0.087l-0.098,0.087l-0.098,0.085l-0.099,0.086l-0.1,0.084l-0.1,0.084l-0.1,0.084l-0.101,0.082l-0.101,0.083l-0.102,0.081l-0.103,0.081l-0.103,0.081l-0.103,0.08l-0.104,0.079l-0.105,0.078l-0.105,0.078l-0.105,0.078l-0.106,0.076l-0.106,0.077l-0.107,0.075l-0.107,0.075l-0.108,0.074l-0.108,0.074l-0.109,0.073l-0.109,0.072l-0.11,0.072l-0.11,0.071l-0.11,0.07l-0.111,0.07l-0.112,0.069l-0.112,0.069l-0.112,0.068l-0.113,0.067l-0.113,0.066l-0.114,0.066l-0.114,0.065l-0.114,0.065l-0.115,0.064l-0.115,0.063l-0.116,0.062l-0.116,0.062l-0.117,0.061l-0.117,0.06l-0.117,0.06l-0.118,0.059l-0.118,0.059l-0.119,0.057l-0.119,0.057l-0.119,0.056l-0.12,0.056l-0.121,0.055l-0.12,0.054l-0.121,0.053l-0.121,0.053l-0.122,0.052l-0.122,0.051l-0.123,0.051l-0.123,0.049l-0.123,0.05l-0.124,0.048l-0.124,0.048l-0.124,0.046l-0.125,0.047l-0.125,0.045l-0.125,0.045l-0.126,0.043l-0.126,0.044l-0.126,0.042l-0.127,0.042l-0.127,0.041l-0.128,0.04l-0.128,0.039l-0.128,0.039l-0.128,0.037l-0.129,0.037l-0.129,0.037l-0.13,0.035l-0.129,0.035l-0.13,0.034l-0.131,0.033l-0.131,0.032l-0.131,0.032l-0.131,0.031l-0.132,0.03l-0.131,0.029l-0.133,0.028l-0.132,0.028l-0.133,0.027l-0.133,0.026l-0.133,0.025l-0.134,0.024l-0.134,0.024l-0.134,0.022l-0.135,0.022l-0.135,0.021l-0.135,0.02l-0.135,0.02l-0.136,0.018l-0.135,0.018l-0.137,0.017l-0.136,0.016l-0.137,0.015l-0.136,0.015l-0.138,0.013l-0.137,0.013l-0.138,0.012l-0.137,0.011l-0.139,0.01l-0.138,0.009l-0.138,0.008l-0.139,0.008l-0.139,0.006l-0.139,0.006l-0.14,0.005l-0.14,0.004l-0.14,0.003l-0.14,0.002l-0.14,0.002l-0.141,0l-516.506,0l-0.141,0l-0.14,-0.002l-0.14,-0.002l-0.14,-0.003l-0.14,-0.004l-0.14,-0.005l-0.139,-0.006l-0.139,-0.006l-0.139,-0.008l-0.138,-0.008l-0.138,-0.009l-0.139,-0.01l-0.137,-0.011l-0.138,-0.012l-0.137,-0.013l-0.138,-0.013l-0.136,-0.015l-0.137,-0.015l-0.136,-0.016l-0.137,-0.017l-0.135,-0.018l-0.136,-0.018l-0.135,-0.02l-0.135,-0.02l-0.135,-0.021l-0.135,-0.022l-0.134,-0.022l-0.134,-0.024l-0.134,-0.024l-0.133,-0.025l-0.133,-0.026l-0.133,-0.027l-0.132,-0.028l-0.133,-0.028l-0.131,-0.029l-0.132,-0.03l-0.131,-0.031l-0.131,-0.032l-0.131,-0.032l-0.131,-0.033l-0.13,-0.034l-0.129,-0.035l-0.13,-0.035l-0.129,-0.037l-0.129,-0.037l-0.128,-0.037l-0.128,-0.039l-0.128,-0.039l-0.128,-0.04l-0.127,-0.041l-0.127,-0.042l-0.126,-0.042l-0.126,-0.044l-0.126,-0.043l-0.125,-0.045l-0.125,-0.045l-0.125,-0.047l-0.124,-0.046l-0.124,-0.048l-0.124,-0.048l-0.123,-0.05l-0.123,-0.049l-0.123,-0.051l-0.122,-0.051l-0.122,-0.052l-0.121,-0.053l-0.121,-0.053l-0.12,-0.054l-0.121,-0.055l-0.12,-0.056l-0.119,-0.056l-0.119,-0.057l-0.119,-0.057l-0.118,-0.059l-0.118,-0.059l-0.117,-0.06l-0.117,-0.06l-0.117,-0.061l-0.116,-0.062l-0.116,-0.062l-0.115,-0.063l-0.115,-0.064l-0.114,-0.065l-0.114,-0.065l-0.114,-0.066l-0.113,-0.066l-0.113,-0.067l-0.112,-0.068l-0.112,-0.069l-0.112,-0.069l-0.111,-0.07l-0.11,-0.07l-0.11,-0.071l-0.11,-0.072l-0.109,-0.072l-0.109,-0.073l-0.108,-0.074l-0.108,-0.074l-0.107,-0.075l-0.107,-0.075l-0.106,-0.077l-0.106,-0.076l-0.105,-0.078l-0.105,-0.078l-0.105,-0.078l-0.104,-0.079l-0.103,-0.08l-0.103,-0.081l-0.103,-0.081l-0.102,-0.081l-0.101,-0.083l-0.101,-0.082l-0.1,-0.084l-0.1,-0.084l-0.1,-0.084l-0.099,-0.086l-0.098,-0.085l-0.098,-0.087l-0.097,-0.087l-0.097,-0.087l-0.096,-0.088l-0.096,-0.089l-0.095,-0.089l-0.095,-0.09l-0.094,-0.09l-0.094,-0.091l-0.093,-0.091l-0.093,-0.092l-0.092,-0.093l-0.091,-0.093l-0.091,-0.094l-0.09,-0.094l-0.09,-0.095l-0.089,-0.095l-0.089,-0.096l-0.088,-0.096l-0.087,-0.097l-0.087,-0.097l-0.087,-0.098l-0.085,-0.098l-0.086,-0.099l-0.084,-0.1l-0.084,-0.1l-0.084,-0.1l-0.082,-0.101l-0.083,-0.101l-0.081,-0.102l-0.081,-0.103l-0.081,-0.103l-0.08,-0.103l-0.079,-0.104l-0.078,-0.105l-0.078,-0.105l-0.078,-0.105l-0.076,-0.106l-0.077,-0.106l-0.075,-0.107l-0.075,-0.107l-0.074,-0.108l-0.074,-0.108l-0.073,-0.109l-0.072,-0.109l-0.072,-0.11l-0.071,-0.11l-0.07,-0.11l-0.07,-0.111l-0.069,-0.112l-0.069,-0.112l-0.068,-0.112l-0.067,-0.113l-0.066,-0.113l-0.066,-0.114l-0.065,-0.114l-0.065,-0.114l-0.064,-0.115l-0.063,-0.115l-0.062,-0.116l-0.062,-0.116l-0.061,-0.117l-0.06,-0.117l-0.06,-0.117l-0.059,-0.118l-0.059,-0.118l-0.057,-0.119l-0.057,-0.119l-0.056,-0.119l-0.056,-0.12l-0.055,-0.121l-0.054,-0.12l-0.053,-0.121l-0.053,-0.121l-0.052,-0.122l-0.051,-0.122l-0.051,-0.123l-0.049,-0.123l-0.05,-0.123l-0.048,-0.124l-0.048,-0.124l-0.046,-0.124l-0.047,-0.125l-0.045,-0.125l-0.045,-0.125l-0.043,-0.126l-0.044,-0.126l-0.042,-0.126l-0.042,-0.127l-0.041,-0.127l-0.04,-0.128l-0.039,-0.128l-0.039,-0.128l-0.037,-0.128l-0.037,-0.129l-0.037,-0.129l-0.035,-0.13l-0.035,-0.129l-0.034,-0.13l-0.033,-0.131l-0.032,-0.131l-0.032,-0.131l-0.031,-0.131l-0.03,-0.132l-0.029,-0.131l-0.028,-0.133l-0.028,-0.132l-0.027,-0.133l-0.026,-0.133l-0.025,-0.133l-0.024,-0.134l-0.024,-0.134l-0.022,-0.134l-0.022,-0.135l-0.021,-0.135l-0.02,-0.135l-0.02,-0.135l-0.018,-0.136l-0.018,-0.135l-0.017,-0.137l-0.016,-0.136l-0.015,-0.137l-0.015,-0.136l-0.013,-0.138l-0.013,-0.137l-0.012,-0.138l-0.011,-0.137l-0.01,-0.139l-0.009,-0.138l-0.008,-0.138l-0.008,-0.139l-0.006,-0.139l-0.006,-0.139l-0.005,-0.14l-0.004,-0.14l-0.003,-0.14l-0.002,-0.14l-0.002,-0.14l0,-0.141l0,-516.506l0,-0.141l0.002,-0.14l0.002,-0.14l0.003,-0.14l0.004,-0.14l0.005,-0.14l0.006,-0.139l0.006,-0.139l0.008,-0.139l0.008,-0.138l0.009,-0.138l0.01,-0.139l0.011,-0.137l0.012,-0.138l0.013,-0.137l0.013,-0.138l0.015,-0.136l0.015,-0.137l0.016,-0.136l0.017,-0.137l0.018,-0.135l0.018,-0.136l0.02,-0.135l0.02,-0.135l0.021,-0.135l0.022,-0.135l0.022,-0.134l0.024,-0.134l0.024,-0.134l0.025,-0.133l0.026,-0.133l0.027,-0.133l0.028,-0.132l0.028,-0.133l0.029,-0.131l0.03,-0.132l0.031,-0.131l0.032,-0.131l0.032,-0.131l0.033,-0.131l0.034,-0.13l0.035,-0.129l0.035,-0.13l0.037,-0.129l0.037,-0.129l0.037,-0.128l0.039,-0.128l0.039,-0.128l0.04,-0.128l0.041,-0.127l0.042,-0.127l0.042,-0.126l0.044,-0.126l0.043,-0.126l0.045,-0.125l0.045,-0.125l0.047,-0.125l0.046,-0.124l0.048,-0.124l0.048,-0.124l0.05,-0.123l0.049,-0.123l0.051,-0.123l0.051,-0.122l0.052,-0.122l0.053,-0.121l0.053,-0.121l0.054,-0.12l0.055,-0.121l0.056,-0.12l0.056,-0.119l0.057,-0.119l0.057,-0.119l0.059,-0.118l0.059,-0.118l0.06,-0.117l0.06,-0.117l0.061,-0.117l0.062,-0.116l0.062,-0.116l0.063,-0.115l0.064,-0.115l0.065,-0.114l0.065,-0.114l0.066,-0.114l0.066,-0.113l0.067,-0.113l0.068,-0.112l0.069,-0.112l0.069,-0.112l0.07,-0.111l0.07,-0.11l0.071,-0.11l0.072,-0.11l0.072,-0.109l0.073,-0.109l0.074,-0.108l0.074,-0.108l0.075,-0.107l0.075,-0.107l0.077,-0.106l0.076,-0.106l0.078,-0.105l0.078,-0.105l0.078,-0.105l0.079,-0.104l0.08,-0.103l0.081,-0.103l0.081,-0.103l0.081,-0.102l0.083,-0.101l0.082,-0.101l0.084,-0.1l0.084,-0.1l0.084,-0.1l0.086,-0.099l0.085,-0.098l0.087,-0.098l0.087,-0.097l0.087,-0.097l0.088,-0.096l0.089,-0.096l0.089,-0.095l0.09,-0.095l0.09,-0.094l0.091,-0.094l0.091,-0.093l0.092,-0.093l0.093,-0.092l0.093,-0.091l0.094,-0.091l0.094,-0.09l0.095,-0.09l0.095,-0.089l0.096,-0.089l0.096,-0.088l0.097,-0.087l0.097,-0.087l0.098,-0.087l0.098,-0.085l0.099,-0.086l0.1,-0.084l0.1,-0.084l0.1,-0.084l0.101,-0.082l0.101,-0.083l0.102,-0.081l0.103,-0.081l0.103,-0.081l0.103,-0.08l0.104,-0.079l0.105,-0.078l0.105,-0.078l0.105,-0.078l0.106,-0.076l0.106,-0.077l0.107,-0.075l0.107,-0.075l0.108,-0.074l0.108,-0.074l0.109,-0.073l0.109,-0.072l0.11,-0.072l0.11,-0.071l0.11,-0.07l0.111,-0.07l0.112,-0.069l0.112,-0.069l0.112,-0.068l0.113,-0.067l0.113,-0.066l0.114,-0.066l0.114,-0.065l0.114,-0.065l0.115,-0.064l0.115,-0.063l0.116,-0.062l0.116,-0.062l0.117,-0.061l0.117,-0.06l0.117,-0.06l0.118,-0.059l0.118,-0.059l0.119,-0.057l0.119,-0.057l0.119,-0.056l0.12,-0.056l0.121,-0.055l0.12,-0.054l0.121,-0.053l0.121,-0.053l0.122,-0.052l0.122,-0.051l0.123,-0.051l0.123,-0.049l0.123,-0.05l0.124,-0.048l0.124,-0.048l0.124,-0.046l0.125,-0.047l0.125,-0.045l0.125,-0.045l0.126,-0.043l0.126,-0.044l0.126,-0.042l0.127,-0.042l0.127,-0.041l0.128,-0.04l0.128,-0.039l0.128,-0.039l0.128,-0.037l0.129,-0.037l0.129,-0.037l0.13,-0.035l0.129,-0.035l0.13,-0.034l0.131,-0.033l0.131,-0.032l0.131,-0.032l0.131,-0.031l0.132,-0.03l0.131,-0.029l0.133,-0.028l0.132,-0.028l0.133,-0.027l0.133,-0.026l0.133,-0.025l0.134,-0.024l0.134,-0.024l0.134,-0.022l0.135,-0.022l0.135,-0.021l0.135,-0.02l0.135,-0.02l0.136,-0.018l0.135,-0.018l0.137,-0.017l0.136,-0.016l0.137,-0.015l0.136,-0.015l0.138,-0.013l0.137,-0.013l0.138,-0.012l0.137,-0.011l0.139,-0.01l0.138,-0.009l0.138,-0.008l0.139,-0.008l0.139,-0.006l0.139,-0.006l0.14,-0.005l0.14,-0.004l0.14,-0.003l0.14,-0.002l0.14,-0.002l0.141,0l516.506,0l0.141,0Zm-508.394,30l0,500l500,0l0,-500l-500,0Z"/><path d="M80,80l170,170" style="fill:none;stroke:#000;stroke-width:30px;"/><path d="M250,80l-170,160" style="fill:none;stroke:#000;stroke-width:30px;"/><path d="M180,160c0,0 59.464,6.745 85.948,19.412c27.058,12.941 74.977,30.483 76.398,58.235c1.422,27.752 -65.163,74.792 -67.871,108.274c-2.707,33.483 24.273,70.17 51.625,92.622c29.254,24.013 123.9,51.457 123.9,51.457" style="fill:none;stroke:#000;stroke-width:30px;stroke-dasharray:60,60,60,0;"/><path d="M460.46,216.336l0.459,0.004l0.459,0.007l0.458,0.01l0.458,0.013l0.456,0.015l0.456,0.018l0.456,0.021l0.454,0.024l0.454,0.027l0.453,0.029l0.452,0.032l0.452,0.034l0.451,0.038l0.45,0.04l0.449,0.042l0.449,0.046l0.447,0.048l0.447,0.051l0.446,0.053l0.445,0.056l0.444,0.059l0.444,0.062l0.443,0.064l0.441,0.066l0.441,0.07l0.44,0.072l0.439,0.074l0.438,0.077l0.437,0.08l0.437,0.082l0.435,0.085l0.435,0.087l0.433,0.09l0.433,0.093l0.431,0.095l0.431,0.097l0.429,0.1l0.429,0.103l0.427,0.105l0.427,0.108l0.425,0.11l0.425,0.112l0.423,0.115l0.422,0.117l0.422,0.12l0.42,0.123l0.419,0.124l0.418,0.127l0.417,0.13l0.416,0.132l0.414,0.134l0.414,0.137l0.412,0.139l0.412,0.142l0.41,0.144l0.409,0.146l0.407,0.148l0.407,0.151l0.406,0.154l0.404,0.155l0.403,0.158l0.402,0.16l0.4,0.163l0.399,0.164l0.398,0.167l0.397,0.17l0.396,0.171l0.394,0.174l0.393,0.176l0.392,0.178l0.39,0.181l0.389,0.183l0.388,0.185l0.387,0.187l0.385,0.189l0.384,0.192l0.382,0.193l0.381,0.196l0.38,0.198l0.378,0.2l0.377,0.203l0.376,0.204l0.374,0.207l0.373,0.209l0.371,0.21l0.37,0.213l0.368,0.215l0.367,0.217l0.366,0.22l0.364,0.221l0.363,0.223l0.361,0.225l0.36,0.228l0.358,0.229l0.356,0.232l0.355,0.233l0.354,0.236l0.352,0.237l0.351,0.24l0.349,0.241l0.347,0.244l0.346,0.245l0.344,0.247l0.343,0.25l0.341,0.251l0.34,0.253l0.337,0.255l0.337,0.257l0.334,0.259l0.333,0.261l0.332,0.263l0.329,0.264l0.328,0.267l0.327,0.268l0.324,0.271l0.324,0.272l0.321,0.274l0.319,0.275l0.318,0.278l0.316,0.279l0.315,0.282l0.313,0.283l0.31,0.284l0.31,0.287l0.307,0.288l0.305,0.29l0.304,0.292l0.302,0.294l0.301,0.295l0.298,0.298l0.297,0.299l0.294,0.3l0.293,0.302l0.291,0.304l0.29,0.306l0.287,0.307l0.285,0.309l0.284,0.311l0.282,0.313l0.28,0.314l0.278,0.315l0.276,0.318l0.274,0.319l0.272,0.32l0.27,0.322l0.268,0.324l0.266,0.326l0.265,0.327l0.262,0.328l0.26,0.33l0.259,0.332l0.256,0.333l0.254,0.335l0.253,0.336l0.25,0.338l0.248,0.34l0.246,0.341l0.244,0.342l0.242,0.344l0.24,0.345l0.238,0.347l0.236,0.348l0.234,0.35l0.231,0.352l0.23,0.352l0.227,0.355l0.225,0.355l0.223,0.357l0.221,0.358l0.219,0.36l0.216,0.362l0.215,0.362l0.212,0.364l0.21,0.366l0.207,0.366l0.206,0.368l0.203,0.37l0.201,0.371l0.199,0.372l0.197,0.373l0.194,0.375l0.192,0.376l0.189,0.377l0.188,0.379l0.185,0.38l0.183,0.381l0.18,0.382l0.178,0.384l0.176,0.385l0.174,0.386l0.171,0.387l0.168,0.389l0.167,0.39l0.164,0.391l0.161,0.392l0.16,0.393l0.156,0.395l0.155,0.396l0.152,0.396l0.149,0.398l0.147,0.4l0.145,0.4l0.142,0.401l0.139,0.403l0.137,0.404l0.135,0.404l0.132,0.406l0.13,0.407l0.127,0.408l0.125,0.409l0.122,0.41l0.119,0.411l0.117,0.412l0.114,0.413l0.112,0.415l0.109,0.415l0.107,0.416l0.104,0.417l0.101,0.418l0.099,0.419l0.096,0.42l0.094,0.421l0.091,0.422l0.088,0.423l0.085,0.424l0.083,0.424l0.08,0.426l0.078,0.427l0.075,0.427l0.072,0.428l0.069,0.429l0.067,0.43l0.064,0.431l0.061,0.432l0.058,0.432l0.056,0.433l0.053,0.435l0.05,0.434l0.047,0.436l0.044,0.437l0.042,0.437l0.039,0.438l0.036,0.439l0.033,0.439l0.031,0.44l0.027,0.441l0.025,0.442l0.021,0.442l0.019,0.443l0.016,0.444l0.014,0.445l0.01,0.444l0.007,0.446l0.004,0.447l0.002,0.445l-0.001,0.361l-0.002,0.361l-0.004,0.362l-0.006,0.364l-0.007,0.366l-0.009,0.367l-0.01,0.368l-0.012,0.37l-0.014,0.372l-0.015,0.373l-0.016,0.374l-0.018,0.376l-0.02,0.378l-0.021,0.379l-0.023,0.38l-0.024,0.382l-0.026,0.383l-0.027,0.385l-0.028,0.386l-0.03,0.388l-0.032,0.389l-0.033,0.39l-0.034,0.392l-0.036,0.393l-0.037,0.395l-0.039,0.396l-0.04,0.397l-0.042,0.399l-0.043,0.4l-0.044,0.402l-0.046,0.402l-0.047,0.405l-0.048,0.405l-0.05,0.407l-0.051,0.408l-0.053,0.41l-0.054,0.411l-0.055,0.412l-0.056,0.413l-0.058,0.415l-0.059,0.416l-0.061,0.417l-0.062,0.419l-0.063,0.419l-0.064,0.421l-0.066,0.423l-0.067,0.423l-0.068,0.425l-0.069,0.426l-0.071,0.427l-0.072,0.428l-0.073,0.43l-0.075,0.431l-0.075,0.431l-0.077,0.433l-0.079,0.435l-0.079,0.435l-0.08,0.437l-0.082,0.437l-0.083,0.439l-0.084,0.44l-0.086,0.441l-0.086,0.442l-0.088,0.443l-0.089,0.445l-0.09,0.445l-0.091,0.447l-0.092,0.447l-0.093,0.449l-0.095,0.449l-0.096,0.451l-0.096,0.452l-0.098,0.452l-0.099,0.454l-0.1,0.455l-0.102,0.456l-0.102,0.456l-0.103,0.458l-0.105,0.459l-0.105,0.459l-0.107,0.461l-0.107,0.462l-0.109,0.462l-0.11,0.463l-0.111,0.465l-0.111,0.465l-0.113,0.466l-0.114,0.467l-0.115,0.468l-0.116,0.47l-0.234,0.939l-0.239,0.943l-0.243,0.947l-0.246,0.95l-0.25,0.953l-0.254,0.956l-0.258,0.96l-0.261,0.962l-0.265,0.965l-0.269,0.968l-0.272,0.971l-0.275,0.973l-0.279,0.976l-0.282,0.979l-0.286,0.981l-0.289,0.983l-0.292,0.986l-0.295,0.988l-0.299,0.99l-0.301,0.992l-0.305,0.995l-0.307,0.996l-0.31,0.998l-0.314,1l-0.316,1.001l-0.319,1.004l-0.321,1.004l-0.325,1.007l-0.327,1.007l-0.329,1.009l-0.333,1.011l-0.334,1.011l-0.337,1.013l-0.34,1.014l-0.342,1.015l-0.344,1.015l-0.346,1.017l-0.349,1.017l-0.351,1.018l-0.352,1.019l-0.355,1.019l-0.357,1.019l-0.359,1.02l-0.361,1.02l-0.363,1.021l-0.364,1.02l-0.367,1.021l-0.368,1.021l-0.37,1.021l-0.371,1.02l-0.373,1.02l-0.374,1.02l-0.376,1.02l-0.378,1.019l-0.378,1.019l-0.381,1.018l-0.381,1.018l-0.383,1.016l-0.384,1.016l-0.385,1.015l-0.386,1.014l-0.387,1.013l-0.388,1.012l-0.389,1.011l-0.39,1.009l-0.391,1.008l-0.392,1.007l-0.392,1.005l-0.393,1.004l-0.394,1.002l-0.394,1l-0.395,0.998l-0.396,0.997l-0.396,0.995l-0.396,0.992l-0.397,0.99l-0.397,0.989l-0.398,0.986l-0.397,0.984l-0.398,0.981l-0.398,0.979l-0.398,0.976l-0.398,0.974l-0.398,0.97l-0.398,0.969l-0.398,0.965l-0.398,0.962l-0.397,0.959l-0.398,0.957l-0.397,0.953l-0.396,0.95l-0.396,0.946l-0.396,0.943l-0.396,0.94l-0.394,0.936l-0.394,0.932l-0.394,0.929l-0.393,0.925l-0.392,0.921l-0.391,0.918l-0.391,0.913l-0.389,0.909l-0.389,0.905l-0.388,0.901l-0.386,0.897l-0.77,1.779l-0.766,1.762l-0.76,1.742l-0.755,1.724l-0.749,1.703l-0.742,1.683l-0.737,1.662l-0.729,1.64l-0.721,1.618l-0.714,1.594l-0.706,1.571l-0.697,1.547l-0.689,1.522l-0.679,1.496l-0.669,1.47l-0.659,1.444l-0.649,1.416l-0.638,1.389l-0.626,1.36l-0.615,1.331l-0.603,1.301l-0.59,1.27l-0.578,1.24l-0.564,1.208l-0.551,1.176l-0.537,1.144l-0.523,1.11l-0.508,1.076l-0.492,1.041l-0.477,1.006l-0.462,0.97l-0.445,0.934l-0.428,0.897l-0.411,0.859l-0.394,0.821l-0.733,1.523l-0.66,1.364l-0.581,1.198l-0.501,1.028l-0.417,0.853l-0.331,0.673l-0.24,0.488l-3.481,7.034l-3.481,-7.034l-0.24,-0.488l-0.331,-0.673l-0.417,-0.853l-0.501,-1.028l-0.581,-1.198l-0.66,-1.364l-0.733,-1.523l-0.394,-0.821l-0.411,-0.859l-0.428,-0.897l-0.445,-0.934l-0.462,-0.97l-0.477,-1.006l-0.492,-1.041l-0.508,-1.076l-0.523,-1.11l-0.537,-1.143l-0.551,-1.177l-0.564,-1.208l-0.578,-1.24l-0.59,-1.27l-0.603,-1.301l-0.615,-1.331l-0.626,-1.36l-0.638,-1.389l-0.649,-1.416l-0.659,-1.444l-0.669,-1.47l-0.679,-1.496l-0.689,-1.522l-0.697,-1.547l-0.706,-1.571l-0.714,-1.594l-0.721,-1.618l-0.729,-1.64l-0.737,-1.662l-0.742,-1.683l-0.749,-1.703l-0.755,-1.724l-0.76,-1.742l-0.766,-1.762l-0.77,-1.779l-0.386,-0.897l-0.388,-0.901l-0.389,-0.905l-0.389,-0.909l-0.391,-0.913l-0.391,-0.918l-0.392,-0.921l-0.393,-0.925l-0.394,-0.929l-0.394,-0.932l-0.394,-0.936l-0.396,-0.94l-0.396,-0.943l-0.396,-0.946l-0.396,-0.95l-0.397,-0.953l-0.398,-0.956l-0.397,-0.96l-0.398,-0.962l-0.398,-0.965l-0.398,-0.969l-0.398,-0.97l-0.398,-0.974l-0.398,-0.976l-0.398,-0.979l-0.398,-0.981l-0.397,-0.984l-0.398,-0.986l-0.397,-0.988l-0.397,-0.991l-0.396,-0.992l-0.396,-0.995l-0.396,-0.997l-0.395,-0.998l-0.394,-1l-0.394,-1.002l-0.393,-1.004l-0.392,-1.005l-0.392,-1.007l-0.391,-1.008l-0.39,-1.009l-0.389,-1.011l-0.388,-1.012l-0.387,-1.013l-0.386,-1.014l-0.385,-1.015l-0.384,-1.016l-0.383,-1.016l-0.381,-1.018l-0.381,-1.018l-0.378,-1.019l-0.378,-1.019l-0.376,-1.019l-0.374,-1.021l-0.373,-1.02l-0.371,-1.02l-0.37,-1.021l-0.368,-1.021l-0.367,-1.021l-0.364,-1.02l-0.363,-1.021l-0.361,-1.02l-0.359,-1.02l-0.357,-1.019l-0.355,-1.019l-0.352,-1.019l-0.351,-1.018l-0.349,-1.017l-0.346,-1.017l-0.344,-1.015l-0.342,-1.015l-0.34,-1.014l-0.337,-1.013l-0.334,-1.011l-0.333,-1.011l-0.329,-1.009l-0.327,-1.007l-0.325,-1.007l-0.321,-1.004l-0.319,-1.004l-0.316,-1.001l-0.314,-1l-0.31,-0.998l-0.307,-0.996l-0.305,-0.995l-0.301,-0.992l-0.299,-0.99l-0.295,-0.988l-0.292,-0.986l-0.289,-0.983l-0.286,-0.981l-0.282,-0.979l-0.279,-0.976l-0.275,-0.973l-0.272,-0.971l-0.269,-0.968l-0.265,-0.965l-0.261,-0.962l-0.258,-0.96l-0.254,-0.956l-0.25,-0.953l-0.246,-0.95l-0.243,-0.947l-0.239,-0.943l-0.234,-0.939l-0.116,-0.47l-0.115,-0.468l-0.114,-0.467l-0.113,-0.466l-0.112,-0.466l-0.11,-0.464l-0.11,-0.463l-0.109,-0.463l-0.107,-0.461l-0.107,-0.461l-0.105,-0.459l-0.105,-0.459l-0.103,-0.458l-0.102,-0.456l-0.102,-0.456l-0.1,-0.455l-0.099,-0.454l-0.098,-0.452l-0.096,-0.452l-0.096,-0.451l-0.095,-0.449l-0.093,-0.449l-0.092,-0.447l-0.091,-0.447l-0.09,-0.445l-0.089,-0.445l-0.088,-0.443l-0.086,-0.442l-0.086,-0.441l-0.084,-0.44l-0.083,-0.439l-0.082,-0.437l-0.08,-0.437l-0.079,-0.435l-0.079,-0.434l-0.077,-0.434l-0.075,-0.432l-0.075,-0.43l-0.073,-0.43l-0.072,-0.428l-0.071,-0.427l-0.069,-0.426l-0.068,-0.425l-0.067,-0.423l-0.066,-0.423l-0.064,-0.421l-0.063,-0.419l-0.062,-0.419l-0.061,-0.417l-0.059,-0.416l-0.058,-0.415l-0.056,-0.413l-0.055,-0.412l-0.054,-0.411l-0.053,-0.41l-0.051,-0.408l-0.05,-0.407l-0.048,-0.405l-0.047,-0.404l-0.046,-0.403l-0.044,-0.402l-0.043,-0.4l-0.042,-0.399l-0.04,-0.397l-0.039,-0.396l-0.037,-0.395l-0.036,-0.393l-0.034,-0.392l-0.033,-0.39l-0.032,-0.389l-0.03,-0.388l-0.028,-0.386l-0.027,-0.385l-0.026,-0.383l-0.024,-0.382l-0.023,-0.38l-0.021,-0.379l-0.019,-0.378l-0.019,-0.376l-0.016,-0.374l-0.015,-0.373l-0.014,-0.372l-0.012,-0.37l-0.01,-0.368l-0.009,-0.367l-0.007,-0.366l-0.006,-0.364l-0.004,-0.362l-0.002,-0.361l-0.001,-0.361l0.002,-0.445l0.004,-0.447l0.007,-0.445l0.01,-0.446l0.014,-0.444l0.016,-0.444l0.019,-0.443l0.021,-0.442l0.025,-0.442l0.027,-0.441l0.031,-0.44l0.033,-0.439l0.036,-0.439l0.039,-0.438l0.042,-0.437l0.044,-0.437l0.047,-0.436l0.05,-0.434l0.053,-0.435l0.056,-0.433l0.058,-0.432l0.061,-0.432l0.064,-0.431l0.067,-0.43l0.069,-0.429l0.072,-0.428l0.075,-0.427l0.078,-0.427l0.08,-0.426l0.083,-0.424l0.085,-0.424l0.088,-0.423l0.091,-0.422l0.094,-0.421l0.096,-0.42l0.099,-0.419l0.101,-0.418l0.104,-0.417l0.107,-0.416l0.109,-0.416l0.112,-0.414l0.114,-0.413l0.117,-0.412l0.119,-0.411l0.122,-0.41l0.125,-0.409l0.127,-0.408l0.13,-0.407l0.132,-0.406l0.134,-0.404l0.138,-0.404l0.139,-0.403l0.142,-0.401l0.145,-0.4l0.147,-0.399l0.149,-0.398l0.152,-0.397l0.155,-0.396l0.156,-0.395l0.16,-0.393l0.161,-0.392l0.164,-0.391l0.167,-0.39l0.168,-0.389l0.171,-0.387l0.174,-0.386l0.176,-0.385l0.178,-0.384l0.18,-0.382l0.183,-0.381l0.185,-0.38l0.187,-0.379l0.19,-0.377l0.192,-0.376l0.194,-0.375l0.197,-0.373l0.199,-0.372l0.201,-0.371l0.203,-0.37l0.206,-0.368l0.207,-0.366l0.21,-0.366l0.212,-0.364l0.215,-0.362l0.216,-0.362l0.219,-0.36l0.221,-0.358l0.223,-0.357l0.225,-0.356l0.227,-0.354l0.23,-0.352l0.231,-0.352l0.234,-0.349l0.236,-0.349l0.238,-0.347l0.24,-0.345l0.242,-0.344l0.244,-0.342l0.246,-0.341l0.248,-0.34l0.25,-0.337l0.253,-0.337l0.254,-0.335l0.256,-0.333l0.259,-0.332l0.26,-0.33l0.262,-0.328l0.265,-0.327l0.266,-0.326l0.268,-0.324l0.27,-0.322l0.272,-0.32l0.274,-0.319l0.276,-0.318l0.278,-0.315l0.28,-0.314l0.282,-0.313l0.284,-0.311l0.285,-0.309l0.287,-0.307l0.29,-0.306l0.291,-0.304l0.293,-0.302l0.294,-0.301l0.297,-0.298l0.298,-0.298l0.301,-0.295l0.302,-0.294l0.303,-0.292l0.306,-0.29l0.307,-0.288l0.31,-0.287l0.311,-0.284l0.312,-0.284l0.315,-0.281l0.316,-0.279l0.318,-0.278l0.319,-0.276l0.322,-0.273l0.322,-0.272l0.325,-0.271l0.327,-0.268l0.328,-0.267l0.329,-0.264l0.332,-0.263l0.333,-0.261l0.334,-0.259l0.337,-0.257l0.337,-0.255l0.34,-0.253l0.341,-0.251l0.343,-0.25l0.344,-0.247l0.346,-0.245l0.347,-0.244l0.349,-0.241l0.351,-0.24l0.352,-0.237l0.353,-0.236l0.356,-0.233l0.356,-0.232l0.358,-0.229l0.36,-0.228l0.361,-0.225l0.363,-0.223l0.364,-0.221l0.366,-0.22l0.367,-0.217l0.368,-0.215l0.37,-0.213l0.371,-0.21l0.373,-0.209l0.374,-0.207l0.376,-0.204l0.377,-0.203l0.378,-0.2l0.38,-0.198l0.381,-0.196l0.382,-0.193l0.384,-0.192l0.385,-0.189l0.387,-0.187l0.388,-0.185l0.389,-0.183l0.39,-0.181l0.392,-0.178l0.393,-0.176l0.394,-0.174l0.396,-0.171l0.397,-0.17l0.398,-0.167l0.399,-0.164l0.4,-0.163l0.402,-0.16l0.403,-0.158l0.404,-0.155l0.406,-0.154l0.407,-0.151l0.407,-0.148l0.409,-0.146l0.41,-0.144l0.412,-0.142l0.412,-0.139l0.414,-0.137l0.414,-0.134l0.416,-0.132l0.417,-0.13l0.418,-0.127l0.419,-0.124l0.42,-0.123l0.422,-0.12l0.422,-0.117l0.423,-0.115l0.425,-0.112l0.425,-0.11l0.427,-0.108l0.427,-0.105l0.429,-0.103l0.429,-0.1l0.431,-0.097l0.431,-0.095l0.433,-0.093l0.433,-0.09l0.435,-0.087l0.435,-0.085l0.436,-0.082l0.438,-0.08l0.438,-0.077l0.439,-0.074l0.44,-0.072l0.441,-0.07l0.441,-0.066l0.443,-0.064l0.443,-0.062l0.445,-0.059l0.445,-0.056l0.446,-0.053l0.447,-0.051l0.447,-0.048l0.449,-0.046l0.449,-0.042l0.45,-0.04l0.451,-0.038l0.452,-0.034l0.452,-0.032l0.453,-0.029l0.454,-0.027l0.454,-0.024l0.456,-0.021l0.456,-0.018l0.456,-0.015l0.458,-0.013l0.458,-0.01l0.459,-0.007l0.459,-0.004l0.46,-0.001l0.46,0.001Zm-0.875,7.331l-0.415,0.003l-0.413,0.007l-0.414,0.009l-0.412,0.011l-0.412,0.014l-0.411,0.016l-0.41,0.019l-0.41,0.021l-0.409,0.024l-0.409,0.027l-0.407,0.028l-0.407,0.032l-0.406,0.033l-0.405,0.036l-0.405,0.039l-0.404,0.041l-0.403,0.043l-0.402,0.046l-0.402,0.048l-0.401,0.051l-0.4,0.052l-0.399,0.056l-0.398,0.057l-0.398,0.06l-0.397,0.063l-0.396,0.065l-0.395,0.067l-0.394,0.069l-0.393,0.072l-0.393,0.074l-0.391,0.076l-0.391,0.079l-0.39,0.08l-0.389,0.084l-0.388,0.085l-0.387,0.088l-0.387,0.09l-0.385,0.092l-0.384,0.094l-0.384,0.097l-0.383,0.099l-0.381,0.101l-0.381,0.104l-0.38,0.105l-0.378,0.108l-0.378,0.11l-0.377,0.112l-0.376,0.114l-0.374,0.117l-0.374,0.118l-0.373,0.121l-0.372,0.123l-0.37,0.125l-0.37,0.127l-0.368,0.13l-0.368,0.131l-0.367,0.133l-0.365,0.136l-0.364,0.138l-0.363,0.14l-0.363,0.141l-0.361,0.144l-0.36,0.146l-0.358,0.148l-0.358,0.15l-0.357,0.153l-0.355,0.154l-0.354,0.156l-0.353,0.158l-0.352,0.16l-0.351,0.162l-0.35,0.165l-0.348,0.166l-0.347,0.168l-0.346,0.17l-0.345,0.172l-0.343,0.174l-0.343,0.176l-0.341,0.178l-0.34,0.18l-0.338,0.181l-0.338,0.184l-0.336,0.186l-0.335,0.187l-0.333,0.189l-0.332,0.192l-0.331,0.193l-0.33,0.195l-0.328,0.197l-0.327,0.198l-0.326,0.201l-0.324,0.202l-0.323,0.204l-0.321,0.206l-0.321,0.208l-0.318,0.21l-0.318,0.211l-0.316,0.213l-0.315,0.215l-0.313,0.217l-0.312,0.219l-0.31,0.22l-0.309,0.222l-0.308,0.224l-0.306,0.225l-0.305,0.227l-0.303,0.229l-0.302,0.231l-0.3,0.232l-0.299,0.234l-0.297,0.236l-0.296,0.238l-0.294,0.239l-0.293,0.241l-0.291,0.242l-0.29,0.244l-0.288,0.246l-0.287,0.247l-0.285,0.249l-0.284,0.251l-0.282,0.252l-0.28,0.254l-0.279,0.255l-0.277,0.257l-0.276,0.259l-0.274,0.26l-0.272,0.261l-0.271,0.264l-0.269,0.264l-0.267,0.267l-0.266,0.268l-0.264,0.269l-0.263,0.271l-0.26,0.272l-0.26,0.274l-0.257,0.276l-0.256,0.276l-0.254,0.279l-0.252,0.279l-0.251,0.282l-0.249,0.282l-0.247,0.285l-0.245,0.285l-0.244,0.287l-0.242,0.289l-0.24,0.29l-0.238,0.291l-0.237,0.293l-0.234,0.293l-0.234,0.296l-0.231,0.297l-0.229,0.298l-0.228,0.299l-0.225,0.301l-0.224,0.303l-0.222,0.303l-0.22,0.305l-0.219,0.306l-0.216,0.308l-0.214,0.309l-0.213,0.31l-0.211,0.311l-0.209,0.313l-0.207,0.314l-0.205,0.315l-0.203,0.316l-0.201,0.318l-0.199,0.319l-0.198,0.32l-0.195,0.321l-0.193,0.323l-0.192,0.324l-0.189,0.325l-0.187,0.326l-0.186,0.327l-0.183,0.329l-0.182,0.33l-0.179,0.331l-0.178,0.332l-0.175,0.333l-0.173,0.334l-0.172,0.336l-0.169,0.336l-0.167,0.338l-0.165,0.339l-0.163,0.34l-0.161,0.341l-0.159,0.342l-0.157,0.343l-0.154,0.345l-0.153,0.345l-0.15,0.347l-0.149,0.347l-0.146,0.348l-0.144,0.35l-0.142,0.351l-0.139,0.351l-0.138,0.353l-0.135,0.353l-0.133,0.355l-0.131,0.356l-0.129,0.356l-0.127,0.358l-0.124,0.358l-0.122,0.36l-0.12,0.36l-0.118,0.362l-0.115,0.362l-0.113,0.363l-0.111,0.364l-0.109,0.365l-0.106,0.367l-0.104,0.366l-0.102,0.368l-0.1,0.369l-0.097,0.37l-0.095,0.37l-0.093,0.372l-0.09,0.372l-0.088,0.373l-0.085,0.374l-0.084,0.374l-0.08,0.376l-0.079,0.377l-0.076,0.377l-0.074,0.378l-0.071,0.379l-0.069,0.38l-0.067,0.38l-0.064,0.381l-0.062,0.382l-0.059,0.383l-0.057,0.384l-0.054,0.384l-0.052,0.385l-0.05,0.386l-0.047,0.387l-0.045,0.387l-0.042,0.388l-0.039,0.389l-0.037,0.39l-0.035,0.39l-0.032,0.391l-0.03,0.391l-0.027,0.393l-0.024,0.393l-0.022,0.393l-0.02,0.395l-0.017,0.395l-0.014,0.396l-0.012,0.396l-0.009,0.397l-0.006,0.397l-0.004,0.399l-0.001,0.4l0,0.325l0.003,0.328l0.003,0.331l0.005,0.332l0.007,0.334l0.008,0.337l0.01,0.338l0.011,0.34l0.012,0.342l0.014,0.344l0.015,0.346l0.017,0.348l0.018,0.349l0.02,0.352l0.021,0.353l0.022,0.355l0.024,0.357l0.025,0.359l0.027,0.36l0.028,0.363l0.029,0.363l0.031,0.366l0.033,0.368l0.033,0.369l0.035,0.371l0.037,0.372l0.038,0.375l0.039,0.376l0.04,0.377l0.042,0.38l0.043,0.38l0.045,0.383l0.046,0.384l0.047,0.386l0.048,0.387l0.05,0.389l0.051,0.391l0.053,0.392l0.054,0.393l0.055,0.395l0.056,0.397l0.058,0.398l0.059,0.4l0.06,0.401l0.062,0.402l0.063,0.404l0.064,0.406l0.065,0.407l0.067,0.408l0.068,0.41l0.069,0.411l0.07,0.412l0.072,0.414l0.072,0.416l0.074,0.416l0.076,0.418l0.076,0.42l0.078,0.42l0.079,0.422l0.08,0.424l0.081,0.424l0.082,0.426l0.084,0.427l0.085,0.429l0.085,0.429l0.087,0.431l0.089,0.432l0.089,0.434l0.091,0.434l0.091,0.436l0.093,0.437l0.094,0.438l0.095,0.439l0.096,0.441l0.097,0.441l0.098,0.443l0.1,0.444l0.1,0.445l0.102,0.446l0.102,0.447l0.104,0.448l0.105,0.45l0.106,0.45l0.107,0.451l0.108,0.453l0.108,0.453l0.11,0.455l0.112,0.455l0.112,0.457l0.112,0.456l0.23,0.919l0.233,0.922l0.237,0.925l0.241,0.929l0.245,0.933l0.248,0.936l0.253,0.939l0.256,0.943l0.259,0.946l0.264,0.95l0.267,0.952l0.27,0.955l0.274,0.959l0.277,0.961l0.281,0.964l0.284,0.966l0.287,0.969l0.29,0.972l0.294,0.974l0.297,0.977l0.299,0.978l0.303,0.981l0.306,0.983l0.309,0.986l0.311,0.987l0.314,0.989l0.318,0.99l0.32,0.993l0.322,0.994l0.325,0.996l0.328,0.997l0.331,0.999l0.332,1l0.336,1.001l0.337,1.002l0.34,1.004l0.343,1.004l0.344,1.006l0.347,1.006l0.349,1.007l0.351,1.008l0.353,1.008l0.355,1.009l0.357,1.01l0.359,1.009l0.361,1.01l0.363,1.011l0.364,1.01l0.366,1.011l0.368,1.011l0.369,1.01l0.371,1.01l0.372,1.01l0.374,1.01l0.376,1.01l0.376,1.009l0.378,1.008l0.38,1.008l0.38,1.007l0.382,1.006l0.383,1.006l0.384,1.004l0.385,1.004l0.385,1.002l0.387,1.001l0.388,1l0.389,0.999l0.389,0.997l0.39,0.996l0.391,0.994l0.391,0.993l0.392,0.991l0.393,0.989l0.393,0.987l0.394,0.986l0.394,0.983l0.394,0.981l0.394,0.979l0.395,0.977l0.395,0.974l0.395,0.972l0.396,0.97l0.395,0.967l0.396,0.965l0.395,0.961l0.395,0.959l0.395,0.956l0.395,0.953l0.395,0.95l0.394,0.947l0.394,0.944l0.394,0.941l0.393,0.937l0.393,0.934l0.393,0.93l0.391,0.927l0.391,0.923l0.391,0.919l0.39,0.916l0.389,0.912l0.388,0.907l0.387,0.904l0.386,0.9l0.386,0.895l0.384,0.891l0.766,1.77l0.761,1.752l0.756,1.733l0.75,1.713l0.745,1.694l0.739,1.674l0.732,1.653l0.725,1.631l0.718,1.608l0.71,1.586l0.702,1.563l0.693,1.538l0.685,1.514l0.675,1.488l0.666,1.462l0.656,1.436l0.645,1.409l0.634,1.381l0.623,1.353l0.612,1.323l0.599,1.294l0.588,1.264l0.574,1.233l0.561,1.201l0.548,1.17l0.534,1.137l0.519,1.103l0.505,1.07l0.49,1.035l0.474,0.999l0.459,0.965l0.442,0.927l0.425,0.891l0.409,0.854l0.39,0.814l0.337,0.699l0.337,-0.699l0.39,-0.815l0.409,-0.853l0.425,-0.891l0.442,-0.927l0.459,-0.965l0.474,-0.999l0.49,-1.035l0.505,-1.07l0.519,-1.103l0.534,-1.137l0.548,-1.17l0.561,-1.201l0.574,-1.233l0.588,-1.264l0.599,-1.294l0.612,-1.323l0.623,-1.353l0.634,-1.381l0.645,-1.409l0.656,-1.435l0.666,-1.463l0.675,-1.488l0.685,-1.514l0.693,-1.538l0.702,-1.563l0.71,-1.586l0.718,-1.608l0.725,-1.631l0.732,-1.653l0.739,-1.674l0.745,-1.694l0.75,-1.713l0.756,-1.733l0.761,-1.752l0.766,-1.77l0.384,-0.891l0.386,-0.895l0.386,-0.9l0.387,-0.904l0.388,-0.907l0.389,-0.912l0.39,-0.916l0.391,-0.919l0.391,-0.923l0.391,-0.927l0.393,-0.93l0.393,-0.934l0.393,-0.937l0.394,-0.941l0.394,-0.944l0.394,-0.947l0.395,-0.95l0.395,-0.953l0.395,-0.956l0.395,-0.959l0.395,-0.962l0.396,-0.964l0.395,-0.967l0.396,-0.97l0.395,-0.972l0.395,-0.974l0.395,-0.977l0.394,-0.979l0.394,-0.981l0.394,-0.983l0.394,-0.986l0.393,-0.987l0.393,-0.989l0.392,-0.991l0.391,-0.993l0.391,-0.994l0.39,-0.996l0.389,-0.997l0.389,-0.999l0.388,-1l0.386,-1.001l0.386,-1.002l0.385,-1.004l0.384,-1.004l0.383,-1.006l0.382,-1.006l0.38,-1.007l0.38,-1.008l0.378,-1.008l0.376,-1.009l0.376,-1.01l0.374,-1.009l0.372,-1.011l0.371,-1.01l0.369,-1.01l0.368,-1.011l0.366,-1.011l0.364,-1.01l0.363,-1.011l0.361,-1.01l0.359,-1.009l0.357,-1.01l0.355,-1.009l0.353,-1.008l0.351,-1.008l0.349,-1.007l0.347,-1.006l0.344,-1.006l0.343,-1.004l0.34,-1.004l0.337,-1.002l0.336,-1.001l0.332,-1l0.331,-0.999l0.328,-0.997l0.325,-0.996l0.322,-0.994l0.32,-0.993l0.318,-0.99l0.314,-0.989l0.311,-0.987l0.309,-0.986l0.306,-0.983l0.303,-0.981l0.3,-0.978l0.296,-0.977l0.294,-0.974l0.29,-0.972l0.287,-0.969l0.284,-0.966l0.281,-0.964l0.277,-0.961l0.274,-0.959l0.27,-0.955l0.267,-0.952l0.264,-0.95l0.259,-0.946l0.256,-0.943l0.253,-0.939l0.248,-0.936l0.245,-0.933l0.241,-0.929l0.237,-0.925l0.233,-0.922l0.23,-0.919l0.112,-0.456l0.112,-0.457l0.111,-0.455l0.11,-0.455l0.109,-0.453l0.108,-0.453l0.107,-0.451l0.106,-0.45l0.105,-0.45l0.104,-0.448l0.102,-0.447l0.102,-0.446l0.1,-0.445l0.1,-0.444l0.098,-0.443l0.097,-0.441l0.096,-0.441l0.095,-0.439l0.094,-0.438l0.093,-0.437l0.091,-0.436l0.091,-0.434l0.089,-0.434l0.089,-0.432l0.087,-0.431l0.085,-0.429l0.085,-0.429l0.084,-0.427l0.082,-0.426l0.081,-0.424l0.08,-0.424l0.079,-0.422l0.078,-0.42l0.076,-0.42l0.076,-0.418l0.074,-0.416l0.072,-0.416l0.072,-0.414l0.07,-0.412l0.069,-0.411l0.068,-0.41l0.067,-0.409l0.065,-0.406l0.064,-0.406l0.063,-0.404l0.062,-0.402l0.06,-0.402l0.059,-0.399l0.058,-0.398l0.056,-0.397l0.055,-0.395l0.054,-0.393l0.053,-0.392l0.051,-0.391l0.05,-0.389l0.048,-0.387l0.047,-0.386l0.046,-0.384l0.045,-0.382l0.043,-0.381l0.042,-0.38l0.04,-0.377l0.04,-0.376l0.037,-0.375l0.037,-0.372l0.035,-0.371l0.033,-0.369l0.033,-0.368l0.031,-0.366l0.029,-0.364l0.028,-0.362l0.027,-0.36l0.025,-0.359l0.024,-0.357l0.022,-0.355l0.021,-0.353l0.02,-0.352l0.018,-0.349l0.017,-0.348l0.015,-0.346l0.014,-0.344l0.012,-0.342l0.011,-0.34l0.01,-0.338l0.008,-0.337l0.007,-0.334l0.005,-0.332l0.003,-0.33l0.003,-0.329l0,-0.325l-0.001,-0.4l-0.004,-0.398l-0.006,-0.398l-0.009,-0.397l-0.012,-0.397l-0.014,-0.395l-0.017,-0.395l-0.02,-0.395l-0.022,-0.393l-0.024,-0.393l-0.027,-0.393l-0.03,-0.391l-0.032,-0.391l-0.035,-0.39l-0.037,-0.39l-0.039,-0.389l-0.042,-0.388l-0.045,-0.387l-0.047,-0.387l-0.05,-0.386l-0.052,-0.385l-0.054,-0.384l-0.057,-0.384l-0.059,-0.383l-0.062,-0.382l-0.064,-0.381l-0.067,-0.381l-0.069,-0.379l-0.071,-0.379l-0.074,-0.378l-0.076,-0.377l-0.079,-0.377l-0.08,-0.376l-0.084,-0.374l-0.085,-0.374l-0.088,-0.373l-0.09,-0.372l-0.093,-0.372l-0.095,-0.37l-0.097,-0.37l-0.1,-0.369l-0.102,-0.368l-0.104,-0.367l-0.106,-0.366l-0.109,-0.365l-0.111,-0.364l-0.113,-0.363l-0.115,-0.363l-0.118,-0.361l-0.12,-0.36l-0.122,-0.36l-0.124,-0.358l-0.127,-0.358l-0.129,-0.357l-0.131,-0.355l-0.133,-0.355l-0.135,-0.353l-0.138,-0.353l-0.139,-0.351l-0.142,-0.351l-0.144,-0.35l-0.146,-0.348l-0.149,-0.347l-0.15,-0.347l-0.153,-0.345l-0.154,-0.345l-0.157,-0.343l-0.159,-0.342l-0.161,-0.341l-0.163,-0.34l-0.165,-0.339l-0.167,-0.337l-0.169,-0.337l-0.172,-0.336l-0.173,-0.334l-0.175,-0.333l-0.178,-0.332l-0.179,-0.331l-0.182,-0.33l-0.183,-0.328l-0.186,-0.328l-0.187,-0.326l-0.189,-0.325l-0.192,-0.324l-0.193,-0.323l-0.195,-0.321l-0.198,-0.32l-0.199,-0.319l-0.201,-0.318l-0.203,-0.316l-0.205,-0.315l-0.207,-0.314l-0.209,-0.313l-0.211,-0.311l-0.213,-0.31l-0.214,-0.309l-0.217,-0.308l-0.218,-0.306l-0.22,-0.305l-0.222,-0.303l-0.224,-0.303l-0.225,-0.301l-0.228,-0.299l-0.229,-0.298l-0.231,-0.297l-0.233,-0.295l-0.235,-0.294l-0.237,-0.293l-0.238,-0.291l-0.24,-0.29l-0.242,-0.289l-0.244,-0.287l-0.245,-0.285l-0.247,-0.285l-0.249,-0.282l-0.251,-0.281l-0.252,-0.28l-0.254,-0.279l-0.256,-0.276l-0.257,-0.276l-0.259,-0.274l-0.261,-0.272l-0.263,-0.271l-0.264,-0.269l-0.266,-0.268l-0.267,-0.267l-0.269,-0.264l-0.271,-0.264l-0.272,-0.261l-0.274,-0.26l-0.276,-0.259l-0.277,-0.257l-0.279,-0.255l-0.28,-0.254l-0.282,-0.252l-0.284,-0.251l-0.285,-0.249l-0.287,-0.247l-0.288,-0.246l-0.29,-0.244l-0.291,-0.242l-0.293,-0.241l-0.294,-0.239l-0.296,-0.238l-0.297,-0.236l-0.299,-0.234l-0.3,-0.232l-0.302,-0.231l-0.303,-0.229l-0.305,-0.227l-0.306,-0.225l-0.308,-0.224l-0.309,-0.222l-0.31,-0.22l-0.312,-0.219l-0.313,-0.217l-0.315,-0.215l-0.316,-0.213l-0.318,-0.211l-0.318,-0.21l-0.321,-0.208l-0.321,-0.206l-0.323,-0.204l-0.324,-0.202l-0.326,-0.201l-0.327,-0.198l-0.328,-0.197l-0.33,-0.195l-0.331,-0.193l-0.332,-0.192l-0.334,-0.189l-0.334,-0.187l-0.336,-0.186l-0.338,-0.184l-0.338,-0.181l-0.34,-0.18l-0.341,-0.178l-0.343,-0.176l-0.343,-0.174l-0.345,-0.172l-0.346,-0.17l-0.347,-0.168l-0.348,-0.166l-0.35,-0.165l-0.351,-0.162l-0.352,-0.16l-0.353,-0.158l-0.354,-0.156l-0.355,-0.154l-0.357,-0.153l-0.358,-0.15l-0.358,-0.148l-0.36,-0.146l-0.361,-0.144l-0.363,-0.141l-0.363,-0.14l-0.364,-0.138l-0.365,-0.136l-0.367,-0.133l-0.368,-0.131l-0.368,-0.13l-0.37,-0.127l-0.37,-0.125l-0.372,-0.123l-0.373,-0.121l-0.374,-0.118l-0.374,-0.117l-0.376,-0.114l-0.377,-0.112l-0.378,-0.11l-0.378,-0.108l-0.38,-0.105l-0.381,-0.104l-0.381,-0.101l-0.383,-0.099l-0.383,-0.097l-0.385,-0.094l-0.385,-0.092l-0.387,-0.09l-0.387,-0.088l-0.388,-0.085l-0.389,-0.084l-0.39,-0.08l-0.391,-0.079l-0.391,-0.076l-0.393,-0.074l-0.393,-0.072l-0.394,-0.069l-0.395,-0.067l-0.396,-0.065l-0.397,-0.063l-0.398,-0.06l-0.398,-0.057l-0.399,-0.056l-0.4,-0.052l-0.401,-0.051l-0.402,-0.048l-0.402,-0.046l-0.403,-0.043l-0.404,-0.041l-0.405,-0.039l-0.405,-0.036l-0.406,-0.033l-0.407,-0.032l-0.407,-0.028l-0.409,-0.027l-0.409,-0.024l-0.41,-0.021l-0.41,-0.019l-0.411,-0.016l-0.412,-0.014l-0.412,-0.011l-0.414,-0.009l-0.413,-0.007l-0.415,-0.003l-0.415,-0.002l-0.415,0.002Zm0.678,32.209l0.263,0.002l0.263,0.004l0.262,0.006l0.262,0.007l0.262,0.009l0.261,0.01l0.26,0.012l0.261,0.014l0.259,0.015l0.26,0.017l0.259,0.018l0.259,0.02l0.258,0.021l0.258,0.023l0.257,0.025l0.257,0.026l0.256,0.027l0.256,0.029l0.256,0.031l0.255,0.032l0.254,0.034l0.254,0.035l0.254,0.037l0.253,0.038l0.253,0.04l0.252,0.041l0.251,0.043l0.251,0.044l0.251,0.045l0.25,0.048l0.249,0.048l0.249,0.05l0.249,0.052l0.248,0.053l0.247,0.054l0.247,0.056l0.246,0.057l0.245,0.059l0.246,0.06l0.244,0.062l0.244,0.063l0.243,0.065l0.243,0.065l0.242,0.068l0.241,0.068l0.241,0.071l0.24,0.071l0.24,0.073l0.239,0.074l0.238,0.076l0.238,0.077l0.237,0.078l0.236,0.08l0.236,0.081l0.235,0.083l0.235,0.083l0.234,0.086l0.233,0.086l0.232,0.088l0.232,0.089l0.231,0.091l0.23,0.091l0.23,0.094l0.228,0.094l0.229,0.096l0.227,0.097l0.227,0.098l0.226,0.1l0.225,0.101l0.225,0.102l0.224,0.104l0.223,0.104l0.222,0.106l0.222,0.108l0.221,0.108l0.22,0.11l0.219,0.111l0.218,0.112l0.218,0.114l0.217,0.115l0.216,0.116l0.216,0.117l0.214,0.118l0.214,0.12l0.213,0.121l0.212,0.122l0.211,0.123l0.211,0.125l0.209,0.126l0.209,0.126l0.208,0.128l0.207,0.13l0.206,0.13l0.205,0.131l0.205,0.133l0.204,0.134l0.203,0.135l0.201,0.136l0.201,0.138l0.201,0.138l0.199,0.14l0.198,0.141l0.198,0.141l0.196,0.143l0.196,0.144l0.195,0.146l0.193,0.146l0.193,0.147l0.192,0.149l0.191,0.15l0.19,0.15l0.189,0.152l0.188,0.153l0.188,0.154l0.186,0.155l0.185,0.156l0.184,0.157l0.184,0.158l0.182,0.159l0.181,0.161l0.181,0.161l0.179,0.162l0.178,0.164l0.178,0.164l0.176,0.166l0.176,0.166l0.174,0.168l0.173,0.168l0.173,0.17l0.171,0.17l0.17,0.172l0.169,0.172l0.168,0.173l0.167,0.175l0.166,0.175l0.165,0.177l0.164,0.177l0.163,0.179l0.161,0.179l0.161,0.18l0.159,0.181l0.159,0.182l0.157,0.183l0.156,0.184l0.155,0.185l0.154,0.186l0.153,0.187l0.152,0.188l0.15,0.188l0.15,0.19l0.148,0.19l0.147,0.192l0.147,0.192l0.145,0.193l0.143,0.194l0.142,0.195l0.142,0.196l0.14,0.196l0.139,0.198l0.138,0.198l0.136,0.199l0.136,0.201l0.134,0.2l0.133,0.202l0.132,0.203l0.13,0.203l0.13,0.204l0.128,0.206l0.127,0.205l0.126,0.207l0.124,0.208l0.123,0.208l0.122,0.209l0.121,0.21l0.119,0.211l0.118,0.211l0.117,0.213l0.115,0.213l0.115,0.213l0.112,0.215l0.112,0.215l0.11,0.216l0.11,0.217l0.107,0.218l0.107,0.218l0.105,0.22l0.103,0.219l0.103,0.221l0.101,0.221l0.1,0.222l0.098,0.223l0.097,0.223l0.096,0.224l0.094,0.225l0.093,0.225l0.091,0.227l0.09,0.226l0.089,0.228l0.087,0.228l0.086,0.229l0.085,0.23l0.083,0.23l0.082,0.23l0.08,0.232l0.079,0.232l0.077,0.233l0.076,0.233l0.075,0.234l0.073,0.235l0.072,0.235l0.07,0.236l0.068,0.236l0.068,0.237l0.066,0.238l0.064,0.238l0.063,0.239l0.061,0.239l0.06,0.24l0.058,0.241l0.057,0.241l0.055,0.241l0.054,0.242l0.052,0.243l0.051,0.243l0.049,0.244l0.048,0.244l0.046,0.245l0.045,0.246l0.042,0.245l0.042,0.246l0.04,0.247l0.038,0.247l0.037,0.248l0.035,0.249l0.034,0.248l0.032,0.25l0.03,0.249l0.029,0.25l0.027,0.251l0.025,0.25l0.024,0.252l0.023,0.252l0.021,0.252l0.019,0.253l0.017,0.253l0.016,0.253l0.014,0.254l0.013,0.255l0.01,0.254l0.01,0.255l0.007,0.256l0.006,0.255l0.004,0.256l0.003,0.257l0.001,0.257l-0.001,0.257l-0.003,0.257l-0.004,0.256l-0.006,0.255l-0.007,0.256l-0.01,0.255l-0.01,0.254l-0.013,0.255l-0.014,0.254l-0.016,0.253l-0.017,0.253l-0.019,0.253l-0.021,0.252l-0.023,0.252l-0.024,0.252l-0.025,0.25l-0.027,0.251l-0.029,0.25l-0.03,0.25l-0.032,0.249l-0.034,0.249l-0.035,0.248l-0.037,0.248l-0.038,0.247l-0.04,0.247l-0.042,0.246l-0.043,0.246l-0.044,0.245l-0.046,0.245l-0.048,0.244l-0.049,0.244l-0.051,0.243l-0.052,0.243l-0.054,0.242l-0.055,0.241l-0.057,0.241l-0.058,0.241l-0.06,0.24l-0.061,0.239l-0.063,0.239l-0.064,0.238l-0.066,0.238l-0.068,0.237l-0.068,0.236l-0.07,0.236l-0.072,0.235l-0.073,0.235l-0.075,0.234l-0.076,0.233l-0.077,0.233l-0.079,0.232l-0.08,0.232l-0.082,0.23l-0.083,0.23l-0.085,0.23l-0.086,0.229l-0.087,0.228l-0.089,0.228l-0.09,0.226l-0.091,0.227l-0.093,0.225l-0.094,0.225l-0.096,0.224l-0.097,0.223l-0.098,0.223l-0.1,0.222l-0.101,0.222l-0.103,0.22l-0.103,0.22l-0.105,0.219l-0.107,0.218l-0.107,0.218l-0.11,0.217l-0.11,0.216l-0.112,0.215l-0.112,0.215l-0.115,0.214l-0.115,0.213l-0.117,0.212l-0.118,0.212l-0.119,0.21l-0.121,0.21l-0.122,0.209l-0.123,0.208l-0.124,0.208l-0.126,0.207l-0.127,0.206l-0.128,0.205l-0.13,0.204l-0.13,0.203l-0.132,0.203l-0.133,0.202l-0.134,0.201l-0.136,0.2l-0.136,0.199l-0.138,0.198l-0.139,0.198l-0.14,0.196l-0.142,0.196l-0.142,0.195l-0.143,0.194l-0.145,0.193l-0.147,0.193l-0.147,0.191l-0.148,0.19l-0.15,0.19l-0.15,0.188l-0.152,0.188l-0.153,0.187l-0.154,0.186l-0.155,0.185l-0.156,0.184l-0.157,0.183l-0.159,0.182l-0.159,0.181l-0.161,0.18l-0.161,0.18l-0.163,0.178l-0.164,0.177l-0.165,0.177l-0.166,0.175l-0.167,0.175l-0.168,0.173l-0.169,0.172l-0.17,0.172l-0.172,0.171l-0.172,0.169l-0.173,0.169l-0.174,0.167l-0.176,0.167l-0.176,0.165l-0.178,0.164l-0.178,0.164l-0.179,0.162l-0.181,0.162l-0.181,0.16l-0.182,0.159l-0.184,0.158l-0.184,0.157l-0.185,0.156l-0.186,0.155l-0.188,0.154l-0.188,0.153l-0.189,0.152l-0.19,0.151l-0.191,0.149l-0.192,0.149l-0.193,0.147l-0.193,0.146l-0.195,0.146l-0.196,0.144l-0.196,0.143l-0.198,0.142l-0.198,0.14l-0.199,0.14l-0.201,0.139l-0.201,0.137l-0.201,0.136l-0.203,0.135l-0.204,0.134l-0.204,0.133l-0.206,0.131l-0.206,0.131l-0.207,0.129l-0.208,0.128l-0.209,0.127l-0.209,0.125l-0.211,0.125l-0.211,0.123l-0.212,0.122l-0.213,0.121l-0.214,0.12l-0.214,0.118l-0.216,0.117l-0.216,0.117l-0.217,0.114l-0.218,0.114l-0.218,0.112l-0.219,0.111l-0.22,0.11l-0.221,0.109l-0.222,0.107l-0.222,0.106l-0.223,0.105l-0.224,0.103l-0.225,0.102l-0.225,0.101l-0.226,0.1l-0.227,0.098l-0.227,0.097l-0.228,0.096l-0.229,0.095l-0.23,0.093l-0.23,0.092l-0.231,0.09l-0.232,0.089l-0.233,0.088l-0.232,0.087l-0.234,0.085l-0.235,0.084l-0.235,0.082l-0.236,0.081l-0.236,0.08l-0.237,0.078l-0.238,0.077l-0.238,0.076l-0.239,0.074l-0.24,0.073l-0.24,0.072l-0.241,0.07l-0.241,0.068l-0.242,0.068l-0.243,0.066l-0.243,0.064l-0.244,0.063l-0.245,0.062l-0.245,0.06l-0.245,0.059l-0.247,0.057l-0.246,0.056l-0.247,0.054l-0.248,0.053l-0.249,0.052l-0.249,0.05l-0.249,0.049l-0.25,0.047l-0.251,0.045l-0.251,0.045l-0.251,0.042l-0.252,0.041l-0.253,0.04l-0.253,0.038l-0.254,0.037l-0.254,0.035l-0.254,0.034l-0.255,0.032l-0.256,0.031l-0.256,0.029l-0.256,0.027l-0.257,0.026l-0.257,0.025l-0.258,0.023l-0.258,0.021l-0.259,0.02l-0.259,0.018l-0.26,0.017l-0.259,0.015l-0.261,0.014l-0.26,0.012l-0.261,0.01l-0.262,0.009l-0.262,0.007l-0.262,0.006l-0.263,0.004l-0.263,0.002l-0.263,0.001l-0.263,-0.001l-0.263,-0.002l-0.263,-0.004l-0.262,-0.006l-0.262,-0.007l-0.262,-0.009l-0.261,-0.01l-0.26,-0.012l-0.261,-0.014l-0.26,-0.015l-0.259,-0.017l-0.259,-0.018l-0.259,-0.02l-0.258,-0.021l-0.258,-0.023l-0.257,-0.025l-0.257,-0.026l-0.256,-0.027l-0.256,-0.029l-0.256,-0.031l-0.255,-0.032l-0.254,-0.034l-0.254,-0.035l-0.254,-0.037l-0.253,-0.038l-0.253,-0.04l-0.252,-0.041l-0.251,-0.042l-0.251,-0.045l-0.251,-0.045l-0.25,-0.047l-0.249,-0.049l-0.249,-0.05l-0.249,-0.052l-0.248,-0.053l-0.247,-0.054l-0.246,-0.056l-0.247,-0.057l-0.245,-0.059l-0.245,-0.06l-0.245,-0.062l-0.244,-0.063l-0.243,-0.064l-0.243,-0.066l-0.242,-0.068l-0.241,-0.068l-0.241,-0.07l-0.24,-0.072l-0.24,-0.073l-0.239,-0.074l-0.238,-0.076l-0.238,-0.077l-0.237,-0.078l-0.236,-0.08l-0.236,-0.081l-0.235,-0.082l-0.235,-0.084l-0.234,-0.085l-0.232,-0.087l-0.233,-0.088l-0.232,-0.089l-0.231,-0.091l-0.23,-0.091l-0.23,-0.093l-0.229,-0.095l-0.228,-0.096l-0.227,-0.097l-0.227,-0.098l-0.226,-0.1l-0.225,-0.101l-0.225,-0.102l-0.224,-0.103l-0.223,-0.105l-0.222,-0.106l-0.222,-0.107l-0.221,-0.109l-0.22,-0.11l-0.219,-0.111l-0.219,-0.112l-0.217,-0.114l-0.217,-0.114l-0.216,-0.117l-0.216,-0.117l-0.214,-0.118l-0.214,-0.12l-0.213,-0.121l-0.212,-0.122l-0.211,-0.123l-0.211,-0.125l-0.209,-0.125l-0.209,-0.127l-0.208,-0.128l-0.207,-0.129l-0.206,-0.131l-0.206,-0.131l-0.204,-0.133l-0.204,-0.134l-0.202,-0.135l-0.202,-0.136l-0.202,-0.138l-0.2,-0.138l-0.199,-0.14l-0.198,-0.14l-0.198,-0.142l-0.196,-0.143l-0.196,-0.144l-0.194,-0.146l-0.194,-0.146l-0.193,-0.147l-0.192,-0.149l-0.191,-0.149l-0.19,-0.151l-0.189,-0.152l-0.188,-0.153l-0.188,-0.154l-0.186,-0.155l-0.185,-0.156l-0.184,-0.157l-0.184,-0.158l-0.182,-0.159l-0.181,-0.16l-0.181,-0.162l-0.179,-0.162l-0.178,-0.164l-0.178,-0.164l-0.176,-0.165l-0.176,-0.167l-0.174,-0.167l-0.173,-0.169l-0.172,-0.169l-0.172,-0.171l-0.17,-0.172l-0.169,-0.172l-0.168,-0.173l-0.167,-0.175l-0.166,-0.175l-0.165,-0.177l-0.164,-0.177l-0.163,-0.178l-0.161,-0.18l-0.161,-0.18l-0.159,-0.181l-0.159,-0.182l-0.157,-0.183l-0.156,-0.184l-0.155,-0.185l-0.154,-0.186l-0.153,-0.187l-0.152,-0.188l-0.151,-0.188l-0.149,-0.19l-0.148,-0.19l-0.147,-0.191l-0.147,-0.193l-0.144,-0.193l-0.144,-0.194l-0.143,-0.195l-0.141,-0.196l-0.14,-0.196l-0.139,-0.198l-0.138,-0.198l-0.137,-0.199l-0.135,-0.2l-0.134,-0.201l-0.133,-0.202l-0.132,-0.202l-0.131,-0.204l-0.129,-0.204l-0.128,-0.205l-0.127,-0.206l-0.125,-0.207l-0.125,-0.207l-0.123,-0.209l-0.122,-0.209l-0.121,-0.21l-0.119,-0.211l-0.118,-0.211l-0.117,-0.212l-0.115,-0.214l-0.115,-0.213l-0.112,-0.215l-0.112,-0.215l-0.111,-0.217l-0.108,-0.216l-0.108,-0.218l-0.107,-0.218l-0.105,-0.219l-0.103,-0.22l-0.103,-0.22l-0.101,-0.222l-0.1,-0.222l-0.098,-0.223l-0.097,-0.223l-0.096,-0.224l-0.094,-0.225l-0.093,-0.225l-0.091,-0.226l-0.09,-0.227l-0.089,-0.228l-0.087,-0.228l-0.086,-0.229l-0.085,-0.229l-0.083,-0.231l-0.082,-0.231l-0.08,-0.231l-0.079,-0.232l-0.077,-0.233l-0.076,-0.233l-0.075,-0.234l-0.073,-0.235l-0.072,-0.235l-0.07,-0.236l-0.069,-0.236l-0.067,-0.237l-0.065,-0.238l-0.065,-0.238l-0.063,-0.239l-0.061,-0.239l-0.06,-0.24l-0.058,-0.24l-0.057,-0.242l-0.055,-0.241l-0.054,-0.242l-0.052,-0.243l-0.051,-0.243l-0.049,-0.244l-0.048,-0.244l-0.046,-0.245l-0.044,-0.245l-0.043,-0.246l-0.042,-0.246l-0.04,-0.247l-0.038,-0.247l-0.037,-0.248l-0.035,-0.248l-0.034,-0.249l-0.032,-0.249l-0.03,-0.25l-0.029,-0.25l-0.027,-0.251l-0.026,-0.251l-0.023,-0.251l-0.023,-0.252l-0.021,-0.252l-0.019,-0.252l-0.017,-0.253l-0.016,-0.255l-0.014,-0.253l-0.013,-0.254l-0.01,-0.255l-0.01,-0.255l-0.007,-0.255l-0.006,-0.256l-0.004,-0.257l-0.003,-0.256l-0.001,-0.257l0.001,-0.257l0.003,-0.256l0.004,-0.256l0.006,-0.256l0.007,-0.256l0.01,-0.255l0.01,-0.255l0.013,-0.254l0.014,-0.253l0.016,-0.254l0.017,-0.253l0.019,-0.253l0.021,-0.252l0.023,-0.252l0.023,-0.251l0.026,-0.251l0.027,-0.251l0.029,-0.25l0.03,-0.25l0.032,-0.249l0.034,-0.248l0.035,-0.249l0.037,-0.248l0.038,-0.247l0.04,-0.246l0.042,-0.247l0.043,-0.246l0.044,-0.245l0.046,-0.245l0.048,-0.244l0.049,-0.244l0.051,-0.243l0.052,-0.243l0.054,-0.242l0.055,-0.241l0.057,-0.242l0.058,-0.24l0.06,-0.24l0.061,-0.239l0.063,-0.239l0.065,-0.238l0.065,-0.238l0.068,-0.237l0.068,-0.236l0.07,-0.236l0.072,-0.235l0.073,-0.235l0.075,-0.234l0.076,-0.233l0.077,-0.233l0.079,-0.232l0.08,-0.231l0.082,-0.231l0.083,-0.231l0.085,-0.229l0.086,-0.229l0.087,-0.228l0.089,-0.228l0.09,-0.227l0.091,-0.226l0.093,-0.225l0.094,-0.225l0.096,-0.224l0.097,-0.223l0.098,-0.223l0.1,-0.222l0.101,-0.221l0.103,-0.221l0.103,-0.22l0.105,-0.218l0.107,-0.219l0.108,-0.218l0.108,-0.216l0.111,-0.217l0.112,-0.215l0.112,-0.215l0.115,-0.213l0.115,-0.213l0.117,-0.213l0.118,-0.211l0.119,-0.211l0.121,-0.21l0.122,-0.209l0.123,-0.208l0.125,-0.208l0.125,-0.207l0.127,-0.205l0.128,-0.205l0.129,-0.205l0.131,-0.203l0.132,-0.203l0.133,-0.202l0.134,-0.201l0.135,-0.199l0.137,-0.2l0.138,-0.198l0.139,-0.198l0.14,-0.196l0.141,-0.196l0.143,-0.195l0.144,-0.194l0.144,-0.193l0.147,-0.192l0.147,-0.192l0.148,-0.19l0.149,-0.19l0.151,-0.188l0.152,-0.188l0.153,-0.187l0.154,-0.186l0.155,-0.185l0.156,-0.183l0.157,-0.183l0.159,-0.183l0.159,-0.181l0.161,-0.18l0.161,-0.18l0.163,-0.178l0.164,-0.177l0.165,-0.177l0.166,-0.175l0.167,-0.175l0.168,-0.173l0.169,-0.172l0.17,-0.172l0.172,-0.17l0.172,-0.17l0.173,-0.168l0.174,-0.168l0.176,-0.166l0.176,-0.166l0.178,-0.164l0.178,-0.164l0.179,-0.162l0.181,-0.161l0.181,-0.16l0.182,-0.16l0.184,-0.158l0.184,-0.157l0.185,-0.156l0.186,-0.155l0.188,-0.154l0.188,-0.153l0.189,-0.152l0.19,-0.15l0.191,-0.15l0.192,-0.149l0.193,-0.147l0.194,-0.146l0.194,-0.146l0.196,-0.144l0.196,-0.143l0.198,-0.141l0.198,-0.141l0.199,-0.14l0.2,-0.138l0.201,-0.138l0.203,-0.136l0.202,-0.135l0.204,-0.134l0.204,-0.132l0.206,-0.132l0.206,-0.13l0.207,-0.13l0.208,-0.128l0.209,-0.127l0.209,-0.125l0.211,-0.125l0.211,-0.123l0.212,-0.122l0.213,-0.121l0.214,-0.12l0.214,-0.118l0.216,-0.117l0.216,-0.116l0.217,-0.115l0.217,-0.114l0.219,-0.112l0.219,-0.111l0.22,-0.11l0.221,-0.108l0.222,-0.108l0.222,-0.106l0.223,-0.105l0.224,-0.103l0.224,-0.102l0.226,-0.101l0.226,-0.1l0.227,-0.098l0.227,-0.097l0.229,-0.096l0.228,-0.094l0.23,-0.094l0.23,-0.091l0.231,-0.091l0.232,-0.089l0.232,-0.088l0.233,-0.086l0.234,-0.086l0.235,-0.083l0.235,-0.083l0.236,-0.081l0.236,-0.08l0.237,-0.078l0.238,-0.077l0.238,-0.076l0.239,-0.074l0.24,-0.073l0.24,-0.071l0.241,-0.071l0.241,-0.068l0.242,-0.068l0.243,-0.065l0.243,-0.065l0.244,-0.063l0.244,-0.062l0.246,-0.06l0.245,-0.059l0.246,-0.057l0.247,-0.056l0.247,-0.054l0.248,-0.053l0.249,-0.052l0.249,-0.05l0.249,-0.048l0.25,-0.048l0.251,-0.045l0.251,-0.044l0.251,-0.043l0.252,-0.041l0.253,-0.04l0.253,-0.038l0.254,-0.037l0.254,-0.035l0.254,-0.034l0.255,-0.032l0.256,-0.031l0.256,-0.029l0.256,-0.027l0.257,-0.026l0.257,-0.025l0.258,-0.023l0.258,-0.021l0.259,-0.02l0.259,-0.018l0.259,-0.017l0.26,-0.015l0.261,-0.014l0.26,-0.012l0.261,-0.01l0.262,-0.009l0.262,-0.007l0.262,-0.006l0.263,-0.004l0.263,-0.002l0.263,-0.001l0.263,0.001Zm-0.481,7.33l-0.219,0.002l-0.217,0.004l-0.218,0.004l-0.216,0.006l-0.217,0.007l-0.216,0.009l-0.216,0.01l-0.216,0.011l-0.215,0.013l-0.214,0.014l-0.215,0.015l-0.214,0.016l-0.213,0.018l-0.213,0.019l-0.213,0.02l-0.212,0.022l-0.212,0.022l-0.212,0.024l-0.211,0.026l-0.21,0.026l-0.211,0.028l-0.209,0.029l-0.21,0.03l-0.209,0.032l-0.208,0.033l-0.208,0.034l-0.208,0.035l-0.207,0.036l-0.207,0.038l-0.206,0.039l-0.206,0.04l-0.205,0.041l-0.205,0.043l-0.204,0.044l-0.204,0.044l-0.204,0.047l-0.202,0.047l-0.203,0.048l-0.202,0.05l-0.201,0.051l-0.201,0.052l-0.201,0.053l-0.2,0.054l-0.199,0.056l-0.199,0.056l-0.198,0.058l-0.198,0.059l-0.197,0.06l-0.197,0.061l-0.197,0.062l-0.195,0.064l-0.196,0.064l-0.194,0.066l-0.194,0.067l-0.194,0.068l-0.193,0.069l-0.192,0.07l-0.192,0.071l-0.192,0.072l-0.19,0.074l-0.19,0.074l-0.19,0.076l-0.189,0.076l-0.189,0.078l-0.187,0.079l-0.187,0.08l-0.187,0.081l-0.186,0.082l-0.185,0.083l-0.185,0.084l-0.185,0.085l-0.183,0.086l-0.183,0.087l-0.182,0.089l-0.182,0.089l-0.181,0.09l-0.18,0.092l-0.18,0.092l-0.179,0.093l-0.178,0.095l-0.178,0.095l-0.177,0.097l-0.177,0.097l-0.176,0.099l-0.175,0.099l-0.174,0.1l-0.174,0.102l-0.173,0.102l-0.172,0.103l-0.172,0.105l-0.171,0.105l-0.17,0.106l-0.17,0.107l-0.168,0.108l-0.168,0.11l-0.168,0.11l-0.166,0.111l-0.166,0.111l-0.165,0.113l-0.165,0.114l-0.163,0.115l-0.163,0.115l-0.163,0.117l-0.161,0.117l-0.161,0.119l-0.16,0.119l-0.159,0.12l-0.158,0.121l-0.158,0.122l-0.156,0.123l-0.156,0.123l-0.156,0.125l-0.154,0.126l-0.154,0.126l-0.153,0.127l-0.152,0.128l-0.151,0.129l-0.15,0.13l-0.15,0.13l-0.149,0.132l-0.148,0.132l-0.147,0.133l-0.146,0.134l-0.145,0.135l-0.145,0.136l-0.144,0.136l-0.142,0.138l-0.142,0.138l-0.142,0.139l-0.14,0.139l-0.139,0.141l-0.139,0.141l-0.138,0.142l-0.136,0.143l-0.136,0.143l-0.135,0.145l-0.134,0.145l-0.134,0.146l-0.132,0.147l-0.131,0.147l-0.131,0.148l-0.129,0.149l-0.129,0.15l-0.127,0.15l-0.127,0.152l-0.126,0.152l-0.125,0.152l-0.124,0.154l-0.123,0.154l-0.122,0.154l-0.121,0.156l-0.121,0.156l-0.119,0.157l-0.118,0.158l-0.117,0.158l-0.117,0.159l-0.115,0.16l-0.114,0.161l-0.114,0.161l-0.112,0.161l-0.111,0.163l-0.111,0.163l-0.109,0.164l-0.108,0.164l-0.108,0.165l-0.106,0.166l-0.106,0.166l-0.104,0.167l-0.103,0.168l-0.103,0.168l-0.101,0.169l-0.1,0.17l-0.099,0.17l-0.098,0.17l-0.097,0.172l-0.097,0.172l-0.094,0.173l-0.094,0.173l-0.093,0.174l-0.092,0.174l-0.091,0.175l-0.089,0.175l-0.089,0.177l-0.087,0.176l-0.087,0.177l-0.085,0.179l-0.084,0.178l-0.083,0.179l-0.082,0.18l-0.081,0.18l-0.08,0.18l-0.079,0.182l-0.077,0.181l-0.077,0.182l-0.075,0.184l-0.074,0.183l-0.073,0.184l-0.072,0.184l-0.071,0.185l-0.07,0.185l-0.068,0.186l-0.067,0.187l-0.067,0.187l-0.065,0.187l-0.064,0.188l-0.062,0.189l-0.062,0.189l-0.06,0.189l-0.059,0.19l-0.058,0.19l-0.057,0.191l-0.056,0.192l-0.054,0.192l-0.053,0.192l-0.052,0.193l-0.051,0.193l-0.05,0.194l-0.048,0.194l-0.048,0.194l-0.045,0.195l-0.045,0.196l-0.044,0.196l-0.042,0.196l-0.041,0.197l-0.04,0.197l-0.038,0.198l-0.038,0.198l-0.036,0.198l-0.035,0.199l-0.033,0.199l-0.032,0.2l-0.031,0.2l-0.03,0.201l-0.029,0.201l-0.027,0.201l-0.026,0.202l-0.024,0.202l-0.024,0.203l-0.022,0.203l-0.02,0.203l-0.02,0.204l-0.018,0.204l-0.017,0.204l-0.015,0.205l-0.014,0.206l-0.013,0.205l-0.012,0.206l-0.01,0.206l-0.009,0.207l-0.007,0.207l-0.006,0.207l-0.005,0.208l-0.003,0.208l-0.002,0.208l-0.001,0.209l0.001,0.209l0.002,0.208l0.003,0.208l0.005,0.208l0.006,0.207l0.007,0.208l0.009,0.206l0.01,0.206l0.012,0.207l0.013,0.205l0.014,0.205l0.015,0.205l0.017,0.204l0.018,0.204l0.02,0.204l0.02,0.204l0.022,0.203l0.024,0.202l0.024,0.202l0.026,0.202l0.027,0.201l0.029,0.201l0.03,0.201l0.031,0.2l0.032,0.2l0.033,0.199l0.035,0.199l0.036,0.199l0.038,0.197l0.038,0.198l0.04,0.197l0.041,0.197l0.042,0.196l0.044,0.197l0.045,0.195l0.045,0.195l0.048,0.195l0.048,0.194l0.05,0.193l0.051,0.193l0.052,0.193l0.053,0.192l0.054,0.193l0.056,0.191l0.057,0.191l0.058,0.19l0.059,0.19l0.06,0.189l0.062,0.189l0.062,0.189l0.064,0.188l0.065,0.188l0.067,0.186l0.067,0.187l0.068,0.186l0.07,0.185l0.071,0.185l0.072,0.185l0.073,0.183l0.074,0.184l0.075,0.183l0.077,0.182l0.077,0.182l0.079,0.181l0.08,0.181l0.081,0.18l0.082,0.179l0.083,0.179l0.084,0.179l0.085,0.178l0.087,0.177l0.087,0.176l0.089,0.177l0.089,0.175l0.091,0.175l0.092,0.175l0.093,0.174l0.094,0.173l0.094,0.172l0.097,0.172l0.097,0.172l0.098,0.17l0.099,0.171l0.1,0.169l0.101,0.169l0.103,0.168l0.103,0.168l0.104,0.167l0.106,0.166l0.106,0.166l0.108,0.165l0.108,0.164l0.109,0.164l0.111,0.163l0.111,0.163l0.112,0.162l0.114,0.161l0.114,0.16l0.115,0.16l0.117,0.159l0.117,0.158l0.118,0.158l0.119,0.157l0.121,0.156l0.121,0.156l0.122,0.154l0.123,0.154l0.124,0.154l0.125,0.152l0.126,0.153l0.126,0.151l0.128,0.15l0.129,0.15l0.129,0.149l0.131,0.148l0.131,0.148l0.133,0.146l0.133,0.146l0.134,0.145l0.135,0.145l0.136,0.143l0.136,0.143l0.138,0.142l0.139,0.142l0.139,0.14l0.14,0.139l0.142,0.14l0.142,0.138l0.142,0.137l0.144,0.136l0.145,0.136l0.145,0.135l0.146,0.134l0.147,0.133l0.148,0.132l0.149,0.132l0.15,0.13l0.15,0.13l0.151,0.129l0.152,0.128l0.153,0.127l0.154,0.126l0.154,0.126l0.155,0.125l0.156,0.123l0.157,0.123l0.158,0.122l0.158,0.121l0.159,0.12l0.16,0.12l0.161,0.118l0.161,0.117l0.163,0.117l0.162,0.115l0.164,0.115l0.165,0.114l0.165,0.113l0.166,0.112l0.166,0.111l0.168,0.11l0.168,0.109l0.169,0.108l0.169,0.107l0.17,0.106l0.171,0.106l0.172,0.104l0.172,0.103l0.173,0.102l0.174,0.102l0.174,0.1l0.176,0.1l0.175,0.098l0.177,0.097l0.177,0.097l0.177,0.095l0.179,0.095l0.179,0.093l0.18,0.092l0.18,0.092l0.181,0.09l0.182,0.089l0.182,0.089l0.183,0.087l0.183,0.086l0.185,0.085l0.184,0.084l0.186,0.083l0.186,0.082l0.187,0.081l0.187,0.08l0.188,0.079l0.188,0.078l0.189,0.076l0.19,0.076l0.19,0.075l0.19,0.073l0.192,0.072l0.192,0.071l0.192,0.071l0.193,0.069l0.193,0.067l0.195,0.067l0.195,0.066l0.195,0.065l0.195,0.063l0.197,0.062l0.197,0.061l0.197,0.06l0.198,0.059l0.198,0.058l0.199,0.057l0.2,0.055l0.199,0.054l0.201,0.054l0.201,0.051l0.201,0.051l0.202,0.05l0.203,0.048l0.202,0.048l0.204,0.046l0.204,0.045l0.204,0.043l0.205,0.043l0.205,0.041l0.206,0.04l0.206,0.039l0.207,0.038l0.207,0.036l0.208,0.035l0.208,0.034l0.208,0.033l0.209,0.032l0.21,0.03l0.209,0.029l0.211,0.028l0.21,0.026l0.211,0.026l0.212,0.024l0.212,0.023l0.212,0.021l0.213,0.02l0.213,0.019l0.213,0.018l0.214,0.016l0.215,0.016l0.214,0.013l0.215,0.013l0.216,0.011l0.216,0.01l0.216,0.009l0.216,0.007l0.217,0.006l0.218,0.005l0.218,0.003l0.217,0.002l0.219,0.001l0.219,-0.001l0.217,-0.002l0.218,-0.003l0.218,-0.005l0.217,-0.006l0.216,-0.007l0.216,-0.009l0.216,-0.01l0.216,-0.011l0.215,-0.013l0.214,-0.013l0.215,-0.016l0.214,-0.016l0.213,-0.018l0.213,-0.019l0.213,-0.02l0.212,-0.021l0.212,-0.023l0.212,-0.024l0.211,-0.026l0.21,-0.026l0.211,-0.028l0.209,-0.029l0.21,-0.03l0.209,-0.032l0.208,-0.033l0.208,-0.034l0.208,-0.035l0.207,-0.036l0.207,-0.038l0.206,-0.039l0.206,-0.04l0.205,-0.041l0.205,-0.043l0.204,-0.043l0.204,-0.045l0.204,-0.046l0.202,-0.048l0.203,-0.048l0.202,-0.05l0.201,-0.051l0.201,-0.052l0.201,-0.053l0.199,-0.054l0.2,-0.055l0.199,-0.057l0.198,-0.058l0.198,-0.059l0.198,-0.06l0.196,-0.061l0.197,-0.062l0.195,-0.063l0.196,-0.065l0.194,-0.066l0.194,-0.067l0.194,-0.067l0.193,-0.069l0.192,-0.071l0.192,-0.071l0.192,-0.072l0.19,-0.073l0.191,-0.075l0.189,-0.076l0.189,-0.076l0.189,-0.078l0.187,-0.079l0.188,-0.08l0.186,-0.081l0.186,-0.082l0.186,-0.083l0.184,-0.084l0.184,-0.085l0.184,-0.086l0.183,-0.087l0.182,-0.089l0.182,-0.089l0.181,-0.09l0.18,-0.092l0.18,-0.092l0.179,-0.093l0.179,-0.095l0.177,-0.095l0.177,-0.097l0.177,-0.097l0.176,-0.098l0.175,-0.1l0.174,-0.1l0.174,-0.102l0.173,-0.102l0.172,-0.103l0.172,-0.104l0.171,-0.106l0.17,-0.106l0.169,-0.107l0.169,-0.108l0.168,-0.109l0.168,-0.11l0.166,-0.111l0.166,-0.112l0.166,-0.113l0.164,-0.114l0.164,-0.115l0.162,-0.115l0.163,-0.117l0.161,-0.117l0.161,-0.119l0.16,-0.119l0.159,-0.12l0.158,-0.121l0.158,-0.122l0.157,-0.123l0.156,-0.124l0.155,-0.124l0.154,-0.125l0.154,-0.127l0.153,-0.127l0.152,-0.128l0.151,-0.129l0.15,-0.13l0.15,-0.131l0.149,-0.131l0.148,-0.132l0.147,-0.133l0.146,-0.134l0.145,-0.135l0.145,-0.136l0.144,-0.136l0.142,-0.137l0.142,-0.138l0.142,-0.139l0.14,-0.14l0.139,-0.14l0.139,-0.142l0.138,-0.142l0.136,-0.143l0.136,-0.143l0.135,-0.145l0.134,-0.145l0.133,-0.146l0.133,-0.146l0.131,-0.148l0.131,-0.148l0.129,-0.149l0.129,-0.15l0.128,-0.15l0.126,-0.151l0.126,-0.152l0.125,-0.153l0.124,-0.154l0.123,-0.154l0.122,-0.154l0.121,-0.156l0.121,-0.156l0.119,-0.157l0.118,-0.158l0.117,-0.158l0.117,-0.159l0.115,-0.16l0.114,-0.16l0.114,-0.161l0.112,-0.162l0.111,-0.163l0.111,-0.163l0.109,-0.164l0.109,-0.164l0.107,-0.165l0.106,-0.166l0.106,-0.166l0.104,-0.167l0.103,-0.168l0.102,-0.168l0.102,-0.169l0.1,-0.17l0.099,-0.17l0.098,-0.17l0.098,-0.172l0.095,-0.172l0.095,-0.172l0.094,-0.174l0.093,-0.173l0.092,-0.175l0.091,-0.175l0.089,-0.175l0.089,-0.176l0.087,-0.177l0.087,-0.178l0.085,-0.177l0.084,-0.179l0.083,-0.179l0.082,-0.18l0.081,-0.179l0.08,-0.181l0.079,-0.181l0.077,-0.182l0.077,-0.183l0.075,-0.182l0.074,-0.183l0.073,-0.184l0.072,-0.185l0.071,-0.185l0.07,-0.185l0.068,-0.186l0.067,-0.187l0.067,-0.187l0.065,-0.187l0.064,-0.188l0.062,-0.189l0.062,-0.188l0.06,-0.19l0.059,-0.19l0.058,-0.19l0.057,-0.191l0.056,-0.192l0.054,-0.192l0.053,-0.192l0.052,-0.192l0.051,-0.193l0.05,-0.195l0.048,-0.194l0.047,-0.194l0.046,-0.195l0.045,-0.195l0.044,-0.197l0.042,-0.196l0.041,-0.197l0.04,-0.197l0.038,-0.198l0.038,-0.198l0.036,-0.198l0.035,-0.199l0.033,-0.199l0.032,-0.2l0.031,-0.2l0.03,-0.201l0.029,-0.201l0.027,-0.201l0.026,-0.202l0.024,-0.202l0.024,-0.202l0.022,-0.203l0.02,-0.204l0.02,-0.204l0.018,-0.204l0.017,-0.204l0.015,-0.205l0.014,-0.205l0.013,-0.206l0.012,-0.206l0.01,-0.206l0.009,-0.207l0.007,-0.207l0.006,-0.207l0.005,-0.208l0.003,-0.208l0.002,-0.208l0.001,-0.209l-0.001,-0.209l-0.002,-0.208l-0.003,-0.208l-0.005,-0.208l-0.006,-0.207l-0.007,-0.207l-0.009,-0.207l-0.01,-0.206l-0.012,-0.206l-0.013,-0.206l-0.014,-0.205l-0.015,-0.205l-0.017,-0.204l-0.018,-0.204l-0.02,-0.204l-0.02,-0.203l-0.022,-0.203l-0.024,-0.203l-0.024,-0.202l-0.026,-0.202l-0.027,-0.201l-0.029,-0.201l-0.03,-0.201l-0.031,-0.199l-0.032,-0.2l-0.033,-0.2l-0.035,-0.199l-0.036,-0.198l-0.038,-0.198l-0.038,-0.198l-0.04,-0.197l-0.041,-0.197l-0.042,-0.196l-0.044,-0.196l-0.045,-0.196l-0.046,-0.195l-0.047,-0.194l-0.048,-0.194l-0.05,-0.194l-0.051,-0.194l-0.052,-0.192l-0.053,-0.192l-0.054,-0.192l-0.056,-0.192l-0.057,-0.191l-0.058,-0.19l-0.059,-0.19l-0.06,-0.189l-0.062,-0.189l-0.062,-0.189l-0.064,-0.188l-0.065,-0.187l-0.067,-0.187l-0.067,-0.187l-0.068,-0.186l-0.07,-0.185l-0.071,-0.185l-0.072,-0.184l-0.073,-0.184l-0.074,-0.183l-0.075,-0.183l-0.077,-0.183l-0.077,-0.181l-0.079,-0.182l-0.08,-0.18l-0.081,-0.18l-0.082,-0.18l-0.083,-0.179l-0.084,-0.179l-0.085,-0.177l-0.087,-0.178l-0.087,-0.176l-0.089,-0.176l-0.089,-0.176l-0.091,-0.175l-0.092,-0.174l-0.093,-0.174l-0.094,-0.173l-0.095,-0.173l-0.096,-0.172l-0.097,-0.172l-0.098,-0.17l-0.099,-0.17l-0.1,-0.17l-0.102,-0.169l-0.102,-0.168l-0.103,-0.168l-0.104,-0.167l-0.106,-0.166l-0.106,-0.166l-0.107,-0.165l-0.109,-0.164l-0.109,-0.164l-0.111,-0.163l-0.111,-0.163l-0.112,-0.161l-0.114,-0.162l-0.114,-0.16l-0.115,-0.159l-0.117,-0.16l-0.117,-0.158l-0.118,-0.158l-0.119,-0.157l-0.121,-0.156l-0.121,-0.155l-0.122,-0.155l-0.123,-0.154l-0.124,-0.154l-0.125,-0.152l-0.126,-0.152l-0.126,-0.152l-0.128,-0.15l-0.129,-0.15l-0.129,-0.149l-0.131,-0.148l-0.131,-0.147l-0.133,-0.147l-0.133,-0.146l-0.134,-0.145l-0.135,-0.145l-0.136,-0.143l-0.137,-0.143l-0.137,-0.142l-0.139,-0.141l-0.139,-0.141l-0.141,-0.14l-0.141,-0.138l-0.142,-0.138l-0.142,-0.138l-0.144,-0.136l-0.145,-0.136l-0.145,-0.135l-0.146,-0.134l-0.147,-0.133l-0.148,-0.132l-0.149,-0.131l-0.15,-0.131l-0.15,-0.13l-0.151,-0.129l-0.152,-0.128l-0.153,-0.127l-0.154,-0.126l-0.154,-0.126l-0.155,-0.124l-0.157,-0.124l-0.156,-0.123l-0.158,-0.122l-0.158,-0.121l-0.159,-0.12l-0.16,-0.119l-0.161,-0.119l-0.161,-0.117l-0.163,-0.117l-0.163,-0.115l-0.163,-0.115l-0.164,-0.114l-0.166,-0.113l-0.166,-0.112l-0.166,-0.111l-0.168,-0.109l-0.168,-0.109l-0.168,-0.109l-0.17,-0.107l-0.17,-0.106l-0.171,-0.105l-0.172,-0.105l-0.172,-0.103l-0.173,-0.102l-0.174,-0.102l-0.174,-0.1l-0.175,-0.099l-0.176,-0.099l-0.177,-0.097l-0.177,-0.097l-0.178,-0.095l-0.178,-0.095l-0.179,-0.093l-0.18,-0.092l-0.18,-0.092l-0.181,-0.09l-0.182,-0.089l-0.182,-0.089l-0.183,-0.087l-0.184,-0.086l-0.184,-0.085l-0.184,-0.084l-0.186,-0.083l-0.186,-0.082l-0.186,-0.081l-0.188,-0.08l-0.187,-0.079l-0.189,-0.078l-0.189,-0.076l-0.19,-0.076l-0.19,-0.074l-0.19,-0.074l-0.192,-0.072l-0.192,-0.071l-0.192,-0.07l-0.193,-0.069l-0.194,-0.068l-0.194,-0.067l-0.194,-0.066l-0.196,-0.064l-0.195,-0.064l-0.197,-0.062l-0.196,-0.061l-0.198,-0.06l-0.198,-0.059l-0.198,-0.058l-0.199,-0.056l-0.199,-0.056l-0.2,-0.054l-0.201,-0.053l-0.201,-0.052l-0.201,-0.051l-0.202,-0.05l-0.203,-0.048l-0.203,-0.047l-0.203,-0.047l-0.204,-0.044l-0.204,-0.044l-0.205,-0.043l-0.205,-0.041l-0.206,-0.04l-0.206,-0.039l-0.207,-0.038l-0.207,-0.036l-0.208,-0.035l-0.208,-0.034l-0.208,-0.033l-0.209,-0.032l-0.21,-0.03l-0.209,-0.029l-0.211,-0.028l-0.21,-0.026l-0.211,-0.026l-0.212,-0.024l-0.212,-0.022l-0.212,-0.022l-0.213,-0.02l-0.213,-0.019l-0.213,-0.018l-0.214,-0.016l-0.215,-0.015l-0.214,-0.014l-0.215,-0.013l-0.216,-0.011l-0.216,-0.01l-0.216,-0.009l-0.217,-0.007l-0.216,-0.006l-0.218,-0.004l-0.217,-0.004l-0.219,-0.002l-0.218,-0.001l-0.218,0.001Z"/><path d="M460,480c0,0 67.708,-136.192 67.708,-194.56c0,-36.118 -30.339,-65.44 -67.708,-65.44c-37.369,0 -67.708,29.322 -67.708,65.44c0,58.368 67.708,194.56 67.708,194.56Zm0,-220.46c20.571,0 37.271,16.142 37.271,36.023c0,19.882 -16.7,36.023 -37.271,36.023c-20.571,0 -37.271,-16.141 -37.271,-36.023c0,-19.881 16.7,-36.023 37.271,-36.023Z"/></svg>