<?xml version="1.0" encoding="UTF-8" standalone="no"?><!DOCTYPE svg PUBLIC "-//W3C//DTD SVG 1.1//EN" "http://www.w3.org/Graphics/SVG/1.1/DTD/svg11.dtd"><svg width="100%" height="100%" viewBox="0 0 800 600" version="1.1" xmlns="http://www.w3.org/2000/svg" xmlns:xlink="http://www.w3.org/1999/xlink" xml:space="preserve" xmlns:serif="http://www.serif.com/" style="fill-rule:evenodd;clip-rule:evenodd;stroke-linejoin:round;stroke-miterlimit:2;"><rect id="Artboard1" x="0" y="0" width="800" height="600" style="fill:none;"/><g id="Artboard11" serif:id="Artboard1"><g><path d="M387.979,96l-277.128,160l277.128,160l277.129,-160l-277.129,-160Z" style="fill:#ebebeb;"/><path d="M388.848,91.076l1.631,0.594l277.128,160l1.546,1.391l0.845,1.899l0,2.08l-0.845,1.899l-1.546,1.391l-277.128,160c-1.42,0.517 -1.808,0.869 -3.368,0.594c-0.57,-0.1 -1.088,-0.396 -1.632,-0.594l-277.128,-160l-1.545,-1.391l-0.845,-1.899l0,-2.08l0.845,-1.899l1.545,-1.391l277.128,-160l1.632,-0.594c0.579,0 1.158,0 1.737,0Zm-267.997,164.924l267.128,154.226l267.128,-154.226l-267.128,-154.226c-89.042,51.408 -178.085,102.817 -267.128,154.226Z"/><path d="M288.408,198.513c-53.19,30.518 -11.743,128.156 42.952,101.487c53.258,-26.844 77.805,7.391 114.055,42" style="fill:#ebebeb;"/><path d="M436.417,327.854c2.144,0.3 2.267,0.686 3.109,1.425c3.095,3.056 6.203,6.101 9.346,9.109c0,0 2.354,3.23 0.995,5.888c-1.396,2.732 -5.407,3.466 -7.909,1.336c-2.799,-2.679 -5.575,-5.386 -8.355,-8.128c-0.468,-0.462 -3.152,-3.135 -2.428,-5.909c0.584,-2.236 2.758,-3.777 5.242,-3.721Zm-37.598,-32.762c1.336,0.196 0.748,-0.181 2.628,0.999c0.423,0.265 0.843,0.533 1.261,0.805c7.964,5.175 15.145,11.468 22.057,17.975c0,0 2.84,3.392 1.41,6.236c-1.378,2.741 -5.384,3.502 -7.9,1.389c-7.042,-6.649 -14.305,-13.046 -22.519,-18.17c0,0 -0.905,-0.715 -0.905,-0.715c-2.693,-3.023 -0.876,-8.657 3.968,-8.519Zm-66.372,-0.304c4.37,0.782 5.937,7.284 1.463,9.526c-1.559,0.781 -1.702,0.82 -2.464,1.154c-9.375,4.1 -19.988,5.276 -29.965,2.583c0,0 -2.954,-1.189 -3.572,-3.588c-0.9,-3.489 2.72,-6.97 6.694,-5.929c8.244,2.093 17.188,0.677 24.83,-3.162c0,0 0.127,-0.76 3.014,-0.584Zm-62.996,-30.764c3.273,0.681 3.307,1.705 4.58,4.726c3.33,7.81 8.111,15.077 14.427,20.797l0.706,0.673c3.138,3.947 1.097,5.886 -0.616,7.247c-3.338,2.654 -8.025,-1.276 -11.811,-5.598c-5.36,-6.119 -9.503,-13.116 -12.558,-20.784c-1.772,-4.448 2,-7.352 5.272,-7.061Zm97.616,21.348c4.765,0.04 9.515,0.642 14.13,1.796c0,0 3.076,1.102 3.762,3.538c0.96,3.414 -2.558,7.079 -6.209,6.158c-0.269,-0.067 -0.537,-0.132 -0.807,-0.196c-8.528,-1.983 -17.543,-1.498 -26.073,0.705c0,0 -4.484,0.434 -5.932,-2.716c-1.341,-2.916 0.744,-6.304 4.283,-7.183c5.519,-1.37 11.192,-2.125 16.846,-2.102Zm-97.92,-70.067c3.495,0.685 4.969,4.35 3.289,8.386c-3.255,7.958 -4.21,16.754 -3.423,25.326c0,0 -0.14,3.623 -2.556,4.954c-3.173,1.747 -7.17,-0.779 -7.515,-5.377c-0.777,-10.33 0.698,-20.811 4.928,-30.291c0,0 1.532,-2.493 3.542,-2.929c1.073,-0.234 1.369,-0.097 1.735,-0.069Zm20.126,-21.717c4.271,1.009 5.477,6.913 0.51,9.92c-2.194,1.349 -4.28,2.87 -6.223,4.563c0,0 -3.467,2.029 -5.954,0.459c-2.9,-1.831 -2.742,-6.224 0.201,-8.7c2.028,-1.706 4.184,-3.259 6.437,-4.655c1.336,-0.828 2.681,-1.86 5.029,-1.587Z"/><g><path d="M288.516,174.617c0.879,0.066 1.12,0.157 1.583,0.337c1.868,0.73 3.099,2.219 3.18,4.624l0.258,37.801c-0.053,2.59 -0.74,2.875 -1.537,3.641c-2.672,2.566 -8.198,0.89 -8.454,-3.302c-0.005,-0.09 -0.006,-0.181 -0.009,-0.271l-0.257,-37.801c0.02,-0.998 0.126,-1.299 0.342,-1.853c0.73,-1.868 2.219,-3.1 4.624,-3.181c0.09,0.002 0.18,0.004 0.27,0.005Z"/><path d="M288.537,217.413l-0.257,-37.801l0.257,37.801Z" style="fill:#b00;"/><path d="M321.491,193.45c4.889,0.515 6.705,9.721 -0.334,9.988l-65.475,0.149c-4.422,-0.148 -6.857,-6.946 -2.417,-9.383c0.687,-0.377 1.075,-0.567 2.395,-0.617l65.474,-0.149c0.119,0.004 0.238,0.008 0.357,0.012Z"/><path d="M255.671,198.587l65.474,-0.149" style="fill:none;"/></g><path d="M445.725,150.342l0.309,0.003l0.308,0.005l0.308,0.007l0.308,0.008l0.307,0.011l0.306,0.013l0.307,0.014l0.305,0.017l0.305,0.018l0.305,0.02l0.304,0.023l0.304,0.024l0.303,0.026l0.303,0.028l0.302,0.029l0.301,0.032l0.302,0.033l0.3,0.036l0.3,0.037l0.299,0.039l0.299,0.041l0.298,0.043l0.298,0.044l0.297,0.047l0.296,0.048l0.296,0.05l0.295,0.052l0.295,0.053l0.294,0.056l0.293,0.057l0.293,0.059l0.292,0.061l0.291,0.062l0.291,0.065l0.29,0.066l0.29,0.068l0.289,0.069l0.288,0.072l0.287,0.073l0.287,0.074l0.286,0.077l0.285,0.078l0.285,0.08l0.284,0.082l0.283,0.083l0.283,0.085l0.281,0.087l0.281,0.088l0.281,0.091l0.279,0.091l0.279,0.094l0.278,0.095l0.277,0.097l0.276,0.098l0.276,0.1l0.275,0.102l0.274,0.103l0.273,0.105l0.273,0.107l0.271,0.108l0.271,0.11l0.27,0.111l0.269,0.113l0.269,0.114l0.267,0.117l0.267,0.117l0.266,0.12l0.265,0.12l0.264,0.123l0.263,0.124l0.262,0.125l0.262,0.127l0.26,0.129l0.26,0.13l0.259,0.132l0.257,0.133l0.257,0.134l0.256,0.136l0.255,0.138l0.254,0.139l0.254,0.141l0.252,0.142l0.251,0.143l0.251,0.146l0.249,0.146l0.248,0.148l0.248,0.149l0.246,0.151l0.246,0.153l0.244,0.153l0.244,0.155l0.243,0.157l0.241,0.158l0.24,0.159l0.24,0.161l0.238,0.162l0.238,0.164l0.236,0.165l0.236,0.166l0.234,0.168l0.233,0.169l0.232,0.171l0.231,0.171l0.23,0.174l0.229,0.174l0.228,0.176l0.227,0.177l0.226,0.178l0.224,0.18l0.224,0.181l0.222,0.183l0.221,0.184l0.221,0.185l0.219,0.186l0.217,0.188l0.217,0.189l0.216,0.19l0.214,0.191l0.213,0.193l0.213,0.194l0.211,0.195l0.209,0.196l0.209,0.198l0.207,0.199l0.207,0.2l0.204,0.202l0.204,0.202l0.203,0.204l0.201,0.205l0.2,0.206l0.199,0.208l0.198,0.208l0.197,0.21l0.195,0.211l0.194,0.212l0.192,0.213l0.192,0.215l0.19,0.215l0.189,0.217l0.187,0.218l0.187,0.219l0.185,0.22l0.184,0.221l0.182,0.223l0.181,0.223l0.18,0.225l0.178,0.225l0.178,0.227l0.176,0.228l0.174,0.229l0.173,0.23l0.172,0.231l0.17,0.232l0.17,0.234l0.167,0.234l0.167,0.235l0.165,0.237l0.163,0.237l0.162,0.239l0.161,0.239l0.16,0.24l0.158,0.242l0.156,0.243l0.155,0.243l0.154,0.244l0.152,0.246l0.151,0.247l0.149,0.247l0.148,0.248l0.147,0.25l0.145,0.25l0.144,0.251l0.142,0.253l0.14,0.253l0.139,0.254l0.138,0.255l0.136,0.256l0.135,0.257l0.133,0.258l0.132,0.259l0.13,0.259l0.128,0.261l0.127,0.261l0.126,0.263l0.124,0.263l0.122,0.264l0.121,0.265l0.119,0.266l0.118,0.266l0.116,0.268l0.115,0.268l0.113,0.269l0.111,0.27l0.11,0.271l0.108,0.272l0.106,0.272l0.105,0.273l0.104,0.275l0.101,0.274l0.1,0.276l0.099,0.276l0.097,0.278l0.095,0.278l0.093,0.278l0.092,0.28l0.09,0.28l0.088,0.281l0.087,0.282l0.085,0.282l0.084,0.284l0.081,0.284l0.08,0.284l0.078,0.285l0.077,0.287l0.075,0.286l0.073,0.288l0.071,0.288l0.07,0.289l0.068,0.289l0.066,0.29l0.064,0.291l0.063,0.291l0.06,0.293l0.059,0.292l0.058,0.294l0.055,0.294l0.054,0.294l0.052,0.295l0.05,0.296l0.048,0.297l0.046,0.297l0.045,0.297l0.043,0.299l0.04,0.298l0.039,0.3l0.038,0.299l0.035,0.301l0.034,0.301l0.031,0.302l0.03,0.302l0.028,0.302l0.026,0.304l0.024,0.303l0.022,0.304l0.02,0.305l0.019,0.305l0.016,0.306l0.015,0.306l0.013,0.307l0.01,0.307l0.009,0.307l0.007,0.308l0.005,0.309l0.003,0.309l0.001,0.308l-0.001,0.25l-0.002,0.25l-0.002,0.251l-0.004,0.252l-0.005,0.253l-0.006,0.254l-0.007,0.255l-0.008,0.257l-0.009,0.257l-0.01,0.258l-0.011,0.26l-0.012,0.26l-0.013,0.262l-0.014,0.262l-0.015,0.264l-0.017,0.264l-0.017,0.266l-0.018,0.266l-0.019,0.268l-0.02,0.269l-0.021,0.269l-0.022,0.271l-0.023,0.271l-0.024,0.273l-0.025,0.273l-0.026,0.275l-0.027,0.275l-0.028,0.276l-0.029,0.277l-0.029,0.279l-0.031,0.279l-0.031,0.28l-0.033,0.281l-0.033,0.282l-0.035,0.283l-0.035,0.284l-0.036,0.285l-0.037,0.287l-0.076,0.573l-0.081,0.577l-0.083,0.581l-0.087,0.585l-0.091,0.588l-0.094,0.591l-0.097,0.595l-0.101,0.598l-0.104,0.602l-0.107,0.604l-0.11,0.608l-0.114,0.611l-0.117,0.614l-0.12,0.617l-0.123,0.62l-0.125,0.623l-0.13,0.626l-0.131,0.628l-0.135,0.632l-0.138,0.634l-0.141,0.637l-0.144,0.64l-0.146,0.642l-0.149,0.644l-0.152,0.648l-0.155,0.649l-0.157,0.652l-0.16,0.655l-0.163,0.656l-0.165,0.66l-0.168,0.661l-0.17,0.663l-0.173,0.666l-0.175,0.667l-0.177,0.67l-0.181,0.671l-0.182,0.674l-0.185,0.675l-0.187,0.677l-0.189,0.679l-0.191,0.681l-0.194,0.682l-0.196,0.684l-0.198,0.685l-0.2,0.687l-0.202,0.688l-0.204,0.69l-0.207,0.691l-0.208,0.693l-0.21,0.693l-0.212,0.695l-0.214,0.696l-0.215,0.697l-0.218,0.699l-0.219,0.699l-0.221,0.7l-0.223,0.701l-0.224,0.702l-0.226,0.702l-0.228,0.704l-0.229,0.704l-0.231,0.705l-0.232,0.705l-0.234,0.706l-0.235,0.706l-0.237,0.707l-0.238,0.707l-0.239,0.707l-0.241,0.708l-0.242,0.708l-0.243,0.708l-0.245,0.708l-0.245,0.708l-0.247,0.708l-0.248,0.709l-0.249,0.708l-0.25,0.708l-0.252,0.708l-0.252,0.707l-0.253,0.707l-0.254,0.707l-0.255,0.707l-0.255,0.706l-0.257,0.705l-0.258,0.705l-0.258,0.704l-0.259,0.704l-0.259,0.703l-0.261,0.702l-0.261,0.701l-0.261,0.701l-0.262,0.699l-0.263,0.699l-0.263,0.697l-0.264,0.697l-0.264,0.695l-0.265,0.694l-0.264,0.693l-0.266,0.691l-0.265,0.69l-0.266,0.689l-0.266,0.688l-0.267,0.686l-0.533,1.366l-0.533,1.36l-0.534,1.353l-0.534,1.346l-0.534,1.337l-0.533,1.33l-0.532,1.32l-0.531,1.311l-0.53,1.302l-0.528,1.292l-0.527,1.281l-0.524,1.27l-0.522,1.259l-0.52,1.247l-0.516,1.235l-0.513,1.223l-0.51,1.209l-0.506,1.196l-0.503,1.182l-0.498,1.168l-0.494,1.153l-0.489,1.138l-0.484,1.123l-0.479,1.106l-0.473,1.09l-0.468,1.073l-0.461,1.057l-0.456,1.038l-0.449,1.02l-0.442,1.002l-0.435,0.983l-0.427,0.963l-0.421,0.944l-0.412,0.924l-0.404,0.903l-0.396,0.881l-0.388,0.861l-0.378,0.838l-0.37,0.816l-0.36,0.794l-0.35,0.77l-0.341,0.746l-0.331,0.724l-0.629,1.37l-0.585,1.271l-0.54,1.165l-0.492,1.058l-0.442,0.946l-0.391,0.832l-0.336,0.713l-0.28,0.592l-0.382,0.805l-2.387,4.99l-2.387,-4.991l-0.382,-0.803l-0.28,-0.593l-0.336,-0.713l-0.39,-0.832l-0.442,-0.946l-0.492,-1.058l-0.54,-1.165l-0.586,-1.271l-0.629,-1.37l-0.33,-0.724l-0.341,-0.746l-0.35,-0.77l-0.36,-0.794l-0.37,-0.816l-0.379,-0.838l-0.387,-0.861l-0.396,-0.881l-0.404,-0.903l-0.413,-0.924l-0.42,-0.944l-0.428,-0.963l-0.435,-0.983l-0.442,-1.002l-0.449,-1.02l-0.455,-1.038l-0.462,-1.057l-0.467,-1.073l-0.474,-1.09l-0.479,-1.106l-0.484,-1.123l-0.489,-1.138l-0.493,-1.153l-0.499,-1.168l-0.502,-1.182l-0.506,-1.196l-0.51,-1.21l-0.513,-1.222l-0.517,-1.235l-0.519,-1.247l-0.522,-1.259l-0.524,-1.27l-0.527,-1.281l-0.528,-1.292l-0.53,-1.302l-0.531,-1.311l-0.532,-1.32l-0.533,-1.33l-0.534,-1.337l-0.534,-1.346l-0.534,-1.353l-0.534,-1.36l-0.533,-1.366l-0.266,-0.686l-0.266,-0.688l-0.266,-0.689l-0.266,-0.69l-0.265,-0.691l-0.265,-0.693l-0.264,-0.694l-0.264,-0.695l-0.264,-0.697l-0.263,-0.697l-0.263,-0.699l-0.262,-0.699l-0.262,-0.701l-0.261,-0.701l-0.26,-0.702l-0.26,-0.703l-0.259,-0.704l-0.258,-0.704l-0.257,-0.705l-0.257,-0.705l-0.256,-0.706l-0.255,-0.707l-0.254,-0.707l-0.253,-0.707l-0.252,-0.707l-0.251,-0.708l-0.25,-0.708l-0.249,-0.708l-0.248,-0.709l-0.247,-0.708l-0.246,-0.708l-0.244,-0.708l-0.243,-0.708l-0.242,-0.708l-0.241,-0.708l-0.239,-0.707l-0.238,-0.707l-0.237,-0.707l-0.235,-0.706l-0.234,-0.706l-0.232,-0.705l-0.231,-0.705l-0.229,-0.704l-0.228,-0.704l-0.226,-0.702l-0.225,-0.702l-0.222,-0.701l-0.221,-0.7l-0.22,-0.699l-0.217,-0.699l-0.216,-0.697l-0.214,-0.696l-0.212,-0.695l-0.21,-0.693l-0.208,-0.693l-0.206,-0.691l-0.204,-0.69l-0.202,-0.688l-0.2,-0.687l-0.198,-0.685l-0.196,-0.684l-0.194,-0.682l-0.191,-0.681l-0.19,-0.679l-0.187,-0.677l-0.184,-0.675l-0.183,-0.674l-0.18,-0.671l-0.177,-0.67l-0.176,-0.667l-0.172,-0.666l-0.171,-0.663l-0.168,-0.661l-0.165,-0.66l-0.162,-0.656l-0.16,-0.655l-0.158,-0.652l-0.154,-0.649l-0.152,-0.648l-0.149,-0.644l-0.147,-0.642l-0.143,-0.64l-0.141,-0.637l-0.138,-0.634l-0.135,-0.632l-0.132,-0.628l-0.129,-0.626l-0.126,-0.623l-0.123,-0.62l-0.12,-0.617l-0.116,-0.614l-0.114,-0.611l-0.11,-0.608l-0.108,-0.604l-0.103,-0.602l-0.101,-0.598l-0.097,-0.594l-0.094,-0.592l-0.091,-0.588l-0.087,-0.585l-0.084,-0.581l-0.08,-0.577l-0.076,-0.573l-0.038,-0.287l-0.036,-0.285l-0.035,-0.284l-0.034,-0.283l-0.033,-0.282l-0.033,-0.281l-0.031,-0.28l-0.031,-0.279l-0.03,-0.278l-0.028,-0.278l-0.028,-0.276l-0.027,-0.275l-0.026,-0.275l-0.025,-0.273l-0.024,-0.273l-0.023,-0.271l-0.022,-0.271l-0.021,-0.27l-0.02,-0.268l-0.019,-0.267l-0.019,-0.267l-0.017,-0.266l-0.016,-0.264l-0.015,-0.264l-0.014,-0.262l-0.013,-0.262l-0.013,-0.26l-0.011,-0.259l-0.01,-0.259l-0.009,-0.257l-0.008,-0.256l-0.007,-0.256l-0.006,-0.254l-0.004,-0.253l-0.004,-0.252l-0.003,-0.251l-0.001,-0.25l-0.001,-0.25l0.001,-0.308l0.003,-0.309l0.005,-0.309l0.007,-0.308l0.008,-0.307l0.011,-0.307l0.013,-0.307l0.014,-0.306l0.017,-0.306l0.018,-0.305l0.021,-0.305l0.022,-0.304l0.024,-0.304l0.026,-0.303l0.028,-0.302l0.029,-0.302l0.032,-0.302l0.034,-0.301l0.035,-0.3l0.037,-0.301l0.039,-0.299l0.041,-0.298l0.043,-0.299l0.044,-0.297l0.047,-0.297l0.048,-0.297l0.05,-0.296l0.052,-0.295l0.054,-0.294l0.055,-0.294l0.057,-0.294l0.059,-0.292l0.061,-0.293l0.063,-0.291l0.064,-0.291l0.066,-0.29l0.068,-0.289l0.069,-0.289l0.072,-0.288l0.073,-0.288l0.075,-0.287l0.076,-0.286l0.078,-0.285l0.08,-0.285l0.082,-0.283l0.083,-0.284l0.085,-0.282l0.087,-0.282l0.089,-0.281l0.09,-0.28l0.092,-0.279l0.093,-0.279l0.095,-0.278l0.097,-0.278l0.098,-0.276l0.1,-0.276l0.102,-0.274l0.103,-0.275l0.105,-0.273l0.107,-0.272l0.108,-0.272l0.11,-0.271l0.111,-0.27l0.113,-0.269l0.115,-0.268l0.116,-0.268l0.117,-0.266l0.12,-0.266l0.121,-0.265l0.122,-0.264l0.124,-0.263l0.125,-0.263l0.127,-0.261l0.129,-0.261l0.13,-0.259l0.132,-0.259l0.133,-0.258l0.134,-0.257l0.137,-0.256l0.137,-0.255l0.139,-0.254l0.141,-0.253l0.142,-0.252l0.144,-0.252l0.145,-0.25l0.146,-0.25l0.148,-0.248l0.15,-0.247l0.15,-0.247l0.153,-0.245l0.153,-0.245l0.156,-0.244l0.156,-0.242l0.158,-0.241l0.159,-0.241l0.161,-0.239l0.163,-0.239l0.163,-0.237l0.165,-0.237l0.166,-0.235l0.168,-0.234l0.169,-0.234l0.171,-0.232l0.172,-0.231l0.173,-0.23l0.174,-0.229l0.176,-0.228l0.177,-0.226l0.179,-0.226l0.18,-0.225l0.181,-0.223l0.182,-0.223l0.184,-0.221l0.185,-0.22l0.186,-0.219l0.188,-0.218l0.189,-0.217l0.19,-0.215l0.191,-0.215l0.193,-0.213l0.194,-0.212l0.195,-0.211l0.197,-0.21l0.197,-0.208l0.199,-0.208l0.2,-0.206l0.202,-0.205l0.202,-0.204l0.204,-0.202l0.205,-0.202l0.206,-0.2l0.208,-0.199l0.208,-0.197l0.21,-0.197l0.211,-0.195l0.212,-0.194l0.213,-0.193l0.215,-0.191l0.215,-0.19l0.217,-0.189l0.218,-0.188l0.219,-0.186l0.22,-0.185l0.221,-0.184l0.223,-0.183l0.223,-0.181l0.225,-0.18l0.226,-0.178l0.226,-0.177l0.228,-0.176l0.229,-0.175l0.23,-0.173l0.231,-0.171l0.233,-0.171l0.233,-0.169l0.234,-0.168l0.235,-0.166l0.237,-0.165l0.237,-0.164l0.239,-0.162l0.239,-0.161l0.241,-0.159l0.241,-0.158l0.243,-0.157l0.243,-0.155l0.245,-0.153l0.245,-0.153l0.247,-0.151l0.247,-0.149l0.249,-0.148l0.249,-0.146l0.25,-0.145l0.252,-0.144l0.252,-0.142l0.253,-0.141l0.254,-0.139l0.255,-0.138l0.256,-0.136l0.257,-0.134l0.258,-0.133l0.259,-0.132l0.26,-0.13l0.26,-0.129l0.261,-0.127l0.263,-0.125l0.263,-0.124l0.264,-0.123l0.265,-0.12l0.266,-0.12l0.266,-0.117l0.268,-0.117l0.268,-0.114l0.269,-0.113l0.27,-0.111l0.271,-0.11l0.272,-0.108l0.272,-0.107l0.274,-0.105l0.274,-0.103l0.275,-0.102l0.275,-0.1l0.277,-0.098l0.277,-0.097l0.278,-0.095l0.279,-0.094l0.279,-0.091l0.28,-0.091l0.281,-0.088l0.282,-0.087l0.283,-0.085l0.283,-0.083l0.284,-0.082l0.284,-0.08l0.286,-0.078l0.286,-0.077l0.286,-0.074l0.288,-0.073l0.288,-0.072l0.289,-0.069l0.289,-0.068l0.29,-0.066l0.291,-0.065l0.292,-0.062l0.292,-0.061l0.292,-0.059l0.294,-0.057l0.294,-0.056l0.294,-0.053l0.296,-0.052l0.295,-0.05l0.297,-0.048l0.297,-0.047l0.298,-0.044l0.298,-0.043l0.298,-0.041l0.3,-0.039l0.3,-0.037l0.3,-0.036l0.301,-0.033l0.302,-0.032l0.302,-0.029l0.302,-0.028l0.304,-0.026l0.303,-0.024l0.304,-0.023l0.305,-0.02l0.305,-0.018l0.306,-0.017l0.306,-0.014l0.307,-0.013l0.307,-0.011l0.307,-0.008l0.308,-0.007l0.309,-0.005l0.309,-0.003l0.309,-0.001l0.31,0.001Zm-0.587,5l-0.278,0.002l-0.276,0.005l-0.277,0.006l-0.276,0.008l-0.275,0.009l-0.275,0.012l-0.274,0.013l-0.275,0.015l-0.273,0.016l-0.273,0.018l-0.273,0.02l-0.272,0.022l-0.272,0.023l-0.271,0.025l-0.27,0.027l-0.271,0.028l-0.269,0.03l-0.269,0.032l-0.269,0.033l-0.268,0.035l-0.268,0.037l-0.267,0.038l-0.266,0.04l-0.266,0.041l-0.265,0.044l-0.265,0.044l-0.264,0.047l-0.264,0.048l-0.263,0.049l-0.263,0.052l-0.262,0.052l-0.261,0.055l-0.261,0.056l-0.26,0.057l-0.26,0.059l-0.259,0.061l-0.259,0.062l-0.257,0.064l-0.258,0.066l-0.256,0.067l-0.256,0.068l-0.255,0.07l-0.255,0.072l-0.254,0.073l-0.254,0.074l-0.252,0.076l-0.252,0.078l-0.252,0.079l-0.251,0.081l-0.25,0.082l-0.249,0.084l-0.249,0.085l-0.248,0.086l-0.247,0.088l-0.247,0.09l-0.246,0.091l-0.245,0.092l-0.245,0.094l-0.244,0.096l-0.243,0.096l-0.242,0.099l-0.242,0.099l-0.241,0.101l-0.24,0.103l-0.239,0.104l-0.239,0.105l-0.238,0.107l-0.237,0.108l-0.237,0.11l-0.235,0.111l-0.235,0.112l-0.234,0.114l-0.233,0.115l-0.233,0.116l-0.231,0.118l-0.231,0.119l-0.23,0.121l-0.23,0.122l-0.228,0.123l-0.228,0.125l-0.226,0.126l-0.226,0.127l-0.225,0.129l-0.225,0.129l-0.223,0.132l-0.222,0.132l-0.222,0.134l-0.221,0.135l-0.22,0.137l-0.219,0.137l-0.218,0.139l-0.217,0.14l-0.217,0.142l-0.215,0.143l-0.215,0.144l-0.213,0.145l-0.213,0.147l-0.212,0.148l-0.211,0.149l-0.209,0.15l-0.21,0.151l-0.208,0.153l-0.207,0.154l-0.206,0.155l-0.205,0.157l-0.204,0.157l-0.203,0.159l-0.203,0.16l-0.201,0.161l-0.2,0.162l-0.2,0.164l-0.198,0.165l-0.197,0.166l-0.197,0.167l-0.195,0.168l-0.194,0.169l-0.193,0.171l-0.193,0.171l-0.191,0.173l-0.19,0.174l-0.189,0.175l-0.188,0.176l-0.187,0.177l-0.186,0.178l-0.185,0.18l-0.183,0.18l-0.183,0.182l-0.182,0.182l-0.18,0.184l-0.18,0.185l-0.178,0.186l-0.177,0.187l-0.176,0.188l-0.175,0.189l-0.174,0.19l-0.173,0.191l-0.171,0.193l-0.171,0.193l-0.169,0.194l-0.168,0.195l-0.167,0.197l-0.166,0.197l-0.165,0.198l-0.163,0.2l-0.163,0.2l-0.161,0.201l-0.16,0.202l-0.159,0.204l-0.157,0.204l-0.157,0.205l-0.155,0.206l-0.154,0.207l-0.152,0.208l-0.152,0.209l-0.15,0.21l-0.149,0.211l-0.148,0.212l-0.147,0.213l-0.145,0.213l-0.144,0.215l-0.143,0.215l-0.141,0.217l-0.141,0.217l-0.139,0.218l-0.137,0.219l-0.137,0.22l-0.135,0.221l-0.134,0.221l-0.132,0.223l-0.131,0.223l-0.13,0.225l-0.129,0.225l-0.127,0.226l-0.126,0.226l-0.125,0.228l-0.123,0.228l-0.122,0.23l-0.12,0.23l-0.12,0.23l-0.117,0.232l-0.117,0.233l-0.115,0.233l-0.114,0.234l-0.112,0.235l-0.111,0.235l-0.11,0.237l-0.108,0.237l-0.107,0.238l-0.105,0.238l-0.104,0.24l-0.102,0.24l-0.102,0.241l-0.099,0.242l-0.098,0.242l-0.097,0.243l-0.096,0.244l-0.094,0.245l-0.092,0.245l-0.091,0.246l-0.089,0.246l-0.089,0.248l-0.086,0.248l-0.085,0.249l-0.084,0.249l-0.082,0.25l-0.081,0.251l-0.079,0.251l-0.077,0.253l-0.077,0.252l-0.074,0.254l-0.073,0.254l-0.072,0.254l-0.07,0.256l-0.068,0.256l-0.067,0.256l-0.066,0.257l-0.063,0.258l-0.063,0.259l-0.06,0.259l-0.06,0.26l-0.057,0.26l-0.056,0.26l-0.054,0.262l-0.053,0.262l-0.052,0.263l-0.049,0.263l-0.048,0.263l-0.047,0.265l-0.044,0.265l-0.044,0.265l-0.041,0.266l-0.04,0.266l-0.038,0.267l-0.037,0.268l-0.035,0.268l-0.033,0.268l-0.032,0.27l-0.03,0.269l-0.028,0.27l-0.027,0.271l-0.025,0.271l-0.023,0.272l-0.022,0.272l-0.02,0.273l-0.018,0.273l-0.016,0.273l-0.015,0.274l-0.013,0.275l-0.011,0.275l-0.01,0.275l-0.008,0.276l-0.006,0.277l-0.004,0.276l-0.003,0.277l-0.001,0.279l0,0.226l0.002,0.229l0.002,0.23l0.004,0.231l0.004,0.232l0.006,0.234l0.006,0.235l0.008,0.237l0.008,0.238l0.009,0.239l0.011,0.241l0.011,0.242l0.012,0.243l0.013,0.244l0.014,0.246l0.015,0.247l0.016,0.248l0.017,0.249l0.018,0.251l0.019,0.252l0.02,0.253l0.021,0.254l0.021,0.255l0.023,0.257l0.024,0.258l0.024,0.259l0.025,0.26l0.027,0.261l0.027,0.263l0.028,0.263l0.029,0.265l0.03,0.266l0.031,0.267l0.031,0.268l0.033,0.269l0.034,0.27l0.034,0.272l0.035,0.27l0.073,0.55l0.077,0.552l0.08,0.557l0.084,0.56l0.087,0.564l0.09,0.569l0.094,0.572l0.096,0.576l0.101,0.58l0.103,0.583l0.107,0.587l0.11,0.591l0.113,0.594l0.116,0.598l0.119,0.601l0.122,0.605l0.125,0.607l0.129,0.611l0.131,0.614l0.134,0.618l0.137,0.62l0.14,0.623l0.143,0.626l0.145,0.629l0.149,0.632l0.151,0.635l0.153,0.637l0.157,0.64l0.159,0.643l0.162,0.645l0.164,0.647l0.167,0.65l0.169,0.653l0.172,0.654l0.174,0.657l0.177,0.659l0.179,0.662l0.181,0.663l0.184,0.665l0.186,0.667l0.189,0.67l0.19,0.671l0.193,0.673l0.195,0.674l0.197,0.676l0.199,0.678l0.201,0.68l0.203,0.681l0.205,0.682l0.207,0.684l0.209,0.685l0.211,0.687l0.213,0.688l0.215,0.689l0.216,0.69l0.218,0.691l0.22,0.692l0.222,0.694l0.223,0.694l0.225,0.695l0.227,0.696l0.228,0.696l0.23,0.698l0.231,0.698l0.232,0.698l0.235,0.699l0.235,0.7l0.237,0.7l0.238,0.7l0.24,0.701l0.241,0.701l0.242,0.701l0.243,0.701l0.244,0.702l0.246,0.701l0.247,0.702l0.247,0.701l0.249,0.701l0.25,0.702l0.251,0.7l0.252,0.701l0.252,0.7l0.254,0.7l0.254,0.7l0.256,0.699l0.256,0.698l0.257,0.698l0.257,0.698l0.258,0.696l0.259,0.696l0.26,0.695l0.26,0.694l0.261,0.693l0.261,0.692l0.262,0.692l0.262,0.69l0.262,0.689l0.263,0.688l0.264,0.686l0.263,0.685l0.264,0.684l0.265,0.683l0.264,0.68l0.53,1.358l0.53,1.351l0.53,1.345l0.531,1.336l0.53,1.33l0.53,1.321l0.529,1.312l0.528,1.303l0.526,1.294l0.525,1.284l0.524,1.274l0.521,1.263l0.519,1.251l0.516,1.241l0.514,1.228l0.511,1.215l0.507,1.203l0.503,1.19l0.5,1.175l0.495,1.162l0.491,1.147l0.487,1.132l0.481,1.117l0.477,1.1l0.471,1.085l0.465,1.068l0.459,1.05l0.453,1.033l0.447,1.015l0.439,0.997l0.433,0.978l0.426,0.958l0.418,0.939l0.41,0.918l0.402,0.899l0.394,0.877l0.386,0.855l0.376,0.834l0.368,0.812l0.358,0.789l0.348,0.766l0.339,0.742l0.328,0.718l0.626,1.364l0.582,1.262l0.536,1.158l0.174,0.374l0.174,-0.374l0.537,-1.158l0.582,-1.262l0.626,-1.364l0.328,-0.718l0.339,-0.742l0.348,-0.766l0.358,-0.789l0.368,-0.812l0.376,-0.834l0.385,-0.855l0.394,-0.877l0.403,-0.899l0.41,-0.918l0.418,-0.939l0.425,-0.958l0.433,-0.978l0.44,-0.997l0.447,-1.015l0.453,-1.033l0.459,-1.05l0.465,-1.068l0.471,-1.085l0.476,-1.1l0.482,-1.117l0.486,-1.132l0.491,-1.147l0.496,-1.162l0.499,-1.175l0.504,-1.19l0.507,-1.203l0.511,-1.215l0.513,-1.228l0.517,-1.241l0.519,-1.251l0.521,-1.263l0.523,-1.274l0.525,-1.284l0.527,-1.294l0.528,-1.303l0.529,-1.312l0.53,-1.321l0.53,-1.33l0.53,-1.336l0.531,-1.345l0.53,-1.351l0.53,-1.358l0.264,-0.68l0.264,-0.683l0.264,-0.684l0.264,-0.685l0.263,-0.686l0.263,-0.688l0.263,-0.689l0.262,-0.69l0.262,-0.692l0.261,-0.692l0.261,-0.693l0.26,-0.694l0.259,-0.695l0.259,-0.696l0.258,-0.696l0.258,-0.698l0.257,-0.698l0.256,-0.698l0.255,-0.699l0.255,-0.7l0.253,-0.7l0.253,-0.7l0.252,-0.701l0.251,-0.7l0.249,-0.702l0.249,-0.701l0.248,-0.701l0.247,-0.702l0.245,-0.701l0.245,-0.702l0.243,-0.701l0.242,-0.701l0.241,-0.701l0.239,-0.701l0.239,-0.7l0.237,-0.7l0.235,-0.7l0.234,-0.699l0.233,-0.698l0.231,-0.698l0.23,-0.698l0.228,-0.696l0.226,-0.696l0.225,-0.695l0.224,-0.694l0.221,-0.694l0.22,-0.692l0.218,-0.691l0.217,-0.69l0.215,-0.689l0.212,-0.688l0.211,-0.686l0.209,-0.686l0.207,-0.684l0.206,-0.682l0.203,-0.681l0.201,-0.68l0.199,-0.678l0.197,-0.676l0.195,-0.674l0.193,-0.673l0.19,-0.671l0.188,-0.67l0.186,-0.667l0.184,-0.665l0.182,-0.663l0.179,-0.662l0.176,-0.659l0.175,-0.657l0.171,-0.654l0.17,-0.653l0.167,-0.65l0.164,-0.647l0.162,-0.645l0.159,-0.643l0.156,-0.64l0.154,-0.637l0.151,-0.635l0.148,-0.632l0.146,-0.629l0.143,-0.626l0.14,-0.623l0.137,-0.62l0.134,-0.618l0.131,-0.614l0.128,-0.611l0.126,-0.607l0.122,-0.605l0.119,-0.601l0.116,-0.598l0.113,-0.594l0.11,-0.591l0.107,-0.587l0.103,-0.583l0.1,-0.58l0.097,-0.576l0.094,-0.572l0.09,-0.569l0.087,-0.564l0.083,-0.56l0.081,-0.557l0.076,-0.552l0.074,-0.55l0.035,-0.27l0.034,-0.272l0.034,-0.27l0.032,-0.269l0.032,-0.268l0.031,-0.267l0.03,-0.266l0.029,-0.265l0.028,-0.263l0.027,-0.263l0.026,-0.261l0.026,-0.26l0.024,-0.259l0.024,-0.258l0.022,-0.257l0.022,-0.255l0.021,-0.254l0.019,-0.253l0.019,-0.252l0.018,-0.251l0.017,-0.249l0.016,-0.248l0.015,-0.247l0.014,-0.246l0.014,-0.244l0.012,-0.243l0.011,-0.242l0.01,-0.241l0.01,-0.239l0.008,-0.238l0.007,-0.236l0.007,-0.236l0.005,-0.234l0.005,-0.232l0.003,-0.231l0.003,-0.23l0.001,-0.229l0.001,-0.226l-0.001,-0.278l-0.003,-0.278l-0.004,-0.277l-0.006,-0.276l-0.008,-0.276l-0.01,-0.275l-0.011,-0.275l-0.013,-0.275l-0.015,-0.274l-0.017,-0.273l-0.018,-0.273l-0.02,-0.273l-0.021,-0.272l-0.024,-0.272l-0.025,-0.271l-0.026,-0.271l-0.029,-0.27l-0.03,-0.269l-0.031,-0.269l-0.034,-0.269l-0.035,-0.268l-0.036,-0.268l-0.038,-0.267l-0.04,-0.266l-0.042,-0.266l-0.043,-0.265l-0.045,-0.265l-0.046,-0.265l-0.048,-0.263l-0.05,-0.263l-0.051,-0.263l-0.053,-0.262l-0.054,-0.262l-0.056,-0.26l-0.058,-0.261l-0.059,-0.259l-0.061,-0.259l-0.062,-0.259l-0.064,-0.258l-0.065,-0.257l-0.067,-0.256l-0.069,-0.256l-0.07,-0.256l-0.071,-0.254l-0.073,-0.254l-0.075,-0.254l-0.076,-0.253l-0.078,-0.252l-0.079,-0.251l-0.08,-0.251l-0.083,-0.25l-0.083,-0.25l-0.085,-0.248l-0.087,-0.248l-0.088,-0.248l-0.089,-0.246l-0.091,-0.246l-0.093,-0.245l-0.094,-0.245l-0.095,-0.244l-0.097,-0.243l-0.098,-0.242l-0.1,-0.242l-0.101,-0.241l-0.102,-0.24l-0.104,-0.24l-0.106,-0.238l-0.107,-0.238l-0.108,-0.237l-0.109,-0.237l-0.111,-0.235l-0.113,-0.235l-0.113,-0.234l-0.115,-0.233l-0.117,-0.233l-0.118,-0.232l-0.119,-0.231l-0.121,-0.23l-0.121,-0.229l-0.124,-0.228l-0.124,-0.228l-0.126,-0.226l-0.127,-0.226l-0.129,-0.225l-0.13,-0.225l-0.131,-0.223l-0.133,-0.223l-0.134,-0.221l-0.135,-0.221l-0.136,-0.22l-0.138,-0.219l-0.139,-0.218l-0.14,-0.217l-0.141,-0.217l-0.143,-0.215l-0.144,-0.215l-0.146,-0.213l-0.146,-0.213l-0.148,-0.212l-0.149,-0.211l-0.15,-0.21l-0.152,-0.209l-0.153,-0.208l-0.154,-0.207l-0.155,-0.206l-0.156,-0.205l-0.158,-0.204l-0.158,-0.204l-0.161,-0.202l-0.161,-0.201l-0.162,-0.2l-0.163,-0.2l-0.165,-0.198l-0.166,-0.197l-0.167,-0.197l-0.168,-0.195l-0.17,-0.194l-0.17,-0.193l-0.172,-0.193l-0.172,-0.191l-0.174,-0.19l-0.175,-0.189l-0.176,-0.188l-0.177,-0.187l-0.179,-0.186l-0.179,-0.185l-0.181,-0.184l-0.181,-0.182l-0.183,-0.182l-0.184,-0.18l-0.185,-0.18l-0.185,-0.178l-0.187,-0.177l-0.189,-0.176l-0.189,-0.175l-0.19,-0.174l-0.191,-0.173l-0.192,-0.172l-0.193,-0.17l-0.194,-0.169l-0.196,-0.168l-0.196,-0.168l-0.197,-0.165l-0.199,-0.165l-0.199,-0.164l-0.2,-0.162l-0.202,-0.161l-0.202,-0.16l-0.203,-0.159l-0.204,-0.157l-0.206,-0.157l-0.206,-0.155l-0.207,-0.154l-0.208,-0.153l-0.209,-0.151l-0.21,-0.15l-0.211,-0.149l-0.211,-0.148l-0.213,-0.147l-0.214,-0.145l-0.214,-0.144l-0.216,-0.143l-0.216,-0.142l-0.217,-0.14l-0.219,-0.139l-0.219,-0.137l-0.219,-0.137l-0.221,-0.135l-0.222,-0.134l-0.222,-0.132l-0.224,-0.132l-0.224,-0.129l-0.225,-0.129l-0.226,-0.127l-0.227,-0.126l-0.227,-0.125l-0.229,-0.123l-0.229,-0.122l-0.23,-0.121l-0.231,-0.119l-0.232,-0.118l-0.232,-0.116l-0.233,-0.115l-0.234,-0.114l-0.235,-0.112l-0.236,-0.111l-0.236,-0.11l-0.237,-0.108l-0.238,-0.107l-0.239,-0.105l-0.239,-0.104l-0.241,-0.103l-0.241,-0.101l-0.241,-0.099l-0.242,-0.099l-0.244,-0.096l-0.243,-0.096l-0.245,-0.094l-0.245,-0.092l-0.246,-0.091l-0.247,-0.09l-0.247,-0.088l-0.248,-0.086l-0.249,-0.085l-0.25,-0.084l-0.25,-0.082l-0.25,-0.081l-0.252,-0.079l-0.252,-0.078l-0.253,-0.076l-0.253,-0.074l-0.254,-0.073l-0.255,-0.072l-0.255,-0.07l-0.256,-0.068l-0.257,-0.067l-0.257,-0.066l-0.258,-0.064l-0.258,-0.062l-0.259,-0.061l-0.26,-0.059l-0.26,-0.057l-0.261,-0.056l-0.261,-0.055l-0.262,-0.052l-0.263,-0.052l-0.263,-0.049l-0.264,-0.048l-0.264,-0.047l-0.265,-0.044l-0.265,-0.044l-0.266,-0.041l-0.267,-0.04l-0.267,-0.038l-0.267,-0.037l-0.268,-0.035l-0.269,-0.033l-0.269,-0.032l-0.27,-0.03l-0.27,-0.028l-0.271,-0.027l-0.271,-0.025l-0.271,-0.023l-0.273,-0.022l-0.272,-0.02l-0.273,-0.018l-0.274,-0.016l-0.274,-0.015l-0.274,-0.013l-0.275,-0.012l-0.276,-0.009l-0.276,-0.008l-0.276,-0.006l-0.277,-0.005l-0.277,-0.002l-0.278,-0.001l-0.277,0.001Zm0.455,22.441l0.177,0.001l0.177,0.003l0.177,0.004l0.176,0.005l0.176,0.006l0.176,0.007l0.176,0.009l0.175,0.009l0.175,0.011l0.175,0.011l0.174,0.013l0.175,0.014l0.174,0.015l0.173,0.016l0.174,0.017l0.173,0.018l0.173,0.019l0.172,0.021l0.172,0.021l0.172,0.022l0.171,0.024l0.172,0.024l0.17,0.026l0.171,0.027l0.17,0.027l0.17,0.029l0.169,0.03l0.17,0.031l0.168,0.031l0.169,0.033l0.168,0.034l0.168,0.035l0.167,0.036l0.167,0.037l0.166,0.038l0.166,0.039l0.166,0.04l0.166,0.041l0.165,0.042l0.164,0.043l0.164,0.043l0.164,0.045l0.164,0.046l0.163,0.047l0.162,0.048l0.162,0.049l0.162,0.05l0.162,0.05l0.161,0.052l0.16,0.053l0.16,0.053l0.159,0.055l0.16,0.056l0.158,0.056l0.159,0.058l0.157,0.058l0.158,0.059l0.157,0.061l0.156,0.061l0.156,0.062l0.155,0.063l0.155,0.064l0.155,0.065l0.154,0.065l0.154,0.067l0.153,0.068l0.152,0.068l0.152,0.069l0.152,0.071l0.151,0.071l0.151,0.072l0.15,0.073l0.149,0.074l0.149,0.074l0.149,0.076l0.148,0.076l0.147,0.078l0.147,0.078l0.147,0.079l0.145,0.079l0.146,0.081l0.145,0.082l0.144,0.082l0.144,0.083l0.143,0.084l0.142,0.085l0.142,0.086l0.142,0.087l0.141,0.087l0.14,0.088l0.14,0.089l0.139,0.09l0.138,0.091l0.138,0.091l0.138,0.093l0.137,0.093l0.136,0.094l0.135,0.094l0.136,0.096l0.134,0.096l0.134,0.097l0.133,0.098l0.133,0.098l0.132,0.1l0.131,0.1l0.131,0.101l0.13,0.102l0.13,0.102l0.128,0.103l0.129,0.104l0.127,0.105l0.127,0.105l0.126,0.106l0.126,0.107l0.125,0.108l0.124,0.108l0.124,0.109l0.123,0.11l0.123,0.111l0.121,0.111l0.121,0.112l0.121,0.113l0.119,0.113l0.119,0.114l0.119,0.115l0.117,0.116l0.117,0.116l0.117,0.117l0.115,0.117l0.115,0.119l0.114,0.119l0.114,0.12l0.112,0.12l0.112,0.121l0.111,0.122l0.111,0.122l0.11,0.123l0.109,0.124l0.108,0.124l0.108,0.125l0.107,0.126l0.106,0.126l0.106,0.127l0.104,0.128l0.104,0.128l0.103,0.129l0.103,0.129l0.102,0.131l0.1,0.13l0.1,0.131l0.1,0.133l0.098,0.132l0.098,0.133l0.097,0.134l0.096,0.135l0.096,0.135l0.095,0.135l0.094,0.137l0.093,0.137l0.092,0.137l0.091,0.138l0.091,0.139l0.09,0.138l0.089,0.14l0.088,0.141l0.088,0.141l0.086,0.141l0.086,0.142l0.085,0.143l0.084,0.143l0.083,0.143l0.083,0.145l0.081,0.145l0.081,0.145l0.08,0.146l0.079,0.146l0.078,0.147l0.077,0.148l0.076,0.148l0.076,0.148l0.075,0.149l0.073,0.15l0.073,0.15l0.072,0.15l0.072,0.151l0.07,0.152l0.069,0.152l0.069,0.153l0.067,0.153l0.067,0.153l0.066,0.154l0.065,0.155l0.063,0.155l0.063,0.155l0.063,0.156l0.061,0.157l0.06,0.156l0.059,0.158l0.059,0.157l0.057,0.159l0.057,0.159l0.055,0.159l0.055,0.159l0.053,0.16l0.053,0.161l0.052,0.16l0.051,0.162l0.049,0.162l0.049,0.162l0.048,0.163l0.047,0.162l0.046,0.164l0.045,0.164l0.044,0.164l0.043,0.165l0.042,0.165l0.041,0.165l0.04,0.166l0.039,0.166l0.037,0.167l0.037,0.166l0.036,0.168l0.035,0.168l0.034,0.167l0.033,0.169l0.032,0.169l0.031,0.169l0.029,0.169l0.029,0.17l0.028,0.17l0.026,0.171l0.026,0.17l0.024,0.172l0.024,0.171l0.022,0.172l0.022,0.172l0.02,0.173l0.019,0.172l0.018,0.173l0.017,0.174l0.016,0.173l0.015,0.174l0.014,0.175l0.013,0.174l0.012,0.175l0.01,0.175l0.01,0.176l0.008,0.175l0.007,0.176l0.006,0.176l0.005,0.177l0.004,0.176l0.003,0.177l0.002,0.178l0,0.177l0,0.177l-0.002,0.178l-0.003,0.177l-0.004,0.176l-0.005,0.177l-0.006,0.176l-0.007,0.176l-0.008,0.175l-0.01,0.176l-0.01,0.175l-0.012,0.175l-0.013,0.174l-0.014,0.174l-0.015,0.175l-0.016,0.173l-0.017,0.173l-0.018,0.173l-0.019,0.173l-0.02,0.173l-0.022,0.172l-0.022,0.171l-0.024,0.172l-0.024,0.171l-0.026,0.171l-0.026,0.17l-0.028,0.171l-0.029,0.17l-0.029,0.169l-0.031,0.169l-0.032,0.169l-0.033,0.169l-0.034,0.167l-0.035,0.168l-0.036,0.167l-0.037,0.167l-0.037,0.167l-0.039,0.166l-0.04,0.166l-0.041,0.165l-0.042,0.165l-0.043,0.165l-0.044,0.164l-0.045,0.164l-0.046,0.163l-0.047,0.163l-0.048,0.163l-0.049,0.162l-0.049,0.162l-0.051,0.161l-0.052,0.161l-0.053,0.161l-0.053,0.16l-0.055,0.159l-0.055,0.159l-0.057,0.159l-0.057,0.158l-0.059,0.158l-0.059,0.157l-0.06,0.157l-0.061,0.157l-0.063,0.156l-0.063,0.155l-0.063,0.155l-0.065,0.155l-0.066,0.154l-0.067,0.153l-0.067,0.153l-0.069,0.153l-0.069,0.152l-0.07,0.151l-0.072,0.152l-0.072,0.15l-0.073,0.15l-0.073,0.15l-0.075,0.149l-0.076,0.148l-0.076,0.148l-0.077,0.148l-0.078,0.147l-0.079,0.146l-0.08,0.146l-0.081,0.145l-0.081,0.145l-0.083,0.144l-0.083,0.144l-0.084,0.143l-0.085,0.143l-0.086,0.142l-0.086,0.141l-0.088,0.141l-0.088,0.141l-0.089,0.139l-0.09,0.139l-0.091,0.139l-0.091,0.138l-0.092,0.137l-0.093,0.137l-0.094,0.137l-0.095,0.135l-0.096,0.135l-0.096,0.135l-0.097,0.134l-0.098,0.133l-0.098,0.132l-0.1,0.132l-0.1,0.132l-0.1,0.13l-0.102,0.131l-0.103,0.129l-0.103,0.129l-0.104,0.128l-0.104,0.128l-0.106,0.127l-0.106,0.126l-0.107,0.126l-0.108,0.125l-0.108,0.124l-0.109,0.124l-0.11,0.123l-0.111,0.122l-0.111,0.122l-0.112,0.121l-0.112,0.12l-0.114,0.12l-0.114,0.119l-0.115,0.118l-0.115,0.118l-0.117,0.117l-0.117,0.116l-0.117,0.116l-0.119,0.115l-0.119,0.114l-0.119,0.113l-0.121,0.113l-0.121,0.112l-0.121,0.111l-0.123,0.111l-0.123,0.11l-0.124,0.109l-0.124,0.108l-0.125,0.108l-0.126,0.107l-0.126,0.106l-0.127,0.105l-0.127,0.105l-0.129,0.104l-0.128,0.103l-0.13,0.102l-0.13,0.102l-0.131,0.101l-0.131,0.1l-0.132,0.1l-0.133,0.098l-0.133,0.098l-0.134,0.097l-0.134,0.096l-0.135,0.096l-0.136,0.094l-0.136,0.094l-0.137,0.093l-0.138,0.093l-0.137,0.091l-0.139,0.091l-0.139,0.09l-0.14,0.089l-0.14,0.088l-0.141,0.087l-0.142,0.087l-0.142,0.085l-0.143,0.086l-0.143,0.084l-0.143,0.083l-0.144,0.082l-0.145,0.082l-0.146,0.08l-0.145,0.08l-0.147,0.079l-0.147,0.078l-0.147,0.078l-0.148,0.076l-0.149,0.076l-0.149,0.074l-0.15,0.074l-0.149,0.073l-0.151,0.072l-0.151,0.071l-0.152,0.07l-0.152,0.07l-0.152,0.068l-0.153,0.068l-0.154,0.067l-0.154,0.065l-0.154,0.065l-0.155,0.064l-0.156,0.063l-0.156,0.062l-0.156,0.061l-0.157,0.061l-0.158,0.059l-0.157,0.058l-0.159,0.058l-0.158,0.056l-0.159,0.056l-0.16,0.054l-0.16,0.054l-0.161,0.053l-0.16,0.051l-0.162,0.051l-0.162,0.05l-0.162,0.049l-0.162,0.048l-0.163,0.047l-0.164,0.046l-0.164,0.044l-0.164,0.044l-0.164,0.043l-0.165,0.042l-0.166,0.041l-0.166,0.04l-0.166,0.039l-0.166,0.038l-0.167,0.037l-0.168,0.036l-0.167,0.035l-0.168,0.034l-0.169,0.033l-0.168,0.031l-0.169,0.031l-0.17,0.03l-0.17,0.029l-0.17,0.027l-0.171,0.027l-0.17,0.026l-0.172,0.024l-0.171,0.024l-0.172,0.022l-0.172,0.021l-0.172,0.021l-0.173,0.019l-0.173,0.018l-0.174,0.017l-0.173,0.016l-0.174,0.015l-0.174,0.014l-0.175,0.013l-0.175,0.011l-0.175,0.011l-0.175,0.009l-0.176,0.009l-0.176,0.007l-0.176,0.006l-0.176,0.005l-0.177,0.004l-0.177,0.003l-0.177,0.001l-0.178,0.001l-0.177,-0.001l-0.177,-0.001l-0.177,-0.003l-0.177,-0.004l-0.176,-0.005l-0.177,-0.006l-0.175,-0.007l-0.176,-0.009l-0.176,-0.009l-0.175,-0.011l-0.174,-0.011l-0.175,-0.013l-0.174,-0.014l-0.174,-0.015l-0.174,-0.016l-0.173,-0.017l-0.173,-0.018l-0.173,-0.019l-0.172,-0.021l-0.173,-0.021l-0.171,-0.022l-0.172,-0.024l-0.171,-0.024l-0.171,-0.026l-0.17,-0.027l-0.17,-0.027l-0.17,-0.029l-0.17,-0.03l-0.169,-0.031l-0.169,-0.031l-0.168,-0.033l-0.168,-0.034l-0.168,-0.035l-0.167,-0.036l-0.167,-0.037l-0.167,-0.038l-0.166,-0.039l-0.166,-0.04l-0.165,-0.041l-0.165,-0.042l-0.165,-0.043l-0.164,-0.044l-0.164,-0.044l-0.163,-0.046l-0.163,-0.047l-0.163,-0.048l-0.162,-0.049l-0.162,-0.05l-0.161,-0.051l-0.161,-0.051l-0.16,-0.053l-0.16,-0.054l-0.16,-0.054l-0.159,-0.056l-0.159,-0.056l-0.158,-0.058l-0.158,-0.058l-0.157,-0.059l-0.157,-0.061l-0.156,-0.061l-0.156,-0.062l-0.156,-0.063l-0.155,-0.064l-0.154,-0.065l-0.154,-0.065l-0.154,-0.067l-0.153,-0.068l-0.153,-0.068l-0.152,-0.07l-0.151,-0.07l-0.151,-0.071l-0.151,-0.072l-0.15,-0.073l-0.15,-0.074l-0.149,-0.074l-0.148,-0.076l-0.148,-0.076l-0.147,-0.078l-0.147,-0.078l-0.147,-0.079l-0.146,-0.08l-0.145,-0.08l-0.145,-0.082l-0.144,-0.082l-0.144,-0.083l-0.143,-0.085l-0.143,-0.084l-0.142,-0.086l-0.141,-0.087l-0.141,-0.087l-0.14,-0.088l-0.14,-0.089l-0.139,-0.09l-0.139,-0.091l-0.138,-0.091l-0.137,-0.093l-0.137,-0.093l-0.136,-0.094l-0.136,-0.094l-0.135,-0.096l-0.134,-0.096l-0.134,-0.097l-0.134,-0.098l-0.132,-0.098l-0.132,-0.1l-0.132,-0.1l-0.13,-0.101l-0.13,-0.102l-0.13,-0.102l-0.129,-0.103l-0.128,-0.104l-0.127,-0.105l-0.128,-0.105l-0.126,-0.106l-0.126,-0.107l-0.124,-0.108l-0.125,-0.108l-0.124,-0.11l-0.123,-0.109l-0.122,-0.111l-0.122,-0.111l-0.121,-0.112l-0.12,-0.113l-0.12,-0.113l-0.119,-0.114l-0.118,-0.115l-0.118,-0.116l-0.117,-0.116l-0.116,-0.117l-0.115,-0.118l-0.115,-0.118l-0.114,-0.119l-0.114,-0.12l-0.113,-0.12l-0.112,-0.121l-0.111,-0.122l-0.11,-0.122l-0.11,-0.123l-0.109,-0.124l-0.109,-0.124l-0.107,-0.125l-0.107,-0.126l-0.106,-0.126l-0.106,-0.127l-0.105,-0.128l-0.103,-0.128l-0.104,-0.129l-0.102,-0.129l-0.102,-0.13l-0.101,-0.131l-0.1,-0.132l-0.099,-0.132l-0.099,-0.132l-0.098,-0.133l-0.097,-0.134l-0.096,-0.135l-0.095,-0.135l-0.095,-0.135l-0.094,-0.137l-0.093,-0.136l-0.092,-0.138l-0.092,-0.138l-0.09,-0.139l-0.09,-0.139l-0.089,-0.139l-0.088,-0.141l-0.088,-0.141l-0.086,-0.141l-0.086,-0.142l-0.085,-0.143l-0.084,-0.143l-0.084,-0.144l-0.082,-0.144l-0.081,-0.144l-0.081,-0.146l-0.08,-0.146l-0.079,-0.146l-0.078,-0.147l-0.077,-0.148l-0.077,-0.148l-0.075,-0.148l-0.075,-0.149l-0.074,-0.15l-0.073,-0.15l-0.072,-0.15l-0.071,-0.151l-0.07,-0.152l-0.07,-0.152l-0.068,-0.153l-0.068,-0.153l-0.066,-0.153l-0.066,-0.154l-0.065,-0.155l-0.064,-0.155l-0.063,-0.155l-0.062,-0.156l-0.061,-0.157l-0.06,-0.157l-0.06,-0.157l-0.058,-0.158l-0.058,-0.158l-0.056,-0.159l-0.055,-0.159l-0.055,-0.159l-0.054,-0.16l-0.053,-0.161l-0.051,-0.161l-0.051,-0.161l-0.05,-0.162l-0.049,-0.162l-0.047,-0.163l-0.047,-0.163l-0.046,-0.163l-0.045,-0.164l-0.044,-0.164l-0.043,-0.165l-0.042,-0.165l-0.041,-0.165l-0.04,-0.166l-0.039,-0.166l-0.038,-0.167l-0.037,-0.167l-0.036,-0.167l-0.035,-0.168l-0.033,-0.168l-0.033,-0.168l-0.032,-0.169l-0.031,-0.169l-0.03,-0.17l-0.028,-0.169l-0.028,-0.17l-0.027,-0.171l-0.025,-0.171l-0.025,-0.171l-0.023,-0.171l-0.023,-0.172l-0.021,-0.172l-0.02,-0.173l-0.02,-0.173l-0.018,-0.173l-0.017,-0.173l-0.016,-0.174l-0.015,-0.174l-0.013,-0.174l-0.013,-0.174l-0.012,-0.175l-0.01,-0.175l-0.01,-0.176l-0.008,-0.175l-0.008,-0.176l-0.006,-0.176l-0.005,-0.177l-0.004,-0.177l-0.002,-0.176l-0.002,-0.177l-0.001,-0.178l0.001,-0.178l0.002,-0.177l0.002,-0.176l0.004,-0.177l0.005,-0.177l0.006,-0.176l0.008,-0.176l0.008,-0.175l0.01,-0.176l0.01,-0.175l0.012,-0.175l0.013,-0.174l0.013,-0.174l0.015,-0.174l0.016,-0.174l0.017,-0.174l0.018,-0.173l0.02,-0.172l0.02,-0.173l0.021,-0.172l0.023,-0.172l0.023,-0.171l0.025,-0.171l0.025,-0.171l0.027,-0.171l0.028,-0.17l0.028,-0.169l0.03,-0.17l0.031,-0.169l0.032,-0.169l0.033,-0.168l0.033,-0.168l0.035,-0.168l0.036,-0.168l0.037,-0.166l0.038,-0.167l0.039,-0.166l0.04,-0.166l0.041,-0.165l0.042,-0.166l0.043,-0.164l0.044,-0.164l0.045,-0.164l0.046,-0.164l0.047,-0.162l0.047,-0.163l0.049,-0.162l0.05,-0.162l0.051,-0.161l0.051,-0.161l0.053,-0.161l0.054,-0.16l0.055,-0.159l0.055,-0.159l0.056,-0.159l0.058,-0.158l0.058,-0.158l0.06,-0.158l0.06,-0.156l0.061,-0.157l0.062,-0.156l0.063,-0.155l0.064,-0.155l0.065,-0.155l0.066,-0.154l0.066,-0.153l0.068,-0.154l0.068,-0.152l0.07,-0.152l0.07,-0.152l0.071,-0.151l0.072,-0.15l0.073,-0.15l0.074,-0.15l0.075,-0.149l0.075,-0.148l0.077,-0.149l0.077,-0.147l0.078,-0.147l0.079,-0.146l0.08,-0.146l0.081,-0.146l0.081,-0.144l0.082,-0.144l0.084,-0.144l0.084,-0.144l0.085,-0.142l0.085,-0.142l0.087,-0.141l0.088,-0.141l0.088,-0.141l0.089,-0.139l0.09,-0.139l0.09,-0.139l0.092,-0.138l0.092,-0.138l0.093,-0.136l0.094,-0.137l0.095,-0.135l0.095,-0.135l0.096,-0.135l0.097,-0.134l0.098,-0.133l0.099,-0.132l0.099,-0.132l0.1,-0.132l0.101,-0.131l0.102,-0.13l0.102,-0.129l0.103,-0.129l0.104,-0.128l0.105,-0.128l0.106,-0.127l0.106,-0.126l0.107,-0.126l0.107,-0.125l0.109,-0.124l0.109,-0.124l0.11,-0.123l0.11,-0.122l0.111,-0.122l0.112,-0.121l0.113,-0.121l0.114,-0.119l0.114,-0.119l0.115,-0.119l0.115,-0.117l0.116,-0.117l0.117,-0.116l0.118,-0.116l0.118,-0.115l0.119,-0.114l0.12,-0.113l0.12,-0.113l0.121,-0.112l0.122,-0.111l0.122,-0.111l0.123,-0.11l0.124,-0.109l0.124,-0.108l0.125,-0.108l0.126,-0.107l0.126,-0.106l0.128,-0.105l0.127,-0.105l0.128,-0.104l0.129,-0.103l0.13,-0.102l0.13,-0.102l0.13,-0.101l0.132,-0.1l0.132,-0.1l0.132,-0.098l0.134,-0.098l0.134,-0.097l0.134,-0.096l0.135,-0.096l0.136,-0.094l0.136,-0.094l0.137,-0.093l0.137,-0.093l0.138,-0.091l0.139,-0.091l0.139,-0.09l0.14,-0.089l0.14,-0.088l0.141,-0.087l0.141,-0.087l0.142,-0.086l0.143,-0.084l0.143,-0.085l0.144,-0.083l0.144,-0.082l0.145,-0.082l0.145,-0.08l0.146,-0.08l0.146,-0.079l0.147,-0.078l0.148,-0.078l0.148,-0.076l0.148,-0.076l0.149,-0.074l0.15,-0.074l0.15,-0.073l0.151,-0.072l0.151,-0.071l0.151,-0.071l0.152,-0.069l0.153,-0.068l0.153,-0.068l0.154,-0.067l0.154,-0.065l0.154,-0.065l0.155,-0.064l0.156,-0.063l0.155,-0.062l0.157,-0.061l0.157,-0.061l0.157,-0.059l0.158,-0.058l0.158,-0.058l0.159,-0.056l0.159,-0.056l0.16,-0.054l0.16,-0.054l0.16,-0.053l0.161,-0.052l0.161,-0.05l0.162,-0.05l0.162,-0.049l0.163,-0.048l0.163,-0.047l0.163,-0.046l0.164,-0.045l0.164,-0.043l0.165,-0.043l0.165,-0.042l0.165,-0.041l0.166,-0.04l0.166,-0.039l0.167,-0.038l0.167,-0.037l0.167,-0.036l0.168,-0.035l0.168,-0.034l0.168,-0.033l0.169,-0.031l0.169,-0.031l0.17,-0.03l0.169,-0.029l0.171,-0.027l0.17,-0.027l0.171,-0.026l0.171,-0.024l0.172,-0.024l0.171,-0.022l0.173,-0.021l0.172,-0.021l0.173,-0.019l0.173,-0.018l0.173,-0.017l0.174,-0.016l0.174,-0.015l0.174,-0.014l0.175,-0.013l0.174,-0.011l0.176,-0.011l0.175,-0.009l0.175,-0.009l0.176,-0.007l0.177,-0.006l0.176,-0.005l0.177,-0.004l0.177,-0.003l0.177,-0.001l0.177,-0.001l0.178,0.001Zm-0.323,4.999l-0.146,0.002l-0.145,0.002l-0.145,0.003l-0.145,0.004l-0.144,0.006l-0.145,0.005l-0.144,0.007l-0.143,0.008l-0.144,0.009l-0.143,0.009l-0.143,0.011l-0.143,0.011l-0.142,0.012l-0.142,0.013l-0.142,0.014l-0.142,0.015l-0.141,0.016l-0.141,0.017l-0.141,0.017l-0.141,0.018l-0.14,0.02l-0.14,0.02l-0.14,0.02l-0.139,0.022l-0.139,0.023l-0.139,0.023l-0.139,0.025l-0.138,0.025l-0.138,0.026l-0.137,0.027l-0.138,0.027l-0.137,0.029l-0.136,0.029l-0.137,0.03l-0.136,0.031l-0.136,0.032l-0.135,0.033l-0.135,0.033l-0.135,0.035l-0.134,0.035l-0.135,0.036l-0.133,0.036l-0.134,0.038l-0.133,0.038l-0.133,0.039l-0.132,0.04l-0.132,0.041l-0.132,0.041l-0.132,0.042l-0.131,0.043l-0.13,0.044l-0.131,0.045l-0.13,0.045l-0.129,0.046l-0.13,0.047l-0.129,0.048l-0.128,0.049l-0.128,0.049l-0.128,0.05l-0.127,0.05l-0.128,0.052l-0.126,0.052l-0.126,0.053l-0.126,0.054l-0.126,0.054l-0.125,0.056l-0.125,0.056l-0.124,0.056l-0.124,0.058l-0.123,0.058l-0.123,0.059l-0.123,0.059l-0.122,0.061l-0.122,0.061l-0.122,0.062l-0.121,0.062l-0.12,0.063l-0.12,0.064l-0.12,0.065l-0.12,0.065l-0.118,0.066l-0.119,0.067l-0.118,0.067l-0.117,0.068l-0.117,0.069l-0.117,0.07l-0.116,0.07l-0.116,0.071l-0.116,0.071l-0.114,0.072l-0.115,0.073l-0.114,0.074l-0.113,0.074l-0.113,0.075l-0.112,0.075l-0.112,0.076l-0.112,0.077l-0.111,0.078l-0.111,0.078l-0.11,0.079l-0.11,0.079l-0.108,0.08l-0.109,0.081l-0.108,0.082l-0.108,0.082l-0.107,0.082l-0.106,0.083l-0.107,0.084l-0.105,0.085l-0.105,0.085l-0.105,0.086l-0.104,0.086l-0.103,0.087l-0.103,0.088l-0.103,0.088l-0.101,0.089l-0.102,0.089l-0.101,0.09l-0.1,0.091l-0.099,0.091l-0.1,0.092l-0.098,0.092l-0.098,0.093l-0.098,0.094l-0.097,0.094l-0.096,0.094l-0.096,0.096l-0.095,0.095l-0.095,0.097l-0.094,0.097l-0.094,0.097l-0.093,0.098l-0.092,0.099l-0.092,0.099l-0.091,0.1l-0.091,0.1l-0.09,0.101l-0.089,0.101l-0.089,0.102l-0.088,0.102l-0.088,0.103l-0.087,0.104l-0.086,0.104l-0.086,0.104l-0.085,0.106l-0.084,0.105l-0.084,0.106l-0.083,0.107l-0.083,0.107l-0.082,0.107l-0.081,0.108l-0.081,0.109l-0.08,0.109l-0.08,0.11l-0.079,0.11l-0.078,0.11l-0.077,0.112l-0.077,0.111l-0.076,0.112l-0.076,0.113l-0.075,0.113l-0.074,0.113l-0.073,0.114l-0.073,0.114l-0.073,0.115l-0.071,0.115l-0.071,0.116l-0.07,0.117l-0.07,0.116l-0.068,0.117l-0.068,0.118l-0.068,0.118l-0.067,0.118l-0.066,0.119l-0.065,0.119l-0.065,0.12l-0.063,0.12l-0.064,0.121l-0.062,0.121l-0.062,0.121l-0.061,0.122l-0.06,0.122l-0.06,0.123l-0.059,0.123l-0.058,0.124l-0.057,0.124l-0.057,0.124l-0.056,0.125l-0.055,0.125l-0.055,0.125l-0.053,0.126l-0.053,0.126l-0.053,0.127l-0.051,0.127l-0.051,0.128l-0.05,0.127l-0.049,0.129l-0.049,0.128l-0.047,0.129l-0.047,0.129l-0.046,0.13l-0.046,0.13l-0.044,0.13l-0.044,0.131l-0.043,0.131l-0.042,0.131l-0.042,0.132l-0.041,0.132l-0.039,0.133l-0.04,0.133l-0.038,0.133l-0.037,0.133l-0.037,0.134l-0.036,0.134l-0.035,0.135l-0.034,0.134l-0.034,0.135l-0.032,0.136l-0.032,0.136l-0.031,0.136l-0.03,0.136l-0.03,0.137l-0.028,0.137l-0.028,0.137l-0.027,0.138l-0.026,0.138l-0.025,0.138l-0.024,0.138l-0.024,0.139l-0.022,0.14l-0.022,0.139l-0.021,0.139l-0.02,0.141l-0.019,0.14l-0.019,0.14l-0.017,0.141l-0.017,0.141l-0.015,0.142l-0.015,0.141l-0.014,0.142l-0.013,0.142l-0.013,0.143l-0.011,0.143l-0.01,0.143l-0.01,0.143l-0.009,0.143l-0.007,0.144l-0.007,0.144l-0.006,0.144l-0.005,0.145l-0.004,0.144l-0.004,0.145l-0.002,0.146l-0.001,0.145l-0.001,0.146l0.001,0.145l0.001,0.146l0.002,0.146l0.004,0.144l0.004,0.145l0.005,0.145l0.006,0.144l0.007,0.144l0.007,0.144l0.009,0.143l0.01,0.143l0.01,0.143l0.011,0.143l0.013,0.143l0.013,0.142l0.014,0.142l0.015,0.141l0.015,0.142l0.017,0.141l0.017,0.141l0.019,0.14l0.019,0.14l0.02,0.14l0.021,0.14l0.022,0.139l0.022,0.14l0.024,0.139l0.024,0.138l0.025,0.138l0.026,0.138l0.027,0.138l0.028,0.137l0.028,0.137l0.03,0.137l0.03,0.136l0.031,0.136l0.032,0.136l0.032,0.135l0.034,0.135l0.034,0.135l0.035,0.135l0.036,0.134l0.037,0.134l0.037,0.133l0.038,0.133l0.04,0.133l0.039,0.132l0.041,0.132l0.042,0.133l0.042,0.131l0.043,0.131l0.044,0.13l0.044,0.131l0.046,0.13l0.046,0.13l0.047,0.129l0.047,0.129l0.049,0.128l0.049,0.129l0.05,0.127l0.051,0.128l0.051,0.127l0.053,0.126l0.053,0.127l0.053,0.126l0.055,0.125l0.055,0.125l0.056,0.125l0.057,0.124l0.057,0.124l0.058,0.124l0.059,0.123l0.06,0.122l0.06,0.123l0.061,0.121l0.062,0.122l0.062,0.121l0.064,0.121l0.063,0.12l0.065,0.12l0.065,0.119l0.066,0.119l0.067,0.118l0.068,0.118l0.068,0.118l0.068,0.117l0.07,0.116l0.07,0.117l0.071,0.115l0.071,0.116l0.073,0.115l0.073,0.114l0.073,0.114l0.074,0.113l0.075,0.113l0.076,0.113l0.076,0.112l0.077,0.111l0.077,0.111l0.078,0.111l0.079,0.11l0.08,0.11l0.08,0.109l0.081,0.108l0.081,0.109l0.082,0.107l0.082,0.107l0.084,0.107l0.084,0.106l0.084,0.105l0.085,0.106l0.086,0.104l0.086,0.104l0.088,0.104l0.087,0.102l0.088,0.103l0.089,0.102l0.089,0.101l0.09,0.101l0.091,0.1l0.091,0.1l0.092,0.099l0.092,0.099l0.093,0.098l0.094,0.097l0.094,0.097l0.095,0.097l0.095,0.095l0.096,0.096l0.096,0.094l0.097,0.094l0.098,0.094l0.098,0.093l0.098,0.092l0.099,0.092l0.1,0.091l0.1,0.091l0.101,0.09l0.102,0.089l0.101,0.089l0.103,0.088l0.103,0.088l0.103,0.087l0.104,0.086l0.105,0.086l0.105,0.085l0.105,0.085l0.106,0.083l0.107,0.084l0.107,0.082l0.108,0.082l0.108,0.082l0.109,0.08l0.109,0.081l0.109,0.079l0.11,0.079l0.111,0.078l0.111,0.077l0.112,0.077l0.112,0.077l0.112,0.075l0.113,0.075l0.113,0.074l0.114,0.074l0.115,0.073l0.115,0.072l0.115,0.071l0.116,0.071l0.116,0.07l0.116,0.07l0.118,0.069l0.117,0.068l0.118,0.067l0.119,0.067l0.119,0.066l0.119,0.065l0.119,0.065l0.121,0.064l0.12,0.063l0.121,0.062l0.122,0.062l0.122,0.061l0.122,0.061l0.123,0.059l0.123,0.059l0.123,0.058l0.124,0.058l0.124,0.056l0.125,0.056l0.125,0.056l0.126,0.054l0.126,0.054l0.126,0.053l0.127,0.052l0.126,0.051l0.128,0.051l0.128,0.05l0.128,0.049l0.128,0.049l0.129,0.048l0.13,0.046l0.129,0.047l0.13,0.045l0.131,0.045l0.13,0.043l0.131,0.043l0.132,0.043l0.132,0.041l0.132,0.041l0.132,0.04l0.133,0.039l0.133,0.038l0.134,0.038l0.133,0.036l0.135,0.036l0.134,0.035l0.135,0.035l0.135,0.033l0.135,0.033l0.136,0.031l0.136,0.031l0.137,0.031l0.136,0.029l0.137,0.029l0.138,0.027l0.137,0.027l0.138,0.026l0.138,0.025l0.139,0.025l0.139,0.023l0.139,0.023l0.139,0.021l0.14,0.021l0.14,0.02l0.14,0.02l0.141,0.018l0.14,0.017l0.142,0.017l0.141,0.016l0.142,0.015l0.141,0.014l0.143,0.013l0.142,0.012l0.143,0.011l0.143,0.011l0.143,0.009l0.144,0.009l0.143,0.008l0.144,0.006l0.145,0.006l0.144,0.005l0.145,0.005l0.145,0.003l0.145,0.002l0.146,0.001l0.145,0.001l0.146,-0.001l0.146,-0.001l0.145,-0.002l0.145,-0.003l0.144,-0.005l0.145,-0.005l0.144,-0.006l0.144,-0.006l0.144,-0.008l0.144,-0.009l0.143,-0.009l0.143,-0.011l0.142,-0.011l0.143,-0.012l0.142,-0.013l0.142,-0.014l0.142,-0.015l0.141,-0.016l0.141,-0.017l0.141,-0.017l0.14,-0.018l0.141,-0.02l0.14,-0.02l0.139,-0.021l0.14,-0.021l0.139,-0.023l0.139,-0.023l0.138,-0.025l0.138,-0.025l0.138,-0.026l0.138,-0.027l0.137,-0.027l0.137,-0.029l0.137,-0.029l0.136,-0.031l0.136,-0.031l0.136,-0.031l0.136,-0.033l0.135,-0.033l0.134,-0.035l0.135,-0.035l0.134,-0.036l0.134,-0.036l0.134,-0.038l0.133,-0.038l0.132,-0.039l0.133,-0.04l0.132,-0.041l0.132,-0.041l0.131,-0.043l0.131,-0.043l0.131,-0.043l0.13,-0.045l0.13,-0.045l0.13,-0.047l0.129,-0.046l0.129,-0.048l0.129,-0.049l0.128,-0.049l0.128,-0.05l0.127,-0.051l0.127,-0.051l0.127,-0.052l0.126,-0.053l0.126,-0.054l0.125,-0.054l0.125,-0.056l0.125,-0.056l0.125,-0.056l0.123,-0.058l0.124,-0.058l0.123,-0.059l0.123,-0.06l0.122,-0.06l0.122,-0.061l0.121,-0.062l0.121,-0.062l0.121,-0.063l0.12,-0.064l0.12,-0.065l0.119,-0.065l0.119,-0.066l0.118,-0.067l0.118,-0.067l0.118,-0.068l0.117,-0.069l0.117,-0.07l0.116,-0.07l0.116,-0.071l0.115,-0.071l0.115,-0.072l0.114,-0.073l0.114,-0.074l0.114,-0.074l0.113,-0.075l0.112,-0.075l0.112,-0.077l0.112,-0.076l0.111,-0.078l0.11,-0.078l0.11,-0.079l0.11,-0.079l0.109,-0.081l0.109,-0.08l0.108,-0.082l0.107,-0.082l0.108,-0.082l0.106,-0.084l0.106,-0.083l0.106,-0.085l0.105,-0.085l0.104,-0.086l0.104,-0.086l0.104,-0.087l0.103,-0.088l0.102,-0.088l0.102,-0.089l0.101,-0.089l0.101,-0.09l0.101,-0.091l0.099,-0.091l0.099,-0.092l0.099,-0.092l0.098,-0.093l0.098,-0.094l0.097,-0.094l0.096,-0.094l0.096,-0.096l0.095,-0.095l0.095,-0.097l0.094,-0.097l0.093,-0.097l0.093,-0.098l0.092,-0.099l0.092,-0.099l0.092,-0.1l0.09,-0.1l0.09,-0.101l0.09,-0.101l0.088,-0.102l0.089,-0.103l0.087,-0.102l0.087,-0.104l0.086,-0.104l0.086,-0.104l0.085,-0.106l0.085,-0.105l0.084,-0.106l0.083,-0.107l0.083,-0.107l0.082,-0.108l0.081,-0.108l0.081,-0.108l0.08,-0.109l0.079,-0.11l0.079,-0.11l0.078,-0.111l0.078,-0.111l0.077,-0.111l0.076,-0.112l0.075,-0.113l0.075,-0.113l0.075,-0.113l0.073,-0.114l0.073,-0.115l0.072,-0.114l0.072,-0.116l0.071,-0.116l0.07,-0.115l0.069,-0.117l0.069,-0.117l0.068,-0.118l0.068,-0.118l0.066,-0.118l0.066,-0.119l0.066,-0.119l0.064,-0.12l0.064,-0.121l0.063,-0.12l0.063,-0.121l0.062,-0.122l0.061,-0.121l0.06,-0.123l0.06,-0.122l0.059,-0.124l0.058,-0.123l0.057,-0.124l0.057,-0.124l0.056,-0.125l0.055,-0.125l0.054,-0.125l0.054,-0.126l0.053,-0.127l0.052,-0.126l0.052,-0.127l0.051,-0.127l0.049,-0.128l0.05,-0.129l0.048,-0.128l0.048,-0.129l0.047,-0.129l0.046,-0.13l0.045,-0.13l0.045,-0.13l0.044,-0.131l0.043,-0.131l0.042,-0.132l0.042,-0.131l0.04,-0.132l0.04,-0.133l0.039,-0.133l0.039,-0.133l0.037,-0.133l0.037,-0.134l0.036,-0.134l0.035,-0.135l0.034,-0.135l0.033,-0.135l0.033,-0.135l0.032,-0.136l0.031,-0.136l0.03,-0.136l0.029,-0.137l0.029,-0.137l0.028,-0.138l0.026,-0.137l0.026,-0.138l0.026,-0.138l0.024,-0.139l0.023,-0.138l0.023,-0.139l0.022,-0.14l0.021,-0.14l0.02,-0.14l0.019,-0.14l0.018,-0.14l0.018,-0.141l0.016,-0.141l0.016,-0.142l0.015,-0.141l0.014,-0.142l0.013,-0.143l0.012,-0.142l0.012,-0.143l0.01,-0.143l0.01,-0.143l0.008,-0.143l0.008,-0.144l0.007,-0.144l0.006,-0.144l0.005,-0.145l0.004,-0.145l0.003,-0.145l0.002,-0.145l0.002,-0.145l0,-0.146l0,-0.146l-0.002,-0.145l-0.002,-0.145l-0.003,-0.146l-0.004,-0.144l-0.005,-0.145l-0.006,-0.144l-0.007,-0.144l-0.008,-0.144l-0.008,-0.143l-0.01,-0.143l-0.01,-0.143l-0.012,-0.143l-0.012,-0.143l-0.013,-0.142l-0.014,-0.142l-0.015,-0.141l-0.016,-0.142l-0.016,-0.141l-0.018,-0.141l-0.018,-0.14l-0.019,-0.14l-0.02,-0.14l-0.021,-0.14l-0.022,-0.14l-0.023,-0.139l-0.023,-0.138l-0.024,-0.139l-0.026,-0.138l-0.026,-0.138l-0.026,-0.138l-0.028,-0.137l-0.029,-0.137l-0.029,-0.137l-0.03,-0.136l-0.031,-0.136l-0.032,-0.136l-0.033,-0.135l-0.033,-0.136l-0.034,-0.134l-0.035,-0.135l-0.036,-0.134l-0.037,-0.134l-0.037,-0.133l-0.039,-0.133l-0.039,-0.133l-0.04,-0.133l-0.04,-0.132l-0.042,-0.131l-0.042,-0.132l-0.043,-0.131l-0.044,-0.131l-0.045,-0.13l-0.045,-0.13l-0.046,-0.13l-0.047,-0.129l-0.048,-0.129l-0.048,-0.128l-0.05,-0.129l-0.049,-0.128l-0.051,-0.127l-0.052,-0.127l-0.052,-0.127l-0.053,-0.126l-0.054,-0.126l-0.054,-0.125l-0.055,-0.125l-0.056,-0.125l-0.057,-0.124l-0.057,-0.124l-0.058,-0.123l-0.059,-0.124l-0.06,-0.123l-0.06,-0.122l-0.061,-0.122l-0.062,-0.121l-0.063,-0.121l-0.063,-0.12l-0.064,-0.121l-0.064,-0.12l-0.066,-0.119l-0.066,-0.119l-0.066,-0.118l-0.068,-0.118l-0.068,-0.118l-0.069,-0.117l-0.069,-0.117l-0.07,-0.116l-0.071,-0.116l-0.072,-0.115l-0.072,-0.114l-0.073,-0.115l-0.073,-0.114l-0.075,-0.113l-0.075,-0.113l-0.075,-0.113l-0.076,-0.112l-0.077,-0.111l-0.078,-0.112l-0.078,-0.11l-0.079,-0.11l-0.079,-0.11l-0.08,-0.109l-0.081,-0.109l-0.081,-0.107l-0.082,-0.108l-0.083,-0.107l-0.083,-0.107l-0.084,-0.106l-0.085,-0.106l-0.085,-0.105l-0.086,-0.104l-0.086,-0.104l-0.087,-0.104l-0.087,-0.103l-0.089,-0.102l-0.088,-0.102l-0.09,-0.101l-0.09,-0.101l-0.09,-0.1l-0.092,-0.1l-0.092,-0.099l-0.092,-0.099l-0.093,-0.098l-0.093,-0.097l-0.094,-0.097l-0.095,-0.097l-0.095,-0.095l-0.096,-0.096l-0.096,-0.094l-0.097,-0.094l-0.098,-0.094l-0.098,-0.093l-0.099,-0.092l-0.099,-0.092l-0.099,-0.091l-0.101,-0.091l-0.1,-0.09l-0.102,-0.089l-0.102,-0.089l-0.102,-0.088l-0.103,-0.088l-0.104,-0.087l-0.104,-0.086l-0.104,-0.086l-0.105,-0.085l-0.106,-0.085l-0.106,-0.084l-0.107,-0.083l-0.107,-0.082l-0.107,-0.082l-0.108,-0.082l-0.109,-0.081l-0.109,-0.08l-0.11,-0.079l-0.11,-0.079l-0.11,-0.078l-0.111,-0.078l-0.112,-0.077l-0.112,-0.076l-0.112,-0.075l-0.113,-0.075l-0.114,-0.074l-0.114,-0.074l-0.114,-0.073l-0.115,-0.072l-0.115,-0.071l-0.116,-0.071l-0.116,-0.07l-0.117,-0.07l-0.117,-0.069l-0.117,-0.068l-0.119,-0.067l-0.118,-0.067l-0.119,-0.066l-0.119,-0.065l-0.12,-0.065l-0.12,-0.064l-0.121,-0.063l-0.121,-0.063l-0.121,-0.061l-0.122,-0.061l-0.122,-0.061l-0.123,-0.059l-0.123,-0.059l-0.124,-0.058l-0.123,-0.058l-0.125,-0.056l-0.125,-0.056l-0.125,-0.056l-0.125,-0.054l-0.126,-0.054l-0.126,-0.053l-0.127,-0.052l-0.127,-0.052l-0.127,-0.05l-0.128,-0.05l-0.128,-0.049l-0.129,-0.049l-0.129,-0.048l-0.129,-0.047l-0.13,-0.046l-0.13,-0.045l-0.13,-0.045l-0.131,-0.044l-0.131,-0.043l-0.131,-0.042l-0.132,-0.041l-0.132,-0.041l-0.133,-0.04l-0.132,-0.039l-0.134,-0.038l-0.133,-0.038l-0.134,-0.036l-0.134,-0.036l-0.134,-0.035l-0.135,-0.035l-0.135,-0.033l-0.136,-0.033l-0.136,-0.032l-0.136,-0.031l-0.136,-0.03l-0.137,-0.029l-0.137,-0.029l-0.137,-0.027l-0.138,-0.027l-0.138,-0.026l-0.138,-0.025l-0.138,-0.025l-0.139,-0.023l-0.139,-0.023l-0.14,-0.022l-0.139,-0.02l-0.14,-0.02l-0.14,-0.02l-0.141,-0.018l-0.141,-0.018l-0.141,-0.016l-0.141,-0.016l-0.142,-0.015l-0.142,-0.014l-0.142,-0.013l-0.143,-0.012l-0.142,-0.011l-0.143,-0.011l-0.144,-0.009l-0.143,-0.009l-0.144,-0.008l-0.144,-0.007l-0.144,-0.005l-0.144,-0.006l-0.145,-0.004l-0.145,-0.003l-0.145,-0.002l-0.146,-0.002l-0.146,0l-0.145,0Z"/><path d="M445.415,333.282c0,0 45.416,-94.518 45.416,-135.026c0,-25.065 -20.35,-45.415 -45.416,-45.415c-25.065,0 -45.415,20.35 -45.415,45.415c0,40.508 45.415,135.026 45.415,135.026Zm0,-153c13.798,0 25,11.202 25,25c0,13.798 -11.202,25 -25,25c-13.798,0 -25,-11.202 -25,-25c0,-13.798 11.202,-25 25,-25Z"/></g></g></svg>