<?xml version="1.0" encoding="UTF-8" standalone="no"?><!DOCTYPE svg PUBLIC "-//W3C//DTD SVG 1.1//EN" "http://www.w3.org/Graphics/SVG/1.1/DTD/svg11.dtd"><svg width="100%" height="100%" viewBox="0 0 600 600" version="1.1" xmlns="http://www.w3.org/2000/svg" xmlns:xlink="http://www.w3.org/1999/xlink" xml:space="preserve" xmlns:serif="http://www.serif.com/" style="fill-rule:evenodd;clip-rule:evenodd;stroke-linecap:round;stroke-linejoin:round;stroke-miterlimit:1.5;"><rect id="Rotor" x="0" y="0" width="600" height="600" style="fill:none;"/><clipPath id="_clip1"><rect id="Rotor1" serif:id="Rotor" x="0" y="0" width="600" height="600"/></clipPath><g clip-path="url(#_clip1)"><g><path d="M200.104,304.583c-47.279,-0.012 -98.686,-3.763 -123.309,-17.979c-47.797,-27.596 -64.198,-88.806 -36.602,-136.603c27.596,-47.797 88.805,-64.198 136.602,-36.602c24.622,14.215 53.573,56.856 77.222,97.793c-32.081,16.658 -54.017,50.191 -54.017,88.808c0,1.536 0.035,3.064 0.104,4.583Z"/><path d="M345.983,211.192c23.649,-40.937 52.6,-83.578 77.222,-97.793c47.797,-27.596 109.006,-11.195 136.602,36.602c27.596,47.797 11.195,109.007 -36.602,136.603c-24.623,14.216 -76.03,17.967 -123.309,17.979c0.069,-1.519 0.104,-3.047 0.104,-4.583c0,-38.617 -21.936,-72.15 -54.017,-88.808Z"/><path d="M246.087,384.217c15.561,9.988 34.065,15.783 53.913,15.783c19.848,0 38.352,-5.795 53.913,-15.783c23.63,40.951 46.087,87.35 46.087,115.783c0,55.192 -44.808,100 -100,100c-55.192,0 -100,-44.808 -100,-100c0,-28.433 22.457,-74.832 46.087,-115.783Z"/></g><path d="M390.114,0c5.46,0 9.886,4.426 9.886,9.886c0,3.291 0,6.956 0,10.246c0,5.45 -4.418,9.868 -9.868,9.868l-1.6,0c-4.948,0 -9.194,3.523 -10.107,8.385c-6.692,35.625 -32.425,172.615 -32.425,172.615l-1.355,-0.49c-13.441,-6.725 -28.604,-10.51 -44.645,-10.51c-16.422,0 -31.925,3.967 -45.603,10.995l-0.897,0.505c0,0 -25.431,-137.781 -31.978,-173.252c-0.882,-4.779 -5.049,-8.248 -9.909,-8.248l-1.493,0c-5.589,0 -10.12,-4.531 -10.12,-10.12l0,-9.834c0,-5.548 4.498,-10.046 10.046,-10.046c34.233,0 146.079,0 180.068,0Z"/><circle cx="300" cy="300" r="50" style="stroke:#000;stroke-width:1px;"/></g></svg>