<?xml version="1.0" encoding="UTF-8" standalone="no"?><!DOCTYPE svg PUBLIC "-//W3C//DTD SVG 1.1//EN" "http://www.w3.org/Graphics/SVG/1.1/DTD/svg11.dtd"><svg width="100%" height="100%" viewBox="0 0 600 600" version="1.1" xmlns="http://www.w3.org/2000/svg" xmlns:xlink="http://www.w3.org/1999/xlink" xml:space="preserve" xmlns:serif="http://www.serif.com/" style="fill-rule:evenodd;clip-rule:evenodd;stroke-linejoin:round;stroke-miterlimit:2;"><path d="M17.145,460.114c5.519,77.122 135.034,130.695 289.279,119.656c154.245,-11.038 271.957,-122.404 266.438,-199.527c0,0 -183.098,56.547 -275.717,69.859c-92.443,13.286 -280,10.012 -280,10.012Z"/><path d="M572.893,380.696l0.028,0.453l0.025,0.453l0.022,0.455l0.02,0.455l0.017,0.457l0.014,0.456l0.011,0.458l0.009,0.458l0.006,0.459l0.003,0.46l0,0.461l-0.003,0.461l-0.005,0.462l-0.008,0.462l-0.011,0.464l-0.014,0.464l-0.016,0.464l-0.02,0.466l-0.022,0.466l-0.024,0.467l-0.028,0.467l-0.03,0.468l-0.033,0.469l-0.035,0.469l-0.039,0.47l-0.041,0.47l-0.043,0.471l-0.047,0.472l-0.049,0.473l-0.052,0.473l-0.054,0.473l-0.058,0.474l-0.06,0.475l-0.062,0.476l-0.066,0.475l-0.068,0.477l-0.07,0.477l-0.074,0.478l-0.076,0.478l-0.079,0.478l-0.081,0.48l-0.084,0.479l-0.087,0.481l-0.089,0.481l-0.092,0.481l-0.095,0.482l-0.097,0.482l-0.1,0.483l-0.102,0.483l-0.106,0.484l-0.107,0.484l-0.111,0.485l-0.113,0.485l-0.115,0.486l-0.119,0.486l-0.12,0.487l-0.124,0.487l-0.126,0.487l-0.128,0.488l-0.132,0.488l-0.134,0.489l-0.136,0.489l-0.139,0.49l-0.141,0.49l-0.144,0.49l-0.147,0.491l-0.149,0.491l-0.152,0.491l-0.154,0.492l-0.157,0.492l-0.16,0.493l-0.162,0.493l-0.164,0.493l-0.167,0.493l-0.17,0.494l-0.172,0.495l-0.174,0.494l-0.178,0.495l-0.179,0.495l-0.182,0.496l-0.185,0.496l-0.187,0.496l-0.19,0.496l-0.192,0.497l-0.195,0.497l-0.197,0.497l-0.199,0.497l-0.203,0.498l-0.204,0.498l-0.207,0.498l-0.21,0.498l-0.212,0.499l-0.214,0.499l-0.217,0.499l-0.219,0.499l-0.222,0.5l-0.224,0.5l-0.227,0.499l-0.229,0.501l-0.232,0.5l-0.234,0.5l-0.236,0.501l-0.239,0.501l-0.241,0.501l-0.244,0.501l-0.246,0.501l-0.248,0.501l-0.251,0.502l-0.254,0.502l-0.255,0.501l-0.258,0.502l-0.261,0.502l-0.263,0.502l-0.265,0.503l-0.267,0.502l-0.27,0.502l-0.273,0.503l-0.274,0.502l-0.277,0.503l-0.28,0.502l-0.281,0.503l-0.285,0.503l-0.286,0.503l-0.289,0.503l-0.291,0.502l-0.293,0.503l-0.296,0.503l-0.298,0.503l-0.301,0.503l-0.302,0.503l-0.305,0.503l-0.308,0.503l-0.309,0.503l-0.312,0.503l-0.315,0.503l-0.316,0.502l-0.319,0.503l-0.321,0.503l-0.324,0.503l-0.325,0.502l-0.328,0.503l-0.331,0.502l-0.332,0.503l-0.335,0.502l-0.337,0.502l-0.339,0.503l-0.342,0.502l-0.343,0.502l-0.346,0.501l-0.349,0.502l-0.35,0.502l-0.353,0.501l-0.355,0.502l-0.357,0.501l-0.359,0.501l-0.362,0.501l-0.364,0.5l-0.366,0.501l-0.368,0.5l-0.371,0.5l-0.372,0.501l-0.375,0.499l-0.377,0.5l-0.379,0.499l-0.382,0.5l-0.383,0.499l-0.386,0.498l-0.388,0.499l-0.39,0.498l-0.392,0.498l-0.394,0.498l-0.397,0.498l-0.399,0.497l-0.401,0.497l-0.403,0.497l-0.405,0.496l-0.407,0.497l-0.409,0.496l-0.412,0.495l-0.413,0.496l-0.416,0.495l-0.418,0.495l-0.42,0.494l-0.422,0.494l-0.424,0.494l-0.427,0.493l-0.428,0.493l-0.43,0.493l-0.433,0.493l-0.435,0.492l-0.436,0.491l-0.439,0.492l-0.441,0.49l-0.443,0.491l-0.445,0.49l-0.447,0.49l-0.449,0.489l-0.451,0.489l-0.454,0.489l-0.455,0.488l-0.457,0.488l-0.46,0.487l-0.461,0.487l-0.463,0.486l-0.466,0.486l-0.467,0.485l-0.47,0.485l-0.471,0.485l-0.474,0.484l-0.475,0.484l-0.478,0.483l-0.479,0.482l-0.482,0.483l-0.483,0.481l-0.486,0.481l-0.487,0.481l-0.49,0.48l-0.491,0.479l-0.494,0.479l-0.495,0.479l-0.497,0.478l-0.5,0.477l-0.501,0.477l-0.503,0.476l-0.505,0.476l-0.507,0.475l-0.509,0.475l-0.511,0.474l-0.513,0.473l-0.515,0.473l-0.517,0.472l-0.518,0.471l-0.521,0.471l-0.523,0.47l-0.524,0.47l-0.526,0.469l-0.529,0.468l-0.53,0.468l-0.532,0.467l-0.534,0.467l-0.535,0.465l-0.538,0.466l-0.54,0.464l-0.541,0.464l-0.543,0.463l-0.546,0.462l-0.547,0.462l-0.548,0.46l-0.551,0.461l-0.553,0.459l-0.554,0.459l-0.557,0.458l-0.558,0.457l-0.56,0.457l-0.561,0.456l-0.564,0.455l-0.566,0.454l-0.567,0.453l-0.569,0.453l-0.571,0.452l-0.573,0.451l-0.574,0.451l-0.576,0.449l-0.579,0.449l-0.579,0.448l-0.582,0.447l-0.584,0.446l-0.585,0.446l-0.587,0.444l-0.589,0.444l-0.59,0.443l-0.593,0.442l-0.594,0.442l-0.596,0.44l-0.597,0.439l-0.6,0.439l-0.601,0.438l-0.603,0.437l-0.604,0.436l-0.607,0.435l-0.608,0.434l-0.61,0.433l-0.611,0.433l-0.613,0.431l-0.615,0.43l-0.617,0.43l-0.618,0.429l-0.62,0.427l-0.622,0.427l-0.624,0.426l-0.625,0.424l-0.627,0.424l-0.628,0.423l-0.631,0.422l-0.632,0.421l-0.633,0.42l-0.635,0.418l-0.637,0.418l-0.639,0.417l-0.64,0.416l-0.642,0.415l-0.644,0.413l-0.645,0.413l-0.647,0.412l-0.648,0.41l-0.65,0.41l-0.652,0.408l-0.653,0.408l-0.655,0.406l-0.657,0.405l-0.658,0.405l-0.66,0.403l-0.661,0.402l-0.663,0.401l-0.665,0.399l-0.666,0.399l-0.668,0.397l-0.67,0.397l-0.671,0.395l-0.672,0.394l-0.674,0.393l-0.676,0.392l-0.677,0.391l-0.679,0.389l-0.681,0.388l-0.682,0.388l-0.683,0.386l-0.685,0.384l-0.687,0.384l-0.688,0.382l-0.69,0.381l-0.691,0.38l-0.693,0.379l-0.694,0.378l-0.696,0.376l-0.697,0.375l-0.699,0.374l-0.7,0.372l-0.702,0.372l-0.704,0.37l-0.705,0.368l-0.706,0.368l-0.708,0.366l-0.709,0.365l-0.711,0.364l-0.712,0.362l-0.714,0.361l-0.715,0.36l-0.717,0.358l-0.718,0.357l-0.72,0.356l-0.721,0.354l-0.723,0.353l-0.724,0.352l-0.725,0.351l-0.727,0.349l-0.728,0.347l-0.73,0.347l-0.731,0.344l-0.733,0.344l-0.734,0.342l-0.735,0.341l-0.737,0.339l-0.739,0.338l-0.739,0.337l-0.741,0.335l-0.743,0.334l-0.744,0.332l-0.745,0.331l-0.747,0.329l-0.748,0.328l-0.749,0.326l-0.751,0.325l-0.752,0.324l-0.754,0.322l-0.755,0.321l-0.756,0.319l-0.757,0.317l-0.759,0.317l-0.761,0.314l-0.761,0.313l-0.763,0.312l-0.765,0.31l-0.765,0.309l-0.767,0.307l-0.769,0.305l-0.769,0.304l-0.771,0.302l-0.772,0.301l-0.774,0.3l-0.775,0.297l-0.776,0.296l-0.778,0.295l-0.778,0.293l-0.78,0.291l-0.782,0.29l-0.782,0.288l-0.784,0.287l-0.785,0.285l-0.787,0.283l-0.788,0.282l-0.789,0.28l-0.79,0.278l-0.791,0.277l-0.793,0.275l-0.794,0.274l-0.795,0.271l-0.797,0.27l-0.798,0.269l-0.798,0.267l-0.801,0.265l-0.801,0.263l-0.803,0.262l-0.804,0.26l-0.805,0.258l-0.806,0.257l-0.807,0.254l-0.809,0.254l-0.81,0.251l-0.811,0.249l-0.812,0.248l-0.813,0.246l-0.815,0.245l-0.816,0.242l-0.817,0.241l-0.818,0.239l-0.819,0.237l-0.821,0.236l-0.821,0.234l-0.823,0.231l-0.824,0.23l-0.825,0.229l-0.826,0.226l-0.828,0.225l-0.828,0.222l-0.83,0.221l-0.83,0.219l-0.832,0.218l-0.833,0.215l-0.834,0.213l-0.835,0.212l-0.837,0.21l-0.837,0.208l-0.839,0.206l-0.839,0.204l-0.841,0.202l-0.842,0.2l-0.843,0.198l-0.844,0.197l-0.845,0.194l-0.846,0.193l-0.847,0.191l-0.848,0.188l-0.849,0.187l-0.851,0.185l-0.851,0.183l-0.853,0.181l-0.853,0.179l-0.855,0.177l-0.855,0.175l-0.857,0.173l-0.857,0.17l-0.859,0.169l-0.86,0.167l-0.86,0.165l-0.862,0.163l-0.863,0.161l-0.864,0.159l-0.864,0.157l-0.866,0.155l-0.867,0.152l-0.868,0.151l-0.868,0.149l-0.87,0.146l-0.871,0.145l-0.871,0.142l-0.873,0.141l-0.874,0.138l-0.874,0.136l-0.876,0.134l-0.876,0.132l-0.878,0.13l-0.878,0.127l-0.879,0.126l-0.881,0.123l-0.881,0.122l-0.882,0.119l-0.883,0.117l-0.884,0.115l-0.885,0.112l-0.886,0.111l-0.886,0.108l-0.888,0.106l-0.889,0.104l-0.889,0.102l-0.89,0.099l-0.892,0.098l-0.892,0.095l-0.893,0.093l-0.894,0.09l-0.894,0.089l-0.896,0.086l-0.897,0.084l-0.897,0.082l-0.898,0.079l-0.899,0.077l-0.9,0.075l-0.901,0.073l-0.902,0.07l-0.902,0.069l-0.904,0.065l-0.903,0.064l-0.903,0.063l-0.903,0.061l-0.901,0.059l-0.902,0.058l-0.9,0.057l-0.9,0.055l-0.9,0.054l-0.898,0.052l-0.899,0.051l-0.897,0.049l-0.897,0.048l-0.897,0.046l-0.895,0.045l-0.895,0.043l-0.895,0.042l-0.894,0.041l-0.893,0.039l-0.892,0.037l-0.892,0.037l-0.892,0.034l-0.89,0.034l-0.89,0.032l-0.889,0.03l-0.889,0.029l-0.888,0.028l-0.887,0.026l-0.887,0.024l-0.885,0.024l-0.886,0.022l-0.884,0.02l-0.884,0.019l-0.883,0.018l-0.882,0.016l-0.882,0.014l-0.881,0.014l-0.88,0.012l-0.879,0.01l-0.879,0.009l-0.878,0.008l-0.877,0.006l-0.877,0.005l-0.875,0.004l-0.875,0.002l-0.874,0l-0.874,0l-0.873,-0.002l-0.871,-0.004l-0.872,-0.005l-0.87,-0.006l-0.869,-0.008l-0.869,-0.009l-0.868,-0.01l-0.867,-0.012l-0.867,-0.013l-0.865,-0.015l-0.865,-0.016l-0.864,-0.017l-0.863,-0.019l-0.862,-0.02l-0.861,-0.021l-0.861,-0.023l-0.86,-0.024l-0.859,-0.026l-0.858,-0.027l-0.857,-0.028l-0.856,-0.029l-0.856,-0.031l-0.854,-0.033l-0.854,-0.033l-0.853,-0.035l-0.852,-0.037l-0.851,-0.037l-0.85,-0.04l-0.849,-0.04l-0.849,-0.042l-0.847,-0.043l-0.847,-0.044l-0.846,-0.046l-0.844,-0.047l-0.844,-0.048l-0.843,-0.05l-0.842,-0.051l-0.841,-0.053l-0.84,-0.053l-0.839,-0.055l-0.839,-0.057l-0.837,-0.058l-0.836,-0.059l-0.835,-0.06l-0.835,-0.061l-0.833,-0.063l-0.833,-0.065l-0.831,-0.065l-0.831,-0.067l-0.829,-0.068l-0.829,-0.07l-0.827,-0.071l-0.827,-0.072l-0.825,-0.073l-0.825,-0.075l-0.823,-0.076l-0.823,-0.077l-0.821,-0.079l-0.82,-0.079l-0.82,-0.081l-0.818,-0.083l-0.817,-0.084l-0.817,-0.085l-0.815,-0.086l-0.814,-0.087l-0.813,-0.089l-0.812,-0.09l-0.811,-0.092l-0.81,-0.092l-0.809,-0.094l-0.807,-0.095l-0.807,-0.097l-0.806,-0.097l-0.804,-0.099l-0.803,-0.1l-0.803,-0.102l-0.801,-0.103l-0.8,-0.104l-0.799,-0.105l-0.798,-0.106l-0.796,-0.108l-0.796,-0.109l-0.794,-0.11l-0.793,-0.111l-0.793,-0.113l-0.791,-0.114l-0.789,-0.115l-0.789,-0.117l-0.788,-0.117l-0.786,-0.119l-0.785,-0.12l-0.784,-0.121l-0.783,-0.123l-0.782,-0.124l-0.78,-0.125l-0.779,-0.126l-0.778,-0.127l-0.777,-0.129l-0.776,-0.13l-0.774,-0.131l-0.774,-0.132l-0.772,-0.134l-0.77,-0.134l-0.77,-0.136l-0.768,-0.137l-0.767,-0.139l-0.766,-0.139l-0.765,-0.141l-0.763,-0.142l-0.762,-0.143l-0.761,-0.144l-0.76,-0.146l-0.758,-0.146l-0.757,-0.148l-0.756,-0.149l-0.754,-0.15l-0.754,-0.152l-0.752,-0.152l-0.75,-0.154l-0.749,-0.155l-0.749,-0.156l-0.746,-0.157l-0.746,-0.159l-0.744,-0.159l-0.743,-0.161l-0.741,-0.162l-0.74,-0.163l-0.739,-0.165l-0.737,-0.165l-0.736,-0.167l-0.735,-0.167l-0.734,-0.169l-0.732,-0.17l-0.73,-0.171l-0.73,-0.173l-0.728,-0.173l-0.726,-0.175l-0.725,-0.176l-0.724,-0.177l-0.723,-0.178l-0.721,-0.179l-0.719,-0.18l-0.719,-0.182l-0.716,-0.182l-0.716,-0.184l-0.714,-0.185l-0.712,-0.186l-0.712,-0.187l-0.709,-0.188l-0.709,-0.19l-0.707,-0.19l-0.705,-0.192l-0.704,-0.192l-0.703,-0.194l-0.701,-0.195l-0.699,-0.196l-0.698,-0.197l-0.697,-0.199l-0.695,-0.199l-0.694,-0.2l-0.692,-0.202l-0.691,-0.203l-0.69,-0.203l-0.687,-0.205l-0.687,-0.206l-0.684,-0.207l-0.684,-0.208l-0.682,-0.209l-0.68,-0.211l-0.679,-0.211l-0.677,-0.213l-0.676,-0.213l-0.674,-0.215l-0.672,-0.216l-0.671,-0.216l-0.67,-0.218l-0.668,-0.219l-0.666,-0.22l-0.665,-0.221l-0.664,-0.222l-0.661,-0.223l-0.661,-0.225l-0.658,-0.225l-0.657,-0.226l-0.656,-0.228l-0.653,-0.228l-0.653,-0.23l-0.65,-0.23l-0.649,-0.232l-0.648,-0.233l-0.646,-0.233l-0.644,-0.235l-0.642,-0.236l-0.641,-0.237l-0.64,-0.238l-0.637,-0.239l-0.636,-0.24l-0.635,-0.241l-0.632,-0.242l-0.632,-0.243l-0.629,-0.244l-0.628,-0.245l-0.626,-0.246l-0.624,-0.247l-0.623,-0.248l-0.621,-0.25l-0.62,-0.25l-0.617,-0.251l-0.616,-0.252l-0.615,-0.254l-0.612,-0.254l-0.611,-0.255l-0.609,-0.256l-0.608,-0.258l-0.606,-0.258l-0.604,-0.259l-0.602,-0.26l-0.601,-0.262l-0.598,-0.262l-0.597,-0.263l-0.596,-0.265l-0.593,-0.265l-0.592,-0.266l-0.59,-0.267l-0.589,-0.268l-0.586,-0.27l-0.585,-0.27l-0.583,-0.271l-0.581,-0.272l-0.58,-0.273l-0.577,-0.274l-0.576,-0.275l-0.574,-0.276l-0.572,-0.277l-0.571,-0.278l-0.568,-0.279l-0.567,-0.28l-0.565,-0.28l-0.563,-0.282l-0.562,-0.283l-0.559,-0.284l-0.558,-0.284l-0.556,-0.286l-0.554,-0.286l-0.552,-0.288l-0.55,-0.288l-0.548,-0.29l-0.547,-0.29l-0.545,-0.291l-0.542,-0.292l-0.541,-0.293l-0.539,-0.294l-0.537,-0.295l-0.536,-0.296l-0.533,-0.297l-0.531,-0.298l-0.53,-0.299l-0.527,-0.299l-0.526,-0.301l-0.524,-0.301l-0.522,-0.303l-0.52,-0.303l-0.518,-0.304l-0.516,-0.305l-0.514,-0.306l-0.512,-0.307l-0.51,-0.308l-0.509,-0.309l-0.506,-0.309l-0.504,-0.311l-0.503,-0.311l-0.5,-0.313l-0.498,-0.313l-0.497,-0.314l-0.494,-0.315l-0.493,-0.316l-0.49,-0.317l-0.489,-0.317l-0.486,-0.319l-0.485,-0.319l-0.482,-0.321l-0.481,-0.321l-0.478,-0.322l-0.476,-0.323l-0.475,-0.324l-0.472,-0.324l-0.47,-0.326l-0.468,-0.326l-0.467,-0.328l-0.464,-0.328l-0.462,-0.329l-0.46,-0.33l-0.458,-0.33l-0.456,-0.332l-0.454,-0.332l-0.451,-0.334l-0.45,-0.334l-0.447,-0.335l-0.446,-0.336l-0.443,-0.336l-0.442,-0.338l-0.439,-0.338l-0.437,-0.34l-0.435,-0.34l-0.432,-0.341l-0.431,-0.341l-0.429,-0.343l-0.426,-0.343l-0.424,-0.345l-0.423,-0.345l-0.42,-0.345l-0.417,-0.347l-0.416,-0.348l-0.414,-0.348l-0.411,-0.349l-0.409,-0.35l-0.407,-0.351l-0.405,-0.352l-0.403,-0.352l-0.4,-0.353l-0.399,-0.354l-0.396,-0.355l-0.394,-0.356l-0.391,-0.356l-0.39,-0.357l-0.387,-0.358l-0.385,-0.359l-0.383,-0.36l-0.381,-0.36l-0.378,-0.362l-0.376,-0.362l-0.374,-0.362l-0.372,-0.364l-0.369,-0.364l-0.367,-0.365l-0.365,-0.366l-0.363,-0.367l-0.36,-0.367l-0.358,-0.369l-0.356,-0.369l-0.354,-0.37l-0.351,-0.37l-0.349,-0.371l-0.347,-0.372l-0.344,-0.373l-0.342,-0.374l-0.34,-0.374l-0.338,-0.375l-0.335,-0.376l-0.333,-0.377l-0.33,-0.377l-0.328,-0.379l-0.326,-0.378l-0.324,-0.38l-0.321,-0.38l-0.319,-0.382l-0.316,-0.381l-0.314,-0.383l-0.312,-0.383l-0.31,-0.384l-0.307,-0.385l-0.304,-0.386l-0.303,-0.386l-0.3,-0.387l-0.297,-0.388l-0.295,-0.388l-0.293,-0.389l-0.29,-0.39l-0.288,-0.391l-0.286,-0.391l-0.283,-0.392l-0.281,-0.393l-0.278,-0.393l-0.276,-0.395l-0.273,-0.395l-0.271,-0.395l-0.269,-0.396l-0.266,-0.397l-0.264,-0.398l-0.261,-0.399l-0.259,-0.399l-0.256,-0.399l-0.254,-0.401l-0.251,-0.401l-0.249,-0.402l-0.247,-0.402l-0.244,-0.404l-0.241,-0.404l-0.239,-0.404l-0.236,-0.406l-0.234,-0.405l-0.232,-0.407l-0.229,-0.407l-0.226,-0.408l-0.224,-0.409l-0.222,-0.409l-0.218,-0.41l-0.217,-0.411l-0.214,-0.411l-0.211,-0.412l-0.209,-0.413l-0.206,-0.413l-0.203,-0.414l-0.201,-0.415l-0.199,-0.415l-0.196,-0.416l-0.193,-0.417l-0.191,-0.417l-0.188,-0.418l-0.186,-0.418l-0.183,-0.419l-0.18,-0.42l-0.178,-0.421l-0.175,-0.421l-0.173,-0.421l-0.17,-0.423l-0.167,-0.423l-0.165,-0.423l-0.162,-0.424l-0.16,-0.425l-0.156,-0.426l-0.155,-0.426l-0.151,-0.427l-0.149,-0.427l-0.146,-0.428l-0.144,-0.428l-0.141,-0.43l-0.138,-0.429l-0.136,-0.431l-0.133,-0.431l-0.13,-0.431l-0.128,-0.432l-0.125,-0.433l-0.122,-0.434l-0.12,-0.434l-0.116,-0.434l-0.115,-0.435l-0.111,-0.436l-0.109,-0.437l-0.106,-0.437l-0.103,-0.437l-0.101,-0.438l-0.097,-0.439l-0.095,-0.439l-0.093,-0.44l-0.089,-0.441l-0.087,-0.441l-0.084,-0.441l-0.082,-0.442l-0.078,-0.443l-0.076,-0.443l-0.073,-0.444l-0.07,-0.445l-0.068,-0.445l-0.064,-0.445l-0.062,-0.447l-0.059,-0.446l-0.057,-0.447l-0.053,-0.448l-0.051,-0.449l-0.048,-0.448l-0.045,-0.45l-0.042,-0.45l-0.039,-0.45l-0.037,-0.452l-0.034,-0.451l0.541,0.009l1.588,0.024l1.171,0.017l1.413,0.02l1.649,0.021l1.878,0.024l2.101,0.024l2.318,0.025l2.528,0.025l2.731,0.025l2.929,0.025l3.119,0.023l1.629,0.011l1.674,0.011l1.719,0.01l1.762,0.01l1.806,0.009l1.847,0.008l1.888,0.008l1.929,0.007l1.968,0.006l2.007,0.005l2.045,0.004l2.082,0.003l2.119,0.002l2.154,0.001l2.188,-0.001l2.223,-0.001l2.256,-0.003l2.288,-0.004l2.319,-0.006l2.35,-0.007l2.38,-0.008l2.409,-0.01l2.438,-0.012l2.465,-0.014l2.491,-0.015l2.517,-0.017l2.542,-0.019l2.567,-0.021l2.59,-0.023l2.612,-0.025l2.634,-0.027l2.656,-0.029l2.675,-0.031l2.695,-0.034l2.713,-0.035l2.731,-0.039l2.748,-0.04l2.764,-0.044l2.779,-0.045l2.794,-0.049l2.808,-0.051l2.82,-0.053l2.833,-0.057l2.843,-0.059l2.854,-0.062l2.864,-0.066l2.873,-0.068l2.881,-0.071l2.888,-0.074l1.446,-0.039l1.448,-0.039l1.449,-0.04l1.451,-0.04l1.452,-0.042l1.453,-0.042l1.454,-0.044l1.455,-0.044l1.455,-0.045l1.457,-0.046l1.456,-0.046l1.458,-0.048l1.458,-0.048l1.458,-0.049l1.458,-0.051l1.458,-0.051l1.459,-0.052l1.458,-0.053l1.458,-0.053l1.458,-0.055l1.457,-0.056l1.457,-0.056l1.456,-0.058l1.455,-0.059l1.455,-0.059l1.453,-0.061l1.453,-0.061l1.452,-0.062l1.45,-0.064l1.449,-0.064l1.447,-0.066l1.446,-0.066l1.445,-0.068l1.442,-0.068l1.441,-0.07l1.439,-0.07l1.437,-0.072l1.435,-0.072l1.432,-0.074l1.43,-0.075l1.428,-0.076l1.425,-0.077l1.422,-0.078l1.42,-0.079l1.417,-0.08l1.414,-0.082l1.411,-0.082l1.408,-0.084l1.404,-0.084l1.401,-0.086l1.398,-0.087l1.394,-0.088l1.391,-0.09l1.386,-0.09l1.383,-0.092l1.379,-0.093l1.375,-0.094l1.371,-0.095l1.366,-0.097l1.362,-0.097l1.358,-0.099l1.353,-0.1l1.349,-0.102l1.343,-0.102l1.339,-0.104l1.334,-0.105l1.329,-0.106l1.323,-0.108l1.318,-0.109l1.313,-0.11l1.308,-0.112l1.302,-0.112l1.296,-0.114l1.29,-0.116l1.285,-0.116l1.278,-0.118l1.273,-0.12l1.266,-0.12l1.26,-0.123l1.254,-0.123l1.247,-0.125l1.241,-0.126l1.234,-0.127l1.227,-0.129l1.22,-0.13l1.213,-0.132l1.206,-0.133l1.199,-0.135l1.192,-0.135l1.184,-0.138l1.177,-0.138l1.169,-0.141l1.162,-0.141l1.153,-0.143l1.146,-0.145l1.138,-0.146l1.129,-0.147l1.122,-0.149l1.113,-0.151l1.105,-0.152l1.096,-0.153l1.088,-0.155l1.089,-0.158l1.098,-0.162l1.106,-0.166l1.114,-0.169l1.121,-0.174l1.13,-0.177l1.137,-0.181l1.145,-0.185l1.152,-0.188l1.16,-0.192l1.166,-0.195l1.175,-0.2l1.181,-0.202l1.188,-0.207l1.195,-0.209l1.202,-0.213l1.209,-0.217l1.216,-0.219l1.221,-0.224l1.229,-0.226l1.234,-0.23l1.241,-0.232l1.247,-0.237l1.253,-0.239l1.259,-0.242l1.265,-0.245l1.271,-0.249l1.276,-0.251l1.281,-0.254l1.288,-0.258l1.292,-0.26l1.298,-0.263l1.303,-0.265l1.308,-0.269l1.313,-0.271l1.318,-0.274l1.322,-0.277l1.327,-0.279l1.332,-0.282l1.336,-0.285l1.341,-0.287l1.345,-0.289l1.349,-0.292l1.353,-0.295l1.357,-0.297l1.361,-0.299l1.365,-0.301l1.368,-0.304l1.373,-0.306l1.375,-0.308l1.379,-0.311l1.382,-0.312l1.386,-0.315l1.388,-0.317l1.392,-0.318l1.394,-0.321l1.397,-0.323l1.4,-0.324l1.403,-0.327l1.405,-0.328l1.407,-0.33l1.41,-0.332l1.412,-0.334l1.414,-0.335l1.417,-0.337l1.418,-0.339l1.419,-0.34l1.422,-0.342l1.423,-0.344l1.425,-0.345l1.426,-0.346l1.428,-0.348l1.429,-0.349l1.43,-0.351l1.431,-0.351l1.432,-0.354l1.432,-0.354l1.434,-0.356l1.434,-0.356l1.435,-0.358l1.435,-0.359l1.436,-0.36l1.435,-0.361l1.436,-0.363l1.436,-0.363l1.436,-0.364l1.436,-0.364l1.436,-0.366l1.435,-0.367l1.435,-0.367l1.435,-0.368l1.433,-0.369l1.433,-0.369l1.433,-0.371l1.431,-0.37l1.43,-0.372l1.429,-0.371l1.428,-0.373l1.427,-0.373l1.425,-0.373l1.424,-0.373l1.422,-0.374l2.839,-0.749l2.832,-0.75l2.823,-0.75l2.814,-0.751l2.805,-0.751l2.793,-0.751l2.782,-0.751l2.77,-0.749l2.757,-0.749l2.743,-0.748l2.728,-0.745l2.713,-0.744l2.696,-0.742l2.68,-0.74l2.662,-0.736l2.644,-0.734l2.624,-0.73l2.604,-0.727l2.583,-0.723l2.562,-0.719l2.539,-0.714l2.516,-0.71l2.492,-0.704l2.467,-0.7l2.441,-0.693l2.416,-0.688l2.388,-0.682l2.36,-0.675l2.331,-0.669l2.302,-0.661l2.272,-0.655l2.241,-0.646l2.208,-0.639l2.177,-0.631l2.142,-0.622l2.109,-0.614l2.074,-0.604l2.038,-0.596l2.001,-0.585l1.964,-0.576l1.926,-0.566l1.887,-0.555l1.848,-0.545l1.807,-0.533l1.765,-0.522l1.724,-0.511l1.681,-0.499l3.231,-0.961l3.05,-0.91l2.863,-0.857l2.67,-0.801l2.471,-0.744l2.265,-0.683l2.053,-0.622l1.835,-0.557l1.611,-0.49l1.38,-0.421l1.144,-0.349l1.551,-0.476l0.528,-0.163l0.031,0.453Zm-43.291,43.721l-2.192,0.635l-2.224,0.644l-2.257,0.651l-2.288,0.659l-2.319,0.666l-2.348,0.674l-2.378,0.68l-2.405,0.687l-2.433,0.693l-2.46,0.699l-2.485,0.704l-2.511,0.71l-2.535,0.715l-2.558,0.72l-2.582,0.724l-2.603,0.729l-2.625,0.732l-2.645,0.736l-2.665,0.74l-2.683,0.743l-2.702,0.745l-2.72,0.748l-2.735,0.751l-2.752,0.752l-2.767,0.754l-2.781,0.755l-2.795,0.757l-2.807,0.757l-2.82,0.758l-2.831,0.758l-2.841,0.758l-2.851,0.758l-2.86,0.757l-2.864,0.756l-1.441,0.378l-1.438,0.378l-1.44,0.377l-1.442,0.377l-1.444,0.376l-1.444,0.376l-1.446,0.375l-1.448,0.375l-1.448,0.374l-1.449,0.374l-1.45,0.373l-1.451,0.372l-1.452,0.372l-1.452,0.371l-1.453,0.37l-1.454,0.369l-1.453,0.369l-1.454,0.368l-1.454,0.366l-1.454,0.366l-1.454,0.365l-1.454,0.363l-1.454,0.363l-1.454,0.362l-1.452,0.36l-1.453,0.359l-1.452,0.358l-1.451,0.357l-1.451,0.356l-1.449,0.354l-1.449,0.353l-1.448,0.352l-1.446,0.35l-1.445,0.348l-1.444,0.348l-1.443,0.345l-1.44,0.344l-1.44,0.343l-1.437,0.341l-1.436,0.339l-1.434,0.338l-1.432,0.336l-1.43,0.334l-1.428,0.333l-1.425,0.33l-1.423,0.329l-1.421,0.326l-1.418,0.325l-1.416,0.323l-1.413,0.321l-1.41,0.319l-1.407,0.317l-1.405,0.314l-1.401,0.313l-1.398,0.31l-1.395,0.308l-1.392,0.306l-1.388,0.304l-1.385,0.301l-1.381,0.299l-1.378,0.297l-1.373,0.294l-1.371,0.292l-1.366,0.289l-1.362,0.286l-1.358,0.285l-1.354,0.281l-1.349,0.279l-1.346,0.276l-1.341,0.274l-1.336,0.271l-1.332,0.268l-1.327,0.265l-1.323,0.262l-1.318,0.26l-1.313,0.257l-1.308,0.253l-1.303,0.251l-1.298,0.248l-1.293,0.245l-1.287,0.241l-1.282,0.239l-1.277,0.235l-1.272,0.232l-1.265,0.229l-1.261,0.226l-1.254,0.222l-1.249,0.219l-1.243,0.216l-1.237,0.212l-1.232,0.209l-1.225,0.205l-1.219,0.202l-1.214,0.199l-1.207,0.194l-1.2,0.191l-1.195,0.188l-1.189,0.184l-1.182,0.18l-1.176,0.176l-1.169,0.172l-1.162,0.169l-1.161,0.165l-1.168,0.164l-1.175,0.161l-1.182,0.16l-1.189,0.158l-1.196,0.156l-1.202,0.154l-1.208,0.153l-1.216,0.15l-1.222,0.15l-1.228,0.147l-1.235,0.145l-1.241,0.144l-1.248,0.143l-1.253,0.14l-1.26,0.139l-1.266,0.137l-1.272,0.136l-1.277,0.134l-1.284,0.133l-1.289,0.131l-1.295,0.13l-1.3,0.128l-1.307,0.126l-1.311,0.125l-1.317,0.124l-1.323,0.122l-1.327,0.12l-1.332,0.119l-1.338,0.118l-1.343,0.116l-1.347,0.115l-1.353,0.114l-1.356,0.112l-1.362,0.11l-1.366,0.11l-1.371,0.108l-1.375,0.106l-1.379,0.106l-1.384,0.104l-1.387,0.102l-1.392,0.102l-1.396,0.1l-1.399,0.099l-1.403,0.097l-1.407,0.096l-1.411,0.095l-1.413,0.094l-1.418,0.093l-1.42,0.091l-1.424,0.09l-1.427,0.089l-1.43,0.087l-1.433,0.087l-1.436,0.085l-1.438,0.084l-1.441,0.083l-1.444,0.082l-1.446,0.08l-1.449,0.08l-1.451,0.078l-1.452,0.077l-1.456,0.077l-1.457,0.075l-1.459,0.073l-1.461,0.073l-1.462,0.072l-1.464,0.071l-1.466,0.069l-1.467,0.069l-1.469,0.067l-1.47,0.067l-1.47,0.065l-1.473,0.064l-1.473,0.064l-1.473,0.062l-1.475,0.061l-1.475,0.061l-1.476,0.059l-1.476,0.058l-1.476,0.058l-1.478,0.056l-1.477,0.056l-1.477,0.054l-1.477,0.054l-1.477,0.053l-1.477,0.051l-1.476,0.051l-1.477,0.05l-1.475,0.049l-1.476,0.048l-1.474,0.047l-1.473,0.047l-1.473,0.045l-1.472,0.045l-1.47,0.044l-1.47,0.042l-1.468,0.043l-1.467,0.041l-1.465,0.04l-1.464,0.04l-1.466,0.039l-2.915,0.075l-2.91,0.072l-2.903,0.068l-2.893,0.066l-2.882,0.063l-2.872,0.06l-2.859,0.057l-2.847,0.054l-2.834,0.052l-2.819,0.048l-2.805,0.047l-2.789,0.043l-2.772,0.041l-2.754,0.039l-2.737,0.036l-2.718,0.034l-2.697,0.031l-2.678,0.03l-2.656,0.027l-2.633,0.025l-2.611,0.023l-2.587,0.021l-2.563,0.019l-2.537,0.017l-2.51,0.016l-2.484,0.013l-2.457,0.012l-2.427,0.01l-2.399,0.009l-2.368,0.007l-2.337,0.006l-2.305,0.004l-2.273,0.003l-2.24,0.001l-2.205,0.001l-2.17,-0.001l-2.135,-0.002l-0.389,-0.001l0.079,0.084l0.26,0.277l0.263,0.277l0.265,0.278l0.267,0.277l0.271,0.278l0.272,0.278l0.274,0.277l0.277,0.278l0.279,0.277l0.281,0.277l0.285,0.278l0.285,0.278l0.289,0.277l0.29,0.278l0.293,0.277l0.297,0.278l0.298,0.278l0.299,0.277l0.302,0.277l0.304,0.277l0.308,0.277l0.31,0.278l0.311,0.277l0.314,0.277l0.317,0.277l0.318,0.276l0.32,0.276l0.324,0.278l0.326,0.276l0.327,0.276l0.33,0.276l0.333,0.275l0.335,0.276l0.337,0.276l0.34,0.276l0.341,0.275l0.344,0.274l0.346,0.275l0.349,0.275l0.352,0.275l0.352,0.273l0.355,0.274l0.358,0.274l0.36,0.273l0.362,0.273l0.366,0.274l0.366,0.272l0.369,0.272l0.372,0.272l0.373,0.272l0.375,0.271l0.379,0.271l0.381,0.272l0.382,0.27l0.385,0.27l0.388,0.271l0.388,0.268l0.392,0.27l0.394,0.269l0.396,0.268l0.399,0.269l0.4,0.267l0.402,0.267l0.406,0.268l0.407,0.266l0.409,0.266l0.412,0.266l0.412,0.265l0.418,0.266l0.418,0.265l0.42,0.263l0.422,0.264l0.424,0.263l0.427,0.262l0.43,0.264l0.431,0.262l0.433,0.261l0.435,0.261l0.438,0.26l0.44,0.26l0.442,0.26l0.444,0.259l0.446,0.258l0.449,0.258l0.449,0.257l0.453,0.258l0.456,0.257l0.456,0.255l0.458,0.255l0.462,0.255l0.462,0.254l0.466,0.254l0.468,0.254l0.468,0.252l0.471,0.252l0.474,0.252l0.477,0.251l0.476,0.25l0.48,0.25l0.483,0.249l0.482,0.248l0.486,0.248l0.488,0.248l0.489,0.246l0.492,0.246l0.495,0.246l0.495,0.245l0.497,0.244l0.501,0.243l0.503,0.244l0.503,0.242l0.506,0.241l0.507,0.241l0.51,0.24l0.512,0.24l0.514,0.239l0.515,0.238l0.518,0.238l0.52,0.237l0.522,0.236l0.524,0.236l0.525,0.234l0.526,0.234l0.53,0.234l0.532,0.233l0.533,0.231l0.535,0.231l0.538,0.231l0.538,0.23l0.541,0.229l0.542,0.228l0.545,0.228l0.546,0.226l0.548,0.226l0.55,0.225l0.553,0.225l0.555,0.224l0.555,0.223l0.556,0.222l0.56,0.222l0.562,0.22l0.563,0.22l0.564,0.219l0.568,0.219l0.568,0.217l0.57,0.217l0.572,0.215l0.574,0.215l0.577,0.215l0.577,0.213l0.579,0.213l0.581,0.212l0.582,0.21l0.587,0.211l0.586,0.209l0.587,0.208l0.59,0.208l0.592,0.207l0.593,0.206l0.595,0.205l0.598,0.204l0.598,0.203l0.6,0.203l0.602,0.201l0.604,0.201l0.606,0.2l0.606,0.199l0.609,0.198l0.611,0.197l0.611,0.196l0.615,0.196l0.616,0.194l0.617,0.194l0.619,0.193l0.62,0.191l0.622,0.192l0.624,0.189l0.625,0.189l0.628,0.189l0.629,0.187l0.629,0.186l0.633,0.186l0.633,0.184l0.634,0.183l0.638,0.183l0.639,0.182l0.639,0.181l0.641,0.179l0.643,0.179l0.646,0.178l0.645,0.177l0.649,0.176l0.649,0.175l0.65,0.174l0.654,0.173l0.654,0.172l0.655,0.171l0.657,0.17l0.658,0.169l0.661,0.169l0.661,0.167l0.664,0.166l0.664,0.165l0.666,0.164l0.668,0.163l0.669,0.163l0.671,0.161l0.671,0.16l0.673,0.159l0.676,0.158l0.678,0.158l0.677,0.156l0.678,0.154l0.682,0.155l0.682,0.153l0.684,0.152l0.685,0.151l0.686,0.15l0.688,0.149l0.69,0.148l0.691,0.147l0.693,0.145l0.693,0.145l0.694,0.144l0.698,0.142l0.697,0.142l0.699,0.14l0.701,0.14l0.702,0.138l0.703,0.138l0.706,0.136l0.706,0.135l0.706,0.134l0.709,0.133l0.71,0.132l0.711,0.131l0.713,0.13l0.714,0.129l0.716,0.128l0.717,0.126l0.717,0.126l0.719,0.124l0.72,0.123l0.722,0.122l0.724,0.121l0.725,0.12l0.725,0.119l0.726,0.118l0.73,0.117l0.728,0.115l0.731,0.114l0.732,0.114l0.733,0.112l0.735,0.111l0.736,0.11l0.737,0.108l0.738,0.108l0.74,0.107l0.74,0.105l0.741,0.104l0.744,0.103l0.744,0.102l0.745,0.101l0.747,0.099l0.747,0.099l0.749,0.097l0.751,0.096l0.75,0.095l0.753,0.094l0.755,0.093l0.754,0.091l0.755,0.091l0.758,0.089l0.758,0.088l0.759,0.087l0.76,0.085l0.763,0.085l0.762,0.083l0.764,0.082l0.764,0.081l0.767,0.08l0.768,0.079l0.767,0.077l0.769,0.076l0.771,0.075l0.771,0.074l0.772,0.072l0.774,0.072l0.775,0.07l0.775,0.069l0.778,0.068l0.777,0.066l0.779,0.065l0.78,0.065l0.781,0.063l0.782,0.061l0.783,0.061l0.784,0.059l0.786,0.058l0.785,0.057l0.787,0.055l0.788,0.054l0.788,0.053l0.792,0.052l0.79,0.051l0.792,0.049l0.793,0.048l0.793,0.047l0.796,0.046l0.797,0.044l0.795,0.043l0.798,0.042l0.799,0.041l0.8,0.039l0.8,0.038l0.802,0.037l0.802,0.036l0.803,0.034l0.804,0.033l0.807,0.032l0.805,0.03l0.806,0.029l0.809,0.028l0.808,0.027l0.809,0.025l0.811,0.024l0.812,0.023l0.812,0.022l0.813,0.02l0.814,0.019l0.815,0.018l0.815,0.016l0.817,0.015l0.817,0.014l0.818,0.012l0.819,0.011l0.821,0.01l0.82,0.009l0.821,0.007l0.823,0.006l0.822,0.004l0.825,0.004l0.824,0.002l0.826,0l0.827,0l0.827,-0.002l0.827,-0.003l0.829,-0.005l0.829,-0.006l0.83,-0.007l0.83,-0.009l0.832,-0.01l0.834,-0.011l0.832,-0.013l0.834,-0.014l0.835,-0.015l0.836,-0.017l0.835,-0.018l0.837,-0.019l0.838,-0.021l0.838,-0.022l0.838,-0.023l0.84,-0.025l0.84,-0.026l0.841,-0.027l0.842,-0.029l0.843,-0.03l0.842,-0.032l0.843,-0.033l0.846,-0.034l0.845,-0.036l0.846,-0.037l0.845,-0.038l0.847,-0.04l0.848,-0.041l0.849,-0.042l0.849,-0.044l0.849,-0.045l0.85,-0.047l0.85,-0.048l0.852,-0.05l0.853,-0.05l0.852,-0.053l0.853,-0.053l0.854,-0.055l0.854,-0.057l0.855,-0.057l0.856,-0.059l0.848,-0.061l0.833,-0.06l0.826,-0.063l0.824,-0.064l0.823,-0.066l0.823,-0.069l0.822,-0.07l0.822,-0.073l0.82,-0.075l0.819,-0.077l0.819,-0.078l0.819,-0.081l0.817,-0.083l0.816,-0.085l0.817,-0.087l0.815,-0.089l0.814,-0.091l0.813,-0.093l0.812,-0.095l0.812,-0.097l0.811,-0.099l0.81,-0.101l0.81,-0.103l0.809,-0.106l0.807,-0.107l0.806,-0.108l0.807,-0.111l0.805,-0.113l0.804,-0.115l0.803,-0.117l0.803,-0.119l0.802,-0.12l0.801,-0.123l0.8,-0.124l0.799,-0.127l0.799,-0.128l0.797,-0.13l0.796,-0.133l0.797,-0.134l0.794,-0.136l0.795,-0.138l0.792,-0.139l0.792,-0.142l0.792,-0.144l0.791,-0.145l0.789,-0.147l0.788,-0.149l0.788,-0.151l0.787,-0.153l0.785,-0.155l0.785,-0.156l0.785,-0.159l0.783,-0.16l0.781,-0.162l0.782,-0.164l0.781,-0.165l0.779,-0.167l0.778,-0.17l0.778,-0.171l0.776,-0.172l0.775,-0.175l0.775,-0.176l0.774,-0.178l0.773,-0.18l0.77,-0.182l0.772,-0.183l0.77,-0.185l0.768,-0.187l0.768,-0.189l0.767,-0.19l0.765,-0.192l0.766,-0.194l0.763,-0.195l0.763,-0.197l0.762,-0.2l0.759,-0.2l0.76,-0.202l0.759,-0.204l0.758,-0.206l0.757,-0.207l0.756,-0.209l0.753,-0.211l0.754,-0.212l0.752,-0.214l0.753,-0.216l0.749,-0.217l0.749,-0.219l0.749,-0.221l0.747,-0.222l0.746,-0.223l0.745,-0.226l0.745,-0.227l0.742,-0.229l0.741,-0.23l0.741,-0.231l0.74,-0.234l0.739,-0.235l0.736,-0.236l0.737,-0.238l0.735,-0.24l0.733,-0.241l0.734,-0.243l0.732,-0.245l0.73,-0.245l0.73,-0.248l0.728,-0.249l0.727,-0.25l0.726,-0.252l0.726,-0.254l0.723,-0.255l0.722,-0.256l0.723,-0.258l0.719,-0.26l0.719,-0.261l0.719,-0.262l0.716,-0.264l0.716,-0.265l0.714,-0.267l0.714,-0.269l0.712,-0.27l0.711,-0.271l0.708,-0.272l0.71,-0.274l0.707,-0.276l0.705,-0.276l0.705,-0.279l0.705,-0.28l0.701,-0.281l0.701,-0.282l0.7,-0.284l0.699,-0.286l0.697,-0.286l0.697,-0.289l0.695,-0.289l0.693,-0.291l0.692,-0.292l0.692,-0.294l0.688,-0.294l0.689,-0.296l0.688,-0.298l0.686,-0.299l0.685,-0.3l0.684,-0.302l0.681,-0.302l0.681,-0.304l0.679,-0.305l0.678,-0.307l0.678,-0.308l0.676,-0.31l0.673,-0.31l0.673,-0.312l0.672,-0.313l0.67,-0.314l0.669,-0.315l0.667,-0.317l0.667,-0.319l0.664,-0.319l0.663,-0.32l0.663,-0.322l0.661,-0.322l0.66,-0.325l0.657,-0.325l0.656,-0.326l0.657,-0.329l0.654,-0.328l0.651,-0.33l0.652,-0.331l0.65,-0.333l0.648,-0.333l0.646,-0.335l0.646,-0.335l0.645,-0.338l0.642,-0.337l0.641,-0.34l0.64,-0.34l0.638,-0.341l0.638,-0.343l0.635,-0.344l0.634,-0.345l0.632,-0.345l0.631,-0.347l0.631,-0.349l0.628,-0.348l0.626,-0.35l0.626,-0.352l0.623,-0.352l0.622,-0.353l0.621,-0.354l0.619,-0.356l0.618,-0.356l0.616,-0.357l0.615,-0.359l0.614,-0.359l0.612,-0.361l0.61,-0.361l0.608,-0.362l0.608,-0.364l0.606,-0.364l0.604,-0.365l0.602,-0.366l0.601,-0.368l0.6,-0.368l0.598,-0.369l0.596,-0.369l0.595,-0.372l0.594,-0.372l0.591,-0.372l0.59,-0.374l0.589,-0.375l0.587,-0.375l0.586,-0.377l0.582,-0.376l0.583,-0.378l0.581,-0.38l0.579,-0.38l0.577,-0.38l0.576,-0.382l0.575,-0.382l0.572,-0.383l0.571,-0.385l0.569,-0.384l0.568,-0.386l0.566,-0.387l0.564,-0.387l0.563,-0.388l0.561,-0.389l0.559,-0.389l0.558,-0.391l0.557,-0.392l0.553,-0.391l0.553,-0.392l0.552,-0.394l0.549,-0.395l0.547,-0.394l0.546,-0.396l0.545,-0.396l0.542,-0.397l0.541,-0.398l0.539,-0.399l0.538,-0.399l0.535,-0.4l0.534,-0.4l0.532,-0.401l0.531,-0.402l0.529,-0.403l0.527,-0.403l0.526,-0.404l0.523,-0.404l0.522,-0.405l0.52,-0.406l0.518,-0.406l0.517,-0.407l0.514,-0.407l0.514,-0.409l0.511,-0.408l0.509,-0.409l0.508,-0.41l0.506,-0.411l0.503,-0.411l0.502,-0.411l0.501,-0.412l0.499,-0.413l0.496,-0.413l0.496,-0.414l0.493,-0.413l0.491,-0.415l0.49,-0.415l0.487,-0.416l0.486,-0.416l0.484,-0.416l0.482,-0.417l0.48,-0.418l0.479,-0.418l0.477,-0.418l0.474,-0.419l0.473,-0.419l0.471,-0.42l0.468,-0.419l0.468,-0.421l0.465,-0.421l0.464,-0.422l0.461,-0.421l0.459,-0.422l0.458,-0.422l0.456,-0.423l0.454,-0.423l0.452,-0.424l0.45,-0.423l0.448,-0.425l0.446,-0.424l0.444,-0.424l0.443,-0.426l0.44,-0.425l0.438,-0.426l0.437,-0.426l0.434,-0.426l0.433,-0.426l0.43,-0.427l0.429,-0.427l0.427,-0.427l0.424,-0.427l0.423,-0.428l0.421,-0.428l0.418,-0.428l0.417,-0.428l0.415,-0.429l0.413,-0.428l0.41,-0.429l0.409,-0.429l0.407,-0.429l0.405,-0.43l0.402,-0.428l0.401,-0.43l0.398,-0.43l0.396,-0.429l0.395,-0.43l0.393,-0.431l0.39,-0.43l0.388,-0.429l0.387,-0.431l0.385,-0.431l0.381,-0.429l0.381,-0.431l0.378,-0.431l0.376,-0.43l0.374,-0.43l0.372,-0.431l0.37,-0.431l0.367,-0.429l0.366,-0.431l0.364,-0.431l0.361,-0.43l0.359,-0.43l0.358,-0.431l0.355,-0.43l0.353,-0.43l0.351,-0.43l0.348,-0.43l0.347,-0.43l0.345,-0.43l0.343,-0.43l0.339,-0.429l0.339,-0.43l0.336,-0.429l0.333,-0.429l0.332,-0.429l0.33,-0.429l0.328,-0.429l0.325,-0.428l0.323,-0.428l0.321,-0.428l0.318,-0.428l0.317,-0.427l0.315,-0.428l0.312,-0.427l0.31,-0.427l0.308,-0.426l0.306,-0.426l0.304,-0.427l0.301,-0.426l0.299,-0.424l0.297,-0.425l0.295,-0.425l0.293,-0.426l0.29,-0.423l0.288,-0.424l0.287,-0.424l0.284,-0.423l0.28,-0.421l0.28,-0.423l0.278,-0.422l0.274,-0.42l0.273,-0.422l0.271,-0.421l0.268,-0.42l0.266,-0.419l0.264,-0.419l0.261,-0.419l0.26,-0.418l0.258,-0.418l0.254,-0.417l0.253,-0.417l0.25,-0.415l0.248,-0.416l0.246,-0.415l0.244,-0.415l0.241,-0.413l0.24,-0.414l0.237,-0.413l0.234,-0.41l0.232,-0.412l0.231,-0.412l0.181,-0.325l-1.654,0.48Z"/><path d="M179,53c0,0 29.879,-7.317 42.226,-12.139c11.18,-4.367 20.251,-13.719 31.854,-16.792c13.129,-3.477 46.92,-4.069 46.92,-4.069c0,0 -7,23.328 -8,32.662c-0.832,7.763 2,23.338 2,23.338c0,0 -37.291,1.056 -55.428,-2.571c-19.166,-3.833 -59.572,-20.429 -59.572,-20.429Z"/><path d="M299.921,20.264l-0.224,0.757l-0.16,0.545l-0.19,0.648l-0.216,0.744l-0.24,0.833l-0.263,0.915l-0.282,0.989l-0.299,1.059l-0.315,1.119l-0.326,1.175l-0.167,0.605l-0.17,0.617l-0.171,0.627l-0.173,0.636l-0.175,0.645l-0.175,0.653l-0.176,0.659l-0.177,0.666l-0.176,0.67l-0.177,0.675l-0.176,0.678l-0.175,0.681l-0.174,0.682l-0.173,0.684l-0.172,0.683l-0.169,0.683l-0.167,0.68l-0.164,0.679l-0.162,0.674l-0.159,0.671l-0.155,0.665l-0.151,0.66l-0.147,0.652l-0.143,0.645l-0.139,0.637l-0.133,0.627l-0.065,0.309l-0.064,0.307l-0.062,0.305l-0.06,0.301l-0.06,0.298l-0.057,0.296l-0.057,0.292l-0.054,0.289l-0.053,0.285l-0.052,0.282l-0.049,0.278l-0.048,0.274l-0.047,0.271l-0.044,0.267l-0.043,0.262l-0.04,0.259l-0.039,0.254l-0.037,0.25l-0.035,0.245l-0.033,0.241l-0.031,0.236l-0.029,0.231l-0.026,0.226l-0.025,0.222l-0.019,0.183l-0.017,0.186l-0.017,0.189l-0.014,0.192l-0.014,0.194l-0.012,0.196l-0.012,0.2l-0.01,0.201l-0.008,0.204l-0.008,0.206l-0.006,0.208l-0.006,0.211l-0.004,0.212l-0.003,0.215l-0.002,0.216l-0.001,0.218l0,0.22l0.001,0.222l0.003,0.224l0.003,0.225l0.004,0.226l0.005,0.228l0.006,0.23l0.007,0.23l0.007,0.232l0.009,0.233l0.01,0.235l0.01,0.235l0.011,0.236l0.012,0.238l0.027,0.476l0.029,0.48l0.032,0.482l0.035,0.484l0.037,0.486l0.04,0.486l0.042,0.486l0.044,0.486l0.046,0.485l0.048,0.483l0.05,0.482l0.051,0.479l0.052,0.476l0.054,0.473l0.054,0.468l0.056,0.464l0.056,0.459l0.057,0.453l0.057,0.447l0.058,0.44l0.058,0.433l0.058,0.425l0.057,0.417l0.058,0.407l0.057,0.399l0.056,0.388l0.056,0.378l0.109,0.722l0.104,0.673l0.098,0.621l0.09,0.564l0.083,0.502l0.073,0.437l0.063,0.368l0.051,0.293l0.037,0.214l0.032,0.177l-0.423,0.011l-0.514,0.012l-0.701,0.015l-0.878,0.017l-1.045,0.019l-0.582,0.009l-0.619,0.009l-0.657,0.008l-0.691,0.008l-0.726,0.008l-0.758,0.007l-0.789,0.006l-0.82,0.005l-0.848,0.004l-0.876,0.003l-0.902,0.002l-0.927,0l-0.95,-0.002l-0.973,-0.003l-0.994,-0.005l-1.013,-0.007l-1.033,-0.009l-1.049,-0.012l-1.065,-0.014l-1.08,-0.016l-1.093,-0.019l-1.104,-0.022l-1.116,-0.025l-1.125,-0.028l-0.566,-0.015l-0.567,-0.016l-0.57,-0.017l-0.57,-0.017l-0.573,-0.019l-0.573,-0.019l-0.574,-0.02l-0.576,-0.022l-0.576,-0.022l-0.576,-0.023l-0.578,-0.024l-0.577,-0.025l-0.577,-0.026l-0.578,-0.026l-0.577,-0.028l-0.576,-0.029l-0.577,-0.031l-0.575,-0.031l-0.575,-0.032l-0.573,-0.033l-0.572,-0.035l-0.571,-0.035l-0.57,-0.037l-0.568,-0.038l-0.566,-0.039l-0.563,-0.041l-0.562,-0.041l-0.56,-0.043l-0.556,-0.044l-0.555,-0.045l-0.551,-0.047l-0.549,-0.048l-0.545,-0.049l-0.542,-0.051l-0.538,-0.052l-0.535,-0.053l-0.532,-0.055l-0.527,-0.056l-0.523,-0.057l-0.519,-0.059l-0.514,-0.061l-0.51,-0.062l-0.505,-0.063l-0.5,-0.065l-0.495,-0.066l-0.49,-0.068l-0.484,-0.069l-0.479,-0.072l-0.473,-0.072l-0.468,-0.074l-0.461,-0.076l-0.455,-0.078l-0.448,-0.079l-0.443,-0.081l-0.435,-0.082l-0.215,-0.042l-0.214,-0.042l-0.225,-0.046l-0.228,-0.046l-0.46,-0.097l-0.468,-0.101l-0.476,-0.106l-0.482,-0.11l-0.489,-0.114l-0.497,-0.119l-0.502,-0.122l-0.509,-0.127l-0.515,-0.13l-0.521,-0.135l-0.527,-0.138l-0.533,-0.141l-0.538,-0.146l-0.544,-0.148l-0.548,-0.153l-0.554,-0.155l-0.558,-0.159l-0.563,-0.162l-0.567,-0.165l-0.572,-0.168l-0.576,-0.171l-0.579,-0.173l-0.583,-0.177l-0.587,-0.179l-0.591,-0.182l-0.593,-0.184l-0.596,-0.187l-0.6,-0.188l-0.602,-0.192l-0.604,-0.193l-0.607,-0.195l-0.608,-0.198l-0.611,-0.199l-0.613,-0.201l-0.614,-0.203l-0.616,-0.204l-0.617,-0.206l-0.618,-0.208l-0.618,-0.209l-0.62,-0.21l-0.62,-0.212l-0.621,-0.212l-0.62,-0.214l-0.621,-0.215l-0.621,-0.215l-0.62,-0.216l-0.619,-0.218l-0.619,-0.217l-0.619,-0.219l-0.617,-0.218l-0.616,-0.219l-1.227,-0.44l-1.221,-0.439l-1.212,-0.44l-1.202,-0.439l-1.191,-0.437l-1.178,-0.435l-1.165,-0.432l-1.149,-0.429l-1.132,-0.425l-1.113,-0.42l-1.094,-0.414l-1.073,-0.409l-1.051,-0.401l-1.027,-0.394l-1.001,-0.386l-0.974,-0.376l-0.947,-0.368l-0.917,-0.357l-0.885,-0.346l-0.854,-0.335l-0.82,-0.322l-0.784,-0.31l-0.748,-0.296l-0.71,-0.282l-1.3,-0.518l-1.131,-0.453l-0.95,-0.383l-0.759,-0.308l-0.557,-0.226l-0.458,-0.187l0.339,-0.083l0.969,-0.241l0.7,-0.175l0.831,-0.208l0.954,-0.241l1.069,-0.271l1.174,-0.299l1.271,-0.326l1.359,-0.351l1.439,-0.375l1.51,-0.395l0.779,-0.205l0.793,-0.21l0.806,-0.214l0.819,-0.219l0.831,-0.222l0.84,-0.226l0.849,-0.23l0.857,-0.233l0.865,-0.236l0.869,-0.239l0.875,-0.242l0.878,-0.244l0.881,-0.246l0.882,-0.248l0.883,-0.25l0.882,-0.252l0.88,-0.252l0.877,-0.254l0.873,-0.255l0.868,-0.255l0.862,-0.256l0.855,-0.255l0.847,-0.256l0.837,-0.255l0.826,-0.255l0.815,-0.254l0.802,-0.254l0.396,-0.126l0.393,-0.126l0.389,-0.125l0.385,-0.125l0.381,-0.125l0.376,-0.124l0.373,-0.124l0.368,-0.123l0.364,-0.123l0.359,-0.122l0.354,-0.122l0.349,-0.121l0.345,-0.121l0.339,-0.119l0.333,-0.119l0.329,-0.119l0.322,-0.117l0.317,-0.117l0.311,-0.116l0.305,-0.115l0.299,-0.115l0.293,-0.113l0.261,-0.104l0.261,-0.105l0.26,-0.106l0.26,-0.109l0.258,-0.11l0.258,-0.112l0.258,-0.114l0.256,-0.115l0.256,-0.116l0.256,-0.119l0.254,-0.119l0.254,-0.122l0.254,-0.122l0.253,-0.124l0.252,-0.126l0.251,-0.126l0.252,-0.128l0.25,-0.13l0.25,-0.13l0.25,-0.132l0.249,-0.133l0.248,-0.134l0.248,-0.136l0.248,-0.136l0.247,-0.137l0.246,-0.139l0.247,-0.139l0.246,-0.141l0.245,-0.141l0.245,-0.142l0.245,-0.143l0.244,-0.144l0.244,-0.145l0.243,-0.145l0.244,-0.146l0.243,-0.147l0.485,-0.296l0.484,-0.298l0.483,-0.3l0.482,-0.302l0.482,-0.304l0.48,-0.305l0.481,-0.306l0.479,-0.307l0.959,-0.616l0.959,-0.616l0.479,-0.307l0.479,-0.307l0.48,-0.306l0.48,-0.305l0.481,-0.303l0.481,-0.301l0.482,-0.3l0.483,-0.297l0.484,-0.295l0.242,-0.146l0.243,-0.146l0.243,-0.145l0.243,-0.144l0.243,-0.143l0.244,-0.143l0.244,-0.141l0.245,-0.141l0.245,-0.14l0.245,-0.138l0.246,-0.138l0.246,-0.137l0.246,-0.135l0.247,-0.135l0.248,-0.133l0.248,-0.132l0.248,-0.131l0.249,-0.13l0.249,-0.128l0.25,-0.128l0.25,-0.125l0.251,-0.125l0.252,-0.123l0.252,-0.122l0.252,-0.12l0.254,-0.118l0.253,-0.118l0.255,-0.115l0.255,-0.114l0.256,-0.113l0.256,-0.11l0.257,-0.109l0.258,-0.108l0.258,-0.105l0.259,-0.104l0.26,-0.102l0.261,-0.1l0.261,-0.098l0.262,-0.097l0.263,-0.094l0.264,-0.092l0.265,-0.091l0.265,-0.088l0.266,-0.087l0.267,-0.084l0.268,-0.082l0.269,-0.08l0.27,-0.077l0.27,-0.076l0.272,-0.073l0.311,-0.081l0.319,-0.08l0.326,-0.079l0.333,-0.077l0.341,-0.077l0.347,-0.076l0.353,-0.075l0.36,-0.073l0.367,-0.073l0.372,-0.072l0.379,-0.071l0.384,-0.07l0.39,-0.068l0.396,-0.068l0.401,-0.067l0.406,-0.066l0.412,-0.065l0.416,-0.064l0.421,-0.063l0.426,-0.062l0.43,-0.061l0.434,-0.061l0.439,-0.059l0.442,-0.058l0.446,-0.058l0.45,-0.057l0.454,-0.055l0.457,-0.055l0.46,-0.054l0.463,-0.054l0.466,-0.052l0.469,-0.051l0.471,-0.051l0.474,-0.05l0.476,-0.049l0.478,-0.048l0.48,-0.047l0.482,-0.047l0.484,-0.045l0.485,-0.045l0.486,-0.044l0.488,-0.044l0.488,-0.042l0.49,-0.042l0.49,-0.041l0.491,-0.04l0.491,-0.04l0.491,-0.038l0.983,-0.075l0.982,-0.073l0.98,-0.069l0.976,-0.067l0.972,-0.064l0.966,-0.061l0.959,-0.058l0.95,-0.056l0.941,-0.054l0.93,-0.05l0.918,-0.049l0.904,-0.046l0.89,-0.044l0.874,-0.041l0.857,-0.039l0.839,-0.037l0.819,-0.035l0.798,-0.033l0.776,-0.031l0.753,-0.029l0.728,-0.026l0.703,-0.025l0.675,-0.024l0.647,-0.021l1.204,-0.038l1.076,-0.031l0.938,-0.026l0.789,-0.02l0.632,-0.014l0.463,-0.01l0.383,-0.008l-0.079,0.264Z"/><path d="M315,36c0,0 114.079,72.006 155,124c42.5,54 100,200 100,200c0,0 -103.167,-10.167 -150,0c-46.833,10.167 -131,61 -131,61c0,0 36.667,-136.833 41,-201c4.146,-61.397 -15,-184 -15,-184Z"/><path d="M315.329,36.208l0.404,0.257l0.558,0.356l0.709,0.454l0.854,0.548l0.995,0.641l1.133,0.732l1.265,0.82l1.394,0.907l0.744,0.485l0.774,0.506l0.805,0.527l0.834,0.547l0.862,0.567l0.891,0.587l0.919,0.606l0.947,0.626l0.973,0.644l0.999,0.664l1.025,0.681l1.05,0.7l1.075,0.718l1.099,0.736l1.122,0.753l1.146,0.77l1.168,0.787l1.19,0.804l1.211,0.82l1.233,0.836l1.252,0.852l1.273,0.868l1.291,0.883l1.311,0.898l1.328,0.913l1.347,0.927l1.363,0.942l1.38,0.955l1.396,0.969l1.412,0.983l1.427,0.996l1.441,1.009l1.455,1.021l1.468,1.034l1.481,1.047l1.494,1.058l1.505,1.069l1.517,1.081l1.527,1.092l1.538,1.103l0.772,0.556l0.775,0.558l0.777,0.561l0.779,0.563l0.781,0.565l0.784,0.569l0.785,0.57l0.788,0.573l0.789,0.576l0.791,0.578l0.793,0.58l0.794,0.582l0.796,0.585l0.798,0.586l0.799,0.589l0.8,0.592l0.802,0.593l0.803,0.595l0.805,0.598l0.805,0.599l0.806,0.601l0.808,0.604l0.808,0.605l0.81,0.607l0.81,0.609l0.811,0.611l0.811,0.613l0.812,0.614l0.813,0.616l0.813,0.618l0.814,0.62l0.813,0.621l0.815,0.622l0.814,0.625l0.814,0.625l0.815,0.628l0.814,0.628l0.815,0.63l0.814,0.632l0.814,0.633l0.814,0.634l0.813,0.635l0.814,0.637l0.812,0.638l0.812,0.639l0.812,0.641l0.811,0.641l0.81,0.643l0.809,0.643l0.808,0.645l0.808,0.646l0.806,0.646l0.806,0.648l0.804,0.648l0.803,0.65l0.802,0.65l0.8,0.651l0.799,0.652l0.797,0.652l0.796,0.653l0.795,0.654l0.793,0.655l0.791,0.655l0.789,0.655l0.787,0.657l0.785,0.656l0.784,0.657l0.781,0.658l0.779,0.658l0.777,0.658l0.774,0.659l0.773,0.659l0.77,0.659l0.767,0.66l0.765,0.66l0.762,0.66l0.759,0.66l0.757,0.66l0.754,0.66l0.751,0.66l0.748,0.661l0.746,0.66l0.742,0.66l0.739,0.66l0.735,0.66l0.733,0.66l0.729,0.66l0.725,0.659l0.722,0.66l0.719,0.658l0.715,0.659l0.711,0.658l0.708,0.658l0.704,0.658l0.699,0.657l0.696,0.656l0.692,0.656l0.688,0.656l0.684,0.654l0.679,0.655l0.675,0.653l0.671,0.653l0.666,0.652l0.662,0.652l0.657,0.651l0.653,0.65l0.648,0.649l0.643,0.648l0.639,0.647l0.633,0.646l0.629,0.646l0.623,0.644l0.619,0.643l0.307,0.321l0.306,0.321l0.305,0.321l0.303,0.32l0.302,0.321l0.301,0.319l0.299,0.32l0.298,0.319l0.297,0.319l0.295,0.319l0.294,0.318l0.293,0.318l0.291,0.318l0.29,0.317l0.288,0.317l0.287,0.317l0.286,0.316l0.284,0.316l0.282,0.316l0.281,0.315l0.28,0.315l0.279,0.315l0.276,0.314l0.276,0.314l0.273,0.314l0.273,0.313l0.271,0.313l0.269,0.312l0.268,0.312l0.266,0.312l0.265,0.311l0.263,0.311l0.262,0.31l0.26,0.31l0.258,0.31l0.257,0.309l0.255,0.309l0.254,0.308l0.252,0.308l0.251,0.308l0.248,0.307l0.248,0.307l0.245,0.306l0.244,0.306l0.242,0.305l0.241,0.305l0.249,0.317l0.25,0.32l0.25,0.322l0.25,0.323l0.25,0.326l0.251,0.328l0.251,0.33l0.252,0.332l0.252,0.334l0.252,0.336l0.252,0.338l0.253,0.339l0.253,0.342l0.253,0.344l0.254,0.346l0.254,0.348l0.254,0.349l0.255,0.352l0.255,0.354l0.255,0.355l0.255,0.357l0.256,0.36l0.256,0.361l0.256,0.363l0.256,0.364l0.257,0.367l0.257,0.369l0.257,0.37l0.258,0.372l0.258,0.374l0.258,0.376l0.258,0.377l0.258,0.379l0.259,0.381l0.259,0.383l0.259,0.384l0.26,0.387l0.259,0.387l0.26,0.39l0.26,0.391l0.521,0.788l0.521,0.794l0.523,0.801l0.523,0.807l0.524,0.814l0.524,0.82l0.526,0.826l0.526,0.832l0.526,0.838l0.528,0.845l0.528,0.85l0.528,0.856l0.529,0.861l0.53,0.867l0.53,0.873l0.53,0.878l0.531,0.884l0.531,0.889l0.532,0.894l0.532,0.899l0.532,0.904l0.533,0.909l0.533,0.914l0.533,0.919l0.534,0.923l0.533,0.928l0.534,0.932l0.534,0.937l0.535,0.941l0.534,0.946l0.534,0.95l0.535,0.953l0.534,0.958l0.534,0.962l0.535,0.965l0.534,0.969l0.534,0.973l0.534,0.977l0.534,0.979l0.534,0.984l0.534,0.986l0.533,0.99l0.534,0.993l0.533,0.996l0.532,0.999l0.533,1.002l0.532,1.005l0.531,1.007l0.532,1.01l0.531,1.013l0.53,1.015l0.53,1.018l0.529,1.019l0.529,1.022l0.529,1.025l0.528,1.026l0.527,1.028l0.527,1.03l0.525,1.031l0.526,1.034l0.524,1.035l0.524,1.037l0.523,1.038l0.523,1.039l0.521,1.041l0.521,1.042l0.52,1.043l0.519,1.043l0.518,1.045l0.517,1.046l0.516,1.047l0.515,1.047l0.514,1.048l0.513,1.048l0.512,1.049l0.511,1.049l0.51,1.049l0.509,1.049l0.507,1.05l0.507,1.05l0.505,1.049l0.504,1.049l0.502,1.049l0.502,1.049l0.5,1.048l0.498,1.048l0.498,1.047l0.495,1.047l0.495,1.045l0.493,1.045l0.491,1.044l0.49,1.043l0.489,1.042l0.487,1.04l0.485,1.04l0.484,1.037l0.482,1.037l0.48,1.035l0.479,1.033l0.477,1.032l0.475,1.03l0.474,1.028l0.472,1.026l0.47,1.023l0.468,1.022l0.466,1.02l0.464,1.017l0.462,1.015l0.919,2.022l0.911,2.012l0.903,2l0.894,1.989l0.886,1.976l0.877,1.963l0.868,1.948l0.859,1.934l0.849,1.919l0.839,1.903l0.83,1.886l0.82,1.868l0.809,1.851l0.799,1.831l0.788,1.813l0.777,1.792l0.767,1.772l0.755,1.75l0.743,1.727l0.732,1.705l0.719,1.682l0.708,1.657l0.695,1.633l0.683,1.607l0.67,1.58l0.657,1.554l0.644,1.526l0.63,1.498l0.617,1.469l0.603,1.44l0.589,1.409l0.575,1.378l0.56,1.346l0.546,1.314l0.531,1.281l0.516,1.247l0.5,1.213l0.485,1.178l0.47,1.142l0.453,1.105l0.438,1.069l0.421,1.03l0.793,1.946l0.725,1.785l0.656,1.621l0.585,1.451l0.513,1.274l0.438,1.094l0.362,0.907l0.284,0.715l0.206,0.518l0.166,0.42l-0.297,-0.029l-0.873,-0.083l-0.643,-0.06l-0.776,-0.071l-0.905,-0.082l-1.03,-0.092l-1.153,-0.101l-1.271,-0.11l-1.385,-0.118l-1.496,-0.125l-1.604,-0.132l-1.707,-0.137l-0.892,-0.071l-0.916,-0.072l-0.94,-0.073l-0.964,-0.074l-0.986,-0.075l-1.01,-0.075l-1.032,-0.077l-1.053,-0.077l-1.075,-0.078l-1.096,-0.078l-1.117,-0.079l-1.136,-0.079l-1.156,-0.079l-1.175,-0.079l-1.193,-0.08l-1.212,-0.079l-1.229,-0.079l-1.247,-0.079l-1.264,-0.079l-1.279,-0.079l-1.296,-0.078l-1.311,-0.077l-1.326,-0.077l-1.341,-0.076l-1.354,-0.075l-1.368,-0.074l-1.382,-0.074l-1.394,-0.072l-1.406,-0.071l-1.418,-0.07l-1.429,-0.068l-1.44,-0.067l-1.451,-0.066l-1.46,-0.064l-1.47,-0.062l-1.48,-0.06l-1.487,-0.059l-1.496,-0.057l-1.503,-0.054l-1.511,-0.053l-1.517,-0.05l-1.524,-0.048l-1.529,-0.046l-1.535,-0.043l-1.54,-0.041l-1.544,-0.038l-1.548,-0.035l-1.552,-0.032l-0.777,-0.015l-0.778,-0.015l-0.779,-0.013l-0.779,-0.013l-0.779,-0.012l-0.781,-0.012l-0.78,-0.01l-0.781,-0.01l-0.781,-0.009l-0.782,-0.008l-0.781,-0.007l-0.782,-0.006l-0.782,-0.006l-0.782,-0.005l-0.782,-0.003l-0.782,-0.003l-0.782,-0.002l-0.781,-0.001l-0.782,0l-0.781,0l-0.78,0.002l-0.781,0.003l-0.779,0.003l-0.779,0.005l-0.779,0.006l-0.778,0.006l-0.777,0.008l-0.777,0.009l-0.775,0.009l-0.775,0.011l-0.774,0.012l-0.773,0.013l-0.771,0.013l-0.771,0.015l-0.77,0.017l-0.768,0.017l-0.767,0.018l-0.766,0.02l-0.764,0.02l-0.763,0.022l-0.761,0.023l-0.76,0.024l-0.758,0.025l-0.756,0.027l-0.755,0.027l-0.753,0.029l-0.751,0.03l-0.749,0.032l-0.747,0.032l-0.746,0.034l-0.743,0.035l-0.741,0.037l-0.739,0.038l-0.736,0.039l-0.734,0.04l-0.732,0.042l-0.73,0.043l-0.727,0.044l-0.724,0.046l-0.722,0.047l-0.719,0.048l-0.717,0.05l-0.713,0.052l-0.711,0.052l-0.708,0.054l-0.706,0.056l-0.702,0.057l-0.699,0.058l-0.696,0.06l-0.692,0.062l-0.69,0.063l-0.686,0.064l-0.683,0.066l-0.68,0.067l-0.676,0.069l-0.673,0.071l-0.669,0.072l-0.665,0.074l-0.662,0.075l-0.658,0.077l-0.654,0.078l-0.651,0.08l-0.646,0.082l-0.643,0.083l-0.639,0.085l-0.634,0.086l-0.63,0.089l-0.627,0.09l-0.621,0.091l-0.618,0.093l-0.613,0.095l-0.609,0.097l-0.605,0.099l-0.599,0.1l-0.596,0.102l-0.59,0.104l-0.586,0.105l-0.581,0.107l-0.577,0.109l-0.571,0.111l-0.567,0.113l-0.561,0.114l-0.557,0.117l-0.551,0.118l-0.551,0.121l-0.553,0.125l-0.558,0.128l-0.56,0.132l-0.564,0.136l-0.567,0.139l-0.57,0.142l-0.573,0.146l-0.577,0.15l-0.579,0.153l-0.582,0.157l-0.586,0.159l-0.588,0.163l-0.591,0.167l-0.594,0.17l-0.596,0.172l-0.599,0.177l-0.602,0.179l-0.605,0.182l-0.607,0.186l-0.61,0.188l-0.612,0.192l-0.615,0.195l-0.617,0.197l-0.62,0.201l-0.622,0.203l-0.624,0.207l-0.626,0.209l-0.629,0.212l-0.63,0.214l-0.633,0.218l-0.635,0.22l-0.637,0.223l-0.639,0.225l-0.641,0.229l-0.643,0.23l-0.644,0.233l-0.647,0.236l-0.648,0.238l-0.65,0.241l-0.652,0.243l-0.653,0.246l-0.655,0.247l-0.656,0.251l-0.658,0.252l-0.659,0.255l-0.661,0.257l-0.662,0.259l-0.664,0.261l-0.665,0.263l-0.666,0.266l-0.667,0.267l-0.668,0.27l-0.67,0.271l-0.67,0.274l-0.672,0.275l-0.673,0.277l-0.673,0.279l-0.674,0.281l-0.676,0.283l-0.676,0.285l-0.677,0.286l-0.677,0.288l-0.679,0.289l-0.678,0.292l-0.68,0.292l-0.68,0.295l-0.681,0.296l-0.681,0.297l-0.681,0.299l-0.682,0.3l-0.682,0.302l-0.682,0.303l-0.683,0.304l-0.683,0.306l-0.683,0.307l-0.683,0.308l-0.683,0.31l-0.684,0.31l-0.683,0.312l-0.683,0.313l-0.683,0.314l-0.683,0.315l-0.683,0.316l-0.682,0.316l-0.683,0.318l-0.681,0.319l-0.682,0.32l-0.681,0.32l-0.681,0.322l-0.68,0.322l-0.68,0.322l-0.679,0.324l-0.678,0.324l-0.678,0.325l-0.677,0.326l-0.677,0.326l-0.675,0.326l-0.675,0.327l-0.674,0.328l-0.673,0.328l-0.672,0.328l-0.67,0.329l-0.67,0.33l-0.669,0.329l-0.668,0.33l-1.331,0.66l-1.327,0.661l-1.321,0.662l-1.315,0.662l-1.309,0.662l-1.303,0.661l-1.296,0.661l-1.288,0.66l-1.281,0.66l-1.274,0.657l-1.265,0.657l-1.256,0.654l-1.247,0.652l-1.239,0.65l-1.228,0.647l-1.219,0.644l-1.208,0.641l-1.198,0.638l-1.186,0.634l-1.176,0.63l-1.163,0.626l-1.152,0.621l-1.139,0.616l-1.126,0.612l-1.114,0.606l-1.099,0.601l-1.086,0.595l-1.072,0.589l-1.058,0.582l-1.042,0.576l-1.028,0.57l-1.012,0.562l-0.996,0.554l-0.979,0.548l-0.964,0.539l-0.946,0.531l-0.929,0.523l-0.911,0.514l-0.894,0.505l-0.875,0.496l-0.857,0.486l-0.837,0.477l-0.818,0.466l-0.799,0.457l-0.778,0.446l-0.758,0.435l-0.737,0.424l-1.411,0.815l-1.324,0.767l-1.234,0.718l-1.141,0.666l-1.046,0.613l-0.947,0.557l-0.846,0.499l-0.743,0.44l-0.636,0.378l-0.526,0.314l-0.714,0.427l-0.243,0.146l0.105,-0.394l0.308,-1.158l0.225,-0.854l0.272,-1.029l0.316,-1.202l0.358,-1.368l0.399,-1.53l0.439,-1.688l0.477,-1.84l0.513,-1.988l0.548,-2.13l0.581,-2.269l0.613,-2.402l0.643,-2.531l0.671,-2.654l0.346,-1.372l0.352,-1.401l0.359,-1.43l0.364,-1.458l0.371,-1.485l0.376,-1.511l0.382,-1.538l0.388,-1.564l0.392,-1.588l0.397,-1.613l0.402,-1.636l0.407,-1.66l0.411,-1.682l0.415,-1.704l0.419,-1.725l0.423,-1.746l0.426,-1.766l0.43,-1.786l0.433,-1.805l0.436,-1.823l0.438,-1.841l0.442,-1.858l0.443,-1.874l0.446,-1.891l0.448,-1.905l0.449,-1.921l0.451,-1.935l0.453,-1.948l0.453,-1.961l0.455,-1.973l0.455,-1.986l0.456,-1.996l0.457,-2.007l0.457,-2.017l0.456,-2.026l0.457,-2.035l0.456,-2.044l0.455,-2.05l0.455,-2.058l0.454,-2.064l0.452,-2.07l0.451,-2.075l0.45,-2.079l0.448,-2.084l0.445,-2.087l0.444,-2.089l0.441,-2.092l0.439,-2.093l0.436,-2.094l0.217,-1.048l0.216,-1.047l0.215,-1.047l0.215,-1.047l0.214,-1.047l0.212,-1.047l0.212,-1.046l0.211,-1.046l0.21,-1.045l0.21,-1.045l0.208,-1.044l0.207,-1.044l0.206,-1.042l0.205,-1.042l0.204,-1.04l0.203,-1.04l0.201,-1.039l0.201,-1.037l0.199,-1.036l0.198,-1.035l0.197,-1.033l0.196,-1.032l0.194,-1.031l0.194,-1.028l0.191,-1.027l0.191,-1.025l0.189,-1.024l0.187,-1.021l0.186,-1.02l0.185,-1.017l0.183,-1.015l0.182,-1.013l0.18,-1.011l0.179,-1.008l0.177,-1.006l0.175,-1.003l0.174,-1.001l0.172,-0.998l0.171,-0.995l0.169,-0.992l0.167,-0.99l0.165,-0.986l0.164,-0.984l0.161,-0.98l0.16,-0.977l0.158,-0.974l0.157,-0.97l0.154,-0.967l0.152,-0.964l0.151,-0.96l0.148,-0.956l0.147,-0.953l0.144,-0.948l0.143,-0.945l0.14,-0.941l0.138,-0.937l0.136,-0.933l0.134,-0.928l0.132,-0.925l0.13,-0.92l0.127,-0.915l0.125,-0.912l0.123,-0.906l0.12,-0.902l0.119,-0.897l0.116,-0.893l0.113,-0.887l0.111,-0.883l0.109,-0.878l0.106,-0.872l0.104,-0.868l0.101,-0.862l0.099,-0.857l0.096,-0.851l0.094,-0.846l0.091,-0.841l0.089,-0.835l0.086,-0.829l0.083,-0.824l0.08,-0.817l0.078,-0.812l0.075,-0.806l0.072,-0.8l0.07,-0.793l0.067,-0.788l0.063,-0.781l0.061,-0.775l0.059,-0.768l0.055,-0.762l0.052,-0.755l0.048,-0.722l0.045,-0.728l0.043,-0.733l0.041,-0.739l0.04,-0.744l0.037,-0.749l0.035,-0.755l0.033,-0.76l0.031,-0.764l0.029,-0.77l0.027,-0.775l0.025,-0.779l0.023,-0.785l0.021,-0.789l0.019,-0.794l0.018,-0.798l0.015,-0.803l0.014,-0.808l0.012,-0.812l0.01,-0.816l0.008,-0.821l0.006,-0.824l0.004,-0.829l0.003,-0.833l0.001,-0.837l-0.001,-0.841l-0.003,-0.845l-0.004,-0.849l-0.006,-0.852l-0.008,-0.857l-0.009,-0.859l-0.011,-0.864l-0.013,-0.867l-0.014,-0.87l-0.016,-0.874l-0.018,-0.877l-0.019,-0.88l-0.02,-0.883l-0.023,-0.887l-0.024,-0.89l-0.025,-0.892l-0.027,-0.895l-0.028,-0.899l-0.03,-0.901l-0.031,-0.904l-0.033,-0.906l-0.034,-0.909l-0.036,-0.911l-0.037,-0.914l-0.038,-0.917l-0.04,-0.918l-0.041,-0.921l-0.042,-0.923l-0.044,-0.926l-0.045,-0.927l-0.047,-0.929l-0.047,-0.931l-0.049,-0.933l-0.05,-0.935l-0.052,-0.937l-0.052,-0.938l-0.054,-0.94l-0.055,-0.941l-0.057,-0.943l-0.057,-0.944l-0.058,-0.946l-0.06,-0.946l-0.061,-0.948l-0.062,-0.949l-0.063,-0.951l-0.064,-0.951l-0.065,-0.952l-0.066,-0.953l-0.067,-0.954l-0.068,-0.954l-0.069,-0.955l-0.071,-0.956l-0.071,-0.957l-0.072,-0.956l-0.073,-0.958l-0.074,-0.957l-0.074,-0.958l-0.076,-0.958l-0.077,-0.958l-0.077,-0.959l-0.078,-0.958l-0.079,-0.958l-0.08,-0.959l-0.081,-0.958l-0.082,-0.957l-0.082,-0.958l-0.083,-0.957l-0.084,-0.956l-0.084,-0.956l-0.171,-1.911l-0.174,-1.907l-0.176,-1.905l-0.179,-1.9l-0.181,-1.896l-0.183,-1.891l-0.186,-1.885l-0.187,-1.88l-0.189,-1.873l-0.191,-1.866l-0.193,-1.858l-0.194,-1.851l-0.195,-1.842l-0.197,-1.832l-0.198,-1.823l-0.198,-1.813l-0.2,-1.802l-0.201,-1.791l-0.201,-1.779l-0.201,-1.766l-0.202,-1.754l-0.202,-1.741l-0.203,-1.727l-0.202,-1.712l-0.203,-1.697l-0.202,-1.682l-0.202,-1.666l-0.201,-1.65l-0.201,-1.632l-0.2,-1.615l-0.199,-1.597l-0.198,-1.578l-0.198,-1.559l-0.196,-1.539l-0.194,-1.52l-0.194,-1.498l-0.192,-1.477l-0.19,-1.456l-0.188,-1.433l-0.186,-1.41l-0.185,-1.388l-0.182,-1.363l-0.18,-1.339l-0.178,-1.314l-0.175,-1.288l-0.172,-1.262l-0.17,-1.237l-0.166,-1.208l-0.164,-1.182l-0.161,-1.153l-0.157,-1.125l-0.305,-2.162l-0.29,-2.041l-0.274,-1.916l-0.259,-1.787l-0.241,-1.653l-0.222,-1.517l-0.203,-1.374l-0.183,-1.228l-0.162,-1.079l-0.14,-0.924l-0.116,-0.765l-0.159,-1.038l-0.055,-0.354l0.329,0.208Zm38.337,63.624l0.205,1.824l0.203,1.835l0.202,1.847l0.202,1.857l0.2,1.868l0.2,1.878l0.198,1.887l0.196,1.896l0.195,1.904l0.193,1.912l0.191,1.92l0.19,1.926l0.187,1.933l0.185,1.938l0.183,1.944l0.181,1.948l0.177,1.953l0.175,1.951l0.087,0.985l0.086,0.982l0.085,0.98l0.084,0.982l0.084,0.983l0.083,0.983l0.082,0.983l0.081,0.984l0.08,0.985l0.08,0.984l0.079,0.985l0.077,0.984l0.077,0.986l0.076,0.985l0.076,0.985l0.074,0.985l0.073,0.985l0.072,0.984l0.071,0.985l0.071,0.984l0.069,0.984l0.068,0.984l0.067,0.982l0.067,0.983l0.065,0.982l0.064,0.981l0.062,0.98l0.062,0.98l0.061,0.979l0.059,0.978l0.059,0.977l0.057,0.977l0.055,0.974l0.055,0.974l0.054,0.973l0.052,0.972l0.051,0.97l0.049,0.969l0.049,0.967l0.047,0.967l0.045,0.965l0.044,0.963l0.043,0.961l0.042,0.96l0.04,0.959l0.039,0.956l0.037,0.955l0.036,0.952l0.034,0.951l0.033,0.949l0.031,0.947l0.03,0.945l0.028,0.943l0.027,0.941l0.025,0.938l0.024,0.936l0.022,0.934l0.02,0.932l0.018,0.93l0.017,0.926l0.016,0.924l0.013,0.923l0.012,0.919l0.01,0.916l0.008,0.914l0.007,0.912l0.004,0.908l0.003,0.906l0.001,0.904l-0.001,0.9l-0.003,0.897l-0.005,0.895l-0.007,0.892l-0.008,0.888l-0.011,0.886l-0.013,0.882l-0.015,0.88l-0.016,0.877l-0.019,0.873l-0.022,0.87l-0.023,0.868l-0.025,0.864l-0.028,0.86l-0.03,0.858l-0.032,0.854l-0.035,0.851l-0.036,0.849l-0.04,0.844l-0.041,0.841l-0.044,0.839l-0.047,0.835l-0.049,0.831l-0.052,0.828l-0.054,0.824l-0.059,0.855l-0.062,0.857l-0.065,0.861l-0.069,0.867l-0.071,0.87l-0.074,0.873l-0.077,0.878l-0.079,0.883l-0.083,0.886l-0.085,0.89l-0.088,0.895l-0.091,0.898l-0.093,0.903l-0.097,0.907l-0.098,0.91l-0.102,0.914l-0.103,0.919l-0.107,0.923l-0.109,0.926l-0.111,0.931l-0.114,0.934l-0.116,0.938l-0.119,0.942l-0.121,0.945l-0.123,0.949l-0.125,0.953l-0.128,0.957l-0.13,0.96l-0.133,0.963l-0.134,0.967l-0.137,0.971l-0.139,0.973l-0.141,0.977l-0.143,0.981l-0.145,0.984l-0.147,0.987l-0.149,0.99l-0.151,0.992l-0.153,0.997l-0.156,0.999l-0.157,1.001l-0.159,1.006l-0.16,1.007l-0.163,1.01l-0.164,1.013l-0.167,1.016l-0.168,1.018l-0.169,1.021l-0.172,1.023l-0.173,1.026l-0.175,1.028l-0.176,1.03l-0.178,1.032l-0.18,1.035l-0.181,1.036l-0.183,1.039l-0.185,1.041l-0.186,1.042l-0.187,1.044l-0.189,1.046l-0.19,1.048l-0.192,1.049l-0.193,1.051l-0.194,1.052l-0.196,1.054l-0.197,1.056l-0.198,1.056l-0.2,1.058l-0.2,1.059l-0.202,1.06l-0.204,1.061l-0.204,1.062l-0.205,1.063l-0.207,1.064l-0.208,1.064l-0.208,1.066l-0.21,1.066l-0.211,1.066l-0.212,1.067l-0.213,1.068l-0.213,1.067l-0.215,1.068l-0.216,1.068l-0.216,1.069l-0.217,1.069l-0.218,1.068l-0.219,1.068l-0.22,1.069l-0.22,1.068l-0.222,1.073l-0.444,2.129l-0.447,2.132l-0.449,2.131l-0.452,2.127l-0.453,2.123l-0.456,2.119l-0.457,2.115l-0.458,2.109l-0.46,2.103l-0.461,2.097l-0.462,2.09l-0.462,2.081l-0.463,2.074l-0.463,2.065l-0.464,2.056l-0.463,2.046l-0.463,2.035l-0.462,2.024l-0.462,2.012l-0.46,2l-0.46,1.987l-0.458,1.974l-0.457,1.959l-0.456,1.945l-0.15,0.641l0.51,-0.256l1.379,-0.687l1.379,-0.684l0.702,-0.346l0.696,-0.344l0.699,-0.343l0.698,-0.342l0.701,-0.343l0.702,-0.342l0.703,-0.342l0.705,-0.341l0.705,-0.342l0.707,-0.341l0.708,-0.34l0.709,-0.34l0.71,-0.339l0.711,-0.339l0.712,-0.338l0.713,-0.337l0.714,-0.337l0.715,-0.337l0.715,-0.335l0.717,-0.335l0.716,-0.334l0.718,-0.333l0.719,-0.333l0.719,-0.332l0.72,-0.33l0.72,-0.33l0.721,-0.329l0.721,-0.328l0.722,-0.327l0.722,-0.326l0.723,-0.325l0.723,-0.323l0.724,-0.323l0.724,-0.321l0.724,-0.321l0.724,-0.319l0.725,-0.317l0.724,-0.317l0.725,-0.315l0.726,-0.314l0.724,-0.312l0.725,-0.311l0.725,-0.31l0.726,-0.308l0.725,-0.307l0.725,-0.305l0.725,-0.303l0.725,-0.302l0.725,-0.301l0.725,-0.299l0.724,-0.296l0.724,-0.296l0.725,-0.294l0.723,-0.291l0.723,-0.29l0.724,-0.289l0.723,-0.286l0.722,-0.284l0.722,-0.283l0.722,-0.28l0.722,-0.279l0.72,-0.277l0.721,-0.274l0.72,-0.273l0.719,-0.27l0.719,-0.268l0.719,-0.267l0.718,-0.263l0.717,-0.262l0.717,-0.259l0.716,-0.257l0.716,-0.255l0.715,-0.252l0.714,-0.25l0.714,-0.248l0.713,-0.245l0.713,-0.243l0.712,-0.24l0.712,-0.237l0.711,-0.236l0.71,-0.232l0.709,-0.229l0.709,-0.227l0.709,-0.225l0.707,-0.221l0.708,-0.219l0.707,-0.216l0.706,-0.213l0.705,-0.21l0.705,-0.207l0.705,-0.204l0.703,-0.201l0.703,-0.198l0.704,-0.196l0.702,-0.191l0.703,-0.189l0.702,-0.185l0.701,-0.183l0.701,-0.178l0.702,-0.176l0.701,-0.172l0.7,-0.168l0.701,-0.165l0.701,-0.162l0.7,-0.157l0.7,-0.154l0.702,-0.151l0.704,-0.147l0.704,-0.143l0.707,-0.141l0.709,-0.138l0.711,-0.134l0.713,-0.132l0.713,-0.128l0.716,-0.126l0.719,-0.123l0.721,-0.12l0.722,-0.118l0.724,-0.115l0.726,-0.112l0.728,-0.111l0.731,-0.107l0.733,-0.105l0.734,-0.103l0.736,-0.101l0.739,-0.098l0.741,-0.096l0.743,-0.094l0.744,-0.091l0.747,-0.09l0.749,-0.087l0.751,-0.085l0.753,-0.084l0.755,-0.081l0.757,-0.08l0.759,-0.077l0.76,-0.075l0.763,-0.074l0.765,-0.072l0.766,-0.07l0.769,-0.068l0.771,-0.066l0.771,-0.065l0.775,-0.063l0.776,-0.061l0.777,-0.059l0.779,-0.058l0.781,-0.056l0.782,-0.054l0.785,-0.053l0.785,-0.052l0.788,-0.049l0.788,-0.048l0.79,-0.047l0.793,-0.045l0.793,-0.044l0.794,-0.042l0.797,-0.04l0.797,-0.04l0.798,-0.037l0.799,-0.037l0.802,-0.035l0.802,-0.033l0.804,-0.033l0.804,-0.031l0.805,-0.029l0.806,-0.028l0.808,-0.027l0.808,-0.026l0.809,-0.024l0.81,-0.023l0.811,-0.022l0.811,-0.021l0.813,-0.019l0.812,-0.018l0.814,-0.017l0.815,-0.016l0.814,-0.015l0.815,-0.014l0.815,-0.012l0.816,-0.011l0.816,-0.01l0.817,-0.01l0.816,-0.008l0.817,-0.006l0.817,-0.006l0.818,-0.005l0.817,-0.004l0.817,-0.003l0.817,-0.002l0.818,0l0.816,0l0.817,0.001l0.817,0.002l0.816,0.003l0.816,0.004l0.815,0.005l0.816,0.005l0.814,0.007l0.814,0.008l0.813,0.008l0.813,0.009l0.813,0.01l0.811,0.011l0.811,0.012l0.81,0.013l0.808,0.013l0.808,0.014l0.807,0.015l0.814,0.016l1.601,0.033l1.603,0.037l1.599,0.039l1.593,0.042l1.586,0.045l1.581,0.047l1.573,0.049l1.566,0.052l1.559,0.054l1.55,0.057l1.541,0.058l1.533,0.061l1.523,0.062l1.514,0.064l1.503,0.066l1.491,0.067l1.481,0.069l1.47,0.071l0.919,0.045l-0.133,-0.308l-0.743,-1.723l-0.755,-1.745l-0.765,-1.765l-0.776,-1.784l-0.786,-1.803l-0.797,-1.822l-0.807,-1.839l-0.816,-1.856l-0.826,-1.871l-0.836,-1.888l-0.844,-1.903l-0.853,-1.916l-0.863,-1.929l-0.87,-1.943l-0.879,-1.954l-0.887,-1.966l-0.895,-1.976l-0.905,-1.99l-0.452,-0.993l-0.455,-0.998l-0.458,-1.001l-0.46,-1.003l-0.461,-1.005l-0.463,-1.006l-0.464,-1.008l-0.467,-1.011l-0.467,-1.012l-0.469,-1.013l-0.471,-1.014l-0.473,-1.016l-0.474,-1.018l-0.476,-1.018l-0.476,-1.019l-0.479,-1.02l-0.48,-1.021l-0.481,-1.022l-0.482,-1.023l-0.484,-1.023l-0.486,-1.024l-0.486,-1.024l-0.488,-1.025l-0.488,-1.025l-0.49,-1.025l-0.491,-1.025l-0.493,-1.025l-0.493,-1.025l-0.495,-1.025l-0.495,-1.025l-0.496,-1.024l-0.498,-1.023l-0.498,-1.024l-0.499,-1.022l-0.5,-1.022l-0.502,-1.021l-0.501,-1.02l-0.503,-1.019l-0.503,-1.018l-0.504,-1.017l-0.505,-1.016l-0.506,-1.013l-0.506,-1.013l-0.506,-1.011l-0.508,-1.01l-0.508,-1.008l-0.508,-1.005l-0.509,-1.004l-0.509,-1.002l-0.51,-1l-0.51,-0.998l-0.51,-0.995l-0.511,-0.994l-0.511,-0.99l-0.512,-0.988l-0.511,-0.985l-0.512,-0.983l-0.512,-0.979l-0.512,-0.977l-0.512,-0.974l-0.512,-0.97l-0.512,-0.968l-0.513,-0.964l-0.512,-0.96l-0.512,-0.957l-0.512,-0.954l-0.512,-0.95l-0.512,-0.946l-0.511,-0.942l-0.511,-0.938l-0.511,-0.933l-0.511,-0.93l-0.51,-0.926l-0.51,-0.92l-0.509,-0.917l-0.509,-0.912l-0.508,-0.907l-0.508,-0.903l-0.507,-0.897l-0.507,-0.893l-0.506,-0.887l-0.505,-0.883l-0.504,-0.877l-0.504,-0.871l-0.502,-0.866l-0.502,-0.86l-0.501,-0.855l-0.5,-0.849l-0.498,-0.842l-0.498,-0.837l-0.497,-0.831l-0.495,-0.824l-0.494,-0.818l-0.493,-0.812l-0.491,-0.805l-0.49,-0.798l-0.489,-0.791l-0.487,-0.785l-0.486,-0.777l-0.483,-0.77l-0.483,-0.763l-0.48,-0.756l-0.479,-0.748l-0.477,-0.74l-0.474,-0.733l-0.473,-0.724l-0.471,-0.717l-0.475,-0.719l-0.227,-0.341l-0.232,-0.349l-0.233,-0.347l-0.232,-0.346l-0.231,-0.342l-0.23,-0.341l-0.23,-0.338l-0.229,-0.336l-0.229,-0.335l-0.228,-0.332l-0.226,-0.328l-0.227,-0.328l-0.226,-0.326l-0.226,-0.323l-0.224,-0.32l-0.224,-0.318l-0.223,-0.317l-0.222,-0.313l-0.221,-0.311l-0.221,-0.309l-0.22,-0.307l-0.22,-0.304l-0.218,-0.302l-0.217,-0.298l-0.217,-0.297l-0.216,-0.294l-0.214,-0.292l-0.215,-0.289l-0.213,-0.287l-0.212,-0.284l-0.211,-0.281l-0.211,-0.279l-0.209,-0.276l-0.208,-0.273l-0.207,-0.272l-0.207,-0.268l-0.205,-0.265l-0.205,-0.264l-0.202,-0.26l-0.202,-0.257l-0.192,-0.243l-0.193,-0.243l-0.196,-0.246l-0.197,-0.246l-0.199,-0.247l-0.202,-0.249l-0.204,-0.25l-0.205,-0.251l-0.207,-0.252l-0.21,-0.253l-0.211,-0.254l-0.214,-0.256l-0.215,-0.257l-0.217,-0.257l-0.219,-0.259l-0.221,-0.26l-0.223,-0.26l-0.224,-0.262l-0.227,-0.263l-0.228,-0.263l-0.23,-0.265l-0.232,-0.266l-0.234,-0.267l-0.236,-0.267l-0.237,-0.268l-0.239,-0.269l-0.241,-0.271l-0.243,-0.271l-0.245,-0.272l-0.246,-0.273l-0.247,-0.273l-0.25,-0.275l-0.252,-0.275l-0.253,-0.277l-0.254,-0.276l-0.256,-0.277l-0.258,-0.279l-0.26,-0.279l-0.261,-0.28l-0.263,-0.281l-0.265,-0.281l-0.266,-0.282l-0.268,-0.283l-0.269,-0.283l-0.271,-0.284l-0.264,-0.276l-0.558,-0.581l-0.556,-0.574l-0.561,-0.576l-0.567,-0.579l-0.574,-0.582l-0.579,-0.583l-0.585,-0.586l-0.59,-0.588l-0.596,-0.59l-0.601,-0.592l-0.607,-0.594l-0.612,-0.595l-0.617,-0.598l-0.623,-0.599l-0.627,-0.6l-0.632,-0.603l-0.637,-0.604l-0.642,-0.605l-0.646,-0.607l-0.651,-0.609l-0.656,-0.609l-0.66,-0.611l-0.664,-0.612l-0.669,-0.613l-0.673,-0.614l-0.677,-0.616l-0.681,-0.616l-0.685,-0.617l-0.689,-0.618l-0.693,-0.619l-0.696,-0.62l-0.7,-0.62l-0.705,-0.622l-0.707,-0.621l-0.71,-0.623l-0.715,-0.623l-0.717,-0.623l-0.72,-0.624l-0.724,-0.624l-0.727,-0.625l-0.729,-0.625l-0.733,-0.625l-0.735,-0.625l-0.738,-0.626l-0.741,-0.625l-0.744,-0.626l-0.746,-0.626l-0.748,-0.626l-0.751,-0.626l-0.753,-0.625l-0.755,-0.626l-0.758,-0.625l-0.759,-0.625l-0.762,-0.625l-0.763,-0.625l-0.766,-0.624l-0.767,-0.624l-0.769,-0.624l-0.77,-0.623l-0.772,-0.622l-0.774,-0.622l-0.775,-0.622l-0.776,-0.62l-0.778,-0.62l-0.778,-0.62l-0.78,-0.618l-0.781,-0.618l-0.782,-0.617l-0.783,-0.617l-0.784,-0.615l-0.784,-0.614l-0.786,-0.614l-0.785,-0.612l-0.787,-0.611l-0.787,-0.611l-0.787,-0.609l-0.788,-0.608l-0.788,-0.607l-0.788,-0.605l-0.788,-0.604l-0.788,-0.603l-0.789,-0.602l-0.788,-0.6l-0.788,-0.599l-0.788,-0.597l-0.788,-0.596l-0.787,-0.595l-0.786,-0.592l-0.787,-0.591l-0.786,-0.59l-0.785,-0.588l-0.784,-0.586l-0.783,-0.584l-0.783,-0.582l-0.782,-0.581l-0.781,-0.579l-0.78,-0.577l-0.778,-0.575l-0.778,-0.573l-0.776,-0.571l-0.774,-0.569l-0.774,-0.567l-0.772,-0.565l-0.77,-0.563l-0.769,-0.56l-0.767,-0.558l-0.765,-0.556l-0.764,-0.554l-0.761,-0.551l-0.76,-0.549l-0.758,-0.547l-0.755,-0.544l-0.654,-0.471l0.159,1.411Z"/><path d="M295.097,110c0,0 7.406,60.082 4.903,90c-4.183,50 -30,210 -30,210c0,0 -59.612,16.128 -90,19c-33.5,3.167 -111,0 -111,0c0,0 93.317,-105.833 131,-159c35.45,-50.016 95.097,-160 95.097,-160Z"/><path d="M295.118,110.173l0.061,0.509l0.099,0.828l0.132,1.13l0.078,0.673l0.085,0.743l0.092,0.81l0.099,0.876l0.104,0.939l0.111,0.999l0.115,1.059l0.121,1.116l0.125,1.171l0.129,1.224l0.133,1.275l0.136,1.323l0.139,1.37l0.142,1.415l0.144,1.457l0.145,1.498l0.147,1.536l0.148,1.573l0.148,1.607l0.148,1.639l0.075,0.831l0.074,0.838l0.074,0.846l0.073,0.852l0.074,0.858l0.073,0.865l0.073,0.871l0.072,0.877l0.072,0.882l0.071,0.887l0.071,0.892l0.07,0.897l0.07,0.902l0.069,0.905l0.068,0.91l0.067,0.913l0.066,0.917l0.066,0.919l0.065,0.923l0.063,0.925l0.063,0.928l0.061,0.93l0.06,0.931l0.059,0.934l0.058,0.934l0.057,0.936l0.055,0.937l0.054,0.937l0.052,0.937l0.051,0.938l0.049,0.937l0.048,0.937l0.046,0.936l0.044,0.935l0.043,0.934l0.041,0.932l0.038,0.931l0.038,0.928l0.035,0.927l0.033,0.924l0.031,0.921l0.029,0.918l0.027,0.914l0.024,0.912l0.023,0.907l0.02,0.903l0.018,0.899l0.015,0.895l0.013,0.889l0.01,0.884l0.008,0.879l0.005,0.874l0.003,0.867l0,0.862l-0.003,0.855l-0.005,0.848l-0.008,0.841l-0.006,0.418l-0.006,0.417l-0.006,0.414l-0.008,0.412l-0.008,0.411l-0.009,0.408l-0.01,0.407l-0.01,0.405l-0.012,0.402l-0.012,0.401l-0.012,0.398l-0.014,0.396l-0.014,0.394l-0.016,0.392l-0.016,0.389l-0.016,0.388l-0.018,0.385l-0.019,0.382l-0.019,0.38l-0.02,0.378l-0.021,0.376l-0.022,0.373l-0.023,0.37l-0.023,0.368l-0.025,0.365l-0.025,0.363l-0.026,0.36l-0.027,0.357l-0.028,0.355l-0.029,0.352l-0.05,0.591l-0.052,0.601l-0.054,0.611l-0.056,0.62l-0.057,0.631l-0.06,0.639l-0.062,0.65l-0.063,0.659l-0.065,0.668l-0.067,0.677l-0.069,0.686l-0.071,0.696l-0.072,0.704l-0.075,0.713l-0.076,0.722l-0.077,0.73l-0.08,0.739l-0.081,0.747l-0.167,1.52l-0.174,1.552l-0.18,1.584l-0.186,1.615l-0.193,1.646l-0.198,1.674l-0.205,1.704l-0.21,1.731l-0.216,1.759l-0.222,1.785l-0.226,1.81l-0.232,1.836l-0.237,1.859l-0.242,1.883l-0.247,1.905l-0.251,1.927l-0.256,1.948l-0.26,1.968l-0.265,1.987l-0.269,2.006l-0.272,2.025l-0.277,2.041l-0.28,2.057l-0.284,2.073l-0.287,2.088l-0.291,2.102l-0.293,2.115l-0.297,2.128l-0.3,2.139l-0.302,2.15l-0.305,2.161l-0.308,2.17l-0.31,2.178l-0.312,2.186l-0.314,2.194l-0.316,2.199l-0.318,2.205l-0.32,2.21l-0.321,2.214l-0.323,2.217l-0.324,2.219l-0.325,2.222l-0.326,2.222l-0.327,2.222l-0.327,2.221l-0.329,2.22l-0.328,2.218l-0.658,4.426l-0.659,4.408l-0.657,4.384l-0.656,4.353l-0.652,4.317l-0.648,4.273l-0.643,4.225l-0.637,4.17l-0.629,4.108l-0.621,4.041l-0.611,3.967l-0.601,3.887l-0.588,3.801l-0.576,3.709l-0.562,3.611l-0.547,3.506l-0.531,3.395l-0.514,3.278l-0.496,3.155l-0.476,3.026l-0.455,2.89l-0.435,2.748l-0.799,5.048l-0.7,4.406l-0.592,3.716l-0.476,2.977l-0.351,2.187l-0.291,1.809l-0.677,0.182l-0.822,0.219l-1.122,0.298l-1.406,0.37l-0.805,0.211l-0.87,0.227l-0.932,0.243l-0.994,0.258l-1.052,0.271l-1.109,0.286l-1.164,0.298l-1.217,0.31l-1.267,0.322l-1.316,0.333l-1.363,0.343l-1.408,0.353l-1.45,0.361l-1.49,0.369l-1.529,0.377l-1.566,0.384l-1.6,0.39l-1.632,0.395l-1.663,0.4l-1.691,0.405l-1.718,0.407l-1.742,0.411l-0.879,0.206l-0.885,0.206l-0.889,0.207l-0.895,0.207l-0.899,0.208l-0.903,0.207l-0.908,0.208l-0.911,0.207l-0.915,0.207l-0.918,0.207l-0.921,0.207l-0.924,0.206l-0.926,0.206l-0.929,0.205l-0.93,0.205l-0.933,0.204l-0.933,0.203l-0.935,0.202l-0.936,0.201l-0.937,0.2l-0.938,0.199l-0.937,0.198l-0.938,0.196l-0.937,0.195l-0.936,0.194l-0.936,0.192l-0.935,0.19l-0.934,0.189l-0.932,0.186l-0.93,0.185l-0.928,0.183l-0.926,0.18l-0.923,0.179l-0.92,0.176l-0.918,0.174l-0.914,0.172l-0.91,0.169l-0.907,0.166l-0.902,0.164l-0.898,0.161l-0.894,0.158l-0.888,0.155l-0.884,0.153l-0.878,0.149l-0.873,0.146l-0.866,0.143l-0.861,0.139l-0.854,0.136l-0.848,0.132l-0.84,0.129l-0.834,0.125l-0.826,0.122l-0.819,0.117l-0.81,0.114l-0.803,0.11l-0.794,0.105l-0.393,0.051l-0.392,0.051l-0.389,0.049l-0.387,0.048l-0.385,0.047l-0.382,0.045l-0.381,0.045l-0.377,0.044l-0.376,0.042l-0.372,0.042l-0.371,0.04l-0.368,0.039l-0.365,0.038l-0.362,0.036l-0.361,0.036l-0.357,0.034l-0.395,0.037l-0.398,0.036l-0.403,0.036l-0.406,0.035l-0.41,0.034l-0.414,0.034l-0.418,0.034l-0.422,0.033l-0.425,0.032l-0.429,0.032l-0.432,0.031l-0.436,0.031l-0.44,0.03l-0.443,0.029l-0.896,0.058l-0.91,0.055l-0.922,0.054l-0.935,0.051l-0.948,0.049l-0.959,0.048l-0.971,0.045l-0.983,0.044l-0.993,0.041l-1.003,0.04l-1.014,0.038l-1.024,0.036l-1.033,0.034l-1.043,0.032l-1.051,0.031l-1.06,0.029l-1.067,0.027l-1.076,0.025l-1.083,0.024l-1.09,0.023l-1.097,0.02l-1.103,0.02l-1.109,0.017l-1.115,0.016l-1.121,0.015l-1.125,0.013l-1.13,0.012l-1.134,0.01l-1.138,0.009l-1.142,0.008l-1.145,0.006l-1.148,0.005l-1.15,0.004l-1.153,0.003l-1.154,0.001l-1.156,0l-1.157,-0.001l-1.158,-0.002l-1.159,-0.003l-1.158,-0.004l-1.159,-0.005l-1.158,-0.007l-1.156,-0.007l-1.156,-0.008l-1.154,-0.009l-1.152,-0.011l-1.15,-0.01l-1.147,-0.012l-1.144,-0.013l-1.141,-0.013l-1.137,-0.015l-1.133,-0.015l-1.128,-0.015l-2.243,-0.034l-2.22,-0.036l-2.197,-0.038l-2.169,-0.04l-2.139,-0.042l-2.105,-0.044l-2.071,-0.046l-2.032,-0.046l-1.99,-0.048l-1.947,-0.048l-1.9,-0.049l-1.85,-0.049l-1.798,-0.05l-1.743,-0.049l-1.685,-0.049l-1.624,-0.049l-1.561,-0.048l-1.494,-0.047l-1.426,-0.045l-1.353,-0.045l-1.279,-0.043l-1.202,-0.041l-2.16,-0.075l-1.817,-0.066l-1.453,-0.054l-1.064,-0.041l-0.879,-0.035l0.269,-0.305l0.788,-0.897l1.281,-1.458l1.745,-1.991l1.039,-1.187l1.145,-1.309l1.247,-1.428l1.346,-1.542l1.442,-1.655l1.535,-1.762l1.624,-1.866l1.709,-1.967l1.791,-2.064l1.87,-2.158l1.945,-2.247l2.017,-2.333l2.086,-2.415l2.151,-2.495l2.213,-2.57l2.27,-2.641l2.326,-2.709l2.377,-2.774l1.207,-1.41l1.218,-1.424l1.23,-1.439l1.24,-1.453l1.251,-1.466l1.26,-1.479l1.27,-1.491l1.279,-1.503l1.288,-1.515l1.296,-1.526l1.303,-1.537l1.311,-1.547l1.318,-1.556l1.324,-1.566l1.33,-1.575l1.336,-1.583l1.341,-1.591l1.346,-1.598l1.35,-1.605l1.354,-1.612l1.358,-1.618l1.361,-1.624l1.363,-1.629l1.365,-1.634l1.368,-1.638l1.368,-1.642l1.37,-1.645l1.37,-1.648l1.37,-1.651l1.37,-1.652l1.369,-1.655l1.368,-1.655l1.366,-1.656l1.364,-1.656l1.362,-1.656l1.359,-1.656l1.355,-1.654l1.352,-1.652l1.348,-1.651l1.343,-1.648l1.338,-1.645l1.332,-1.641l1.327,-1.638l1.32,-1.634l1.313,-1.628l1.307,-1.624l1.298,-1.617l1.291,-1.612l1.283,-1.605l1.273,-1.598l1.264,-1.59l1.255,-1.583l1.244,-1.574l1.234,-1.565l1.222,-1.556l0.607,-0.774l0.605,-0.772l0.601,-0.77l0.598,-0.766l0.595,-0.764l0.592,-0.762l0.589,-0.758l0.586,-0.756l0.582,-0.753l0.579,-0.749l0.576,-0.747l0.572,-0.744l0.568,-0.74l0.566,-0.738l0.561,-0.734l0.558,-0.731l0.554,-0.728l0.551,-0.724l0.546,-0.721l0.543,-0.717l0.539,-0.713l0.534,-0.71l0.531,-0.707l0.527,-0.702l0.522,-0.699l0.519,-0.695l0.514,-0.691l0.51,-0.687l0.505,-0.683l0.501,-0.679l0.497,-0.674l0.492,-0.671l0.488,-0.666l0.483,-0.662l0.478,-0.658l0.474,-0.653l0.468,-0.649l0.464,-0.644l0.46,-0.639l0.454,-0.635l0.449,-0.631l0.444,-0.625l0.417,-0.589l0.418,-0.594l0.421,-0.6l0.423,-0.605l0.425,-0.61l0.427,-0.615l0.43,-0.621l0.431,-0.626l0.433,-0.63l0.435,-0.636l0.437,-0.64l0.439,-0.645l0.441,-0.65l0.442,-0.655l0.445,-0.659l0.446,-0.664l0.448,-0.669l0.449,-0.673l0.452,-0.677l0.453,-0.682l0.454,-0.685l0.456,-0.691l0.458,-0.694l0.459,-0.698l0.461,-0.703l0.462,-0.706l0.464,-0.71l0.465,-0.714l0.466,-0.718l0.468,-0.722l0.469,-0.725l0.47,-0.729l0.472,-0.733l0.473,-0.736l0.474,-0.739l0.475,-0.743l0.476,-0.746l0.477,-0.749l0.479,-0.752l0.48,-0.756l0.48,-0.759l0.482,-0.761l0.482,-0.765l0.484,-0.767l0.969,-1.543l0.973,-1.555l0.976,-1.564l0.979,-1.574l0.981,-1.583l0.984,-1.593l0.986,-1.6l0.988,-1.609l0.989,-1.616l0.991,-1.623l0.992,-1.629l0.993,-1.635l0.994,-1.64l0.995,-1.646l0.994,-1.65l0.995,-1.654l0.994,-1.657l0.993,-1.66l0.993,-1.663l0.992,-1.665l0.991,-1.667l0.99,-1.667l0.987,-1.668l0.986,-1.668l0.984,-1.668l0.981,-1.667l0.978,-1.665l0.976,-1.664l0.972,-1.661l0.969,-1.658l0.966,-1.656l0.961,-1.651l0.958,-1.647l0.953,-1.642l0.949,-1.637l0.944,-1.631l0.938,-1.625l0.934,-1.618l0.928,-1.611l0.922,-1.604l0.916,-1.595l0.91,-1.586l0.903,-1.577l0.897,-1.568l0.89,-1.557l0.882,-1.547l0.875,-1.536l0.868,-1.524l0.859,-1.512l0.851,-1.5l0.843,-1.487l0.834,-1.472l0.826,-1.459l0.816,-1.445l0.807,-1.429l0.797,-1.414l1.565,-2.78l1.523,-2.712l1.48,-2.64l1.435,-2.564l1.388,-2.486l1.339,-2.402l1.287,-2.314l1.236,-2.224l1.18,-2.129l1.124,-2.029l1.065,-1.927l1.004,-1.821l0.942,-1.709l0.878,-1.596l0.812,-1.477l0.743,-1.355l0.673,-1.228l1.129,-2.064l0.825,-1.513l0.506,-0.93l0.173,-0.317l0.021,0.173Zm-27.581,109.189l-1.003,1.691l-1.005,1.691l-1.007,1.689l-1.008,1.688l-1.009,1.687l-1.01,1.683l-1.011,1.681l-1.011,1.678l-1.012,1.674l-1.011,1.67l-1.012,1.665l-1.011,1.66l-1.01,1.654l-1.009,1.649l-1.009,1.642l-1.007,1.635l-1.006,1.627l-1.003,1.62l-1.003,1.612l-0.999,1.602l-0.998,1.594l-0.992,1.579l-0.5,0.793l-0.496,0.786l-0.495,0.783l-0.494,0.781l-0.494,0.778l-0.493,0.775l-0.492,0.772l-0.491,0.769l-0.49,0.767l-0.49,0.763l-0.488,0.76l-0.488,0.758l-0.487,0.754l-0.485,0.751l-0.485,0.748l-0.484,0.744l-0.482,0.742l-0.482,0.738l-0.48,0.734l-0.48,0.731l-0.478,0.727l-0.477,0.724l-0.476,0.72l-0.475,0.717l-0.474,0.713l-0.473,0.709l-0.471,0.706l-0.47,0.701l-0.469,0.698l-0.467,0.693l-0.467,0.69l-0.465,0.686l-0.463,0.682l-0.463,0.677l-0.461,0.674l-0.46,0.669l-0.458,0.666l-0.458,0.661l-0.455,0.656l-0.455,0.653l-0.453,0.648l-0.452,0.644l-0.45,0.639l-0.449,0.634l-0.475,0.669l-0.479,0.672l-0.484,0.677l-0.488,0.679l-0.491,0.683l-0.497,0.686l-0.5,0.691l-0.505,0.694l-0.508,0.697l-0.513,0.7l-0.517,0.705l-0.521,0.707l-0.524,0.711l-0.529,0.714l-0.533,0.718l-0.536,0.721l-0.54,0.724l-0.544,0.727l-0.548,0.731l-0.551,0.734l-0.555,0.736l-0.559,0.74l-0.562,0.743l-0.565,0.746l-0.57,0.749l-0.572,0.751l-0.576,0.755l-0.58,0.757l-0.582,0.76l-0.586,0.763l-0.589,0.766l-0.592,0.768l-0.595,0.771l-0.599,0.774l-0.601,0.776l-0.604,0.778l-0.608,0.781l-0.609,0.783l-0.613,0.785l-0.616,0.789l-0.619,0.789l-0.624,0.797l-1.247,1.586l-1.26,1.599l-1.27,1.607l-1.279,1.614l-1.289,1.621l-1.297,1.627l-1.305,1.634l-1.313,1.639l-1.32,1.645l-1.328,1.649l-1.334,1.654l-1.34,1.658l-1.346,1.662l-1.351,1.665l-1.356,1.667l-1.361,1.671l-1.365,1.671l-1.369,1.674l-1.372,1.674l-1.375,1.675l-1.378,1.675l-1.379,1.675l-1.382,1.675l-1.382,1.673l-1.384,1.671l-1.383,1.67l-1.384,1.667l-1.384,1.665l-1.383,1.661l-1.381,1.657l-1.38,1.653l-1.378,1.649l-1.375,1.643l-1.373,1.638l-1.369,1.632l-1.366,1.625l-1.361,1.619l-1.357,1.611l-1.351,1.604l-1.347,1.595l-1.34,1.587l-1.334,1.578l-1.328,1.568l-1.321,1.558l-1.313,1.548l-1.305,1.537l-1.297,1.526l-1.288,1.514l-1.278,1.502l-1.27,1.489l-0.77,0.903l0.282,0l1.129,0.002l1.128,0.001l1.125,0l1.124,-0.001l1.121,-0.003l1.118,-0.003l1.114,-0.005l1.111,-0.006l1.105,-0.008l1.102,-0.009l1.097,-0.01l1.091,-0.011l1.086,-0.013l1.079,-0.014l1.072,-0.015l1.066,-0.017l1.059,-0.019l1.05,-0.02l1.042,-0.021l1.034,-0.023l1.024,-0.024l1.015,-0.026l1.005,-0.027l0.995,-0.029l0.983,-0.031l0.973,-0.032l0.96,-0.034l0.949,-0.035l0.936,-0.037l0.922,-0.039l0.908,-0.04l0.895,-0.042l0.88,-0.043l0.864,-0.045l0.848,-0.047l0.832,-0.048l0.815,-0.05l0.809,-0.052l0.379,-0.025l0.388,-0.026l0.382,-0.027l0.377,-0.028l0.372,-0.027l0.368,-0.028l0.361,-0.028l0.357,-0.029l0.352,-0.029l0.346,-0.029l0.341,-0.029l0.335,-0.03l0.329,-0.03l0.32,-0.03l0.282,-0.027l0.283,-0.028l0.286,-0.028l0.292,-0.031l0.296,-0.031l0.3,-0.033l0.305,-0.033l0.307,-0.035l0.312,-0.036l0.315,-0.037l0.32,-0.039l0.324,-0.039l0.325,-0.04l0.33,-0.042l0.334,-0.043l0.322,-0.042l0.698,-0.093l0.696,-0.095l0.708,-0.099l0.721,-0.103l0.731,-0.108l0.742,-0.111l0.752,-0.116l0.763,-0.119l0.772,-0.123l0.781,-0.126l0.789,-0.13l0.799,-0.134l0.806,-0.137l0.814,-0.14l0.821,-0.143l0.828,-0.147l0.834,-0.15l0.841,-0.152l0.847,-0.156l0.853,-0.158l0.857,-0.161l0.863,-0.164l0.867,-0.166l0.871,-0.168l0.876,-0.171l0.879,-0.173l0.882,-0.175l0.886,-0.178l0.888,-0.179l0.89,-0.181l0.893,-0.183l0.895,-0.185l0.896,-0.186l0.898,-0.189l0.898,-0.189l0.899,-0.191l0.9,-0.192l0.899,-0.193l0.9,-0.195l0.899,-0.195l0.898,-0.197l0.898,-0.197l0.896,-0.198l0.894,-0.199l0.893,-0.199l0.891,-0.2l0.888,-0.2l0.885,-0.201l0.883,-0.201l0.88,-0.201l0.875,-0.201l0.872,-0.201l0.868,-0.201l0.864,-0.201l0.86,-0.201l0.848,-0.199l1.7,-0.4l1.671,-0.397l1.646,-0.393l1.62,-0.39l1.59,-0.385l1.56,-0.38l1.526,-0.374l1.492,-0.368l1.133,-0.281l0.108,-0.679l0.432,-2.738l0.455,-2.882l0.474,-3.017l0.494,-3.145l0.513,-3.269l0.529,-3.385l0.545,-3.496l0.561,-3.6l0.574,-3.697l0.587,-3.79l0.599,-3.875l0.609,-3.955l0.619,-4.028l0.627,-4.095l0.634,-4.155l0.641,-4.21l0.646,-4.258l0.65,-4.301l0.653,-4.336l0.655,-4.366l0.655,-4.39l0.656,-4.409l0.327,-2.205l0.326,-2.21l0.326,-2.211l0.326,-2.211l0.324,-2.211l0.323,-2.209l0.323,-2.208l0.32,-2.205l0.32,-2.201l0.318,-2.197l0.316,-2.192l0.314,-2.186l0.312,-2.179l0.31,-2.172l0.308,-2.163l0.305,-2.155l0.303,-2.144l0.3,-2.134l0.298,-2.122l0.294,-2.11l0.291,-2.097l0.288,-2.083l0.285,-2.069l0.281,-2.053l0.277,-2.037l0.274,-2.019l0.269,-2.001l0.266,-1.983l0.261,-1.963l0.257,-1.943l0.253,-1.922l0.248,-1.899l0.242,-1.877l0.239,-1.852l0.233,-1.828l0.227,-1.803l0.223,-1.776l0.217,-1.749l0.211,-1.721l0.205,-1.692l0.112,-0.928l-0.301,0.508Z"/></svg>