<?xml version="1.0" encoding="UTF-8" standalone="no"?><!DOCTYPE svg PUBLIC "-//W3C//DTD SVG 1.1//EN" "http://www.w3.org/Graphics/SVG/1.1/DTD/svg11.dtd"><svg width="100%" height="100%" viewBox="0 0 800 600" version="1.1" xmlns="http://www.w3.org/2000/svg" xmlns:xlink="http://www.w3.org/1999/xlink" xml:space="preserve" xmlns:serif="http://www.serif.com/" style="fill-rule:evenodd;clip-rule:evenodd;stroke-linejoin:round;stroke-miterlimit:2;"><rect id="Artboard1" x="0" y="0" width="800" height="600" style="fill:none;"/><g id="Artboard11" serif:id="Artboard1"><g><path d="M524.207,135.113l-123.743,123.744l70.71,70.71l123.744,-123.743l-70.711,-70.711Z" style="fill:#ebebeb;"/><path d="M514.349,123.807c2.442,-1.986 3.015,-2.12 4.356,-2.648c5.396,-2.128 11.807,-0.67 16.109,3.347l70.711,70.711c2.148,2.301 2.32,2.863 2.939,4.164c2.347,4.935 1.734,11.117 -1.594,15.506c-0.55,0.726 -0.724,0.878 -1.345,1.543l-123.744,123.744c-2.3,2.148 -2.863,2.321 -4.164,2.939c-4.935,2.347 -11.117,1.735 -15.506,-1.594c-0.726,-0.55 -0.878,-0.724 -1.543,-1.345l-70.711,-70.711c-2.148,-2.3 -2.32,-2.863 -2.939,-4.164c-2.342,-4.924 -1.734,-11.117 1.594,-15.506c0.55,-0.726 0.724,-0.878 1.345,-1.543l123.744,-123.744c0.249,-0.233 0.499,-0.466 0.748,-0.699Zm-92.672,135.05l49.497,49.497l102.531,-102.53l-49.498,-49.498c-34.176,34.177 -68.353,68.354 -102.53,102.531Z"/><path d="M400.464,456.846c35.147,-35.147 35.147,-92.132 0,-127.279c-35.147,-35.147 -92.132,-35.147 -127.279,0l63.639,63.64l63.64,63.639Z" style="fill:#ebebeb;"/><path d="M262.818,318.722c27.107,-26.854 69.169,-37.423 106.317,-25.44c36.528,11.783 65.346,44.798 71.421,83.615c5.092,32.532 -5.916,66.912 -29.469,90.539l-0.748,0.701c-5.422,4.424 -13.452,4.821 -18.937,0.663c-0.727,-0.551 -0.879,-0.725 -1.545,-1.347l-127.279,-127.279c-2.151,-2.303 -2.323,-2.866 -2.942,-4.169c-2.347,-4.941 -1.728,-11.13 1.61,-15.518c0.608,-0.8 0.764,-0.96 1.572,-1.765Zm136.587,115.852c14.726,-22.229 16.271,-52.597 3.844,-76.243c-10.637,-20.239 -30.947,-35.064 -53.418,-38.996c-18.649,-3.263 -38.437,0.804 -54.263,11.217l-0.111,0.074c34.649,34.65 69.299,69.299 103.948,103.948Z"/><path d="M400.464,329.567l31.82,-31.82" style="fill:none;"/><path d="M422.049,286.781c7.06,-6.364 19.825,-4.273 23.913,4.81c2.475,5.499 1.211,12.33 -3.072,16.763l-31.82,31.82c-5.36,5.178 -14.482,5.731 -20.259,0.875c-6.179,-5.196 -7.012,-15.61 -1.314,-21.716c0.118,-0.126 0.24,-0.248 0.36,-0.372l31.82,-31.82c0.124,-0.12 0.248,-0.24 0.372,-0.36Z"/><path d="M462.336,196.985l-21.214,-21.213" style="fill:none;"/><path d="M430.817,164.872c5.58,-5.129 14.949,-5.353 20.61,0c0.102,0.096 0.201,0.195 0.302,0.293l21.213,21.213c6.835,7.03 4.561,20.56 -4.866,24.465c-5.447,2.256 -12.157,0.822 -16.347,-3.252l-21.213,-21.213c-5.387,-5.54 -5.747,-15.143 -0.293,-20.911c0.192,-0.204 0.393,-0.4 0.594,-0.595Z"/><path d="M533.046,267.695l21.214,21.214" style="fill:none;"/><path d="M522.741,256.796c5.58,-5.129 14.948,-5.353 20.61,0c0.102,0.096 0.201,0.195 0.302,0.293l21.213,21.213c5.309,5.459 5.654,14.922 0.578,20.602c-5.286,5.915 -15.494,6.572 -21.489,0.905c-0.102,-0.097 -0.202,-0.196 -0.302,-0.294l-21.213,-21.213c-5.387,-5.54 -5.747,-15.143 -0.294,-20.912c0.193,-0.203 0.394,-0.399 0.595,-0.594Z"/><path d="M594.918,262.392l-70.711,70.711l113.138,113.137l70.71,-70.711l-113.137,-113.137Z" style="fill:#ebebeb;"/><path d="M584.998,251.14c2.232,-1.846 2.746,-1.988 3.963,-2.514c4.897,-2.119 10.895,-1.387 15.151,1.914c0.662,0.514 0.803,0.673 1.413,1.246l113.137,113.137c2.107,2.243 2.474,3.065 3.16,4.649c2.119,4.897 1.387,10.895 -1.914,15.151c-0.514,0.662 -0.673,0.803 -1.246,1.413l-70.711,70.71c-2.243,2.107 -3.065,2.475 -4.649,3.16c-4.897,2.119 -10.895,1.387 -15.151,-1.914c-0.662,-0.514 -0.803,-0.672 -1.413,-1.246l-113.137,-113.137c-1.983,-2.111 -2.157,-2.615 -2.759,-3.796c-2.565,-5.035 -1.972,-11.51 1.513,-16.004c0.514,-0.662 0.673,-0.803 1.246,-1.413l70.711,-70.71c0.229,-0.215 0.458,-0.431 0.686,-0.646Zm-39.577,81.963l91.924,91.924l49.497,-49.498l-91.924,-91.924c-16.499,16.499 -32.998,32.999 -49.497,49.498Z"/><path d="M354.502,21.976l-70.711,70.71l113.137,113.138l70.711,-70.711l-113.137,-113.137Z" style="fill:#ebebeb;"/><path d="M344.582,10.724c2.232,-1.846 2.746,-1.988 3.963,-2.515c4.897,-2.119 10.895,-1.387 15.15,1.914c0.663,0.514 0.803,0.673 1.413,1.246l113.138,113.137c1.982,2.112 2.156,2.616 2.758,3.797c2.566,5.035 1.973,11.51 -1.513,16.004c-0.514,0.662 -0.672,0.802 -1.245,1.413l-70.711,70.71c-2.244,2.107 -3.065,2.474 -4.65,3.16c-4.897,2.119 -10.895,1.387 -15.15,-1.914c-0.663,-0.514 -0.803,-0.673 -1.413,-1.246l-113.137,-113.137c-1.983,-2.111 -2.157,-2.616 -2.759,-3.797c-2.565,-5.035 -1.973,-11.51 1.513,-16.003c0.514,-0.663 0.673,-0.803 1.246,-1.413l70.71,-70.711c0.229,-0.215 0.458,-0.43 0.687,-0.645Zm-39.578,81.962l91.924,91.924l49.498,-49.497l-91.924,-91.924c-16.499,16.499 -32.998,32.998 -49.498,49.497Z"/><path d="M319.147,128.042l70.71,-70.711" style="fill:none;"/><path d="M379.811,46.193c7.331,-6.278 20.042,-3.761 23.867,5.309c2.299,5.451 0.909,12.094 -3.214,16.436l-70.711,70.71c-6.098,5.792 -16.658,5.389 -22,-0.85c-4.849,-5.662 -4.586,-14.705 0.787,-20.363l70.711,-70.71c0.186,-0.178 0.373,-0.355 0.56,-0.532Z"/><path d="M361.573,170.468l70.711,-70.71" style="fill:none;"/><path d="M422.237,88.619c6.19,-5.3 16.283,-4.64 21.44,1.382c4.849,5.662 4.586,14.706 -0.787,20.363l-70.71,70.711c-6.961,6.611 -19.767,4.901 -24.11,-4.074c-2.683,-5.546 -1.428,-12.586 2.896,-17.139l70.711,-70.711c0.187,-0.177 0.373,-0.355 0.56,-0.532Z"/><path d="M601.989,410.885l70.711,-70.711" style="fill:none;"/><path d="M662.653,329.035c5.762,-4.933 14.911,-4.929 20.377,0.263c5.758,5.469 5.996,15.46 0.277,21.482l-70.711,70.711c-6.961,6.611 -19.767,4.902 -24.109,-4.073c-2.684,-5.547 -1.429,-12.587 2.896,-17.14l70.71,-70.711c0.187,-0.177 0.374,-0.354 0.56,-0.532Z"/><path d="M559.563,368.458l70.71,-70.711" style="fill:none;"/><path d="M620.227,286.609c5.761,-4.934 14.91,-4.929 20.376,0.262c5.759,5.469 5.997,15.461 0.277,21.483l-70.711,70.711c-6.99,6.639 -19.795,4.843 -24.109,-4.074c-2.683,-5.546 -1.429,-12.586 2.896,-17.139l70.711,-70.711c0.187,-0.177 0.373,-0.355 0.56,-0.532Z"/><path d="M255.507,375.529c5.053,53.386 32.807,86.594 91.924,91.924" style="fill:none;"/><path d="M245.436,364.413c0.589,-0.504 0.727,-0.643 1.358,-1.094c6.351,-4.531 16.255,-3.045 20.923,3.498c3.076,4.31 2.903,10.097 3.744,15.635c3.535,23.282 13.978,46.006 35.487,58.253c12.712,7.237 27.334,10.472 41.86,11.811c0,0 5.469,0.924 8.647,3.779c6.031,5.417 6.411,15.991 0.533,21.814c-4.987,4.94 -12.799,4.388 -20.76,3.265c-24.897,-3.512 -49.785,-13.267 -67.497,-32.153c-17.69,-18.862 -26.39,-45.071 -29.024,-70.923c-0.474,-4.65 0.771,-10.084 4.729,-13.885Z"/><path d="M191.867,396.742c7.313,74.268 66.53,137.736 141.422,141.422" style="fill:none;"/><path d="M181.729,385.687c0.724,-0.617 0.89,-0.793 1.677,-1.33c7.828,-5.348 20.602,-1.008 23.023,8.786c1.051,4.253 1.409,11.255 2.764,17.698c8.717,41.447 35.701,79.107 74.113,98.724c15.726,8.031 33.148,12.725 50.743,13.618l1.067,0.092c10.699,1.703 17.071,15.616 9.71,24.475c-3.806,4.58 -10.074,5.629 -16.633,5.119c-45.989,-3.571 -89.297,-29.023 -117.205,-66.661c-18.697,-25.214 -30.587,-55.537 -33.902,-86.568c-0.338,-3.167 0.063,-8.056 2.525,-11.545c1.189,-1.686 1.646,-1.942 2.118,-2.408Z"/></g></g></svg>