<?xml version="1.0" encoding="UTF-8" standalone="no"?><!DOCTYPE svg PUBLIC "-//W3C//DTD SVG 1.1//EN"
        "http://www.w3.org/Graphics/SVG/1.1/DTD/svg11.dtd">
<svg width="100%" height="100%" viewBox="0 0 600 600" version="1.1" xmlns="http://www.w3.org/2000/svg"
     xmlns:xlink="http://www.w3.org/1999/xlink" xml:space="preserve" xmlns:serif="http://www.serif.com/"
     style="fill-rule:evenodd;clip-rule:evenodd;stroke-linecap:round;stroke-linejoin:round;stroke-miterlimit:1.5;"><path d="M355.112,44.051c-36.325,-7.822 -73.899,-7.822 -110.224,0l-16.726,74.569c-17.745,7.028 -34.363,16.623 -49.322,28.476l-72.942,-22.799c-24.937,27.547 -43.724,60.088 -55.113,95.457l56.216,51.77c-2.786,18.882 -2.786,38.07 0,56.952l-56.216,51.77c11.389,35.369 30.176,67.91 55.113,95.457l72.942,-22.799c14.959,11.853 31.577,21.448 49.322,28.476l16.726,74.569c36.325,7.822 73.899,7.822 110.224,0l16.726,-74.569c17.745,-7.028 34.363,-16.623 49.322,-28.476l72.942,22.799c24.937,-27.547 43.724,-60.088 55.113,-95.457l-56.216,-51.77c2.786,-18.882 2.786,-38.07 0,-56.952l56.216,-51.77c-11.389,-35.369 -30.176,-67.91 -55.113,-95.457l-72.942,22.799c-14.959,-11.853 -31.577,-21.448 -49.322,-28.476l-16.726,-74.569Zm-55.112,164.214c50.63,0 91.735,41.105 91.735,91.735c0,50.63 -41.105,91.735 -91.735,91.735c-50.63,0 -91.735,-41.105 -91.735,-91.735c0,-50.63 41.105,-91.735 91.735,-91.735Z" style="fill:#fff;stroke:#0b0000;stroke-width:30px;"/></svg>
