<?xml version="1.0" encoding="UTF-8" standalone="no"?><!DOCTYPE svg PUBLIC "-//W3C//DTD SVG 1.1//EN" "http://www.w3.org/Graphics/SVG/1.1/DTD/svg11.dtd"><svg width="100%" height="100%" viewBox="0 0 600 600" version="1.1" xmlns="http://www.w3.org/2000/svg" xmlns:xlink="http://www.w3.org/1999/xlink" xml:space="preserve" xmlns:serif="http://www.serif.com/" style="fill-rule:evenodd;clip-rule:evenodd;stroke-linecap:round;stroke-linejoin:round;stroke-miterlimit:1.5;"><path d="M567.961,295.575c6.027,-69.728 -52.573,-183.331 -98.099,-215.575c-13.382,-9.478 -200,-95.18 -254.028,-32.453c187.737,-14.518 280.06,199.576 273.306,232.453c0,0 54.79,15.692 78.821,15.575Z"/><g><path d="M577.92,294.596c-3.399,-152.165 -127.727,-273.747 -279.93,-273.747c-154.64,0 -280,125.36 -280,280c0,-154.64 125.36,-280 280,-280c152.203,0 276.531,121.582 279.93,273.747Z" style="fill:#ebebeb;stroke:#000;stroke-width:30px;"/><path d="M489.14,295.575l88.85,0" style="fill:none;stroke:#000;stroke-width:30px;"/><path d="M489.14,295.575c0,-130.105 -105.471,-235.575 -235.575,-235.575c-130.105,0 -235.575,105.47 -235.575,235.575c0,-130.105 105.47,-235.575 235.575,-235.575c130.104,0 235.575,105.47 235.575,235.575Z" style="fill:#ebebeb;stroke:#000;stroke-width:30px;"/></g><path d="M298.085,100l46.603,179.008c2.836,54.379 -89.058,54.932 -89.441,0l42.838,-179.008Z"/><path d="M32.039,356.574c26.741,126.657 138.512,217.294 267.961,217.294c129.449,0 241.22,-90.637 267.961,-217.294c0,0 -79.043,17.613 -167.961,13.353c-83.918,-4.02 -176.632,-29.927 -220,-29.927c-49.32,0 -147.961,16.574 -147.961,16.574Z" style="fill:#fff;stroke:#000;stroke-width:30px;"/><text x="164.588px" y="498.296px" style="font-family:'ArialMT', 'Arial', sans-serif;font-size:139.605px;">0.00</text></svg>