<?xml version="1.0" encoding="UTF-8" standalone="no"?><!DOCTYPE svg PUBLIC "-//W3C//DTD SVG 1.1//EN" "http://www.w3.org/Graphics/SVG/1.1/DTD/svg11.dtd"><svg width="100%" height="100%" viewBox="0 0 800 600" version="1.1" xmlns="http://www.w3.org/2000/svg" xmlns:xlink="http://www.w3.org/1999/xlink" xml:space="preserve" xmlns:serif="http://www.serif.com/" style="fill-rule:evenodd;clip-rule:evenodd;stroke-linejoin:round;stroke-miterlimit:2;"><rect id="Artboard1" x="0" y="0" width="800" height="600" style="fill:none;"/><g id="Artboard11" serif:id="Artboard1"><g><circle cx="400" cy="300" r="200" style="fill:#ebebeb;"/><path d="M400.694,85.001c66.85,0.318 131.717,33.114 171.563,86.383c39.915,53.361 53.206,125.671 33.648,190.623c-18.236,60.566 -64.594,112.1 -123.448,136.586c-52.036,21.649 -112.766,21.696 -164.914,0c-68.35,-28.437 -120,-93.931 -130.456,-168.557c-7.776,-55.499 6.966,-113.615 40.656,-158.652c38.808,-51.879 100.977,-84.856 167.408,-86.33c1.847,-0.041 3.692,-0.056 5.543,-0.053Zm-1.293,30c-56.668,0.27 -112.092,27.703 -146.63,73.021c-35.138,46.105 -46.728,108.992 -30.114,164.79c15.634,52.502 55.784,97.02 106.41,118.083c55.389,23.044 121.878,17.049 172.47,-16.263c50.656,-33.354 83.267,-92.337 83.462,-154.033c0.191,-60.375 -31.092,-120.075 -82.071,-154.306c-30.038,-20.17 -66.076,-31.12 -102.329,-31.292c-0.399,-0.001 -0.799,-0.001 -1.198,0Z"/><path d="M400,65l0,-50" style="fill:none;"/><path d="M400.812,0.022c7.47,0.54 13.907,6.918 14.178,14.436c0.007,0.181 0.007,0.361 0.01,0.542l0,50c-0.139,7.676 -6.644,14.569 -14.188,14.978c-7.893,0.428 -15.506,-6.235 -15.802,-14.436c-0.007,-0.181 -0.007,-0.361 -0.01,-0.542l0,-50c0.142,-7.838 6.705,-14.853 14.729,-14.998c0.361,-0.006 0.722,0.007 1.083,0.02Z"/><path d="M564.645,135.355l35.355,-35.355" style="fill:none;"/><path d="M600.572,85.011c9.454,0.505 16.905,11.094 13.475,20.25c-0.535,1.429 -1.289,2.774 -2.228,3.976c-0.376,0.481 -0.788,0.932 -1.212,1.37l-35.356,35.355c-5.276,5.118 -14.246,5.728 -20.022,1.07c-6.368,-5.136 -7.315,-15.784 -1.509,-21.955c0.104,-0.111 0.212,-0.219 0.318,-0.328l35.355,-35.356c1.01,-0.979 1.216,-1.107 1.735,-1.488c2.338,-1.715 5.176,-2.729 8.072,-2.884c0.89,-0.047 1.091,-0.017 1.372,-0.01Z"/><path d="M635,300l50,0" style="fill:none;"/><path d="M685.542,285.01c8.21,0.445 15.126,8.284 14.397,16.342c-0.65,7.175 -6.982,13.37 -14.397,13.638c-0.181,0.007 -0.361,0.007 -0.542,0.01l-50,0c-8.221,-0.148 -15.416,-7.733 -14.978,-15.812c0.399,-7.359 6.812,-13.903 14.436,-14.178c0.181,-0.007 0.361,-0.007 0.542,-0.01l50,0c0.181,0.003 0.361,0.007 0.542,0.01Z"/><path d="M564.645,464.645l35.355,35.355" style="fill:none;"/><path d="M564.988,449.649c1.406,0.053 1.64,0.113 2.274,0.226c2.705,0.479 5.269,1.718 7.323,3.536c0.305,0.27 0.374,0.344 0.666,0.627l35.356,35.355c6.76,6.97 4.768,20.346 -4.709,24.399c-5.456,2.333 -12.126,1.062 -16.505,-3.185l-35.355,-35.356c-6.597,-6.801 -4.885,-19.615 3.878,-24.013c1.5,-0.752 3.126,-1.251 4.79,-1.467c0.756,-0.099 1.519,-0.128 2.282,-0.122Z"/><path d="M400,535l0,50" style="fill:none;"/><path d="M400.812,520.022c7.47,0.54 13.907,6.918 14.178,14.436c0.007,0.181 0.007,0.361 0.01,0.542l0,50c-0.139,7.676 -6.644,14.569 -14.188,14.978c-7.893,0.428 -15.506,-6.235 -15.802,-14.436c-0.007,-0.181 -0.007,-0.361 -0.01,-0.542l0,-50c0.142,-7.838 6.705,-14.853 14.729,-14.998c0.361,-0.006 0.722,0.007 1.083,0.02Z"/><path d="M235.355,464.645l-35.355,35.355" style="fill:none;"/><path d="M235.927,449.656c9.314,0.497 16.719,10.737 13.629,19.819c-0.54,1.589 -1.349,3.084 -2.382,4.407c-0.376,0.48 -0.787,0.931 -1.212,1.369l-35.355,35.356c-7.003,6.792 -20.4,4.641 -24.399,-4.709c-2.333,-5.456 -1.062,-12.126 3.185,-16.505l35.356,-35.355c1.211,-1.175 1.643,-1.463 2.488,-2.007c2.18,-1.403 4.722,-2.226 7.318,-2.365c0.891,-0.048 1.092,-0.017 1.372,-0.01Z"/><path d="M165,300l-50,0" style="fill:none;"/><path d="M165.542,285.01c8.834,0.479 16.187,9.529 14.047,18.479c-1.55,6.479 -7.646,11.386 -14.589,11.511l-50,0c-9.736,-0.176 -17.742,-10.995 -13.935,-20.552c2.205,-5.534 7.918,-9.339 13.935,-9.448l50,0c0.181,0.003 0.361,0.007 0.542,0.01Z"/><path d="M235.355,135.355l-35.355,-35.355" style="fill:none;"/><path d="M200.343,85.004c1.406,0.054 1.641,0.114 2.274,0.226c2.706,0.48 5.269,1.719 7.323,3.537c0.305,0.269 0.375,0.343 0.667,0.626l35.355,35.356c6.142,6.332 5.373,17.99 -2.297,23.094c-5.583,3.715 -13.614,3.116 -18.588,-1.563c-0.111,-0.104 -0.219,-0.212 -0.328,-0.318l-35.356,-35.355c-5.031,-5.187 -5.665,-13.966 -1.351,-19.663c2.853,-3.768 7.536,-5.976 12.301,-5.94Z"/></g></g></svg>