<?xml version="1.0" encoding="UTF-8" standalone="no"?><!DOCTYPE svg PUBLIC "-//W3C//DTD SVG 1.1//EN" "http://www.w3.org/Graphics/SVG/1.1/DTD/svg11.dtd"><svg width="100%" height="100%" viewBox="0 0 600 600" version="1.1" xmlns="http://www.w3.org/2000/svg" xmlns:xlink="http://www.w3.org/1999/xlink" xml:space="preserve" xmlns:serif="http://www.serif.com/" style="fill-rule:evenodd;clip-rule:evenodd;stroke-linejoin:round;stroke-miterlimit:2;"><rect id="Artboard1" x="0" y="0" width="600" height="600" style="fill:none;"/><clipPath id="_clip1"><rect x="0" y="0" width="600" height="600"/></clipPath><g clip-path="url(#_clip1)"><g><circle cx="299.902" cy="299.999" r="200" style="fill:#ebebeb;"/><path d="M300.597,85c66.849,0.319 131.716,33.114 171.562,86.383c39.915,53.362 53.206,125.671 33.649,190.623c-18.237,60.566 -64.595,112.1 -123.449,136.586c-52.035,21.65 -112.766,21.696 -164.913,0c-68.351,-28.437 -120.001,-93.931 -130.457,-168.557c-7.776,-55.498 6.967,-113.614 40.657,-158.652c38.807,-51.879 100.977,-84.855 167.408,-86.33c1.846,-0.041 3.692,-0.056 5.543,-0.053Zm-1.294,30c-56.668,0.27 -112.091,27.704 -146.629,73.021c-35.138,46.105 -46.729,108.993 -30.114,164.79c15.633,52.503 55.783,97.02 106.41,118.083c55.389,23.045 121.878,17.049 172.469,-16.262c50.656,-33.355 83.267,-92.338 83.462,-154.034c0.191,-60.374 -31.091,-120.075 -82.07,-154.306c-30.039,-20.169 -66.077,-31.119 -102.33,-31.292c-0.399,0 -0.798,0 -1.198,0Z"/><path d="M299.902,64.999l0,-50" style="fill:none;"/><path d="M300.715,0.021c7.47,0.541 13.906,6.918 14.178,14.437c0.006,0.18 0.006,0.361 0.009,0.541l0,50c-0.138,7.676 -6.643,14.569 -14.187,14.978c-7.893,0.428 -15.507,-6.235 -15.803,-14.436c-0.006,-0.181 -0.006,-0.361 -0.01,-0.542l0,-50c0.142,-7.837 6.706,-14.852 14.73,-14.997c0.361,-0.007 0.722,0.006 1.083,0.019Z"/><path d="M464.547,135.355l35.355,-35.356" style="fill:none;"/><path d="M500.474,85.01c9.455,0.505 16.905,11.094 13.475,20.251c-0.535,1.428 -1.289,2.773 -2.228,3.975c-0.376,0.481 -0.787,0.932 -1.212,1.37l-35.355,35.355c-5.277,5.118 -14.247,5.728 -20.023,1.07c-6.368,-5.135 -7.315,-15.784 -1.509,-21.955c0.104,-0.111 0.212,-0.219 0.318,-0.328l35.356,-35.355c1.01,-0.98 1.215,-1.108 1.734,-1.489c2.338,-1.714 5.177,-2.729 8.072,-2.883c0.891,-0.048 1.092,-0.017 1.372,-0.011Z"/><path d="M534.902,299.999l50,0" style="fill:none;"/><path d="M585.444,285.009c8.21,0.445 15.127,8.284 14.397,16.343c-0.649,7.174 -6.982,13.37 -14.397,13.638c-0.18,0.006 -0.361,0.006 -0.542,0.009l-50,0c-8.221,-0.148 -15.416,-7.733 -14.978,-15.812c0.399,-7.359 6.813,-13.903 14.437,-14.178c0.18,-0.006 0.361,-0.006 0.541,-0.01l50,0c0.181,0.004 0.361,0.007 0.542,0.01Z"/><path d="M464.547,464.644l35.355,35.355" style="fill:none;"/><path d="M464.89,449.648c1.406,0.054 1.641,0.114 2.274,0.226c2.706,0.479 5.269,1.719 7.323,3.536c0.305,0.27 0.375,0.344 0.667,0.627l35.355,35.356c6.761,6.97 4.768,20.345 -4.708,24.398c-5.457,2.333 -12.127,1.062 -16.505,-3.185l-35.356,-35.355c-6.597,-6.802 -4.885,-19.615 3.879,-24.013c1.5,-0.753 3.125,-1.251 4.789,-1.468c0.756,-0.099 1.52,-0.128 2.282,-0.122Z"/><path d="M299.902,534.999l0,50" style="fill:none;"/><path d="M300.715,520.021c7.47,0.541 13.906,6.918 14.178,14.437c0.006,0.18 0.006,0.361 0.009,0.541l0,50c-0.138,7.676 -6.643,14.569 -14.187,14.978c-7.893,0.428 -15.507,-6.235 -15.803,-14.436c-0.006,-0.181 -0.006,-0.361 -0.01,-0.542l0,-50c0.142,-7.838 6.706,-14.852 14.73,-14.997c0.361,-0.007 0.722,0.006 1.083,0.019Z"/><path d="M135.258,464.644l-35.356,35.355" style="fill:none;"/><path d="M135.83,449.655c9.314,0.497 16.718,10.737 13.629,19.82c-0.541,1.588 -1.349,3.084 -2.383,4.406c-0.375,0.481 -0.787,0.932 -1.212,1.37l-35.355,35.355c-7.003,6.793 -20.4,4.641 -24.398,-4.708c-2.334,-5.457 -1.062,-12.127 3.185,-16.505l35.355,-35.356c1.211,-1.174 1.644,-1.462 2.488,-2.006c2.181,-1.404 4.723,-2.227 7.318,-2.366c0.891,-0.047 1.092,-0.017 1.373,-0.01Z"/><path d="M64.902,299.999l-50,0" style="fill:none;"/><path d="M65.444,285.009c8.834,0.479 16.187,9.529 14.047,18.479c-1.549,6.48 -7.646,11.386 -14.589,11.511l-50,0c-9.736,-0.176 -17.742,-10.995 -13.934,-20.552c2.205,-5.534 7.917,-9.339 13.934,-9.448l50,0c0.181,0.004 0.361,0.007 0.542,0.01Z"/><path d="M135.258,135.355l-35.356,-35.356" style="fill:none;"/><path d="M100.246,85.003c1.405,0.054 1.64,0.114 2.274,0.226c2.705,0.48 5.269,1.719 7.323,3.537c0.304,0.269 0.374,0.344 0.666,0.627l35.355,35.355c6.143,6.333 5.374,17.991 -2.296,23.095c-5.583,3.714 -13.615,3.116 -18.588,-1.563c-0.112,-0.105 -0.219,-0.213 -0.329,-0.319l-35.355,-35.355c-5.031,-5.187 -5.666,-13.965 -1.352,-19.662c2.854,-3.768 7.536,-5.977 12.302,-5.941Z"/></g><text x="140.765px" y="355.822px" style="font-family:'Muli-Regular', 'Muli';font-size:156.804px;">0.00</text></g></svg>