<?xml version="1.0" encoding="UTF-8" standalone="no"?><!DOCTYPE svg PUBLIC "-//W3C//DTD SVG 1.1//EN" "http://www.w3.org/Graphics/SVG/1.1/DTD/svg11.dtd"><svg width="100%" height="100%" viewBox="0 0 600 600" version="1.1" xmlns="http://www.w3.org/2000/svg" xmlns:xlink="http://www.w3.org/1999/xlink" xml:space="preserve" xmlns:serif="http://www.serif.com/" style="fill-rule:evenodd;clip-rule:evenodd;stroke-linecap:round;stroke-linejoin:round;stroke-miterlimit:1.5;"><g><path d="M130,545.5c0,0 110,-335.746 110,-381c0,-60.711 -49.289,-110 -110,-110c-60.711,0 -110,49.289 -110,110c0,45.254 110,381 110,381Z" style="fill:#fff;"/><path d="M130.356,54.501l0.355,0.001l0.355,0.003l0.355,0.004l0.354,0.005l0.355,0.006l0.354,0.008l0.353,0.008l0.354,0.009l0.353,0.011l0.353,0.012l0.352,0.013l0.353,0.014l0.352,0.015l0.352,0.016l0.351,0.017l0.351,0.019l0.351,0.019l0.351,0.021l0.35,0.021l0.35,0.023l0.35,0.024l0.349,0.025l0.349,0.026l0.349,0.027l0.349,0.028l0.348,0.03l0.348,0.03l0.347,0.032l0.348,0.032l0.347,0.034l0.346,0.034l0.346,0.036l0.347,0.037l0.345,0.038l0.346,0.039l0.345,0.04l0.344,0.041l0.345,0.042l0.344,0.043l0.344,0.045l0.343,0.045l0.343,0.047l0.343,0.047l0.342,0.049l0.342,0.049l0.342,0.051l0.342,0.051l0.341,0.053l0.34,0.054l0.341,0.055l0.34,0.056l0.339,0.056l0.34,0.058l0.339,0.059l0.338,0.06l0.338,0.061l0.338,0.062l0.338,0.064l0.337,0.064l0.337,0.065l0.336,0.066l0.336,0.067l0.336,0.068l0.336,0.07l0.334,0.07l0.335,0.071l0.334,0.073l0.334,0.073l0.334,0.074l0.333,0.076l0.332,0.076l0.333,0.077l0.332,0.079l0.331,0.079l0.331,0.08l0.331,0.082l0.331,0.082l0.33,0.083l0.329,0.085l0.329,0.085l0.329,0.086l0.329,0.088l0.328,0.088l0.327,0.089l0.327,0.09l0.327,0.092l0.326,0.092l0.326,0.093l0.326,0.094l0.325,0.095l0.325,0.097l0.324,0.097l0.324,0.098l0.323,0.099l0.324,0.1l0.322,0.101l0.322,0.102l0.322,0.103l0.321,0.104l0.321,0.104l0.321,0.106l0.32,0.107l0.319,0.108l0.32,0.108l0.318,0.11l0.319,0.11l0.317,0.112l0.318,0.112l0.317,0.114l0.316,0.114l0.316,0.115l0.316,0.117l0.315,0.117l0.315,0.118l0.314,0.119l0.314,0.12l0.313,0.121l0.313,0.121l0.312,0.123l0.312,0.124l0.312,0.124l0.311,0.126l0.31,0.126l0.31,0.128l0.31,0.128l0.309,0.129l0.309,0.13l0.308,0.131l0.308,0.132l0.307,0.133l0.307,0.133l0.306,0.135l0.306,0.136l0.305,0.136l0.305,0.137l0.304,0.139l0.304,0.139l0.303,0.14l0.303,0.141l0.302,0.141l0.302,0.143l0.301,0.144l0.301,0.144l0.3,0.145l0.3,0.147l0.299,0.147l0.299,0.148l0.298,0.149l0.298,0.149l0.297,0.151l0.297,0.151l0.296,0.153l0.296,0.153l0.295,0.154l0.294,0.155l0.294,0.156l0.294,0.157l0.293,0.157l0.293,0.159l0.291,0.159l0.292,0.16l0.291,0.161l0.29,0.162l0.29,0.162l0.289,0.164l0.289,0.164l0.288,0.166l0.288,0.166l0.287,0.167l0.286,0.167l0.286,0.169l0.286,0.169l0.285,0.171l0.284,0.171l0.284,0.172l0.283,0.172l0.283,0.174l0.282,0.174l0.281,0.175l0.281,0.177l0.281,0.176l0.28,0.178l0.279,0.179l0.279,0.179l0.278,0.18l0.277,0.181l0.277,0.182l0.277,0.182l0.275,0.184l0.276,0.184l0.274,0.185l0.274,0.186l0.274,0.186l0.273,0.188l0.272,0.188l0.271,0.189l0.272,0.19l0.27,0.19l0.27,0.192l0.269,0.192l0.269,0.193l0.268,0.194l0.267,0.194l0.267,0.195l0.267,0.197l0.265,0.196l0.265,0.198l0.265,0.198l0.264,0.2l0.263,0.2l0.262,0.2l0.262,0.202l0.262,0.202l0.26,0.203l0.26,0.204l0.26,0.205l0.259,0.205l0.258,0.206l0.257,0.207l0.257,0.207l0.257,0.209l0.255,0.209l0.255,0.21l0.255,0.21l0.253,0.212l0.254,0.212l0.252,0.213l0.252,0.213l0.251,0.215l0.25,0.215l0.25,0.215l0.249,0.217l0.249,0.217l0.248,0.218l0.247,0.219l0.247,0.22l0.246,0.22l0.245,0.221l0.244,0.221l0.244,0.223l0.244,0.223l0.242,0.223l0.242,0.225l0.241,0.225l0.241,0.226l0.24,0.227l0.239,0.227l0.238,0.228l0.238,0.229l0.237,0.23l0.237,0.23l0.235,0.231l0.235,0.231l0.235,0.233l0.233,0.233l0.233,0.233l0.233,0.235l0.231,0.235l0.231,0.235l0.23,0.237l0.23,0.237l0.229,0.238l0.228,0.238l0.227,0.239l0.227,0.24l0.226,0.241l0.225,0.241l0.225,0.242l0.223,0.242l0.223,0.244l0.223,0.244l0.221,0.244l0.221,0.245l0.22,0.246l0.22,0.247l0.219,0.247l0.218,0.248l0.217,0.249l0.217,0.249l0.215,0.25l0.215,0.25l0.215,0.251l0.213,0.252l0.213,0.252l0.212,0.254l0.212,0.253l0.21,0.255l0.21,0.255l0.209,0.255l0.209,0.257l0.207,0.257l0.207,0.257l0.206,0.258l0.205,0.259l0.205,0.26l0.204,0.26l0.203,0.26l0.202,0.262l0.202,0.262l0.2,0.262l0.2,0.263l0.2,0.264l0.198,0.265l0.198,0.265l0.196,0.265l0.197,0.267l0.195,0.267l0.194,0.267l0.194,0.268l0.193,0.269l0.192,0.269l0.192,0.27l0.19,0.27l0.19,0.272l0.189,0.271l0.188,0.272l0.188,0.273l0.186,0.274l0.186,0.274l0.185,0.274l0.184,0.276l0.184,0.275l0.182,0.277l0.182,0.277l0.181,0.277l0.18,0.278l0.179,0.279l0.179,0.279l0.178,0.28l0.176,0.281l0.177,0.281l0.175,0.281l0.174,0.282l0.174,0.283l0.172,0.283l0.172,0.284l0.171,0.284l0.171,0.285l0.169,0.286l0.169,0.286l0.167,0.286l0.167,0.287l0.166,0.288l0.166,0.288l0.164,0.289l0.164,0.289l0.162,0.29l0.162,0.29l0.161,0.291l0.16,0.292l0.159,0.291l0.159,0.293l0.157,0.293l0.157,0.294l0.156,0.294l0.155,0.294l0.154,0.295l0.153,0.296l0.153,0.296l0.151,0.297l0.151,0.297l0.149,0.298l0.149,0.298l0.148,0.299l0.147,0.299l0.147,0.3l0.145,0.3l0.144,0.301l0.144,0.301l0.143,0.302l0.141,0.302l0.141,0.303l0.14,0.303l0.139,0.304l0.139,0.304l0.137,0.305l0.136,0.305l0.136,0.306l0.135,0.306l0.133,0.307l0.133,0.307l0.132,0.308l0.131,0.308l0.13,0.309l0.129,0.309l0.128,0.31l0.128,0.31l0.126,0.31l0.126,0.311l0.124,0.312l0.124,0.312l0.123,0.312l0.121,0.313l0.121,0.313l0.12,0.314l0.119,0.314l0.118,0.315l0.117,0.315l0.117,0.316l0.115,0.316l0.114,0.316l0.114,0.317l0.112,0.318l0.112,0.317l0.11,0.319l0.11,0.318l0.108,0.32l0.108,0.319l0.107,0.32l0.106,0.321l0.104,0.321l0.104,0.321l0.103,0.322l0.102,0.322l0.101,0.322l0.1,0.324l0.099,0.323l0.098,0.324l0.097,0.324l0.097,0.325l0.095,0.325l0.094,0.326l0.093,0.326l0.092,0.326l0.092,0.327l0.09,0.327l0.089,0.327l0.088,0.328l0.088,0.329l0.086,0.329l0.085,0.329l0.085,0.329l0.083,0.33l0.082,0.331l0.082,0.331l0.08,0.331l0.079,0.331l0.079,0.332l0.077,0.333l0.076,0.332l0.076,0.333l0.074,0.334l0.073,0.334l0.073,0.334l0.071,0.335l0.07,0.334l0.07,0.336l0.068,0.336l0.067,0.336l0.066,0.336l0.065,0.337l0.064,0.337l0.064,0.338l0.062,0.338l0.061,0.338l0.06,0.338l0.059,0.339l0.058,0.34l0.056,0.339l0.056,0.34l0.055,0.341l0.054,0.34l0.053,0.341l0.051,0.342l0.051,0.342l0.049,0.342l0.049,0.342l0.047,0.343l0.047,0.343l0.045,0.343l0.045,0.344l0.043,0.344l0.042,0.345l0.041,0.344l0.04,0.345l0.039,0.346l0.038,0.345l0.037,0.347l0.036,0.346l0.034,0.346l0.034,0.347l0.032,0.348l0.032,0.347l0.03,0.348l0.03,0.348l0.028,0.349l0.027,0.349l0.026,0.349l0.025,0.349l0.024,0.35l0.023,0.35l0.021,0.35l0.021,0.351l0.019,0.351l0.019,0.351l0.017,0.351l0.016,0.352l0.015,0.352l0.014,0.353l0.013,0.352l0.012,0.353l0.011,0.353l0.009,0.354l0.008,0.353l0.008,0.354l0.006,0.355l0.005,0.354l0.004,0.355l0.003,0.355l0.001,0.355l0.001,0.356l-0.001,0.268l-0.004,0.276l-0.006,0.281l-0.009,0.289l-0.011,0.294l-0.014,0.302l-0.016,0.307l-0.019,0.315l-0.021,0.32l-0.023,0.327l-0.026,0.334l-0.028,0.34l-0.031,0.346l-0.033,0.352l-0.036,0.359l-0.038,0.364l-0.04,0.372l-0.042,0.377l-0.045,0.383l-0.047,0.39l-0.05,0.395l-0.052,0.402l-0.054,0.408l-0.056,0.413l-0.059,0.42l-0.061,0.425l-0.063,0.432l-0.066,0.437l-0.068,0.444l-0.07,0.449l-0.072,0.455l-0.074,0.46l-0.077,0.467l-0.079,0.472l-0.081,0.478l-0.083,0.484l-0.085,0.489l-0.088,0.494l-0.089,0.501l-0.092,0.506l-0.094,0.511l-0.096,0.517l-0.098,0.523l-0.101,0.528l-0.102,0.533l-0.104,0.539l-0.107,0.544l-0.108,0.549l-0.111,0.555l-0.112,0.56l-0.115,0.565l-0.116,0.57l-0.119,0.576l-0.121,0.581l-0.122,0.586l-0.125,0.591l-0.126,0.596l-0.129,0.601l-0.13,0.606l-0.133,0.612l-0.134,0.616l-0.136,0.621l-0.139,0.626l-0.14,0.631l-0.141,0.636l-0.144,0.64l-0.146,0.646l-0.148,0.65l-0.3,1.314l-0.308,1.334l-0.315,1.352l-0.323,1.37l-0.329,1.388l-0.336,1.406l-0.344,1.424l-0.35,1.441l-0.357,1.458l-0.364,1.476l-0.37,1.492l-0.377,1.508l-0.383,1.525l-0.389,1.541l-0.396,1.557l-0.402,1.572l-0.409,1.588l-0.414,1.603l-0.42,1.618l-0.426,1.633l-0.432,1.647l-0.438,1.661l-0.444,1.676l-0.449,1.689l-0.454,1.703l-0.46,1.716l-0.465,1.73l-0.471,1.742l-0.476,1.755l-0.481,1.768l-0.485,1.78l-0.491,1.791l-0.496,1.804l-0.501,1.815l-0.505,1.827l-0.51,1.838l-0.514,1.849l-0.519,1.859l-0.523,1.87l-0.528,1.88l-0.532,1.89l-0.536,1.9l-0.54,1.91l-0.545,1.918l-0.548,1.928l-0.552,1.937l-0.555,1.946l-0.56,1.954l-0.563,1.962l-0.567,1.971l-0.57,1.978l-0.573,1.985l-0.577,1.993l-0.58,2l-0.583,2.007l-0.586,2.014l-0.59,2.02l-0.592,2.026l-0.595,2.032l-0.597,2.038l-0.601,2.044l-0.603,2.049l-0.605,2.054l-0.608,2.059l-0.61,2.063l-0.613,2.068l-0.615,2.072l-0.617,2.076l-0.619,2.08l-0.621,2.083l-0.622,2.087l-0.625,2.09l-0.626,2.092l-0.628,2.096l-0.63,2.097l-0.631,2.1l-0.632,2.102l-0.634,2.103l-0.635,2.106l-0.637,2.106l-1.275,4.215l-1.28,4.219l-1.282,4.218l-1.286,4.218l-1.287,4.215l-1.288,4.21l-1.289,4.203l-1.289,4.195l-1.288,4.186l-1.287,4.173l-1.286,4.16l-1.282,4.144l-1.28,4.127l-1.275,4.108l-1.272,4.087l-1.266,4.064l-1.261,4.04l-1.254,4.014l-1.247,3.986l-1.24,3.956l-1.232,3.924l-1.223,3.891l-1.213,3.856l-1.204,3.819l-1.192,3.781l-1.182,3.739l-1.169,3.698l-1.157,3.653l-1.143,3.607l-1.13,3.56l-1.115,3.51l-1.1,3.459l-1.085,3.406l-1.068,3.351l-1.051,3.294l-1.033,3.236l-1.015,3.175l-0.997,3.114l-0.977,3.05l-0.956,2.984l-0.936,2.916l-0.914,2.848l-0.893,2.776l-1.716,5.333l-1.621,5.027l-1.519,4.708l-1.415,4.373l-1.303,4.025l-1.187,3.662l-1.067,3.285l-0.941,2.893l-0.81,2.488l-0.674,2.067l-0.919,2.817l-0.316,0.965l-0.316,-0.965l-0.919,-2.817l-0.674,-2.067l-0.81,-2.488l-0.941,-2.893l-1.067,-3.285l-1.187,-3.662l-1.303,-4.025l-1.415,-4.373l-1.519,-4.708l-1.621,-5.027l-1.716,-5.333l-0.893,-2.776l-0.914,-2.848l-0.936,-2.916l-0.956,-2.984l-0.977,-3.05l-0.997,-3.114l-1.015,-3.175l-1.033,-3.236l-1.051,-3.294l-1.068,-3.351l-1.085,-3.406l-1.1,-3.459l-1.115,-3.51l-1.13,-3.56l-1.143,-3.607l-1.157,-3.653l-1.169,-3.698l-1.182,-3.739l-1.192,-3.781l-1.204,-3.819l-1.213,-3.856l-1.223,-3.891l-1.232,-3.924l-1.24,-3.956l-1.247,-3.986l-1.254,-4.014l-1.261,-4.04l-1.266,-4.064l-1.272,-4.087l-1.275,-4.108l-1.28,-4.127l-1.282,-4.144l-1.286,-4.16l-1.287,-4.173l-1.288,-4.186l-1.289,-4.195l-1.289,-4.203l-1.288,-4.21l-1.287,-4.215l-1.286,-4.218l-1.282,-4.218l-1.28,-4.219l-1.275,-4.215l-0.637,-2.106l-0.635,-2.106l-0.634,-2.103l-0.632,-2.102l-0.631,-2.1l-0.63,-2.097l-0.628,-2.096l-0.626,-2.092l-0.625,-2.09l-0.622,-2.087l-0.621,-2.083l-0.619,-2.08l-0.617,-2.076l-0.615,-2.072l-0.613,-2.068l-0.61,-2.063l-0.608,-2.059l-0.605,-2.054l-0.603,-2.049l-0.601,-2.044l-0.597,-2.038l-0.595,-2.032l-0.592,-2.026l-0.59,-2.02l-0.586,-2.014l-0.583,-2.007l-0.58,-2l-0.577,-1.993l-0.573,-1.985l-0.57,-1.978l-0.567,-1.971l-0.563,-1.962l-0.56,-1.954l-0.555,-1.946l-0.552,-1.937l-0.548,-1.928l-0.545,-1.918l-0.54,-1.91l-0.536,-1.9l-0.532,-1.89l-0.528,-1.88l-0.523,-1.87l-0.519,-1.859l-0.514,-1.849l-0.51,-1.838l-0.505,-1.827l-0.501,-1.815l-0.496,-1.804l-0.491,-1.791l-0.485,-1.78l-0.481,-1.768l-0.476,-1.755l-0.471,-1.742l-0.465,-1.73l-0.46,-1.716l-0.454,-1.703l-0.449,-1.689l-0.444,-1.676l-0.438,-1.661l-0.432,-1.647l-0.426,-1.633l-0.42,-1.618l-0.414,-1.603l-0.409,-1.588l-0.402,-1.572l-0.396,-1.557l-0.389,-1.541l-0.383,-1.525l-0.377,-1.508l-0.37,-1.492l-0.364,-1.476l-0.357,-1.458l-0.35,-1.441l-0.344,-1.424l-0.336,-1.406l-0.329,-1.388l-0.323,-1.37l-0.315,-1.352l-0.308,-1.334l-0.3,-1.314l-0.148,-0.65l-0.146,-0.646l-0.144,-0.64l-0.141,-0.636l-0.14,-0.631l-0.139,-0.626l-0.136,-0.621l-0.134,-0.616l-0.133,-0.612l-0.13,-0.606l-0.129,-0.601l-0.126,-0.596l-0.125,-0.591l-0.122,-0.586l-0.121,-0.581l-0.119,-0.576l-0.116,-0.57l-0.115,-0.565l-0.112,-0.56l-0.111,-0.555l-0.108,-0.549l-0.107,-0.544l-0.104,-0.539l-0.102,-0.533l-0.101,-0.528l-0.098,-0.523l-0.096,-0.517l-0.094,-0.511l-0.092,-0.506l-0.089,-0.501l-0.088,-0.494l-0.085,-0.489l-0.083,-0.484l-0.081,-0.478l-0.079,-0.472l-0.077,-0.467l-0.074,-0.46l-0.072,-0.455l-0.07,-0.449l-0.068,-0.444l-0.066,-0.437l-0.063,-0.432l-0.061,-0.425l-0.059,-0.42l-0.056,-0.413l-0.054,-0.408l-0.052,-0.402l-0.05,-0.395l-0.047,-0.39l-0.045,-0.383l-0.042,-0.377l-0.04,-0.372l-0.038,-0.364l-0.036,-0.359l-0.033,-0.352l-0.031,-0.346l-0.028,-0.34l-0.026,-0.334l-0.023,-0.327l-0.021,-0.32l-0.019,-0.315l-0.016,-0.307l-0.014,-0.302l-0.011,-0.294l-0.009,-0.289l-0.006,-0.281l-0.004,-0.276l-0.001,-0.268l0.001,-0.356l0.001,-0.355l0.003,-0.355l0.004,-0.355l0.005,-0.354l0.006,-0.355l0.008,-0.354l0.008,-0.353l0.009,-0.354l0.011,-0.353l0.012,-0.353l0.013,-0.352l0.014,-0.353l0.015,-0.352l0.016,-0.352l0.017,-0.351l0.019,-0.351l0.019,-0.351l0.021,-0.351l0.021,-0.35l0.023,-0.35l0.024,-0.35l0.025,-0.349l0.026,-0.349l0.027,-0.349l0.028,-0.349l0.03,-0.348l0.03,-0.348l0.032,-0.347l0.032,-0.348l0.034,-0.347l0.034,-0.346l0.036,-0.346l0.037,-0.347l0.038,-0.345l0.039,-0.346l0.04,-0.345l0.041,-0.344l0.042,-0.345l0.043,-0.344l0.045,-0.344l0.045,-0.343l0.047,-0.343l0.047,-0.343l0.049,-0.342l0.049,-0.342l0.051,-0.342l0.051,-0.342l0.053,-0.341l0.054,-0.34l0.055,-0.341l0.056,-0.34l0.056,-0.339l0.058,-0.34l0.059,-0.339l0.06,-0.338l0.061,-0.338l0.062,-0.338l0.064,-0.338l0.064,-0.337l0.065,-0.337l0.066,-0.336l0.067,-0.336l0.068,-0.336l0.07,-0.336l0.07,-0.334l0.071,-0.335l0.073,-0.334l0.073,-0.334l0.074,-0.334l0.076,-0.333l0.076,-0.332l0.077,-0.333l0.079,-0.332l0.079,-0.331l0.08,-0.331l0.082,-0.331l0.082,-0.331l0.083,-0.33l0.085,-0.329l0.085,-0.329l0.086,-0.329l0.088,-0.329l0.088,-0.328l0.089,-0.327l0.09,-0.327l0.092,-0.327l0.092,-0.326l0.093,-0.326l0.094,-0.326l0.095,-0.325l0.097,-0.325l0.097,-0.324l0.098,-0.324l0.099,-0.323l0.1,-0.324l0.101,-0.322l0.102,-0.322l0.103,-0.322l0.104,-0.321l0.104,-0.321l0.106,-0.321l0.107,-0.32l0.108,-0.319l0.108,-0.32l0.11,-0.318l0.11,-0.319l0.112,-0.317l0.112,-0.318l0.114,-0.317l0.114,-0.316l0.115,-0.316l0.117,-0.316l0.117,-0.315l0.118,-0.315l0.119,-0.314l0.12,-0.314l0.121,-0.313l0.121,-0.313l0.123,-0.312l0.124,-0.312l0.124,-0.312l0.126,-0.311l0.126,-0.31l0.128,-0.31l0.128,-0.31l0.129,-0.309l0.13,-0.309l0.131,-0.308l0.132,-0.308l0.133,-0.307l0.133,-0.307l0.135,-0.306l0.136,-0.306l0.136,-0.305l0.137,-0.305l0.139,-0.304l0.139,-0.304l0.14,-0.303l0.141,-0.303l0.141,-0.302l0.143,-0.302l0.144,-0.301l0.144,-0.301l0.145,-0.3l0.147,-0.3l0.147,-0.299l0.148,-0.299l0.149,-0.298l0.149,-0.298l0.151,-0.297l0.151,-0.297l0.153,-0.296l0.153,-0.296l0.154,-0.295l0.155,-0.294l0.156,-0.294l0.157,-0.294l0.157,-0.293l0.159,-0.293l0.159,-0.291l0.16,-0.292l0.161,-0.291l0.162,-0.29l0.162,-0.29l0.164,-0.289l0.164,-0.289l0.166,-0.288l0.166,-0.288l0.167,-0.287l0.167,-0.286l0.169,-0.286l0.169,-0.286l0.171,-0.285l0.171,-0.284l0.172,-0.284l0.172,-0.283l0.174,-0.283l0.174,-0.282l0.175,-0.281l0.177,-0.281l0.176,-0.281l0.178,-0.28l0.179,-0.279l0.179,-0.279l0.18,-0.278l0.181,-0.277l0.182,-0.277l0.182,-0.277l0.184,-0.275l0.184,-0.276l0.185,-0.274l0.186,-0.274l0.186,-0.274l0.188,-0.273l0.188,-0.272l0.189,-0.271l0.19,-0.272l0.19,-0.27l0.192,-0.27l0.192,-0.269l0.193,-0.269l0.194,-0.268l0.194,-0.267l0.195,-0.267l0.197,-0.267l0.196,-0.265l0.198,-0.265l0.198,-0.265l0.2,-0.264l0.2,-0.263l0.2,-0.262l0.202,-0.262l0.202,-0.262l0.203,-0.26l0.204,-0.26l0.205,-0.26l0.205,-0.259l0.206,-0.258l0.207,-0.257l0.207,-0.257l0.209,-0.257l0.209,-0.255l0.21,-0.255l0.21,-0.255l0.212,-0.253l0.212,-0.254l0.213,-0.252l0.213,-0.252l0.215,-0.251l0.215,-0.25l0.215,-0.25l0.217,-0.249l0.217,-0.249l0.218,-0.248l0.219,-0.247l0.22,-0.247l0.22,-0.246l0.221,-0.245l0.221,-0.244l0.223,-0.244l0.223,-0.244l0.223,-0.242l0.225,-0.242l0.225,-0.241l0.226,-0.241l0.227,-0.24l0.227,-0.239l0.228,-0.238l0.229,-0.238l0.23,-0.237l0.23,-0.237l0.231,-0.235l0.231,-0.235l0.233,-0.235l0.233,-0.233l0.233,-0.233l0.235,-0.233l0.235,-0.231l0.235,-0.231l0.237,-0.23l0.237,-0.23l0.238,-0.229l0.238,-0.228l0.239,-0.227l0.24,-0.227l0.241,-0.226l0.241,-0.225l0.242,-0.225l0.242,-0.223l0.244,-0.223l0.244,-0.223l0.244,-0.221l0.245,-0.221l0.246,-0.22l0.247,-0.22l0.247,-0.219l0.248,-0.218l0.249,-0.217l0.249,-0.217l0.25,-0.215l0.25,-0.215l0.251,-0.215l0.252,-0.213l0.252,-0.213l0.254,-0.212l0.253,-0.212l0.255,-0.21l0.255,-0.21l0.255,-0.209l0.257,-0.209l0.257,-0.207l0.257,-0.207l0.258,-0.206l0.259,-0.205l0.26,-0.205l0.26,-0.204l0.26,-0.203l0.262,-0.202l0.262,-0.202l0.262,-0.2l0.263,-0.2l0.264,-0.2l0.265,-0.198l0.265,-0.198l0.265,-0.196l0.267,-0.197l0.267,-0.195l0.267,-0.194l0.268,-0.194l0.269,-0.193l0.269,-0.192l0.27,-0.192l0.27,-0.19l0.272,-0.19l0.271,-0.189l0.272,-0.188l0.273,-0.188l0.274,-0.186l0.274,-0.186l0.274,-0.185l0.276,-0.184l0.275,-0.184l0.277,-0.182l0.277,-0.182l0.277,-0.181l0.278,-0.18l0.279,-0.179l0.279,-0.179l0.28,-0.178l0.281,-0.176l0.281,-0.177l0.281,-0.175l0.282,-0.174l0.283,-0.174l0.283,-0.172l0.284,-0.172l0.284,-0.171l0.285,-0.171l0.286,-0.169l0.286,-0.169l0.286,-0.167l0.287,-0.167l0.288,-0.166l0.288,-0.166l0.289,-0.164l0.289,-0.164l0.29,-0.162l0.29,-0.162l0.291,-0.161l0.292,-0.16l0.291,-0.159l0.293,-0.159l0.293,-0.157l0.294,-0.157l0.294,-0.156l0.294,-0.155l0.295,-0.154l0.296,-0.153l0.296,-0.153l0.297,-0.151l0.297,-0.151l0.298,-0.149l0.298,-0.149l0.299,-0.148l0.299,-0.147l0.3,-0.147l0.3,-0.145l0.301,-0.144l0.301,-0.144l0.302,-0.143l0.302,-0.141l0.303,-0.141l0.303,-0.14l0.304,-0.139l0.304,-0.139l0.305,-0.137l0.305,-0.136l0.306,-0.136l0.306,-0.135l0.307,-0.133l0.307,-0.133l0.308,-0.132l0.308,-0.131l0.309,-0.13l0.309,-0.129l0.31,-0.128l0.31,-0.128l0.31,-0.126l0.311,-0.126l0.312,-0.124l0.312,-0.124l0.312,-0.123l0.313,-0.121l0.313,-0.121l0.314,-0.12l0.314,-0.119l0.315,-0.118l0.315,-0.117l0.316,-0.117l0.316,-0.115l0.316,-0.114l0.317,-0.114l0.318,-0.112l0.317,-0.112l0.319,-0.11l0.318,-0.11l0.32,-0.108l0.319,-0.108l0.32,-0.107l0.321,-0.106l0.321,-0.104l0.321,-0.104l0.322,-0.103l0.322,-0.102l0.322,-0.101l0.324,-0.1l0.323,-0.099l0.324,-0.098l0.324,-0.097l0.325,-0.097l0.325,-0.095l0.326,-0.094l0.326,-0.093l0.326,-0.092l0.327,-0.092l0.327,-0.09l0.327,-0.089l0.328,-0.088l0.329,-0.088l0.329,-0.086l0.329,-0.085l0.329,-0.085l0.33,-0.083l0.331,-0.082l0.331,-0.082l0.331,-0.08l0.331,-0.079l0.332,-0.079l0.333,-0.077l0.332,-0.076l0.333,-0.076l0.334,-0.074l0.334,-0.073l0.334,-0.073l0.335,-0.071l0.334,-0.07l0.336,-0.07l0.336,-0.068l0.336,-0.067l0.336,-0.066l0.337,-0.065l0.337,-0.064l0.338,-0.064l0.338,-0.062l0.338,-0.061l0.338,-0.06l0.339,-0.059l0.34,-0.058l0.339,-0.056l0.34,-0.056l0.341,-0.055l0.34,-0.054l0.341,-0.053l0.342,-0.051l0.342,-0.051l0.342,-0.049l0.342,-0.049l0.343,-0.047l0.343,-0.047l0.343,-0.045l0.344,-0.045l0.344,-0.043l0.345,-0.042l0.344,-0.041l0.345,-0.04l0.346,-0.039l0.345,-0.038l0.347,-0.037l0.346,-0.036l0.346,-0.034l0.347,-0.034l0.348,-0.032l0.347,-0.032l0.348,-0.03l0.348,-0.03l0.349,-0.028l0.349,-0.027l0.349,-0.026l0.349,-0.025l0.35,-0.024l0.35,-0.023l0.35,-0.021l0.351,-0.021l0.351,-0.019l0.351,-0.019l0.351,-0.017l0.352,-0.016l0.352,-0.015l0.353,-0.014l0.352,-0.013l0.353,-0.012l0.353,-0.011l0.354,-0.009l0.353,-0.008l0.354,-0.008l0.355,-0.006l0.354,-0.005l0.355,-0.004l0.355,-0.003l0.355,-0.001l0.356,-0.001l0.356,0.001Zm-0.616,29.999l-0.261,0.002l-0.26,0.002l-0.259,0.003l-0.26,0.003l-0.259,0.005l-0.259,0.005l-0.258,0.006l-0.259,0.007l-0.258,0.008l-0.258,0.009l-0.257,0.009l-0.258,0.01l-0.257,0.011l-0.257,0.012l-0.256,0.013l-0.256,0.013l-0.256,0.014l-0.256,0.015l-0.256,0.016l-0.255,0.017l-0.255,0.017l-0.255,0.018l-0.254,0.019l-0.254,0.02l-0.254,0.021l-0.254,0.021l-0.253,0.022l-0.253,0.023l-0.253,0.024l-0.253,0.024l-0.252,0.025l-0.252,0.027l-0.252,0.026l-0.252,0.028l-0.251,0.028l-0.251,0.029l-0.251,0.03l-0.25,0.031l-0.25,0.031l-0.25,0.033l-0.25,0.033l-0.249,0.033l-0.249,0.035l-0.249,0.035l-0.249,0.036l-0.248,0.037l-0.248,0.037l-0.248,0.039l-0.247,0.039l-0.247,0.04l-0.247,0.04l-0.247,0.042l-0.246,0.042l-0.246,0.042l-0.246,0.044l-0.246,0.044l-0.245,0.045l-0.245,0.046l-0.245,0.047l-0.244,0.047l-0.244,0.048l-0.244,0.049l-0.244,0.049l-0.243,0.05l-0.243,0.051l-0.243,0.052l-0.242,0.053l-0.242,0.053l-0.242,0.054l-0.242,0.054l-0.241,0.056l-0.241,0.056l-0.241,0.057l-0.24,0.057l-0.24,0.058l-0.24,0.059l-0.24,0.06l-0.239,0.06l-0.239,0.062l-0.239,0.061l-0.238,0.063l-0.238,0.063l-0.238,0.064l-0.237,0.065l-0.238,0.066l-0.237,0.066l-0.236,0.067l-0.236,0.067l-0.237,0.068l-0.235,0.069l-0.236,0.07l-0.235,0.071l-0.235,0.071l-0.234,0.071l-0.234,0.073l-0.234,0.073l-0.234,0.074l-0.233,0.075l-0.233,0.075l-0.233,0.076l-0.232,0.077l-0.232,0.077l-0.232,0.078l-0.231,0.079l-0.231,0.079l-0.231,0.081l-0.231,0.08l-0.23,0.082l-0.23,0.082l-0.229,0.083l-0.229,0.084l-0.229,0.084l-0.229,0.085l-0.228,0.086l-0.228,0.086l-0.228,0.087l-0.227,0.088l-0.227,0.088l-0.226,0.089l-0.226,0.09l-0.227,0.09l-0.225,0.091l-0.225,0.092l-0.225,0.092l-0.225,0.093l-0.224,0.094l-0.224,0.094l-0.224,0.095l-0.223,0.096l-0.223,0.096l-0.223,0.097l-0.222,0.098l-0.222,0.098l-0.221,0.1l-0.221,0.099l-0.221,0.101l-0.221,0.1l-0.22,0.102l-0.22,0.102l-0.219,0.103l-0.22,0.104l-0.218,0.104l-0.219,0.105l-0.218,0.106l-0.217,0.106l-0.218,0.107l-0.217,0.107l-0.217,0.108l-0.216,0.109l-0.216,0.11l-0.215,0.11l-0.215,0.11l-0.215,0.112l-0.215,0.112l-0.214,0.112l-0.213,0.113l-0.214,0.114l-0.212,0.115l-0.213,0.115l-0.212,0.116l-0.212,0.116l-0.212,0.117l-0.211,0.118l-0.21,0.118l-0.211,0.119l-0.21,0.119l-0.209,0.12l-0.209,0.121l-0.209,0.122l-0.209,0.122l-0.207,0.122l-0.208,0.124l-0.208,0.123l-0.206,0.125l-0.207,0.125l-0.206,0.125l-0.205,0.127l-0.206,0.127l-0.204,0.127l-0.205,0.128l-0.204,0.129l-0.204,0.129l-0.203,0.13l-0.203,0.131l-0.202,0.131l-0.202,0.131l-0.202,0.133l-0.201,0.133l-0.2,0.133l-0.201,0.134l-0.2,0.135l-0.199,0.135l-0.2,0.136l-0.198,0.137l-0.198,0.136l-0.198,0.138l-0.198,0.138l-0.197,0.139l-0.197,0.14l-0.195,0.14l-0.196,0.14l-0.195,0.141l-0.195,0.142l-0.195,0.142l-0.194,0.143l-0.193,0.144l-0.193,0.143l-0.193,0.145l-0.192,0.145l-0.192,0.146l-0.191,0.146l-0.191,0.147l-0.191,0.147l-0.19,0.149l-0.189,0.148l-0.189,0.149l-0.189,0.15l-0.188,0.15l-0.188,0.151l-0.187,0.151l-0.187,0.152l-0.186,0.152l-0.186,0.153l-0.185,0.154l-0.185,0.154l-0.185,0.155l-0.184,0.155l-0.183,0.155l-0.184,0.157l-0.182,0.156l-0.182,0.158l-0.182,0.158l-0.181,0.158l-0.181,0.159l-0.18,0.159l-0.18,0.161l-0.18,0.16l-0.178,0.161l-0.179,0.162l-0.178,0.162l-0.177,0.163l-0.177,0.163l-0.176,0.163l-0.176,0.165l-0.176,0.165l-0.174,0.165l-0.175,0.166l-0.174,0.166l-0.173,0.167l-0.173,0.167l-0.173,0.168l-0.172,0.169l-0.171,0.168l-0.171,0.17l-0.17,0.17l-0.17,0.17l-0.17,0.171l-0.169,0.172l-0.168,0.171l-0.168,0.173l-0.167,0.173l-0.167,0.173l-0.166,0.174l-0.166,0.175l-0.165,0.175l-0.165,0.175l-0.164,0.176l-0.164,0.176l-0.163,0.177l-0.163,0.177l-0.162,0.178l-0.162,0.179l-0.161,0.179l-0.161,0.179l-0.159,0.18l-0.16,0.18l-0.159,0.181l-0.158,0.181l-0.158,0.182l-0.158,0.182l-0.156,0.182l-0.157,0.183l-0.155,0.184l-0.156,0.184l-0.154,0.184l-0.154,0.185l-0.154,0.186l-0.153,0.186l-0.152,0.186l-0.152,0.187l-0.151,0.187l-0.151,0.188l-0.15,0.188l-0.15,0.189l-0.149,0.189l-0.149,0.189l-0.148,0.19l-0.147,0.191l-0.147,0.191l-0.146,0.191l-0.146,0.192l-0.145,0.192l-0.145,0.193l-0.143,0.193l-0.144,0.193l-0.143,0.195l-0.142,0.194l-0.142,0.195l-0.141,0.195l-0.14,0.196l-0.14,0.196l-0.14,0.196l-0.139,0.197l-0.138,0.198l-0.137,0.198l-0.137,0.198l-0.137,0.198l-0.136,0.2l-0.135,0.199l-0.135,0.2l-0.134,0.2l-0.133,0.201l-0.133,0.201l-0.133,0.202l-0.131,0.202l-0.131,0.202l-0.131,0.203l-0.13,0.203l-0.129,0.204l-0.129,0.204l-0.128,0.205l-0.127,0.204l-0.127,0.206l-0.127,0.205l-0.125,0.206l-0.125,0.207l-0.125,0.207l-0.124,0.207l-0.123,0.207l-0.122,0.208l-0.122,0.209l-0.122,0.209l-0.121,0.209l-0.12,0.209l-0.119,0.21l-0.119,0.21l-0.118,0.211l-0.118,0.211l-0.117,0.212l-0.116,0.212l-0.116,0.212l-0.115,0.213l-0.115,0.212l-0.114,0.214l-0.113,0.213l-0.112,0.215l-0.112,0.214l-0.112,0.215l-0.11,0.215l-0.11,0.215l-0.11,0.216l-0.109,0.217l-0.108,0.216l-0.107,0.217l-0.107,0.218l-0.106,0.217l-0.106,0.218l-0.105,0.219l-0.104,0.218l-0.104,0.22l-0.103,0.219l-0.102,0.22l-0.102,0.22l-0.101,0.221l-0.1,0.221l-0.099,0.221l-0.099,0.221l-0.099,0.222l-0.098,0.222l-0.097,0.223l-0.096,0.223l-0.096,0.223l-0.095,0.224l-0.094,0.224l-0.094,0.224l-0.093,0.225l-0.092,0.225l-0.092,0.225l-0.091,0.226l-0.09,0.226l-0.09,0.226l-0.089,0.226l-0.089,0.227l-0.087,0.228l-0.087,0.227l-0.086,0.228l-0.086,0.228l-0.085,0.229l-0.084,0.229l-0.084,0.229l-0.083,0.23l-0.082,0.229l-0.082,0.23l-0.08,0.231l-0.081,0.231l-0.079,0.231l-0.079,0.231l-0.078,0.232l-0.077,0.232l-0.077,0.232l-0.076,0.233l-0.075,0.233l-0.075,0.233l-0.074,0.234l-0.073,0.234l-0.073,0.234l-0.071,0.234l-0.071,0.235l-0.071,0.235l-0.07,0.236l-0.069,0.236l-0.068,0.236l-0.067,0.236l-0.067,0.237l-0.066,0.236l-0.066,0.237l-0.065,0.238l-0.064,0.238l-0.063,0.238l-0.063,0.238l-0.061,0.239l-0.062,0.239l-0.06,0.239l-0.06,0.24l-0.059,0.24l-0.058,0.24l-0.057,0.24l-0.057,0.241l-0.056,0.241l-0.056,0.241l-0.054,0.242l-0.054,0.242l-0.053,0.242l-0.053,0.242l-0.052,0.243l-0.051,0.243l-0.05,0.243l-0.049,0.244l-0.049,0.244l-0.048,0.244l-0.047,0.244l-0.047,0.245l-0.046,0.245l-0.045,0.245l-0.044,0.246l-0.044,0.246l-0.042,0.246l-0.043,0.246l-0.041,0.247l-0.04,0.247l-0.04,0.247l-0.039,0.247l-0.039,0.248l-0.037,0.248l-0.037,0.248l-0.036,0.249l-0.035,0.249l-0.035,0.249l-0.033,0.249l-0.033,0.25l-0.033,0.25l-0.031,0.25l-0.031,0.25l-0.03,0.251l-0.029,0.251l-0.028,0.251l-0.028,0.252l-0.026,0.252l-0.027,0.252l-0.025,0.252l-0.024,0.253l-0.024,0.253l-0.023,0.253l-0.022,0.253l-0.021,0.254l-0.021,0.254l-0.02,0.254l-0.019,0.254l-0.018,0.255l-0.017,0.255l-0.017,0.255l-0.016,0.256l-0.015,0.256l-0.014,0.256l-0.013,0.256l-0.013,0.256l-0.012,0.257l-0.011,0.257l-0.01,0.258l-0.009,0.257l-0.009,0.258l-0.008,0.258l-0.007,0.259l-0.006,0.258l-0.005,0.259l-0.005,0.259l-0.003,0.26l-0.003,0.259l-0.002,0.26l-0.002,0.261l0,0.214l0,0.039l0,0.012l0.001,0.032l0.002,0.05l0.002,0.069l0.004,0.086l0.006,0.102l0.007,0.119l0.008,0.133l0.011,0.148l0.013,0.162l0.014,0.176l0.017,0.189l0.019,0.201l0.021,0.214l0.023,0.225l0.026,0.237l0.028,0.249l0.03,0.259l0.033,0.27l0.035,0.28l0.038,0.291l0.04,0.3l0.042,0.31l0.045,0.32l0.047,0.328l0.049,0.338l0.052,0.347l0.055,0.355l0.056,0.364l0.059,0.373l0.062,0.38l0.064,0.389l0.066,0.397l0.069,0.405l0.071,0.413l0.073,0.42l0.076,0.427l0.078,0.436l0.08,0.442l0.082,0.45l0.085,0.457l0.087,0.463l0.09,0.471l0.091,0.478l0.094,0.484l0.096,0.492l0.099,0.497l0.1,0.505l0.103,0.511l0.105,0.517l0.107,0.524l0.109,0.53l0.111,0.536l0.114,0.542l0.115,0.548l0.118,0.555l0.12,0.56l0.122,0.566l0.124,0.572l0.126,0.578l0.128,0.584l0.13,0.589l0.132,0.595l0.134,0.601l0.136,0.606l0.138,0.612l0.138,0.609l0.288,1.258l0.294,1.272l0.301,1.292l0.309,1.313l0.316,1.333l0.324,1.352l0.331,1.373l0.338,1.391l0.345,1.41l0.352,1.429l0.359,1.447l0.366,1.466l0.373,1.482l0.379,1.5l0.386,1.518l0.392,1.534l0.399,1.55l0.405,1.567l0.411,1.583l0.417,1.599l0.424,1.614l0.429,1.629l0.435,1.644l0.441,1.659l0.447,1.673l0.452,1.687l0.457,1.702l0.464,1.715l0.468,1.728l0.474,1.742l0.479,1.754l0.484,1.767l0.489,1.78l0.494,1.791l0.499,1.804l0.504,1.815l0.508,1.827l0.513,1.838l0.517,1.849l0.522,1.859l0.527,1.87l0.53,1.88l0.535,1.891l0.539,1.9l0.543,1.909l0.546,1.919l0.551,1.928l0.555,1.937l0.558,1.945l0.562,1.954l0.565,1.961l0.569,1.97l0.572,1.977l0.576,1.985l0.578,1.992l0.582,1.999l0.585,2.005l0.588,2.012l0.591,2.019l0.594,2.024l0.596,2.03l0.599,2.035l0.602,2.041l0.604,2.046l0.607,2.051l0.609,2.056l0.611,2.06l0.613,2.064l0.616,2.068l0.617,2.072l0.62,2.075l0.621,2.079l0.623,2.082l0.625,2.084l0.626,2.087l0.628,2.09l0.629,2.091l0.631,2.093l0.632,2.096l0.633,2.094l1.27,4.199l1.274,4.199l1.277,4.201l1.28,4.2l1.282,4.197l1.283,4.194l1.284,4.187l1.285,4.18l1.283,4.17l1.283,4.158l1.28,4.146l1.279,4.13l1.275,4.113l1.272,4.094l1.267,4.074l1.262,4.052l1.257,4.028l1.251,4.002l1.243,3.974l1.237,3.944l1.228,3.913l1.219,3.881l1.21,3.845l1.2,3.808l1.19,3.77l1.178,3.73l1.166,3.687l1.154,3.644l0.302,0.954l0.302,-0.954l1.154,-3.644l1.166,-3.687l1.178,-3.73l1.19,-3.77l1.2,-3.808l1.21,-3.845l1.219,-3.881l1.228,-3.913l1.237,-3.944l1.243,-3.974l1.251,-4.002l1.257,-4.028l1.262,-4.052l1.267,-4.074l1.272,-4.094l1.275,-4.113l1.279,-4.131l1.28,-4.145l1.283,-4.158l1.283,-4.17l1.285,-4.18l1.284,-4.187l1.283,-4.193l1.282,-4.198l1.28,-4.2l1.277,-4.201l1.274,-4.199l1.27,-4.199l0.633,-2.094l0.632,-2.096l0.631,-2.093l0.629,-2.091l0.628,-2.09l0.626,-2.087l0.625,-2.084l0.623,-2.082l0.621,-2.079l0.62,-2.075l0.617,-2.072l0.616,-2.068l0.613,-2.064l0.611,-2.06l0.609,-2.056l0.607,-2.05l0.604,-2.047l0.602,-2.041l0.599,-2.035l0.596,-2.03l0.594,-2.025l0.591,-2.018l0.588,-2.012l0.585,-2.005l0.582,-1.999l0.578,-1.992l0.576,-1.985l0.572,-1.977l0.569,-1.97l0.565,-1.961l0.562,-1.954l0.558,-1.945l0.555,-1.937l0.551,-1.928l0.546,-1.919l0.543,-1.909l0.539,-1.9l0.535,-1.891l0.53,-1.88l0.527,-1.87l0.522,-1.859l0.517,-1.849l0.513,-1.838l0.508,-1.827l0.504,-1.815l0.499,-1.804l0.494,-1.791l0.489,-1.78l0.484,-1.767l0.479,-1.754l0.474,-1.742l0.468,-1.728l0.464,-1.715l0.457,-1.702l0.452,-1.687l0.447,-1.673l0.441,-1.659l0.435,-1.644l0.429,-1.629l0.424,-1.614l0.417,-1.599l0.411,-1.583l0.405,-1.567l0.399,-1.55l0.392,-1.534l0.386,-1.518l0.379,-1.5l0.373,-1.483l0.366,-1.465l0.359,-1.447l0.352,-1.429l0.345,-1.41l0.338,-1.391l0.331,-1.373l0.324,-1.352l0.316,-1.333l0.309,-1.313l0.301,-1.292l0.294,-1.272l0.288,-1.258l0.138,-0.609l0.138,-0.612l0.136,-0.606l0.134,-0.601l0.132,-0.595l0.13,-0.589l0.128,-0.584l0.126,-0.578l0.124,-0.572l0.122,-0.566l0.12,-0.56l0.118,-0.555l0.115,-0.548l0.114,-0.542l0.111,-0.536l0.109,-0.53l0.107,-0.524l0.105,-0.517l0.103,-0.511l0.1,-0.504l0.099,-0.498l0.096,-0.492l0.094,-0.484l0.091,-0.478l0.09,-0.471l0.087,-0.464l0.085,-0.456l0.082,-0.45l0.08,-0.442l0.078,-0.435l0.076,-0.429l0.073,-0.419l0.071,-0.413l0.069,-0.405l0.066,-0.397l0.064,-0.389l0.061,-0.38l0.06,-0.372l0.056,-0.365l0.055,-0.355l0.052,-0.347l0.049,-0.338l0.047,-0.328l0.045,-0.32l0.042,-0.31l0.04,-0.3l0.038,-0.29l0.035,-0.281l0.033,-0.27l0.03,-0.259l0.028,-0.249l0.026,-0.237l0.023,-0.225l0.021,-0.214l0.019,-0.202l0.017,-0.187l0.014,-0.176l0.013,-0.163l0.011,-0.148l0.008,-0.133l0.007,-0.118l0.006,-0.103l0.004,-0.086l0.002,-0.068l0.002,-0.051l0.001,-0.033l0,-0.011l0,-0.039l0,-0.214l-0.002,-0.261l-0.002,-0.26l-0.003,-0.259l-0.003,-0.259l-0.005,-0.26l-0.005,-0.259l-0.006,-0.258l-0.007,-0.259l-0.008,-0.258l-0.009,-0.258l-0.009,-0.257l-0.01,-0.257l-0.011,-0.258l-0.012,-0.257l-0.013,-0.256l-0.013,-0.257l-0.014,-0.256l-0.015,-0.255l-0.016,-0.256l-0.017,-0.255l-0.017,-0.255l-0.018,-0.255l-0.019,-0.255l-0.02,-0.253l-0.021,-0.254l-0.021,-0.254l-0.022,-0.253l-0.023,-0.253l-0.024,-0.253l-0.024,-0.253l-0.025,-0.252l-0.027,-0.252l-0.026,-0.252l-0.028,-0.251l-0.028,-0.252l-0.029,-0.251l-0.03,-0.25l-0.031,-0.251l-0.031,-0.25l-0.033,-0.25l-0.033,-0.25l-0.033,-0.249l-0.035,-0.249l-0.035,-0.249l-0.036,-0.249l-0.037,-0.248l-0.037,-0.248l-0.039,-0.248l-0.039,-0.247l-0.04,-0.247l-0.04,-0.247l-0.042,-0.247l-0.042,-0.246l-0.042,-0.246l-0.044,-0.246l-0.044,-0.246l-0.045,-0.245l-0.046,-0.245l-0.047,-0.245l-0.047,-0.244l-0.048,-0.244l-0.049,-0.244l-0.049,-0.244l-0.051,-0.243l-0.05,-0.243l-0.052,-0.242l-0.053,-0.243l-0.053,-0.243l-0.054,-0.241l-0.054,-0.241l-0.056,-0.242l-0.056,-0.241l-0.056,-0.241l-0.058,-0.24l-0.058,-0.24l-0.059,-0.24l-0.06,-0.24l-0.061,-0.239l-0.061,-0.239l-0.062,-0.239l-0.062,-0.238l-0.063,-0.238l-0.064,-0.238l-0.065,-0.238l-0.066,-0.237l-0.066,-0.236l-0.066,-0.237l-0.068,-0.237l-0.069,-0.236l-0.068,-0.235l-0.07,-0.236l-0.071,-0.235l-0.071,-0.235l-0.071,-0.234l-0.073,-0.234l-0.073,-0.234l-0.074,-0.233l-0.075,-0.234l-0.075,-0.233l-0.076,-0.233l-0.077,-0.232l-0.077,-0.232l-0.078,-0.231l-0.079,-0.232l-0.08,-0.232l-0.079,-0.23l-0.081,-0.23l-0.082,-0.231l-0.082,-0.23l-0.083,-0.229l-0.084,-0.23l-0.084,-0.228l-0.085,-0.229l-0.085,-0.228l-0.087,-0.228l-0.087,-0.227l-0.087,-0.227l-0.089,-0.228l-0.089,-0.227l-0.09,-0.226l-0.09,-0.225l-0.091,-0.226l-0.092,-0.225l-0.092,-0.225l-0.093,-0.225l-0.094,-0.224l-0.094,-0.224l-0.095,-0.224l-0.096,-0.223l-0.096,-0.223l-0.097,-0.222l-0.098,-0.223l-0.099,-0.222l-0.099,-0.221l-0.099,-0.221l-0.1,-0.221l-0.101,-0.221l-0.102,-0.22l-0.102,-0.22l-0.103,-0.219l-0.104,-0.22l-0.104,-0.219l-0.105,-0.217l-0.106,-0.218l-0.106,-0.219l-0.107,-0.217l-0.107,-0.216l-0.108,-0.218l-0.109,-0.216l-0.109,-0.215l-0.111,-0.217l-0.11,-0.215l-0.111,-0.214l-0.113,-0.215l-0.112,-0.213l-0.113,-0.214l-0.114,-0.214l-0.115,-0.213l-0.115,-0.212l-0.116,-0.212l-0.116,-0.212l-0.117,-0.212l-0.118,-0.211l-0.118,-0.21l-0.119,-0.211l-0.119,-0.21l-0.12,-0.209l-0.121,-0.209l-0.122,-0.209l-0.122,-0.209l-0.122,-0.208l-0.123,-0.207l-0.124,-0.208l-0.125,-0.206l-0.125,-0.206l-0.125,-0.207l-0.127,-0.206l-0.127,-0.204l-0.127,-0.205l-0.128,-0.205l-0.129,-0.204l-0.129,-0.203l-0.13,-0.204l-0.131,-0.202l-0.131,-0.203l-0.132,-0.202l-0.132,-0.202l-0.133,-0.201l-0.133,-0.2l-0.134,-0.201l-0.135,-0.2l-0.135,-0.199l-0.136,-0.2l-0.137,-0.198l-0.137,-0.198l-0.137,-0.198l-0.139,-0.198l-0.138,-0.197l-0.14,-0.196l-0.139,-0.196l-0.141,-0.196l-0.141,-0.196l-0.142,-0.194l-0.142,-0.194l-0.143,-0.195l-0.144,-0.193l-0.144,-0.194l-0.144,-0.192l-0.145,-0.192l-0.146,-0.192l-0.146,-0.191l-0.147,-0.191l-0.147,-0.191l-0.148,-0.189l-0.149,-0.19l-0.149,-0.189l-0.15,-0.189l-0.15,-0.188l-0.15,-0.187l-0.152,-0.188l-0.152,-0.187l-0.152,-0.186l-0.154,-0.186l-0.153,-0.185l-0.154,-0.185l-0.155,-0.185l-0.154,-0.184l-0.156,-0.184l-0.157,-0.183l-0.157,-0.183l-0.157,-0.181l-0.157,-0.182l-0.159,-0.182l-0.159,-0.18l-0.159,-0.18l-0.161,-0.18l-0.16,-0.18l-0.161,-0.178l-0.162,-0.179l-0.162,-0.178l-0.163,-0.177l-0.163,-0.177l-0.164,-0.176l-0.164,-0.176l-0.164,-0.175l-0.166,-0.175l-0.166,-0.175l-0.166,-0.174l-0.167,-0.173l-0.168,-0.173l-0.167,-0.173l-0.168,-0.171l-0.169,-0.172l-0.17,-0.171l-0.17,-0.17l-0.17,-0.17l-0.171,-0.17l-0.171,-0.168l-0.172,-0.169l-0.173,-0.168l-0.173,-0.167l-0.173,-0.167l-0.174,-0.166l-0.175,-0.166l-0.174,-0.165l-0.176,-0.165l-0.176,-0.165l-0.176,-0.163l-0.177,-0.163l-0.177,-0.163l-0.178,-0.162l-0.179,-0.162l-0.178,-0.161l-0.18,-0.161l-0.18,-0.16l-0.18,-0.159l-0.181,-0.159l-0.181,-0.158l-0.181,-0.158l-0.183,-0.158l-0.182,-0.157l-0.183,-0.156l-0.184,-0.155l-0.184,-0.155l-0.184,-0.155l-0.186,-0.154l-0.185,-0.154l-0.186,-0.153l-0.186,-0.152l-0.187,-0.152l-0.187,-0.151l-0.188,-0.151l-0.188,-0.15l-0.189,-0.15l-0.189,-0.149l-0.189,-0.148l-0.19,-0.148l-0.191,-0.148l-0.191,-0.147l-0.191,-0.146l-0.192,-0.146l-0.192,-0.145l-0.193,-0.145l-0.193,-0.143l-0.193,-0.144l-0.194,-0.143l-0.195,-0.142l-0.194,-0.142l-0.196,-0.141l-0.196,-0.14l-0.196,-0.14l-0.196,-0.14l-0.197,-0.138l-0.198,-0.139l-0.198,-0.138l-0.198,-0.136l-0.199,-0.137l-0.199,-0.136l-0.199,-0.135l-0.2,-0.135l-0.2,-0.134l-0.201,-0.133l-0.201,-0.133l-0.202,-0.133l-0.202,-0.131l-0.202,-0.131l-0.203,-0.131l-0.203,-0.13l-0.204,-0.129l-0.204,-0.129l-0.205,-0.128l-0.205,-0.128l-0.205,-0.126l-0.205,-0.126l-0.206,-0.126l-0.207,-0.125l-0.206,-0.125l-0.208,-0.124l-0.207,-0.123l-0.208,-0.122l-0.209,-0.122l-0.208,-0.122l-0.209,-0.12l-0.211,-0.121l-0.209,-0.119l-0.211,-0.119l-0.21,-0.118l-0.211,-0.118l-0.212,-0.117l-0.211,-0.116l-0.213,-0.116l-0.213,-0.115l-0.212,-0.115l-0.214,-0.114l-0.213,-0.113l-0.214,-0.112l-0.215,-0.112l-0.215,-0.112l-0.215,-0.11l-0.215,-0.11l-0.216,-0.11l-0.217,-0.109l-0.216,-0.108l-0.217,-0.107l-0.218,-0.107l-0.217,-0.106l-0.218,-0.106l-0.219,-0.105l-0.218,-0.104l-0.22,-0.104l-0.219,-0.103l-0.22,-0.102l-0.22,-0.101l-0.22,-0.101l-0.221,-0.101l-0.222,-0.1l-0.222,-0.099l-0.221,-0.098l-0.222,-0.098l-0.223,-0.097l-0.223,-0.096l-0.223,-0.096l-0.224,-0.095l-0.224,-0.094l-0.224,-0.094l-0.225,-0.093l-0.225,-0.092l-0.225,-0.092l-0.226,-0.091l-0.226,-0.09l-0.226,-0.09l-0.226,-0.089l-0.227,-0.088l-0.228,-0.088l-0.227,-0.087l-0.228,-0.086l-0.228,-0.086l-0.229,-0.085l-0.229,-0.084l-0.229,-0.084l-0.229,-0.083l-0.23,-0.082l-0.231,-0.082l-0.23,-0.08l-0.231,-0.081l-0.231,-0.079l-0.231,-0.079l-0.232,-0.078l-0.232,-0.077l-0.232,-0.077l-0.233,-0.076l-0.233,-0.075l-0.233,-0.075l-0.234,-0.074l-0.234,-0.073l-0.234,-0.073l-0.234,-0.071l-0.235,-0.071l-0.235,-0.071l-0.236,-0.07l-0.235,-0.069l-0.237,-0.068l-0.236,-0.067l-0.236,-0.067l-0.237,-0.066l-0.238,-0.066l-0.237,-0.065l-0.238,-0.064l-0.238,-0.063l-0.239,-0.063l-0.238,-0.061l-0.239,-0.061l-0.239,-0.061l-0.24,-0.06l-0.24,-0.059l-0.24,-0.058l-0.24,-0.057l-0.241,-0.057l-0.241,-0.056l-0.241,-0.056l-0.242,-0.054l-0.242,-0.054l-0.242,-0.053l-0.242,-0.053l-0.243,-0.052l-0.243,-0.051l-0.243,-0.05l-0.244,-0.049l-0.244,-0.049l-0.244,-0.048l-0.244,-0.047l-0.245,-0.047l-0.245,-0.046l-0.245,-0.045l-0.246,-0.044l-0.246,-0.044l-0.246,-0.042l-0.246,-0.042l-0.247,-0.042l-0.247,-0.04l-0.247,-0.04l-0.247,-0.039l-0.248,-0.039l-0.248,-0.037l-0.248,-0.037l-0.249,-0.036l-0.249,-0.035l-0.249,-0.035l-0.249,-0.033l-0.25,-0.033l-0.25,-0.033l-0.25,-0.031l-0.25,-0.031l-0.251,-0.03l-0.251,-0.029l-0.251,-0.028l-0.252,-0.028l-0.252,-0.026l-0.252,-0.026l-0.252,-0.026l-0.253,-0.024l-0.253,-0.024l-0.253,-0.023l-0.253,-0.022l-0.254,-0.021l-0.254,-0.021l-0.254,-0.02l-0.254,-0.019l-0.255,-0.018l-0.255,-0.017l-0.255,-0.017l-0.256,-0.016l-0.256,-0.015l-0.256,-0.014l-0.256,-0.013l-0.256,-0.013l-0.257,-0.012l-0.257,-0.011l-0.258,-0.01l-0.257,-0.009l-0.258,-0.009l-0.258,-0.008l-0.259,-0.007l-0.258,-0.006l-0.259,-0.005l-0.259,-0.005l-0.26,-0.003l-0.259,-0.003l-0.26,-0.002l-0.261,-0.002l-0.26,0l-0.26,0Z"/><circle cx="130" cy="180.946" r="30" style="fill:#fff;stroke:#000;stroke-width:30px;"/></g><g><path d="M470,545.5c0,0 110,-335.746 110,-381c0,-60.711 -49.289,-110 -110,-110c-60.711,0 -110,49.289 -110,110c0,45.254 110,381 110,381Z" style="fill:#fff;"/><path d="M470.356,54.501l0.355,0.001l0.355,0.003l0.355,0.004l0.354,0.005l0.355,0.006l0.354,0.008l0.353,0.008l0.354,0.009l0.353,0.011l0.353,0.012l0.352,0.013l0.353,0.014l0.352,0.015l0.352,0.016l0.351,0.017l0.351,0.019l0.351,0.019l0.351,0.021l0.35,0.021l0.35,0.023l0.35,0.024l0.349,0.025l0.349,0.026l0.349,0.027l0.349,0.028l0.348,0.03l0.348,0.03l0.347,0.032l0.348,0.032l0.347,0.034l0.346,0.034l0.346,0.036l0.347,0.037l0.345,0.038l0.346,0.039l0.345,0.04l0.344,0.041l0.345,0.042l0.344,0.043l0.344,0.045l0.343,0.045l0.343,0.047l0.343,0.047l0.342,0.049l0.342,0.049l0.342,0.051l0.342,0.051l0.341,0.053l0.34,0.054l0.341,0.055l0.34,0.056l0.339,0.056l0.34,0.058l0.339,0.059l0.338,0.06l0.338,0.061l0.338,0.062l0.338,0.064l0.337,0.064l0.337,0.065l0.336,0.066l0.336,0.067l0.336,0.068l0.336,0.07l0.334,0.07l0.335,0.071l0.334,0.073l0.334,0.073l0.334,0.074l0.333,0.076l0.332,0.076l0.333,0.077l0.332,0.079l0.331,0.079l0.331,0.08l0.331,0.082l0.331,0.082l0.33,0.083l0.329,0.085l0.329,0.085l0.329,0.086l0.329,0.088l0.328,0.088l0.327,0.089l0.327,0.09l0.327,0.092l0.326,0.092l0.326,0.093l0.326,0.094l0.325,0.095l0.325,0.097l0.324,0.097l0.324,0.098l0.323,0.099l0.324,0.1l0.322,0.101l0.322,0.102l0.322,0.103l0.321,0.104l0.321,0.104l0.321,0.106l0.32,0.107l0.319,0.108l0.32,0.108l0.318,0.11l0.319,0.11l0.317,0.112l0.318,0.112l0.317,0.114l0.316,0.114l0.316,0.115l0.316,0.117l0.315,0.117l0.315,0.118l0.314,0.119l0.314,0.12l0.313,0.121l0.313,0.121l0.312,0.123l0.312,0.124l0.312,0.124l0.311,0.126l0.31,0.126l0.31,0.128l0.31,0.128l0.309,0.129l0.309,0.13l0.308,0.131l0.308,0.132l0.307,0.133l0.307,0.133l0.306,0.135l0.306,0.136l0.305,0.136l0.305,0.137l0.304,0.139l0.304,0.139l0.303,0.14l0.303,0.141l0.302,0.141l0.302,0.143l0.301,0.144l0.301,0.144l0.3,0.145l0.3,0.147l0.299,0.147l0.299,0.148l0.298,0.149l0.298,0.149l0.297,0.151l0.297,0.151l0.296,0.153l0.296,0.153l0.295,0.154l0.294,0.155l0.294,0.156l0.294,0.157l0.293,0.157l0.293,0.159l0.291,0.159l0.292,0.16l0.291,0.161l0.29,0.162l0.29,0.162l0.289,0.164l0.289,0.164l0.288,0.166l0.288,0.166l0.287,0.167l0.286,0.167l0.286,0.169l0.286,0.169l0.285,0.171l0.284,0.171l0.284,0.172l0.283,0.172l0.283,0.174l0.282,0.174l0.281,0.175l0.281,0.177l0.281,0.176l0.28,0.178l0.279,0.179l0.279,0.179l0.278,0.18l0.277,0.181l0.277,0.182l0.277,0.182l0.275,0.184l0.276,0.184l0.274,0.185l0.274,0.186l0.274,0.186l0.273,0.188l0.272,0.188l0.271,0.189l0.272,0.19l0.27,0.19l0.27,0.192l0.269,0.192l0.269,0.193l0.268,0.194l0.267,0.194l0.267,0.195l0.267,0.197l0.265,0.196l0.265,0.198l0.265,0.198l0.264,0.2l0.263,0.2l0.262,0.2l0.262,0.202l0.262,0.202l0.26,0.203l0.26,0.204l0.26,0.205l0.259,0.205l0.258,0.206l0.257,0.207l0.257,0.207l0.257,0.209l0.255,0.209l0.255,0.21l0.255,0.21l0.253,0.212l0.254,0.212l0.252,0.213l0.252,0.213l0.251,0.215l0.25,0.215l0.25,0.215l0.249,0.217l0.249,0.217l0.248,0.218l0.247,0.219l0.247,0.22l0.246,0.22l0.245,0.221l0.244,0.221l0.244,0.223l0.244,0.223l0.242,0.223l0.242,0.225l0.241,0.225l0.241,0.226l0.24,0.227l0.239,0.227l0.238,0.228l0.238,0.229l0.237,0.23l0.237,0.23l0.235,0.231l0.235,0.231l0.235,0.233l0.233,0.233l0.233,0.233l0.233,0.235l0.231,0.235l0.231,0.235l0.23,0.237l0.23,0.237l0.229,0.238l0.228,0.238l0.227,0.239l0.227,0.24l0.226,0.241l0.225,0.241l0.225,0.242l0.223,0.242l0.223,0.244l0.223,0.244l0.221,0.244l0.221,0.245l0.22,0.246l0.22,0.247l0.219,0.247l0.218,0.248l0.217,0.249l0.217,0.249l0.215,0.25l0.215,0.25l0.215,0.251l0.213,0.252l0.213,0.252l0.212,0.254l0.212,0.253l0.21,0.255l0.21,0.255l0.209,0.255l0.209,0.257l0.207,0.257l0.207,0.257l0.206,0.258l0.205,0.259l0.205,0.26l0.204,0.26l0.203,0.26l0.202,0.262l0.202,0.262l0.2,0.262l0.2,0.263l0.2,0.264l0.198,0.265l0.198,0.265l0.196,0.265l0.197,0.267l0.195,0.267l0.194,0.267l0.194,0.268l0.193,0.269l0.192,0.269l0.192,0.27l0.19,0.27l0.19,0.272l0.189,0.271l0.188,0.272l0.188,0.273l0.186,0.274l0.186,0.274l0.185,0.274l0.184,0.276l0.184,0.275l0.182,0.277l0.182,0.277l0.181,0.277l0.18,0.278l0.179,0.279l0.179,0.279l0.178,0.28l0.176,0.281l0.177,0.281l0.175,0.281l0.174,0.282l0.174,0.283l0.172,0.283l0.172,0.284l0.171,0.284l0.171,0.285l0.169,0.286l0.169,0.286l0.167,0.286l0.167,0.287l0.166,0.288l0.166,0.288l0.164,0.289l0.164,0.289l0.162,0.29l0.162,0.29l0.161,0.291l0.16,0.292l0.159,0.291l0.159,0.293l0.157,0.293l0.157,0.294l0.156,0.294l0.155,0.294l0.154,0.295l0.153,0.296l0.153,0.296l0.151,0.297l0.151,0.297l0.149,0.298l0.149,0.298l0.148,0.299l0.147,0.299l0.147,0.3l0.145,0.3l0.144,0.301l0.144,0.301l0.143,0.302l0.141,0.302l0.141,0.303l0.14,0.303l0.139,0.304l0.139,0.304l0.137,0.305l0.136,0.305l0.136,0.306l0.135,0.306l0.133,0.307l0.133,0.307l0.132,0.308l0.131,0.308l0.13,0.309l0.129,0.309l0.128,0.31l0.128,0.31l0.126,0.31l0.126,0.311l0.124,0.312l0.124,0.312l0.123,0.312l0.121,0.313l0.121,0.313l0.12,0.314l0.119,0.314l0.118,0.315l0.117,0.315l0.117,0.316l0.115,0.316l0.114,0.316l0.114,0.317l0.112,0.318l0.112,0.317l0.11,0.319l0.11,0.318l0.108,0.32l0.108,0.319l0.107,0.32l0.106,0.321l0.104,0.321l0.104,0.321l0.103,0.322l0.102,0.322l0.101,0.322l0.1,0.324l0.099,0.323l0.098,0.324l0.097,0.324l0.097,0.325l0.095,0.325l0.094,0.326l0.093,0.326l0.092,0.326l0.092,0.327l0.09,0.327l0.089,0.327l0.088,0.328l0.088,0.329l0.086,0.329l0.085,0.329l0.085,0.329l0.083,0.33l0.082,0.331l0.082,0.331l0.08,0.331l0.079,0.331l0.079,0.332l0.077,0.333l0.076,0.332l0.076,0.333l0.074,0.334l0.073,0.334l0.073,0.334l0.071,0.335l0.07,0.334l0.07,0.336l0.068,0.336l0.067,0.336l0.066,0.336l0.065,0.337l0.064,0.337l0.064,0.338l0.062,0.338l0.061,0.338l0.06,0.338l0.059,0.339l0.058,0.34l0.056,0.339l0.056,0.34l0.055,0.341l0.054,0.34l0.053,0.341l0.051,0.342l0.051,0.342l0.049,0.342l0.049,0.342l0.047,0.343l0.047,0.343l0.045,0.343l0.045,0.344l0.043,0.344l0.042,0.345l0.041,0.344l0.04,0.345l0.039,0.346l0.038,0.345l0.037,0.347l0.036,0.346l0.034,0.346l0.034,0.347l0.032,0.348l0.032,0.347l0.03,0.348l0.03,0.348l0.028,0.349l0.027,0.349l0.026,0.349l0.025,0.349l0.024,0.35l0.023,0.35l0.021,0.35l0.021,0.351l0.019,0.351l0.019,0.351l0.017,0.351l0.016,0.352l0.015,0.352l0.014,0.353l0.013,0.352l0.012,0.353l0.011,0.353l0.009,0.354l0.008,0.353l0.008,0.354l0.006,0.355l0.005,0.354l0.004,0.355l0.003,0.355l0.001,0.355l0.001,0.356l-0.001,0.268l-0.004,0.276l-0.006,0.281l-0.009,0.289l-0.011,0.294l-0.014,0.302l-0.016,0.307l-0.019,0.315l-0.021,0.32l-0.023,0.327l-0.026,0.334l-0.028,0.34l-0.031,0.346l-0.033,0.352l-0.036,0.359l-0.038,0.364l-0.04,0.372l-0.042,0.377l-0.045,0.383l-0.047,0.39l-0.05,0.395l-0.052,0.402l-0.054,0.408l-0.056,0.413l-0.059,0.42l-0.061,0.425l-0.063,0.432l-0.066,0.437l-0.068,0.444l-0.07,0.449l-0.072,0.455l-0.074,0.46l-0.077,0.467l-0.079,0.472l-0.081,0.478l-0.083,0.484l-0.085,0.489l-0.088,0.494l-0.089,0.501l-0.092,0.506l-0.094,0.511l-0.096,0.517l-0.098,0.523l-0.101,0.528l-0.102,0.533l-0.104,0.539l-0.107,0.544l-0.108,0.549l-0.111,0.555l-0.112,0.56l-0.115,0.565l-0.116,0.57l-0.119,0.576l-0.121,0.581l-0.122,0.586l-0.125,0.591l-0.126,0.596l-0.129,0.601l-0.13,0.606l-0.133,0.612l-0.134,0.616l-0.136,0.621l-0.139,0.626l-0.14,0.631l-0.141,0.636l-0.144,0.64l-0.146,0.646l-0.148,0.65l-0.3,1.314l-0.308,1.334l-0.315,1.352l-0.323,1.37l-0.329,1.388l-0.336,1.406l-0.344,1.424l-0.35,1.441l-0.357,1.458l-0.364,1.476l-0.37,1.492l-0.377,1.508l-0.383,1.525l-0.389,1.541l-0.396,1.557l-0.402,1.572l-0.409,1.588l-0.414,1.603l-0.42,1.618l-0.426,1.633l-0.432,1.647l-0.438,1.661l-0.444,1.676l-0.449,1.689l-0.454,1.703l-0.46,1.716l-0.465,1.73l-0.471,1.742l-0.476,1.755l-0.481,1.768l-0.485,1.78l-0.491,1.791l-0.496,1.804l-0.501,1.815l-0.505,1.827l-0.51,1.838l-0.514,1.849l-0.519,1.859l-0.523,1.87l-0.528,1.88l-0.532,1.89l-0.536,1.9l-0.54,1.91l-0.545,1.918l-0.548,1.928l-0.552,1.937l-0.555,1.946l-0.56,1.954l-0.563,1.962l-0.567,1.971l-0.57,1.978l-0.573,1.985l-0.577,1.993l-0.58,2l-0.583,2.007l-0.586,2.014l-0.59,2.02l-0.592,2.026l-0.595,2.032l-0.597,2.038l-0.601,2.044l-0.603,2.049l-0.605,2.054l-0.608,2.059l-0.61,2.063l-0.613,2.068l-0.615,2.072l-0.617,2.076l-0.619,2.08l-0.621,2.083l-0.622,2.087l-0.625,2.09l-0.626,2.092l-0.628,2.096l-0.63,2.097l-0.631,2.1l-0.632,2.102l-0.634,2.103l-0.635,2.106l-0.637,2.106l-1.275,4.215l-1.28,4.219l-1.282,4.218l-1.286,4.218l-1.287,4.215l-1.288,4.21l-1.289,4.203l-1.289,4.195l-1.288,4.186l-1.287,4.173l-1.286,4.16l-1.282,4.144l-1.28,4.127l-1.275,4.108l-1.272,4.087l-1.266,4.064l-1.261,4.04l-1.254,4.014l-1.247,3.986l-1.24,3.956l-1.232,3.924l-1.223,3.891l-1.213,3.856l-1.204,3.819l-1.192,3.781l-1.182,3.739l-1.169,3.698l-1.157,3.653l-1.143,3.607l-1.13,3.56l-1.115,3.51l-1.1,3.459l-1.085,3.406l-1.068,3.351l-1.051,3.294l-1.033,3.236l-1.015,3.175l-0.997,3.114l-0.977,3.05l-0.956,2.984l-0.936,2.916l-0.914,2.848l-0.893,2.776l-1.716,5.333l-1.621,5.027l-1.519,4.708l-1.415,4.373l-1.303,4.025l-1.187,3.662l-1.067,3.285l-0.941,2.893l-0.81,2.488l-0.674,2.067l-0.919,2.817l-0.316,0.965l-0.316,-0.965l-0.919,-2.817l-0.674,-2.067l-0.81,-2.488l-0.941,-2.893l-1.067,-3.285l-1.187,-3.662l-1.303,-4.025l-1.415,-4.373l-1.519,-4.708l-1.621,-5.027l-1.716,-5.333l-0.893,-2.776l-0.914,-2.848l-0.936,-2.916l-0.957,-2.984l-0.976,-3.05l-0.997,-3.114l-1.015,-3.175l-1.033,-3.236l-1.051,-3.294l-1.068,-3.351l-1.085,-3.406l-1.1,-3.459l-1.115,-3.51l-1.13,-3.56l-1.143,-3.607l-1.157,-3.653l-1.169,-3.698l-1.182,-3.739l-1.192,-3.781l-1.204,-3.819l-1.213,-3.856l-1.223,-3.891l-1.232,-3.924l-1.24,-3.956l-1.247,-3.986l-1.254,-4.014l-1.261,-4.04l-1.266,-4.064l-1.272,-4.087l-1.275,-4.108l-1.28,-4.127l-1.282,-4.144l-1.286,-4.16l-1.287,-4.173l-1.288,-4.186l-1.289,-4.195l-1.289,-4.203l-1.288,-4.21l-1.287,-4.215l-1.286,-4.218l-1.282,-4.218l-1.28,-4.219l-1.275,-4.215l-0.637,-2.106l-0.635,-2.106l-0.634,-2.103l-0.632,-2.102l-0.631,-2.1l-0.63,-2.097l-0.628,-2.096l-0.626,-2.092l-0.625,-2.09l-0.622,-2.087l-0.621,-2.083l-0.619,-2.08l-0.617,-2.076l-0.615,-2.072l-0.613,-2.068l-0.61,-2.063l-0.608,-2.059l-0.605,-2.054l-0.603,-2.049l-0.601,-2.044l-0.597,-2.038l-0.595,-2.032l-0.592,-2.026l-0.59,-2.02l-0.586,-2.014l-0.583,-2.007l-0.58,-2l-0.577,-1.993l-0.573,-1.985l-0.57,-1.978l-0.567,-1.971l-0.563,-1.962l-0.56,-1.954l-0.555,-1.946l-0.552,-1.937l-0.548,-1.928l-0.545,-1.918l-0.54,-1.91l-0.536,-1.9l-0.532,-1.89l-0.528,-1.88l-0.523,-1.87l-0.519,-1.859l-0.514,-1.849l-0.51,-1.838l-0.505,-1.827l-0.501,-1.815l-0.496,-1.804l-0.491,-1.791l-0.486,-1.78l-0.48,-1.768l-0.476,-1.755l-0.471,-1.742l-0.465,-1.73l-0.46,-1.716l-0.454,-1.703l-0.449,-1.689l-0.444,-1.676l-0.438,-1.661l-0.432,-1.647l-0.426,-1.633l-0.42,-1.618l-0.414,-1.603l-0.409,-1.588l-0.402,-1.572l-0.396,-1.557l-0.389,-1.541l-0.383,-1.525l-0.377,-1.508l-0.37,-1.492l-0.364,-1.476l-0.357,-1.458l-0.35,-1.441l-0.344,-1.424l-0.336,-1.406l-0.329,-1.388l-0.323,-1.37l-0.315,-1.352l-0.308,-1.334l-0.3,-1.314l-0.148,-0.65l-0.146,-0.646l-0.144,-0.64l-0.141,-0.636l-0.14,-0.631l-0.139,-0.626l-0.136,-0.621l-0.134,-0.616l-0.133,-0.612l-0.13,-0.606l-0.129,-0.601l-0.126,-0.596l-0.125,-0.591l-0.122,-0.586l-0.121,-0.581l-0.119,-0.576l-0.116,-0.57l-0.115,-0.565l-0.112,-0.56l-0.111,-0.555l-0.108,-0.549l-0.107,-0.544l-0.104,-0.539l-0.102,-0.533l-0.101,-0.528l-0.098,-0.523l-0.096,-0.517l-0.094,-0.511l-0.092,-0.506l-0.089,-0.501l-0.088,-0.494l-0.085,-0.489l-0.083,-0.484l-0.081,-0.478l-0.079,-0.472l-0.077,-0.467l-0.074,-0.46l-0.072,-0.455l-0.07,-0.449l-0.068,-0.444l-0.066,-0.437l-0.063,-0.432l-0.061,-0.425l-0.059,-0.42l-0.056,-0.413l-0.054,-0.408l-0.052,-0.402l-0.05,-0.395l-0.047,-0.39l-0.045,-0.383l-0.042,-0.377l-0.04,-0.372l-0.038,-0.364l-0.036,-0.359l-0.033,-0.352l-0.031,-0.346l-0.028,-0.34l-0.026,-0.334l-0.023,-0.327l-0.021,-0.32l-0.019,-0.315l-0.016,-0.307l-0.014,-0.302l-0.011,-0.294l-0.009,-0.289l-0.006,-0.281l-0.004,-0.276l-0.001,-0.268l0.001,-0.356l0.001,-0.355l0.003,-0.355l0.004,-0.355l0.005,-0.354l0.006,-0.355l0.008,-0.354l0.008,-0.353l0.009,-0.354l0.011,-0.353l0.012,-0.353l0.013,-0.352l0.014,-0.353l0.015,-0.352l0.016,-0.352l0.017,-0.351l0.019,-0.351l0.019,-0.351l0.021,-0.351l0.021,-0.35l0.023,-0.35l0.024,-0.35l0.025,-0.349l0.026,-0.349l0.027,-0.349l0.028,-0.349l0.03,-0.348l0.03,-0.348l0.032,-0.347l0.032,-0.348l0.034,-0.347l0.034,-0.346l0.036,-0.346l0.037,-0.347l0.038,-0.345l0.039,-0.346l0.04,-0.345l0.041,-0.344l0.042,-0.345l0.043,-0.344l0.045,-0.344l0.045,-0.343l0.047,-0.343l0.047,-0.343l0.049,-0.342l0.049,-0.342l0.051,-0.342l0.051,-0.342l0.053,-0.341l0.054,-0.34l0.055,-0.341l0.056,-0.34l0.056,-0.339l0.058,-0.34l0.059,-0.339l0.06,-0.338l0.061,-0.338l0.062,-0.338l0.064,-0.338l0.064,-0.337l0.065,-0.337l0.066,-0.336l0.067,-0.336l0.068,-0.336l0.07,-0.336l0.07,-0.334l0.071,-0.335l0.073,-0.334l0.073,-0.334l0.074,-0.334l0.076,-0.333l0.076,-0.332l0.077,-0.333l0.079,-0.332l0.079,-0.331l0.08,-0.331l0.082,-0.331l0.082,-0.331l0.083,-0.33l0.085,-0.329l0.085,-0.329l0.086,-0.329l0.088,-0.329l0.088,-0.328l0.089,-0.327l0.09,-0.327l0.092,-0.327l0.092,-0.326l0.093,-0.326l0.094,-0.326l0.095,-0.325l0.097,-0.325l0.097,-0.324l0.098,-0.324l0.099,-0.323l0.1,-0.324l0.101,-0.322l0.102,-0.322l0.103,-0.322l0.104,-0.321l0.104,-0.321l0.106,-0.321l0.107,-0.32l0.108,-0.319l0.108,-0.32l0.11,-0.318l0.11,-0.319l0.112,-0.317l0.112,-0.318l0.114,-0.317l0.114,-0.316l0.115,-0.316l0.117,-0.316l0.117,-0.315l0.118,-0.315l0.119,-0.314l0.12,-0.314l0.121,-0.313l0.121,-0.313l0.123,-0.312l0.124,-0.312l0.124,-0.312l0.126,-0.311l0.126,-0.31l0.128,-0.31l0.128,-0.31l0.129,-0.309l0.13,-0.309l0.131,-0.308l0.132,-0.308l0.133,-0.307l0.133,-0.307l0.135,-0.306l0.136,-0.306l0.136,-0.305l0.137,-0.305l0.139,-0.304l0.139,-0.304l0.14,-0.303l0.141,-0.303l0.141,-0.302l0.143,-0.302l0.144,-0.301l0.144,-0.301l0.145,-0.3l0.147,-0.3l0.147,-0.299l0.148,-0.299l0.149,-0.298l0.149,-0.298l0.151,-0.297l0.151,-0.297l0.153,-0.296l0.153,-0.296l0.154,-0.295l0.155,-0.294l0.156,-0.294l0.157,-0.294l0.157,-0.293l0.159,-0.293l0.159,-0.291l0.16,-0.292l0.161,-0.291l0.162,-0.29l0.162,-0.29l0.164,-0.289l0.164,-0.289l0.166,-0.288l0.166,-0.288l0.167,-0.287l0.167,-0.286l0.169,-0.286l0.169,-0.286l0.171,-0.285l0.171,-0.284l0.172,-0.284l0.172,-0.283l0.174,-0.283l0.174,-0.282l0.175,-0.281l0.177,-0.281l0.176,-0.281l0.178,-0.28l0.179,-0.279l0.179,-0.279l0.18,-0.278l0.181,-0.277l0.182,-0.277l0.182,-0.277l0.184,-0.275l0.184,-0.276l0.185,-0.274l0.186,-0.274l0.186,-0.274l0.188,-0.273l0.188,-0.272l0.189,-0.271l0.19,-0.272l0.19,-0.27l0.192,-0.27l0.192,-0.269l0.193,-0.269l0.194,-0.268l0.194,-0.267l0.195,-0.267l0.197,-0.267l0.196,-0.265l0.198,-0.265l0.198,-0.265l0.2,-0.264l0.2,-0.263l0.2,-0.262l0.202,-0.262l0.202,-0.262l0.203,-0.26l0.204,-0.26l0.205,-0.26l0.205,-0.259l0.206,-0.258l0.207,-0.257l0.207,-0.257l0.209,-0.257l0.209,-0.255l0.21,-0.255l0.21,-0.255l0.212,-0.253l0.212,-0.254l0.213,-0.252l0.213,-0.252l0.215,-0.251l0.215,-0.25l0.215,-0.25l0.217,-0.249l0.217,-0.249l0.218,-0.248l0.219,-0.247l0.22,-0.247l0.22,-0.246l0.221,-0.245l0.221,-0.244l0.223,-0.244l0.223,-0.244l0.223,-0.242l0.225,-0.242l0.225,-0.241l0.226,-0.241l0.227,-0.24l0.227,-0.239l0.228,-0.238l0.229,-0.238l0.23,-0.237l0.23,-0.237l0.231,-0.235l0.231,-0.235l0.233,-0.235l0.233,-0.233l0.233,-0.233l0.235,-0.233l0.235,-0.231l0.235,-0.231l0.237,-0.23l0.237,-0.23l0.238,-0.229l0.238,-0.228l0.239,-0.227l0.24,-0.227l0.241,-0.226l0.241,-0.225l0.242,-0.225l0.242,-0.223l0.244,-0.223l0.244,-0.223l0.244,-0.221l0.245,-0.221l0.246,-0.22l0.247,-0.22l0.247,-0.219l0.248,-0.218l0.249,-0.217l0.249,-0.217l0.25,-0.215l0.25,-0.215l0.251,-0.215l0.252,-0.213l0.252,-0.213l0.254,-0.212l0.253,-0.212l0.255,-0.21l0.255,-0.21l0.255,-0.209l0.257,-0.209l0.257,-0.207l0.257,-0.207l0.258,-0.206l0.259,-0.205l0.26,-0.205l0.26,-0.204l0.26,-0.203l0.262,-0.202l0.262,-0.202l0.262,-0.2l0.263,-0.2l0.264,-0.2l0.265,-0.198l0.265,-0.198l0.265,-0.196l0.267,-0.197l0.267,-0.195l0.267,-0.194l0.268,-0.194l0.269,-0.193l0.269,-0.192l0.27,-0.192l0.27,-0.19l0.272,-0.19l0.271,-0.189l0.272,-0.188l0.273,-0.188l0.274,-0.186l0.274,-0.186l0.274,-0.185l0.276,-0.184l0.275,-0.184l0.277,-0.182l0.277,-0.182l0.277,-0.181l0.278,-0.18l0.279,-0.179l0.279,-0.179l0.28,-0.178l0.281,-0.176l0.281,-0.177l0.281,-0.175l0.282,-0.174l0.283,-0.174l0.283,-0.172l0.284,-0.172l0.284,-0.171l0.285,-0.171l0.286,-0.169l0.286,-0.169l0.286,-0.167l0.287,-0.167l0.288,-0.166l0.288,-0.166l0.289,-0.164l0.289,-0.164l0.29,-0.162l0.29,-0.162l0.291,-0.161l0.292,-0.16l0.291,-0.159l0.293,-0.159l0.293,-0.157l0.294,-0.157l0.294,-0.156l0.294,-0.155l0.295,-0.154l0.296,-0.153l0.296,-0.153l0.297,-0.151l0.297,-0.151l0.298,-0.149l0.298,-0.149l0.299,-0.148l0.299,-0.147l0.3,-0.147l0.3,-0.145l0.301,-0.144l0.301,-0.144l0.302,-0.143l0.302,-0.141l0.303,-0.141l0.303,-0.14l0.304,-0.139l0.304,-0.139l0.305,-0.137l0.305,-0.136l0.306,-0.136l0.306,-0.135l0.307,-0.133l0.307,-0.133l0.308,-0.132l0.308,-0.131l0.309,-0.13l0.309,-0.129l0.31,-0.128l0.31,-0.128l0.31,-0.126l0.311,-0.126l0.312,-0.124l0.312,-0.124l0.312,-0.123l0.313,-0.121l0.313,-0.121l0.314,-0.12l0.314,-0.119l0.315,-0.118l0.315,-0.117l0.316,-0.117l0.316,-0.115l0.316,-0.114l0.317,-0.114l0.318,-0.112l0.317,-0.112l0.319,-0.11l0.318,-0.11l0.32,-0.108l0.319,-0.108l0.32,-0.107l0.321,-0.106l0.321,-0.104l0.321,-0.104l0.322,-0.103l0.322,-0.102l0.322,-0.101l0.324,-0.1l0.323,-0.099l0.324,-0.098l0.324,-0.097l0.325,-0.097l0.325,-0.095l0.326,-0.094l0.326,-0.093l0.326,-0.092l0.327,-0.092l0.327,-0.09l0.327,-0.089l0.328,-0.088l0.329,-0.088l0.329,-0.086l0.329,-0.085l0.329,-0.085l0.33,-0.083l0.331,-0.082l0.331,-0.082l0.331,-0.08l0.331,-0.079l0.332,-0.079l0.333,-0.077l0.332,-0.076l0.333,-0.076l0.334,-0.074l0.334,-0.073l0.334,-0.073l0.335,-0.071l0.334,-0.07l0.336,-0.07l0.336,-0.068l0.336,-0.067l0.336,-0.066l0.337,-0.065l0.337,-0.064l0.338,-0.064l0.338,-0.062l0.338,-0.061l0.338,-0.06l0.339,-0.059l0.34,-0.058l0.339,-0.056l0.34,-0.056l0.341,-0.055l0.34,-0.054l0.341,-0.053l0.342,-0.051l0.342,-0.051l0.342,-0.049l0.342,-0.049l0.343,-0.047l0.343,-0.047l0.343,-0.045l0.344,-0.045l0.344,-0.043l0.345,-0.042l0.344,-0.041l0.345,-0.04l0.346,-0.039l0.345,-0.038l0.347,-0.037l0.346,-0.036l0.346,-0.034l0.347,-0.034l0.348,-0.032l0.347,-0.032l0.348,-0.03l0.348,-0.03l0.349,-0.028l0.349,-0.027l0.349,-0.026l0.349,-0.025l0.35,-0.024l0.35,-0.023l0.35,-0.021l0.351,-0.021l0.351,-0.019l0.351,-0.019l0.351,-0.017l0.352,-0.016l0.352,-0.015l0.353,-0.014l0.352,-0.013l0.353,-0.012l0.353,-0.011l0.354,-0.009l0.353,-0.008l0.354,-0.008l0.355,-0.006l0.354,-0.005l0.355,-0.004l0.355,-0.003l0.355,-0.001l0.356,-0.001l0.356,0.001Zm-0.616,29.999l-0.261,0.002l-0.26,0.002l-0.259,0.003l-0.26,0.003l-0.259,0.005l-0.259,0.005l-0.258,0.006l-0.259,0.007l-0.258,0.008l-0.258,0.009l-0.258,0.009l-0.257,0.01l-0.257,0.011l-0.257,0.012l-0.256,0.013l-0.256,0.013l-0.256,0.014l-0.256,0.015l-0.256,0.016l-0.255,0.017l-0.255,0.017l-0.255,0.018l-0.254,0.019l-0.254,0.02l-0.254,0.021l-0.254,0.021l-0.253,0.022l-0.253,0.023l-0.253,0.024l-0.253,0.024l-0.252,0.026l-0.252,0.026l-0.252,0.026l-0.252,0.028l-0.251,0.028l-0.251,0.029l-0.251,0.03l-0.25,0.031l-0.25,0.031l-0.25,0.033l-0.25,0.033l-0.249,0.033l-0.249,0.035l-0.249,0.035l-0.248,0.036l-0.249,0.037l-0.248,0.037l-0.248,0.039l-0.247,0.039l-0.247,0.04l-0.247,0.04l-0.247,0.042l-0.246,0.042l-0.246,0.042l-0.246,0.044l-0.246,0.044l-0.245,0.045l-0.245,0.046l-0.245,0.047l-0.244,0.047l-0.244,0.048l-0.244,0.049l-0.244,0.049l-0.243,0.05l-0.243,0.051l-0.243,0.052l-0.242,0.053l-0.242,0.053l-0.242,0.054l-0.242,0.054l-0.241,0.056l-0.241,0.056l-0.241,0.057l-0.24,0.057l-0.24,0.058l-0.24,0.059l-0.24,0.06l-0.239,0.06l-0.239,0.062l-0.238,0.061l-0.239,0.063l-0.238,0.063l-0.238,0.064l-0.237,0.065l-0.237,0.066l-0.237,0.066l-0.237,0.067l-0.237,0.067l-0.235,0.068l-0.236,0.069l-0.235,0.07l-0.236,0.071l-0.235,0.071l-0.234,0.071l-0.234,0.073l-0.234,0.073l-0.234,0.074l-0.233,0.075l-0.233,0.075l-0.232,0.076l-0.233,0.077l-0.232,0.077l-0.232,0.078l-0.231,0.079l-0.231,0.079l-0.231,0.081l-0.231,0.08l-0.23,0.082l-0.23,0.082l-0.229,0.083l-0.229,0.084l-0.229,0.084l-0.229,0.085l-0.228,0.086l-0.228,0.086l-0.227,0.087l-0.228,0.088l-0.227,0.088l-0.226,0.089l-0.227,0.09l-0.225,0.09l-0.226,0.091l-0.226,0.092l-0.224,0.092l-0.225,0.093l-0.224,0.094l-0.224,0.094l-0.224,0.095l-0.223,0.096l-0.223,0.096l-0.223,0.097l-0.222,0.098l-0.221,0.098l-0.222,0.099l-0.222,0.1l-0.22,0.1l-0.221,0.101l-0.22,0.102l-0.22,0.103l-0.22,0.102l-0.218,0.104l-0.219,0.104l-0.219,0.105l-0.218,0.106l-0.217,0.106l-0.218,0.107l-0.217,0.107l-0.216,0.108l-0.217,0.109l-0.215,0.109l-0.216,0.111l-0.216,0.11l-0.215,0.112l-0.213,0.111l-0.214,0.113l-0.214,0.113l-0.214,0.114l-0.213,0.115l-0.212,0.115l-0.212,0.115l-0.212,0.117l-0.212,0.117l-0.211,0.118l-0.21,0.118l-0.211,0.119l-0.21,0.119l-0.209,0.12l-0.209,0.121l-0.21,0.122l-0.207,0.121l-0.208,0.123l-0.208,0.124l-0.207,0.123l-0.207,0.125l-0.207,0.125l-0.206,0.126l-0.205,0.126l-0.206,0.127l-0.204,0.127l-0.204,0.128l-0.205,0.129l-0.204,0.129l-0.202,0.13l-0.204,0.131l-0.202,0.131l-0.202,0.132l-0.201,0.132l-0.202,0.133l-0.2,0.133l-0.201,0.134l-0.2,0.135l-0.2,0.136l-0.199,0.135l-0.198,0.136l-0.198,0.137l-0.199,0.139l-0.197,0.137l-0.196,0.139l-0.197,0.139l-0.197,0.141l-0.195,0.14l-0.195,0.141l-0.195,0.142l-0.195,0.142l-0.193,0.143l-0.194,0.143l-0.193,0.145l-0.193,0.144l-0.192,0.145l-0.192,0.146l-0.191,0.146l-0.191,0.147l-0.19,0.147l-0.19,0.148l-0.19,0.149l-0.19,0.149l-0.188,0.15l-0.188,0.15l-0.188,0.151l-0.187,0.151l-0.187,0.152l-0.186,0.152l-0.186,0.153l-0.185,0.154l-0.186,0.154l-0.184,0.154l-0.184,0.156l-0.184,0.155l-0.183,0.156l-0.182,0.157l-0.183,0.158l-0.181,0.158l-0.181,0.158l-0.181,0.159l-0.181,0.16l-0.179,0.16l-0.179,0.16l-0.179,0.161l-0.179,0.162l-0.177,0.162l-0.178,0.162l-0.177,0.164l-0.177,0.164l-0.175,0.164l-0.175,0.164l-0.175,0.166l-0.175,0.166l-0.173,0.166l-0.174,0.167l-0.173,0.167l-0.173,0.168l-0.172,0.169l-0.17,0.168l-0.172,0.17l-0.17,0.17l-0.17,0.17l-0.169,0.171l-0.169,0.171l-0.169,0.173l-0.168,0.172l-0.167,0.173l-0.167,0.173l-0.166,0.174l-0.167,0.175l-0.165,0.175l-0.164,0.175l-0.164,0.176l-0.164,0.176l-0.163,0.177l-0.164,0.178l-0.161,0.177l-0.161,0.178l-0.163,0.18l-0.16,0.179l-0.16,0.18l-0.159,0.18l-0.159,0.18l-0.158,0.182l-0.158,0.182l-0.158,0.182l-0.156,0.182l-0.157,0.183l-0.155,0.184l-0.156,0.184l-0.154,0.185l-0.154,0.185l-0.154,0.185l-0.152,0.185l-0.153,0.188l-0.152,0.186l-0.151,0.187l-0.152,0.189l-0.15,0.188l-0.149,0.187l-0.149,0.19l-0.149,0.19l-0.147,0.189l-0.148,0.191l-0.147,0.191l-0.146,0.192l-0.146,0.191l-0.145,0.192l-0.144,0.192l-0.144,0.193l-0.144,0.195l-0.143,0.193l-0.142,0.195l-0.142,0.195l-0.141,0.195l-0.141,0.196l-0.139,0.196l-0.14,0.196l-0.138,0.197l-0.139,0.198l-0.137,0.198l-0.137,0.198l-0.137,0.199l-0.136,0.199l-0.135,0.199l-0.135,0.2l-0.134,0.201l-0.133,0.2l-0.133,0.201l-0.133,0.202l-0.131,0.202l-0.131,0.202l-0.131,0.203l-0.13,0.203l-0.129,0.203l-0.129,0.205l-0.128,0.205l-0.127,0.205l-0.128,0.205l-0.125,0.205l-0.126,0.206l-0.126,0.207l-0.124,0.206l-0.123,0.207l-0.123,0.208l-0.124,0.209l-0.122,0.208l-0.121,0.209l-0.12,0.208l-0.12,0.209l-0.12,0.212l-0.119,0.21l-0.118,0.21l-0.118,0.212l-0.117,0.211l-0.116,0.211l-0.116,0.212l-0.115,0.213l-0.115,0.214l-0.114,0.213l-0.112,0.213l-0.113,0.214l-0.113,0.216l-0.111,0.213l-0.11,0.215l-0.11,0.216l-0.11,0.216l-0.109,0.217l-0.108,0.216l-0.107,0.218l-0.107,0.217l-0.106,0.217l-0.106,0.218l-0.105,0.218l-0.104,0.22l-0.104,0.219l-0.102,0.218l-0.103,0.221l-0.102,0.221l-0.101,0.22l-0.1,0.221l-0.099,0.221l-0.099,0.221l-0.099,0.222l-0.097,0.222l-0.097,0.223l-0.097,0.223l-0.096,0.224l-0.095,0.223l-0.094,0.224l-0.094,0.224l-0.093,0.225l-0.092,0.225l-0.092,0.224l-0.091,0.226l-0.09,0.227l-0.09,0.227l-0.089,0.226l-0.088,0.225l-0.088,0.229l-0.087,0.227l-0.086,0.227l-0.086,0.23l-0.085,0.229l-0.084,0.228l-0.084,0.229l-0.083,0.229l-0.082,0.231l-0.082,0.23l-0.08,0.229l-0.081,0.232l-0.079,0.231l-0.079,0.231l-0.078,0.232l-0.077,0.232l-0.077,0.232l-0.076,0.233l-0.075,0.233l-0.075,0.232l-0.074,0.235l-0.073,0.234l-0.073,0.234l-0.071,0.235l-0.071,0.234l-0.071,0.235l-0.069,0.235l-0.07,0.237l-0.068,0.236l-0.067,0.235l-0.067,0.237l-0.066,0.237l-0.066,0.238l-0.065,0.237l-0.063,0.237l-0.064,0.24l-0.063,0.238l-0.062,0.239l-0.061,0.238l-0.06,0.239l-0.06,0.24l-0.059,0.24l-0.058,0.24l-0.057,0.24l-0.057,0.24l-0.056,0.242l-0.056,0.242l-0.054,0.24l-0.054,0.242l-0.053,0.243l-0.053,0.243l-0.052,0.242l-0.05,0.243l-0.051,0.244l-0.049,0.243l-0.049,0.243l-0.048,0.244l-0.048,0.246l-0.046,0.244l-0.046,0.244l-0.045,0.246l-0.044,0.247l-0.044,0.245l-0.042,0.245l-0.043,0.248l-0.041,0.246l-0.04,0.246l-0.04,0.248l-0.039,0.247l-0.039,0.248l-0.037,0.249l-0.037,0.247l-0.036,0.248l-0.035,0.25l-0.035,0.249l-0.033,0.249l-0.033,0.25l-0.033,0.25l-0.031,0.25l-0.031,0.25l-0.03,0.252l-0.029,0.25l-0.028,0.25l-0.028,0.253l-0.027,0.253l-0.026,0.251l-0.025,0.251l-0.024,0.254l-0.024,0.253l-0.023,0.252l-0.022,0.254l-0.021,0.254l-0.021,0.253l-0.02,0.256l-0.019,0.253l-0.018,0.254l-0.017,0.257l-0.017,0.255l-0.016,0.254l-0.015,0.257l-0.014,0.256l-0.013,0.255l-0.013,0.258l-0.012,0.257l-0.011,0.255l-0.01,0.258l-0.009,0.259l-0.009,0.257l-0.008,0.258l-0.007,0.257l-0.006,0.261l-0.005,0.259l-0.005,0.258l-0.003,0.26l-0.003,0.259l-0.002,0.261l-0.002,0.26l0,0.213l0,0.039l0,0.012l0.001,0.033l0.002,0.05l0.002,0.07l0.004,0.085l0.006,0.103l0.007,0.118l0.008,0.133l0.011,0.148l0.013,0.162l0.014,0.177l0.017,0.187l0.019,0.202l0.021,0.214l0.023,0.226l0.026,0.236l0.028,0.248l0.031,0.261l0.032,0.269l0.035,0.28l0.038,0.291l0.04,0.299l0.042,0.311l0.045,0.32l0.047,0.328l0.049,0.338l0.052,0.347l0.055,0.355l0.056,0.364l0.06,0.373l0.061,0.38l0.064,0.389l0.066,0.398l0.069,0.404l0.071,0.412l0.073,0.42l0.076,0.429l0.078,0.435l0.08,0.442l0.082,0.449l0.085,0.457l0.087,0.465l0.09,0.47l0.091,0.478l0.094,0.484l0.096,0.492l0.099,0.498l0.1,0.504l0.103,0.511l0.105,0.517l0.107,0.523l0.109,0.531l0.111,0.536l0.114,0.541l0.115,0.549l0.118,0.555l0.12,0.56l0.122,0.566l0.124,0.572l0.126,0.578l0.128,0.584l0.13,0.589l0.132,0.595l0.134,0.601l0.136,0.606l0.138,0.611l0.138,0.609l0.288,1.259l0.294,1.272l0.301,1.292l0.309,1.313l0.316,1.333l0.324,1.352l0.331,1.373l0.338,1.391l0.345,1.41l0.352,1.429l0.359,1.448l0.366,1.464l0.373,1.483l0.379,1.5l0.386,1.518l0.392,1.534l0.399,1.55l0.405,1.567l0.411,1.583l0.417,1.598l0.424,1.615l0.429,1.629l0.435,1.644l0.441,1.659l0.447,1.673l0.452,1.687l0.458,1.702l0.463,1.715l0.468,1.728l0.474,1.742l0.479,1.754l0.484,1.767l0.489,1.78l0.494,1.791l0.499,1.804l0.504,1.815l0.508,1.827l0.513,1.838l0.517,1.849l0.522,1.859l0.526,1.87l0.531,1.881l0.535,1.89l0.539,1.9l0.543,1.909l0.546,1.919l0.551,1.928l0.555,1.937l0.558,1.945l0.562,1.954l0.565,1.961l0.569,1.97l0.572,1.977l0.576,1.985l0.578,1.992l0.582,1.999l0.585,2.005l0.588,2.012l0.591,2.019l0.594,2.024l0.596,2.03l0.599,2.036l0.602,2.04l0.604,2.046l0.607,2.052l0.609,2.055l0.611,2.06l0.613,2.064l0.616,2.068l0.617,2.072l0.62,2.076l0.621,2.078l0.623,2.081l0.625,2.085l0.626,2.087l0.628,2.09l0.629,2.091l0.631,2.093l0.632,2.096l0.633,2.094l1.27,4.198l1.274,4.2l1.277,4.201l1.28,4.2l1.282,4.198l1.283,4.193l1.284,4.187l1.285,4.18l1.283,4.17l1.283,4.158l1.28,4.146l1.279,4.13l1.275,4.113l1.272,4.094l1.267,4.074l1.262,4.052l1.257,4.028l1.251,4.002l1.243,3.974l1.237,3.944l1.228,3.914l1.219,3.88l1.21,3.845l1.2,3.808l1.19,3.77l1.178,3.73l1.166,3.687l1.154,3.644l0.302,0.954l0.302,-0.954l1.154,-3.644l1.166,-3.687l1.178,-3.73l1.19,-3.77l1.2,-3.808l1.21,-3.845l1.219,-3.88l1.228,-3.914l1.237,-3.944l1.243,-3.974l1.251,-4.002l1.257,-4.028l1.262,-4.052l1.267,-4.074l1.272,-4.094l1.275,-4.113l1.279,-4.13l1.28,-4.146l1.283,-4.158l1.283,-4.17l1.285,-4.18l1.284,-4.187l1.283,-4.194l1.282,-4.197l1.28,-4.2l1.277,-4.201l1.274,-4.199l1.27,-4.199l0.633,-2.095l0.632,-2.094l0.631,-2.094l0.629,-2.091l0.628,-2.09l0.626,-2.087l0.625,-2.084l0.623,-2.082l0.622,-2.079l0.619,-2.075l0.617,-2.072l0.616,-2.068l0.613,-2.064l0.611,-2.06l0.609,-2.055l0.607,-2.052l0.604,-2.046l0.602,-2.04l0.599,-2.036l0.596,-2.03l0.594,-2.024l0.591,-2.019l0.588,-2.012l0.585,-2.005l0.582,-1.999l0.578,-1.992l0.576,-1.985l0.572,-1.977l0.569,-1.97l0.565,-1.961l0.562,-1.954l0.558,-1.945l0.555,-1.937l0.551,-1.928l0.547,-1.919l0.542,-1.909l0.539,-1.9l0.535,-1.891l0.531,-1.88l0.526,-1.869l0.522,-1.86l0.517,-1.849l0.513,-1.838l0.509,-1.827l0.503,-1.815l0.499,-1.804l0.494,-1.791l0.489,-1.78l0.484,-1.767l0.479,-1.755l0.474,-1.741l0.468,-1.728l0.464,-1.715l0.457,-1.702l0.453,-1.687l0.446,-1.673l0.441,-1.659l0.435,-1.644l0.429,-1.629l0.424,-1.615l0.417,-1.598l0.411,-1.583l0.405,-1.566l0.399,-1.551l0.392,-1.535l0.386,-1.516l0.379,-1.501l0.373,-1.483l0.366,-1.464l0.359,-1.448l0.352,-1.429l0.345,-1.41l0.338,-1.392l0.331,-1.372l0.324,-1.352l0.316,-1.333l0.309,-1.313l0.301,-1.292l0.294,-1.272l0.288,-1.259l0.138,-0.608l0.138,-0.612l0.136,-0.607l0.134,-0.6l0.132,-0.595l0.13,-0.588l0.128,-0.585l0.126,-0.578l0.124,-0.571l0.122,-0.567l0.12,-0.56l0.117,-0.554l0.116,-0.549l0.114,-0.544l0.111,-0.535l0.109,-0.529l0.107,-0.523l0.105,-0.518l0.103,-0.512l0.1,-0.504l0.099,-0.498l0.096,-0.491l0.094,-0.484l0.091,-0.478l0.089,-0.47l0.088,-0.463l0.085,-0.459l0.082,-0.449l0.08,-0.442l0.079,-0.437l0.075,-0.427l0.073,-0.419l0.071,-0.413l0.069,-0.403l0.066,-0.399l0.064,-0.389l0.062,-0.381l0.059,-0.372l0.056,-0.364l0.055,-0.356l0.052,-0.346l0.049,-0.338l0.047,-0.327l0.045,-0.321l0.042,-0.31l0.04,-0.3l0.038,-0.292l0.035,-0.28l0.032,-0.268l0.031,-0.259l0.028,-0.25l0.026,-0.238l0.023,-0.224l0.021,-0.213l0.019,-0.202l0.017,-0.19l0.014,-0.175l0.013,-0.162l0.011,-0.15l0.008,-0.132l0.007,-0.116l0.006,-0.104l0.004,-0.088l0.002,-0.065l0.002,-0.052l0.001,-0.031l0,-0.012l0,-0.042l0,-0.212l-0.002,-0.26l-0.002,-0.26l-0.003,-0.261l-0.003,-0.259l-0.005,-0.258l-0.005,-0.261l-0.006,-0.257l-0.007,-0.257l-0.008,-0.26l-0.009,-0.258l-0.009,-0.256l-0.01,-0.258l-0.011,-0.258l-0.012,-0.257l-0.013,-0.257l-0.013,-0.257l-0.014,-0.253l-0.015,-0.256l-0.016,-0.257l-0.017,-0.255l-0.017,-0.255l-0.018,-0.256l-0.019,-0.254l-0.02,-0.253l-0.021,-0.255l-0.021,-0.253l-0.022,-0.252l-0.023,-0.254l-0.024,-0.253l-0.024,-0.254l-0.026,-0.253l-0.025,-0.249l-0.027,-0.253l-0.028,-0.251l-0.028,-0.252l-0.03,-0.253l-0.03,-0.25l-0.03,-0.248l-0.031,-0.249l-0.033,-0.252l-0.033,-0.252l-0.033,-0.248l-0.035,-0.248l-0.035,-0.247l-0.036,-0.25l-0.037,-0.249l-0.037,-0.247l-0.039,-0.248l-0.039,-0.248l-0.04,-0.248l-0.04,-0.247l-0.042,-0.247l-0.042,-0.246l-0.042,-0.246l-0.044,-0.246l-0.044,-0.245l-0.045,-0.244l-0.046,-0.245l-0.047,-0.246l-0.047,-0.243l-0.048,-0.243l-0.049,-0.248l-0.049,-0.242l-0.05,-0.242l-0.051,-0.244l-0.052,-0.243l-0.053,-0.243l-0.052,-0.24l-0.054,-0.242l-0.055,-0.242l-0.056,-0.242l-0.056,-0.24l-0.056,-0.241l-0.058,-0.242l-0.058,-0.24l-0.059,-0.239l-0.06,-0.239l-0.061,-0.241l-0.06,-0.237l-0.062,-0.238l-0.064,-0.242l-0.062,-0.237l-0.064,-0.236l-0.065,-0.238l-0.066,-0.238l-0.066,-0.237l-0.067,-0.237l-0.067,-0.236l-0.068,-0.234l-0.069,-0.236l-0.07,-0.237l-0.071,-0.235l-0.071,-0.234l-0.072,-0.236l-0.072,-0.234l-0.073,-0.233l-0.074,-0.235l-0.075,-0.232l-0.075,-0.234l-0.076,-0.231l-0.076,-0.231l-0.078,-0.235l-0.079,-0.232l-0.078,-0.23l-0.079,-0.231l-0.08,-0.231l-0.081,-0.23l-0.082,-0.23l-0.082,-0.23l-0.084,-0.231l-0.083,-0.229l-0.084,-0.228l-0.085,-0.228l-0.085,-0.227l-0.087,-0.23l-0.087,-0.229l-0.087,-0.225l-0.089,-0.228l-0.089,-0.228l-0.089,-0.224l-0.091,-0.227l-0.09,-0.224l-0.092,-0.225l-0.094,-0.228l-0.093,-0.224l-0.092,-0.222l-0.095,-0.224l-0.095,-0.225l-0.096,-0.223l-0.096,-0.222l-0.098,-0.224l-0.097,-0.222l-0.098,-0.221l-0.1,-0.222l-0.1,-0.223l-0.099,-0.219l-0.102,-0.221l-0.102,-0.221l-0.101,-0.218l-0.103,-0.22l-0.104,-0.22l-0.104,-0.219l-0.105,-0.218l-0.106,-0.218l-0.106,-0.217l-0.106,-0.217l-0.108,-0.217l-0.109,-0.218l-0.108,-0.216l-0.109,-0.215l-0.111,-0.217l-0.11,-0.214l-0.112,-0.215l-0.112,-0.216l-0.112,-0.212l-0.114,-0.215l-0.113,-0.211l-0.114,-0.214l-0.117,-0.215l-0.114,-0.21l-0.117,-0.212l-0.118,-0.213l-0.116,-0.209l-0.118,-0.21l-0.12,-0.212l-0.119,-0.21l-0.121,-0.211l-0.121,-0.208l-0.12,-0.208l-0.123,-0.209l-0.122,-0.207l-0.122,-0.207l-0.125,-0.208l-0.126,-0.209l-0.124,-0.205l-0.124,-0.204l-0.128,-0.208l-0.127,-0.205l-0.128,-0.205l-0.128,-0.205l-0.127,-0.202l-0.13,-0.205l-0.13,-0.203l-0.13,-0.202l-0.132,-0.204l-0.131,-0.201l-0.133,-0.203l-0.133,-0.2l-0.132,-0.2l-0.135,-0.201l-0.135,-0.2l-0.136,-0.2l-0.135,-0.198l-0.137,-0.199l-0.137,-0.198l-0.136,-0.197l-0.14,-0.199l-0.138,-0.197l-0.14,-0.196l-0.141,-0.198l-0.139,-0.193l-0.14,-0.195l-0.143,-0.196l-0.143,-0.196l-0.142,-0.193l-0.143,-0.193l-0.145,-0.194l-0.144,-0.191l-0.145,-0.193l-0.146,-0.192l-0.147,-0.192l-0.145,-0.189l-0.148,-0.191l-0.15,-0.192l-0.147,-0.188l-0.149,-0.189l-0.149,-0.188l-0.15,-0.188l-0.152,-0.189l-0.151,-0.187l-0.152,-0.186l-0.153,-0.188l-0.152,-0.185l-0.153,-0.185l-0.155,-0.185l-0.155,-0.185l-0.155,-0.185l-0.155,-0.183l-0.156,-0.182l-0.158,-0.184l-0.157,-0.182l-0.157,-0.181l-0.159,-0.181l-0.16,-0.182l-0.159,-0.18l-0.159,-0.178l-0.161,-0.181l-0.161,-0.178l-0.161,-0.178l-0.163,-0.179l-0.162,-0.176l-0.164,-0.178l-0.165,-0.177l-0.163,-0.175l-0.164,-0.175l-0.166,-0.175l-0.166,-0.175l-0.166,-0.174l-0.167,-0.174l-0.168,-0.173l-0.168,-0.172l-0.166,-0.17l-0.169,-0.172l-0.171,-0.172l-0.171,-0.171l-0.17,-0.17l-0.169,-0.168l-0.172,-0.169l-0.173,-0.17l-0.172,-0.167l-0.172,-0.166l-0.174,-0.168l-0.175,-0.167l-0.173,-0.165l-0.175,-0.165l-0.176,-0.165l-0.176,-0.165l-0.177,-0.163l-0.176,-0.164l-0.178,-0.162l-0.177,-0.162l-0.179,-0.162l-0.178,-0.16l-0.18,-0.162l-0.18,-0.16l-0.179,-0.159l-0.182,-0.159l-0.181,-0.158l-0.182,-0.159l-0.181,-0.156l-0.183,-0.158l-0.184,-0.156l-0.182,-0.155l-0.185,-0.155l-0.184,-0.155l-0.186,-0.154l-0.185,-0.154l-0.186,-0.153l-0.186,-0.152l-0.188,-0.153l-0.187,-0.151l-0.186,-0.149l-0.189,-0.151l-0.19,-0.151l-0.188,-0.148l-0.189,-0.148l-0.189,-0.148l-0.191,-0.147l-0.192,-0.148l-0.191,-0.146l-0.192,-0.146l-0.193,-0.146l-0.192,-0.143l-0.193,-0.144l-0.193,-0.144l-0.194,-0.143l-0.196,-0.143l-0.193,-0.14l-0.195,-0.141l-0.197,-0.141l-0.195,-0.14l-0.198,-0.14l-0.196,-0.139l-0.197,-0.137l-0.199,-0.139l-0.198,-0.137l-0.2,-0.137l-0.198,-0.135l-0.198,-0.134l-0.2,-0.135l-0.202,-0.135l-0.2,-0.133l-0.201,-0.133l-0.203,-0.133l-0.201,-0.131l-0.202,-0.131l-0.204,-0.131l-0.202,-0.13l-0.204,-0.129l-0.205,-0.129l-0.204,-0.128l-0.204,-0.127l-0.206,-0.127l-0.206,-0.127l-0.206,-0.126l-0.206,-0.124l-0.206,-0.124l-0.208,-0.125l-0.208,-0.123l-0.207,-0.122l-0.208,-0.122l-0.209,-0.122l-0.21,-0.121l-0.21,-0.12l-0.208,-0.119l-0.212,-0.119l-0.211,-0.119l-0.21,-0.117l-0.212,-0.117l-0.211,-0.116l-0.213,-0.116l-0.213,-0.115l-0.212,-0.114l-0.214,-0.115l-0.214,-0.113l-0.214,-0.113l-0.214,-0.112l-0.214,-0.111l-0.215,-0.11l-0.217,-0.111l-0.216,-0.109l-0.215,-0.108l-0.216,-0.108l-0.218,-0.108l-0.218,-0.107l-0.217,-0.106l-0.218,-0.106l-0.219,-0.105l-0.218,-0.104l-0.22,-0.104l-0.22,-0.103l-0.219,-0.102l-0.22,-0.102l-0.22,-0.1l-0.221,-0.101l-0.222,-0.1l-0.221,-0.098l-0.222,-0.099l-0.223,-0.098l-0.222,-0.097l-0.223,-0.096l-0.223,-0.096l-0.223,-0.095l-0.225,-0.094l-0.224,-0.094l-0.225,-0.093l-0.224,-0.092l-0.226,-0.092l-0.226,-0.091l-0.225,-0.09l-0.227,-0.09l-0.226,-0.089l-0.227,-0.088l-0.228,-0.088l-0.227,-0.087l-0.228,-0.086l-0.228,-0.086l-0.229,-0.085l-0.229,-0.084l-0.229,-0.084l-0.229,-0.083l-0.23,-0.082l-0.23,-0.082l-0.231,-0.08l-0.231,-0.081l-0.231,-0.079l-0.231,-0.079l-0.232,-0.078l-0.232,-0.077l-0.233,-0.077l-0.232,-0.076l-0.233,-0.075l-0.233,-0.075l-0.234,-0.074l-0.234,-0.073l-0.234,-0.073l-0.234,-0.071l-0.235,-0.071l-0.236,-0.071l-0.235,-0.07l-0.236,-0.069l-0.235,-0.068l-0.237,-0.067l-0.237,-0.067l-0.237,-0.066l-0.237,-0.066l-0.237,-0.065l-0.238,-0.064l-0.238,-0.063l-0.239,-0.063l-0.238,-0.061l-0.239,-0.062l-0.239,-0.06l-0.24,-0.06l-0.24,-0.059l-0.24,-0.058l-0.24,-0.057l-0.241,-0.057l-0.241,-0.056l-0.241,-0.056l-0.242,-0.054l-0.242,-0.054l-0.242,-0.053l-0.242,-0.053l-0.243,-0.052l-0.243,-0.051l-0.243,-0.05l-0.244,-0.049l-0.244,-0.049l-0.244,-0.048l-0.244,-0.047l-0.245,-0.047l-0.245,-0.046l-0.245,-0.045l-0.246,-0.044l-0.246,-0.044l-0.246,-0.042l-0.246,-0.042l-0.247,-0.042l-0.247,-0.04l-0.247,-0.04l-0.247,-0.039l-0.248,-0.039l-0.248,-0.037l-0.249,-0.037l-0.248,-0.036l-0.249,-0.035l-0.249,-0.035l-0.249,-0.033l-0.25,-0.033l-0.25,-0.033l-0.25,-0.031l-0.25,-0.031l-0.251,-0.03l-0.251,-0.029l-0.251,-0.028l-0.252,-0.028l-0.252,-0.026l-0.252,-0.026l-0.252,-0.026l-0.253,-0.024l-0.253,-0.024l-0.253,-0.023l-0.253,-0.022l-0.254,-0.021l-0.254,-0.021l-0.254,-0.02l-0.254,-0.019l-0.255,-0.018l-0.255,-0.017l-0.255,-0.017l-0.256,-0.016l-0.256,-0.015l-0.256,-0.014l-0.256,-0.013l-0.256,-0.013l-0.257,-0.012l-0.257,-0.011l-0.257,-0.01l-0.258,-0.009l-0.258,-0.009l-0.258,-0.008l-0.259,-0.007l-0.258,-0.006l-0.259,-0.005l-0.259,-0.005l-0.26,-0.003l-0.259,-0.003l-0.26,-0.002l-0.261,-0.002l-0.26,0l-0.26,0Z"/><circle cx="470" cy="180.946" r="30" style="fill:#fff;stroke:#000;stroke-width:30px;"/></g><path d="M140,545.5l320,0" style="fill:none;stroke:#000;stroke-width:30px;stroke-dasharray:60,90,0,0;"/></svg>