<?xml version="1.0" encoding="UTF-8" standalone="no"?><!DOCTYPE svg PUBLIC "-//W3C//DTD SVG 1.1//EN" "http://www.w3.org/Graphics/SVG/1.1/DTD/svg11.dtd"><svg width="100%" height="100%" viewBox="0 0 800 600" version="1.1" xmlns="http://www.w3.org/2000/svg" xmlns:xlink="http://www.w3.org/1999/xlink" xml:space="preserve" xmlns:serif="http://www.serif.com/" style="fill-rule:evenodd;clip-rule:evenodd;stroke-linejoin:round;stroke-miterlimit:2;"><rect id="Artboard1" x="0" y="0" width="800" height="600" style="fill:none;"/><g id="Artboard11" serif:id="Artboard1"><path d="M122.709,500l553.842,0" style="fill:none;"/><path d="M299.66,486.057c1.16,0.481 2.394,0.814 3.481,1.442c5.523,3.189 8.351,10.171 6.726,16.237c-0.988,3.686 -3.488,6.896 -6.726,8.765c-2.942,1.699 -3.935,1.501 -7.217,1.934l-173.215,0c-1.245,-0.164 -2.522,-0.167 -3.736,-0.492c-6.159,-1.651 -10.698,-7.663 -10.698,-13.943c0,-5.102 2.9,-10.009 7.217,-12.501c2.943,-1.699 3.935,-1.501 7.217,-1.934l173.215,0c1.245,0.164 2.491,0.328 3.736,0.492Zm230.953,0c1.16,0.481 2.393,0.814 3.481,1.442c8.596,4.963 9.542,19.493 0,25.002c-2.943,1.699 -3.935,1.501 -7.217,1.934l-173.215,0c-3.282,-0.433 -4.274,-0.235 -7.217,-1.934c-7.486,-4.322 -9.569,-16.129 -2.99,-22.708c1.792,-1.791 4.024,-3.08 6.471,-3.736c1.214,-0.325 2.491,-0.328 3.736,-0.492l173.215,0c1.245,0.164 2.491,0.328 3.736,0.492Zm149.674,0c3.059,1.267 4.068,1.333 6.471,3.736c5.316,5.316 5.413,15.001 0,20.414c-1.792,1.791 -4.024,3.08 -6.471,3.736c-1.213,0.325 -2.491,0.328 -3.736,0.492l-91.936,0c-3.282,-0.433 -4.274,-0.235 -7.217,-1.934c-7.428,-4.289 -9.618,-16.08 -2.99,-22.708c1.792,-1.791 4.024,-3.08 6.471,-3.736c1.213,-0.325 2.491,-0.328 3.736,-0.492l91.936,0c1.245,0.164 2.491,0.328 3.736,0.492Z"/><path d="M120.218,482.636c0,0 105.488,-185.599 105.488,-265.141c0,-56.908 -47.268,-103.11 -105.488,-103.11c-58.221,0 -105.489,46.202 -105.489,103.11c0,79.542 105.489,265.141 105.489,265.141Zm0,-301.966c20.793,0 37.674,16.501 37.674,36.825c0,20.324 -16.881,36.825 -37.674,36.825c-20.794,0 -37.675,-16.501 -37.675,-36.825c0,-20.324 16.881,-36.825 37.675,-36.825Z" style="fill:#ebebeb;"/><path d="M680.218,485.66c0,0 105.488,-185.599 105.488,-265.142c0,-56.908 -47.268,-103.11 -105.488,-103.11c-58.221,0 -105.489,46.202 -105.489,103.11c0,79.543 105.489,265.142 105.489,265.142Zm0,-301.967c20.793,0 37.674,16.501 37.674,36.825c0,20.325 -16.881,36.826 -37.674,36.826c-20.794,0 -37.675,-16.501 -37.675,-36.826c0,-20.324 16.881,-36.825 37.675,-36.825Z" style="fill:#ebebeb;"/><path d="M123.099,100c39.173,0.183 77.805,20.339 99.712,52.858c15.24,22.622 21.924,50.65 19.022,78.009c-2.426,22.864 -9.165,45.144 -16.758,67.004c-21.232,61.121 -50.365,119.55 -81.449,176.673c-2.539,4.666 -5.101,9.318 -7.701,13.95l-0.692,1.226l-1.99,2.717c-2.261,1.919 -2.728,2.658 -5.571,3.702c-5.265,1.934 -11.629,0.445 -15.489,-3.702c-2.837,-3.048 -4.496,-7.17 -6.599,-10.984c-28.238,-51.205 -54.368,-103.597 -75.673,-157.825c-11.881,-30.241 -23.085,-61.147 -26.378,-93.334c-2.77,-27.083 3.945,-54.966 19.082,-77.436c21.809,-32.374 60.206,-52.674 99.712,-52.858c0.257,0 0.515,0 0.772,0Zm-0.682,28.77c-29.547,0.138 -58.624,15.103 -75.334,39.272c-11.802,17.07 -17.083,38.269 -14.929,59.325c1.971,19.266 7.584,38.038 13.815,56.51c12.184,36.123 27.773,70.974 44.35,105.318c10.251,21.239 20.978,42.215 32.136,63.053l0.258,0.48c29.216,-54.419 56.855,-109.883 76.744,-168.851c8.943,-26.513 17.953,-54.167 12.995,-81.763c-5.183,-28.848 -25.923,-54.143 -52.92,-65.791c-11.675,-5.037 -24.46,-7.573 -37.115,-7.553Zm0.629,37.516c20.492,0.191 40.418,13.384 48.066,32.327c8.18,20.265 1.553,45.476 -16.381,59.255c-13.724,10.545 -32.827,13.617 -49.219,7.969c-15.965,-5.501 -28.907,-19.195 -33.197,-35.478c-4.325,-16.417 0.359,-34.917 11.981,-47.415c9.696,-10.426 23.769,-16.525 38.084,-16.658c0.222,-0.001 0.444,-0.001 0.666,0Zm-0.487,28.769c-11.487,0.107 -22.342,9.503 -23.089,21.009c-0.616,9.474 5.728,18.915 14.744,22.33c12.261,4.644 27.882,-2.579 31.144,-15.631c3.237,-12.946 -7.543,-27.386 -22.183,-27.704c-0.206,-0.003 -0.411,-0.004 -0.616,-0.004Z"/><path d="M680.603,103.024c39.174,0.182 77.806,20.338 99.713,52.857c15.239,22.623 21.924,50.65 19.021,78.01c-2.425,22.863 -9.164,45.144 -16.757,67.003c-21.232,61.121 -50.366,119.55 -81.45,176.674c-2.538,4.665 -5.101,9.318 -7.701,13.949l-0.692,1.226l-1.99,2.717c-2.26,1.919 -2.728,2.659 -5.57,3.703c-5.265,1.933 -11.629,0.444 -15.489,-3.703c-2.837,-3.048 -4.496,-7.17 -6.599,-10.984c-28.238,-51.204 -54.368,-103.597 -75.673,-157.825c-11.881,-30.241 -23.086,-61.147 -26.378,-93.334c-2.77,-27.082 3.944,-54.966 19.082,-77.436c21.808,-32.373 60.205,-52.673 99.712,-52.857c0.257,-0.001 0.514,-0.001 0.771,0Zm-0.682,28.769c-29.546,0.138 -58.624,15.103 -75.334,39.273c-11.802,17.069 -17.082,38.268 -14.928,59.324c1.97,19.266 7.583,38.038 13.814,56.51c12.184,36.123 27.773,70.974 44.35,105.319c10.252,21.238 20.978,42.215 32.137,63.052l0.258,0.48c29.216,-54.418 56.854,-109.883 76.744,-168.851c8.943,-26.512 17.953,-54.167 12.995,-81.763c-5.183,-28.848 -25.923,-54.142 -52.92,-65.79c-11.675,-5.038 -24.46,-7.573 -37.116,-7.554Zm0.629,37.516c20.493,0.191 40.419,13.384 48.066,32.327c8.181,20.266 1.554,45.476 -16.38,59.256c-13.725,10.545 -32.828,13.616 -49.219,7.968c-15.965,-5.501 -28.907,-19.194 -33.197,-35.478c-4.325,-16.416 0.359,-34.916 11.981,-47.415c9.696,-10.426 23.769,-16.525 38.084,-16.658c0.222,0 0.443,0 0.665,0Zm-0.487,28.77c-11.486,0.106 -22.341,9.503 -23.089,21.009c-0.615,9.473 5.728,18.914 14.745,22.329c12.261,4.645 27.882,-2.579 31.144,-15.63c3.236,-12.947 -7.543,-27.387 -22.183,-27.705c-0.206,-0.003 -0.411,-0.004 -0.617,-0.003Z"/></g></svg>