<?xml version="1.0" encoding="UTF-8" standalone="no"?><!DOCTYPE svg PUBLIC "-//W3C//DTD SVG 1.1//EN" "http://www.w3.org/Graphics/SVG/1.1/DTD/svg11.dtd"><svg width="100%" height="100%" viewBox="0 0 600 600" version="1.1" xmlns="http://www.w3.org/2000/svg" xmlns:xlink="http://www.w3.org/1999/xlink" xml:space="preserve" xmlns:serif="http://www.serif.com/" style="fill-rule:evenodd;clip-rule:evenodd;stroke-linecap:round;stroke-linejoin:round;stroke-miterlimit:1.5;"><path d="M580,210c0,-49.672 -40.328,-90 -90,-90l-380,0c-49.672,0 -90,40.328 -90,90l0,180c0,49.672 40.328,90 90,90l380,0c49.672,0 90,-40.328 90,-90l0,-180Z" style="fill:#fff;"/><path d="M490.291,120l0.291,0.002l0.29,0.002l0.29,0.003l0.291,0.005l0.289,0.005l0.29,0.006l0.289,0.006l0.29,0.008l0.289,0.009l0.288,0.01l0.289,0.01l0.288,0.011l0.288,0.013l0.288,0.013l0.287,0.014l0.288,0.015l0.287,0.016l0.287,0.017l0.286,0.018l0.287,0.018l0.286,0.02l0.286,0.02l0.285,0.022l0.286,0.022l0.285,0.023l0.285,0.024l0.284,0.025l0.285,0.026l0.284,0.026l0.284,0.028l0.283,0.028l0.284,0.029l0.283,0.03l0.283,0.031l0.282,0.032l0.283,0.033l0.282,0.034l0.282,0.034l0.281,0.036l0.281,0.036l0.281,0.037l0.281,0.038l0.28,0.039l0.281,0.04l0.279,0.04l0.28,0.042l0.279,0.042l0.279,0.043l0.279,0.044l0.279,0.045l0.278,0.045l0.278,0.047l0.277,0.047l0.278,0.049l0.277,0.049l0.277,0.05l0.276,0.05l0.276,0.052l0.276,0.053l0.276,0.053l0.275,0.054l0.275,0.055l0.275,0.056l0.274,0.056l0.274,0.058l0.274,0.058l0.273,0.059l0.273,0.06l0.273,0.061l0.273,0.062l0.272,0.062l0.272,0.064l0.271,0.064l0.272,0.065l0.271,0.065l0.27,0.067l0.271,0.067l0.27,0.068l0.269,0.069l0.27,0.07l0.269,0.071l0.268,0.071l0.269,0.073l0.268,0.073l0.267,0.074l0.268,0.074l0.267,0.076l0.267,0.076l0.266,0.077l0.266,0.078l0.266,0.078l0.265,0.08l0.265,0.08l0.265,0.081l0.264,0.082l0.264,0.083l0.263,0.083l0.264,0.084l0.263,0.085l0.262,0.086l0.262,0.087l0.262,0.087l0.262,0.088l0.261,0.089l0.261,0.09l0.26,0.09l0.26,0.091l0.26,0.092l0.259,0.093l0.259,0.094l0.259,0.094l0.258,0.095l0.258,0.096l0.257,0.096l0.257,0.098l0.257,0.098l0.256,0.099l0.256,0.099l0.256,0.101l0.255,0.101l0.255,0.102l0.255,0.103l0.254,0.103l0.253,0.104l0.254,0.105l0.253,0.106l0.252,0.106l0.252,0.107l0.252,0.108l0.251,0.109l0.251,0.109l0.251,0.111l0.25,0.111l0.25,0.111l0.249,0.112l0.249,0.114l0.248,0.113l0.249,0.115l0.247,0.115l0.248,0.116l0.247,0.117l0.246,0.117l0.246,0.119l0.246,0.119l0.245,0.119l0.245,0.121l0.244,0.121l0.244,0.121l0.244,0.123l0.243,0.123l0.243,0.124l0.242,0.125l0.242,0.125l0.242,0.126l0.241,0.127l0.24,0.128l0.241,0.128l0.239,0.129l0.24,0.129l0.238,0.131l0.239,0.131l0.238,0.131l0.237,0.133l0.238,0.133l0.236,0.134l0.237,0.134l0.235,0.135l0.236,0.136l0.235,0.137l0.234,0.137l0.234,0.138l0.234,0.138l0.233,0.14l0.232,0.14l0.232,0.14l0.232,0.142l0.231,0.142l0.231,0.142l0.231,0.144l0.23,0.144l0.229,0.145l0.229,0.145l0.228,0.146l0.228,0.147l0.228,0.147l0.227,0.148l0.227,0.149l0.226,0.149l0.225,0.15l0.226,0.151l0.224,0.151l0.224,0.152l0.224,0.153l0.223,0.153l0.223,0.154l0.222,0.155l0.222,0.155l0.222,0.156l0.22,0.157l0.221,0.157l0.22,0.158l0.219,0.158l0.219,0.16l0.218,0.159l0.218,0.161l0.217,0.161l0.217,0.162l0.216,0.162l0.216,0.163l0.216,0.164l0.215,0.164l0.214,0.165l0.214,0.165l0.213,0.166l0.213,0.167l0.212,0.167l0.212,0.168l0.211,0.169l0.211,0.169l0.21,0.17l0.21,0.171l0.209,0.171l0.209,0.171l0.208,0.173l0.207,0.173l0.207,0.173l0.207,0.174l0.206,0.175l0.205,0.175l0.205,0.176l0.205,0.177l0.204,0.177l0.203,0.178l0.203,0.178l0.202,0.179l0.202,0.18l0.201,0.18l0.201,0.181l0.2,0.181l0.199,0.182l0.199,0.182l0.199,0.184l0.198,0.183l0.197,0.185l0.197,0.184l0.196,0.186l0.196,0.186l0.195,0.187l0.194,0.187l0.195,0.187l0.193,0.189l0.193,0.189l0.192,0.189l0.192,0.19l0.191,0.191l0.191,0.191l0.19,0.192l0.189,0.192l0.189,0.193l0.189,0.193l0.187,0.195l0.187,0.194l0.187,0.195l0.186,0.196l0.186,0.196l0.184,0.197l0.185,0.197l0.183,0.198l0.184,0.199l0.182,0.199l0.182,0.199l0.181,0.2l0.181,0.201l0.18,0.201l0.18,0.202l0.179,0.202l0.178,0.203l0.178,0.203l0.177,0.204l0.177,0.205l0.176,0.205l0.175,0.205l0.175,0.206l0.174,0.207l0.173,0.207l0.173,0.207l0.173,0.208l0.171,0.209l0.171,0.209l0.171,0.21l0.17,0.21l0.169,0.211l0.169,0.211l0.168,0.212l0.167,0.212l0.167,0.213l0.166,0.213l0.165,0.214l0.165,0.214l0.164,0.215l0.164,0.216l0.163,0.216l0.162,0.216l0.162,0.217l0.161,0.217l0.161,0.218l0.159,0.218l0.16,0.219l0.158,0.219l0.158,0.22l0.157,0.221l0.157,0.22l0.156,0.222l0.155,0.222l0.155,0.222l0.154,0.223l0.153,0.223l0.153,0.224l0.152,0.224l0.151,0.224l0.151,0.226l0.15,0.225l0.149,0.226l0.149,0.227l0.148,0.227l0.147,0.228l0.147,0.228l0.146,0.228l0.145,0.229l0.145,0.229l0.144,0.23l0.144,0.231l0.142,0.231l0.142,0.231l0.142,0.232l0.14,0.232l0.14,0.232l0.14,0.233l0.138,0.234l0.138,0.234l0.137,0.234l0.137,0.235l0.136,0.236l0.135,0.235l0.134,0.237l0.134,0.236l0.133,0.238l0.133,0.237l0.131,0.238l0.131,0.239l0.131,0.238l0.129,0.24l0.129,0.239l0.128,0.241l0.128,0.24l0.127,0.241l0.126,0.242l0.125,0.242l0.125,0.242l0.124,0.243l0.123,0.243l0.123,0.244l0.121,0.244l0.121,0.244l0.121,0.245l0.119,0.245l0.119,0.246l0.119,0.246l0.117,0.246l0.117,0.247l0.116,0.248l0.115,0.247l0.115,0.249l0.113,0.248l0.114,0.249l0.112,0.249l0.111,0.25l0.111,0.25l0.111,0.251l0.109,0.251l0.109,0.251l0.108,0.252l0.107,0.252l0.106,0.252l0.106,0.253l0.105,0.254l0.104,0.253l0.103,0.254l0.103,0.255l0.102,0.255l0.101,0.255l0.101,0.256l0.099,0.256l0.099,0.256l0.098,0.257l0.098,0.257l0.096,0.257l0.096,0.258l0.095,0.258l0.094,0.259l0.094,0.259l0.093,0.259l0.092,0.26l0.091,0.26l0.09,0.26l0.09,0.261l0.089,0.261l0.088,0.262l0.087,0.262l0.087,0.262l0.086,0.262l0.085,0.263l0.084,0.264l0.083,0.263l0.083,0.264l0.082,0.264l0.081,0.265l0.08,0.265l0.08,0.265l0.078,0.266l0.078,0.266l0.077,0.266l0.076,0.267l0.076,0.267l0.074,0.268l0.074,0.267l0.073,0.268l0.073,0.269l0.071,0.268l0.071,0.269l0.07,0.27l0.069,0.269l0.068,0.27l0.067,0.271l0.067,0.27l0.065,0.271l0.065,0.272l0.064,0.271l0.064,0.272l0.062,0.272l0.062,0.273l0.061,0.273l0.06,0.273l0.059,0.273l0.058,0.274l0.058,0.274l0.056,0.274l0.056,0.275l0.055,0.275l0.054,0.275l0.053,0.276l0.053,0.276l0.052,0.276l0.05,0.276l0.05,0.277l0.049,0.277l0.049,0.278l0.047,0.277l0.047,0.278l0.045,0.278l0.045,0.279l0.044,0.279l0.043,0.279l0.042,0.279l0.042,0.28l0.04,0.279l0.04,0.281l0.039,0.28l0.038,0.281l0.037,0.281l0.036,0.281l0.036,0.281l0.034,0.282l0.034,0.282l0.033,0.283l0.032,0.282l0.031,0.283l0.03,0.283l0.029,0.284l0.028,0.283l0.028,0.284l0.026,0.284l0.026,0.285l0.025,0.284l0.024,0.285l0.023,0.285l0.022,0.286l0.022,0.285l0.02,0.286l0.02,0.286l0.018,0.287l0.018,0.286l0.017,0.287l0.016,0.287l0.015,0.288l0.014,0.287l0.013,0.288l0.013,0.288l0.011,0.288l0.01,0.289l0.01,0.288l0.009,0.289l0.008,0.29l0.006,0.289l0.006,0.29l0.005,0.289l0.005,0.291l0.003,0.29l0.002,0.29l0.002,0.291l0,0.291l0,180l0,0.291l-0.002,0.291l-0.002,0.29l-0.003,0.29l-0.005,0.291l-0.005,0.289l-0.006,0.29l-0.006,0.289l-0.008,0.29l-0.009,0.289l-0.01,0.288l-0.01,0.289l-0.011,0.288l-0.013,0.288l-0.013,0.288l-0.014,0.287l-0.015,0.288l-0.016,0.287l-0.017,0.287l-0.018,0.286l-0.018,0.287l-0.02,0.286l-0.02,0.286l-0.022,0.285l-0.022,0.286l-0.023,0.285l-0.024,0.285l-0.025,0.284l-0.026,0.285l-0.026,0.284l-0.028,0.284l-0.028,0.283l-0.029,0.284l-0.03,0.283l-0.031,0.283l-0.032,0.282l-0.033,0.283l-0.034,0.282l-0.034,0.282l-0.036,0.281l-0.036,0.281l-0.037,0.281l-0.038,0.281l-0.039,0.28l-0.04,0.281l-0.04,0.279l-0.042,0.28l-0.042,0.279l-0.043,0.279l-0.044,0.279l-0.045,0.279l-0.045,0.278l-0.047,0.278l-0.047,0.277l-0.049,0.278l-0.049,0.277l-0.05,0.277l-0.05,0.276l-0.052,0.276l-0.053,0.276l-0.053,0.276l-0.054,0.275l-0.055,0.275l-0.056,0.275l-0.056,0.274l-0.058,0.274l-0.058,0.274l-0.059,0.273l-0.06,0.273l-0.061,0.273l-0.062,0.273l-0.062,0.272l-0.064,0.272l-0.064,0.271l-0.065,0.272l-0.065,0.271l-0.067,0.27l-0.067,0.271l-0.068,0.27l-0.069,0.269l-0.07,0.27l-0.071,0.269l-0.071,0.268l-0.073,0.269l-0.073,0.268l-0.074,0.267l-0.074,0.268l-0.076,0.267l-0.076,0.267l-0.077,0.266l-0.078,0.266l-0.078,0.266l-0.08,0.265l-0.08,0.265l-0.081,0.265l-0.082,0.264l-0.083,0.264l-0.083,0.263l-0.084,0.264l-0.085,0.263l-0.086,0.262l-0.087,0.262l-0.087,0.262l-0.088,0.262l-0.089,0.261l-0.09,0.261l-0.09,0.26l-0.091,0.26l-0.092,0.26l-0.093,0.259l-0.094,0.259l-0.094,0.259l-0.095,0.258l-0.096,0.258l-0.096,0.257l-0.098,0.257l-0.098,0.257l-0.099,0.256l-0.099,0.256l-0.101,0.256l-0.101,0.255l-0.102,0.255l-0.103,0.255l-0.103,0.254l-0.104,0.253l-0.105,0.254l-0.106,0.253l-0.106,0.252l-0.107,0.252l-0.108,0.252l-0.109,0.251l-0.109,0.251l-0.111,0.251l-0.111,0.25l-0.111,0.25l-0.112,0.249l-0.114,0.249l-0.113,0.248l-0.115,0.249l-0.115,0.247l-0.116,0.248l-0.117,0.247l-0.117,0.246l-0.119,0.246l-0.119,0.246l-0.119,0.245l-0.121,0.245l-0.121,0.244l-0.121,0.244l-0.123,0.244l-0.123,0.243l-0.124,0.243l-0.125,0.242l-0.125,0.242l-0.126,0.242l-0.127,0.241l-0.128,0.24l-0.128,0.241l-0.129,0.239l-0.129,0.24l-0.131,0.238l-0.131,0.239l-0.131,0.238l-0.133,0.237l-0.133,0.238l-0.134,0.236l-0.134,0.237l-0.135,0.235l-0.136,0.236l-0.137,0.235l-0.137,0.234l-0.138,0.234l-0.138,0.234l-0.14,0.233l-0.14,0.232l-0.14,0.232l-0.142,0.232l-0.142,0.231l-0.142,0.231l-0.144,0.231l-0.144,0.23l-0.145,0.229l-0.145,0.229l-0.146,0.228l-0.147,0.228l-0.147,0.228l-0.148,0.227l-0.149,0.227l-0.149,0.226l-0.15,0.225l-0.151,0.226l-0.151,0.224l-0.152,0.224l-0.153,0.224l-0.153,0.223l-0.154,0.223l-0.155,0.222l-0.155,0.222l-0.156,0.222l-0.157,0.22l-0.157,0.221l-0.158,0.22l-0.158,0.219l-0.16,0.219l-0.159,0.218l-0.161,0.218l-0.161,0.217l-0.162,0.217l-0.162,0.216l-0.163,0.216l-0.164,0.216l-0.164,0.215l-0.165,0.214l-0.165,0.214l-0.166,0.213l-0.167,0.213l-0.167,0.212l-0.168,0.212l-0.169,0.211l-0.169,0.211l-0.17,0.21l-0.171,0.21l-0.171,0.209l-0.171,0.209l-0.173,0.208l-0.173,0.207l-0.173,0.207l-0.174,0.207l-0.175,0.206l-0.175,0.205l-0.176,0.205l-0.177,0.205l-0.177,0.204l-0.178,0.203l-0.178,0.203l-0.179,0.202l-0.18,0.202l-0.18,0.201l-0.181,0.201l-0.181,0.2l-0.182,0.199l-0.182,0.199l-0.184,0.199l-0.183,0.198l-0.185,0.197l-0.184,0.197l-0.186,0.196l-0.186,0.196l-0.187,0.195l-0.187,0.194l-0.187,0.195l-0.189,0.193l-0.189,0.193l-0.189,0.192l-0.19,0.192l-0.191,0.191l-0.191,0.191l-0.192,0.19l-0.192,0.189l-0.193,0.189l-0.193,0.189l-0.195,0.187l-0.194,0.187l-0.195,0.187l-0.196,0.186l-0.196,0.186l-0.197,0.184l-0.197,0.185l-0.198,0.183l-0.199,0.184l-0.199,0.182l-0.199,0.182l-0.2,0.181l-0.201,0.181l-0.201,0.18l-0.202,0.18l-0.202,0.179l-0.203,0.178l-0.203,0.178l-0.204,0.177l-0.205,0.177l-0.205,0.176l-0.205,0.175l-0.206,0.175l-0.207,0.174l-0.207,0.173l-0.207,0.173l-0.208,0.173l-0.209,0.171l-0.209,0.171l-0.21,0.171l-0.21,0.17l-0.211,0.169l-0.211,0.169l-0.212,0.168l-0.212,0.167l-0.213,0.167l-0.213,0.166l-0.214,0.165l-0.214,0.165l-0.215,0.164l-0.216,0.164l-0.216,0.163l-0.216,0.162l-0.217,0.162l-0.217,0.161l-0.218,0.161l-0.218,0.159l-0.219,0.16l-0.219,0.158l-0.22,0.158l-0.221,0.157l-0.22,0.157l-0.222,0.156l-0.222,0.155l-0.222,0.155l-0.223,0.154l-0.223,0.153l-0.224,0.153l-0.224,0.152l-0.224,0.151l-0.226,0.151l-0.225,0.15l-0.226,0.149l-0.227,0.149l-0.227,0.148l-0.228,0.147l-0.228,0.147l-0.228,0.146l-0.229,0.145l-0.229,0.145l-0.23,0.144l-0.231,0.144l-0.231,0.142l-0.231,0.142l-0.232,0.142l-0.232,0.14l-0.232,0.14l-0.233,0.14l-0.234,0.138l-0.234,0.138l-0.234,0.137l-0.235,0.137l-0.236,0.136l-0.235,0.135l-0.237,0.134l-0.236,0.134l-0.238,0.133l-0.237,0.133l-0.238,0.131l-0.239,0.131l-0.238,0.131l-0.24,0.129l-0.239,0.129l-0.241,0.128l-0.24,0.128l-0.241,0.127l-0.242,0.126l-0.242,0.125l-0.242,0.125l-0.243,0.124l-0.243,0.123l-0.244,0.123l-0.244,0.121l-0.244,0.121l-0.245,0.121l-0.245,0.119l-0.246,0.119l-0.246,0.119l-0.246,0.117l-0.247,0.117l-0.248,0.116l-0.247,0.115l-0.249,0.115l-0.248,0.113l-0.249,0.114l-0.249,0.112l-0.25,0.111l-0.25,0.111l-0.251,0.111l-0.251,0.109l-0.251,0.109l-0.252,0.108l-0.252,0.107l-0.252,0.106l-0.253,0.106l-0.254,0.105l-0.253,0.104l-0.254,0.103l-0.255,0.103l-0.255,0.102l-0.255,0.101l-0.256,0.101l-0.256,0.099l-0.256,0.099l-0.257,0.098l-0.257,0.098l-0.257,0.096l-0.258,0.096l-0.258,0.095l-0.259,0.094l-0.259,0.094l-0.259,0.093l-0.26,0.092l-0.26,0.091l-0.26,0.09l-0.261,0.09l-0.261,0.089l-0.262,0.088l-0.262,0.087l-0.262,0.087l-0.262,0.086l-0.263,0.085l-0.264,0.084l-0.263,0.083l-0.264,0.083l-0.264,0.082l-0.265,0.081l-0.265,0.08l-0.265,0.08l-0.266,0.078l-0.266,0.078l-0.266,0.077l-0.267,0.076l-0.267,0.076l-0.268,0.074l-0.267,0.074l-0.268,0.073l-0.269,0.073l-0.268,0.071l-0.269,0.071l-0.27,0.07l-0.269,0.069l-0.27,0.068l-0.271,0.067l-0.27,0.067l-0.271,0.065l-0.272,0.065l-0.271,0.064l-0.272,0.064l-0.272,0.062l-0.273,0.062l-0.273,0.061l-0.273,0.06l-0.273,0.059l-0.274,0.058l-0.274,0.058l-0.274,0.056l-0.275,0.056l-0.275,0.055l-0.275,0.054l-0.276,0.053l-0.276,0.053l-0.276,0.052l-0.276,0.05l-0.277,0.05l-0.277,0.049l-0.278,0.049l-0.277,0.047l-0.278,0.047l-0.278,0.045l-0.279,0.045l-0.279,0.044l-0.279,0.043l-0.279,0.042l-0.28,0.042l-0.279,0.04l-0.281,0.04l-0.28,0.039l-0.281,0.038l-0.281,0.037l-0.281,0.036l-0.281,0.036l-0.282,0.034l-0.282,0.034l-0.283,0.033l-0.282,0.032l-0.283,0.031l-0.283,0.03l-0.284,0.029l-0.283,0.028l-0.284,0.028l-0.284,0.026l-0.285,0.026l-0.284,0.025l-0.285,0.024l-0.285,0.023l-0.286,0.022l-0.285,0.022l-0.286,0.02l-0.286,0.02l-0.287,0.018l-0.286,0.018l-0.287,0.017l-0.287,0.016l-0.288,0.015l-0.287,0.014l-0.288,0.013l-0.288,0.013l-0.288,0.011l-0.289,0.01l-0.288,0.01l-0.289,0.009l-0.29,0.008l-0.289,0.006l-0.29,0.006l-0.289,0.005l-0.291,0.005l-0.29,0.003l-0.29,0.002l-0.291,0.002l-0.291,0l-380,0l-0.291,0l-0.291,-0.002l-0.29,-0.002l-0.29,-0.003l-0.291,-0.005l-0.289,-0.005l-0.29,-0.006l-0.289,-0.006l-0.29,-0.008l-0.289,-0.009l-0.288,-0.01l-0.289,-0.01l-0.288,-0.011l-0.288,-0.013l-0.288,-0.013l-0.287,-0.014l-0.288,-0.015l-0.287,-0.016l-0.287,-0.017l-0.286,-0.018l-0.287,-0.018l-0.286,-0.02l-0.286,-0.02l-0.285,-0.022l-0.286,-0.022l-0.285,-0.023l-0.285,-0.024l-0.284,-0.025l-0.285,-0.026l-0.284,-0.026l-0.284,-0.028l-0.283,-0.028l-0.284,-0.029l-0.283,-0.03l-0.283,-0.031l-0.282,-0.032l-0.283,-0.033l-0.282,-0.034l-0.282,-0.034l-0.281,-0.036l-0.281,-0.036l-0.281,-0.037l-0.281,-0.038l-0.28,-0.039l-0.281,-0.04l-0.279,-0.04l-0.28,-0.042l-0.279,-0.042l-0.279,-0.043l-0.279,-0.044l-0.279,-0.045l-0.278,-0.045l-0.278,-0.047l-0.277,-0.047l-0.278,-0.049l-0.277,-0.049l-0.277,-0.05l-0.276,-0.05l-0.276,-0.052l-0.276,-0.053l-0.276,-0.053l-0.275,-0.054l-0.275,-0.055l-0.275,-0.056l-0.274,-0.056l-0.274,-0.058l-0.274,-0.058l-0.273,-0.059l-0.273,-0.06l-0.273,-0.061l-0.273,-0.062l-0.272,-0.062l-0.272,-0.064l-0.271,-0.064l-0.272,-0.065l-0.271,-0.065l-0.27,-0.067l-0.271,-0.067l-0.27,-0.068l-0.269,-0.069l-0.27,-0.07l-0.269,-0.071l-0.268,-0.071l-0.269,-0.073l-0.268,-0.073l-0.267,-0.074l-0.268,-0.074l-0.267,-0.076l-0.267,-0.076l-0.266,-0.077l-0.266,-0.078l-0.266,-0.078l-0.265,-0.08l-0.265,-0.08l-0.265,-0.081l-0.264,-0.082l-0.264,-0.083l-0.263,-0.083l-0.264,-0.084l-0.263,-0.085l-0.262,-0.086l-0.262,-0.087l-0.262,-0.087l-0.262,-0.088l-0.261,-0.089l-0.261,-0.09l-0.26,-0.09l-0.26,-0.091l-0.26,-0.092l-0.259,-0.093l-0.259,-0.094l-0.259,-0.094l-0.258,-0.095l-0.258,-0.096l-0.257,-0.096l-0.257,-0.098l-0.257,-0.098l-0.256,-0.099l-0.256,-0.099l-0.256,-0.101l-0.255,-0.101l-0.255,-0.102l-0.255,-0.103l-0.254,-0.103l-0.253,-0.104l-0.254,-0.105l-0.253,-0.106l-0.252,-0.106l-0.252,-0.107l-0.252,-0.108l-0.251,-0.109l-0.251,-0.109l-0.251,-0.111l-0.25,-0.111l-0.25,-0.111l-0.249,-0.112l-0.249,-0.114l-0.248,-0.113l-0.249,-0.115l-0.247,-0.115l-0.248,-0.116l-0.247,-0.117l-0.246,-0.117l-0.246,-0.119l-0.246,-0.119l-0.245,-0.119l-0.245,-0.121l-0.244,-0.121l-0.244,-0.121l-0.244,-0.123l-0.243,-0.123l-0.243,-0.124l-0.242,-0.125l-0.242,-0.125l-0.242,-0.126l-0.241,-0.127l-0.24,-0.128l-0.241,-0.128l-0.239,-0.129l-0.24,-0.129l-0.238,-0.131l-0.239,-0.131l-0.238,-0.131l-0.237,-0.133l-0.238,-0.133l-0.236,-0.134l-0.237,-0.134l-0.235,-0.135l-0.236,-0.136l-0.235,-0.137l-0.234,-0.137l-0.234,-0.138l-0.234,-0.138l-0.233,-0.14l-0.232,-0.14l-0.232,-0.14l-0.232,-0.142l-0.231,-0.142l-0.231,-0.142l-0.231,-0.144l-0.23,-0.144l-0.229,-0.145l-0.229,-0.145l-0.228,-0.146l-0.228,-0.147l-0.228,-0.147l-0.227,-0.148l-0.227,-0.149l-0.226,-0.149l-0.225,-0.15l-0.226,-0.151l-0.224,-0.151l-0.224,-0.152l-0.224,-0.153l-0.223,-0.153l-0.223,-0.154l-0.222,-0.155l-0.222,-0.155l-0.222,-0.156l-0.22,-0.157l-0.221,-0.157l-0.22,-0.158l-0.219,-0.158l-0.219,-0.16l-0.218,-0.159l-0.218,-0.161l-0.217,-0.161l-0.217,-0.162l-0.216,-0.162l-0.216,-0.163l-0.216,-0.164l-0.215,-0.164l-0.214,-0.165l-0.214,-0.165l-0.213,-0.166l-0.213,-0.167l-0.212,-0.167l-0.212,-0.168l-0.211,-0.169l-0.211,-0.169l-0.21,-0.17l-0.21,-0.171l-0.209,-0.171l-0.209,-0.171l-0.208,-0.173l-0.207,-0.173l-0.207,-0.173l-0.207,-0.174l-0.206,-0.175l-0.205,-0.175l-0.205,-0.176l-0.205,-0.177l-0.204,-0.177l-0.203,-0.178l-0.203,-0.178l-0.202,-0.179l-0.202,-0.18l-0.201,-0.18l-0.201,-0.181l-0.2,-0.181l-0.199,-0.182l-0.199,-0.182l-0.199,-0.184l-0.198,-0.183l-0.197,-0.185l-0.197,-0.184l-0.196,-0.186l-0.196,-0.186l-0.195,-0.187l-0.194,-0.187l-0.195,-0.187l-0.193,-0.189l-0.193,-0.189l-0.192,-0.189l-0.192,-0.19l-0.191,-0.191l-0.191,-0.191l-0.19,-0.192l-0.189,-0.192l-0.189,-0.193l-0.189,-0.193l-0.187,-0.195l-0.187,-0.194l-0.187,-0.195l-0.186,-0.196l-0.186,-0.196l-0.184,-0.197l-0.185,-0.197l-0.183,-0.198l-0.184,-0.199l-0.182,-0.199l-0.182,-0.199l-0.181,-0.2l-0.181,-0.201l-0.18,-0.201l-0.18,-0.202l-0.179,-0.202l-0.178,-0.203l-0.178,-0.203l-0.177,-0.204l-0.177,-0.205l-0.176,-0.205l-0.175,-0.205l-0.175,-0.206l-0.174,-0.207l-0.173,-0.207l-0.173,-0.207l-0.173,-0.208l-0.171,-0.209l-0.171,-0.209l-0.171,-0.21l-0.17,-0.21l-0.169,-0.211l-0.169,-0.211l-0.168,-0.212l-0.167,-0.212l-0.167,-0.213l-0.166,-0.213l-0.165,-0.214l-0.165,-0.214l-0.164,-0.215l-0.164,-0.216l-0.163,-0.216l-0.162,-0.216l-0.162,-0.217l-0.161,-0.217l-0.161,-0.218l-0.159,-0.218l-0.16,-0.219l-0.158,-0.219l-0.158,-0.22l-0.157,-0.221l-0.157,-0.22l-0.156,-0.222l-0.155,-0.222l-0.155,-0.222l-0.154,-0.223l-0.153,-0.223l-0.153,-0.224l-0.152,-0.224l-0.151,-0.224l-0.151,-0.226l-0.15,-0.225l-0.149,-0.226l-0.149,-0.227l-0.148,-0.227l-0.147,-0.228l-0.147,-0.228l-0.146,-0.228l-0.145,-0.229l-0.145,-0.229l-0.144,-0.23l-0.144,-0.231l-0.142,-0.231l-0.142,-0.231l-0.142,-0.232l-0.14,-0.232l-0.14,-0.232l-0.14,-0.233l-0.138,-0.234l-0.138,-0.234l-0.137,-0.234l-0.137,-0.235l-0.136,-0.236l-0.135,-0.235l-0.134,-0.237l-0.134,-0.236l-0.133,-0.238l-0.133,-0.237l-0.131,-0.238l-0.131,-0.239l-0.131,-0.238l-0.129,-0.24l-0.129,-0.239l-0.128,-0.241l-0.128,-0.24l-0.127,-0.241l-0.126,-0.242l-0.125,-0.242l-0.125,-0.242l-0.124,-0.243l-0.123,-0.243l-0.123,-0.244l-0.121,-0.244l-0.121,-0.244l-0.121,-0.245l-0.119,-0.245l-0.119,-0.246l-0.119,-0.246l-0.117,-0.246l-0.117,-0.247l-0.116,-0.248l-0.115,-0.247l-0.115,-0.249l-0.113,-0.248l-0.114,-0.249l-0.112,-0.249l-0.111,-0.25l-0.111,-0.25l-0.111,-0.251l-0.109,-0.251l-0.109,-0.251l-0.108,-0.252l-0.107,-0.252l-0.106,-0.252l-0.106,-0.253l-0.105,-0.254l-0.104,-0.253l-0.103,-0.254l-0.103,-0.255l-0.102,-0.255l-0.101,-0.255l-0.101,-0.256l-0.099,-0.256l-0.099,-0.256l-0.098,-0.257l-0.098,-0.257l-0.096,-0.257l-0.096,-0.258l-0.095,-0.258l-0.094,-0.259l-0.094,-0.259l-0.093,-0.259l-0.092,-0.26l-0.091,-0.26l-0.09,-0.26l-0.09,-0.261l-0.089,-0.261l-0.088,-0.262l-0.087,-0.262l-0.087,-0.262l-0.086,-0.262l-0.085,-0.263l-0.084,-0.264l-0.083,-0.263l-0.083,-0.264l-0.082,-0.264l-0.081,-0.265l-0.08,-0.265l-0.08,-0.265l-0.078,-0.266l-0.078,-0.266l-0.077,-0.266l-0.076,-0.267l-0.076,-0.267l-0.074,-0.268l-0.074,-0.267l-0.073,-0.268l-0.073,-0.269l-0.071,-0.268l-0.071,-0.269l-0.07,-0.27l-0.069,-0.269l-0.068,-0.27l-0.067,-0.271l-0.067,-0.27l-0.065,-0.271l-0.065,-0.272l-0.064,-0.271l-0.064,-0.272l-0.062,-0.272l-0.062,-0.273l-0.061,-0.273l-0.06,-0.273l-0.059,-0.273l-0.058,-0.274l-0.058,-0.274l-0.056,-0.274l-0.056,-0.275l-0.055,-0.275l-0.054,-0.275l-0.053,-0.276l-0.053,-0.276l-0.052,-0.276l-0.05,-0.276l-0.05,-0.277l-0.049,-0.277l-0.049,-0.278l-0.047,-0.277l-0.047,-0.278l-0.045,-0.278l-0.045,-0.279l-0.044,-0.279l-0.043,-0.279l-0.042,-0.279l-0.042,-0.28l-0.04,-0.279l-0.04,-0.281l-0.039,-0.28l-0.038,-0.281l-0.037,-0.281l-0.036,-0.281l-0.036,-0.281l-0.034,-0.282l-0.034,-0.282l-0.033,-0.283l-0.032,-0.282l-0.031,-0.283l-0.03,-0.283l-0.029,-0.284l-0.028,-0.283l-0.028,-0.284l-0.026,-0.284l-0.026,-0.285l-0.025,-0.284l-0.024,-0.285l-0.023,-0.285l-0.022,-0.286l-0.022,-0.285l-0.02,-0.286l-0.02,-0.286l-0.018,-0.287l-0.018,-0.286l-0.017,-0.287l-0.016,-0.287l-0.015,-0.288l-0.014,-0.287l-0.013,-0.288l-0.013,-0.288l-0.011,-0.288l-0.01,-0.289l-0.01,-0.288l-0.009,-0.289l-0.008,-0.29l-0.006,-0.289l-0.006,-0.29l-0.005,-0.289l-0.005,-0.291l-0.003,-0.29l-0.002,-0.29l-0.002,-0.291l0,-0.291l0,-180l0,-0.291l0.002,-0.291l0.002,-0.29l0.003,-0.29l0.005,-0.291l0.005,-0.289l0.006,-0.29l0.006,-0.289l0.008,-0.29l0.009,-0.289l0.01,-0.288l0.01,-0.289l0.011,-0.288l0.013,-0.288l0.013,-0.288l0.014,-0.287l0.015,-0.288l0.016,-0.287l0.017,-0.287l0.018,-0.286l0.018,-0.287l0.02,-0.286l0.02,-0.286l0.022,-0.285l0.022,-0.286l0.023,-0.285l0.024,-0.285l0.025,-0.284l0.026,-0.285l0.026,-0.284l0.028,-0.284l0.028,-0.283l0.029,-0.284l0.03,-0.283l0.031,-0.283l0.032,-0.282l0.033,-0.283l0.034,-0.282l0.034,-0.282l0.036,-0.281l0.036,-0.281l0.037,-0.281l0.038,-0.281l0.039,-0.28l0.04,-0.281l0.04,-0.279l0.042,-0.28l0.042,-0.279l0.043,-0.279l0.044,-0.279l0.045,-0.279l0.045,-0.278l0.047,-0.278l0.047,-0.277l0.049,-0.278l0.049,-0.277l0.05,-0.277l0.05,-0.276l0.052,-0.276l0.053,-0.276l0.053,-0.276l0.054,-0.275l0.055,-0.275l0.056,-0.275l0.056,-0.274l0.058,-0.274l0.058,-0.274l0.059,-0.273l0.06,-0.273l0.061,-0.273l0.062,-0.273l0.062,-0.272l0.064,-0.272l0.064,-0.271l0.065,-0.272l0.065,-0.271l0.067,-0.27l0.067,-0.271l0.068,-0.27l0.069,-0.269l0.07,-0.27l0.071,-0.269l0.071,-0.268l0.073,-0.269l0.073,-0.268l0.074,-0.267l0.074,-0.268l0.076,-0.267l0.076,-0.267l0.077,-0.266l0.078,-0.266l0.078,-0.266l0.08,-0.265l0.08,-0.265l0.081,-0.265l0.082,-0.264l0.083,-0.264l0.083,-0.263l0.084,-0.264l0.085,-0.263l0.086,-0.262l0.087,-0.262l0.087,-0.262l0.088,-0.262l0.089,-0.261l0.09,-0.261l0.09,-0.26l0.091,-0.26l0.092,-0.26l0.093,-0.259l0.094,-0.259l0.094,-0.259l0.095,-0.258l0.096,-0.258l0.096,-0.257l0.098,-0.257l0.098,-0.257l0.099,-0.256l0.099,-0.256l0.101,-0.256l0.101,-0.255l0.102,-0.255l0.103,-0.255l0.103,-0.254l0.104,-0.253l0.105,-0.254l0.106,-0.253l0.106,-0.252l0.107,-0.252l0.108,-0.252l0.109,-0.251l0.109,-0.251l0.111,-0.251l0.111,-0.25l0.111,-0.25l0.112,-0.249l0.114,-0.249l0.113,-0.248l0.115,-0.249l0.115,-0.247l0.116,-0.248l0.117,-0.247l0.117,-0.246l0.119,-0.246l0.119,-0.246l0.119,-0.245l0.121,-0.245l0.121,-0.244l0.121,-0.244l0.123,-0.244l0.123,-0.243l0.124,-0.243l0.125,-0.242l0.125,-0.242l0.126,-0.242l0.127,-0.241l0.128,-0.24l0.128,-0.241l0.129,-0.239l0.129,-0.24l0.131,-0.238l0.131,-0.239l0.131,-0.238l0.133,-0.237l0.133,-0.238l0.134,-0.236l0.134,-0.237l0.135,-0.235l0.136,-0.236l0.137,-0.235l0.137,-0.234l0.138,-0.234l0.138,-0.234l0.14,-0.233l0.14,-0.232l0.14,-0.232l0.142,-0.232l0.142,-0.231l0.142,-0.231l0.144,-0.231l0.144,-0.23l0.145,-0.229l0.145,-0.229l0.146,-0.228l0.147,-0.228l0.147,-0.228l0.148,-0.227l0.149,-0.227l0.149,-0.226l0.15,-0.225l0.151,-0.226l0.151,-0.224l0.152,-0.224l0.153,-0.224l0.153,-0.223l0.154,-0.223l0.155,-0.222l0.155,-0.222l0.156,-0.222l0.157,-0.22l0.157,-0.221l0.158,-0.22l0.158,-0.219l0.16,-0.219l0.159,-0.218l0.161,-0.218l0.161,-0.217l0.162,-0.217l0.162,-0.216l0.163,-0.216l0.164,-0.216l0.164,-0.215l0.165,-0.214l0.165,-0.214l0.166,-0.213l0.167,-0.213l0.167,-0.212l0.168,-0.212l0.169,-0.211l0.169,-0.211l0.17,-0.21l0.171,-0.21l0.171,-0.209l0.171,-0.209l0.173,-0.208l0.173,-0.207l0.173,-0.207l0.174,-0.207l0.175,-0.206l0.175,-0.205l0.176,-0.205l0.177,-0.205l0.177,-0.204l0.178,-0.203l0.178,-0.203l0.179,-0.202l0.18,-0.202l0.18,-0.201l0.181,-0.201l0.181,-0.2l0.182,-0.199l0.182,-0.199l0.184,-0.199l0.183,-0.198l0.185,-0.197l0.184,-0.197l0.186,-0.196l0.186,-0.196l0.187,-0.195l0.187,-0.194l0.187,-0.195l0.189,-0.193l0.189,-0.193l0.189,-0.192l0.19,-0.192l0.191,-0.191l0.191,-0.191l0.192,-0.19l0.192,-0.189l0.193,-0.189l0.193,-0.189l0.195,-0.187l0.194,-0.187l0.195,-0.187l0.196,-0.186l0.196,-0.186l0.197,-0.184l0.197,-0.185l0.198,-0.183l0.199,-0.184l0.199,-0.182l0.199,-0.182l0.2,-0.181l0.201,-0.181l0.201,-0.18l0.202,-0.18l0.202,-0.179l0.203,-0.178l0.203,-0.178l0.204,-0.177l0.205,-0.177l0.205,-0.176l0.205,-0.175l0.206,-0.175l0.207,-0.174l0.207,-0.173l0.207,-0.173l0.208,-0.173l0.209,-0.171l0.209,-0.171l0.21,-0.171l0.21,-0.17l0.211,-0.169l0.211,-0.169l0.212,-0.168l0.212,-0.167l0.213,-0.167l0.213,-0.166l0.214,-0.165l0.214,-0.165l0.215,-0.164l0.216,-0.164l0.216,-0.163l0.216,-0.162l0.217,-0.162l0.217,-0.161l0.218,-0.161l0.218,-0.159l0.219,-0.16l0.219,-0.158l0.22,-0.158l0.221,-0.157l0.22,-0.157l0.222,-0.156l0.222,-0.155l0.222,-0.155l0.223,-0.154l0.223,-0.153l0.224,-0.153l0.224,-0.152l0.224,-0.151l0.226,-0.151l0.225,-0.15l0.226,-0.149l0.227,-0.149l0.227,-0.148l0.228,-0.147l0.228,-0.147l0.228,-0.146l0.229,-0.145l0.229,-0.145l0.23,-0.144l0.231,-0.144l0.231,-0.142l0.231,-0.142l0.232,-0.142l0.232,-0.14l0.232,-0.14l0.233,-0.14l0.234,-0.138l0.234,-0.138l0.234,-0.137l0.235,-0.137l0.236,-0.136l0.235,-0.135l0.237,-0.134l0.236,-0.134l0.238,-0.133l0.237,-0.133l0.238,-0.131l0.239,-0.131l0.238,-0.131l0.24,-0.129l0.239,-0.129l0.241,-0.128l0.24,-0.128l0.241,-0.127l0.242,-0.126l0.242,-0.125l0.242,-0.125l0.243,-0.124l0.243,-0.123l0.244,-0.123l0.244,-0.121l0.244,-0.121l0.245,-0.121l0.245,-0.119l0.246,-0.119l0.246,-0.119l0.246,-0.117l0.247,-0.117l0.248,-0.116l0.247,-0.115l0.249,-0.115l0.248,-0.113l0.249,-0.114l0.249,-0.112l0.25,-0.111l0.25,-0.111l0.251,-0.111l0.251,-0.109l0.251,-0.109l0.252,-0.108l0.252,-0.107l0.252,-0.106l0.253,-0.106l0.254,-0.105l0.253,-0.104l0.254,-0.103l0.255,-0.103l0.255,-0.102l0.255,-0.101l0.256,-0.101l0.256,-0.099l0.256,-0.099l0.257,-0.098l0.257,-0.098l0.257,-0.096l0.258,-0.096l0.258,-0.095l0.259,-0.094l0.259,-0.094l0.259,-0.093l0.26,-0.092l0.26,-0.091l0.26,-0.09l0.261,-0.09l0.261,-0.089l0.262,-0.088l0.262,-0.087l0.262,-0.087l0.262,-0.086l0.263,-0.085l0.264,-0.084l0.263,-0.083l0.264,-0.083l0.264,-0.082l0.265,-0.081l0.265,-0.08l0.265,-0.08l0.266,-0.078l0.266,-0.078l0.266,-0.077l0.267,-0.076l0.267,-0.076l0.268,-0.074l0.267,-0.074l0.268,-0.073l0.269,-0.073l0.268,-0.071l0.269,-0.071l0.27,-0.07l0.269,-0.069l0.27,-0.068l0.271,-0.067l0.27,-0.067l0.271,-0.065l0.272,-0.065l0.271,-0.064l0.272,-0.064l0.272,-0.062l0.273,-0.062l0.273,-0.061l0.273,-0.06l0.273,-0.059l0.274,-0.058l0.274,-0.058l0.274,-0.056l0.275,-0.056l0.275,-0.055l0.275,-0.054l0.276,-0.053l0.276,-0.053l0.276,-0.052l0.276,-0.05l0.277,-0.05l0.277,-0.049l0.278,-0.049l0.277,-0.047l0.278,-0.047l0.278,-0.045l0.279,-0.045l0.279,-0.044l0.279,-0.043l0.279,-0.042l0.28,-0.042l0.279,-0.04l0.281,-0.04l0.28,-0.039l0.281,-0.038l0.281,-0.037l0.281,-0.036l0.281,-0.036l0.282,-0.034l0.282,-0.034l0.283,-0.033l0.282,-0.032l0.283,-0.031l0.283,-0.03l0.284,-0.029l0.283,-0.028l0.284,-0.028l0.284,-0.026l0.285,-0.026l0.284,-0.025l0.285,-0.024l0.285,-0.023l0.286,-0.022l0.285,-0.022l0.286,-0.02l0.286,-0.02l0.287,-0.018l0.286,-0.018l0.287,-0.017l0.287,-0.016l0.288,-0.015l0.287,-0.014l0.288,-0.013l0.288,-0.013l0.288,-0.011l0.289,-0.01l0.288,-0.01l0.289,-0.009l0.29,-0.008l0.289,-0.006l0.29,-0.006l0.289,-0.005l0.291,-0.005l0.29,-0.003l0.29,-0.002l0.291,-0.002l0.291,0l380,0l0.291,0Zm-380.267,30l-0.22,0l-0.195,0.001l-0.196,0.002l-0.195,0.002l-0.195,0.003l-0.195,0.003l-0.194,0.004l-0.195,0.005l-0.194,0.005l-0.194,0.006l-0.193,0.006l-0.194,0.007l-0.193,0.008l-0.193,0.008l-0.193,0.009l-0.193,0.01l-0.192,0.01l-0.192,0.01l-0.192,0.012l-0.192,0.012l-0.192,0.012l-0.191,0.013l-0.191,0.014l-0.192,0.014l-0.19,0.015l-0.19,0.015l-0.191,0.016l-0.19,0.017l-0.19,0.017l-0.19,0.018l-0.189,0.018l-0.19,0.019l-0.189,0.02l-0.189,0.02l-0.188,0.021l-0.189,0.021l-0.188,0.022l-0.188,0.022l-0.188,0.023l-0.187,0.024l-0.188,0.024l-0.187,0.025l-0.187,0.025l-0.187,0.026l-0.186,0.026l-0.187,0.027l-0.186,0.028l-0.186,0.028l-0.185,0.029l-0.186,0.029l-0.185,0.03l-0.186,0.03l-0.184,0.031l-0.185,0.032l-0.184,0.032l-0.185,0.032l-0.184,0.034l-0.183,0.033l-0.184,0.035l-0.184,0.035l-0.183,0.035l-0.183,0.036l-0.183,0.036l-0.182,0.038l-0.182,0.037l-0.182,0.038l-0.182,0.039l-0.182,0.039l-0.182,0.04l-0.181,0.041l-0.181,0.041l-0.18,0.041l-0.181,0.042l-0.181,0.043l-0.18,0.043l-0.179,0.043l-0.18,0.045l-0.18,0.044l-0.179,0.046l-0.179,0.046l-0.179,0.046l-0.179,0.047l-0.178,0.047l-0.178,0.048l-0.178,0.049l-0.178,0.049l-0.177,0.049l-0.178,0.05l-0.177,0.051l-0.177,0.051l-0.176,0.052l-0.176,0.052l-0.176,0.053l-0.176,0.053l-0.176,0.054l-0.175,0.054l-0.176,0.055l-0.175,0.055l-0.175,0.056l-0.174,0.057l-0.174,0.057l-0.174,0.057l-0.175,0.058l-0.173,0.059l-0.173,0.059l-0.173,0.059l-0.173,0.06l-0.173,0.061l-0.173,0.061l-0.172,0.062l-0.172,0.062l-0.171,0.062l-0.172,0.063l-0.171,0.064l-0.171,0.064l-0.171,0.065l-0.171,0.065l-0.17,0.066l-0.17,0.066l-0.17,0.067l-0.169,0.067l-0.17,0.068l-0.168,0.068l-0.17,0.069l-0.168,0.069l-0.169,0.07l-0.168,0.07l-0.167,0.07l-0.168,0.072l-0.167,0.071l-0.167,0.073l-0.167,0.072l-0.167,0.074l-0.166,0.073l-0.166,0.075l-0.166,0.074l-0.166,0.076l-0.165,0.075l-0.165,0.076l-0.165,0.077l-0.164,0.077l-0.164,0.078l-0.165,0.078l-0.163,0.079l-0.164,0.079l-0.163,0.08l-0.162,0.079l-0.163,0.081l-0.163,0.081l-0.162,0.082l-0.162,0.082l-0.161,0.082l-0.161,0.083l-0.162,0.084l-0.16,0.084l-0.161,0.084l-0.161,0.085l-0.159,0.085l-0.16,0.086l-0.159,0.086l-0.16,0.087l-0.158,0.088l-0.158,0.087l-0.159,0.088l-0.158,0.089l-0.158,0.09l-0.158,0.089l-0.156,0.09l-0.157,0.09l-0.157,0.092l-0.156,0.091l-0.156,0.092l-0.156,0.093l-0.155,0.092l-0.156,0.094l-0.154,0.094l-0.154,0.094l-0.155,0.095l-0.154,0.095l-0.154,0.095l-0.153,0.096l-0.153,0.097l-0.153,0.097l-0.152,0.097l-0.152,0.098l-0.152,0.099l-0.152,0.098l-0.151,0.1l-0.151,0.1l-0.151,0.1l-0.15,0.1l-0.15,0.101l-0.15,0.102l-0.149,0.102l-0.149,0.102l-0.149,0.103l-0.148,0.103l-0.148,0.104l-0.148,0.104l-0.148,0.105l-0.147,0.104l-0.147,0.106l-0.146,0.106l-0.147,0.106l-0.146,0.108l-0.145,0.106l-0.145,0.108l-0.145,0.108l-0.144,0.108l-0.145,0.11l-0.144,0.109l-0.143,0.109l-0.144,0.111l-0.142,0.11l-0.143,0.111l-0.143,0.112l-0.141,0.112l-0.142,0.112l-0.141,0.113l-0.141,0.113l-0.141,0.114l-0.14,0.113l-0.139,0.115l-0.14,0.115l-0.139,0.115l-0.14,0.116l-0.138,0.116l-0.138,0.116l-0.138,0.117l-0.137,0.118l-0.137,0.117l-0.137,0.118l-0.136,0.119l-0.137,0.119l-0.135,0.119l-0.135,0.119l-0.135,0.121l-0.135,0.12l-0.134,0.121l-0.134,0.121l-0.134,0.123l-0.133,0.121l-0.132,0.123l-0.133,0.123l-0.132,0.123l-0.132,0.124l-0.131,0.124l-0.131,0.124l-0.131,0.126l-0.129,0.124l-0.13,0.126l-0.13,0.126l-0.129,0.126l-0.129,0.128l-0.128,0.127l-0.128,0.127l-0.127,0.128l-0.127,0.128l-0.128,0.129l-0.126,0.129l-0.126,0.13l-0.125,0.129l-0.126,0.131l-0.125,0.13l-0.124,0.131l-0.124,0.131l-0.124,0.132l-0.123,0.132l-0.123,0.133l-0.123,0.132l-0.122,0.133l-0.121,0.134l-0.122,0.134l-0.12,0.134l-0.121,0.135l-0.121,0.135l-0.119,0.135l-0.119,0.136l-0.119,0.136l-0.119,0.136l-0.118,0.137l-0.117,0.137l-0.118,0.137l-0.117,0.138l-0.116,0.138l-0.116,0.139l-0.116,0.139l-0.115,0.138l-0.115,0.14l-0.115,0.14l-0.113,0.14l-0.114,0.141l-0.113,0.141l-0.113,0.141l-0.112,0.142l-0.112,0.142l-0.112,0.142l-0.11,0.142l-0.111,0.143l-0.111,0.144l-0.109,0.143l-0.11,0.144l-0.109,0.144l-0.108,0.145l-0.108,0.145l-0.107,0.145l-0.108,0.146l-0.107,0.145l-0.106,0.147l-0.106,0.147l-0.105,0.146l-0.105,0.147l-0.105,0.148l-0.104,0.148l-0.104,0.148l-0.103,0.148l-0.103,0.149l-0.102,0.149l-0.102,0.15l-0.102,0.149l-0.101,0.15l-0.1,0.15l-0.101,0.151l-0.099,0.151l-0.099,0.151l-0.099,0.152l-0.099,0.152l-0.098,0.152l-0.097,0.152l-0.097,0.153l-0.097,0.153l-0.096,0.153l-0.095,0.154l-0.096,0.154l-0.094,0.154l-0.094,0.155l-0.094,0.155l-0.094,0.155l-0.092,0.155l-0.093,0.156l-0.092,0.156l-0.091,0.156l-0.091,0.157l-0.091,0.156l-0.09,0.158l-0.09,0.157l-0.089,0.158l-0.089,0.158l-0.088,0.158l-0.087,0.159l-0.088,0.159l-0.087,0.159l-0.086,0.159l-0.086,0.16l-0.085,0.16l-0.085,0.16l-0.084,0.161l-0.084,0.16l-0.084,0.161l-0.083,0.162l-0.082,0.161l-0.082,0.162l-0.082,0.162l-0.081,0.163l-0.08,0.162l-0.081,0.163l-0.079,0.163l-0.079,0.164l-0.079,0.164l-0.078,0.164l-0.078,0.164l-0.077,0.165l-0.077,0.164l-0.076,0.165l-0.075,0.165l-0.076,0.166l-0.074,0.166l-0.075,0.166l-0.073,0.166l-0.074,0.167l-0.072,0.167l-0.073,0.167l-0.071,0.167l-0.071,0.168l-0.071,0.167l-0.07,0.169l-0.07,0.168l-0.07,0.169l-0.068,0.169l-0.068,0.168l-0.068,0.169l-0.067,0.17l-0.067,0.17l-0.066,0.17l-0.066,0.171l-0.065,0.17l-0.065,0.171l-0.064,0.171l-0.064,0.171l-0.063,0.171l-0.062,0.172l-0.063,0.172l-0.061,0.172l-0.061,0.173l-0.061,0.172l-0.06,0.173l-0.059,0.174l-0.059,0.173l-0.059,0.174l-0.058,0.173l-0.057,0.174l-0.057,0.175l-0.057,0.174l-0.056,0.175l-0.055,0.175l-0.055,0.176l-0.054,0.175l-0.054,0.176l-0.053,0.175l-0.053,0.177l-0.052,0.176l-0.052,0.177l-0.051,0.176l-0.051,0.177l-0.05,0.178l-0.049,0.177l-0.049,0.178l-0.049,0.178l-0.048,0.178l-0.047,0.179l-0.047,0.178l-0.046,0.179l-0.046,0.179l-0.046,0.179l-0.044,0.18l-0.045,0.179l-0.043,0.18l-0.043,0.181l-0.043,0.18l-0.042,0.18l-0.041,0.181l-0.041,0.181l-0.041,0.182l-0.04,0.181l-0.039,0.182l-0.039,0.181l-0.038,0.183l-0.037,0.182l-0.038,0.183l-0.036,0.182l-0.036,0.183l-0.035,0.183l-0.035,0.184l-0.035,0.183l-0.033,0.184l-0.034,0.184l-0.032,0.185l-0.032,0.184l-0.032,0.185l-0.031,0.185l-0.03,0.185l-0.03,0.185l-0.029,0.185l-0.029,0.186l-0.028,0.186l-0.028,0.186l-0.027,0.187l-0.026,0.186l-0.026,0.187l-0.026,0.187l-0.024,0.187l-0.024,0.188l-0.024,0.187l-0.023,0.188l-0.022,0.188l-0.022,0.188l-0.022,0.189l-0.02,0.189l-0.02,0.188l-0.02,0.189l-0.019,0.19l-0.018,0.189l-0.018,0.19l-0.017,0.19l-0.017,0.19l-0.016,0.19l-0.015,0.191l-0.015,0.191l-0.014,0.191l-0.014,0.191l-0.013,0.191l-0.012,0.192l-0.012,0.192l-0.012,0.192l-0.01,0.192l-0.01,0.192l-0.01,0.193l-0.009,0.193l-0.008,0.193l-0.008,0.193l-0.007,0.194l-0.006,0.193l-0.006,0.194l-0.005,0.194l-0.005,0.195l-0.004,0.194l-0.003,0.195l-0.003,0.195l-0.002,0.195l-0.002,0.196l-0.001,0.195l0,0.22l0,179.952l0,0.22l0.001,0.195l0.002,0.196l0.002,0.195l0.003,0.195l0.003,0.195l0.004,0.194l0.005,0.195l0.005,0.194l0.006,0.194l0.006,0.193l0.007,0.194l0.008,0.193l0.008,0.193l0.009,0.193l0.01,0.193l0.01,0.192l0.01,0.192l0.012,0.192l0.012,0.192l0.012,0.192l0.013,0.191l0.014,0.191l0.014,0.191l0.015,0.191l0.015,0.191l0.016,0.19l0.017,0.19l0.017,0.19l0.018,0.19l0.018,0.189l0.019,0.19l0.02,0.189l0.02,0.188l0.02,0.189l0.022,0.189l0.022,0.188l0.022,0.188l0.023,0.188l0.024,0.187l0.024,0.188l0.024,0.187l0.026,0.187l0.026,0.187l0.026,0.186l0.027,0.187l0.028,0.186l0.028,0.186l0.029,0.186l0.029,0.185l0.03,0.186l0.03,0.184l0.031,0.185l0.032,0.185l0.032,0.184l0.032,0.185l0.034,0.184l0.033,0.184l0.035,0.183l0.034,0.183l0.036,0.184l0.036,0.183l0.036,0.182l0.038,0.183l0.037,0.183l0.038,0.181l0.039,0.182l0.039,0.182l0.04,0.181l0.041,0.181l0.041,0.182l0.041,0.181l0.042,0.18l0.043,0.18l0.043,0.181l0.043,0.18l0.045,0.179l0.044,0.18l0.046,0.179l0.045,0.179l0.047,0.179l0.047,0.179l0.047,0.178l0.048,0.178l0.049,0.178l0.049,0.178l0.049,0.177l0.05,0.177l0.051,0.177l0.051,0.177l0.052,0.177l0.052,0.177l0.053,0.176l0.053,0.175l0.054,0.176l0.054,0.176l0.055,0.175l0.055,0.175l0.056,0.174l0.057,0.175l0.057,0.175l0.057,0.174l0.058,0.173l0.059,0.174l0.059,0.173l0.059,0.173l0.06,0.173l0.061,0.173l0.061,0.173l0.061,0.172l0.063,0.172l0.062,0.172l0.063,0.171l0.064,0.171l0.064,0.171l0.065,0.171l0.065,0.171l0.066,0.17l0.066,0.17l0.067,0.17l0.067,0.169l0.068,0.169l0.068,0.17l0.069,0.169l0.069,0.168l0.069,0.168l0.071,0.169l0.07,0.167l0.072,0.168l0.071,0.167l0.073,0.167l0.072,0.167l0.074,0.167l0.073,0.166l0.075,0.166l0.074,0.166l0.076,0.166l0.075,0.164l0.076,0.166l0.077,0.165l0.077,0.164l0.078,0.164l0.078,0.164l0.079,0.164l0.079,0.164l0.079,0.163l0.081,0.163l0.08,0.163l0.081,0.162l0.082,0.162l0.081,0.161l0.083,0.162l0.084,0.162l0.083,0.161l0.084,0.16l0.084,0.161l0.085,0.16l0.086,0.161l0.086,0.16l0.085,0.158l0.087,0.159l0.088,0.16l0.087,0.157l0.088,0.159l0.089,0.158l0.089,0.158l0.09,0.157l0.09,0.157l0.091,0.157l0.091,0.157l0.092,0.157l0.091,0.155l0.092,0.155l0.094,0.157l0.093,0.155l0.093,0.154l0.095,0.155l0.094,0.154l0.096,0.154l0.096,0.154l0.095,0.153l0.097,0.152l0.097,0.154l0.098,0.153l0.097,0.152l0.099,0.151l0.099,0.152l0.099,0.151l0.1,0.151l0.099,0.15l0.101,0.151l0.101,0.15l0.102,0.149l0.102,0.15l0.102,0.149l0.103,0.149l0.104,0.149l0.103,0.147l0.104,0.148l0.105,0.148l0.105,0.147l0.105,0.147l0.106,0.147l0.106,0.146l0.107,0.145l0.107,0.145l0.108,0.146l0.108,0.145l0.108,0.145l0.109,0.144l0.11,0.144l0.11,0.144l0.11,0.143l0.11,0.143l0.111,0.142l0.112,0.142l0.112,0.143l0.112,0.141l0.112,0.141l0.114,0.141l0.114,0.141l0.113,0.139l0.115,0.14l0.115,0.14l0.115,0.14l0.116,0.139l0.116,0.138l0.116,0.138l0.117,0.138l0.117,0.137l0.118,0.137l0.118,0.137l0.119,0.137l0.119,0.135l0.118,0.135l0.121,0.137l0.12,0.134l0.12,0.135l0.122,0.134l0.121,0.134l0.121,0.134l0.122,0.133l0.123,0.132l0.123,0.133l0.123,0.132l0.123,0.131l0.125,0.132l0.125,0.131l0.124,0.13l0.125,0.13l0.126,0.13l0.126,0.13l0.127,0.129l0.127,0.129l0.127,0.128l0.127,0.128l0.128,0.127l0.129,0.128l0.128,0.126l0.129,0.127l0.13,0.126l0.129,0.125l0.131,0.126l0.13,0.124l0.131,0.125l0.132,0.125l0.131,0.123l0.132,0.123l0.133,0.123l0.132,0.123l0.133,0.121l0.133,0.122l0.135,0.122l0.135,0.121l0.133,0.12l0.135,0.12l0.137,0.121l0.135,0.118l0.135,0.119l0.137,0.119l0.137,0.118l0.137,0.117l0.137,0.117l0.138,0.118l0.138,0.116l0.139,0.116l0.139,0.116l0.139,0.115l0.14,0.115l0.139,0.114l0.14,0.114l0.14,0.114l0.142,0.113l0.142,0.113l0.14,0.112l0.142,0.112l0.143,0.112l0.143,0.111l0.142,0.11l0.143,0.11l0.145,0.111l0.143,0.109l0.144,0.108l0.145,0.109l0.145,0.108l0.145,0.107l0.145,0.107l0.146,0.107l0.147,0.107l0.147,0.106l0.146,0.105l0.147,0.105l0.147,0.105l0.149,0.104l0.148,0.104l0.148,0.103l0.149,0.103l0.149,0.102l0.149,0.102l0.15,0.101l0.15,0.102l0.15,0.1l0.151,0.101l0.151,0.099l0.151,0.1l0.151,0.098l0.152,0.098l0.153,0.099l0.152,0.097l0.153,0.097l0.153,0.097l0.153,0.096l0.154,0.095l0.155,0.096l0.153,0.094l0.155,0.095l0.154,0.093l0.155,0.093l0.156,0.094l0.156,0.092l0.156,0.092l0.156,0.091l0.157,0.092l0.156,0.09l0.157,0.09l0.158,0.09l0.159,0.089l0.157,0.089l0.158,0.088l0.159,0.088l0.159,0.087l0.158,0.086l0.159,0.086l0.161,0.087l0.161,0.085l0.159,0.085l0.161,0.084l0.161,0.085l0.159,0.082l0.163,0.084l0.162,0.083l0.16,0.081l0.162,0.081l0.164,0.082l0.163,0.081l0.162,0.079l0.163,0.08l0.164,0.08l0.163,0.078l0.164,0.078l0.165,0.078l0.165,0.077l0.164,0.076l0.165,0.076l0.166,0.077l0.165,0.075l0.166,0.074l0.166,0.075l0.167,0.074l0.166,0.073l0.166,0.072l0.168,0.073l0.167,0.071l0.169,0.072l0.167,0.071l0.167,0.069l0.168,0.07l0.169,0.069l0.17,0.069l0.169,0.069l0.169,0.067l0.169,0.067l0.169,0.067l0.171,0.066l0.171,0.066l0.169,0.065l0.171,0.065l0.171,0.064l0.172,0.064l0.172,0.063l0.171,0.062l0.172,0.063l0.173,0.061l0.172,0.061l0.173,0.061l0.172,0.06l0.173,0.059l0.174,0.059l0.173,0.059l0.175,0.058l0.174,0.058l0.173,0.056l0.174,0.056l0.177,0.057l0.175,0.055l0.173,0.054l0.177,0.055l0.177,0.054l0.174,0.053l0.177,0.053l0.176,0.052l0.176,0.052l0.177,0.051l0.178,0.051l0.178,0.05l0.177,0.05l0.176,0.048l0.179,0.049l0.178,0.048l0.178,0.047l0.181,0.048l0.177,0.046l0.178,0.045l0.18,0.046l0.18,0.044l0.179,0.044l0.18,0.044l0.181,0.043l0.18,0.043l0.18,0.042l0.181,0.041l0.181,0.041l0.182,0.041l0.18,0.039l0.182,0.04l0.183,0.039l0.183,0.038l0.182,0.038l0.18,0.036l0.184,0.037l0.185,0.036l0.181,0.035l0.184,0.035l0.184,0.035l0.182,0.033l0.185,0.034l0.185,0.032l0.184,0.032l0.184,0.032l0.186,0.031l0.185,0.03l0.185,0.03l0.185,0.029l0.186,0.029l0.186,0.028l0.185,0.028l0.187,0.027l0.188,0.026l0.187,0.026l0.187,0.026l0.186,0.024l0.188,0.024l0.187,0.024l0.188,0.023l0.188,0.022l0.189,0.022l0.187,0.021l0.189,0.021l0.19,0.02l0.188,0.02l0.19,0.019l0.189,0.018l0.19,0.018l0.19,0.017l0.19,0.017l0.19,0.016l0.191,0.015l0.191,0.015l0.19,0.014l0.192,0.014l0.191,0.013l0.192,0.012l0.192,0.012l0.192,0.012l0.193,0.01l0.191,0.01l0.193,0.01l0.193,0.009l0.192,0.008l0.194,0.008l0.194,0.007l0.194,0.006l0.194,0.006l0.193,0.005l0.194,0.005l0.195,0.004l0.196,0.003l0.194,0.003l0.195,0.002l0.196,0.002l0.195,0.001l0.22,0l379.952,0l0.22,0l0.195,-0.001l0.196,-0.002l0.195,-0.002l0.194,-0.003l0.196,-0.003l0.195,-0.004l0.194,-0.005l0.193,-0.005l0.194,-0.006l0.194,-0.006l0.194,-0.007l0.194,-0.008l0.192,-0.008l0.193,-0.009l0.193,-0.01l0.191,-0.01l0.193,-0.01l0.192,-0.012l0.192,-0.012l0.192,-0.012l0.191,-0.013l0.192,-0.014l0.19,-0.014l0.191,-0.015l0.191,-0.015l0.19,-0.016l0.19,-0.017l0.19,-0.017l0.19,-0.018l0.189,-0.018l0.19,-0.019l0.188,-0.02l0.19,-0.02l0.189,-0.021l0.187,-0.021l0.189,-0.022l0.188,-0.022l0.188,-0.023l0.187,-0.024l0.188,-0.024l0.186,-0.024l0.187,-0.026l0.187,-0.026l0.188,-0.026l0.187,-0.027l0.185,-0.028l0.186,-0.028l0.186,-0.029l0.185,-0.029l0.186,-0.03l0.184,-0.03l0.186,-0.031l0.184,-0.032l0.184,-0.032l0.185,-0.032l0.185,-0.034l0.182,-0.033l0.184,-0.035l0.183,-0.034l0.183,-0.036l0.184,-0.036l0.184,-0.037l0.18,-0.036l0.182,-0.038l0.183,-0.038l0.182,-0.039l0.183,-0.04l0.18,-0.039l0.181,-0.041l0.182,-0.041l0.181,-0.041l0.18,-0.042l0.18,-0.043l0.182,-0.043l0.179,-0.044l0.179,-0.044l0.18,-0.044l0.18,-0.046l0.179,-0.046l0.176,-0.045l0.18,-0.048l0.179,-0.047l0.179,-0.048l0.179,-0.049l0.175,-0.048l0.177,-0.05l0.179,-0.05l0.177,-0.051l0.177,-0.051l0.175,-0.052l0.177,-0.052l0.177,-0.053l0.174,-0.053l0.178,-0.054l0.176,-0.055l0.173,-0.054l0.175,-0.055l0.177,-0.057l0.173,-0.056l0.174,-0.057l0.174,-0.057l0.174,-0.058l0.175,-0.059l0.173,-0.059l0.173,-0.059l0.173,-0.06l0.171,-0.06l0.172,-0.061l0.174,-0.063l0.173,-0.062l0.171,-0.062l0.171,-0.063l0.171,-0.064l0.172,-0.064l0.17,-0.065l0.17,-0.065l0.172,-0.066l0.169,-0.066l0.17,-0.067l0.17,-0.067l0.167,-0.067l0.171,-0.069l0.169,-0.069l0.168,-0.069l0.169,-0.07l0.167,-0.069l0.167,-0.071l0.17,-0.072l0.167,-0.072l0.166,-0.072l0.167,-0.072l0.167,-0.074l0.167,-0.074l0.165,-0.074l0.166,-0.074l0.165,-0.075l0.167,-0.077l0.165,-0.076l0.162,-0.076l0.165,-0.077l0.166,-0.078l0.164,-0.078l0.162,-0.078l0.165,-0.08l0.164,-0.08l0.16,-0.079l0.163,-0.08l0.165,-0.083l0.161,-0.081l0.162,-0.082l0.162,-0.083l0.161,-0.082l0.16,-0.083l0.162,-0.085l0.16,-0.084l0.159,-0.084l0.16,-0.086l0.162,-0.087l0.16,-0.086l0.158,-0.086l0.157,-0.087l0.16,-0.089l0.159,-0.088l0.155,-0.087l0.159,-0.09l0.159,-0.09l0.157,-0.09l0.157,-0.091l0.156,-0.091l0.156,-0.091l0.156,-0.092l0.155,-0.092l0.157,-0.094l0.155,-0.093l0.153,-0.093l0.156,-0.095l0.154,-0.095l0.153,-0.094l0.154,-0.096l0.154,-0.096l0.153,-0.097l0.153,-0.097l0.152,-0.097l0.153,-0.099l0.152,-0.099l0.149,-0.096l0.153,-0.101l0.151,-0.099l0.152,-0.101l0.15,-0.101l0.148,-0.1l0.151,-0.102l0.15,-0.103l0.149,-0.102l0.147,-0.101l0.147,-0.103l0.151,-0.105l0.148,-0.105l0.147,-0.104l0.148,-0.105l0.144,-0.104l0.147,-0.106l0.148,-0.108l0.146,-0.107l0.146,-0.107l0.144,-0.107l0.144,-0.107l0.146,-0.11l0.144,-0.109l0.143,-0.108l0.144,-0.11l0.143,-0.11l0.143,-0.111l0.144,-0.112l0.143,-0.112l0.14,-0.11l0.14,-0.111l0.143,-0.115l0.142,-0.114l0.14,-0.113l0.141,-0.114l0.139,-0.114l0.14,-0.115l0.138,-0.115l0.139,-0.116l0.139,-0.116l0.137,-0.115l0.139,-0.118l0.138,-0.118l0.136,-0.117l0.138,-0.119l0.136,-0.118l0.134,-0.118l0.136,-0.119l0.136,-0.121l0.136,-0.121l0.134,-0.119l0.133,-0.12l0.136,-0.123l0.133,-0.122l0.133,-0.121l0.134,-0.124l0.131,-0.122l0.131,-0.122l0.132,-0.125l0.133,-0.125l0.13,-0.123l0.13,-0.125l0.131,-0.126l0.129,-0.125l0.13,-0.126l0.13,-0.128l0.126,-0.124l0.13,-0.128l0.129,-0.129l0.126,-0.127l0.128,-0.129l0.127,-0.128l0.124,-0.127l0.128,-0.132l0.127,-0.131l0.123,-0.128l0.125,-0.13l0.125,-0.132l0.124,-0.131l0.124,-0.132l0.123,-0.132l0.124,-0.133l0.121,-0.131l0.122,-0.134l0.123,-0.134l0.121,-0.134l0.121,-0.134l0.119,-0.133l0.121,-0.136l0.121,-0.137l0.118,-0.135l0.118,-0.134l0.121,-0.139l0.117,-0.136l0.118,-0.137l0.117,-0.137l0.116,-0.137l0.118,-0.14l0.116,-0.138l0.114,-0.137l0.116,-0.14l0.115,-0.14l0.115,-0.14l0.113,-0.14l0.114,-0.141l0.114,-0.143l0.111,-0.138l0.113,-0.143l0.113,-0.143l0.11,-0.139l0.111,-0.144l0.111,-0.143l0.11,-0.143l0.111,-0.145l0.109,-0.144l0.108,-0.143l0.108,-0.144l0.108,-0.145l0.11,-0.147l0.107,-0.146l0.106,-0.145l0.106,-0.146l0.105,-0.145l0.105,-0.147l0.107,-0.149l0.105,-0.149l0.103,-0.146l0.102,-0.146l0.105,-0.149l0.103,-0.15l0.103,-0.15l0.103,-0.151l0.099,-0.145l0.102,-0.152l0.101,-0.152l0.098,-0.147l0.101,-0.153l0.1,-0.153l0.099,-0.151l0.098,-0.151l0.097,-0.152l0.098,-0.152l0.097,-0.153l0.097,-0.153l0.095,-0.153l0.096,-0.154l0.094,-0.152l0.095,-0.155l0.097,-0.158l0.092,-0.152l0.092,-0.153l0.096,-0.16l0.091,-0.154l0.091,-0.154l0.092,-0.158l0.091,-0.156l0.091,-0.158l0.091,-0.159l0.089,-0.156l0.088,-0.155l0.09,-0.161l0.088,-0.157l0.087,-0.158l0.089,-0.161l0.085,-0.157l0.086,-0.158l0.087,-0.163l0.085,-0.159l0.085,-0.16l0.085,-0.161l0.082,-0.159l0.085,-0.163l0.083,-0.161l0.082,-0.16l0.083,-0.165l0.081,-0.161l0.08,-0.161l0.082,-0.164l0.079,-0.162l0.079,-0.162l0.08,-0.165l0.079,-0.164l0.078,-0.163l0.078,-0.166l0.077,-0.164l0.077,-0.165l0.076,-0.165l0.075,-0.162l0.075,-0.166l0.076,-0.169l0.074,-0.166l0.073,-0.165l0.074,-0.167l0.073,-0.167l0.071,-0.165l0.072,-0.169l0.072,-0.169l0.07,-0.166l0.071,-0.17l0.069,-0.166l0.069,-0.167l0.069,-0.171l0.068,-0.169l0.069,-0.172l0.067,-0.168l0.066,-0.169l0.066,-0.17l0.066,-0.17l0.065,-0.17l0.065,-0.171l0.064,-0.172l0.064,-0.171l0.063,-0.172l0.063,-0.172l0.062,-0.173l0.061,-0.169l0.06,-0.171l0.061,-0.174l0.061,-0.174l0.06,-0.175l0.059,-0.174l0.057,-0.17l0.059,-0.176l0.058,-0.175l0.056,-0.171l0.057,-0.177l0.056,-0.174l0.055,-0.174l0.055,-0.178l0.055,-0.175l0.053,-0.173l0.053,-0.176l0.053,-0.179l0.053,-0.177l0.051,-0.174l0.051,-0.177l0.051,-0.178l0.049,-0.175l0.05,-0.178l0.049,-0.179l0.049,-0.18l0.048,-0.176l0.047,-0.177l0.047,-0.18l0.047,-0.181l0.046,-0.178l0.044,-0.178l0.045,-0.178l0.045,-0.183l0.043,-0.179l0.043,-0.177l0.043,-0.183l0.042,-0.18l0.041,-0.181l0.041,-0.182l0.041,-0.181l0.04,-0.181l0.039,-0.183l0.039,-0.183l0.038,-0.179l0.037,-0.181l0.037,-0.184l0.037,-0.183l0.036,-0.184l0.036,-0.183l0.034,-0.181l0.035,-0.186l0.034,-0.185l0.033,-0.184l0.032,-0.18l0.032,-0.187l0.032,-0.187l0.031,-0.181l0.03,-0.185l0.03,-0.188l0.03,-0.186l0.028,-0.183l0.028,-0.186l0.028,-0.19l0.027,-0.183l0.026,-0.188l0.026,-0.187l0.025,-0.185l0.025,-0.188l0.024,-0.186l0.024,-0.189l0.023,-0.189l0.022,-0.187l0.022,-0.187l0.022,-0.19l0.021,-0.191l0.019,-0.185l0.02,-0.188l0.019,-0.192l0.018,-0.189l0.018,-0.19l0.017,-0.19l0.017,-0.19l0.016,-0.19l0.015,-0.191l0.015,-0.191l0.014,-0.192l0.014,-0.189l0.013,-0.192l0.012,-0.192l0.012,-0.19l0.012,-0.194l0.01,-0.193l0.01,-0.191l0.01,-0.191l0.009,-0.195l0.008,-0.195l0.008,-0.192l0.007,-0.193l0.006,-0.193l0.006,-0.193l0.005,-0.197l0.005,-0.194l0.004,-0.191l0.003,-0.195l0.003,-0.198l0.002,-0.196l0.002,-0.192l0.001,-0.197l0,-0.221l0,-179.95l0,-0.221l-0.001,-0.197l-0.002,-0.192l-0.002,-0.196l-0.003,-0.198l-0.003,-0.195l-0.004,-0.191l-0.005,-0.194l-0.005,-0.197l-0.006,-0.193l-0.006,-0.193l-0.007,-0.193l-0.008,-0.192l-0.008,-0.195l-0.009,-0.195l-0.01,-0.191l-0.01,-0.191l-0.01,-0.194l-0.012,-0.193l-0.012,-0.19l-0.012,-0.192l-0.013,-0.192l-0.014,-0.189l-0.014,-0.192l-0.015,-0.191l-0.015,-0.191l-0.016,-0.19l-0.017,-0.19l-0.017,-0.19l-0.018,-0.19l-0.018,-0.189l-0.019,-0.191l-0.02,-0.189l-0.019,-0.185l-0.021,-0.191l-0.022,-0.19l-0.022,-0.187l-0.022,-0.187l-0.023,-0.189l-0.024,-0.189l-0.024,-0.186l-0.025,-0.188l-0.025,-0.185l-0.026,-0.187l-0.026,-0.188l-0.027,-0.183l-0.028,-0.19l-0.028,-0.186l-0.028,-0.183l-0.03,-0.186l-0.03,-0.188l-0.03,-0.185l-0.031,-0.181l-0.032,-0.187l-0.032,-0.187l-0.032,-0.18l-0.033,-0.183l-0.034,-0.186l-0.035,-0.186l-0.035,-0.182l-0.035,-0.181l-0.036,-0.185l-0.037,-0.184l-0.037,-0.183l-0.037,-0.181l-0.038,-0.179l-0.039,-0.183l-0.039,-0.182l-0.04,-0.182l-0.041,-0.182l-0.041,-0.181l-0.041,-0.181l-0.042,-0.18l-0.043,-0.183l-0.043,-0.177l-0.043,-0.179l-0.045,-0.182l-0.044,-0.179l-0.045,-0.178l-0.046,-0.178l-0.047,-0.181l-0.047,-0.18l-0.047,-0.177l-0.048,-0.177l-0.049,-0.179l-0.049,-0.179l-0.05,-0.178l-0.049,-0.175l-0.051,-0.178l-0.051,-0.177l-0.051,-0.174l-0.053,-0.177l-0.053,-0.179l-0.054,-0.176l-0.052,-0.173l-0.055,-0.175l-0.055,-0.178l-0.055,-0.174l-0.056,-0.175l-0.057,-0.176l-0.056,-0.17l-0.058,-0.176l-0.059,-0.176l-0.057,-0.169l-0.059,-0.175l-0.06,-0.175l-0.061,-0.174l-0.061,-0.174l-0.06,-0.17l-0.061,-0.17l-0.062,-0.173l-0.063,-0.172l-0.063,-0.172l-0.064,-0.172l-0.064,-0.171l-0.065,-0.171l-0.065,-0.17l-0.066,-0.17l-0.066,-0.17l-0.066,-0.169l-0.067,-0.169l-0.069,-0.172l-0.068,-0.167l-0.069,-0.171l-0.069,-0.168l-0.069,-0.167l-0.071,-0.169l-0.07,-0.166l-0.072,-0.169l-0.072,-0.169l-0.071,-0.165l-0.073,-0.167l-0.074,-0.167l-0.073,-0.165l-0.074,-0.166l-0.076,-0.169l-0.075,-0.166l-0.075,-0.162l-0.076,-0.165l-0.077,-0.164l-0.077,-0.165l-0.078,-0.166l-0.078,-0.163l-0.078,-0.164l-0.08,-0.165l-0.08,-0.162l-0.079,-0.162l-0.081,-0.164l-0.081,-0.161l-0.081,-0.161l-0.084,-0.166l-0.081,-0.159l-0.082,-0.16l-0.086,-0.164l-0.082,-0.159l-0.085,-0.161l-0.085,-0.161l-0.084,-0.157l-0.088,-0.163l-0.086,-0.159l-0.085,-0.157l-0.089,-0.161l-0.087,-0.158l-0.088,-0.158l-0.09,-0.16l-0.088,-0.155l-0.089,-0.156l-0.091,-0.159l-0.091,-0.158l-0.091,-0.156l-0.092,-0.157l-0.091,-0.155l-0.092,-0.154l-0.094,-0.159l-0.093,-0.153l-0.093,-0.154l-0.096,-0.157l-0.095,-0.155l-0.094,-0.152l-0.095,-0.154l-0.096,-0.153l-0.097,-0.153l-0.097,-0.153l-0.097,-0.152l-0.098,-0.152l-0.098,-0.151l-0.099,-0.151l-0.1,-0.153l-0.101,-0.153l-0.098,-0.147l-0.102,-0.152l-0.101,-0.152l-0.099,-0.145l-0.103,-0.151l-0.103,-0.15l-0.104,-0.15l-0.103,-0.149l-0.103,-0.146l-0.103,-0.147l-0.105,-0.148l-0.107,-0.149l-0.105,-0.147l-0.105,-0.145l-0.106,-0.146l-0.106,-0.145l-0.108,-0.146l-0.109,-0.147l-0.108,-0.145l-0.108,-0.144l-0.108,-0.143l-0.109,-0.144l-0.111,-0.145l-0.109,-0.142l-0.112,-0.145l-0.112,-0.143l-0.109,-0.139l-0.113,-0.143l-0.112,-0.142l-0.112,-0.14l-0.113,-0.141l-0.115,-0.142l-0.114,-0.14l-0.115,-0.14l-0.115,-0.14l-0.115,-0.139l-0.114,-0.137l-0.116,-0.139l-0.118,-0.14l-0.117,-0.137l-0.117,-0.137l-0.117,-0.137l-0.118,-0.136l-0.119,-0.138l-0.119,-0.135l-0.118,-0.135l-0.121,-0.136l-0.121,-0.137l-0.12,-0.133l-0.119,-0.133l-0.122,-0.135l-0.123,-0.134l-0.122,-0.134l-0.121,-0.131l-0.124,-0.133l-0.123,-0.132l-0.124,-0.132l-0.124,-0.131l-0.125,-0.131l-0.125,-0.131l-0.123,-0.128l-0.127,-0.131l-0.127,-0.131l-0.125,-0.127l-0.127,-0.129l-0.128,-0.129l-0.127,-0.127l-0.128,-0.129l-0.13,-0.128l-0.126,-0.125l-0.13,-0.126l-0.13,-0.127l-0.129,-0.125l-0.13,-0.125l-0.132,-0.126l-0.129,-0.123l-0.132,-0.125l-0.134,-0.126l-0.13,-0.121l-0.131,-0.122l-0.134,-0.124l-0.133,-0.121l-0.134,-0.123l-0.135,-0.122l-0.132,-0.119l-0.135,-0.121l-0.136,-0.121l-0.135,-0.119l-0.136,-0.12l-0.136,-0.118l-0.136,-0.119l-0.137,-0.118l-0.136,-0.117l-0.138,-0.118l-0.139,-0.118l-0.137,-0.115l-0.138,-0.116l-0.14,-0.116l-0.138,-0.115l-0.14,-0.115l-0.14,-0.114l-0.14,-0.114l-0.141,-0.114l-0.141,-0.113l-0.142,-0.114l-0.142,-0.112l-0.14,-0.11l-0.142,-0.112l-0.144,-0.112l-0.143,-0.111l-0.143,-0.11l-0.143,-0.109l-0.143,-0.109l-0.146,-0.11l-0.145,-0.108l-0.144,-0.108l-0.144,-0.107l-0.146,-0.107l-0.146,-0.108l-0.147,-0.106l-0.147,-0.106l-0.146,-0.105l-0.146,-0.105l-0.148,-0.105l-0.148,-0.104l-0.15,-0.105l-0.148,-0.103l-0.147,-0.101l-0.149,-0.102l-0.15,-0.103l-0.152,-0.103l-0.148,-0.1l-0.149,-0.1l-0.152,-0.1l-0.151,-0.1l-0.153,-0.101l-0.149,-0.097l-0.152,-0.098l-0.153,-0.099l-0.152,-0.097l-0.153,-0.097l-0.153,-0.097l-0.154,-0.096l-0.153,-0.096l-0.153,-0.094l-0.155,-0.095l-0.156,-0.095l-0.153,-0.093l-0.155,-0.093l-0.157,-0.094l-0.155,-0.092l-0.156,-0.092l-0.155,-0.091l-0.157,-0.091l-0.158,-0.091l-0.156,-0.09l-0.158,-0.09l-0.159,-0.09l-0.156,-0.087l-0.159,-0.089l-0.159,-0.088l-0.158,-0.086l-0.16,-0.088l-0.16,-0.086l-0.159,-0.086l-0.16,-0.085l-0.16,-0.085l-0.16,-0.084l-0.161,-0.084l-0.162,-0.084l-0.16,-0.082l-0.161,-0.083l-0.163,-0.082l-0.162,-0.082l-0.164,-0.082l-0.163,-0.08l-0.16,-0.079l-0.164,-0.08l-0.164,-0.079l-0.163,-0.079l-0.166,-0.079l-0.164,-0.077l-0.163,-0.077l-0.165,-0.076l-0.165,-0.077l-0.165,-0.075l-0.166,-0.076l-0.166,-0.075l-0.165,-0.073l-0.167,-0.074l-0.167,-0.074l-0.167,-0.073l-0.166,-0.071l-0.167,-0.072l-0.169,-0.072l-0.167,-0.07l-0.168,-0.07l-0.169,-0.07l-0.168,-0.069l-0.169,-0.069l-0.17,-0.069l-0.168,-0.067l-0.171,-0.068l-0.17,-0.066l-0.168,-0.066l-0.17,-0.066l-0.173,-0.065l-0.17,-0.065l-0.171,-0.064l-0.171,-0.064l-0.171,-0.063l-0.172,-0.062l-0.172,-0.062l-0.173,-0.062l-0.172,-0.061l-0.172,-0.061l-0.174,-0.06l-0.173,-0.059l-0.172,-0.059l-0.175,-0.059l-0.174,-0.058l-0.173,-0.057l-0.175,-0.057l-0.174,-0.057l-0.174,-0.055l-0.177,-0.056l-0.175,-0.055l-0.174,-0.054l-0.176,-0.054l-0.177,-0.053l-0.176,-0.053l-0.176,-0.052l-0.177,-0.052l-0.176,-0.051l-0.177,-0.051l-0.178,-0.05l-0.178,-0.05l-0.176,-0.048l-0.178,-0.049l-0.179,-0.048l-0.179,-0.047l-0.178,-0.047l-0.178,-0.046l-0.18,-0.046l-0.18,-0.046l-0.179,-0.044l-0.179,-0.045l-0.18,-0.043l-0.181,-0.043l-0.18,-0.043l-0.181,-0.042l-0.181,-0.041l-0.181,-0.041l-0.18,-0.041l-0.182,-0.039l-0.182,-0.04l-0.182,-0.039l-0.182,-0.038l-0.182,-0.037l-0.182,-0.038l-0.183,-0.036l-0.183,-0.036l-0.184,-0.036l-0.183,-0.034l-0.184,-0.035l-0.183,-0.033l-0.184,-0.034l-0.185,-0.032l-0.184,-0.032l-0.185,-0.032l-0.185,-0.031l-0.184,-0.03l-0.186,-0.03l-0.186,-0.03l-0.185,-0.028l-0.186,-0.028l-0.186,-0.028l-0.187,-0.027l-0.186,-0.026l-0.187,-0.026l-0.187,-0.026l-0.187,-0.024l-0.188,-0.024l-0.187,-0.024l-0.188,-0.023l-0.188,-0.022l-0.188,-0.022l-0.189,-0.021l-0.189,-0.021l-0.188,-0.02l-0.189,-0.02l-0.19,-0.019l-0.189,-0.018l-0.19,-0.018l-0.19,-0.017l-0.19,-0.017l-0.191,-0.016l-0.19,-0.015l-0.19,-0.015l-0.192,-0.014l-0.191,-0.014l-0.191,-0.013l-0.192,-0.012l-0.192,-0.012l-0.192,-0.012l-0.192,-0.01l-0.192,-0.01l-0.193,-0.01l-0.193,-0.009l-0.193,-0.008l-0.194,-0.008l-0.193,-0.007l-0.193,-0.006l-0.194,-0.006l-0.194,-0.005l-0.195,-0.005l-0.194,-0.004l-0.195,-0.003l-0.195,-0.003l-0.195,-0.002l-0.196,-0.002l-0.195,-0.001l-0.22,0l-379.952,0Z"/><circle cx="150" cy="235" r="55" style="fill:#efefef;"/><path d="M150.355,180.001l0.355,0.004l0.355,0.005l0.354,0.008l0.353,0.01l0.353,0.012l0.352,0.015l0.352,0.017l0.351,0.019l0.35,0.021l0.35,0.023l0.349,0.026l0.349,0.027l0.348,0.03l0.347,0.032l0.347,0.034l0.346,0.036l0.346,0.039l0.345,0.041l0.344,0.042l0.344,0.045l0.342,0.047l0.343,0.049l0.341,0.051l0.341,0.053l0.34,0.056l0.34,0.057l0.339,0.06l0.338,0.061l0.337,0.064l0.337,0.066l0.336,0.067l0.335,0.07l0.334,0.072l0.334,0.074l0.333,0.075l0.332,0.078l0.331,0.08l0.331,0.082l0.33,0.084l0.329,0.086l0.328,0.087l0.327,0.09l0.327,0.092l0.325,0.094l0.325,0.095l0.325,0.098l0.323,0.099l0.322,0.102l0.322,0.103l0.32,0.106l0.32,0.107l0.319,0.109l0.318,0.111l0.317,0.113l0.317,0.115l0.315,0.116l0.315,0.119l0.313,0.12l0.313,0.123l0.311,0.124l0.311,0.126l0.31,0.127l0.309,0.13l0.308,0.131l0.307,0.134l0.306,0.135l0.305,0.137l0.304,0.138l0.303,0.141l0.302,0.142l0.301,0.144l0.3,0.146l0.299,0.147l0.298,0.15l0.297,0.151l0.296,0.153l0.295,0.154l0.293,0.156l0.293,0.158l0.292,0.16l0.291,0.161l0.289,0.163l0.289,0.165l0.287,0.167l0.286,0.168l0.285,0.17l0.284,0.171l0.283,0.173l0.282,0.175l0.281,0.177l0.279,0.178l0.279,0.18l0.277,0.181l0.276,0.183l0.275,0.184l0.274,0.187l0.272,0.188l0.272,0.189l0.27,0.191l0.269,0.192l0.268,0.195l0.266,0.195l0.266,0.198l0.264,0.198l0.263,0.201l0.261,0.202l0.261,0.203l0.259,0.205l0.258,0.206l0.256,0.208l0.256,0.21l0.254,0.211l0.252,0.212l0.252,0.214l0.25,0.216l0.249,0.217l0.248,0.218l0.246,0.22l0.245,0.221l0.243,0.223l0.242,0.224l0.241,0.226l0.24,0.227l0.238,0.228l0.237,0.23l0.235,0.231l0.234,0.233l0.233,0.234l0.231,0.235l0.23,0.237l0.228,0.238l0.227,0.24l0.226,0.241l0.224,0.242l0.223,0.243l0.221,0.245l0.22,0.246l0.218,0.248l0.217,0.249l0.216,0.25l0.214,0.252l0.212,0.252l0.211,0.254l0.21,0.256l0.208,0.256l0.206,0.258l0.205,0.259l0.203,0.261l0.202,0.261l0.201,0.263l0.198,0.264l0.198,0.266l0.195,0.266l0.195,0.268l0.192,0.269l0.191,0.27l0.189,0.272l0.188,0.272l0.187,0.274l0.184,0.275l0.183,0.276l0.181,0.277l0.18,0.279l0.178,0.279l0.177,0.281l0.175,0.282l0.173,0.283l0.171,0.284l0.17,0.285l0.168,0.286l0.167,0.287l0.165,0.289l0.163,0.289l0.161,0.291l0.16,0.292l0.158,0.293l0.156,0.293l0.154,0.295l0.153,0.296l0.151,0.297l0.15,0.298l0.147,0.299l0.146,0.3l0.144,0.301l0.142,0.302l0.141,0.303l0.138,0.304l0.137,0.305l0.135,0.306l0.134,0.307l0.131,0.308l0.13,0.309l0.127,0.31l0.126,0.311l0.124,0.311l0.123,0.313l0.12,0.313l0.119,0.315l0.116,0.315l0.115,0.317l0.113,0.317l0.111,0.318l0.109,0.319l0.107,0.32l0.106,0.32l0.103,0.322l0.102,0.322l0.099,0.323l0.098,0.325l0.095,0.325l0.094,0.325l0.092,0.327l0.09,0.327l0.087,0.328l0.086,0.329l0.084,0.33l0.082,0.331l0.08,0.331l0.078,0.332l0.075,0.333l0.074,0.334l0.072,0.334l0.07,0.335l0.067,0.336l0.066,0.337l0.064,0.337l0.061,0.338l0.06,0.339l0.057,0.34l0.056,0.34l0.053,0.341l0.051,0.341l0.049,0.343l0.047,0.342l0.045,0.344l0.042,0.344l0.041,0.345l0.039,0.346l0.036,0.346l0.034,0.347l0.032,0.347l0.03,0.348l0.027,0.349l0.026,0.349l0.023,0.35l0.021,0.35l0.019,0.351l0.017,0.352l0.015,0.352l0.012,0.353l0.01,0.353l0.008,0.354l0.005,0.355l0.004,0.355l0.001,0.355l-0.001,0.355l-0.004,0.355l-0.005,0.355l-0.008,0.354l-0.01,0.353l-0.012,0.353l-0.015,0.352l-0.017,0.352l-0.019,0.351l-0.021,0.35l-0.023,0.35l-0.026,0.349l-0.027,0.349l-0.03,0.348l-0.032,0.347l-0.034,0.347l-0.036,0.346l-0.039,0.346l-0.041,0.345l-0.042,0.344l-0.045,0.344l-0.047,0.342l-0.049,0.343l-0.051,0.341l-0.053,0.341l-0.056,0.34l-0.057,0.34l-0.06,0.339l-0.061,0.338l-0.064,0.337l-0.066,0.337l-0.067,0.336l-0.07,0.335l-0.072,0.334l-0.074,0.334l-0.075,0.333l-0.078,0.332l-0.08,0.331l-0.082,0.331l-0.084,0.33l-0.086,0.329l-0.087,0.328l-0.09,0.327l-0.092,0.327l-0.094,0.325l-0.095,0.325l-0.098,0.325l-0.099,0.323l-0.102,0.322l-0.103,0.322l-0.106,0.32l-0.107,0.32l-0.109,0.319l-0.111,0.318l-0.113,0.317l-0.115,0.317l-0.116,0.315l-0.119,0.315l-0.12,0.313l-0.123,0.313l-0.124,0.311l-0.126,0.311l-0.127,0.31l-0.13,0.309l-0.131,0.308l-0.134,0.307l-0.135,0.306l-0.137,0.305l-0.138,0.304l-0.141,0.303l-0.142,0.302l-0.144,0.301l-0.146,0.3l-0.147,0.299l-0.15,0.298l-0.151,0.297l-0.153,0.296l-0.154,0.295l-0.156,0.293l-0.158,0.293l-0.16,0.292l-0.161,0.291l-0.163,0.289l-0.165,0.289l-0.167,0.287l-0.168,0.286l-0.17,0.285l-0.171,0.284l-0.173,0.283l-0.175,0.282l-0.177,0.281l-0.178,0.279l-0.18,0.279l-0.181,0.277l-0.183,0.276l-0.184,0.275l-0.187,0.274l-0.188,0.272l-0.189,0.272l-0.191,0.27l-0.192,0.269l-0.195,0.268l-0.195,0.266l-0.198,0.266l-0.198,0.264l-0.201,0.263l-0.202,0.261l-0.203,0.261l-0.205,0.259l-0.206,0.258l-0.208,0.256l-0.21,0.256l-0.211,0.254l-0.212,0.252l-0.214,0.252l-0.216,0.25l-0.217,0.249l-0.218,0.248l-0.22,0.246l-0.221,0.245l-0.223,0.243l-0.224,0.242l-0.226,0.241l-0.227,0.24l-0.228,0.238l-0.23,0.237l-0.231,0.235l-0.233,0.234l-0.234,0.233l-0.235,0.231l-0.237,0.23l-0.238,0.228l-0.24,0.227l-0.241,0.226l-0.242,0.224l-0.243,0.223l-0.245,0.221l-0.246,0.22l-0.248,0.218l-0.249,0.217l-0.25,0.216l-0.252,0.214l-0.252,0.212l-0.254,0.211l-0.256,0.21l-0.256,0.208l-0.258,0.206l-0.259,0.205l-0.261,0.203l-0.261,0.202l-0.263,0.201l-0.264,0.198l-0.266,0.198l-0.266,0.195l-0.268,0.195l-0.269,0.192l-0.27,0.191l-0.272,0.189l-0.272,0.188l-0.274,0.187l-0.275,0.184l-0.276,0.183l-0.277,0.181l-0.279,0.18l-0.279,0.178l-0.281,0.177l-0.282,0.175l-0.283,0.173l-0.284,0.171l-0.285,0.17l-0.286,0.168l-0.287,0.167l-0.289,0.165l-0.289,0.163l-0.291,0.161l-0.292,0.16l-0.293,0.158l-0.293,0.156l-0.295,0.154l-0.296,0.153l-0.297,0.151l-0.298,0.15l-0.299,0.147l-0.3,0.146l-0.301,0.144l-0.302,0.142l-0.303,0.141l-0.304,0.138l-0.305,0.137l-0.306,0.135l-0.307,0.134l-0.308,0.131l-0.309,0.13l-0.31,0.127l-0.311,0.126l-0.311,0.124l-0.313,0.123l-0.313,0.12l-0.315,0.119l-0.315,0.116l-0.317,0.115l-0.317,0.113l-0.318,0.111l-0.319,0.109l-0.32,0.107l-0.32,0.106l-0.322,0.103l-0.322,0.102l-0.323,0.099l-0.325,0.098l-0.325,0.095l-0.325,0.094l-0.327,0.092l-0.327,0.09l-0.328,0.087l-0.329,0.086l-0.33,0.084l-0.331,0.082l-0.331,0.08l-0.332,0.078l-0.333,0.075l-0.334,0.074l-0.334,0.072l-0.335,0.07l-0.336,0.067l-0.337,0.066l-0.337,0.064l-0.338,0.061l-0.339,0.06l-0.34,0.057l-0.34,0.056l-0.341,0.053l-0.341,0.051l-0.343,0.049l-0.342,0.047l-0.344,0.045l-0.344,0.042l-0.345,0.041l-0.346,0.039l-0.346,0.036l-0.347,0.034l-0.347,0.032l-0.348,0.03l-0.349,0.027l-0.349,0.026l-0.35,0.023l-0.35,0.021l-0.351,0.019l-0.352,0.017l-0.352,0.015l-0.353,0.012l-0.353,0.01l-0.354,0.008l-0.355,0.005l-0.355,0.004l-0.355,0.001l-0.355,-0.001l-0.355,-0.004l-0.355,-0.005l-0.354,-0.008l-0.353,-0.01l-0.353,-0.012l-0.352,-0.015l-0.352,-0.017l-0.351,-0.019l-0.35,-0.021l-0.35,-0.023l-0.349,-0.026l-0.349,-0.027l-0.348,-0.03l-0.347,-0.032l-0.347,-0.034l-0.346,-0.036l-0.346,-0.039l-0.345,-0.041l-0.344,-0.042l-0.344,-0.045l-0.342,-0.047l-0.343,-0.049l-0.341,-0.051l-0.341,-0.053l-0.34,-0.056l-0.34,-0.057l-0.339,-0.06l-0.338,-0.061l-0.337,-0.064l-0.337,-0.066l-0.336,-0.067l-0.335,-0.07l-0.334,-0.072l-0.334,-0.074l-0.333,-0.075l-0.332,-0.078l-0.331,-0.08l-0.331,-0.082l-0.33,-0.084l-0.329,-0.086l-0.328,-0.087l-0.327,-0.09l-0.327,-0.092l-0.325,-0.094l-0.325,-0.095l-0.325,-0.098l-0.323,-0.099l-0.322,-0.102l-0.322,-0.103l-0.32,-0.106l-0.32,-0.107l-0.319,-0.109l-0.318,-0.111l-0.317,-0.113l-0.317,-0.115l-0.315,-0.116l-0.315,-0.119l-0.313,-0.12l-0.313,-0.123l-0.311,-0.124l-0.311,-0.126l-0.31,-0.127l-0.309,-0.13l-0.308,-0.131l-0.307,-0.134l-0.306,-0.135l-0.305,-0.137l-0.304,-0.138l-0.303,-0.141l-0.302,-0.142l-0.301,-0.144l-0.3,-0.146l-0.299,-0.147l-0.298,-0.15l-0.297,-0.151l-0.296,-0.153l-0.295,-0.154l-0.293,-0.156l-0.293,-0.158l-0.292,-0.16l-0.291,-0.161l-0.289,-0.163l-0.289,-0.165l-0.287,-0.167l-0.286,-0.168l-0.285,-0.17l-0.284,-0.171l-0.283,-0.173l-0.282,-0.175l-0.281,-0.177l-0.279,-0.178l-0.279,-0.18l-0.277,-0.181l-0.276,-0.183l-0.275,-0.184l-0.274,-0.187l-0.272,-0.188l-0.272,-0.189l-0.27,-0.191l-0.269,-0.192l-0.268,-0.195l-0.266,-0.195l-0.266,-0.198l-0.264,-0.198l-0.263,-0.201l-0.261,-0.202l-0.261,-0.203l-0.259,-0.205l-0.258,-0.206l-0.256,-0.208l-0.256,-0.21l-0.254,-0.211l-0.252,-0.212l-0.252,-0.214l-0.25,-0.216l-0.249,-0.217l-0.248,-0.218l-0.246,-0.22l-0.245,-0.221l-0.243,-0.223l-0.242,-0.224l-0.241,-0.226l-0.24,-0.227l-0.238,-0.228l-0.237,-0.23l-0.235,-0.231l-0.234,-0.233l-0.233,-0.234l-0.231,-0.235l-0.23,-0.237l-0.228,-0.238l-0.227,-0.24l-0.226,-0.241l-0.224,-0.242l-0.223,-0.243l-0.221,-0.245l-0.22,-0.246l-0.218,-0.248l-0.217,-0.249l-0.216,-0.25l-0.214,-0.252l-0.212,-0.252l-0.211,-0.254l-0.21,-0.256l-0.208,-0.256l-0.206,-0.258l-0.205,-0.259l-0.203,-0.261l-0.202,-0.261l-0.201,-0.263l-0.198,-0.264l-0.198,-0.266l-0.195,-0.266l-0.195,-0.268l-0.192,-0.269l-0.191,-0.27l-0.189,-0.272l-0.188,-0.272l-0.187,-0.274l-0.184,-0.275l-0.183,-0.276l-0.181,-0.277l-0.18,-0.279l-0.178,-0.279l-0.177,-0.281l-0.175,-0.282l-0.173,-0.283l-0.171,-0.284l-0.17,-0.285l-0.168,-0.286l-0.167,-0.287l-0.165,-0.289l-0.163,-0.289l-0.161,-0.291l-0.16,-0.292l-0.158,-0.293l-0.156,-0.293l-0.154,-0.295l-0.153,-0.296l-0.151,-0.297l-0.15,-0.298l-0.147,-0.299l-0.146,-0.3l-0.144,-0.301l-0.142,-0.302l-0.141,-0.303l-0.138,-0.304l-0.137,-0.305l-0.135,-0.306l-0.134,-0.307l-0.131,-0.308l-0.13,-0.309l-0.127,-0.31l-0.126,-0.311l-0.124,-0.311l-0.123,-0.313l-0.12,-0.313l-0.119,-0.315l-0.116,-0.315l-0.115,-0.317l-0.113,-0.317l-0.111,-0.318l-0.109,-0.319l-0.107,-0.32l-0.106,-0.32l-0.103,-0.322l-0.102,-0.322l-0.099,-0.323l-0.098,-0.325l-0.095,-0.325l-0.094,-0.325l-0.092,-0.327l-0.09,-0.327l-0.087,-0.328l-0.086,-0.329l-0.084,-0.33l-0.082,-0.331l-0.08,-0.331l-0.078,-0.332l-0.075,-0.333l-0.074,-0.334l-0.072,-0.334l-0.07,-0.335l-0.067,-0.336l-0.066,-0.337l-0.064,-0.337l-0.061,-0.338l-0.06,-0.339l-0.057,-0.34l-0.056,-0.34l-0.053,-0.341l-0.051,-0.341l-0.049,-0.343l-0.047,-0.342l-0.045,-0.344l-0.042,-0.344l-0.041,-0.345l-0.039,-0.346l-0.036,-0.346l-0.034,-0.347l-0.032,-0.347l-0.03,-0.348l-0.027,-0.349l-0.026,-0.349l-0.023,-0.35l-0.021,-0.35l-0.019,-0.351l-0.017,-0.352l-0.015,-0.352l-0.012,-0.353l-0.01,-0.353l-0.008,-0.354l-0.005,-0.355l-0.004,-0.355l-0.001,-0.355l0.001,-0.355l0.004,-0.355l0.005,-0.355l0.008,-0.354l0.01,-0.353l0.012,-0.353l0.015,-0.352l0.017,-0.352l0.019,-0.351l0.021,-0.35l0.023,-0.35l0.026,-0.349l0.027,-0.349l0.03,-0.348l0.032,-0.347l0.034,-0.347l0.036,-0.346l0.039,-0.346l0.041,-0.345l0.042,-0.344l0.045,-0.344l0.047,-0.342l0.049,-0.343l0.051,-0.341l0.053,-0.341l0.056,-0.34l0.057,-0.34l0.06,-0.339l0.061,-0.338l0.064,-0.337l0.066,-0.337l0.067,-0.336l0.07,-0.335l0.072,-0.334l0.074,-0.334l0.075,-0.333l0.078,-0.332l0.08,-0.331l0.082,-0.331l0.084,-0.33l0.086,-0.329l0.087,-0.328l0.09,-0.327l0.092,-0.327l0.094,-0.325l0.095,-0.325l0.098,-0.325l0.099,-0.323l0.102,-0.322l0.103,-0.322l0.106,-0.32l0.107,-0.32l0.109,-0.319l0.111,-0.318l0.113,-0.317l0.115,-0.317l0.116,-0.315l0.119,-0.315l0.12,-0.313l0.123,-0.313l0.124,-0.311l0.126,-0.311l0.127,-0.31l0.13,-0.309l0.131,-0.308l0.134,-0.307l0.135,-0.306l0.137,-0.305l0.138,-0.304l0.141,-0.303l0.142,-0.302l0.144,-0.301l0.146,-0.3l0.147,-0.299l0.15,-0.298l0.151,-0.297l0.153,-0.296l0.154,-0.295l0.156,-0.293l0.158,-0.293l0.16,-0.292l0.161,-0.291l0.163,-0.289l0.165,-0.289l0.167,-0.287l0.168,-0.286l0.17,-0.285l0.171,-0.284l0.173,-0.283l0.175,-0.282l0.177,-0.281l0.178,-0.279l0.18,-0.279l0.181,-0.277l0.183,-0.276l0.184,-0.275l0.187,-0.274l0.188,-0.272l0.189,-0.272l0.191,-0.27l0.192,-0.269l0.195,-0.268l0.195,-0.266l0.198,-0.266l0.198,-0.264l0.201,-0.263l0.202,-0.261l0.203,-0.261l0.205,-0.259l0.206,-0.258l0.208,-0.256l0.21,-0.256l0.211,-0.254l0.212,-0.252l0.214,-0.252l0.216,-0.25l0.217,-0.249l0.218,-0.248l0.22,-0.246l0.221,-0.245l0.223,-0.243l0.224,-0.242l0.226,-0.241l0.227,-0.24l0.228,-0.238l0.23,-0.237l0.231,-0.235l0.233,-0.234l0.234,-0.233l0.235,-0.231l0.237,-0.23l0.238,-0.228l0.24,-0.227l0.241,-0.226l0.242,-0.224l0.243,-0.223l0.245,-0.221l0.246,-0.22l0.248,-0.218l0.249,-0.217l0.25,-0.216l0.252,-0.214l0.252,-0.212l0.254,-0.211l0.256,-0.21l0.256,-0.208l0.258,-0.206l0.259,-0.205l0.261,-0.203l0.261,-0.202l0.263,-0.201l0.264,-0.198l0.266,-0.198l0.266,-0.195l0.268,-0.195l0.269,-0.192l0.27,-0.191l0.272,-0.189l0.272,-0.188l0.274,-0.187l0.275,-0.184l0.276,-0.183l0.277,-0.181l0.279,-0.18l0.279,-0.178l0.281,-0.177l0.282,-0.175l0.283,-0.173l0.284,-0.171l0.285,-0.17l0.286,-0.168l0.287,-0.167l0.289,-0.165l0.289,-0.163l0.291,-0.161l0.292,-0.16l0.293,-0.158l0.293,-0.156l0.295,-0.154l0.296,-0.153l0.297,-0.151l0.298,-0.15l0.299,-0.147l0.3,-0.146l0.301,-0.144l0.302,-0.142l0.303,-0.141l0.304,-0.138l0.305,-0.137l0.306,-0.135l0.307,-0.134l0.308,-0.131l0.309,-0.13l0.31,-0.127l0.311,-0.126l0.311,-0.124l0.313,-0.123l0.313,-0.12l0.315,-0.119l0.315,-0.116l0.317,-0.115l0.317,-0.113l0.318,-0.111l0.319,-0.109l0.32,-0.107l0.32,-0.106l0.322,-0.103l0.322,-0.102l0.323,-0.099l0.325,-0.098l0.325,-0.095l0.325,-0.094l0.327,-0.092l0.327,-0.09l0.328,-0.087l0.329,-0.086l0.33,-0.084l0.331,-0.082l0.331,-0.08l0.332,-0.078l0.333,-0.075l0.334,-0.074l0.334,-0.072l0.335,-0.07l0.336,-0.067l0.337,-0.066l0.337,-0.064l0.338,-0.061l0.339,-0.06l0.34,-0.057l0.34,-0.056l0.341,-0.053l0.341,-0.051l0.343,-0.049l0.342,-0.047l0.344,-0.045l0.344,-0.042l0.345,-0.041l0.346,-0.039l0.346,-0.036l0.347,-0.034l0.347,-0.032l0.348,-0.03l0.349,-0.027l0.349,-0.026l0.35,-0.023l0.35,-0.021l0.351,-0.019l0.352,-0.017l0.352,-0.015l0.353,-0.012l0.353,-0.01l0.354,-0.008l0.355,-0.005l0.355,-0.004l0.355,-0.001l0.355,0.001Zm-0.52,30l-0.165,0.001l-0.164,0.003l-0.164,0.003l-0.163,0.005l-0.162,0.006l-0.163,0.007l-0.162,0.007l-0.161,0.009l-0.161,0.01l-0.16,0.01l-0.16,0.012l-0.16,0.013l-0.159,0.013l-0.158,0.015l-0.158,0.015l-0.157,0.017l-0.158,0.017l-0.157,0.019l-0.157,0.019l-0.156,0.021l-0.155,0.021l-0.155,0.022l-0.154,0.023l-0.155,0.024l-0.154,0.025l-0.153,0.026l-0.153,0.027l-0.154,0.028l-0.152,0.029l-0.151,0.029l-0.152,0.031l-0.151,0.032l-0.151,0.032l-0.15,0.033l-0.15,0.034l-0.15,0.035l-0.149,0.036l-0.149,0.037l-0.148,0.038l-0.148,0.038l-0.149,0.04l-0.147,0.041l-0.146,0.041l-0.147,0.042l-0.146,0.043l-0.146,0.044l-0.146,0.045l-0.144,0.045l-0.145,0.047l-0.145,0.047l-0.143,0.048l-0.145,0.05l-0.142,0.05l-0.143,0.05l-0.142,0.052l-0.143,0.053l-0.141,0.053l-0.142,0.054l-0.141,0.056l-0.14,0.055l-0.14,0.057l-0.14,0.058l-0.139,0.058l-0.139,0.06l-0.139,0.06l-0.138,0.061l-0.138,0.062l-0.137,0.062l-0.136,0.063l-0.138,0.065l-0.136,0.065l-0.136,0.066l-0.135,0.067l-0.135,0.067l-0.135,0.069l-0.133,0.069l-0.134,0.07l-0.133,0.071l-0.133,0.072l-0.132,0.072l-0.133,0.074l-0.131,0.073l-0.13,0.075l-0.131,0.076l-0.13,0.076l-0.13,0.078l-0.129,0.077l-0.129,0.079l-0.129,0.08l-0.127,0.081l-0.127,0.08l-0.127,0.082l-0.126,0.083l-0.126,0.083l-0.126,0.085l-0.125,0.085l-0.124,0.085l-0.124,0.087l-0.123,0.087l-0.123,0.088l-0.122,0.088l-0.122,0.09l-0.122,0.09l-0.12,0.091l-0.12,0.092l-0.121,0.092l-0.118,0.093l-0.119,0.094l-0.118,0.094l-0.117,0.096l-0.118,0.096l-0.116,0.096l-0.115,0.097l-0.116,0.099l-0.115,0.098l-0.113,0.1l-0.114,0.1l-0.112,0.1l-0.112,0.101l-0.113,0.103l-0.111,0.103l-0.11,0.103l-0.11,0.104l-0.109,0.105l-0.109,0.106l-0.108,0.106l-0.107,0.106l-0.106,0.107l-0.106,0.108l-0.106,0.109l-0.105,0.11l-0.104,0.109l-0.103,0.11l-0.103,0.112l-0.102,0.111l-0.101,0.112l-0.102,0.114l-0.1,0.113l-0.098,0.113l-0.099,0.115l-0.099,0.116l-0.097,0.116l-0.096,0.116l-0.097,0.117l-0.095,0.117l-0.094,0.118l-0.094,0.119l-0.093,0.119l-0.092,0.12l-0.092,0.119l-0.091,0.121l-0.09,0.122l-0.089,0.121l-0.089,0.123l-0.088,0.123l-0.087,0.123l-0.087,0.124l-0.086,0.125l-0.084,0.124l-0.084,0.125l-0.084,0.127l-0.083,0.126l-0.082,0.127l-0.081,0.127l-0.08,0.128l-0.08,0.128l-0.078,0.129l-0.078,0.129l-0.078,0.13l-0.076,0.13l-0.076,0.13l-0.074,0.131l-0.075,0.132l-0.073,0.132l-0.072,0.132l-0.072,0.133l-0.071,0.133l-0.07,0.134l-0.069,0.134l-0.069,0.135l-0.067,0.134l-0.067,0.135l-0.066,0.137l-0.065,0.136l-0.064,0.136l-0.064,0.137l-0.062,0.137l-0.062,0.138l-0.061,0.138l-0.06,0.138l-0.06,0.14l-0.058,0.139l-0.058,0.14l-0.057,0.14l-0.056,0.14l-0.055,0.141l-0.054,0.142l-0.053,0.141l-0.053,0.142l-0.051,0.143l-0.051,0.143l-0.05,0.143l-0.05,0.144l-0.048,0.144l-0.047,0.144l-0.047,0.144l-0.045,0.145l-0.045,0.146l-0.044,0.146l-0.043,0.146l-0.042,0.147l-0.042,0.147l-0.04,0.147l-0.039,0.147l-0.039,0.148l-0.038,0.15l-0.037,0.148l-0.036,0.149l-0.035,0.15l-0.034,0.15l-0.033,0.15l-0.033,0.151l-0.031,0.151l-0.03,0.151l-0.03,0.153l-0.029,0.152l-0.028,0.153l-0.027,0.153l-0.026,0.153l-0.024,0.154l-0.025,0.154l-0.023,0.156l-0.022,0.154l-0.021,0.155l-0.021,0.157l-0.019,0.156l-0.019,0.157l-0.017,0.157l-0.017,0.158l-0.015,0.158l-0.015,0.158l-0.013,0.159l-0.013,0.16l-0.012,0.16l-0.01,0.16l-0.01,0.161l-0.009,0.161l-0.008,0.162l-0.006,0.162l-0.006,0.163l-0.005,0.163l-0.003,0.164l-0.003,0.164l-0.001,0.165l-0.001,0.165l0.001,0.165l0.001,0.165l0.003,0.164l0.003,0.164l0.005,0.163l0.006,0.163l0.006,0.162l0.008,0.162l0.009,0.161l0.01,0.161l0.01,0.16l0.012,0.16l0.013,0.16l0.013,0.159l0.015,0.158l0.015,0.158l0.017,0.158l0.017,0.157l0.019,0.157l0.019,0.156l0.021,0.156l0.021,0.155l0.022,0.156l0.023,0.155l0.025,0.154l0.024,0.154l0.026,0.153l0.027,0.153l0.028,0.153l0.029,0.152l0.03,0.153l0.03,0.151l0.032,0.151l0.032,0.151l0.033,0.15l0.034,0.15l0.035,0.15l0.036,0.149l0.037,0.148l0.038,0.149l0.039,0.149l0.039,0.147l0.04,0.148l0.042,0.146l0.042,0.147l0.043,0.146l0.044,0.146l0.045,0.146l0.045,0.145l0.047,0.144l0.047,0.145l0.048,0.143l0.05,0.144l0.05,0.143l0.051,0.143l0.051,0.143l0.053,0.142l0.053,0.141l0.054,0.142l0.055,0.141l0.056,0.14l0.057,0.14l0.058,0.14l0.058,0.139l0.06,0.14l0.06,0.138l0.061,0.138l0.062,0.138l0.062,0.137l0.064,0.137l0.064,0.136l0.065,0.137l0.066,0.136l0.067,0.135l0.068,0.135l0.068,0.134l0.069,0.134l0.07,0.134l0.071,0.133l0.072,0.133l0.072,0.132l0.073,0.132l0.075,0.132l0.075,0.131l0.075,0.13l0.076,0.13l0.078,0.13l0.078,0.129l0.078,0.129l0.08,0.128l0.08,0.128l0.081,0.127l0.082,0.127l0.083,0.126l0.083,0.126l0.085,0.126l0.085,0.125l0.085,0.124l0.087,0.124l0.087,0.123l0.088,0.123l0.088,0.122l0.09,0.122l0.09,0.122l0.091,0.121l0.092,0.12l0.092,0.119l0.093,0.119l0.094,0.119l0.094,0.118l0.095,0.117l0.097,0.117l0.096,0.117l0.097,0.115l0.099,0.116l0.098,0.114l0.099,0.114l0.1,0.113l0.101,0.113l0.102,0.113l0.102,0.112l0.103,0.111l0.103,0.11l0.104,0.11l0.105,0.109l0.105,0.108l0.106,0.109l0.107,0.107l0.108,0.107l0.108,0.106l0.108,0.105l0.109,0.104l0.11,0.105l0.111,0.103l0.11,0.103l0.112,0.102l0.112,0.101l0.113,0.101l0.114,0.1l0.114,0.1l0.115,0.099l0.114,0.097l0.116,0.098l0.117,0.097l0.117,0.096l0.117,0.095l0.118,0.094l0.119,0.094l0.119,0.093l0.12,0.092l0.12,0.092l0.12,0.091l0.122,0.09l0.122,0.09l0.121,0.088l0.124,0.088l0.123,0.087l0.124,0.087l0.124,0.085l0.125,0.085l0.126,0.085l0.125,0.083l0.126,0.082l0.128,0.083l0.127,0.081l0.128,0.08l0.128,0.08l0.129,0.079l0.129,0.077l0.13,0.078l0.13,0.076l0.13,0.076l0.131,0.075l0.132,0.074l0.132,0.073l0.132,0.072l0.133,0.072l0.133,0.071l0.134,0.07l0.133,0.069l0.135,0.069l0.135,0.067l0.136,0.067l0.135,0.066l0.136,0.065l0.137,0.064l0.137,0.064l0.137,0.062l0.138,0.062l0.139,0.061l0.138,0.06l0.139,0.06l0.14,0.058l0.138,0.057l0.141,0.057l0.141,0.057l0.14,0.055l0.142,0.054l0.142,0.054l0.142,0.052l0.141,0.051l0.144,0.051l0.143,0.05l0.143,0.049l0.144,0.049l0.145,0.047l0.144,0.047l0.146,0.045l0.145,0.045l0.146,0.044l0.146,0.043l0.146,0.042l0.148,0.042l0.147,0.04l0.148,0.04l0.147,0.038l0.149,0.038l0.149,0.037l0.149,0.036l0.15,0.035l0.15,0.034l0.15,0.033l0.151,0.032l0.152,0.032l0.15,0.03l0.152,0.03l0.153,0.029l0.153,0.028l0.152,0.026l0.154,0.027l0.154,0.025l0.154,0.024l0.155,0.023l0.155,0.022l0.156,0.021l0.156,0.021l0.156,0.019l0.157,0.019l0.157,0.017l0.157,0.016l0.159,0.016l0.159,0.015l0.158,0.013l0.16,0.013l0.16,0.012l0.16,0.01l0.161,0.01l0.161,0.009l0.162,0.008l0.163,0.006l0.162,0.006l0.163,0.005l0.164,0.003l0.163,0.003l0.166,0.001l0.165,0.001l0.165,-0.001l0.166,-0.001l0.163,-0.003l0.164,-0.003l0.163,-0.005l0.162,-0.006l0.163,-0.006l0.162,-0.008l0.161,-0.009l0.161,-0.01l0.16,-0.01l0.16,-0.012l0.16,-0.013l0.158,-0.013l0.159,-0.015l0.159,-0.016l0.157,-0.016l0.157,-0.017l0.157,-0.019l0.156,-0.019l0.156,-0.021l0.156,-0.021l0.155,-0.022l0.155,-0.023l0.154,-0.024l0.154,-0.025l0.154,-0.027l0.152,-0.026l0.153,-0.028l0.153,-0.029l0.152,-0.03l0.151,-0.03l0.151,-0.032l0.151,-0.032l0.151,-0.033l0.149,-0.034l0.15,-0.035l0.149,-0.036l0.149,-0.037l0.149,-0.038l0.147,-0.038l0.148,-0.04l0.147,-0.04l0.148,-0.042l0.146,-0.042l0.146,-0.043l0.146,-0.044l0.145,-0.045l0.146,-0.045l0.144,-0.047l0.145,-0.047l0.144,-0.049l0.143,-0.049l0.143,-0.05l0.144,-0.051l0.141,-0.051l0.142,-0.052l0.142,-0.054l0.142,-0.054l0.14,-0.055l0.142,-0.057l0.14,-0.056l0.138,-0.058l0.14,-0.058l0.139,-0.06l0.139,-0.06l0.138,-0.061l0.138,-0.062l0.137,-0.062l0.137,-0.064l0.137,-0.064l0.136,-0.065l0.135,-0.066l0.136,-0.067l0.135,-0.067l0.135,-0.069l0.133,-0.069l0.134,-0.07l0.133,-0.071l0.133,-0.072l0.132,-0.072l0.132,-0.073l0.132,-0.074l0.131,-0.075l0.13,-0.076l0.131,-0.077l0.129,-0.077l0.129,-0.077l0.129,-0.079l0.128,-0.08l0.128,-0.08l0.127,-0.081l0.128,-0.083l0.126,-0.082l0.125,-0.083l0.126,-0.085l0.125,-0.085l0.124,-0.085l0.124,-0.086l0.123,-0.088l0.124,-0.088l0.122,-0.089l0.121,-0.089l0.122,-0.09l0.121,-0.091l0.119,-0.091l0.12,-0.093l0.119,-0.093l0.119,-0.094l0.118,-0.094l0.117,-0.095l0.117,-0.096l0.116,-0.097l0.117,-0.097l0.114,-0.098l0.115,-0.099l0.114,-0.1l0.114,-0.1l0.113,-0.101l0.112,-0.101l0.112,-0.102l0.11,-0.103l0.111,-0.103l0.11,-0.104l0.109,-0.105l0.108,-0.105l0.109,-0.107l0.107,-0.106l0.106,-0.107l0.107,-0.109l0.105,-0.108l0.105,-0.109l0.104,-0.11l0.103,-0.11l0.103,-0.111l0.103,-0.112l0.101,-0.113l0.1,-0.112l0.1,-0.114l0.1,-0.113l0.098,-0.115l0.099,-0.116l0.097,-0.115l0.096,-0.116l0.096,-0.118l0.096,-0.117l0.094,-0.118l0.094,-0.119l0.093,-0.119l0.092,-0.119l0.092,-0.121l0.091,-0.12l0.09,-0.122l0.09,-0.122l0.088,-0.122l0.088,-0.123l0.088,-0.123l0.086,-0.124l0.085,-0.124l0.085,-0.125l0.085,-0.126l0.083,-0.126l0.083,-0.126l0.082,-0.127l0.08,-0.127l0.081,-0.127l0.08,-0.129l0.079,-0.129l0.077,-0.129l0.078,-0.13l0.076,-0.13l0.076,-0.131l0.075,-0.13l0.073,-0.131l0.074,-0.132l0.072,-0.133l0.072,-0.133l0.071,-0.133l0.07,-0.134l0.069,-0.133l0.068,-0.135l0.068,-0.135l0.067,-0.135l0.066,-0.136l0.065,-0.137l0.065,-0.137l0.063,-0.136l0.062,-0.137l0.062,-0.138l0.061,-0.138l0.06,-0.139l0.06,-0.139l0.058,-0.139l0.058,-0.14l0.057,-0.14l0.055,-0.14l0.056,-0.141l0.054,-0.142l0.053,-0.141l0.053,-0.143l0.052,-0.142l0.05,-0.143l0.05,-0.142l0.05,-0.145l0.048,-0.143l0.047,-0.145l0.047,-0.145l0.045,-0.144l0.045,-0.146l0.044,-0.146l0.043,-0.147l0.042,-0.146l0.041,-0.146l0.041,-0.147l0.04,-0.149l0.038,-0.148l0.038,-0.148l0.037,-0.148l0.036,-0.15l0.035,-0.15l0.034,-0.15l0.033,-0.15l0.032,-0.151l0.032,-0.151l0.031,-0.152l0.029,-0.151l0.029,-0.152l0.028,-0.154l0.027,-0.153l0.026,-0.153l0.025,-0.154l0.024,-0.155l0.023,-0.154l0.022,-0.155l0.021,-0.155l0.021,-0.156l0.019,-0.157l0.019,-0.157l0.017,-0.158l0.017,-0.157l0.015,-0.157l0.015,-0.159l0.013,-0.16l0.013,-0.159l0.012,-0.16l0.01,-0.16l0.01,-0.16l0.009,-0.162l0.008,-0.162l0.006,-0.163l0.006,-0.162l0.005,-0.163l0.003,-0.165l0.003,-0.163l0.001,-0.164l0.001,-0.166l-0.001,-0.166l-0.001,-0.164l-0.003,-0.163l-0.003,-0.165l-0.005,-0.163l-0.006,-0.162l-0.006,-0.163l-0.008,-0.162l-0.009,-0.162l-0.01,-0.16l-0.01,-0.16l-0.012,-0.16l-0.013,-0.159l-0.013,-0.16l-0.015,-0.158l-0.015,-0.158l-0.017,-0.157l-0.017,-0.158l-0.019,-0.157l-0.019,-0.157l-0.021,-0.156l-0.021,-0.155l-0.022,-0.155l-0.023,-0.154l-0.024,-0.155l-0.025,-0.154l-0.026,-0.153l-0.027,-0.153l-0.028,-0.154l-0.029,-0.152l-0.029,-0.151l-0.031,-0.152l-0.031,-0.151l-0.033,-0.151l-0.033,-0.15l-0.034,-0.15l-0.035,-0.15l-0.036,-0.149l-0.037,-0.149l-0.038,-0.148l-0.039,-0.148l-0.039,-0.149l-0.041,-0.147l-0.041,-0.146l-0.042,-0.146l-0.043,-0.147l-0.044,-0.146l-0.045,-0.146l-0.045,-0.144l-0.047,-0.145l-0.047,-0.144l-0.048,-0.144l-0.05,-0.145l-0.05,-0.142l-0.05,-0.143l-0.052,-0.142l-0.053,-0.143l-0.053,-0.141l-0.054,-0.142l-0.056,-0.141l-0.055,-0.14l-0.057,-0.14l-0.058,-0.14l-0.058,-0.139l-0.06,-0.139l-0.06,-0.139l-0.061,-0.138l-0.062,-0.138l-0.062,-0.137l-0.064,-0.137l-0.064,-0.136l-0.065,-0.136l-0.066,-0.137l-0.067,-0.135l-0.067,-0.134l-0.069,-0.135l-0.069,-0.134l-0.07,-0.134l-0.071,-0.133l-0.072,-0.133l-0.072,-0.132l-0.074,-0.133l-0.073,-0.131l-0.075,-0.13l-0.076,-0.131l-0.076,-0.13l-0.078,-0.13l-0.077,-0.129l-0.079,-0.129l-0.08,-0.129l-0.08,-0.127l-0.081,-0.127l-0.082,-0.127l-0.083,-0.126l-0.084,-0.127l-0.084,-0.125l-0.085,-0.125l-0.085,-0.124l-0.086,-0.124l-0.088,-0.123l-0.088,-0.123l-0.089,-0.123l-0.089,-0.121l-0.09,-0.122l-0.091,-0.12l-0.091,-0.12l-0.093,-0.121l-0.093,-0.118l-0.094,-0.119l-0.094,-0.118l-0.096,-0.117l-0.096,-0.118l-0.096,-0.115l-0.097,-0.116l-0.099,-0.116l-0.099,-0.115l-0.099,-0.113l-0.1,-0.114l-0.1,-0.112l-0.101,-0.113l-0.103,-0.112l-0.103,-0.111l-0.103,-0.11l-0.104,-0.109l-0.105,-0.11l-0.106,-0.109l-0.106,-0.108l-0.106,-0.107l-0.107,-0.106l-0.108,-0.106l-0.109,-0.106l-0.11,-0.105l-0.109,-0.104l-0.11,-0.103l-0.111,-0.103l-0.112,-0.103l-0.113,-0.101l-0.112,-0.1l-0.114,-0.1l-0.113,-0.099l-0.115,-0.099l-0.116,-0.099l-0.116,-0.097l-0.115,-0.096l-0.118,-0.096l-0.117,-0.096l-0.118,-0.094l-0.119,-0.094l-0.118,-0.093l-0.121,-0.093l-0.12,-0.091l-0.12,-0.091l-0.122,-0.09l-0.121,-0.089l-0.123,-0.089l-0.123,-0.088l-0.123,-0.088l-0.124,-0.086l-0.124,-0.085l-0.125,-0.085l-0.125,-0.084l-0.127,-0.084l-0.126,-0.083l-0.127,-0.082l-0.127,-0.08l-0.127,-0.081l-0.129,-0.08l-0.129,-0.079l-0.129,-0.077l-0.129,-0.077l-0.131,-0.077l-0.131,-0.076l-0.13,-0.075l-0.131,-0.073l-0.133,-0.074l-0.132,-0.072l-0.133,-0.072l-0.133,-0.071l-0.134,-0.07l-0.133,-0.069l-0.135,-0.069l-0.135,-0.067l-0.135,-0.067l-0.136,-0.066l-0.136,-0.065l-0.138,-0.065l-0.136,-0.063l-0.137,-0.062l-0.138,-0.062l-0.138,-0.061l-0.139,-0.06l-0.139,-0.06l-0.139,-0.058l-0.14,-0.058l-0.14,-0.057l-0.14,-0.055l-0.141,-0.056l-0.142,-0.054l-0.141,-0.053l-0.143,-0.053l-0.142,-0.052l-0.143,-0.05l-0.142,-0.05l-0.145,-0.05l-0.143,-0.048l-0.145,-0.047l-0.145,-0.047l-0.144,-0.045l-0.145,-0.045l-0.147,-0.044l-0.146,-0.043l-0.147,-0.042l-0.146,-0.041l-0.147,-0.041l-0.149,-0.04l-0.148,-0.038l-0.148,-0.038l-0.149,-0.037l-0.149,-0.036l-0.15,-0.035l-0.149,-0.034l-0.151,-0.033l-0.151,-0.032l-0.151,-0.032l-0.152,-0.031l-0.151,-0.029l-0.152,-0.029l-0.154,-0.028l-0.153,-0.027l-0.153,-0.026l-0.154,-0.025l-0.155,-0.024l-0.154,-0.023l-0.155,-0.022l-0.155,-0.021l-0.156,-0.021l-0.157,-0.019l-0.157,-0.019l-0.158,-0.017l-0.157,-0.017l-0.158,-0.015l-0.158,-0.015l-0.159,-0.013l-0.16,-0.013l-0.16,-0.012l-0.16,-0.01l-0.161,-0.01l-0.161,-0.009l-0.162,-0.007l-0.163,-0.007l-0.162,-0.006l-0.163,-0.005l-0.164,-0.003l-0.164,-0.003l-0.165,-0.001l-0.165,-0.001l-0.165,0.001Z"/><path d="M260,200l240,0" style="fill:none;stroke:#000;stroke-width:30px;"/><path d="M300,300l200,0" style="fill:none;stroke:#000;stroke-width:30px;"/><path d="M260,400l240,0" style="fill:none;stroke:#000;stroke-width:30px;"/><path d="M90,400l0,-18.418c0,-28.488 23.094,-51.582 51.582,-51.582c5.705,0 11.514,0 17.215,0c13.58,0 26.604,5.395 36.206,14.997c9.602,9.602 14.997,22.626 14.997,36.206l0,18.797" style="fill:none;stroke:#000;stroke-width:30px;"/></svg>